<?xml version="1.0" encoding="utf-8" standalone="no"?>
<!DOCTYPE svg PUBLIC "-//W3C//DTD SVG 1.1//EN"
  "http://www.w3.org/Graphics/SVG/1.1/DTD/svg11.dtd">
<svg xmlns:xlink="http://www.w3.org/1999/xlink" width="432pt" height="288pt" viewBox="0 0 432 288" xmlns="http://www.w3.org/2000/svg" version="1.1">
 <metadata>
  <rdf:RDF xmlns:dc="http://purl.org/dc/elements/1.1/" xmlns:cc="http://creativecommons.org/ns#" xmlns:rdf="http://www.w3.org/1999/02/22-rdf-syntax-ns#">
   <cc:Work>
    <dc:type rdf:resource="http://purl.org/dc/dcmitype/StillImage"/>
    <dc:date>2023-06-05T09:37:19.698044</dc:date>
    <dc:format>image/svg+xml</dc:format>
    <dc:creator>
     <cc:Agent>
      <dc:title>Matplotlib v3.5.2, https://matplotlib.org/</dc:title>
     </cc:Agent>
    </dc:creator>
   </cc:Work>
  </rdf:RDF>
 </metadata>
 <defs>
  <style type="text/css">*{stroke-linejoin: round; stroke-linecap: butt}</style>
 </defs>
 <g id="figure_1">
  <g id="patch_1">
   <path d="M 0 288 
L 432 288 
L 432 0 
L 0 0 
L 0 288 
z
" style="fill: none"/>
  </g>
  <g id="axes_1">
   <g id="patch_2">
    <path d="M 54 252 
L 388.8 252 
L 388.8 34.56 
L 54 34.56 
z
" style="fill: #ffffff"/>
   </g>
   <g id="PolyCollection_1">
    <path d="M 69.218182 175.679002 
L 69.218182 163.791398 
L 70.747647 161.223117 
L 72.277113 157.510033 
L 73.806578 159.564807 
L 75.336044 145.495035 
L 76.865509 162.727327 
L 78.394975 153.773717 
L 79.92444 150.579294 
L 81.453906 153.867739 
L 82.983371 151.865435 
L 84.512837 143.174832 
L 86.042302 140.636107 
L 87.571768 138.020348 
L 89.101233 133.095471 
L 90.630699 127.18163 
L 92.160164 131.668358 
L 93.68963 132.064546 
L 95.219095 133.143062 
L 96.748561 134.500457 
L 98.278026 127.754014 
L 99.807492 124.024791 
L 101.336958 125.069867 
L 102.866423 126.955535 
L 104.395889 125.483461 
L 105.925354 122.811163 
L 107.45482 117.430901 
L 108.984285 120.240734 
L 110.513751 138.042007 
L 112.043216 113.891658 
L 113.572682 118.094573 
L 115.102147 124.420716 
L 116.631613 132.106188 
L 118.161078 123.912284 
L 119.690544 129.418601 
L 121.220009 122.357233 
L 122.749475 128.034758 
L 124.27894 122.354031 
L 125.808406 127.653779 
L 127.337871 121.699419 
L 128.867337 132.284576 
L 130.396802 114.172765 
L 131.926268 114.883127 
L 133.455733 117.803711 
L 134.985199 110.207866 
L 136.514664 115.937716 
L 138.04413 120.283804 
L 139.573595 123.625711 
L 141.103061 113.993354 
L 142.632526 122.846157 
L 144.161992 110.841845 
L 145.691457 118.411632 
L 147.220923 110.403954 
L 148.750388 114.260395 
L 150.279854 116.612539 
L 151.809319 113.176358 
L 153.338785 120.768711 
L 154.86825 110.74451 
L 156.397716 115.733387 
L 157.927181 110.945484 
L 159.456647 109.391145 
L 160.986112 112.125174 
L 162.515578 108.534473 
L 164.045043 114.666895 
L 165.574509 103.532855 
L 167.103974 101.091257 
L 168.63344 111.040359 
L 170.162905 115.481754 
L 171.692371 121.383252 
L 173.221836 105.103215 
L 174.751302 99.542328 
L 176.280767 109.828818 
L 177.810233 100.81089 
L 179.339698 109.143439 
L 180.869164 107.978834 
L 182.39863 107.996663 
L 183.928095 104.324107 
L 185.457561 99.904588 
L 186.987026 102.385877 
L 188.516492 98.900917 
L 190.045957 109.305964 
L 191.575423 109.923458 
L 193.104888 111.8149 
L 194.634354 111.521689 
L 196.163819 108.429477 
L 197.693285 96.415136 
L 199.22275 95.188891 
L 200.752216 100.009284 
L 202.281681 93.872547 
L 203.811147 107.142354 
L 205.340612 97.605916 
L 206.870078 96.418232 
L 208.399543 85.614397 
L 209.929009 102.136671 
L 211.458474 86.59107 
L 212.98794 85.740593 
L 214.517405 90.616736 
L 216.046871 90.618569 
L 217.576336 89.060168 
L 219.105802 87.326986 
L 220.635267 96.923505 
L 222.164733 89.528647 
L 223.694198 95.874787 
L 225.223664 86.847159 
L 226.753129 82.539487 
L 228.282595 83.682515 
L 229.81206 87.367703 
L 231.341526 99.828423 
L 232.870991 82.83252 
L 234.400457 89.24273 
L 235.929922 92.393443 
L 237.459388 95.065709 
L 238.988853 88.917817 
L 240.518319 88.570864 
L 242.047784 93.517769 
L 243.57725 98.947498 
L 245.106715 85.312495 
L 246.636181 88.193252 
L 248.165646 91.345386 
L 249.695112 83.374867 
L 251.224577 87.793501 
L 252.754043 88.7972 
L 254.283508 89.856857 
L 255.812974 96.085257 
L 257.342439 77.223984 
L 258.871905 92.415977 
L 260.40137 91.75729 
L 261.930836 89.622735 
L 263.460302 95.95017 
L 264.989767 87.255092 
L 266.519233 95.54604 
L 268.048698 95.605254 
L 269.578164 87.970032 
L 271.107629 89.127337 
L 272.637095 86.955383 
L 274.16656 97.337282 
L 275.696026 87.73847 
L 277.225491 87.273748 
L 278.754957 86.273776 
L 280.284422 90.191065 
L 281.813888 84.87835 
L 283.343353 85.158206 
L 284.872819 94.436481 
L 286.402284 99.74049 
L 287.93175 94.214403 
L 289.461215 87.814329 
L 290.990681 95.338135 
L 292.520146 95.419093 
L 294.049612 88.202859 
L 295.579077 96.597485 
L 297.108543 92.416921 
L 298.638008 93.011654 
L 300.167474 89.883935 
L 301.696939 101.585925 
L 303.226405 97.927159 
L 304.75587 94.585086 
L 306.285336 88.258466 
L 307.814801 84.827237 
L 309.344267 85.267419 
L 310.873732 90.709379 
L 312.403198 81.064718 
L 313.932663 89.361284 
L 315.462129 86.294799 
L 316.991594 86.534909 
L 318.52106 78.752682 
L 320.050525 88.708656 
L 321.579991 88.213343 
L 323.109456 75.740286 
L 324.638922 89.591317 
L 326.168387 76.559461 
L 327.697853 84.422296 
L 329.227318 82.687411 
L 330.756784 81.23272 
L 332.286249 86.284696 
L 333.815715 79.598052 
L 335.34518 83.414911 
L 336.874646 85.791936 
L 338.404111 84.349306 
L 339.933577 93.987355 
L 341.463042 85.170251 
L 342.992508 90.200025 
L 344.521974 88.838057 
L 346.051439 84.30755 
L 347.580905 83.609201 
L 349.11037 82.659425 
L 350.639836 84.146156 
L 352.169301 90.200951 
L 353.698767 85.453795 
L 355.228232 81.29919 
L 356.757698 76.74401 
L 358.287163 80.907855 
L 359.816629 84.779508 
L 361.346094 78.111266 
L 362.87556 88.72074 
L 364.405025 88.416128 
L 365.934491 84.918078 
L 367.463956 76.805656 
L 368.993422 93.858745 
L 370.522887 92.054183 
L 372.052353 75.409897 
L 373.581818 77.459906 
L 373.581818 100.380094 
L 373.581818 100.380094 
L 372.052353 105.329303 
L 370.522887 109.704217 
L 368.993422 111.523655 
L 367.463956 108.282344 
L 365.934491 110.317122 
L 364.405025 105.731872 
L 362.87556 94.19286 
L 361.346094 94.655134 
L 359.816629 119.878092 
L 358.287163 114.327345 
L 356.757698 109.06879 
L 355.228232 112.84881 
L 353.698767 106.519805 
L 352.169301 113.731849 
L 350.639836 102.029044 
L 349.11037 110.401375 
L 347.580905 101.841199 
L 346.051439 109.47805 
L 344.521974 104.947543 
L 342.992508 104.310375 
L 341.463042 99.917749 
L 339.933577 104.509445 
L 338.404111 106.174694 
L 336.874646 112.704864 
L 335.34518 108.196289 
L 333.815715 100.416348 
L 332.286249 97.716104 
L 330.756784 88.99688 
L 329.227318 109.286189 
L 327.697853 105.739304 
L 326.168387 105.266939 
L 324.638922 115.428683 
L 323.109456 95.576514 
L 321.579991 102.673057 
L 320.050525 105.076944 
L 318.52106 104.885718 
L 316.991594 103.264291 
L 315.462129 104.954001 
L 313.932663 94.277116 
L 312.403198 103.298482 
L 310.873732 108.149821 
L 309.344267 112.866981 
L 307.814801 100.985563 
L 306.285336 104.802334 
L 304.75587 114.421314 
L 303.226405 104.193641 
L 301.696939 108.870075 
L 300.167474 101.727265 
L 298.638008 104.760346 
L 297.108543 107.529479 
L 295.579077 110.234515 
L 294.049612 113.917941 
L 292.520146 106.339307 
L 290.990681 112.943465 
L 289.461215 105.608871 
L 287.93175 108.268797 
L 286.402284 109.99071 
L 284.872819 109.858719 
L 283.343353 110.076994 
L 281.813888 111.08165 
L 280.284422 102.507335 
L 278.754957 106.787024 
L 277.225491 102.163052 
L 275.696026 103.14793 
L 274.16656 115.655518 
L 272.637095 120.239017 
L 271.107629 110.456663 
L 269.578164 114.150768 
L 268.048698 114.488346 
L 266.519233 120.34596 
L 264.989767 109.429708 
L 263.460302 109.43223 
L 261.930836 104.525265 
L 260.40137 118.33631 
L 258.871905 117.677623 
L 257.342439 114.387216 
L 255.812974 109.659543 
L 254.283508 107.915143 
L 252.754043 125.2828 
L 251.224577 104.542499 
L 249.695112 118.383533 
L 248.165646 116.211414 
L 246.636181 121.900348 
L 245.106715 97.238705 
L 243.57725 112.233302 
L 242.047784 113.314231 
L 240.518319 118.261136 
L 238.988853 119.001383 
L 237.459388 121.188691 
L 235.929922 119.149757 
L 234.400457 104.18047 
L 232.870991 120.37548 
L 231.341526 107.003577 
L 229.81206 111.129097 
L 228.282595 115.901485 
L 226.753129 102.186113 
L 225.223664 114.548841 
L 223.694198 106.246013 
L 222.164733 130.349753 
L 220.635267 120.418095 
L 219.105802 126.390614 
L 217.576336 120.308632 
L 216.046871 110.415031 
L 214.517405 120.926464 
L 212.98794 116.017807 
L 211.458474 117.34173 
L 209.929009 123.177729 
L 208.399543 112.520003 
L 206.870078 115.849768 
L 205.340612 120.098084 
L 203.811147 121.796046 
L 202.281681 122.744253 
L 200.752216 133.640316 
L 199.22275 118.166309 
L 197.693285 126.724864 
L 196.163819 121.596123 
L 194.634354 127.201511 
L 193.104888 126.1835 
L 191.575423 126.625342 
L 190.045957 117.820436 
L 188.516492 127.500683 
L 186.987026 127.639723 
L 185.457561 130.121012 
L 183.928095 119.903093 
L 182.39863 126.740137 
L 180.869164 124.945966 
L 179.339698 121.244561 
L 177.810233 133.56351 
L 176.280767 134.330382 
L 174.751302 122.148072 
L 173.221836 128.908785 
L 171.692371 127.124748 
L 170.162905 122.154246 
L 168.63344 120.434841 
L 167.103974 119.149543 
L 165.574509 127.579945 
L 164.045043 126.593105 
L 162.515578 142.147927 
L 160.986112 129.134826 
L 159.456647 131.506455 
L 157.927181 132.126516 
L 156.397716 131.325013 
L 154.86825 145.73629 
L 153.338785 133.175289 
L 151.809319 126.634042 
L 150.279854 128.271461 
L 148.750388 135.697205 
L 147.220923 125.057646 
L 145.691457 144.592368 
L 144.161992 140.202955 
L 142.632526 136.171443 
L 141.103061 132.340246 
L 139.573595 136.116689 
L 138.04413 130.398596 
L 136.514664 124.597484 
L 134.985199 139.024934 
L 133.455733 145.200289 
L 131.926268 123.115273 
L 130.396802 132.523235 
L 128.867337 135.068224 
L 127.337871 142.029381 
L 125.808406 142.960621 
L 124.27894 150.434769 
L 122.749475 141.492442 
L 121.220009 140.646767 
L 119.690544 149.893399 
L 118.161078 144.527716 
L 116.631613 151.554612 
L 115.102147 142.569684 
L 113.572682 142.010227 
L 112.043216 148.749942 
L 110.513751 147.793193 
L 108.984285 143.488066 
L 107.45482 145.210699 
L 105.925354 147.078437 
L 104.395889 154.190939 
L 102.866423 162.866065 
L 101.336958 142.645333 
L 99.807492 159.636009 
L 98.278026 154.094786 
L 96.748561 150.609943 
L 95.219095 152.329738 
L 93.68963 156.307454 
L 92.160164 153.804442 
L 90.630699 151.40557 
L 89.101233 156.001329 
L 87.571768 158.324452 
L 86.042302 164.043893 
L 84.512837 153.894768 
L 82.983371 163.686565 
L 81.453906 166.395461 
L 79.92444 164.610306 
L 78.394975 174.462283 
L 76.865509 167.683073 
L 75.336044 169.694565 
L 73.806578 173.744793 
L 72.277113 175.799567 
L 70.747647 168.824883 
L 69.218182 175.679002 
z
" clip-path="url(#p55521a53a5)" style="fill: #1f77b4; fill-opacity: 0.5"/>
   </g>
   <g id="matplotlib.axis_1">
    <g id="xtick_1">
     <g id="line2d_1">
      <defs>
       <path id="mc9bafa0f2b" d="M 0 0 
L 0 3.5 
" style="stroke: #000000; stroke-width: 0.8"/>
      </defs>
      <g>
       <use xlink:href="#mc9bafa0f2b" x="69.218182" y="252" style="stroke: #000000; stroke-width: 0.8"/>
      </g>
     </g>
     <g id="text_1">
      <!-- 0 -->
      <g transform="translate(66.036932 266.598437)scale(0.1 -0.1)">
       <defs>
        <path id="DejaVuSans-30" d="M 2034 4250 
Q 1547 4250 1301 3770 
Q 1056 3291 1056 2328 
Q 1056 1369 1301 889 
Q 1547 409 2034 409 
Q 2525 409 2770 889 
Q 3016 1369 3016 2328 
Q 3016 3291 2770 3770 
Q 2525 4250 2034 4250 
z
M 2034 4750 
Q 2819 4750 3233 4129 
Q 3647 3509 3647 2328 
Q 3647 1150 3233 529 
Q 2819 -91 2034 -91 
Q 1250 -91 836 529 
Q 422 1150 422 2328 
Q 422 3509 836 4129 
Q 1250 4750 2034 4750 
z
" transform="scale(0.015625)"/>
       </defs>
       <use xlink:href="#DejaVuSans-30"/>
      </g>
     </g>
    </g>
    <g id="xtick_2">
     <g id="line2d_2">
      <g>
       <use xlink:href="#mc9bafa0f2b" x="107.45482" y="252" style="stroke: #000000; stroke-width: 0.8"/>
      </g>
     </g>
     <g id="text_2">
      <!-- 25 -->
      <g transform="translate(101.09232 266.598437)scale(0.1 -0.1)">
       <defs>
        <path id="DejaVuSans-32" d="M 1228 531 
L 3431 531 
L 3431 0 
L 469 0 
L 469 531 
Q 828 903 1448 1529 
Q 2069 2156 2228 2338 
Q 2531 2678 2651 2914 
Q 2772 3150 2772 3378 
Q 2772 3750 2511 3984 
Q 2250 4219 1831 4219 
Q 1534 4219 1204 4116 
Q 875 4013 500 3803 
L 500 4441 
Q 881 4594 1212 4672 
Q 1544 4750 1819 4750 
Q 2544 4750 2975 4387 
Q 3406 4025 3406 3419 
Q 3406 3131 3298 2873 
Q 3191 2616 2906 2266 
Q 2828 2175 2409 1742 
Q 1991 1309 1228 531 
z
" transform="scale(0.015625)"/>
        <path id="DejaVuSans-35" d="M 691 4666 
L 3169 4666 
L 3169 4134 
L 1269 4134 
L 1269 2991 
Q 1406 3038 1543 3061 
Q 1681 3084 1819 3084 
Q 2600 3084 3056 2656 
Q 3513 2228 3513 1497 
Q 3513 744 3044 326 
Q 2575 -91 1722 -91 
Q 1428 -91 1123 -41 
Q 819 9 494 109 
L 494 744 
Q 775 591 1075 516 
Q 1375 441 1709 441 
Q 2250 441 2565 725 
Q 2881 1009 2881 1497 
Q 2881 1984 2565 2268 
Q 2250 2553 1709 2553 
Q 1456 2553 1204 2497 
Q 953 2441 691 2322 
L 691 4666 
z
" transform="scale(0.015625)"/>
       </defs>
       <use xlink:href="#DejaVuSans-32"/>
       <use xlink:href="#DejaVuSans-35" x="63.623047"/>
      </g>
     </g>
    </g>
    <g id="xtick_3">
     <g id="line2d_3">
      <g>
       <use xlink:href="#mc9bafa0f2b" x="145.691457" y="252" style="stroke: #000000; stroke-width: 0.8"/>
      </g>
     </g>
     <g id="text_3">
      <!-- 50 -->
      <g transform="translate(139.328957 266.598437)scale(0.1 -0.1)">
       <use xlink:href="#DejaVuSans-35"/>
       <use xlink:href="#DejaVuSans-30" x="63.623047"/>
      </g>
     </g>
    </g>
    <g id="xtick_4">
     <g id="line2d_4">
      <g>
       <use xlink:href="#mc9bafa0f2b" x="183.928095" y="252" style="stroke: #000000; stroke-width: 0.8"/>
      </g>
     </g>
     <g id="text_4">
      <!-- 75 -->
      <g transform="translate(177.565595 266.598437)scale(0.1 -0.1)">
       <defs>
        <path id="DejaVuSans-37" d="M 525 4666 
L 3525 4666 
L 3525 4397 
L 1831 0 
L 1172 0 
L 2766 4134 
L 525 4134 
L 525 4666 
z
" transform="scale(0.015625)"/>
       </defs>
       <use xlink:href="#DejaVuSans-37"/>
       <use xlink:href="#DejaVuSans-35" x="63.623047"/>
      </g>
     </g>
    </g>
    <g id="xtick_5">
     <g id="line2d_5">
      <g>
       <use xlink:href="#mc9bafa0f2b" x="222.164733" y="252" style="stroke: #000000; stroke-width: 0.8"/>
      </g>
     </g>
     <g id="text_5">
      <!-- 100 -->
      <g transform="translate(212.620983 266.598437)scale(0.1 -0.1)">
       <defs>
        <path id="DejaVuSans-31" d="M 794 531 
L 1825 531 
L 1825 4091 
L 703 3866 
L 703 4441 
L 1819 4666 
L 2450 4666 
L 2450 531 
L 3481 531 
L 3481 0 
L 794 0 
L 794 531 
z
" transform="scale(0.015625)"/>
       </defs>
       <use xlink:href="#DejaVuSans-31"/>
       <use xlink:href="#DejaVuSans-30" x="63.623047"/>
       <use xlink:href="#DejaVuSans-30" x="127.246094"/>
      </g>
     </g>
    </g>
    <g id="xtick_6">
     <g id="line2d_6">
      <g>
       <use xlink:href="#mc9bafa0f2b" x="260.40137" y="252" style="stroke: #000000; stroke-width: 0.8"/>
      </g>
     </g>
     <g id="text_6">
      <!-- 125 -->
      <g transform="translate(250.85762 266.598437)scale(0.1 -0.1)">
       <use xlink:href="#DejaVuSans-31"/>
       <use xlink:href="#DejaVuSans-32" x="63.623047"/>
       <use xlink:href="#DejaVuSans-35" x="127.246094"/>
      </g>
     </g>
    </g>
    <g id="xtick_7">
     <g id="line2d_7">
      <g>
       <use xlink:href="#mc9bafa0f2b" x="298.638008" y="252" style="stroke: #000000; stroke-width: 0.8"/>
      </g>
     </g>
     <g id="text_7">
      <!-- 150 -->
      <g transform="translate(289.094258 266.598437)scale(0.1 -0.1)">
       <use xlink:href="#DejaVuSans-31"/>
       <use xlink:href="#DejaVuSans-35" x="63.623047"/>
       <use xlink:href="#DejaVuSans-30" x="127.246094"/>
      </g>
     </g>
    </g>
    <g id="xtick_8">
     <g id="line2d_8">
      <g>
       <use xlink:href="#mc9bafa0f2b" x="336.874646" y="252" style="stroke: #000000; stroke-width: 0.8"/>
      </g>
     </g>
     <g id="text_8">
      <!-- 175 -->
      <g transform="translate(327.330896 266.598437)scale(0.1 -0.1)">
       <use xlink:href="#DejaVuSans-31"/>
       <use xlink:href="#DejaVuSans-37" x="63.623047"/>
       <use xlink:href="#DejaVuSans-35" x="127.246094"/>
      </g>
     </g>
    </g>
    <g id="xtick_9">
     <g id="line2d_9">
      <g>
       <use xlink:href="#mc9bafa0f2b" x="375.111284" y="252" style="stroke: #000000; stroke-width: 0.8"/>
      </g>
     </g>
     <g id="text_9">
      <!-- 200 -->
      <g transform="translate(365.567534 266.598437)scale(0.1 -0.1)">
       <use xlink:href="#DejaVuSans-32"/>
       <use xlink:href="#DejaVuSans-30" x="63.623047"/>
       <use xlink:href="#DejaVuSans-30" x="127.246094"/>
      </g>
     </g>
    </g>
    <g id="text_10">
     <!-- Generation -->
     <g transform="translate(193.507031 280.276563)scale(0.1 -0.1)">
      <defs>
       <path id="DejaVuSans-47" d="M 3809 666 
L 3809 1919 
L 2778 1919 
L 2778 2438 
L 4434 2438 
L 4434 434 
Q 4069 175 3628 42 
Q 3188 -91 2688 -91 
Q 1594 -91 976 548 
Q 359 1188 359 2328 
Q 359 3472 976 4111 
Q 1594 4750 2688 4750 
Q 3144 4750 3555 4637 
Q 3966 4525 4313 4306 
L 4313 3634 
Q 3963 3931 3569 4081 
Q 3175 4231 2741 4231 
Q 1884 4231 1454 3753 
Q 1025 3275 1025 2328 
Q 1025 1384 1454 906 
Q 1884 428 2741 428 
Q 3075 428 3337 486 
Q 3600 544 3809 666 
z
" transform="scale(0.015625)"/>
       <path id="DejaVuSans-65" d="M 3597 1894 
L 3597 1613 
L 953 1613 
Q 991 1019 1311 708 
Q 1631 397 2203 397 
Q 2534 397 2845 478 
Q 3156 559 3463 722 
L 3463 178 
Q 3153 47 2828 -22 
Q 2503 -91 2169 -91 
Q 1331 -91 842 396 
Q 353 884 353 1716 
Q 353 2575 817 3079 
Q 1281 3584 2069 3584 
Q 2775 3584 3186 3129 
Q 3597 2675 3597 1894 
z
M 3022 2063 
Q 3016 2534 2758 2815 
Q 2500 3097 2075 3097 
Q 1594 3097 1305 2825 
Q 1016 2553 972 2059 
L 3022 2063 
z
" transform="scale(0.015625)"/>
       <path id="DejaVuSans-6e" d="M 3513 2113 
L 3513 0 
L 2938 0 
L 2938 2094 
Q 2938 2591 2744 2837 
Q 2550 3084 2163 3084 
Q 1697 3084 1428 2787 
Q 1159 2491 1159 1978 
L 1159 0 
L 581 0 
L 581 3500 
L 1159 3500 
L 1159 2956 
Q 1366 3272 1645 3428 
Q 1925 3584 2291 3584 
Q 2894 3584 3203 3211 
Q 3513 2838 3513 2113 
z
" transform="scale(0.015625)"/>
       <path id="DejaVuSans-72" d="M 2631 2963 
Q 2534 3019 2420 3045 
Q 2306 3072 2169 3072 
Q 1681 3072 1420 2755 
Q 1159 2438 1159 1844 
L 1159 0 
L 581 0 
L 581 3500 
L 1159 3500 
L 1159 2956 
Q 1341 3275 1631 3429 
Q 1922 3584 2338 3584 
Q 2397 3584 2469 3576 
Q 2541 3569 2628 3553 
L 2631 2963 
z
" transform="scale(0.015625)"/>
       <path id="DejaVuSans-61" d="M 2194 1759 
Q 1497 1759 1228 1600 
Q 959 1441 959 1056 
Q 959 750 1161 570 
Q 1363 391 1709 391 
Q 2188 391 2477 730 
Q 2766 1069 2766 1631 
L 2766 1759 
L 2194 1759 
z
M 3341 1997 
L 3341 0 
L 2766 0 
L 2766 531 
Q 2569 213 2275 61 
Q 1981 -91 1556 -91 
Q 1019 -91 701 211 
Q 384 513 384 1019 
Q 384 1609 779 1909 
Q 1175 2209 1959 2209 
L 2766 2209 
L 2766 2266 
Q 2766 2663 2505 2880 
Q 2244 3097 1772 3097 
Q 1472 3097 1187 3025 
Q 903 2953 641 2809 
L 641 3341 
Q 956 3463 1253 3523 
Q 1550 3584 1831 3584 
Q 2591 3584 2966 3190 
Q 3341 2797 3341 1997 
z
" transform="scale(0.015625)"/>
       <path id="DejaVuSans-74" d="M 1172 4494 
L 1172 3500 
L 2356 3500 
L 2356 3053 
L 1172 3053 
L 1172 1153 
Q 1172 725 1289 603 
Q 1406 481 1766 481 
L 2356 481 
L 2356 0 
L 1766 0 
Q 1100 0 847 248 
Q 594 497 594 1153 
L 594 3053 
L 172 3053 
L 172 3500 
L 594 3500 
L 594 4494 
L 1172 4494 
z
" transform="scale(0.015625)"/>
       <path id="DejaVuSans-69" d="M 603 3500 
L 1178 3500 
L 1178 0 
L 603 0 
L 603 3500 
z
M 603 4863 
L 1178 4863 
L 1178 4134 
L 603 4134 
L 603 4863 
z
" transform="scale(0.015625)"/>
       <path id="DejaVuSans-6f" d="M 1959 3097 
Q 1497 3097 1228 2736 
Q 959 2375 959 1747 
Q 959 1119 1226 758 
Q 1494 397 1959 397 
Q 2419 397 2687 759 
Q 2956 1122 2956 1747 
Q 2956 2369 2687 2733 
Q 2419 3097 1959 3097 
z
M 1959 3584 
Q 2709 3584 3137 3096 
Q 3566 2609 3566 1747 
Q 3566 888 3137 398 
Q 2709 -91 1959 -91 
Q 1206 -91 779 398 
Q 353 888 353 1747 
Q 353 2609 779 3096 
Q 1206 3584 1959 3584 
z
" transform="scale(0.015625)"/>
      </defs>
      <use xlink:href="#DejaVuSans-47"/>
      <use xlink:href="#DejaVuSans-65" x="77.490234"/>
      <use xlink:href="#DejaVuSans-6e" x="139.013672"/>
      <use xlink:href="#DejaVuSans-65" x="202.392578"/>
      <use xlink:href="#DejaVuSans-72" x="263.916016"/>
      <use xlink:href="#DejaVuSans-61" x="305.029297"/>
      <use xlink:href="#DejaVuSans-74" x="366.308594"/>
      <use xlink:href="#DejaVuSans-69" x="405.517578"/>
      <use xlink:href="#DejaVuSans-6f" x="433.300781"/>
      <use xlink:href="#DejaVuSans-6e" x="494.482422"/>
     </g>
    </g>
   </g>
   <g id="matplotlib.axis_2">
    <g id="ytick_1">
     <g id="line2d_10">
      <defs>
       <path id="mf618df48d4" d="M 0 0 
L -3.5 0 
" style="stroke: #000000; stroke-width: 0.8"/>
      </defs>
      <g>
       <use xlink:href="#mf618df48d4" x="54" y="252" style="stroke: #000000; stroke-width: 0.8"/>
      </g>
     </g>
     <g id="text_11">
      <!-- 6.0 -->
      <g transform="translate(31.096875 255.799219)scale(0.1 -0.1)">
       <defs>
        <path id="DejaVuSans-36" d="M 2113 2584 
Q 1688 2584 1439 2293 
Q 1191 2003 1191 1497 
Q 1191 994 1439 701 
Q 1688 409 2113 409 
Q 2538 409 2786 701 
Q 3034 994 3034 1497 
Q 3034 2003 2786 2293 
Q 2538 2584 2113 2584 
z
M 3366 4563 
L 3366 3988 
Q 3128 4100 2886 4159 
Q 2644 4219 2406 4219 
Q 1781 4219 1451 3797 
Q 1122 3375 1075 2522 
Q 1259 2794 1537 2939 
Q 1816 3084 2150 3084 
Q 2853 3084 3261 2657 
Q 3669 2231 3669 1497 
Q 3669 778 3244 343 
Q 2819 -91 2113 -91 
Q 1303 -91 875 529 
Q 447 1150 447 2328 
Q 447 3434 972 4092 
Q 1497 4750 2381 4750 
Q 2619 4750 2861 4703 
Q 3103 4656 3366 4563 
z
" transform="scale(0.015625)"/>
        <path id="DejaVuSans-2e" d="M 684 794 
L 1344 794 
L 1344 0 
L 684 0 
L 684 794 
z
" transform="scale(0.015625)"/>
       </defs>
       <use xlink:href="#DejaVuSans-36"/>
       <use xlink:href="#DejaVuSans-2e" x="63.623047"/>
       <use xlink:href="#DejaVuSans-30" x="95.410156"/>
      </g>
     </g>
    </g>
    <g id="ytick_2">
     <g id="line2d_11">
      <g>
       <use xlink:href="#mf618df48d4" x="54" y="215.76" style="stroke: #000000; stroke-width: 0.8"/>
      </g>
     </g>
     <g id="text_12">
      <!-- 6.5 -->
      <g transform="translate(31.096875 219.559219)scale(0.1 -0.1)">
       <use xlink:href="#DejaVuSans-36"/>
       <use xlink:href="#DejaVuSans-2e" x="63.623047"/>
       <use xlink:href="#DejaVuSans-35" x="95.410156"/>
      </g>
     </g>
    </g>
    <g id="ytick_3">
     <g id="line2d_12">
      <g>
       <use xlink:href="#mf618df48d4" x="54" y="179.52" style="stroke: #000000; stroke-width: 0.8"/>
      </g>
     </g>
     <g id="text_13">
      <!-- 7.0 -->
      <g transform="translate(31.096875 183.319219)scale(0.1 -0.1)">
       <use xlink:href="#DejaVuSans-37"/>
       <use xlink:href="#DejaVuSans-2e" x="63.623047"/>
       <use xlink:href="#DejaVuSans-30" x="95.410156"/>
      </g>
     </g>
    </g>
    <g id="ytick_4">
     <g id="line2d_13">
      <g>
       <use xlink:href="#mf618df48d4" x="54" y="143.28" style="stroke: #000000; stroke-width: 0.8"/>
      </g>
     </g>
     <g id="text_14">
      <!-- 7.5 -->
      <g transform="translate(31.096875 147.079219)scale(0.1 -0.1)">
       <use xlink:href="#DejaVuSans-37"/>
       <use xlink:href="#DejaVuSans-2e" x="63.623047"/>
       <use xlink:href="#DejaVuSans-35" x="95.410156"/>
      </g>
     </g>
    </g>
    <g id="ytick_5">
     <g id="line2d_14">
      <g>
       <use xlink:href="#mf618df48d4" x="54" y="107.04" style="stroke: #000000; stroke-width: 0.8"/>
      </g>
     </g>
     <g id="text_15">
      <!-- 8.0 -->
      <g transform="translate(31.096875 110.839219)scale(0.1 -0.1)">
       <defs>
        <path id="DejaVuSans-38" d="M 2034 2216 
Q 1584 2216 1326 1975 
Q 1069 1734 1069 1313 
Q 1069 891 1326 650 
Q 1584 409 2034 409 
Q 2484 409 2743 651 
Q 3003 894 3003 1313 
Q 3003 1734 2745 1975 
Q 2488 2216 2034 2216 
z
M 1403 2484 
Q 997 2584 770 2862 
Q 544 3141 544 3541 
Q 544 4100 942 4425 
Q 1341 4750 2034 4750 
Q 2731 4750 3128 4425 
Q 3525 4100 3525 3541 
Q 3525 3141 3298 2862 
Q 3072 2584 2669 2484 
Q 3125 2378 3379 2068 
Q 3634 1759 3634 1313 
Q 3634 634 3220 271 
Q 2806 -91 2034 -91 
Q 1263 -91 848 271 
Q 434 634 434 1313 
Q 434 1759 690 2068 
Q 947 2378 1403 2484 
z
M 1172 3481 
Q 1172 3119 1398 2916 
Q 1625 2713 2034 2713 
Q 2441 2713 2670 2916 
Q 2900 3119 2900 3481 
Q 2900 3844 2670 4047 
Q 2441 4250 2034 4250 
Q 1625 4250 1398 4047 
Q 1172 3844 1172 3481 
z
" transform="scale(0.015625)"/>
       </defs>
       <use xlink:href="#DejaVuSans-38"/>
       <use xlink:href="#DejaVuSans-2e" x="63.623047"/>
       <use xlink:href="#DejaVuSans-30" x="95.410156"/>
      </g>
     </g>
    </g>
    <g id="ytick_6">
     <g id="line2d_15">
      <g>
       <use xlink:href="#mf618df48d4" x="54" y="70.8" style="stroke: #000000; stroke-width: 0.8"/>
      </g>
     </g>
     <g id="text_16">
      <!-- 8.5 -->
      <g transform="translate(31.096875 74.599219)scale(0.1 -0.1)">
       <use xlink:href="#DejaVuSans-38"/>
       <use xlink:href="#DejaVuSans-2e" x="63.623047"/>
       <use xlink:href="#DejaVuSans-35" x="95.410156"/>
      </g>
     </g>
    </g>
    <g id="ytick_7">
     <g id="line2d_16">
      <g>
       <use xlink:href="#mf618df48d4" x="54" y="34.56" style="stroke: #000000; stroke-width: 0.8"/>
      </g>
     </g>
     <g id="text_17">
      <!-- 9.0 -->
      <g transform="translate(31.096875 38.359219)scale(0.1 -0.1)">
       <defs>
        <path id="DejaVuSans-39" d="M 703 97 
L 703 672 
Q 941 559 1184 500 
Q 1428 441 1663 441 
Q 2288 441 2617 861 
Q 2947 1281 2994 2138 
Q 2813 1869 2534 1725 
Q 2256 1581 1919 1581 
Q 1219 1581 811 2004 
Q 403 2428 403 3163 
Q 403 3881 828 4315 
Q 1253 4750 1959 4750 
Q 2769 4750 3195 4129 
Q 3622 3509 3622 2328 
Q 3622 1225 3098 567 
Q 2575 -91 1691 -91 
Q 1453 -91 1209 -44 
Q 966 3 703 97 
z
M 1959 2075 
Q 2384 2075 2632 2365 
Q 2881 2656 2881 3163 
Q 2881 3666 2632 3958 
Q 2384 4250 1959 4250 
Q 1534 4250 1286 3958 
Q 1038 3666 1038 3163 
Q 1038 2656 1286 2365 
Q 1534 2075 1959 2075 
z
" transform="scale(0.015625)"/>
       </defs>
       <use xlink:href="#DejaVuSans-39"/>
       <use xlink:href="#DejaVuSans-2e" x="63.623047"/>
       <use xlink:href="#DejaVuSans-30" x="95.410156"/>
      </g>
     </g>
    </g>
    <g id="text_18">
     <!-- Average Energy -->
     <g transform="translate(25.017187 182.908125)rotate(-90)scale(0.1 -0.1)">
      <defs>
       <path id="DejaVuSans-41" d="M 2188 4044 
L 1331 1722 
L 3047 1722 
L 2188 4044 
z
M 1831 4666 
L 2547 4666 
L 4325 0 
L 3669 0 
L 3244 1197 
L 1141 1197 
L 716 0 
L 50 0 
L 1831 4666 
z
" transform="scale(0.015625)"/>
       <path id="DejaVuSans-76" d="M 191 3500 
L 800 3500 
L 1894 563 
L 2988 3500 
L 3597 3500 
L 2284 0 
L 1503 0 
L 191 3500 
z
" transform="scale(0.015625)"/>
       <path id="DejaVuSans-67" d="M 2906 1791 
Q 2906 2416 2648 2759 
Q 2391 3103 1925 3103 
Q 1463 3103 1205 2759 
Q 947 2416 947 1791 
Q 947 1169 1205 825 
Q 1463 481 1925 481 
Q 2391 481 2648 825 
Q 2906 1169 2906 1791 
z
M 3481 434 
Q 3481 -459 3084 -895 
Q 2688 -1331 1869 -1331 
Q 1566 -1331 1297 -1286 
Q 1028 -1241 775 -1147 
L 775 -588 
Q 1028 -725 1275 -790 
Q 1522 -856 1778 -856 
Q 2344 -856 2625 -561 
Q 2906 -266 2906 331 
L 2906 616 
Q 2728 306 2450 153 
Q 2172 0 1784 0 
Q 1141 0 747 490 
Q 353 981 353 1791 
Q 353 2603 747 3093 
Q 1141 3584 1784 3584 
Q 2172 3584 2450 3431 
Q 2728 3278 2906 2969 
L 2906 3500 
L 3481 3500 
L 3481 434 
z
" transform="scale(0.015625)"/>
       <path id="DejaVuSans-20" transform="scale(0.015625)"/>
       <path id="DejaVuSans-45" d="M 628 4666 
L 3578 4666 
L 3578 4134 
L 1259 4134 
L 1259 2753 
L 3481 2753 
L 3481 2222 
L 1259 2222 
L 1259 531 
L 3634 531 
L 3634 0 
L 628 0 
L 628 4666 
z
" transform="scale(0.015625)"/>
       <path id="DejaVuSans-79" d="M 2059 -325 
Q 1816 -950 1584 -1140 
Q 1353 -1331 966 -1331 
L 506 -1331 
L 506 -850 
L 844 -850 
Q 1081 -850 1212 -737 
Q 1344 -625 1503 -206 
L 1606 56 
L 191 3500 
L 800 3500 
L 1894 763 
L 2988 3500 
L 3597 3500 
L 2059 -325 
z
" transform="scale(0.015625)"/>
      </defs>
      <use xlink:href="#DejaVuSans-41"/>
      <use xlink:href="#DejaVuSans-76" x="62.533203"/>
      <use xlink:href="#DejaVuSans-65" x="121.712891"/>
      <use xlink:href="#DejaVuSans-72" x="183.236328"/>
      <use xlink:href="#DejaVuSans-61" x="224.349609"/>
      <use xlink:href="#DejaVuSans-67" x="285.628906"/>
      <use xlink:href="#DejaVuSans-65" x="349.105469"/>
      <use xlink:href="#DejaVuSans-20" x="410.628906"/>
      <use xlink:href="#DejaVuSans-45" x="442.416016"/>
      <use xlink:href="#DejaVuSans-6e" x="505.599609"/>
      <use xlink:href="#DejaVuSans-65" x="568.978516"/>
      <use xlink:href="#DejaVuSans-72" x="630.501953"/>
      <use xlink:href="#DejaVuSans-67" x="669.865234"/>
      <use xlink:href="#DejaVuSans-79" x="733.341797"/>
     </g>
    </g>
   </g>
   <g id="line2d_17">
    <path d="M 69.218182 169.7352 
L 70.747647 165.024 
L 72.277113 166.6548 
L 73.806578 166.6548 
L 75.336044 157.5948 
L 76.865509 165.2052 
L 78.394975 164.118 
L 79.92444 157.5948 
L 81.453906 160.1316 
L 82.983371 157.776 
L 84.512837 148.5348 
L 86.042302 152.34 
L 87.571768 148.1724 
L 89.101233 144.5484 
L 90.630699 139.2936 
L 92.160164 142.7364 
L 93.68963 144.186 
L 95.219095 142.7364 
L 96.748561 142.5552 
L 98.278026 140.9244 
L 99.807492 141.8304 
L 101.336958 133.8576 
L 102.866423 144.9108 
L 105.925354 134.9448 
L 107.45482 131.3208 
L 108.984285 131.8644 
L 110.513751 142.9176 
L 112.043216 131.3208 
L 113.572682 130.0524 
L 115.102147 133.4952 
L 116.631613 141.8304 
L 118.161078 134.22 
L 119.690544 139.656 
L 121.220009 131.502 
L 122.749475 134.7636 
L 124.27894 136.3944 
L 125.808406 135.3072 
L 127.337871 131.8644 
L 128.867337 133.6764 
L 130.396802 123.348 
L 131.926268 118.9992 
L 133.455733 131.502 
L 134.985199 124.6164 
L 136.514664 120.2676 
L 138.04413 125.3412 
L 139.573595 129.8712 
L 141.103061 123.1668 
L 142.632526 129.5088 
L 144.161992 125.5224 
L 145.691457 131.502 
L 147.220923 117.7308 
L 148.750388 124.9788 
L 151.809319 119.9052 
L 153.338785 126.972 
L 154.86825 128.2404 
L 156.397716 123.5292 
L 157.927181 121.536 
L 159.456647 120.4488 
L 160.986112 120.63 
L 162.515578 125.3412 
L 164.045043 120.63 
L 167.103974 110.1204 
L 168.63344 115.7376 
L 170.162905 118.818 
L 171.692371 124.254 
L 173.221836 117.006 
L 174.751302 110.8452 
L 176.280767 122.0796 
L 177.810233 117.1872 
L 179.339698 115.194 
L 180.869164 116.4624 
L 182.39863 117.3684 
L 183.928095 112.1136 
L 185.457561 115.0128 
L 186.987026 115.0128 
L 188.516492 113.2008 
L 190.045957 113.5632 
L 191.575423 118.2744 
L 193.104888 118.9992 
L 194.634354 119.3616 
L 196.163819 115.0128 
L 197.693285 111.57 
L 199.22275 106.6776 
L 200.752216 116.8248 
L 202.281681 108.3084 
L 203.811147 114.4692 
L 205.340612 108.852 
L 206.870078 106.134 
L 208.399543 99.0672 
L 209.929009 112.6572 
L 211.458474 101.9664 
L 212.98794 100.8792 
L 214.517405 105.7716 
L 216.046871 100.5168 
L 217.576336 104.6844 
L 219.105802 106.8588 
L 220.635267 108.6708 
L 222.164733 109.9392 
L 223.694198 101.0604 
L 225.223664 100.698 
L 226.753129 92.3628 
L 228.282595 99.792 
L 229.81206 99.2484 
L 231.341526 103.416 
L 232.870991 101.604 
L 234.400457 96.7116 
L 235.929922 105.7716 
L 237.459388 108.1272 
L 238.988853 103.9596 
L 240.518319 103.416 
L 242.047784 103.416 
L 243.57725 105.5904 
L 245.106715 91.2756 
L 246.636181 105.0468 
L 248.165646 103.7784 
L 249.695112 100.8792 
L 251.224577 96.168 
L 252.754043 107.04 
L 254.283508 98.886 
L 255.812974 102.8724 
L 257.342439 95.8056 
L 258.871905 105.0468 
L 260.40137 105.0468 
L 261.930836 97.074 
L 263.460302 102.6912 
L 264.989767 98.3424 
L 266.519233 107.946 
L 268.048698 105.0468 
L 269.578164 101.0604 
L 271.107629 99.792 
L 272.637095 103.5972 
L 274.16656 106.4964 
L 275.696026 95.4432 
L 277.225491 94.7184 
L 278.754957 96.5304 
L 280.284422 96.3492 
L 281.813888 97.98 
L 283.343353 97.6176 
L 284.872819 102.1476 
L 286.402284 104.8656 
L 287.93175 101.2416 
L 289.461215 96.7116 
L 290.990681 104.1408 
L 292.520146 100.8792 
L 294.049612 101.0604 
L 295.579077 103.416 
L 297.108543 99.9732 
L 298.638008 98.886 
L 300.167474 95.8056 
L 301.696939 105.228 
L 303.226405 101.0604 
L 304.75587 104.5032 
L 306.285336 96.5304 
L 307.814801 92.9064 
L 309.344267 99.0672 
L 310.873732 99.4296 
L 312.403198 92.1816 
L 313.932663 91.8192 
L 315.462129 95.6244 
L 316.991594 94.8996 
L 318.52106 91.8192 
L 320.050525 96.8928 
L 321.579991 95.4432 
L 323.109456 85.6584 
L 324.638922 102.51 
L 326.168387 90.9132 
L 327.697853 95.0808 
L 329.227318 95.9868 
L 330.756784 85.1148 
L 332.286249 92.0004 
L 333.815715 90.0072 
L 335.34518 95.8056 
L 336.874646 99.2484 
L 338.404111 95.262 
L 339.933577 99.2484 
L 341.463042 92.544 
L 342.992508 97.2552 
L 344.521974 96.8928 
L 346.051439 96.8928 
L 347.580905 92.7252 
L 349.11037 96.5304 
L 350.639836 93.0876 
L 352.169301 101.9664 
L 353.698767 95.9868 
L 355.228232 97.074 
L 356.757698 92.9064 
L 359.816629 102.3288 
L 361.346094 86.3832 
L 362.87556 91.4568 
L 364.405025 97.074 
L 365.934491 97.6176 
L 367.463956 92.544 
L 368.993422 102.6912 
L 370.522887 100.8792 
L 372.052353 90.3696 
L 373.581818 88.92 
L 373.581818 88.92 
" clip-path="url(#p55521a53a5)" style="fill: none; stroke: #1f77b4; stroke-width: 1.5; stroke-linecap: square"/>
   </g>
   <g id="line2d_18">
    <path d="M 69.218182 211.4112 
L 373.581818 211.4112 
L 373.581818 211.4112 
" clip-path="url(#p55521a53a5)" style="fill: none; stroke-dasharray: 5.55,2.4; stroke-dashoffset: 0; stroke: #ff7f0e; stroke-width: 1.5"/>
   </g>
   <g id="patch_3">
    <path d="M 54 252 
L 54 34.56 
" style="fill: none; stroke: #000000; stroke-width: 0.8; stroke-linejoin: miter; stroke-linecap: square"/>
   </g>
   <g id="patch_4">
    <path d="M 388.8 252 
L 388.8 34.56 
" style="fill: none; stroke: #000000; stroke-width: 0.8; stroke-linejoin: miter; stroke-linecap: square"/>
   </g>
   <g id="patch_5">
    <path d="M 54 252 
L 388.8 252 
" style="fill: none; stroke: #000000; stroke-width: 0.8; stroke-linejoin: miter; stroke-linecap: square"/>
   </g>
   <g id="patch_6">
    <path d="M 54 34.56 
L 388.8 34.56 
" style="fill: none; stroke: #000000; stroke-width: 0.8; stroke-linejoin: miter; stroke-linecap: square"/>
   </g>
   <g id="text_19">
    <!-- Barbell -->
    <g transform="translate(200.305313 28.56)scale(0.12 -0.12)">
     <defs>
      <path id="DejaVuSans-42" d="M 1259 2228 
L 1259 519 
L 2272 519 
Q 2781 519 3026 730 
Q 3272 941 3272 1375 
Q 3272 1813 3026 2020 
Q 2781 2228 2272 2228 
L 1259 2228 
z
M 1259 4147 
L 1259 2741 
L 2194 2741 
Q 2656 2741 2882 2914 
Q 3109 3088 3109 3444 
Q 3109 3797 2882 3972 
Q 2656 4147 2194 4147 
L 1259 4147 
z
M 628 4666 
L 2241 4666 
Q 2963 4666 3353 4366 
Q 3744 4066 3744 3513 
Q 3744 3084 3544 2831 
Q 3344 2578 2956 2516 
Q 3422 2416 3680 2098 
Q 3938 1781 3938 1306 
Q 3938 681 3513 340 
Q 3088 0 2303 0 
L 628 0 
L 628 4666 
z
" transform="scale(0.015625)"/>
      <path id="DejaVuSans-62" d="M 3116 1747 
Q 3116 2381 2855 2742 
Q 2594 3103 2138 3103 
Q 1681 3103 1420 2742 
Q 1159 2381 1159 1747 
Q 1159 1113 1420 752 
Q 1681 391 2138 391 
Q 2594 391 2855 752 
Q 3116 1113 3116 1747 
z
M 1159 2969 
Q 1341 3281 1617 3432 
Q 1894 3584 2278 3584 
Q 2916 3584 3314 3078 
Q 3713 2572 3713 1747 
Q 3713 922 3314 415 
Q 2916 -91 2278 -91 
Q 1894 -91 1617 61 
Q 1341 213 1159 525 
L 1159 0 
L 581 0 
L 581 4863 
L 1159 4863 
L 1159 2969 
z
" transform="scale(0.015625)"/>
      <path id="DejaVuSans-6c" d="M 603 4863 
L 1178 4863 
L 1178 0 
L 603 0 
L 603 4863 
z
" transform="scale(0.015625)"/>
     </defs>
     <use xlink:href="#DejaVuSans-42"/>
     <use xlink:href="#DejaVuSans-61" x="68.603516"/>
     <use xlink:href="#DejaVuSans-72" x="129.882812"/>
     <use xlink:href="#DejaVuSans-62" x="170.996094"/>
     <use xlink:href="#DejaVuSans-65" x="234.472656"/>
     <use xlink:href="#DejaVuSans-6c" x="295.996094"/>
     <use xlink:href="#DejaVuSans-6c" x="323.779297"/>
    </g>
   </g>
   <g id="legend_1">
    <g id="patch_7">
     <path d="M 61 71.91625 
L 176.465625 71.91625 
Q 178.465625 71.91625 178.465625 69.91625 
L 178.465625 41.56 
Q 178.465625 39.56 176.465625 39.56 
L 61 39.56 
Q 59 39.56 59 41.56 
L 59 69.91625 
Q 59 71.91625 61 71.91625 
z
" style="fill: #ffffff; opacity: 0.8; stroke: #cccccc; stroke-linejoin: miter"/>
    </g>
    <g id="line2d_19">
     <path d="M 63 47.658437 
L 73 47.658437 
L 83 47.658437 
" style="fill: none; stroke: #1f77b4; stroke-width: 1.5; stroke-linecap: square"/>
    </g>
    <g id="text_20">
     <!-- training -->
     <g transform="translate(91 51.158437)scale(0.1 -0.1)">
      <use xlink:href="#DejaVuSans-74"/>
      <use xlink:href="#DejaVuSans-72" x="39.208984"/>
      <use xlink:href="#DejaVuSans-61" x="80.322266"/>
      <use xlink:href="#DejaVuSans-69" x="141.601562"/>
      <use xlink:href="#DejaVuSans-6e" x="169.384766"/>
      <use xlink:href="#DejaVuSans-69" x="232.763672"/>
      <use xlink:href="#DejaVuSans-6e" x="260.546875"/>
      <use xlink:href="#DejaVuSans-67" x="323.925781"/>
     </g>
    </g>
    <g id="line2d_20">
     <path d="M 63 62.336562 
L 73 62.336562 
L 83 62.336562 
" style="fill: none; stroke-dasharray: 5.55,2.4; stroke-dashoffset: 0; stroke: #ff7f0e; stroke-width: 1.5"/>
    </g>
    <g id="text_21">
     <!-- transfer learning -->
     <g transform="translate(91 65.836562)scale(0.1 -0.1)">
      <defs>
       <path id="DejaVuSans-73" d="M 2834 3397 
L 2834 2853 
Q 2591 2978 2328 3040 
Q 2066 3103 1784 3103 
Q 1356 3103 1142 2972 
Q 928 2841 928 2578 
Q 928 2378 1081 2264 
Q 1234 2150 1697 2047 
L 1894 2003 
Q 2506 1872 2764 1633 
Q 3022 1394 3022 966 
Q 3022 478 2636 193 
Q 2250 -91 1575 -91 
Q 1294 -91 989 -36 
Q 684 19 347 128 
L 347 722 
Q 666 556 975 473 
Q 1284 391 1588 391 
Q 1994 391 2212 530 
Q 2431 669 2431 922 
Q 2431 1156 2273 1281 
Q 2116 1406 1581 1522 
L 1381 1569 
Q 847 1681 609 1914 
Q 372 2147 372 2553 
Q 372 3047 722 3315 
Q 1072 3584 1716 3584 
Q 2034 3584 2315 3537 
Q 2597 3491 2834 3397 
z
" transform="scale(0.015625)"/>
       <path id="DejaVuSans-66" d="M 2375 4863 
L 2375 4384 
L 1825 4384 
Q 1516 4384 1395 4259 
Q 1275 4134 1275 3809 
L 1275 3500 
L 2222 3500 
L 2222 3053 
L 1275 3053 
L 1275 0 
L 697 0 
L 697 3053 
L 147 3053 
L 147 3500 
L 697 3500 
L 697 3744 
Q 697 4328 969 4595 
Q 1241 4863 1831 4863 
L 2375 4863 
z
" transform="scale(0.015625)"/>
      </defs>
      <use xlink:href="#DejaVuSans-74"/>
      <use xlink:href="#DejaVuSans-72" x="39.208984"/>
      <use xlink:href="#DejaVuSans-61" x="80.322266"/>
      <use xlink:href="#DejaVuSans-6e" x="141.601562"/>
      <use xlink:href="#DejaVuSans-73" x="204.980469"/>
      <use xlink:href="#DejaVuSans-66" x="257.080078"/>
      <use xlink:href="#DejaVuSans-65" x="292.285156"/>
      <use xlink:href="#DejaVuSans-72" x="353.808594"/>
      <use xlink:href="#DejaVuSans-20" x="394.921875"/>
      <use xlink:href="#DejaVuSans-6c" x="426.708984"/>
      <use xlink:href="#DejaVuSans-65" x="454.492188"/>
      <use xlink:href="#DejaVuSans-61" x="516.015625"/>
      <use xlink:href="#DejaVuSans-72" x="577.294922"/>
      <use xlink:href="#DejaVuSans-6e" x="616.658203"/>
      <use xlink:href="#DejaVuSans-69" x="680.037109"/>
      <use xlink:href="#DejaVuSans-6e" x="707.820312"/>
      <use xlink:href="#DejaVuSans-67" x="771.199219"/>
     </g>
    </g>
   </g>
  </g>
 </g>
 <defs>
  <clipPath id="p55521a53a5">
   <rect x="54" y="34.56" width="334.8" height="217.44"/>
  </clipPath>
 </defs>
</svg>
