<?xml version="1.0" encoding="utf-8" standalone="no"?>
<!DOCTYPE svg PUBLIC "-//W3C//DTD SVG 1.1//EN"
  "http://www.w3.org/Graphics/SVG/1.1/DTD/svg11.dtd">
<svg xmlns:xlink="http://www.w3.org/1999/xlink" width="432pt" height="288pt" viewBox="0 0 432 288" xmlns="http://www.w3.org/2000/svg" version="1.1">
 <metadata>
  <rdf:RDF xmlns:dc="http://purl.org/dc/elements/1.1/" xmlns:cc="http://creativecommons.org/ns#" xmlns:rdf="http://www.w3.org/1999/02/22-rdf-syntax-ns#">
   <cc:Work>
    <dc:type rdf:resource="http://purl.org/dc/dcmitype/StillImage"/>
    <dc:date>2023-06-05T09:54:28.731484</dc:date>
    <dc:format>image/svg+xml</dc:format>
    <dc:creator>
     <cc:Agent>
      <dc:title>Matplotlib v3.5.2, https://matplotlib.org/</dc:title>
     </cc:Agent>
    </dc:creator>
   </cc:Work>
  </rdf:RDF>
 </metadata>
 <defs>
  <style type="text/css">*{stroke-linejoin: round; stroke-linecap: butt}</style>
 </defs>
 <g id="figure_1">
  <g id="patch_1">
   <path d="M 0 288 
L 432 288 
L 432 0 
L 0 0 
L 0 288 
z
" style="fill: none"/>
  </g>
  <g id="axes_1">
   <g id="patch_2">
    <path d="M 54 252 
L 388.8 252 
L 388.8 34.56 
L 54 34.56 
z
" style="fill: #ffffff"/>
   </g>
   <g id="PolyCollection_1">
    <path d="M 69.218182 221.383811 
L 69.218182 173.896189 
L 70.747647 180.707766 
L 72.277113 183.205636 
L 73.806578 157.055809 
L 75.336044 167.70603 
L 76.865509 167.435828 
L 78.394975 169.423818 
L 79.92444 167.050941 
L 81.453906 164.814676 
L 82.983371 131.322008 
L 84.512837 157.611313 
L 86.042302 161.91388 
L 87.571768 139.216738 
L 89.101233 161.803238 
L 90.630699 146.4941 
L 92.160164 142.184618 
L 93.68963 158.012709 
L 95.219095 144.033277 
L 96.748561 168.497985 
L 98.278026 146.495384 
L 99.807492 145.886596 
L 101.336958 150.863692 
L 102.866423 155.117858 
L 104.395889 149.223032 
L 105.925354 144.433829 
L 107.45482 145.149165 
L 108.984285 132.066548 
L 110.513751 131.546606 
L 112.043216 145.072837 
L 113.572682 159.870918 
L 115.102147 145.467721 
L 116.631613 154.217729 
L 118.161078 142.108442 
L 119.690544 143.023411 
L 121.220009 145.290383 
L 122.749475 130.399648 
L 124.27894 153.376006 
L 125.808406 148.984275 
L 127.337871 143.758812 
L 128.867337 140.025848 
L 130.396802 143.017316 
L 131.926268 126.334856 
L 133.455733 134.15671 
L 134.985199 152.401044 
L 136.514664 149.490067 
L 138.04413 138.24573 
L 139.573595 135.95981 
L 141.103061 133.699468 
L 142.632526 122.74701 
L 144.161992 142.444716 
L 145.691457 134.970122 
L 147.220923 130.182913 
L 148.750388 125.555547 
L 150.279854 144.380468 
L 151.809319 126.919597 
L 153.338785 132.585785 
L 154.86825 124.65279 
L 156.397716 129.448898 
L 157.927181 128.473864 
L 159.456647 145.543665 
L 160.986112 137.755778 
L 162.515578 138.406493 
L 164.045043 140.166903 
L 165.574509 141.392598 
L 167.103974 136.437639 
L 168.63344 128.184944 
L 170.162905 141.19349 
L 171.692371 132.125775 
L 173.221836 129.963109 
L 174.751302 130.702884 
L 176.280767 132.648139 
L 177.810233 122.568282 
L 179.339698 140.395332 
L 180.869164 132.252462 
L 182.39863 124.596903 
L 183.928095 143.661669 
L 185.457561 139.674142 
L 186.987026 116.662966 
L 188.516492 129.698181 
L 190.045957 141.418666 
L 191.575423 121.132228 
L 193.104888 147.237554 
L 194.634354 134.298476 
L 196.163819 149.462086 
L 197.693285 111.112477 
L 199.22275 127.049089 
L 200.752216 133.314084 
L 202.281681 142.926022 
L 203.811147 131.364651 
L 205.340612 134.24218 
L 206.870078 118.612266 
L 208.399543 125.46805 
L 209.929009 116.873748 
L 211.458474 132.710202 
L 212.98794 120.993885 
L 214.517405 133.882045 
L 216.046871 110.916776 
L 217.576336 133.230712 
L 219.105802 127.519733 
L 220.635267 137.741914 
L 222.164733 134.523851 
L 223.694198 129.394983 
L 225.223664 123.447479 
L 226.753129 129.731099 
L 228.282595 136.748752 
L 229.81206 128.754602 
L 231.341526 126.015923 
L 232.870991 120.974293 
L 234.400457 138.640681 
L 235.929922 116.039218 
L 237.459388 117.576503 
L 238.988853 126.474906 
L 240.518319 107.072016 
L 242.047784 126.622298 
L 243.57725 131.757256 
L 245.106715 130.04487 
L 246.636181 117.436547 
L 248.165646 123.910312 
L 249.695112 128.898054 
L 251.224577 122.285422 
L 252.754043 122.400929 
L 254.283508 120.167517 
L 255.812974 121.532186 
L 257.342439 128.892968 
L 258.871905 113.682241 
L 260.40137 118.210524 
L 261.930836 121.919399 
L 263.460302 114.386906 
L 264.989767 102.170845 
L 266.519233 102.795249 
L 268.048698 123.264916 
L 269.578164 112.063292 
L 271.107629 127.609832 
L 272.637095 124.485156 
L 274.16656 116.993087 
L 275.696026 119.746987 
L 277.225491 118.435085 
L 278.754957 117.441668 
L 280.284422 107.016499 
L 281.813888 120.07846 
L 283.343353 114.565135 
L 284.872819 104.138116 
L 286.402284 124.783197 
L 287.93175 126.234107 
L 289.461215 111.268248 
L 290.990681 104.319091 
L 292.520146 113.971075 
L 294.049612 114.13468 
L 295.579077 109.546892 
L 297.108543 115.491247 
L 298.638008 119.549193 
L 300.167474 123.658774 
L 301.696939 109.388914 
L 303.226405 111.290042 
L 304.75587 112.433749 
L 306.285336 102.013947 
L 307.814801 114.030096 
L 309.344267 103.808935 
L 310.873732 131.697704 
L 312.403198 100.019852 
L 313.932663 102.422838 
L 315.462129 107.566629 
L 316.991594 119.319862 
L 318.52106 113.982725 
L 320.050525 115.050818 
L 321.579991 110.239995 
L 323.109456 105.833374 
L 324.638922 111.156494 
L 326.168387 121.372396 
L 327.697853 103.445213 
L 329.227318 110.414303 
L 330.756784 108.801331 
L 332.286249 125.952565 
L 333.815715 124.373475 
L 335.34518 104.508501 
L 336.874646 100.285853 
L 338.404111 109.548254 
L 339.933577 106.029771 
L 341.463042 142.183745 
L 342.992508 122.693181 
L 344.521974 97.206028 
L 346.051439 119.693518 
L 347.580905 115.287604 
L 349.11037 111.298743 
L 350.639836 118.12971 
L 352.169301 118.029806 
L 353.698767 110.440323 
L 355.228232 118.910004 
L 356.757698 101.274114 
L 358.287163 103.762992 
L 359.816629 108.282824 
L 361.346094 106.099136 
L 362.87556 100.89648 
L 364.405025 98.967692 
L 365.934491 101.358258 
L 367.463956 99.038052 
L 368.993422 106.822652 
L 370.522887 115.110526 
L 372.052353 113.798284 
L 373.581818 114.594659 
L 373.581818 137.174941 
L 373.581818 137.174941 
L 372.052353 146.234036 
L 370.522887 152.749634 
L 368.993422 164.081668 
L 367.463956 134.031708 
L 365.934491 145.192782 
L 364.405025 138.450868 
L 362.87556 147.39408 
L 361.346094 140.451904 
L 359.816629 130.440376 
L 358.287163 148.441488 
L 356.757698 147.451326 
L 355.228232 147.210636 
L 353.698767 163.508157 
L 352.169301 145.916434 
L 350.639836 137.55381 
L 349.11037 140.905737 
L 347.580905 155.616716 
L 346.051439 138.164402 
L 344.521974 145.865972 
L 342.992508 139.513539 
L 341.463042 157.857535 
L 339.933577 138.781749 
L 338.404111 160.921186 
L 336.874646 141.916387 
L 335.34518 141.172779 
L 333.815715 163.926045 
L 332.286249 164.956235 
L 330.756784 147.317069 
L 329.227318 126.569377 
L 327.697853 154.847587 
L 326.168387 160.838804 
L 324.638922 170.184946 
L 323.109456 138.108386 
L 321.579991 145.008645 
L 320.050525 142.372222 
L 318.52106 157.791355 
L 316.991594 142.017098 
L 315.462129 130.721691 
L 313.932663 150.651402 
L 312.403198 140.877748 
L 310.873732 157.036696 
L 309.344267 143.176985 
L 307.814801 156.004464 
L 306.285336 139.753413 
L 304.75587 143.684651 
L 303.226405 138.305158 
L 301.696939 144.555086 
L 300.167474 142.026986 
L 298.638008 137.004087 
L 297.108543 139.322513 
L 295.579077 139.613428 
L 294.049612 136.76516 
L 292.520146 148.235645 
L 290.990681 141.797069 
L 289.461215 141.805992 
L 287.93175 145.105093 
L 286.402284 160.907043 
L 284.872819 139.368764 
L 283.343353 144.162545 
L 281.813888 141.2585 
L 280.284422 150.406541 
L 278.754957 139.111612 
L 277.225491 146.815795 
L 275.696026 144.634133 
L 274.16656 135.211393 
L 272.637095 149.463324 
L 271.107629 153.731608 
L 269.578164 154.927108 
L 268.048698 158.946284 
L 266.519233 132.883791 
L 264.989767 142.205795 
L 263.460302 144.775654 
L 261.930836 131.154841 
L 260.40137 135.298596 
L 258.871905 161.135999 
L 257.342439 134.183512 
L 255.812974 146.327974 
L 254.283508 157.260003 
L 252.754043 141.980191 
L 251.224577 153.837458 
L 249.695112 135.048186 
L 248.165646 164.389208 
L 246.636181 142.595773 
L 245.106715 138.25017 
L 243.57725 161.760824 
L 242.047784 138.193702 
L 240.518319 149.046384 
L 238.988853 159.215334 
L 237.459388 152.892937 
L 235.929922 133.990862 
L 234.400457 156.182039 
L 232.870991 146.450987 
L 231.341526 151.846477 
L 229.81206 147.368278 
L 228.282595 148.506608 
L 226.753129 143.782501 
L 225.223664 155.719561 
L 223.694198 141.509337 
L 222.164733 162.038389 
L 220.635267 146.643686 
L 219.105802 164.693707 
L 217.576336 143.327048 
L 216.046871 144.331864 
L 214.517405 160.505795 
L 212.98794 160.782435 
L 211.458474 142.108038 
L 209.929009 140.114412 
L 208.399543 156.74315 
L 206.870078 135.766614 
L 205.340612 140.14118 
L 203.811147 162.588309 
L 202.281681 151.026938 
L 200.752216 148.897116 
L 199.22275 152.117951 
L 197.693285 138.917603 
L 196.163819 164.495354 
L 194.634354 153.566164 
L 193.104888 160.196686 
L 191.575423 142.379132 
L 190.045957 147.750614 
L 188.516492 154.252539 
L 186.987026 161.199434 
L 185.457561 154.713698 
L 183.928095 166.816731 
L 182.39863 141.523737 
L 180.869164 145.175058 
L 179.339698 146.164668 
L 177.810233 159.642918 
L 176.280767 143.039861 
L 174.751302 147.159516 
L 173.221836 168.338651 
L 171.692371 184.006065 
L 170.162905 170.15467 
L 168.63344 156.635536 
L 167.103974 158.385081 
L 165.574509 177.348522 
L 164.045043 159.439497 
L 162.515578 149.023267 
L 160.986112 154.457662 
L 159.456647 157.106895 
L 157.927181 165.913976 
L 156.397716 164.938942 
L 154.86825 159.73281 
L 153.338785 155.278855 
L 151.809319 140.505683 
L 150.279854 162.184012 
L 148.750388 152.306853 
L 147.220923 182.469887 
L 145.691457 155.068918 
L 144.161992 150.638484 
L 142.632526 164.24787 
L 141.103061 162.427892 
L 139.573595 154.07923 
L 138.04413 153.96771 
L 136.514664 164.902253 
L 134.985199 168.949356 
L 133.455733 165.01481 
L 131.926268 163.704184 
L 130.396802 179.637724 
L 128.867337 171.757192 
L 127.337871 148.019748 
L 125.808406 174.975405 
L 124.27894 168.409274 
L 122.749475 155.290592 
L 121.220009 167.362417 
L 119.690544 180.501389 
L 118.161078 177.502438 
L 116.631613 162.783871 
L 115.102147 166.750199 
L 113.572682 177.135162 
L 112.043216 187.584443 
L 110.513751 154.143634 
L 108.984285 168.409612 
L 107.45482 170.547795 
L 105.925354 167.784091 
L 104.395889 181.259848 
L 102.866423 176.669662 
L 101.336958 177.444788 
L 99.807492 181.117244 
L 98.278026 170.071336 
L 96.748561 187.207935 
L 95.219095 166.880003 
L 93.68963 181.167771 
L 92.160164 182.644822 
L 90.630699 181.3795 
L 89.101233 186.074842 
L 87.571768 170.391902 
L 86.042302 182.05028 
L 84.512837 167.218127 
L 82.983371 170.458792 
L 81.453906 193.935404 
L 79.92444 183.871299 
L 78.394975 189.761142 
L 76.865509 188.704972 
L 75.336044 187.13013 
L 73.806578 182.124671 
L 72.277113 205.986044 
L 70.747647 207.614154 
L 69.218182 221.383811 
z
" clip-path="url(#p57b725c9ba)" style="fill: #1f77b4; fill-opacity: 0.5"/>
   </g>
   <g id="matplotlib.axis_1">
    <g id="xtick_1">
     <g id="line2d_1">
      <defs>
       <path id="md7bc85f83d" d="M 0 0 
L 0 3.5 
" style="stroke: #000000; stroke-width: 0.8"/>
      </defs>
      <g>
       <use xlink:href="#md7bc85f83d" x="69.218182" y="252" style="stroke: #000000; stroke-width: 0.8"/>
      </g>
     </g>
     <g id="text_1">
      <!-- 0 -->
      <g transform="translate(66.036932 266.598437)scale(0.1 -0.1)">
       <defs>
        <path id="DejaVuSans-30" d="M 2034 4250 
Q 1547 4250 1301 3770 
Q 1056 3291 1056 2328 
Q 1056 1369 1301 889 
Q 1547 409 2034 409 
Q 2525 409 2770 889 
Q 3016 1369 3016 2328 
Q 3016 3291 2770 3770 
Q 2525 4250 2034 4250 
z
M 2034 4750 
Q 2819 4750 3233 4129 
Q 3647 3509 3647 2328 
Q 3647 1150 3233 529 
Q 2819 -91 2034 -91 
Q 1250 -91 836 529 
Q 422 1150 422 2328 
Q 422 3509 836 4129 
Q 1250 4750 2034 4750 
z
" transform="scale(0.015625)"/>
       </defs>
       <use xlink:href="#DejaVuSans-30"/>
      </g>
     </g>
    </g>
    <g id="xtick_2">
     <g id="line2d_2">
      <g>
       <use xlink:href="#md7bc85f83d" x="107.45482" y="252" style="stroke: #000000; stroke-width: 0.8"/>
      </g>
     </g>
     <g id="text_2">
      <!-- 25 -->
      <g transform="translate(101.09232 266.598437)scale(0.1 -0.1)">
       <defs>
        <path id="DejaVuSans-32" d="M 1228 531 
L 3431 531 
L 3431 0 
L 469 0 
L 469 531 
Q 828 903 1448 1529 
Q 2069 2156 2228 2338 
Q 2531 2678 2651 2914 
Q 2772 3150 2772 3378 
Q 2772 3750 2511 3984 
Q 2250 4219 1831 4219 
Q 1534 4219 1204 4116 
Q 875 4013 500 3803 
L 500 4441 
Q 881 4594 1212 4672 
Q 1544 4750 1819 4750 
Q 2544 4750 2975 4387 
Q 3406 4025 3406 3419 
Q 3406 3131 3298 2873 
Q 3191 2616 2906 2266 
Q 2828 2175 2409 1742 
Q 1991 1309 1228 531 
z
" transform="scale(0.015625)"/>
        <path id="DejaVuSans-35" d="M 691 4666 
L 3169 4666 
L 3169 4134 
L 1269 4134 
L 1269 2991 
Q 1406 3038 1543 3061 
Q 1681 3084 1819 3084 
Q 2600 3084 3056 2656 
Q 3513 2228 3513 1497 
Q 3513 744 3044 326 
Q 2575 -91 1722 -91 
Q 1428 -91 1123 -41 
Q 819 9 494 109 
L 494 744 
Q 775 591 1075 516 
Q 1375 441 1709 441 
Q 2250 441 2565 725 
Q 2881 1009 2881 1497 
Q 2881 1984 2565 2268 
Q 2250 2553 1709 2553 
Q 1456 2553 1204 2497 
Q 953 2441 691 2322 
L 691 4666 
z
" transform="scale(0.015625)"/>
       </defs>
       <use xlink:href="#DejaVuSans-32"/>
       <use xlink:href="#DejaVuSans-35" x="63.623047"/>
      </g>
     </g>
    </g>
    <g id="xtick_3">
     <g id="line2d_3">
      <g>
       <use xlink:href="#md7bc85f83d" x="145.691457" y="252" style="stroke: #000000; stroke-width: 0.8"/>
      </g>
     </g>
     <g id="text_3">
      <!-- 50 -->
      <g transform="translate(139.328957 266.598437)scale(0.1 -0.1)">
       <use xlink:href="#DejaVuSans-35"/>
       <use xlink:href="#DejaVuSans-30" x="63.623047"/>
      </g>
     </g>
    </g>
    <g id="xtick_4">
     <g id="line2d_4">
      <g>
       <use xlink:href="#md7bc85f83d" x="183.928095" y="252" style="stroke: #000000; stroke-width: 0.8"/>
      </g>
     </g>
     <g id="text_4">
      <!-- 75 -->
      <g transform="translate(177.565595 266.598437)scale(0.1 -0.1)">
       <defs>
        <path id="DejaVuSans-37" d="M 525 4666 
L 3525 4666 
L 3525 4397 
L 1831 0 
L 1172 0 
L 2766 4134 
L 525 4134 
L 525 4666 
z
" transform="scale(0.015625)"/>
       </defs>
       <use xlink:href="#DejaVuSans-37"/>
       <use xlink:href="#DejaVuSans-35" x="63.623047"/>
      </g>
     </g>
    </g>
    <g id="xtick_5">
     <g id="line2d_5">
      <g>
       <use xlink:href="#md7bc85f83d" x="222.164733" y="252" style="stroke: #000000; stroke-width: 0.8"/>
      </g>
     </g>
     <g id="text_5">
      <!-- 100 -->
      <g transform="translate(212.620983 266.598437)scale(0.1 -0.1)">
       <defs>
        <path id="DejaVuSans-31" d="M 794 531 
L 1825 531 
L 1825 4091 
L 703 3866 
L 703 4441 
L 1819 4666 
L 2450 4666 
L 2450 531 
L 3481 531 
L 3481 0 
L 794 0 
L 794 531 
z
" transform="scale(0.015625)"/>
       </defs>
       <use xlink:href="#DejaVuSans-31"/>
       <use xlink:href="#DejaVuSans-30" x="63.623047"/>
       <use xlink:href="#DejaVuSans-30" x="127.246094"/>
      </g>
     </g>
    </g>
    <g id="xtick_6">
     <g id="line2d_6">
      <g>
       <use xlink:href="#md7bc85f83d" x="260.40137" y="252" style="stroke: #000000; stroke-width: 0.8"/>
      </g>
     </g>
     <g id="text_6">
      <!-- 125 -->
      <g transform="translate(250.85762 266.598437)scale(0.1 -0.1)">
       <use xlink:href="#DejaVuSans-31"/>
       <use xlink:href="#DejaVuSans-32" x="63.623047"/>
       <use xlink:href="#DejaVuSans-35" x="127.246094"/>
      </g>
     </g>
    </g>
    <g id="xtick_7">
     <g id="line2d_7">
      <g>
       <use xlink:href="#md7bc85f83d" x="298.638008" y="252" style="stroke: #000000; stroke-width: 0.8"/>
      </g>
     </g>
     <g id="text_7">
      <!-- 150 -->
      <g transform="translate(289.094258 266.598437)scale(0.1 -0.1)">
       <use xlink:href="#DejaVuSans-31"/>
       <use xlink:href="#DejaVuSans-35" x="63.623047"/>
       <use xlink:href="#DejaVuSans-30" x="127.246094"/>
      </g>
     </g>
    </g>
    <g id="xtick_8">
     <g id="line2d_8">
      <g>
       <use xlink:href="#md7bc85f83d" x="336.874646" y="252" style="stroke: #000000; stroke-width: 0.8"/>
      </g>
     </g>
     <g id="text_8">
      <!-- 175 -->
      <g transform="translate(327.330896 266.598437)scale(0.1 -0.1)">
       <use xlink:href="#DejaVuSans-31"/>
       <use xlink:href="#DejaVuSans-37" x="63.623047"/>
       <use xlink:href="#DejaVuSans-35" x="127.246094"/>
      </g>
     </g>
    </g>
    <g id="xtick_9">
     <g id="line2d_9">
      <g>
       <use xlink:href="#md7bc85f83d" x="375.111284" y="252" style="stroke: #000000; stroke-width: 0.8"/>
      </g>
     </g>
     <g id="text_9">
      <!-- 200 -->
      <g transform="translate(365.567534 266.598437)scale(0.1 -0.1)">
       <use xlink:href="#DejaVuSans-32"/>
       <use xlink:href="#DejaVuSans-30" x="63.623047"/>
       <use xlink:href="#DejaVuSans-30" x="127.246094"/>
      </g>
     </g>
    </g>
    <g id="text_10">
     <!-- Generation -->
     <g transform="translate(193.507031 280.276563)scale(0.1 -0.1)">
      <defs>
       <path id="DejaVuSans-47" d="M 3809 666 
L 3809 1919 
L 2778 1919 
L 2778 2438 
L 4434 2438 
L 4434 434 
Q 4069 175 3628 42 
Q 3188 -91 2688 -91 
Q 1594 -91 976 548 
Q 359 1188 359 2328 
Q 359 3472 976 4111 
Q 1594 4750 2688 4750 
Q 3144 4750 3555 4637 
Q 3966 4525 4313 4306 
L 4313 3634 
Q 3963 3931 3569 4081 
Q 3175 4231 2741 4231 
Q 1884 4231 1454 3753 
Q 1025 3275 1025 2328 
Q 1025 1384 1454 906 
Q 1884 428 2741 428 
Q 3075 428 3337 486 
Q 3600 544 3809 666 
z
" transform="scale(0.015625)"/>
       <path id="DejaVuSans-65" d="M 3597 1894 
L 3597 1613 
L 953 1613 
Q 991 1019 1311 708 
Q 1631 397 2203 397 
Q 2534 397 2845 478 
Q 3156 559 3463 722 
L 3463 178 
Q 3153 47 2828 -22 
Q 2503 -91 2169 -91 
Q 1331 -91 842 396 
Q 353 884 353 1716 
Q 353 2575 817 3079 
Q 1281 3584 2069 3584 
Q 2775 3584 3186 3129 
Q 3597 2675 3597 1894 
z
M 3022 2063 
Q 3016 2534 2758 2815 
Q 2500 3097 2075 3097 
Q 1594 3097 1305 2825 
Q 1016 2553 972 2059 
L 3022 2063 
z
" transform="scale(0.015625)"/>
       <path id="DejaVuSans-6e" d="M 3513 2113 
L 3513 0 
L 2938 0 
L 2938 2094 
Q 2938 2591 2744 2837 
Q 2550 3084 2163 3084 
Q 1697 3084 1428 2787 
Q 1159 2491 1159 1978 
L 1159 0 
L 581 0 
L 581 3500 
L 1159 3500 
L 1159 2956 
Q 1366 3272 1645 3428 
Q 1925 3584 2291 3584 
Q 2894 3584 3203 3211 
Q 3513 2838 3513 2113 
z
" transform="scale(0.015625)"/>
       <path id="DejaVuSans-72" d="M 2631 2963 
Q 2534 3019 2420 3045 
Q 2306 3072 2169 3072 
Q 1681 3072 1420 2755 
Q 1159 2438 1159 1844 
L 1159 0 
L 581 0 
L 581 3500 
L 1159 3500 
L 1159 2956 
Q 1341 3275 1631 3429 
Q 1922 3584 2338 3584 
Q 2397 3584 2469 3576 
Q 2541 3569 2628 3553 
L 2631 2963 
z
" transform="scale(0.015625)"/>
       <path id="DejaVuSans-61" d="M 2194 1759 
Q 1497 1759 1228 1600 
Q 959 1441 959 1056 
Q 959 750 1161 570 
Q 1363 391 1709 391 
Q 2188 391 2477 730 
Q 2766 1069 2766 1631 
L 2766 1759 
L 2194 1759 
z
M 3341 1997 
L 3341 0 
L 2766 0 
L 2766 531 
Q 2569 213 2275 61 
Q 1981 -91 1556 -91 
Q 1019 -91 701 211 
Q 384 513 384 1019 
Q 384 1609 779 1909 
Q 1175 2209 1959 2209 
L 2766 2209 
L 2766 2266 
Q 2766 2663 2505 2880 
Q 2244 3097 1772 3097 
Q 1472 3097 1187 3025 
Q 903 2953 641 2809 
L 641 3341 
Q 956 3463 1253 3523 
Q 1550 3584 1831 3584 
Q 2591 3584 2966 3190 
Q 3341 2797 3341 1997 
z
" transform="scale(0.015625)"/>
       <path id="DejaVuSans-74" d="M 1172 4494 
L 1172 3500 
L 2356 3500 
L 2356 3053 
L 1172 3053 
L 1172 1153 
Q 1172 725 1289 603 
Q 1406 481 1766 481 
L 2356 481 
L 2356 0 
L 1766 0 
Q 1100 0 847 248 
Q 594 497 594 1153 
L 594 3053 
L 172 3053 
L 172 3500 
L 594 3500 
L 594 4494 
L 1172 4494 
z
" transform="scale(0.015625)"/>
       <path id="DejaVuSans-69" d="M 603 3500 
L 1178 3500 
L 1178 0 
L 603 0 
L 603 3500 
z
M 603 4863 
L 1178 4863 
L 1178 4134 
L 603 4134 
L 603 4863 
z
" transform="scale(0.015625)"/>
       <path id="DejaVuSans-6f" d="M 1959 3097 
Q 1497 3097 1228 2736 
Q 959 2375 959 1747 
Q 959 1119 1226 758 
Q 1494 397 1959 397 
Q 2419 397 2687 759 
Q 2956 1122 2956 1747 
Q 2956 2369 2687 2733 
Q 2419 3097 1959 3097 
z
M 1959 3584 
Q 2709 3584 3137 3096 
Q 3566 2609 3566 1747 
Q 3566 888 3137 398 
Q 2709 -91 1959 -91 
Q 1206 -91 779 398 
Q 353 888 353 1747 
Q 353 2609 779 3096 
Q 1206 3584 1959 3584 
z
" transform="scale(0.015625)"/>
      </defs>
      <use xlink:href="#DejaVuSans-47"/>
      <use xlink:href="#DejaVuSans-65" x="77.490234"/>
      <use xlink:href="#DejaVuSans-6e" x="139.013672"/>
      <use xlink:href="#DejaVuSans-65" x="202.392578"/>
      <use xlink:href="#DejaVuSans-72" x="263.916016"/>
      <use xlink:href="#DejaVuSans-61" x="305.029297"/>
      <use xlink:href="#DejaVuSans-74" x="366.308594"/>
      <use xlink:href="#DejaVuSans-69" x="405.517578"/>
      <use xlink:href="#DejaVuSans-6f" x="433.300781"/>
      <use xlink:href="#DejaVuSans-6e" x="494.482422"/>
     </g>
    </g>
   </g>
   <g id="matplotlib.axis_2">
    <g id="ytick_1">
     <g id="line2d_10">
      <defs>
       <path id="mc9ebb42bba" d="M 0 0 
L -3.5 0 
" style="stroke: #000000; stroke-width: 0.8"/>
      </defs>
      <g>
       <use xlink:href="#mc9ebb42bba" x="54" y="252" style="stroke: #000000; stroke-width: 0.8"/>
      </g>
     </g>
     <g id="text_11">
      <!-- 5.5 -->
      <g transform="translate(31.096875 255.799219)scale(0.1 -0.1)">
       <defs>
        <path id="DejaVuSans-2e" d="M 684 794 
L 1344 794 
L 1344 0 
L 684 0 
L 684 794 
z
" transform="scale(0.015625)"/>
       </defs>
       <use xlink:href="#DejaVuSans-35"/>
       <use xlink:href="#DejaVuSans-2e" x="63.623047"/>
       <use xlink:href="#DejaVuSans-35" x="95.410156"/>
      </g>
     </g>
    </g>
    <g id="ytick_2">
     <g id="line2d_11">
      <g>
       <use xlink:href="#mc9ebb42bba" x="54" y="208.512" style="stroke: #000000; stroke-width: 0.8"/>
      </g>
     </g>
     <g id="text_12">
      <!-- 6.0 -->
      <g transform="translate(31.096875 212.311219)scale(0.1 -0.1)">
       <defs>
        <path id="DejaVuSans-36" d="M 2113 2584 
Q 1688 2584 1439 2293 
Q 1191 2003 1191 1497 
Q 1191 994 1439 701 
Q 1688 409 2113 409 
Q 2538 409 2786 701 
Q 3034 994 3034 1497 
Q 3034 2003 2786 2293 
Q 2538 2584 2113 2584 
z
M 3366 4563 
L 3366 3988 
Q 3128 4100 2886 4159 
Q 2644 4219 2406 4219 
Q 1781 4219 1451 3797 
Q 1122 3375 1075 2522 
Q 1259 2794 1537 2939 
Q 1816 3084 2150 3084 
Q 2853 3084 3261 2657 
Q 3669 2231 3669 1497 
Q 3669 778 3244 343 
Q 2819 -91 2113 -91 
Q 1303 -91 875 529 
Q 447 1150 447 2328 
Q 447 3434 972 4092 
Q 1497 4750 2381 4750 
Q 2619 4750 2861 4703 
Q 3103 4656 3366 4563 
z
" transform="scale(0.015625)"/>
       </defs>
       <use xlink:href="#DejaVuSans-36"/>
       <use xlink:href="#DejaVuSans-2e" x="63.623047"/>
       <use xlink:href="#DejaVuSans-30" x="95.410156"/>
      </g>
     </g>
    </g>
    <g id="ytick_3">
     <g id="line2d_12">
      <g>
       <use xlink:href="#mc9ebb42bba" x="54" y="165.024" style="stroke: #000000; stroke-width: 0.8"/>
      </g>
     </g>
     <g id="text_13">
      <!-- 6.5 -->
      <g transform="translate(31.096875 168.823219)scale(0.1 -0.1)">
       <use xlink:href="#DejaVuSans-36"/>
       <use xlink:href="#DejaVuSans-2e" x="63.623047"/>
       <use xlink:href="#DejaVuSans-35" x="95.410156"/>
      </g>
     </g>
    </g>
    <g id="ytick_4">
     <g id="line2d_13">
      <g>
       <use xlink:href="#mc9ebb42bba" x="54" y="121.536" style="stroke: #000000; stroke-width: 0.8"/>
      </g>
     </g>
     <g id="text_14">
      <!-- 7.0 -->
      <g transform="translate(31.096875 125.335219)scale(0.1 -0.1)">
       <use xlink:href="#DejaVuSans-37"/>
       <use xlink:href="#DejaVuSans-2e" x="63.623047"/>
       <use xlink:href="#DejaVuSans-30" x="95.410156"/>
      </g>
     </g>
    </g>
    <g id="ytick_5">
     <g id="line2d_14">
      <g>
       <use xlink:href="#mc9ebb42bba" x="54" y="78.048" style="stroke: #000000; stroke-width: 0.8"/>
      </g>
     </g>
     <g id="text_15">
      <!-- 7.5 -->
      <g transform="translate(31.096875 81.847219)scale(0.1 -0.1)">
       <use xlink:href="#DejaVuSans-37"/>
       <use xlink:href="#DejaVuSans-2e" x="63.623047"/>
       <use xlink:href="#DejaVuSans-35" x="95.410156"/>
      </g>
     </g>
    </g>
    <g id="ytick_6">
     <g id="line2d_15">
      <g>
       <use xlink:href="#mc9ebb42bba" x="54" y="34.56" style="stroke: #000000; stroke-width: 0.8"/>
      </g>
     </g>
     <g id="text_16">
      <!-- 8.0 -->
      <g transform="translate(31.096875 38.359219)scale(0.1 -0.1)">
       <defs>
        <path id="DejaVuSans-38" d="M 2034 2216 
Q 1584 2216 1326 1975 
Q 1069 1734 1069 1313 
Q 1069 891 1326 650 
Q 1584 409 2034 409 
Q 2484 409 2743 651 
Q 3003 894 3003 1313 
Q 3003 1734 2745 1975 
Q 2488 2216 2034 2216 
z
M 1403 2484 
Q 997 2584 770 2862 
Q 544 3141 544 3541 
Q 544 4100 942 4425 
Q 1341 4750 2034 4750 
Q 2731 4750 3128 4425 
Q 3525 4100 3525 3541 
Q 3525 3141 3298 2862 
Q 3072 2584 2669 2484 
Q 3125 2378 3379 2068 
Q 3634 1759 3634 1313 
Q 3634 634 3220 271 
Q 2806 -91 2034 -91 
Q 1263 -91 848 271 
Q 434 634 434 1313 
Q 434 1759 690 2068 
Q 947 2378 1403 2484 
z
M 1172 3481 
Q 1172 3119 1398 2916 
Q 1625 2713 2034 2713 
Q 2441 2713 2670 2916 
Q 2900 3119 2900 3481 
Q 2900 3844 2670 4047 
Q 2441 4250 2034 4250 
Q 1625 4250 1398 4047 
Q 1172 3844 1172 3481 
z
" transform="scale(0.015625)"/>
       </defs>
       <use xlink:href="#DejaVuSans-38"/>
       <use xlink:href="#DejaVuSans-2e" x="63.623047"/>
       <use xlink:href="#DejaVuSans-30" x="95.410156"/>
      </g>
     </g>
    </g>
    <g id="text_17">
     <!-- Average Energy -->
     <g transform="translate(25.017187 182.908125)rotate(-90)scale(0.1 -0.1)">
      <defs>
       <path id="DejaVuSans-41" d="M 2188 4044 
L 1331 1722 
L 3047 1722 
L 2188 4044 
z
M 1831 4666 
L 2547 4666 
L 4325 0 
L 3669 0 
L 3244 1197 
L 1141 1197 
L 716 0 
L 50 0 
L 1831 4666 
z
" transform="scale(0.015625)"/>
       <path id="DejaVuSans-76" d="M 191 3500 
L 800 3500 
L 1894 563 
L 2988 3500 
L 3597 3500 
L 2284 0 
L 1503 0 
L 191 3500 
z
" transform="scale(0.015625)"/>
       <path id="DejaVuSans-67" d="M 2906 1791 
Q 2906 2416 2648 2759 
Q 2391 3103 1925 3103 
Q 1463 3103 1205 2759 
Q 947 2416 947 1791 
Q 947 1169 1205 825 
Q 1463 481 1925 481 
Q 2391 481 2648 825 
Q 2906 1169 2906 1791 
z
M 3481 434 
Q 3481 -459 3084 -895 
Q 2688 -1331 1869 -1331 
Q 1566 -1331 1297 -1286 
Q 1028 -1241 775 -1147 
L 775 -588 
Q 1028 -725 1275 -790 
Q 1522 -856 1778 -856 
Q 2344 -856 2625 -561 
Q 2906 -266 2906 331 
L 2906 616 
Q 2728 306 2450 153 
Q 2172 0 1784 0 
Q 1141 0 747 490 
Q 353 981 353 1791 
Q 353 2603 747 3093 
Q 1141 3584 1784 3584 
Q 2172 3584 2450 3431 
Q 2728 3278 2906 2969 
L 2906 3500 
L 3481 3500 
L 3481 434 
z
" transform="scale(0.015625)"/>
       <path id="DejaVuSans-20" transform="scale(0.015625)"/>
       <path id="DejaVuSans-45" d="M 628 4666 
L 3578 4666 
L 3578 4134 
L 1259 4134 
L 1259 2753 
L 3481 2753 
L 3481 2222 
L 1259 2222 
L 1259 531 
L 3634 531 
L 3634 0 
L 628 0 
L 628 4666 
z
" transform="scale(0.015625)"/>
       <path id="DejaVuSans-79" d="M 2059 -325 
Q 1816 -950 1584 -1140 
Q 1353 -1331 966 -1331 
L 506 -1331 
L 506 -850 
L 844 -850 
Q 1081 -850 1212 -737 
Q 1344 -625 1503 -206 
L 1606 56 
L 191 3500 
L 800 3500 
L 1894 763 
L 2988 3500 
L 3597 3500 
L 2059 -325 
z
" transform="scale(0.015625)"/>
      </defs>
      <use xlink:href="#DejaVuSans-41"/>
      <use xlink:href="#DejaVuSans-76" x="62.533203"/>
      <use xlink:href="#DejaVuSans-65" x="121.712891"/>
      <use xlink:href="#DejaVuSans-72" x="183.236328"/>
      <use xlink:href="#DejaVuSans-61" x="224.349609"/>
      <use xlink:href="#DejaVuSans-67" x="285.628906"/>
      <use xlink:href="#DejaVuSans-65" x="349.105469"/>
      <use xlink:href="#DejaVuSans-20" x="410.628906"/>
      <use xlink:href="#DejaVuSans-45" x="442.416016"/>
      <use xlink:href="#DejaVuSans-6e" x="505.599609"/>
      <use xlink:href="#DejaVuSans-65" x="568.978516"/>
      <use xlink:href="#DejaVuSans-72" x="630.501953"/>
      <use xlink:href="#DejaVuSans-67" x="669.865234"/>
      <use xlink:href="#DejaVuSans-79" x="733.341797"/>
     </g>
    </g>
   </g>
   <g id="line2d_16">
    <path d="M 69.218182 197.64 
L 70.747647 194.16096 
L 72.277113 194.59584 
L 73.806578 169.59024 
L 75.336044 177.41808 
L 76.865509 178.0704 
L 78.394975 179.59248 
L 79.92444 175.46112 
L 81.453906 179.37504 
L 82.983371 150.8904 
L 84.512837 162.41472 
L 86.042302 171.98208 
L 87.571768 154.80432 
L 89.101233 173.93904 
L 90.630699 163.9368 
L 92.160164 162.41472 
L 93.68963 169.59024 
L 95.219095 155.45664 
L 96.748561 177.85296 
L 98.278026 158.28336 
L 99.807492 163.50192 
L 101.336958 164.15424 
L 102.866423 165.89376 
L 104.395889 165.24144 
L 105.925354 156.10896 
L 107.45482 157.84848 
L 110.513751 142.84512 
L 112.043216 166.32864 
L 113.572682 168.50304 
L 115.102147 156.10896 
L 116.631613 158.5008 
L 118.161078 159.80544 
L 119.690544 161.7624 
L 121.220009 156.3264 
L 122.749475 142.84512 
L 124.27894 160.89264 
L 125.808406 161.97984 
L 127.337871 145.88928 
L 128.867337 155.89152 
L 130.396802 161.32752 
L 131.926268 145.01952 
L 133.455733 149.58576 
L 134.985199 160.6752 
L 136.514664 157.19616 
L 138.04413 146.10672 
L 139.573595 145.01952 
L 141.103061 148.06368 
L 142.632526 143.49744 
L 144.161992 146.5416 
L 145.691457 145.01952 
L 147.220923 156.3264 
L 148.750388 138.9312 
L 150.279854 153.28224 
L 151.809319 133.71264 
L 153.338785 143.93232 
L 154.86825 142.1928 
L 156.397716 147.19392 
L 157.927181 147.19392 
L 159.456647 151.32528 
L 160.986112 146.10672 
L 162.515578 143.71488 
L 164.045043 149.8032 
L 165.574509 159.37056 
L 167.103974 147.41136 
L 168.63344 142.41024 
L 170.162905 155.67408 
L 171.692371 158.06592 
L 173.221836 149.15088 
L 174.751302 138.9312 
L 176.280767 137.844 
L 177.810233 141.1056 
L 179.339698 143.28 
L 180.869164 138.71376 
L 182.39863 133.06032 
L 183.928095 155.2392 
L 186.987026 138.9312 
L 188.516492 141.97536 
L 190.045957 144.58464 
L 191.575423 131.75568 
L 193.104888 153.71712 
L 194.634354 143.93232 
L 196.163819 156.97872 
L 197.693285 125.01504 
L 199.22275 139.58352 
L 200.752216 141.1056 
L 202.281681 146.97648 
L 203.811147 146.97648 
L 206.870078 127.18944 
L 208.399543 141.1056 
L 209.929009 128.49408 
L 211.458474 137.40912 
L 212.98794 140.88816 
L 214.517405 147.19392 
L 216.046871 127.62432 
L 217.576336 138.27888 
L 219.105802 146.10672 
L 220.635267 142.1928 
L 222.164733 148.28112 
L 223.694198 135.45216 
L 225.223664 139.58352 
L 226.753129 136.7568 
L 228.282595 142.62768 
L 229.81206 138.06144 
L 231.341526 138.9312 
L 232.870991 133.71264 
L 234.400457 147.41136 
L 235.929922 125.01504 
L 237.459388 135.23472 
L 238.988853 142.84512 
L 240.518319 128.0592 
L 242.047784 132.408 
L 243.57725 146.75904 
L 245.106715 134.14752 
L 246.636181 130.01616 
L 248.165646 144.14976 
L 249.695112 131.97312 
L 251.224577 138.06144 
L 252.754043 132.19056 
L 254.283508 138.71376 
L 255.812974 133.93008 
L 257.342439 131.53824 
L 258.871905 137.40912 
L 260.40137 126.75456 
L 261.930836 126.53712 
L 263.460302 129.58128 
L 264.989767 122.18832 
L 266.519233 117.83952 
L 268.048698 141.1056 
L 269.578164 133.4952 
L 271.107629 140.67072 
L 272.637095 136.97424 
L 274.16656 126.10224 
L 275.696026 132.19056 
L 277.225491 132.62544 
L 278.754957 128.27664 
L 280.284422 128.71152 
L 281.813888 130.66848 
L 283.343353 129.36384 
L 284.872819 121.75344 
L 286.402284 142.84512 
L 287.93175 135.6696 
L 289.461215 126.53712 
L 290.990681 123.05808 
L 292.520146 131.10336 
L 294.049612 125.44992 
L 295.579077 124.58016 
L 297.108543 127.40688 
L 298.638008 128.27664 
L 300.167474 132.84288 
L 301.696939 126.972 
L 303.226405 124.7976 
L 304.75587 128.0592 
L 306.285336 120.88368 
L 307.814801 135.01728 
L 309.344267 123.49296 
L 310.873732 144.3672 
L 312.403198 120.4488 
L 313.932663 126.53712 
L 315.462129 119.14416 
L 316.991594 130.66848 
L 318.52106 135.88704 
L 320.050525 128.71152 
L 321.579991 127.62432 
L 323.109456 121.97088 
L 324.638922 140.67072 
L 326.168387 141.1056 
L 327.697853 129.1464 
L 329.227318 118.49184 
L 330.756784 128.0592 
L 332.286249 145.4544 
L 333.815715 144.14976 
L 335.34518 122.84064 
L 336.874646 121.10112 
L 338.404111 135.23472 
L 339.933577 122.40576 
L 341.463042 150.02064 
L 342.992508 131.10336 
L 344.521974 121.536 
L 346.051439 128.92896 
L 347.580905 135.45216 
L 349.11037 126.10224 
L 350.639836 127.84176 
L 352.169301 131.97312 
L 353.698767 136.97424 
L 355.228232 133.06032 
L 356.757698 124.36272 
L 358.287163 126.10224 
L 359.816629 119.3616 
L 361.346094 123.27552 
L 362.87556 124.14528 
L 364.405025 118.70928 
L 365.934491 123.27552 
L 367.463956 116.53488 
L 368.993422 135.45216 
L 370.522887 133.93008 
L 373.581818 125.8848 
L 373.581818 125.8848 
" clip-path="url(#p57b725c9ba)" style="fill: none; stroke: #1f77b4; stroke-width: 1.5; stroke-linecap: square"/>
   </g>
   <g id="line2d_17">
    <path d="M 69.218182 211.12128 
L 373.581818 211.12128 
L 373.581818 211.12128 
" clip-path="url(#p57b725c9ba)" style="fill: none; stroke-dasharray: 5.55,2.4; stroke-dashoffset: 0; stroke: #ff7f0e; stroke-width: 1.5"/>
   </g>
   <g id="patch_3">
    <path d="M 54 252 
L 54 34.56 
" style="fill: none; stroke: #000000; stroke-width: 0.8; stroke-linejoin: miter; stroke-linecap: square"/>
   </g>
   <g id="patch_4">
    <path d="M 388.8 252 
L 388.8 34.56 
" style="fill: none; stroke: #000000; stroke-width: 0.8; stroke-linejoin: miter; stroke-linecap: square"/>
   </g>
   <g id="patch_5">
    <path d="M 54 252 
L 388.8 252 
" style="fill: none; stroke: #000000; stroke-width: 0.8; stroke-linejoin: miter; stroke-linecap: square"/>
   </g>
   <g id="patch_6">
    <path d="M 54 34.56 
L 388.8 34.56 
" style="fill: none; stroke: #000000; stroke-width: 0.8; stroke-linejoin: miter; stroke-linecap: square"/>
   </g>
   <g id="text_18">
    <!-- Caveman -->
    <g transform="translate(192.966563 28.56)scale(0.12 -0.12)">
     <defs>
      <path id="DejaVuSans-43" d="M 4122 4306 
L 4122 3641 
Q 3803 3938 3442 4084 
Q 3081 4231 2675 4231 
Q 1875 4231 1450 3742 
Q 1025 3253 1025 2328 
Q 1025 1406 1450 917 
Q 1875 428 2675 428 
Q 3081 428 3442 575 
Q 3803 722 4122 1019 
L 4122 359 
Q 3791 134 3420 21 
Q 3050 -91 2638 -91 
Q 1578 -91 968 557 
Q 359 1206 359 2328 
Q 359 3453 968 4101 
Q 1578 4750 2638 4750 
Q 3056 4750 3426 4639 
Q 3797 4528 4122 4306 
z
" transform="scale(0.015625)"/>
      <path id="DejaVuSans-6d" d="M 3328 2828 
Q 3544 3216 3844 3400 
Q 4144 3584 4550 3584 
Q 5097 3584 5394 3201 
Q 5691 2819 5691 2113 
L 5691 0 
L 5113 0 
L 5113 2094 
Q 5113 2597 4934 2840 
Q 4756 3084 4391 3084 
Q 3944 3084 3684 2787 
Q 3425 2491 3425 1978 
L 3425 0 
L 2847 0 
L 2847 2094 
Q 2847 2600 2669 2842 
Q 2491 3084 2119 3084 
Q 1678 3084 1418 2786 
Q 1159 2488 1159 1978 
L 1159 0 
L 581 0 
L 581 3500 
L 1159 3500 
L 1159 2956 
Q 1356 3278 1631 3431 
Q 1906 3584 2284 3584 
Q 2666 3584 2933 3390 
Q 3200 3197 3328 2828 
z
" transform="scale(0.015625)"/>
     </defs>
     <use xlink:href="#DejaVuSans-43"/>
     <use xlink:href="#DejaVuSans-61" x="69.824219"/>
     <use xlink:href="#DejaVuSans-76" x="131.103516"/>
     <use xlink:href="#DejaVuSans-65" x="190.283203"/>
     <use xlink:href="#DejaVuSans-6d" x="251.806641"/>
     <use xlink:href="#DejaVuSans-61" x="349.21875"/>
     <use xlink:href="#DejaVuSans-6e" x="410.498047"/>
    </g>
   </g>
   <g id="legend_1">
    <g id="patch_7">
     <path d="M 61 71.91625 
L 176.465625 71.91625 
Q 178.465625 71.91625 178.465625 69.91625 
L 178.465625 41.56 
Q 178.465625 39.56 176.465625 39.56 
L 61 39.56 
Q 59 39.56 59 41.56 
L 59 69.91625 
Q 59 71.91625 61 71.91625 
z
" style="fill: #ffffff; opacity: 0.8; stroke: #cccccc; stroke-linejoin: miter"/>
    </g>
    <g id="line2d_18">
     <path d="M 63 47.658437 
L 73 47.658437 
L 83 47.658437 
" style="fill: none; stroke: #1f77b4; stroke-width: 1.5; stroke-linecap: square"/>
    </g>
    <g id="text_19">
     <!-- training -->
     <g transform="translate(91 51.158437)scale(0.1 -0.1)">
      <use xlink:href="#DejaVuSans-74"/>
      <use xlink:href="#DejaVuSans-72" x="39.208984"/>
      <use xlink:href="#DejaVuSans-61" x="80.322266"/>
      <use xlink:href="#DejaVuSans-69" x="141.601562"/>
      <use xlink:href="#DejaVuSans-6e" x="169.384766"/>
      <use xlink:href="#DejaVuSans-69" x="232.763672"/>
      <use xlink:href="#DejaVuSans-6e" x="260.546875"/>
      <use xlink:href="#DejaVuSans-67" x="323.925781"/>
     </g>
    </g>
    <g id="line2d_19">
     <path d="M 63 62.336562 
L 73 62.336562 
L 83 62.336562 
" style="fill: none; stroke-dasharray: 5.55,2.4; stroke-dashoffset: 0; stroke: #ff7f0e; stroke-width: 1.5"/>
    </g>
    <g id="text_20">
     <!-- transfer learning -->
     <g transform="translate(91 65.836562)scale(0.1 -0.1)">
      <defs>
       <path id="DejaVuSans-73" d="M 2834 3397 
L 2834 2853 
Q 2591 2978 2328 3040 
Q 2066 3103 1784 3103 
Q 1356 3103 1142 2972 
Q 928 2841 928 2578 
Q 928 2378 1081 2264 
Q 1234 2150 1697 2047 
L 1894 2003 
Q 2506 1872 2764 1633 
Q 3022 1394 3022 966 
Q 3022 478 2636 193 
Q 2250 -91 1575 -91 
Q 1294 -91 989 -36 
Q 684 19 347 128 
L 347 722 
Q 666 556 975 473 
Q 1284 391 1588 391 
Q 1994 391 2212 530 
Q 2431 669 2431 922 
Q 2431 1156 2273 1281 
Q 2116 1406 1581 1522 
L 1381 1569 
Q 847 1681 609 1914 
Q 372 2147 372 2553 
Q 372 3047 722 3315 
Q 1072 3584 1716 3584 
Q 2034 3584 2315 3537 
Q 2597 3491 2834 3397 
z
" transform="scale(0.015625)"/>
       <path id="DejaVuSans-66" d="M 2375 4863 
L 2375 4384 
L 1825 4384 
Q 1516 4384 1395 4259 
Q 1275 4134 1275 3809 
L 1275 3500 
L 2222 3500 
L 2222 3053 
L 1275 3053 
L 1275 0 
L 697 0 
L 697 3053 
L 147 3053 
L 147 3500 
L 697 3500 
L 697 3744 
Q 697 4328 969 4595 
Q 1241 4863 1831 4863 
L 2375 4863 
z
" transform="scale(0.015625)"/>
       <path id="DejaVuSans-6c" d="M 603 4863 
L 1178 4863 
L 1178 0 
L 603 0 
L 603 4863 
z
" transform="scale(0.015625)"/>
      </defs>
      <use xlink:href="#DejaVuSans-74"/>
      <use xlink:href="#DejaVuSans-72" x="39.208984"/>
      <use xlink:href="#DejaVuSans-61" x="80.322266"/>
      <use xlink:href="#DejaVuSans-6e" x="141.601562"/>
      <use xlink:href="#DejaVuSans-73" x="204.980469"/>
      <use xlink:href="#DejaVuSans-66" x="257.080078"/>
      <use xlink:href="#DejaVuSans-65" x="292.285156"/>
      <use xlink:href="#DejaVuSans-72" x="353.808594"/>
      <use xlink:href="#DejaVuSans-20" x="394.921875"/>
      <use xlink:href="#DejaVuSans-6c" x="426.708984"/>
      <use xlink:href="#DejaVuSans-65" x="454.492188"/>
      <use xlink:href="#DejaVuSans-61" x="516.015625"/>
      <use xlink:href="#DejaVuSans-72" x="577.294922"/>
      <use xlink:href="#DejaVuSans-6e" x="616.658203"/>
      <use xlink:href="#DejaVuSans-69" x="680.037109"/>
      <use xlink:href="#DejaVuSans-6e" x="707.820312"/>
      <use xlink:href="#DejaVuSans-67" x="771.199219"/>
     </g>
    </g>
   </g>
  </g>
 </g>
 <defs>
  <clipPath id="p57b725c9ba">
   <rect x="54" y="34.56" width="334.8" height="217.44"/>
  </clipPath>
 </defs>
</svg>
