<?xml version="1.0" encoding="utf-8" standalone="no"?>
<!DOCTYPE svg PUBLIC "-//W3C//DTD SVG 1.1//EN"
  "http://www.w3.org/Graphics/SVG/1.1/DTD/svg11.dtd">
<svg xmlns:xlink="http://www.w3.org/1999/xlink" width="432pt" height="288pt" viewBox="0 0 432 288" xmlns="http://www.w3.org/2000/svg" version="1.1">
 <metadata>
  <rdf:RDF xmlns:dc="http://purl.org/dc/elements/1.1/" xmlns:cc="http://creativecommons.org/ns#" xmlns:rdf="http://www.w3.org/1999/02/22-rdf-syntax-ns#">
   <cc:Work>
    <dc:type rdf:resource="http://purl.org/dc/dcmitype/StillImage"/>
    <dc:date>2023-06-05T09:43:09.487613</dc:date>
    <dc:format>image/svg+xml</dc:format>
    <dc:creator>
     <cc:Agent>
      <dc:title>Matplotlib v3.5.2, https://matplotlib.org/</dc:title>
     </cc:Agent>
    </dc:creator>
   </cc:Work>
  </rdf:RDF>
 </metadata>
 <defs>
  <style type="text/css">*{stroke-linejoin: round; stroke-linecap: butt}</style>
 </defs>
 <g id="figure_1">
  <g id="patch_1">
   <path d="M 0 288 
L 432 288 
L 432 0 
L 0 0 
L 0 288 
z
" style="fill: none"/>
  </g>
  <g id="axes_1">
   <g id="patch_2">
    <path d="M 54 252 
L 388.8 252 
L 388.8 34.56 
L 54 34.56 
z
" style="fill: #ffffff"/>
   </g>
   <g id="PolyCollection_1">
    <path d="M 69.218182 180.233692 
L 69.218182 171.558308 
L 70.747647 177.716364 
L 72.277113 173.150081 
L 73.806578 169.56206 
L 75.336044 176.742256 
L 76.865509 171.236571 
L 78.394975 168.561396 
L 79.92444 163.85847 
L 81.453906 160.360258 
L 82.983371 170.081019 
L 84.512837 155.339394 
L 86.042302 159.946158 
L 87.571768 169.532432 
L 89.101233 148.871314 
L 90.630699 143.932359 
L 92.160164 146.426782 
L 93.68963 129.379552 
L 95.219095 140.62519 
L 96.748561 159.401777 
L 98.278026 146.14056 
L 99.807492 141.860852 
L 101.336958 143.072412 
L 102.866423 133.136464 
L 104.395889 139.913239 
L 105.925354 138.971365 
L 107.45482 130.300977 
L 108.984285 135.36907 
L 110.513751 134.020365 
L 112.043216 146.744501 
L 113.572682 132.167042 
L 115.102147 128.338804 
L 116.631613 139.4775 
L 118.161078 126.33522 
L 119.690544 131.976308 
L 121.220009 136.081102 
L 122.749475 134.68417 
L 124.27894 123.813203 
L 125.808406 136.130534 
L 127.337871 145.306022 
L 128.867337 136.224933 
L 130.396802 127.945554 
L 131.926268 142.471111 
L 133.455733 138.468134 
L 134.985199 137.405213 
L 136.514664 143.376153 
L 138.04413 134.380022 
L 139.573595 131.577635 
L 141.103061 129.018181 
L 142.632526 124.723739 
L 144.161992 128.494568 
L 145.691457 126.97711 
L 147.220923 124.421652 
L 148.750388 125.900481 
L 150.279854 148.289194 
L 151.809319 124.92553 
L 153.338785 137.55404 
L 154.86825 154.00376 
L 156.397716 132.272408 
L 157.927181 134.340663 
L 159.456647 123.601575 
L 160.986112 117.679711 
L 162.515578 127.47596 
L 164.045043 137.270373 
L 165.574509 143.040714 
L 167.103974 124.221578 
L 168.63344 136.46762 
L 170.162905 121.248922 
L 171.692371 130.761156 
L 173.221836 119.678983 
L 174.751302 127.858519 
L 176.280767 135.371688 
L 177.810233 127.792751 
L 179.339698 117.91382 
L 180.869164 117.619033 
L 182.39863 132.011612 
L 183.928095 126.725314 
L 185.457561 122.90752 
L 186.987026 128.239804 
L 188.516492 125.136986 
L 190.045957 115.182681 
L 191.575423 124.620888 
L 193.104888 128.673708 
L 194.634354 125.669148 
L 196.163819 128.954313 
L 197.693285 127.786293 
L 199.22275 123.210469 
L 200.752216 127.507631 
L 202.281681 113.731524 
L 203.811147 118.082974 
L 205.340612 114.92738 
L 206.870078 118.115203 
L 208.399543 124.336836 
L 209.929009 128.099564 
L 211.458474 111.477359 
L 212.98794 124.479462 
L 214.517405 137.082483 
L 216.046871 117.541967 
L 217.576336 123.506093 
L 219.105802 110.025913 
L 220.635267 126.035635 
L 222.164733 124.750897 
L 223.694198 115.187552 
L 225.223664 114.09287 
L 226.753129 114.414971 
L 228.282595 125.774329 
L 229.81206 125.584537 
L 231.341526 132.34443 
L 232.870991 106.275527 
L 234.400457 124.403241 
L 235.929922 120.039084 
L 237.459388 127.410582 
L 238.988853 121.8375 
L 240.518319 123.467955 
L 242.047784 126.813516 
L 243.57725 129.917221 
L 245.106715 113.886823 
L 246.636181 113.070721 
L 248.165646 120.725278 
L 249.695112 112.628418 
L 251.224577 123.231715 
L 252.754043 122.087021 
L 254.283508 123.566186 
L 255.812974 114.319015 
L 257.342439 118.596882 
L 258.871905 109.44692 
L 260.40137 103.489466 
L 261.930836 112.341668 
L 263.460302 115.373582 
L 264.989767 113.827235 
L 266.519233 101.408065 
L 268.048698 116.898835 
L 269.578164 123.658848 
L 271.107629 120.602369 
L 272.637095 120.766491 
L 274.16656 122.337055 
L 275.696026 112.866698 
L 277.225491 97.01773 
L 278.754957 116.02109 
L 280.284422 117.07996 
L 281.813888 108.899637 
L 283.343353 105.21964 
L 284.872819 114.775773 
L 286.402284 102.642927 
L 287.93175 112.034272 
L 289.461215 119.705017 
L 290.990681 114.668566 
L 292.520146 107.146835 
L 294.049612 115.989987 
L 295.579077 112.871452 
L 297.108543 101.169767 
L 298.638008 106.09643 
L 300.167474 99.396124 
L 301.696939 105.589182 
L 303.226405 109.667678 
L 304.75587 105.758561 
L 306.285336 105.340041 
L 307.814801 95.113353 
L 309.344267 105.088009 
L 310.873732 115.944686 
L 312.403198 107.20996 
L 313.932663 112.26543 
L 315.462129 101.729353 
L 316.991594 112.05888 
L 318.52106 92.818777 
L 320.050525 116.030788 
L 321.579991 107.969323 
L 323.109456 104.082016 
L 324.638922 115.28701 
L 326.168387 106.865608 
L 327.697853 120.945895 
L 329.227318 108.554099 
L 330.756784 97.546853 
L 332.286249 100.922477 
L 333.815715 103.105061 
L 335.34518 99.406414 
L 336.874646 96.888937 
L 338.404111 98.761316 
L 339.933577 112.93913 
L 341.463042 106.858993 
L 342.992508 107.372347 
L 344.521974 110.974629 
L 346.051439 113.670418 
L 347.580905 110.18915 
L 349.11037 106.784131 
L 350.639836 105.707656 
L 352.169301 107.263826 
L 353.698767 108.855659 
L 355.228232 110.821993 
L 356.757698 94.138715 
L 358.287163 104.529373 
L 359.816629 96.577466 
L 361.346094 99.99074 
L 362.87556 99.967982 
L 364.405025 109.797876 
L 365.934491 105.38059 
L 367.463956 106.793201 
L 368.993422 98.732634 
L 370.522887 106.971592 
L 372.052353 97.582392 
L 373.581818 85.878788 
L 373.581818 119.917784 
L 373.581818 119.917784 
L 372.052353 111.320465 
L 370.522887 126.160294 
L 368.993422 123.83788 
L 367.463956 124.785542 
L 365.934491 123.091867 
L 364.405025 121.470238 
L 362.87556 129.125732 
L 361.346094 116.056574 
L 359.816629 111.393505 
L 358.287163 125.496227 
L 356.757698 119.112943 
L 355.228232 119.824864 
L 353.698767 118.374284 
L 352.169301 127.421203 
L 350.639836 126.802973 
L 349.11037 114.854498 
L 347.580905 129.155307 
L 346.051439 129.712211 
L 344.521974 121.536 
L 342.992508 122.653253 
L 341.463042 138.076778 
L 339.933577 131.996642 
L 338.404111 124.741084 
L 336.874646 131.58352 
L 335.34518 128.444786 
L 333.815715 120.397339 
L 332.286249 114.814209 
L 330.756784 122.849261 
L 329.227318 126.441558 
L 327.697853 131.755591 
L 326.168387 121.917478 
L 324.638922 125.921219 
L 323.109456 131.22427 
L 321.579991 128.890105 
L 320.050525 133.875041 
L 318.52106 130.683623 
L 316.991594 136.604434 
L 315.462129 129.84939 
L 313.932663 139.193541 
L 312.403198 129.33884 
L 310.873732 121.536 
L 309.344267 127.111991 
L 307.814801 127.767789 
L 306.285336 132.140645 
L 304.75587 146.011039 
L 303.226405 124.706722 
L 301.696939 123.193904 
L 300.167474 127.212562 
L 298.638008 128.588599 
L 297.108543 119.226347 
L 295.579077 123.056091 
L 294.049612 140.439041 
L 292.520146 125.053165 
L 290.990681 121.880234 
L 289.461215 131.443325 
L 287.93175 135.697157 
L 286.402284 121.791358 
L 284.872819 125.189941 
L 283.343353 125.427217 
L 281.813888 141.31682 
L 280.284422 131.583354 
L 278.754957 130.467824 
L 277.225491 130.83347 
L 275.696026 126.47776 
L 274.16656 139.062031 
L 272.637095 137.836937 
L 271.107629 148.251802 
L 269.578164 135.876466 
L 268.048698 123.377508 
L 266.519233 130.481306 
L 264.989767 139.184879 
L 263.460302 133.600361 
L 261.930836 133.52599 
L 260.40137 143.620706 
L 258.871905 143.565195 
L 257.342439 136.900261 
L 255.812974 139.003728 
L 254.283508 143.113586 
L 252.754043 135.895151 
L 251.224577 144.069313 
L 249.695112 142.247467 
L 248.165646 131.35495 
L 246.636181 140.873279 
L 245.106715 143.163463 
L 243.57725 146.702665 
L 242.047784 157.261455 
L 240.518319 143.211816 
L 238.988853 132.417128 
L 237.459388 143.307361 
L 235.929922 142.291887 
L 234.400457 147.246588 
L 232.870991 133.06893 
L 231.341526 143.032942 
L 229.81206 134.882663 
L 228.282595 152.088071 
L 226.753129 137.044001 
L 225.223664 130.221644 
L 223.694198 131.301362 
L 222.164733 149.073332 
L 220.635267 142.197279 
L 219.105802 135.841745 
L 217.576336 144.726822 
L 216.046871 138.265805 
L 214.517405 146.68186 
L 212.98794 134.123966 
L 211.458474 146.194184 
L 209.929009 144.792779 
L 208.399543 142.964193 
L 206.870078 142.973254 
L 205.340612 135.910334 
L 203.811147 140.831083 
L 202.281681 136.174304 
L 200.752216 150.976026 
L 199.22275 150.924388 
L 197.693285 148.212336 
L 196.163819 135.551058 
L 194.634354 141.321252 
L 193.104888 142.976121 
L 191.575423 142.68014 
L 190.045957 149.943947 
L 188.516492 139.368386 
L 186.987026 140.614367 
L 185.457561 140.355337 
L 183.928095 142.128858 
L 182.39863 146.161417 
L 180.869164 153.720167 
L 179.339698 150.319095 
L 177.810233 152.865307 
L 176.280767 152.430826 
L 174.751302 157.148339 
L 173.221836 148.243303 
L 171.692371 151.450044 
L 170.162905 151.954049 
L 168.63344 154.44118 
L 167.103974 154.572708 
L 165.574509 149.731858 
L 164.045043 157.987227 
L 162.515578 155.356497 
L 160.986112 165.774003 
L 159.456647 148.980139 
L 157.927181 177.69088 
L 156.397716 153.045077 
L 154.86825 157.406526 
L 153.338785 166.711789 
L 151.809319 156.664413 
L 150.279854 153.180978 
L 148.750388 159.727633 
L 147.220923 164.00212 
L 145.691457 150.574661 
L 144.161992 140.359604 
L 142.632526 145.372947 
L 141.103061 162.822505 
L 139.573595 158.088651 
L 138.04413 160.56695 
L 136.514664 152.813333 
L 134.985199 156.920501 
L 133.455733 146.849351 
L 131.926268 168.628546 
L 130.396802 153.955017 
L 128.867337 159.343296 
L 127.337871 162.687349 
L 125.808406 155.399523 
L 124.27894 152.806682 
L 122.749475 164.92223 
L 121.220009 159.176498 
L 119.690544 158.000606 
L 118.161078 155.87598 
L 116.631613 168.515872 
L 115.102147 153.251138 
L 113.572682 164.643701 
L 112.043216 153.793785 
L 110.513751 155.956549 
L 108.984285 166.41173 
L 107.45482 169.616051 
L 105.925354 158.150007 
L 104.395889 158.140018 
L 102.866423 166.780564 
L 101.336958 153.738331 
L 99.807492 154.328633 
L 98.278026 168.376012 
L 96.748561 165.676166 
L 95.219095 158.98121 
L 93.68963 162.771762 
L 92.160164 169.021675 
L 90.630699 168.720441 
L 89.101233 164.402743 
L 87.571768 175.115111 
L 86.042302 172.586871 
L 84.512837 164.147234 
L 82.983371 181.089724 
L 81.453906 182.734142 
L 79.92444 190.729188 
L 78.394975 190.064433 
L 76.865509 179.312914 
L 75.336044 188.096144 
L 73.806578 181.608683 
L 72.277113 187.650148 
L 70.747647 201.100321 
L 69.218182 180.233692 
z
" clip-path="url(#pb44906fc1c)" style="fill: #1f77b4; fill-opacity: 0.5"/>
   </g>
   <g id="matplotlib.axis_1">
    <g id="xtick_1">
     <g id="line2d_1">
      <defs>
       <path id="m4d8d445bf5" d="M 0 0 
L 0 3.5 
" style="stroke: #000000; stroke-width: 0.8"/>
      </defs>
      <g>
       <use xlink:href="#m4d8d445bf5" x="69.218182" y="252" style="stroke: #000000; stroke-width: 0.8"/>
      </g>
     </g>
     <g id="text_1">
      <!-- 0 -->
      <g transform="translate(66.036932 266.598437)scale(0.1 -0.1)">
       <defs>
        <path id="DejaVuSans-30" d="M 2034 4250 
Q 1547 4250 1301 3770 
Q 1056 3291 1056 2328 
Q 1056 1369 1301 889 
Q 1547 409 2034 409 
Q 2525 409 2770 889 
Q 3016 1369 3016 2328 
Q 3016 3291 2770 3770 
Q 2525 4250 2034 4250 
z
M 2034 4750 
Q 2819 4750 3233 4129 
Q 3647 3509 3647 2328 
Q 3647 1150 3233 529 
Q 2819 -91 2034 -91 
Q 1250 -91 836 529 
Q 422 1150 422 2328 
Q 422 3509 836 4129 
Q 1250 4750 2034 4750 
z
" transform="scale(0.015625)"/>
       </defs>
       <use xlink:href="#DejaVuSans-30"/>
      </g>
     </g>
    </g>
    <g id="xtick_2">
     <g id="line2d_2">
      <g>
       <use xlink:href="#m4d8d445bf5" x="107.45482" y="252" style="stroke: #000000; stroke-width: 0.8"/>
      </g>
     </g>
     <g id="text_2">
      <!-- 25 -->
      <g transform="translate(101.09232 266.598437)scale(0.1 -0.1)">
       <defs>
        <path id="DejaVuSans-32" d="M 1228 531 
L 3431 531 
L 3431 0 
L 469 0 
L 469 531 
Q 828 903 1448 1529 
Q 2069 2156 2228 2338 
Q 2531 2678 2651 2914 
Q 2772 3150 2772 3378 
Q 2772 3750 2511 3984 
Q 2250 4219 1831 4219 
Q 1534 4219 1204 4116 
Q 875 4013 500 3803 
L 500 4441 
Q 881 4594 1212 4672 
Q 1544 4750 1819 4750 
Q 2544 4750 2975 4387 
Q 3406 4025 3406 3419 
Q 3406 3131 3298 2873 
Q 3191 2616 2906 2266 
Q 2828 2175 2409 1742 
Q 1991 1309 1228 531 
z
" transform="scale(0.015625)"/>
        <path id="DejaVuSans-35" d="M 691 4666 
L 3169 4666 
L 3169 4134 
L 1269 4134 
L 1269 2991 
Q 1406 3038 1543 3061 
Q 1681 3084 1819 3084 
Q 2600 3084 3056 2656 
Q 3513 2228 3513 1497 
Q 3513 744 3044 326 
Q 2575 -91 1722 -91 
Q 1428 -91 1123 -41 
Q 819 9 494 109 
L 494 744 
Q 775 591 1075 516 
Q 1375 441 1709 441 
Q 2250 441 2565 725 
Q 2881 1009 2881 1497 
Q 2881 1984 2565 2268 
Q 2250 2553 1709 2553 
Q 1456 2553 1204 2497 
Q 953 2441 691 2322 
L 691 4666 
z
" transform="scale(0.015625)"/>
       </defs>
       <use xlink:href="#DejaVuSans-32"/>
       <use xlink:href="#DejaVuSans-35" x="63.623047"/>
      </g>
     </g>
    </g>
    <g id="xtick_3">
     <g id="line2d_3">
      <g>
       <use xlink:href="#m4d8d445bf5" x="145.691457" y="252" style="stroke: #000000; stroke-width: 0.8"/>
      </g>
     </g>
     <g id="text_3">
      <!-- 50 -->
      <g transform="translate(139.328957 266.598437)scale(0.1 -0.1)">
       <use xlink:href="#DejaVuSans-35"/>
       <use xlink:href="#DejaVuSans-30" x="63.623047"/>
      </g>
     </g>
    </g>
    <g id="xtick_4">
     <g id="line2d_4">
      <g>
       <use xlink:href="#m4d8d445bf5" x="183.928095" y="252" style="stroke: #000000; stroke-width: 0.8"/>
      </g>
     </g>
     <g id="text_4">
      <!-- 75 -->
      <g transform="translate(177.565595 266.598437)scale(0.1 -0.1)">
       <defs>
        <path id="DejaVuSans-37" d="M 525 4666 
L 3525 4666 
L 3525 4397 
L 1831 0 
L 1172 0 
L 2766 4134 
L 525 4134 
L 525 4666 
z
" transform="scale(0.015625)"/>
       </defs>
       <use xlink:href="#DejaVuSans-37"/>
       <use xlink:href="#DejaVuSans-35" x="63.623047"/>
      </g>
     </g>
    </g>
    <g id="xtick_5">
     <g id="line2d_5">
      <g>
       <use xlink:href="#m4d8d445bf5" x="222.164733" y="252" style="stroke: #000000; stroke-width: 0.8"/>
      </g>
     </g>
     <g id="text_5">
      <!-- 100 -->
      <g transform="translate(212.620983 266.598437)scale(0.1 -0.1)">
       <defs>
        <path id="DejaVuSans-31" d="M 794 531 
L 1825 531 
L 1825 4091 
L 703 3866 
L 703 4441 
L 1819 4666 
L 2450 4666 
L 2450 531 
L 3481 531 
L 3481 0 
L 794 0 
L 794 531 
z
" transform="scale(0.015625)"/>
       </defs>
       <use xlink:href="#DejaVuSans-31"/>
       <use xlink:href="#DejaVuSans-30" x="63.623047"/>
       <use xlink:href="#DejaVuSans-30" x="127.246094"/>
      </g>
     </g>
    </g>
    <g id="xtick_6">
     <g id="line2d_6">
      <g>
       <use xlink:href="#m4d8d445bf5" x="260.40137" y="252" style="stroke: #000000; stroke-width: 0.8"/>
      </g>
     </g>
     <g id="text_6">
      <!-- 125 -->
      <g transform="translate(250.85762 266.598437)scale(0.1 -0.1)">
       <use xlink:href="#DejaVuSans-31"/>
       <use xlink:href="#DejaVuSans-32" x="63.623047"/>
       <use xlink:href="#DejaVuSans-35" x="127.246094"/>
      </g>
     </g>
    </g>
    <g id="xtick_7">
     <g id="line2d_7">
      <g>
       <use xlink:href="#m4d8d445bf5" x="298.638008" y="252" style="stroke: #000000; stroke-width: 0.8"/>
      </g>
     </g>
     <g id="text_7">
      <!-- 150 -->
      <g transform="translate(289.094258 266.598437)scale(0.1 -0.1)">
       <use xlink:href="#DejaVuSans-31"/>
       <use xlink:href="#DejaVuSans-35" x="63.623047"/>
       <use xlink:href="#DejaVuSans-30" x="127.246094"/>
      </g>
     </g>
    </g>
    <g id="xtick_8">
     <g id="line2d_8">
      <g>
       <use xlink:href="#m4d8d445bf5" x="336.874646" y="252" style="stroke: #000000; stroke-width: 0.8"/>
      </g>
     </g>
     <g id="text_8">
      <!-- 175 -->
      <g transform="translate(327.330896 266.598437)scale(0.1 -0.1)">
       <use xlink:href="#DejaVuSans-31"/>
       <use xlink:href="#DejaVuSans-37" x="63.623047"/>
       <use xlink:href="#DejaVuSans-35" x="127.246094"/>
      </g>
     </g>
    </g>
    <g id="xtick_9">
     <g id="line2d_9">
      <g>
       <use xlink:href="#m4d8d445bf5" x="375.111284" y="252" style="stroke: #000000; stroke-width: 0.8"/>
      </g>
     </g>
     <g id="text_9">
      <!-- 200 -->
      <g transform="translate(365.567534 266.598437)scale(0.1 -0.1)">
       <use xlink:href="#DejaVuSans-32"/>
       <use xlink:href="#DejaVuSans-30" x="63.623047"/>
       <use xlink:href="#DejaVuSans-30" x="127.246094"/>
      </g>
     </g>
    </g>
    <g id="text_10">
     <!-- Generation -->
     <g transform="translate(193.507031 280.276563)scale(0.1 -0.1)">
      <defs>
       <path id="DejaVuSans-47" d="M 3809 666 
L 3809 1919 
L 2778 1919 
L 2778 2438 
L 4434 2438 
L 4434 434 
Q 4069 175 3628 42 
Q 3188 -91 2688 -91 
Q 1594 -91 976 548 
Q 359 1188 359 2328 
Q 359 3472 976 4111 
Q 1594 4750 2688 4750 
Q 3144 4750 3555 4637 
Q 3966 4525 4313 4306 
L 4313 3634 
Q 3963 3931 3569 4081 
Q 3175 4231 2741 4231 
Q 1884 4231 1454 3753 
Q 1025 3275 1025 2328 
Q 1025 1384 1454 906 
Q 1884 428 2741 428 
Q 3075 428 3337 486 
Q 3600 544 3809 666 
z
" transform="scale(0.015625)"/>
       <path id="DejaVuSans-65" d="M 3597 1894 
L 3597 1613 
L 953 1613 
Q 991 1019 1311 708 
Q 1631 397 2203 397 
Q 2534 397 2845 478 
Q 3156 559 3463 722 
L 3463 178 
Q 3153 47 2828 -22 
Q 2503 -91 2169 -91 
Q 1331 -91 842 396 
Q 353 884 353 1716 
Q 353 2575 817 3079 
Q 1281 3584 2069 3584 
Q 2775 3584 3186 3129 
Q 3597 2675 3597 1894 
z
M 3022 2063 
Q 3016 2534 2758 2815 
Q 2500 3097 2075 3097 
Q 1594 3097 1305 2825 
Q 1016 2553 972 2059 
L 3022 2063 
z
" transform="scale(0.015625)"/>
       <path id="DejaVuSans-6e" d="M 3513 2113 
L 3513 0 
L 2938 0 
L 2938 2094 
Q 2938 2591 2744 2837 
Q 2550 3084 2163 3084 
Q 1697 3084 1428 2787 
Q 1159 2491 1159 1978 
L 1159 0 
L 581 0 
L 581 3500 
L 1159 3500 
L 1159 2956 
Q 1366 3272 1645 3428 
Q 1925 3584 2291 3584 
Q 2894 3584 3203 3211 
Q 3513 2838 3513 2113 
z
" transform="scale(0.015625)"/>
       <path id="DejaVuSans-72" d="M 2631 2963 
Q 2534 3019 2420 3045 
Q 2306 3072 2169 3072 
Q 1681 3072 1420 2755 
Q 1159 2438 1159 1844 
L 1159 0 
L 581 0 
L 581 3500 
L 1159 3500 
L 1159 2956 
Q 1341 3275 1631 3429 
Q 1922 3584 2338 3584 
Q 2397 3584 2469 3576 
Q 2541 3569 2628 3553 
L 2631 2963 
z
" transform="scale(0.015625)"/>
       <path id="DejaVuSans-61" d="M 2194 1759 
Q 1497 1759 1228 1600 
Q 959 1441 959 1056 
Q 959 750 1161 570 
Q 1363 391 1709 391 
Q 2188 391 2477 730 
Q 2766 1069 2766 1631 
L 2766 1759 
L 2194 1759 
z
M 3341 1997 
L 3341 0 
L 2766 0 
L 2766 531 
Q 2569 213 2275 61 
Q 1981 -91 1556 -91 
Q 1019 -91 701 211 
Q 384 513 384 1019 
Q 384 1609 779 1909 
Q 1175 2209 1959 2209 
L 2766 2209 
L 2766 2266 
Q 2766 2663 2505 2880 
Q 2244 3097 1772 3097 
Q 1472 3097 1187 3025 
Q 903 2953 641 2809 
L 641 3341 
Q 956 3463 1253 3523 
Q 1550 3584 1831 3584 
Q 2591 3584 2966 3190 
Q 3341 2797 3341 1997 
z
" transform="scale(0.015625)"/>
       <path id="DejaVuSans-74" d="M 1172 4494 
L 1172 3500 
L 2356 3500 
L 2356 3053 
L 1172 3053 
L 1172 1153 
Q 1172 725 1289 603 
Q 1406 481 1766 481 
L 2356 481 
L 2356 0 
L 1766 0 
Q 1100 0 847 248 
Q 594 497 594 1153 
L 594 3053 
L 172 3053 
L 172 3500 
L 594 3500 
L 594 4494 
L 1172 4494 
z
" transform="scale(0.015625)"/>
       <path id="DejaVuSans-69" d="M 603 3500 
L 1178 3500 
L 1178 0 
L 603 0 
L 603 3500 
z
M 603 4863 
L 1178 4863 
L 1178 4134 
L 603 4134 
L 603 4863 
z
" transform="scale(0.015625)"/>
       <path id="DejaVuSans-6f" d="M 1959 3097 
Q 1497 3097 1228 2736 
Q 959 2375 959 1747 
Q 959 1119 1226 758 
Q 1494 397 1959 397 
Q 2419 397 2687 759 
Q 2956 1122 2956 1747 
Q 2956 2369 2687 2733 
Q 2419 3097 1959 3097 
z
M 1959 3584 
Q 2709 3584 3137 3096 
Q 3566 2609 3566 1747 
Q 3566 888 3137 398 
Q 2709 -91 1959 -91 
Q 1206 -91 779 398 
Q 353 888 353 1747 
Q 353 2609 779 3096 
Q 1206 3584 1959 3584 
z
" transform="scale(0.015625)"/>
      </defs>
      <use xlink:href="#DejaVuSans-47"/>
      <use xlink:href="#DejaVuSans-65" x="77.490234"/>
      <use xlink:href="#DejaVuSans-6e" x="139.013672"/>
      <use xlink:href="#DejaVuSans-65" x="202.392578"/>
      <use xlink:href="#DejaVuSans-72" x="263.916016"/>
      <use xlink:href="#DejaVuSans-61" x="305.029297"/>
      <use xlink:href="#DejaVuSans-74" x="366.308594"/>
      <use xlink:href="#DejaVuSans-69" x="405.517578"/>
      <use xlink:href="#DejaVuSans-6f" x="433.300781"/>
      <use xlink:href="#DejaVuSans-6e" x="494.482422"/>
     </g>
    </g>
   </g>
   <g id="matplotlib.axis_2">
    <g id="ytick_1">
     <g id="line2d_10">
      <defs>
       <path id="mc073387009" d="M 0 0 
L -3.5 0 
" style="stroke: #000000; stroke-width: 0.8"/>
      </defs>
      <g>
       <use xlink:href="#mc073387009" x="54" y="252" style="stroke: #000000; stroke-width: 0.8"/>
      </g>
     </g>
     <g id="text_11">
      <!-- 4.0 -->
      <g transform="translate(31.096875 255.799219)scale(0.1 -0.1)">
       <defs>
        <path id="DejaVuSans-34" d="M 2419 4116 
L 825 1625 
L 2419 1625 
L 2419 4116 
z
M 2253 4666 
L 3047 4666 
L 3047 1625 
L 3713 1625 
L 3713 1100 
L 3047 1100 
L 3047 0 
L 2419 0 
L 2419 1100 
L 313 1100 
L 313 1709 
L 2253 4666 
z
" transform="scale(0.015625)"/>
        <path id="DejaVuSans-2e" d="M 684 794 
L 1344 794 
L 1344 0 
L 684 0 
L 684 794 
z
" transform="scale(0.015625)"/>
       </defs>
       <use xlink:href="#DejaVuSans-34"/>
       <use xlink:href="#DejaVuSans-2e" x="63.623047"/>
       <use xlink:href="#DejaVuSans-30" x="95.410156"/>
      </g>
     </g>
    </g>
    <g id="ytick_2">
     <g id="line2d_11">
      <g>
       <use xlink:href="#mc073387009" x="54" y="220.937143" style="stroke: #000000; stroke-width: 0.8"/>
      </g>
     </g>
     <g id="text_12">
      <!-- 4.5 -->
      <g transform="translate(31.096875 224.736362)scale(0.1 -0.1)">
       <use xlink:href="#DejaVuSans-34"/>
       <use xlink:href="#DejaVuSans-2e" x="63.623047"/>
       <use xlink:href="#DejaVuSans-35" x="95.410156"/>
      </g>
     </g>
    </g>
    <g id="ytick_3">
     <g id="line2d_12">
      <g>
       <use xlink:href="#mc073387009" x="54" y="189.874286" style="stroke: #000000; stroke-width: 0.8"/>
      </g>
     </g>
     <g id="text_13">
      <!-- 5.0 -->
      <g transform="translate(31.096875 193.673504)scale(0.1 -0.1)">
       <use xlink:href="#DejaVuSans-35"/>
       <use xlink:href="#DejaVuSans-2e" x="63.623047"/>
       <use xlink:href="#DejaVuSans-30" x="95.410156"/>
      </g>
     </g>
    </g>
    <g id="ytick_4">
     <g id="line2d_13">
      <g>
       <use xlink:href="#mc073387009" x="54" y="158.811429" style="stroke: #000000; stroke-width: 0.8"/>
      </g>
     </g>
     <g id="text_14">
      <!-- 5.5 -->
      <g transform="translate(31.096875 162.610647)scale(0.1 -0.1)">
       <use xlink:href="#DejaVuSans-35"/>
       <use xlink:href="#DejaVuSans-2e" x="63.623047"/>
       <use xlink:href="#DejaVuSans-35" x="95.410156"/>
      </g>
     </g>
    </g>
    <g id="ytick_5">
     <g id="line2d_14">
      <g>
       <use xlink:href="#mc073387009" x="54" y="127.748571" style="stroke: #000000; stroke-width: 0.8"/>
      </g>
     </g>
     <g id="text_15">
      <!-- 6.0 -->
      <g transform="translate(31.096875 131.54779)scale(0.1 -0.1)">
       <defs>
        <path id="DejaVuSans-36" d="M 2113 2584 
Q 1688 2584 1439 2293 
Q 1191 2003 1191 1497 
Q 1191 994 1439 701 
Q 1688 409 2113 409 
Q 2538 409 2786 701 
Q 3034 994 3034 1497 
Q 3034 2003 2786 2293 
Q 2538 2584 2113 2584 
z
M 3366 4563 
L 3366 3988 
Q 3128 4100 2886 4159 
Q 2644 4219 2406 4219 
Q 1781 4219 1451 3797 
Q 1122 3375 1075 2522 
Q 1259 2794 1537 2939 
Q 1816 3084 2150 3084 
Q 2853 3084 3261 2657 
Q 3669 2231 3669 1497 
Q 3669 778 3244 343 
Q 2819 -91 2113 -91 
Q 1303 -91 875 529 
Q 447 1150 447 2328 
Q 447 3434 972 4092 
Q 1497 4750 2381 4750 
Q 2619 4750 2861 4703 
Q 3103 4656 3366 4563 
z
" transform="scale(0.015625)"/>
       </defs>
       <use xlink:href="#DejaVuSans-36"/>
       <use xlink:href="#DejaVuSans-2e" x="63.623047"/>
       <use xlink:href="#DejaVuSans-30" x="95.410156"/>
      </g>
     </g>
    </g>
    <g id="ytick_6">
     <g id="line2d_15">
      <g>
       <use xlink:href="#mc073387009" x="54" y="96.685714" style="stroke: #000000; stroke-width: 0.8"/>
      </g>
     </g>
     <g id="text_16">
      <!-- 6.5 -->
      <g transform="translate(31.096875 100.484933)scale(0.1 -0.1)">
       <use xlink:href="#DejaVuSans-36"/>
       <use xlink:href="#DejaVuSans-2e" x="63.623047"/>
       <use xlink:href="#DejaVuSans-35" x="95.410156"/>
      </g>
     </g>
    </g>
    <g id="ytick_7">
     <g id="line2d_16">
      <g>
       <use xlink:href="#mc073387009" x="54" y="65.622857" style="stroke: #000000; stroke-width: 0.8"/>
      </g>
     </g>
     <g id="text_17">
      <!-- 7.0 -->
      <g transform="translate(31.096875 69.422076)scale(0.1 -0.1)">
       <use xlink:href="#DejaVuSans-37"/>
       <use xlink:href="#DejaVuSans-2e" x="63.623047"/>
       <use xlink:href="#DejaVuSans-30" x="95.410156"/>
      </g>
     </g>
    </g>
    <g id="ytick_8">
     <g id="line2d_17">
      <g>
       <use xlink:href="#mc073387009" x="54" y="34.56" style="stroke: #000000; stroke-width: 0.8"/>
      </g>
     </g>
     <g id="text_18">
      <!-- 7.5 -->
      <g transform="translate(31.096875 38.359219)scale(0.1 -0.1)">
       <use xlink:href="#DejaVuSans-37"/>
       <use xlink:href="#DejaVuSans-2e" x="63.623047"/>
       <use xlink:href="#DejaVuSans-35" x="95.410156"/>
      </g>
     </g>
    </g>
    <g id="text_19">
     <!-- Average Energy -->
     <g transform="translate(25.017187 182.908125)rotate(-90)scale(0.1 -0.1)">
      <defs>
       <path id="DejaVuSans-41" d="M 2188 4044 
L 1331 1722 
L 3047 1722 
L 2188 4044 
z
M 1831 4666 
L 2547 4666 
L 4325 0 
L 3669 0 
L 3244 1197 
L 1141 1197 
L 716 0 
L 50 0 
L 1831 4666 
z
" transform="scale(0.015625)"/>
       <path id="DejaVuSans-76" d="M 191 3500 
L 800 3500 
L 1894 563 
L 2988 3500 
L 3597 3500 
L 2284 0 
L 1503 0 
L 191 3500 
z
" transform="scale(0.015625)"/>
       <path id="DejaVuSans-67" d="M 2906 1791 
Q 2906 2416 2648 2759 
Q 2391 3103 1925 3103 
Q 1463 3103 1205 2759 
Q 947 2416 947 1791 
Q 947 1169 1205 825 
Q 1463 481 1925 481 
Q 2391 481 2648 825 
Q 2906 1169 2906 1791 
z
M 3481 434 
Q 3481 -459 3084 -895 
Q 2688 -1331 1869 -1331 
Q 1566 -1331 1297 -1286 
Q 1028 -1241 775 -1147 
L 775 -588 
Q 1028 -725 1275 -790 
Q 1522 -856 1778 -856 
Q 2344 -856 2625 -561 
Q 2906 -266 2906 331 
L 2906 616 
Q 2728 306 2450 153 
Q 2172 0 1784 0 
Q 1141 0 747 490 
Q 353 981 353 1791 
Q 353 2603 747 3093 
Q 1141 3584 1784 3584 
Q 2172 3584 2450 3431 
Q 2728 3278 2906 2969 
L 2906 3500 
L 3481 3500 
L 3481 434 
z
" transform="scale(0.015625)"/>
       <path id="DejaVuSans-20" transform="scale(0.015625)"/>
       <path id="DejaVuSans-45" d="M 628 4666 
L 3578 4666 
L 3578 4134 
L 1259 4134 
L 1259 2753 
L 3481 2753 
L 3481 2222 
L 1259 2222 
L 1259 531 
L 3634 531 
L 3634 0 
L 628 0 
L 628 4666 
z
" transform="scale(0.015625)"/>
       <path id="DejaVuSans-79" d="M 2059 -325 
Q 1816 -950 1584 -1140 
Q 1353 -1331 966 -1331 
L 506 -1331 
L 506 -850 
L 844 -850 
Q 1081 -850 1212 -737 
Q 1344 -625 1503 -206 
L 1606 56 
L 191 3500 
L 800 3500 
L 1894 763 
L 2988 3500 
L 3597 3500 
L 2059 -325 
z
" transform="scale(0.015625)"/>
      </defs>
      <use xlink:href="#DejaVuSans-41"/>
      <use xlink:href="#DejaVuSans-76" x="62.533203"/>
      <use xlink:href="#DejaVuSans-65" x="121.712891"/>
      <use xlink:href="#DejaVuSans-72" x="183.236328"/>
      <use xlink:href="#DejaVuSans-61" x="224.349609"/>
      <use xlink:href="#DejaVuSans-67" x="285.628906"/>
      <use xlink:href="#DejaVuSans-65" x="349.105469"/>
      <use xlink:href="#DejaVuSans-20" x="410.628906"/>
      <use xlink:href="#DejaVuSans-45" x="442.416016"/>
      <use xlink:href="#DejaVuSans-6e" x="505.599609"/>
      <use xlink:href="#DejaVuSans-65" x="568.978516"/>
      <use xlink:href="#DejaVuSans-72" x="630.501953"/>
      <use xlink:href="#DejaVuSans-67" x="669.865234"/>
      <use xlink:href="#DejaVuSans-79" x="733.341797"/>
     </g>
    </g>
   </g>
   <g id="line2d_18">
    <path d="M 69.218182 175.896 
L 70.747647 189.408343 
L 72.277113 180.400114 
L 73.806578 175.585371 
L 75.336044 182.4192 
L 76.865509 175.274743 
L 78.394975 179.312914 
L 79.92444 177.293829 
L 81.453906 171.5472 
L 82.983371 175.585371 
L 84.512837 159.743314 
L 87.571768 172.323771 
L 89.101233 156.637029 
L 90.630699 156.3264 
L 92.160164 157.724229 
L 93.68963 146.075657 
L 95.219095 149.8032 
L 96.748561 162.538971 
L 98.278026 157.258286 
L 99.807492 148.094743 
L 101.336958 148.405371 
L 102.866423 149.958514 
L 104.395889 149.026629 
L 105.925354 148.560686 
L 107.45482 149.958514 
L 108.984285 150.8904 
L 110.513751 144.988457 
L 112.043216 150.269143 
L 113.572682 148.405371 
L 115.102147 140.794971 
L 116.631613 153.996686 
L 118.161078 141.1056 
L 119.690544 144.988457 
L 121.220009 147.6288 
L 122.749475 149.8032 
L 124.27894 138.309943 
L 125.808406 145.765029 
L 127.337871 153.996686 
L 128.867337 147.784114 
L 130.396802 140.950286 
L 131.926268 155.549829 
L 133.455733 142.658743 
L 134.985199 147.162857 
L 136.514664 148.094743 
L 138.04413 147.473486 
L 139.573595 144.833143 
L 141.103061 145.920343 
L 142.632526 135.048343 
L 144.161992 134.427086 
L 145.691457 138.775886 
L 147.220923 144.211886 
L 148.750388 142.814057 
L 150.279854 150.735086 
L 151.809319 140.794971 
L 153.338785 152.132914 
L 154.86825 155.705143 
L 156.397716 142.658743 
L 157.927181 156.015771 
L 159.456647 136.290857 
L 160.986112 141.726857 
L 162.515578 141.416229 
L 164.045043 147.6288 
L 165.574509 146.386286 
L 167.103974 139.397143 
L 168.63344 145.4544 
L 170.162905 136.601486 
L 171.692371 141.1056 
L 173.221836 133.961143 
L 174.751302 142.503429 
L 176.280767 143.901257 
L 177.810233 140.329029 
L 179.339698 134.116457 
L 180.869164 135.6696 
L 182.39863 139.086514 
L 183.928095 134.427086 
L 185.457561 131.631429 
L 186.987026 134.427086 
L 188.516492 132.252686 
L 190.045957 132.563314 
L 191.575423 133.650514 
L 193.104888 135.824914 
L 194.634354 133.4952 
L 196.163819 132.252686 
L 197.693285 137.999314 
L 199.22275 137.067429 
L 200.752216 139.241829 
L 202.281681 124.952914 
L 203.811147 129.457029 
L 205.340612 125.418857 
L 206.870078 130.544229 
L 208.399543 133.650514 
L 209.929009 136.446171 
L 211.458474 128.835771 
L 212.98794 129.301714 
L 214.517405 141.882171 
L 216.046871 127.903886 
L 217.576336 134.116457 
L 219.105802 122.933829 
L 220.635267 134.116457 
L 222.164733 136.912114 
L 223.694198 123.244457 
L 225.223664 122.157257 
L 226.753129 125.729486 
L 228.282595 138.9312 
L 229.81206 130.2336 
L 231.341526 137.688686 
L 232.870991 119.672229 
L 234.400457 135.824914 
L 235.929922 131.165486 
L 237.459388 135.358971 
L 238.988853 127.127314 
L 240.518319 133.339886 
L 242.047784 142.037486 
L 243.57725 138.309943 
L 245.106715 128.525143 
L 246.636181 126.972 
L 248.165646 126.040114 
L 249.695112 127.437943 
L 251.224577 133.650514 
L 252.754043 128.991086 
L 254.283508 133.339886 
L 255.812974 126.661371 
L 257.342439 127.748571 
L 258.871905 126.506057 
L 260.40137 123.555086 
L 261.930836 122.933829 
L 263.460302 124.486971 
L 264.989767 126.506057 
L 266.519233 115.944686 
L 268.048698 120.138171 
L 269.578164 129.767657 
L 271.107629 134.427086 
L 272.637095 129.301714 
L 274.16656 130.699543 
L 275.696026 119.672229 
L 277.225491 113.9256 
L 278.754957 123.244457 
L 280.284422 124.331657 
L 281.813888 125.108229 
L 283.343353 115.323429 
L 284.872819 119.982857 
L 286.402284 112.217143 
L 287.93175 123.865714 
L 289.461215 125.574171 
L 290.990681 118.2744 
L 292.520146 116.1 
L 294.049612 128.214514 
L 295.579077 117.963771 
L 297.108543 110.198057 
L 298.638008 117.342514 
L 300.167474 113.304343 
L 301.696939 114.391543 
L 303.226405 117.1872 
L 304.75587 125.8848 
L 307.814801 111.440571 
L 309.344267 116.1 
L 310.873732 118.740343 
L 312.403198 118.2744 
L 313.932663 125.729486 
L 315.462129 115.789371 
L 316.991594 124.331657 
L 318.52106 111.7512 
L 320.050525 124.952914 
L 321.579991 118.429714 
L 323.109456 117.653143 
L 324.638922 120.604114 
L 326.168387 114.391543 
L 327.697853 126.350743 
L 329.227318 117.497829 
L 330.756784 110.198057 
L 332.286249 107.868343 
L 333.815715 111.7512 
L 335.34518 113.9256 
L 336.874646 114.236229 
L 338.404111 111.7512 
L 339.933577 122.467886 
L 341.463042 122.467886 
L 342.992508 115.0128 
L 344.521974 116.255314 
L 346.051439 121.691314 
L 347.580905 119.672229 
L 349.11037 110.819314 
L 350.639836 116.255314 
L 352.169301 117.342514 
L 353.698767 113.614971 
L 355.228232 115.323429 
L 356.757698 106.625829 
L 358.287163 115.0128 
L 359.816629 103.985486 
L 361.346094 108.023657 
L 362.87556 114.546857 
L 364.405025 115.634057 
L 365.934491 114.236229 
L 367.463956 115.789371 
L 368.993422 111.285257 
L 370.522887 116.565943 
L 372.052353 104.451429 
L 373.581818 102.898286 
L 373.581818 102.898286 
" clip-path="url(#pb44906fc1c)" style="fill: none; stroke: #1f77b4; stroke-width: 1.5; stroke-linecap: square"/>
   </g>
   <g id="line2d_19">
    <path d="M 69.218182 184.282971 
L 373.581818 184.282971 
L 373.581818 184.282971 
" clip-path="url(#pb44906fc1c)" style="fill: none; stroke-dasharray: 5.55,2.4; stroke-dashoffset: 0; stroke: #ff7f0e; stroke-width: 1.5"/>
   </g>
   <g id="patch_3">
    <path d="M 54 252 
L 54 34.56 
" style="fill: none; stroke: #000000; stroke-width: 0.8; stroke-linejoin: miter; stroke-linecap: square"/>
   </g>
   <g id="patch_4">
    <path d="M 388.8 252 
L 388.8 34.56 
" style="fill: none; stroke: #000000; stroke-width: 0.8; stroke-linejoin: miter; stroke-linecap: square"/>
   </g>
   <g id="patch_5">
    <path d="M 54 252 
L 388.8 252 
" style="fill: none; stroke: #000000; stroke-width: 0.8; stroke-linejoin: miter; stroke-linecap: square"/>
   </g>
   <g id="patch_6">
    <path d="M 54 34.56 
L 388.8 34.56 
" style="fill: none; stroke: #000000; stroke-width: 0.8; stroke-linejoin: miter; stroke-linecap: square"/>
   </g>
   <g id="text_20">
    <!-- Ladder -->
    <g transform="translate(200.603438 28.56)scale(0.12 -0.12)">
     <defs>
      <path id="DejaVuSans-4c" d="M 628 4666 
L 1259 4666 
L 1259 531 
L 3531 531 
L 3531 0 
L 628 0 
L 628 4666 
z
" transform="scale(0.015625)"/>
      <path id="DejaVuSans-64" d="M 2906 2969 
L 2906 4863 
L 3481 4863 
L 3481 0 
L 2906 0 
L 2906 525 
Q 2725 213 2448 61 
Q 2172 -91 1784 -91 
Q 1150 -91 751 415 
Q 353 922 353 1747 
Q 353 2572 751 3078 
Q 1150 3584 1784 3584 
Q 2172 3584 2448 3432 
Q 2725 3281 2906 2969 
z
M 947 1747 
Q 947 1113 1208 752 
Q 1469 391 1925 391 
Q 2381 391 2643 752 
Q 2906 1113 2906 1747 
Q 2906 2381 2643 2742 
Q 2381 3103 1925 3103 
Q 1469 3103 1208 2742 
Q 947 2381 947 1747 
z
" transform="scale(0.015625)"/>
     </defs>
     <use xlink:href="#DejaVuSans-4c"/>
     <use xlink:href="#DejaVuSans-61" x="55.712891"/>
     <use xlink:href="#DejaVuSans-64" x="116.992188"/>
     <use xlink:href="#DejaVuSans-64" x="180.46875"/>
     <use xlink:href="#DejaVuSans-65" x="243.945312"/>
     <use xlink:href="#DejaVuSans-72" x="305.46875"/>
    </g>
   </g>
   <g id="legend_1">
    <g id="patch_7">
     <path d="M 61 71.91625 
L 176.465625 71.91625 
Q 178.465625 71.91625 178.465625 69.91625 
L 178.465625 41.56 
Q 178.465625 39.56 176.465625 39.56 
L 61 39.56 
Q 59 39.56 59 41.56 
L 59 69.91625 
Q 59 71.91625 61 71.91625 
z
" style="fill: #ffffff; opacity: 0.8; stroke: #cccccc; stroke-linejoin: miter"/>
    </g>
    <g id="line2d_20">
     <path d="M 63 47.658437 
L 73 47.658437 
L 83 47.658437 
" style="fill: none; stroke: #1f77b4; stroke-width: 1.5; stroke-linecap: square"/>
    </g>
    <g id="text_21">
     <!-- training -->
     <g transform="translate(91 51.158437)scale(0.1 -0.1)">
      <use xlink:href="#DejaVuSans-74"/>
      <use xlink:href="#DejaVuSans-72" x="39.208984"/>
      <use xlink:href="#DejaVuSans-61" x="80.322266"/>
      <use xlink:href="#DejaVuSans-69" x="141.601562"/>
      <use xlink:href="#DejaVuSans-6e" x="169.384766"/>
      <use xlink:href="#DejaVuSans-69" x="232.763672"/>
      <use xlink:href="#DejaVuSans-6e" x="260.546875"/>
      <use xlink:href="#DejaVuSans-67" x="323.925781"/>
     </g>
    </g>
    <g id="line2d_21">
     <path d="M 63 62.336562 
L 73 62.336562 
L 83 62.336562 
" style="fill: none; stroke-dasharray: 5.55,2.4; stroke-dashoffset: 0; stroke: #ff7f0e; stroke-width: 1.5"/>
    </g>
    <g id="text_22">
     <!-- transfer learning -->
     <g transform="translate(91 65.836562)scale(0.1 -0.1)">
      <defs>
       <path id="DejaVuSans-73" d="M 2834 3397 
L 2834 2853 
Q 2591 2978 2328 3040 
Q 2066 3103 1784 3103 
Q 1356 3103 1142 2972 
Q 928 2841 928 2578 
Q 928 2378 1081 2264 
Q 1234 2150 1697 2047 
L 1894 2003 
Q 2506 1872 2764 1633 
Q 3022 1394 3022 966 
Q 3022 478 2636 193 
Q 2250 -91 1575 -91 
Q 1294 -91 989 -36 
Q 684 19 347 128 
L 347 722 
Q 666 556 975 473 
Q 1284 391 1588 391 
Q 1994 391 2212 530 
Q 2431 669 2431 922 
Q 2431 1156 2273 1281 
Q 2116 1406 1581 1522 
L 1381 1569 
Q 847 1681 609 1914 
Q 372 2147 372 2553 
Q 372 3047 722 3315 
Q 1072 3584 1716 3584 
Q 2034 3584 2315 3537 
Q 2597 3491 2834 3397 
z
" transform="scale(0.015625)"/>
       <path id="DejaVuSans-66" d="M 2375 4863 
L 2375 4384 
L 1825 4384 
Q 1516 4384 1395 4259 
Q 1275 4134 1275 3809 
L 1275 3500 
L 2222 3500 
L 2222 3053 
L 1275 3053 
L 1275 0 
L 697 0 
L 697 3053 
L 147 3053 
L 147 3500 
L 697 3500 
L 697 3744 
Q 697 4328 969 4595 
Q 1241 4863 1831 4863 
L 2375 4863 
z
" transform="scale(0.015625)"/>
       <path id="DejaVuSans-6c" d="M 603 4863 
L 1178 4863 
L 1178 0 
L 603 0 
L 603 4863 
z
" transform="scale(0.015625)"/>
      </defs>
      <use xlink:href="#DejaVuSans-74"/>
      <use xlink:href="#DejaVuSans-72" x="39.208984"/>
      <use xlink:href="#DejaVuSans-61" x="80.322266"/>
      <use xlink:href="#DejaVuSans-6e" x="141.601562"/>
      <use xlink:href="#DejaVuSans-73" x="204.980469"/>
      <use xlink:href="#DejaVuSans-66" x="257.080078"/>
      <use xlink:href="#DejaVuSans-65" x="292.285156"/>
      <use xlink:href="#DejaVuSans-72" x="353.808594"/>
      <use xlink:href="#DejaVuSans-20" x="394.921875"/>
      <use xlink:href="#DejaVuSans-6c" x="426.708984"/>
      <use xlink:href="#DejaVuSans-65" x="454.492188"/>
      <use xlink:href="#DejaVuSans-61" x="516.015625"/>
      <use xlink:href="#DejaVuSans-72" x="577.294922"/>
      <use xlink:href="#DejaVuSans-6e" x="616.658203"/>
      <use xlink:href="#DejaVuSans-69" x="680.037109"/>
      <use xlink:href="#DejaVuSans-6e" x="707.820312"/>
      <use xlink:href="#DejaVuSans-67" x="771.199219"/>
     </g>
    </g>
   </g>
  </g>
 </g>
 <defs>
  <clipPath id="pb44906fc1c">
   <rect x="54" y="34.56" width="334.8" height="217.44"/>
  </clipPath>
 </defs>
</svg>
