<?xml version="1.0" encoding="utf-8" standalone="no"?>
<!DOCTYPE svg PUBLIC "-//W3C//DTD SVG 1.1//EN"
  "http://www.w3.org/Graphics/SVG/1.1/DTD/svg11.dtd">
<svg xmlns:xlink="http://www.w3.org/1999/xlink" width="432pt" height="288pt" viewBox="0 0 432 288" xmlns="http://www.w3.org/2000/svg" version="1.1">
 <metadata>
  <rdf:RDF xmlns:dc="http://purl.org/dc/elements/1.1/" xmlns:cc="http://creativecommons.org/ns#" xmlns:rdf="http://www.w3.org/1999/02/22-rdf-syntax-ns#">
   <cc:Work>
    <dc:type rdf:resource="http://purl.org/dc/dcmitype/StillImage"/>
    <dc:date>2023-06-05T11:53:01.947584</dc:date>
    <dc:format>image/svg+xml</dc:format>
    <dc:creator>
     <cc:Agent>
      <dc:title>Matplotlib v3.5.2, https://matplotlib.org/</dc:title>
     </cc:Agent>
    </dc:creator>
   </cc:Work>
  </rdf:RDF>
 </metadata>
 <defs>
  <style type="text/css">*{stroke-linejoin: round; stroke-linecap: butt}</style>
 </defs>
 <g id="figure_1">
  <g id="patch_1">
   <path d="M 0 288 
L 432 288 
L 432 0 
L 0 0 
L 0 288 
z
" style="fill: none"/>
  </g>
  <g id="axes_1">
   <g id="patch_2">
    <path d="M 54 252 
L 388.8 252 
L 388.8 34.56 
L 54 34.56 
z
" style="fill: #ffffff"/>
   </g>
   <g id="PolyCollection_1">
    <path d="M 69.218182 216.013602 
L 69.218182 215.29983 
L 70.747647 211.218384 
L 72.277113 208.574847 
L 73.806578 205.710582 
L 75.336044 203.88294 
L 76.865509 203.749858 
L 78.394975 202.874123 
L 79.92444 201.316408 
L 81.453906 199.080941 
L 82.983371 198.975248 
L 84.512837 197.406695 
L 86.042302 195.561906 
L 87.571768 195.707139 
L 89.101233 194.511887 
L 90.630699 193.259731 
L 92.160164 190.747169 
L 93.68963 191.548231 
L 95.219095 189.530509 
L 96.748561 189.902117 
L 98.278026 190.514706 
L 99.807492 189.28732 
L 101.336958 190.310207 
L 102.866423 188.66013 
L 104.395889 189.525343 
L 105.925354 188.530237 
L 107.45482 188.840635 
L 108.984285 188.597416 
L 110.513751 188.539882 
L 112.043216 187.417015 
L 113.572682 187.849049 
L 115.102147 188.176373 
L 116.631613 189.384463 
L 118.161078 187.432134 
L 119.690544 189.488547 
L 121.220009 188.931802 
L 122.749475 187.258047 
L 124.27894 187.676622 
L 125.808406 187.643494 
L 127.337871 187.191463 
L 128.867337 186.93194 
L 130.396802 185.883707 
L 131.926268 186.862914 
L 133.455733 186.727946 
L 134.985199 185.195636 
L 136.514664 184.784098 
L 138.04413 186.197635 
L 139.573595 186.834528 
L 141.103061 185.726124 
L 142.632526 185.262483 
L 144.161992 183.728364 
L 145.691457 185.058861 
L 147.220923 185.82664 
L 148.750388 186.149933 
L 150.279854 184.963607 
L 151.809319 183.878112 
L 153.338785 185.982237 
L 154.86825 184.536635 
L 156.397716 184.354086 
L 157.927181 185.240063 
L 159.456647 185.192123 
L 160.986112 186.406405 
L 162.515578 186.010955 
L 164.045043 185.343818 
L 165.574509 184.038887 
L 167.103974 185.745331 
L 168.63344 183.669255 
L 170.162905 183.61135 
L 171.692371 183.610699 
L 173.221836 184.275902 
L 174.751302 183.938468 
L 176.280767 182.701882 
L 177.810233 182.88767 
L 179.339698 182.021559 
L 180.869164 183.294272 
L 182.39863 182.952602 
L 183.928095 183.515958 
L 185.457561 181.842519 
L 186.987026 183.25294 
L 188.516492 181.211039 
L 190.045957 180.212513 
L 191.575423 180.16416 
L 193.104888 179.812583 
L 194.634354 180.754302 
L 196.163819 181.049528 
L 197.693285 179.583822 
L 199.22275 180.488798 
L 200.752216 179.685455 
L 202.281681 180.659901 
L 203.811147 179.278166 
L 205.340612 182.315356 
L 206.870078 182.380111 
L 208.399543 182.706505 
L 209.929009 181.953508 
L 211.458474 181.859103 
L 212.98794 184.952608 
L 214.517405 185.462055 
L 216.046871 184.733665 
L 217.576336 181.642789 
L 219.105802 185.498257 
L 220.635267 184.307771 
L 222.164733 183.387114 
L 223.694198 184.266057 
L 225.223664 183.196908 
L 226.753129 182.881757 
L 228.282595 182.321325 
L 229.81206 182.179071 
L 231.341526 182.762547 
L 232.870991 182.610478 
L 234.400457 183.79082 
L 235.929922 181.451075 
L 237.459388 180.821915 
L 238.988853 181.281232 
L 240.518319 179.654787 
L 242.047784 182.356781 
L 243.57725 182.182477 
L 245.106715 181.693259 
L 246.636181 181.904507 
L 248.165646 180.929616 
L 249.695112 182.236883 
L 251.224577 180.065724 
L 252.754043 181.287892 
L 254.283508 183.106602 
L 255.812974 180.399319 
L 257.342439 180.884014 
L 258.871905 177.486793 
L 260.40137 178.487345 
L 261.930836 181.07068 
L 263.460302 179.767618 
L 264.989767 179.044231 
L 266.519233 178.40533 
L 268.048698 181.094357 
L 269.578164 179.102681 
L 271.107629 180.656737 
L 272.637095 178.612029 
L 274.16656 179.739614 
L 275.696026 179.202775 
L 277.225491 178.951265 
L 278.754957 178.908237 
L 280.284422 179.058786 
L 281.813888 180.576171 
L 283.343353 178.11216 
L 284.872819 178.678247 
L 286.402284 178.760437 
L 287.93175 178.224063 
L 289.461215 179.476345 
L 290.990681 180.08787 
L 292.520146 177.680511 
L 294.049612 177.787534 
L 295.579077 175.811545 
L 297.108543 177.310298 
L 298.638008 177.247634 
L 300.167474 179.204691 
L 301.696939 176.683672 
L 303.226405 180.262552 
L 304.75587 181.740867 
L 306.285336 178.932862 
L 307.814801 180.492654 
L 309.344267 180.09615 
L 310.873732 179.14832 
L 312.403198 179.00853 
L 313.932663 176.510913 
L 315.462129 178.866865 
L 316.991594 179.523137 
L 318.52106 178.474393 
L 320.050525 179.191745 
L 321.579991 178.307381 
L 323.109456 177.650427 
L 324.638922 176.813735 
L 326.168387 179.789255 
L 327.697853 178.469298 
L 329.227318 179.420549 
L 330.756784 178.644158 
L 332.286249 178.727709 
L 333.815715 177.564388 
L 335.34518 177.728509 
L 336.874646 175.676072 
L 338.404111 177.632469 
L 339.933577 176.754803 
L 341.463042 176.780726 
L 342.992508 178.013423 
L 344.521974 178.434996 
L 346.051439 177.996142 
L 347.580905 178.304169 
L 349.11037 177.638469 
L 350.639836 177.018501 
L 352.169301 176.824862 
L 353.698767 175.464963 
L 355.228232 176.097408 
L 356.757698 178.312695 
L 358.287163 177.10437 
L 359.816629 177.414032 
L 361.346094 176.525787 
L 362.87556 176.439959 
L 364.405025 179.161935 
L 365.934491 177.819156 
L 367.463956 177.395129 
L 368.993422 179.551977 
L 370.522887 179.383686 
L 372.052353 175.680525 
L 373.581818 179.232083 
L 373.581818 186.16245 
L 373.581818 186.16245 
L 372.052353 185.657228 
L 370.522887 186.606601 
L 368.993422 187.452798 
L 367.463956 189.353486 
L 365.934491 186.731085 
L 364.405025 189.527997 
L 362.87556 187.086156 
L 361.346094 187.124178 
L 359.816629 187.100179 
L 358.287163 185.749495 
L 356.757698 183.854296 
L 355.228232 184.245343 
L 353.698767 184.931999 
L 352.169301 184.71963 
L 350.639836 186.217928 
L 349.11037 186.372225 
L 347.580905 186.427904 
L 346.051439 185.560482 
L 344.521974 185.159495 
L 342.992508 186.933074 
L 341.463042 185.353749 
L 339.933577 186.178319 
L 338.404111 186.88536 
L 336.874646 187.033077 
L 335.34518 184.713624 
L 333.815715 186.332464 
L 332.286249 186.479584 
L 330.756784 184.131642 
L 329.227318 185.340296 
L 327.697853 186.247904 
L 326.168387 185.885651 
L 324.638922 186.41267 
L 323.109456 187.476524 
L 321.579991 185.86626 
L 320.050525 186.365869 
L 318.52106 187.223183 
L 316.991594 185.442665 
L 315.462129 185.339029 
L 313.932663 184.68276 
L 312.403198 184.81845 
L 310.873732 184.51697 
L 309.344267 183.926264 
L 307.814801 184.866833 
L 306.285336 184.615882 
L 304.75587 186.602986 
L 303.226405 185.768174 
L 301.696939 187.171992 
L 300.167474 186.850595 
L 298.638008 185.837374 
L 297.108543 185.535796 
L 295.579077 185.460954 
L 294.049612 185.679808 
L 292.520146 186.202054 
L 290.990681 184.877796 
L 289.461215 186.811482 
L 287.93175 187.544092 
L 286.402284 188.006063 
L 284.872819 185.643406 
L 283.343353 185.770284 
L 281.813888 185.294003 
L 280.284422 188.331307 
L 278.754957 185.576032 
L 277.225491 187.971034 
L 275.696026 187.326283 
L 274.16656 189.096441 
L 272.637095 187.307317 
L 271.107629 187.615751 
L 269.578164 186.125002 
L 268.048698 188.374998 
L 266.519233 187.001423 
L 264.989767 187.95015 
L 263.460302 187.926531 
L 261.930836 188.248507 
L 260.40137 186.392018 
L 258.871905 186.512552 
L 257.342439 185.264275 
L 255.812974 185.433435 
L 254.283508 186.136818 
L 252.754043 184.010814 
L 251.224577 184.556978 
L 249.695112 185.514151 
L 248.165646 184.463216 
L 246.636181 184.921951 
L 245.106715 184.043641 
L 243.57725 184.967532 
L 242.047784 184.165429 
L 240.518319 183.870659 
L 238.988853 185.670749 
L 237.459388 187.188416 
L 235.929922 185.220331 
L 234.400457 186.472777 
L 232.870991 186.395955 
L 231.341526 185.744691 
L 229.81206 185.567933 
L 228.282595 187.072195 
L 226.753129 185.683623 
L 225.223664 187.949114 
L 223.694198 188.389131 
L 222.164733 186.04489 
L 220.635267 189.010789 
L 219.105802 188.035091 
L 217.576336 187.496916 
L 216.046871 188.559615 
L 214.517405 187.057404 
L 212.98794 189.042272 
L 211.458474 187.798857 
L 209.929009 187.978067 
L 208.399543 189.111921 
L 206.870078 186.629663 
L 205.340612 184.667805 
L 203.811147 183.582902 
L 202.281681 184.904077 
L 200.752216 183.212994 
L 199.22275 184.643425 
L 197.693285 185.117927 
L 196.163819 184.3195 
L 194.634354 184.531386 
L 193.104888 184.672113 
L 191.575423 185.155036 
L 190.045957 184.262554 
L 188.516492 185.34252 
L 186.987026 185.342184 
L 185.457561 184.407326 
L 183.928095 185.866821 
L 182.39863 185.749301 
L 180.869164 186.711729 
L 179.339698 183.752895 
L 177.810233 185.078771 
L 176.280767 185.33291 
L 174.751302 187.161172 
L 173.221836 186.954218 
L 171.692371 186.236497 
L 170.162905 187.124421 
L 168.63344 187.753691 
L 167.103974 188.332379 
L 165.574509 187.21716 
L 164.045043 187.733806 
L 162.515578 188.23008 
L 160.986112 189.374938 
L 159.456647 188.585641 
L 157.927181 188.680665 
L 156.397716 188.903039 
L 154.86825 188.584905 
L 153.338785 186.851961 
L 151.809319 188.768141 
L 150.279854 187.707093 
L 148.750388 187.965008 
L 147.220923 187.335017 
L 145.691457 190.675985 
L 144.161992 188.617262 
L 142.632526 188.702803 
L 141.103061 187.555434 
L 139.573595 188.34488 
L 138.04413 188.931731 
L 136.514664 189.137775 
L 134.985199 190.431162 
L 133.455733 189.666566 
L 131.926268 190.852022 
L 130.396802 190.654394 
L 128.867337 191.148016 
L 127.337871 190.88579 
L 125.808406 192.429659 
L 124.27894 192.197177 
L 122.749475 191.671546 
L 121.220009 193.446288 
L 119.690544 192.962364 
L 118.161078 192.188117 
L 116.631613 193.576548 
L 115.102147 191.945891 
L 113.572682 192.399639 
L 112.043216 192.513034 
L 110.513751 191.554025 
L 108.984285 193.507633 
L 107.45482 191.063723 
L 105.925354 192.509717 
L 104.395889 193.533011 
L 102.866423 193.096163 
L 101.336958 193.803396 
L 99.807492 192.376381 
L 98.278026 195.004639 
L 96.748561 194.589461 
L 95.219095 196.18933 
L 93.68963 195.505889 
L 92.160164 195.86875 
L 90.630699 196.851194 
L 89.101233 196.83688 
L 87.571768 196.264602 
L 86.042302 198.988505 
L 84.512837 199.334673 
L 82.983371 200.482072 
L 81.453906 201.183372 
L 79.92444 202.380924 
L 78.394975 203.621841 
L 76.865509 204.456464 
L 75.336044 205.157679 
L 73.806578 207.021501 
L 72.277113 209.9758 
L 70.747647 213.836788 
L 69.218182 216.013602 
z
" clip-path="url(#pe9c17e320f)" style="fill: #1f77b4; fill-opacity: 0.5"/>
   </g>
   <g id="matplotlib.axis_1">
    <g id="xtick_1">
     <g id="line2d_1">
      <defs>
       <path id="mb0fe64ae70" d="M 0 0 
L 0 3.5 
" style="stroke: #000000; stroke-width: 0.8"/>
      </defs>
      <g>
       <use xlink:href="#mb0fe64ae70" x="69.218182" y="252" style="stroke: #000000; stroke-width: 0.8"/>
      </g>
     </g>
     <g id="text_1">
      <!-- 0 -->
      <g transform="translate(66.036932 266.598437)scale(0.1 -0.1)">
       <defs>
        <path id="DejaVuSans-30" d="M 2034 4250 
Q 1547 4250 1301 3770 
Q 1056 3291 1056 2328 
Q 1056 1369 1301 889 
Q 1547 409 2034 409 
Q 2525 409 2770 889 
Q 3016 1369 3016 2328 
Q 3016 3291 2770 3770 
Q 2525 4250 2034 4250 
z
M 2034 4750 
Q 2819 4750 3233 4129 
Q 3647 3509 3647 2328 
Q 3647 1150 3233 529 
Q 2819 -91 2034 -91 
Q 1250 -91 836 529 
Q 422 1150 422 2328 
Q 422 3509 836 4129 
Q 1250 4750 2034 4750 
z
" transform="scale(0.015625)"/>
       </defs>
       <use xlink:href="#DejaVuSans-30"/>
      </g>
     </g>
    </g>
    <g id="xtick_2">
     <g id="line2d_2">
      <g>
       <use xlink:href="#mb0fe64ae70" x="107.45482" y="252" style="stroke: #000000; stroke-width: 0.8"/>
      </g>
     </g>
     <g id="text_2">
      <!-- 25 -->
      <g transform="translate(101.09232 266.598437)scale(0.1 -0.1)">
       <defs>
        <path id="DejaVuSans-32" d="M 1228 531 
L 3431 531 
L 3431 0 
L 469 0 
L 469 531 
Q 828 903 1448 1529 
Q 2069 2156 2228 2338 
Q 2531 2678 2651 2914 
Q 2772 3150 2772 3378 
Q 2772 3750 2511 3984 
Q 2250 4219 1831 4219 
Q 1534 4219 1204 4116 
Q 875 4013 500 3803 
L 500 4441 
Q 881 4594 1212 4672 
Q 1544 4750 1819 4750 
Q 2544 4750 2975 4387 
Q 3406 4025 3406 3419 
Q 3406 3131 3298 2873 
Q 3191 2616 2906 2266 
Q 2828 2175 2409 1742 
Q 1991 1309 1228 531 
z
" transform="scale(0.015625)"/>
        <path id="DejaVuSans-35" d="M 691 4666 
L 3169 4666 
L 3169 4134 
L 1269 4134 
L 1269 2991 
Q 1406 3038 1543 3061 
Q 1681 3084 1819 3084 
Q 2600 3084 3056 2656 
Q 3513 2228 3513 1497 
Q 3513 744 3044 326 
Q 2575 -91 1722 -91 
Q 1428 -91 1123 -41 
Q 819 9 494 109 
L 494 744 
Q 775 591 1075 516 
Q 1375 441 1709 441 
Q 2250 441 2565 725 
Q 2881 1009 2881 1497 
Q 2881 1984 2565 2268 
Q 2250 2553 1709 2553 
Q 1456 2553 1204 2497 
Q 953 2441 691 2322 
L 691 4666 
z
" transform="scale(0.015625)"/>
       </defs>
       <use xlink:href="#DejaVuSans-32"/>
       <use xlink:href="#DejaVuSans-35" x="63.623047"/>
      </g>
     </g>
    </g>
    <g id="xtick_3">
     <g id="line2d_3">
      <g>
       <use xlink:href="#mb0fe64ae70" x="145.691457" y="252" style="stroke: #000000; stroke-width: 0.8"/>
      </g>
     </g>
     <g id="text_3">
      <!-- 50 -->
      <g transform="translate(139.328957 266.598437)scale(0.1 -0.1)">
       <use xlink:href="#DejaVuSans-35"/>
       <use xlink:href="#DejaVuSans-30" x="63.623047"/>
      </g>
     </g>
    </g>
    <g id="xtick_4">
     <g id="line2d_4">
      <g>
       <use xlink:href="#mb0fe64ae70" x="183.928095" y="252" style="stroke: #000000; stroke-width: 0.8"/>
      </g>
     </g>
     <g id="text_4">
      <!-- 75 -->
      <g transform="translate(177.565595 266.598437)scale(0.1 -0.1)">
       <defs>
        <path id="DejaVuSans-37" d="M 525 4666 
L 3525 4666 
L 3525 4397 
L 1831 0 
L 1172 0 
L 2766 4134 
L 525 4134 
L 525 4666 
z
" transform="scale(0.015625)"/>
       </defs>
       <use xlink:href="#DejaVuSans-37"/>
       <use xlink:href="#DejaVuSans-35" x="63.623047"/>
      </g>
     </g>
    </g>
    <g id="xtick_5">
     <g id="line2d_5">
      <g>
       <use xlink:href="#mb0fe64ae70" x="222.164733" y="252" style="stroke: #000000; stroke-width: 0.8"/>
      </g>
     </g>
     <g id="text_5">
      <!-- 100 -->
      <g transform="translate(212.620983 266.598437)scale(0.1 -0.1)">
       <defs>
        <path id="DejaVuSans-31" d="M 794 531 
L 1825 531 
L 1825 4091 
L 703 3866 
L 703 4441 
L 1819 4666 
L 2450 4666 
L 2450 531 
L 3481 531 
L 3481 0 
L 794 0 
L 794 531 
z
" transform="scale(0.015625)"/>
       </defs>
       <use xlink:href="#DejaVuSans-31"/>
       <use xlink:href="#DejaVuSans-30" x="63.623047"/>
       <use xlink:href="#DejaVuSans-30" x="127.246094"/>
      </g>
     </g>
    </g>
    <g id="xtick_6">
     <g id="line2d_6">
      <g>
       <use xlink:href="#mb0fe64ae70" x="260.40137" y="252" style="stroke: #000000; stroke-width: 0.8"/>
      </g>
     </g>
     <g id="text_6">
      <!-- 125 -->
      <g transform="translate(250.85762 266.598437)scale(0.1 -0.1)">
       <use xlink:href="#DejaVuSans-31"/>
       <use xlink:href="#DejaVuSans-32" x="63.623047"/>
       <use xlink:href="#DejaVuSans-35" x="127.246094"/>
      </g>
     </g>
    </g>
    <g id="xtick_7">
     <g id="line2d_7">
      <g>
       <use xlink:href="#mb0fe64ae70" x="298.638008" y="252" style="stroke: #000000; stroke-width: 0.8"/>
      </g>
     </g>
     <g id="text_7">
      <!-- 150 -->
      <g transform="translate(289.094258 266.598437)scale(0.1 -0.1)">
       <use xlink:href="#DejaVuSans-31"/>
       <use xlink:href="#DejaVuSans-35" x="63.623047"/>
       <use xlink:href="#DejaVuSans-30" x="127.246094"/>
      </g>
     </g>
    </g>
    <g id="xtick_8">
     <g id="line2d_8">
      <g>
       <use xlink:href="#mb0fe64ae70" x="336.874646" y="252" style="stroke: #000000; stroke-width: 0.8"/>
      </g>
     </g>
     <g id="text_8">
      <!-- 175 -->
      <g transform="translate(327.330896 266.598437)scale(0.1 -0.1)">
       <use xlink:href="#DejaVuSans-31"/>
       <use xlink:href="#DejaVuSans-37" x="63.623047"/>
       <use xlink:href="#DejaVuSans-35" x="127.246094"/>
      </g>
     </g>
    </g>
    <g id="xtick_9">
     <g id="line2d_9">
      <g>
       <use xlink:href="#mb0fe64ae70" x="375.111284" y="252" style="stroke: #000000; stroke-width: 0.8"/>
      </g>
     </g>
     <g id="text_9">
      <!-- 200 -->
      <g transform="translate(365.567534 266.598437)scale(0.1 -0.1)">
       <use xlink:href="#DejaVuSans-32"/>
       <use xlink:href="#DejaVuSans-30" x="63.623047"/>
       <use xlink:href="#DejaVuSans-30" x="127.246094"/>
      </g>
     </g>
    </g>
    <g id="text_10">
     <!-- Generation -->
     <g transform="translate(193.507031 280.276563)scale(0.1 -0.1)">
      <defs>
       <path id="DejaVuSans-47" d="M 3809 666 
L 3809 1919 
L 2778 1919 
L 2778 2438 
L 4434 2438 
L 4434 434 
Q 4069 175 3628 42 
Q 3188 -91 2688 -91 
Q 1594 -91 976 548 
Q 359 1188 359 2328 
Q 359 3472 976 4111 
Q 1594 4750 2688 4750 
Q 3144 4750 3555 4637 
Q 3966 4525 4313 4306 
L 4313 3634 
Q 3963 3931 3569 4081 
Q 3175 4231 2741 4231 
Q 1884 4231 1454 3753 
Q 1025 3275 1025 2328 
Q 1025 1384 1454 906 
Q 1884 428 2741 428 
Q 3075 428 3337 486 
Q 3600 544 3809 666 
z
" transform="scale(0.015625)"/>
       <path id="DejaVuSans-65" d="M 3597 1894 
L 3597 1613 
L 953 1613 
Q 991 1019 1311 708 
Q 1631 397 2203 397 
Q 2534 397 2845 478 
Q 3156 559 3463 722 
L 3463 178 
Q 3153 47 2828 -22 
Q 2503 -91 2169 -91 
Q 1331 -91 842 396 
Q 353 884 353 1716 
Q 353 2575 817 3079 
Q 1281 3584 2069 3584 
Q 2775 3584 3186 3129 
Q 3597 2675 3597 1894 
z
M 3022 2063 
Q 3016 2534 2758 2815 
Q 2500 3097 2075 3097 
Q 1594 3097 1305 2825 
Q 1016 2553 972 2059 
L 3022 2063 
z
" transform="scale(0.015625)"/>
       <path id="DejaVuSans-6e" d="M 3513 2113 
L 3513 0 
L 2938 0 
L 2938 2094 
Q 2938 2591 2744 2837 
Q 2550 3084 2163 3084 
Q 1697 3084 1428 2787 
Q 1159 2491 1159 1978 
L 1159 0 
L 581 0 
L 581 3500 
L 1159 3500 
L 1159 2956 
Q 1366 3272 1645 3428 
Q 1925 3584 2291 3584 
Q 2894 3584 3203 3211 
Q 3513 2838 3513 2113 
z
" transform="scale(0.015625)"/>
       <path id="DejaVuSans-72" d="M 2631 2963 
Q 2534 3019 2420 3045 
Q 2306 3072 2169 3072 
Q 1681 3072 1420 2755 
Q 1159 2438 1159 1844 
L 1159 0 
L 581 0 
L 581 3500 
L 1159 3500 
L 1159 2956 
Q 1341 3275 1631 3429 
Q 1922 3584 2338 3584 
Q 2397 3584 2469 3576 
Q 2541 3569 2628 3553 
L 2631 2963 
z
" transform="scale(0.015625)"/>
       <path id="DejaVuSans-61" d="M 2194 1759 
Q 1497 1759 1228 1600 
Q 959 1441 959 1056 
Q 959 750 1161 570 
Q 1363 391 1709 391 
Q 2188 391 2477 730 
Q 2766 1069 2766 1631 
L 2766 1759 
L 2194 1759 
z
M 3341 1997 
L 3341 0 
L 2766 0 
L 2766 531 
Q 2569 213 2275 61 
Q 1981 -91 1556 -91 
Q 1019 -91 701 211 
Q 384 513 384 1019 
Q 384 1609 779 1909 
Q 1175 2209 1959 2209 
L 2766 2209 
L 2766 2266 
Q 2766 2663 2505 2880 
Q 2244 3097 1772 3097 
Q 1472 3097 1187 3025 
Q 903 2953 641 2809 
L 641 3341 
Q 956 3463 1253 3523 
Q 1550 3584 1831 3584 
Q 2591 3584 2966 3190 
Q 3341 2797 3341 1997 
z
" transform="scale(0.015625)"/>
       <path id="DejaVuSans-74" d="M 1172 4494 
L 1172 3500 
L 2356 3500 
L 2356 3053 
L 1172 3053 
L 1172 1153 
Q 1172 725 1289 603 
Q 1406 481 1766 481 
L 2356 481 
L 2356 0 
L 1766 0 
Q 1100 0 847 248 
Q 594 497 594 1153 
L 594 3053 
L 172 3053 
L 172 3500 
L 594 3500 
L 594 4494 
L 1172 4494 
z
" transform="scale(0.015625)"/>
       <path id="DejaVuSans-69" d="M 603 3500 
L 1178 3500 
L 1178 0 
L 603 0 
L 603 3500 
z
M 603 4863 
L 1178 4863 
L 1178 4134 
L 603 4134 
L 603 4863 
z
" transform="scale(0.015625)"/>
       <path id="DejaVuSans-6f" d="M 1959 3097 
Q 1497 3097 1228 2736 
Q 959 2375 959 1747 
Q 959 1119 1226 758 
Q 1494 397 1959 397 
Q 2419 397 2687 759 
Q 2956 1122 2956 1747 
Q 2956 2369 2687 2733 
Q 2419 3097 1959 3097 
z
M 1959 3584 
Q 2709 3584 3137 3096 
Q 3566 2609 3566 1747 
Q 3566 888 3137 398 
Q 2709 -91 1959 -91 
Q 1206 -91 779 398 
Q 353 888 353 1747 
Q 353 2609 779 3096 
Q 1206 3584 1959 3584 
z
" transform="scale(0.015625)"/>
      </defs>
      <use xlink:href="#DejaVuSans-47"/>
      <use xlink:href="#DejaVuSans-65" x="77.490234"/>
      <use xlink:href="#DejaVuSans-6e" x="139.013672"/>
      <use xlink:href="#DejaVuSans-65" x="202.392578"/>
      <use xlink:href="#DejaVuSans-72" x="263.916016"/>
      <use xlink:href="#DejaVuSans-61" x="305.029297"/>
      <use xlink:href="#DejaVuSans-74" x="366.308594"/>
      <use xlink:href="#DejaVuSans-69" x="405.517578"/>
      <use xlink:href="#DejaVuSans-6f" x="433.300781"/>
      <use xlink:href="#DejaVuSans-6e" x="494.482422"/>
     </g>
    </g>
   </g>
   <g id="matplotlib.axis_2">
    <g id="ytick_1">
     <g id="line2d_10">
      <defs>
       <path id="mc4a3495382" d="M 0 0 
L -3.5 0 
" style="stroke: #000000; stroke-width: 0.8"/>
      </defs>
      <g>
       <use xlink:href="#mc4a3495382" x="54" y="252" style="stroke: #000000; stroke-width: 0.8"/>
      </g>
     </g>
     <g id="text_11">
      <!-- 7.0 -->
      <g transform="translate(31.096875 255.799219)scale(0.1 -0.1)">
       <defs>
        <path id="DejaVuSans-2e" d="M 684 794 
L 1344 794 
L 1344 0 
L 684 0 
L 684 794 
z
" transform="scale(0.015625)"/>
       </defs>
       <use xlink:href="#DejaVuSans-37"/>
       <use xlink:href="#DejaVuSans-2e" x="63.623047"/>
       <use xlink:href="#DejaVuSans-30" x="95.410156"/>
      </g>
     </g>
    </g>
    <g id="ytick_2">
     <g id="line2d_11">
      <g>
       <use xlink:href="#mc4a3495382" x="54" y="215.76" style="stroke: #000000; stroke-width: 0.8"/>
      </g>
     </g>
     <g id="text_12">
      <!-- 7.5 -->
      <g transform="translate(31.096875 219.559219)scale(0.1 -0.1)">
       <use xlink:href="#DejaVuSans-37"/>
       <use xlink:href="#DejaVuSans-2e" x="63.623047"/>
       <use xlink:href="#DejaVuSans-35" x="95.410156"/>
      </g>
     </g>
    </g>
    <g id="ytick_3">
     <g id="line2d_12">
      <g>
       <use xlink:href="#mc4a3495382" x="54" y="179.52" style="stroke: #000000; stroke-width: 0.8"/>
      </g>
     </g>
     <g id="text_13">
      <!-- 8.0 -->
      <g transform="translate(31.096875 183.319219)scale(0.1 -0.1)">
       <defs>
        <path id="DejaVuSans-38" d="M 2034 2216 
Q 1584 2216 1326 1975 
Q 1069 1734 1069 1313 
Q 1069 891 1326 650 
Q 1584 409 2034 409 
Q 2484 409 2743 651 
Q 3003 894 3003 1313 
Q 3003 1734 2745 1975 
Q 2488 2216 2034 2216 
z
M 1403 2484 
Q 997 2584 770 2862 
Q 544 3141 544 3541 
Q 544 4100 942 4425 
Q 1341 4750 2034 4750 
Q 2731 4750 3128 4425 
Q 3525 4100 3525 3541 
Q 3525 3141 3298 2862 
Q 3072 2584 2669 2484 
Q 3125 2378 3379 2068 
Q 3634 1759 3634 1313 
Q 3634 634 3220 271 
Q 2806 -91 2034 -91 
Q 1263 -91 848 271 
Q 434 634 434 1313 
Q 434 1759 690 2068 
Q 947 2378 1403 2484 
z
M 1172 3481 
Q 1172 3119 1398 2916 
Q 1625 2713 2034 2713 
Q 2441 2713 2670 2916 
Q 2900 3119 2900 3481 
Q 2900 3844 2670 4047 
Q 2441 4250 2034 4250 
Q 1625 4250 1398 4047 
Q 1172 3844 1172 3481 
z
" transform="scale(0.015625)"/>
       </defs>
       <use xlink:href="#DejaVuSans-38"/>
       <use xlink:href="#DejaVuSans-2e" x="63.623047"/>
       <use xlink:href="#DejaVuSans-30" x="95.410156"/>
      </g>
     </g>
    </g>
    <g id="ytick_4">
     <g id="line2d_13">
      <g>
       <use xlink:href="#mc4a3495382" x="54" y="143.28" style="stroke: #000000; stroke-width: 0.8"/>
      </g>
     </g>
     <g id="text_14">
      <!-- 8.5 -->
      <g transform="translate(31.096875 147.079219)scale(0.1 -0.1)">
       <use xlink:href="#DejaVuSans-38"/>
       <use xlink:href="#DejaVuSans-2e" x="63.623047"/>
       <use xlink:href="#DejaVuSans-35" x="95.410156"/>
      </g>
     </g>
    </g>
    <g id="ytick_5">
     <g id="line2d_14">
      <g>
       <use xlink:href="#mc4a3495382" x="54" y="107.04" style="stroke: #000000; stroke-width: 0.8"/>
      </g>
     </g>
     <g id="text_15">
      <!-- 9.0 -->
      <g transform="translate(31.096875 110.839219)scale(0.1 -0.1)">
       <defs>
        <path id="DejaVuSans-39" d="M 703 97 
L 703 672 
Q 941 559 1184 500 
Q 1428 441 1663 441 
Q 2288 441 2617 861 
Q 2947 1281 2994 2138 
Q 2813 1869 2534 1725 
Q 2256 1581 1919 1581 
Q 1219 1581 811 2004 
Q 403 2428 403 3163 
Q 403 3881 828 4315 
Q 1253 4750 1959 4750 
Q 2769 4750 3195 4129 
Q 3622 3509 3622 2328 
Q 3622 1225 3098 567 
Q 2575 -91 1691 -91 
Q 1453 -91 1209 -44 
Q 966 3 703 97 
z
M 1959 2075 
Q 2384 2075 2632 2365 
Q 2881 2656 2881 3163 
Q 2881 3666 2632 3958 
Q 2384 4250 1959 4250 
Q 1534 4250 1286 3958 
Q 1038 3666 1038 3163 
Q 1038 2656 1286 2365 
Q 1534 2075 1959 2075 
z
" transform="scale(0.015625)"/>
       </defs>
       <use xlink:href="#DejaVuSans-39"/>
       <use xlink:href="#DejaVuSans-2e" x="63.623047"/>
       <use xlink:href="#DejaVuSans-30" x="95.410156"/>
      </g>
     </g>
    </g>
    <g id="ytick_6">
     <g id="line2d_15">
      <g>
       <use xlink:href="#mc4a3495382" x="54" y="70.8" style="stroke: #000000; stroke-width: 0.8"/>
      </g>
     </g>
     <g id="text_16">
      <!-- 9.5 -->
      <g transform="translate(31.096875 74.599219)scale(0.1 -0.1)">
       <use xlink:href="#DejaVuSans-39"/>
       <use xlink:href="#DejaVuSans-2e" x="63.623047"/>
       <use xlink:href="#DejaVuSans-35" x="95.410156"/>
      </g>
     </g>
    </g>
    <g id="ytick_7">
     <g id="line2d_16">
      <g>
       <use xlink:href="#mc4a3495382" x="54" y="34.56" style="stroke: #000000; stroke-width: 0.8"/>
      </g>
     </g>
     <g id="text_17">
      <!-- 10.0 -->
      <g transform="translate(24.734375 38.359219)scale(0.1 -0.1)">
       <use xlink:href="#DejaVuSans-31"/>
       <use xlink:href="#DejaVuSans-30" x="63.623047"/>
       <use xlink:href="#DejaVuSans-2e" x="127.246094"/>
       <use xlink:href="#DejaVuSans-30" x="159.033203"/>
      </g>
     </g>
    </g>
    <g id="text_18">
     <!-- Mean Score -->
     <g transform="translate(18.654687 172.494844)rotate(-90)scale(0.1 -0.1)">
      <defs>
       <path id="DejaVuSans-4d" d="M 628 4666 
L 1569 4666 
L 2759 1491 
L 3956 4666 
L 4897 4666 
L 4897 0 
L 4281 0 
L 4281 4097 
L 3078 897 
L 2444 897 
L 1241 4097 
L 1241 0 
L 628 0 
L 628 4666 
z
" transform="scale(0.015625)"/>
       <path id="DejaVuSans-20" transform="scale(0.015625)"/>
       <path id="DejaVuSans-53" d="M 3425 4513 
L 3425 3897 
Q 3066 4069 2747 4153 
Q 2428 4238 2131 4238 
Q 1616 4238 1336 4038 
Q 1056 3838 1056 3469 
Q 1056 3159 1242 3001 
Q 1428 2844 1947 2747 
L 2328 2669 
Q 3034 2534 3370 2195 
Q 3706 1856 3706 1288 
Q 3706 609 3251 259 
Q 2797 -91 1919 -91 
Q 1588 -91 1214 -16 
Q 841 59 441 206 
L 441 856 
Q 825 641 1194 531 
Q 1563 422 1919 422 
Q 2459 422 2753 634 
Q 3047 847 3047 1241 
Q 3047 1584 2836 1778 
Q 2625 1972 2144 2069 
L 1759 2144 
Q 1053 2284 737 2584 
Q 422 2884 422 3419 
Q 422 4038 858 4394 
Q 1294 4750 2059 4750 
Q 2388 4750 2728 4690 
Q 3069 4631 3425 4513 
z
" transform="scale(0.015625)"/>
       <path id="DejaVuSans-63" d="M 3122 3366 
L 3122 2828 
Q 2878 2963 2633 3030 
Q 2388 3097 2138 3097 
Q 1578 3097 1268 2742 
Q 959 2388 959 1747 
Q 959 1106 1268 751 
Q 1578 397 2138 397 
Q 2388 397 2633 464 
Q 2878 531 3122 666 
L 3122 134 
Q 2881 22 2623 -34 
Q 2366 -91 2075 -91 
Q 1284 -91 818 406 
Q 353 903 353 1747 
Q 353 2603 823 3093 
Q 1294 3584 2113 3584 
Q 2378 3584 2631 3529 
Q 2884 3475 3122 3366 
z
" transform="scale(0.015625)"/>
      </defs>
      <use xlink:href="#DejaVuSans-4d"/>
      <use xlink:href="#DejaVuSans-65" x="86.279297"/>
      <use xlink:href="#DejaVuSans-61" x="147.802734"/>
      <use xlink:href="#DejaVuSans-6e" x="209.082031"/>
      <use xlink:href="#DejaVuSans-20" x="272.460938"/>
      <use xlink:href="#DejaVuSans-53" x="304.248047"/>
      <use xlink:href="#DejaVuSans-63" x="367.724609"/>
      <use xlink:href="#DejaVuSans-6f" x="422.705078"/>
      <use xlink:href="#DejaVuSans-72" x="483.886719"/>
      <use xlink:href="#DejaVuSans-65" x="522.75"/>
     </g>
    </g>
   </g>
   <g id="line2d_17">
    <path d="M 69.218182 215.656716 
L 73.806578 206.366042 
L 75.336044 204.52031 
L 76.865509 204.103161 
L 78.394975 203.247982 
L 79.92444 201.848666 
L 81.453906 200.132156 
L 82.983371 199.72866 
L 84.512837 198.370684 
L 86.042302 197.275205 
L 87.571768 195.985871 
L 89.101233 195.674383 
L 90.630699 195.055463 
L 92.160164 193.30796 
L 93.68963 193.52706 
L 96.748561 192.245789 
L 98.278026 192.759672 
L 99.807492 190.831851 
L 101.336958 192.056801 
L 102.866423 190.878147 
L 104.395889 191.529177 
L 105.925354 190.519977 
L 107.45482 189.952179 
L 108.984285 191.052524 
L 110.513751 190.046953 
L 112.043216 189.965025 
L 113.572682 190.124344 
L 115.102147 190.061132 
L 116.631613 191.480505 
L 118.161078 189.810125 
L 119.690544 191.225455 
L 121.220009 191.189045 
L 122.749475 189.464797 
L 124.27894 189.9369 
L 125.808406 190.036577 
L 127.337871 189.038626 
L 128.867337 189.039978 
L 130.396802 188.26905 
L 131.926268 188.857468 
L 133.455733 188.197256 
L 134.985199 187.813399 
L 136.514664 186.960936 
L 138.04413 187.564683 
L 139.573595 187.589704 
L 141.103061 186.640779 
L 142.632526 186.982643 
L 144.161992 186.172813 
L 145.691457 187.867423 
L 147.220923 186.580829 
L 148.750388 187.057471 
L 150.279854 186.33535 
L 153.338785 186.417099 
L 156.397716 186.628562 
L 157.927181 186.960364 
L 159.456647 186.888882 
L 160.986112 187.890671 
L 162.515578 187.120518 
L 164.045043 186.538812 
L 165.574509 185.628023 
L 167.103974 187.038855 
L 168.63344 185.711473 
L 171.692371 184.923598 
L 173.221836 185.61506 
L 174.751302 185.54982 
L 176.280767 184.017396 
L 177.810233 183.983221 
L 179.339698 182.887227 
L 180.869164 185.003001 
L 182.39863 184.350952 
L 183.928095 184.691389 
L 185.457561 183.124923 
L 186.987026 184.297562 
L 190.045957 182.237534 
L 191.575423 182.659598 
L 193.104888 182.242348 
L 194.634354 182.642844 
L 196.163819 182.684514 
L 197.693285 182.350875 
L 199.22275 182.566112 
L 200.752216 181.449224 
L 202.281681 182.781989 
L 203.811147 181.430534 
L 205.340612 183.491581 
L 206.870078 184.504887 
L 208.399543 185.909213 
L 209.929009 184.965788 
L 211.458474 184.82898 
L 212.98794 186.99744 
L 214.517405 186.259729 
L 216.046871 186.64664 
L 217.576336 184.569853 
L 219.105802 186.766674 
L 220.635267 186.65928 
L 222.164733 184.716002 
L 223.694198 186.327594 
L 225.223664 185.573011 
L 226.753129 184.28269 
L 228.282595 184.69676 
L 229.81206 183.873502 
L 231.341526 184.253619 
L 232.870991 184.503216 
L 234.400457 185.131798 
L 235.929922 183.335703 
L 237.459388 184.005165 
L 238.988853 183.47599 
L 240.518319 181.762723 
L 242.047784 183.261105 
L 243.57725 183.575004 
L 245.106715 182.86845 
L 246.636181 183.413229 
L 248.165646 182.696416 
L 249.695112 183.875517 
L 251.224577 182.311351 
L 252.754043 182.649353 
L 254.283508 184.62171 
L 255.812974 182.916377 
L 257.342439 183.074145 
L 258.871905 181.999673 
L 260.40137 182.439681 
L 261.930836 184.659593 
L 263.460302 183.847074 
L 264.989767 183.49719 
L 266.519233 182.703377 
L 268.048698 184.734677 
L 269.578164 182.613841 
L 271.107629 184.136244 
L 272.637095 182.959673 
L 274.16656 184.418027 
L 275.696026 183.264529 
L 277.225491 183.461149 
L 278.754957 182.242135 
L 280.284422 183.695047 
L 281.813888 182.935087 
L 283.343353 181.941222 
L 284.872819 182.160826 
L 286.402284 183.38325 
L 287.93175 182.884078 
L 289.461215 183.143913 
L 292.520146 181.941283 
L 294.049612 181.733671 
L 295.579077 180.636249 
L 297.108543 181.423047 
L 298.638008 181.542504 
L 300.167474 183.027643 
L 301.696939 181.927832 
L 304.75587 184.171927 
L 306.285336 181.774372 
L 307.814801 182.679743 
L 309.344267 182.011207 
L 310.873732 181.832645 
L 312.403198 181.91349 
L 313.932663 180.596837 
L 315.462129 182.102947 
L 318.52106 182.848788 
L 320.050525 182.778807 
L 321.579991 182.08682 
L 323.109456 182.563475 
L 324.638922 181.613203 
L 326.168387 182.837453 
L 327.697853 182.358601 
L 329.227318 182.380423 
L 330.756784 181.3879 
L 332.286249 182.603646 
L 335.34518 181.221067 
L 336.874646 181.354574 
L 338.404111 182.258914 
L 339.933577 181.466561 
L 341.463042 181.067238 
L 342.992508 182.473249 
L 344.521974 181.797245 
L 346.051439 181.778312 
L 347.580905 182.366037 
L 350.639836 181.618215 
L 352.169301 180.772246 
L 353.698767 180.198481 
L 355.228232 180.171375 
L 356.757698 181.083495 
L 358.287163 181.426933 
L 359.816629 182.257106 
L 361.346094 181.824983 
L 362.87556 181.763057 
L 364.405025 184.344966 
L 365.934491 182.27512 
L 367.463956 183.374307 
L 368.993422 183.502388 
L 370.522887 182.995143 
L 372.052353 180.668876 
L 373.581818 182.697266 
L 373.581818 182.697266 
" clip-path="url(#pe9c17e320f)" style="fill: none; stroke: #1f77b4; stroke-width: 1.5; stroke-linecap: square"/>
   </g>
   <g id="line2d_18">
    <path d="M 69.218182 83.1216 
L 373.581818 83.1216 
L 373.581818 83.1216 
" clip-path="url(#pe9c17e320f)" style="fill: none; stroke-dasharray: 5.55,2.4; stroke-dashoffset: 0; stroke: #ff7f0e; stroke-width: 1.5"/>
   </g>
   <g id="patch_3">
    <path d="M 54 252 
L 54 34.56 
" style="fill: none; stroke: #000000; stroke-width: 0.8; stroke-linejoin: miter; stroke-linecap: square"/>
   </g>
   <g id="patch_4">
    <path d="M 388.8 252 
L 388.8 34.56 
" style="fill: none; stroke: #000000; stroke-width: 0.8; stroke-linejoin: miter; stroke-linecap: square"/>
   </g>
   <g id="patch_5">
    <path d="M 54 252 
L 388.8 252 
" style="fill: none; stroke: #000000; stroke-width: 0.8; stroke-linejoin: miter; stroke-linecap: square"/>
   </g>
   <g id="patch_6">
    <path d="M 54 34.56 
L 388.8 34.56 
" style="fill: none; stroke: #000000; stroke-width: 0.8; stroke-linejoin: miter; stroke-linecap: square"/>
   </g>
   <g id="text_19">
    <!-- Random -->
    <g transform="translate(196.561875 28.56)scale(0.12 -0.12)">
     <defs>
      <path id="DejaVuSans-52" d="M 2841 2188 
Q 3044 2119 3236 1894 
Q 3428 1669 3622 1275 
L 4263 0 
L 3584 0 
L 2988 1197 
Q 2756 1666 2539 1819 
Q 2322 1972 1947 1972 
L 1259 1972 
L 1259 0 
L 628 0 
L 628 4666 
L 2053 4666 
Q 2853 4666 3247 4331 
Q 3641 3997 3641 3322 
Q 3641 2881 3436 2590 
Q 3231 2300 2841 2188 
z
M 1259 4147 
L 1259 2491 
L 2053 2491 
Q 2509 2491 2742 2702 
Q 2975 2913 2975 3322 
Q 2975 3731 2742 3939 
Q 2509 4147 2053 4147 
L 1259 4147 
z
" transform="scale(0.015625)"/>
      <path id="DejaVuSans-64" d="M 2906 2969 
L 2906 4863 
L 3481 4863 
L 3481 0 
L 2906 0 
L 2906 525 
Q 2725 213 2448 61 
Q 2172 -91 1784 -91 
Q 1150 -91 751 415 
Q 353 922 353 1747 
Q 353 2572 751 3078 
Q 1150 3584 1784 3584 
Q 2172 3584 2448 3432 
Q 2725 3281 2906 2969 
z
M 947 1747 
Q 947 1113 1208 752 
Q 1469 391 1925 391 
Q 2381 391 2643 752 
Q 2906 1113 2906 1747 
Q 2906 2381 2643 2742 
Q 2381 3103 1925 3103 
Q 1469 3103 1208 2742 
Q 947 2381 947 1747 
z
" transform="scale(0.015625)"/>
      <path id="DejaVuSans-6d" d="M 3328 2828 
Q 3544 3216 3844 3400 
Q 4144 3584 4550 3584 
Q 5097 3584 5394 3201 
Q 5691 2819 5691 2113 
L 5691 0 
L 5113 0 
L 5113 2094 
Q 5113 2597 4934 2840 
Q 4756 3084 4391 3084 
Q 3944 3084 3684 2787 
Q 3425 2491 3425 1978 
L 3425 0 
L 2847 0 
L 2847 2094 
Q 2847 2600 2669 2842 
Q 2491 3084 2119 3084 
Q 1678 3084 1418 2786 
Q 1159 2488 1159 1978 
L 1159 0 
L 581 0 
L 581 3500 
L 1159 3500 
L 1159 2956 
Q 1356 3278 1631 3431 
Q 1906 3584 2284 3584 
Q 2666 3584 2933 3390 
Q 3200 3197 3328 2828 
z
" transform="scale(0.015625)"/>
     </defs>
     <use xlink:href="#DejaVuSans-52"/>
     <use xlink:href="#DejaVuSans-61" x="67.232422"/>
     <use xlink:href="#DejaVuSans-6e" x="128.511719"/>
     <use xlink:href="#DejaVuSans-64" x="191.890625"/>
     <use xlink:href="#DejaVuSans-6f" x="255.367188"/>
     <use xlink:href="#DejaVuSans-6d" x="316.548828"/>
    </g>
   </g>
   <g id="legend_1">
    <g id="patch_7">
     <path d="M 61 71.91625 
L 176.465625 71.91625 
Q 178.465625 71.91625 178.465625 69.91625 
L 178.465625 41.56 
Q 178.465625 39.56 176.465625 39.56 
L 61 39.56 
Q 59 39.56 59 41.56 
L 59 69.91625 
Q 59 71.91625 61 71.91625 
z
" style="fill: #ffffff; opacity: 0.8; stroke: #cccccc; stroke-linejoin: miter"/>
    </g>
    <g id="line2d_19">
     <path d="M 63 47.658437 
L 73 47.658437 
L 83 47.658437 
" style="fill: none; stroke: #1f77b4; stroke-width: 1.5; stroke-linecap: square"/>
    </g>
    <g id="text_20">
     <!-- training -->
     <g transform="translate(91 51.158437)scale(0.1 -0.1)">
      <defs>
       <path id="DejaVuSans-67" d="M 2906 1791 
Q 2906 2416 2648 2759 
Q 2391 3103 1925 3103 
Q 1463 3103 1205 2759 
Q 947 2416 947 1791 
Q 947 1169 1205 825 
Q 1463 481 1925 481 
Q 2391 481 2648 825 
Q 2906 1169 2906 1791 
z
M 3481 434 
Q 3481 -459 3084 -895 
Q 2688 -1331 1869 -1331 
Q 1566 -1331 1297 -1286 
Q 1028 -1241 775 -1147 
L 775 -588 
Q 1028 -725 1275 -790 
Q 1522 -856 1778 -856 
Q 2344 -856 2625 -561 
Q 2906 -266 2906 331 
L 2906 616 
Q 2728 306 2450 153 
Q 2172 0 1784 0 
Q 1141 0 747 490 
Q 353 981 353 1791 
Q 353 2603 747 3093 
Q 1141 3584 1784 3584 
Q 2172 3584 2450 3431 
Q 2728 3278 2906 2969 
L 2906 3500 
L 3481 3500 
L 3481 434 
z
" transform="scale(0.015625)"/>
      </defs>
      <use xlink:href="#DejaVuSans-74"/>
      <use xlink:href="#DejaVuSans-72" x="39.208984"/>
      <use xlink:href="#DejaVuSans-61" x="80.322266"/>
      <use xlink:href="#DejaVuSans-69" x="141.601562"/>
      <use xlink:href="#DejaVuSans-6e" x="169.384766"/>
      <use xlink:href="#DejaVuSans-69" x="232.763672"/>
      <use xlink:href="#DejaVuSans-6e" x="260.546875"/>
      <use xlink:href="#DejaVuSans-67" x="323.925781"/>
     </g>
    </g>
    <g id="line2d_20">
     <path d="M 63 62.336562 
L 73 62.336562 
L 83 62.336562 
" style="fill: none; stroke-dasharray: 5.55,2.4; stroke-dashoffset: 0; stroke: #ff7f0e; stroke-width: 1.5"/>
    </g>
    <g id="text_21">
     <!-- transfer learning -->
     <g transform="translate(91 65.836562)scale(0.1 -0.1)">
      <defs>
       <path id="DejaVuSans-73" d="M 2834 3397 
L 2834 2853 
Q 2591 2978 2328 3040 
Q 2066 3103 1784 3103 
Q 1356 3103 1142 2972 
Q 928 2841 928 2578 
Q 928 2378 1081 2264 
Q 1234 2150 1697 2047 
L 1894 2003 
Q 2506 1872 2764 1633 
Q 3022 1394 3022 966 
Q 3022 478 2636 193 
Q 2250 -91 1575 -91 
Q 1294 -91 989 -36 
Q 684 19 347 128 
L 347 722 
Q 666 556 975 473 
Q 1284 391 1588 391 
Q 1994 391 2212 530 
Q 2431 669 2431 922 
Q 2431 1156 2273 1281 
Q 2116 1406 1581 1522 
L 1381 1569 
Q 847 1681 609 1914 
Q 372 2147 372 2553 
Q 372 3047 722 3315 
Q 1072 3584 1716 3584 
Q 2034 3584 2315 3537 
Q 2597 3491 2834 3397 
z
" transform="scale(0.015625)"/>
       <path id="DejaVuSans-66" d="M 2375 4863 
L 2375 4384 
L 1825 4384 
Q 1516 4384 1395 4259 
Q 1275 4134 1275 3809 
L 1275 3500 
L 2222 3500 
L 2222 3053 
L 1275 3053 
L 1275 0 
L 697 0 
L 697 3053 
L 147 3053 
L 147 3500 
L 697 3500 
L 697 3744 
Q 697 4328 969 4595 
Q 1241 4863 1831 4863 
L 2375 4863 
z
" transform="scale(0.015625)"/>
       <path id="DejaVuSans-6c" d="M 603 4863 
L 1178 4863 
L 1178 0 
L 603 0 
L 603 4863 
z
" transform="scale(0.015625)"/>
      </defs>
      <use xlink:href="#DejaVuSans-74"/>
      <use xlink:href="#DejaVuSans-72" x="39.208984"/>
      <use xlink:href="#DejaVuSans-61" x="80.322266"/>
      <use xlink:href="#DejaVuSans-6e" x="141.601562"/>
      <use xlink:href="#DejaVuSans-73" x="204.980469"/>
      <use xlink:href="#DejaVuSans-66" x="257.080078"/>
      <use xlink:href="#DejaVuSans-65" x="292.285156"/>
      <use xlink:href="#DejaVuSans-72" x="353.808594"/>
      <use xlink:href="#DejaVuSans-20" x="394.921875"/>
      <use xlink:href="#DejaVuSans-6c" x="426.708984"/>
      <use xlink:href="#DejaVuSans-65" x="454.492188"/>
      <use xlink:href="#DejaVuSans-61" x="516.015625"/>
      <use xlink:href="#DejaVuSans-72" x="577.294922"/>
      <use xlink:href="#DejaVuSans-6e" x="616.658203"/>
      <use xlink:href="#DejaVuSans-69" x="680.037109"/>
      <use xlink:href="#DejaVuSans-6e" x="707.820312"/>
      <use xlink:href="#DejaVuSans-67" x="771.199219"/>
     </g>
    </g>
   </g>
  </g>
 </g>
 <defs>
  <clipPath id="pe9c17e320f">
   <rect x="54" y="34.56" width="334.8" height="217.44"/>
  </clipPath>
 </defs>
</svg>
