<?xml version="1.0" encoding="utf-8" standalone="no"?>
<!DOCTYPE svg PUBLIC "-//W3C//DTD SVG 1.1//EN"
  "http://www.w3.org/Graphics/SVG/1.1/DTD/svg11.dtd">
<svg xmlns:xlink="http://www.w3.org/1999/xlink" width="432pt" height="288pt" viewBox="0 0 432 288" xmlns="http://www.w3.org/2000/svg" version="1.1">
 <metadata>
  <rdf:RDF xmlns:dc="http://purl.org/dc/elements/1.1/" xmlns:cc="http://creativecommons.org/ns#" xmlns:rdf="http://www.w3.org/1999/02/22-rdf-syntax-ns#">
   <cc:Work>
    <dc:type rdf:resource="http://purl.org/dc/dcmitype/StillImage"/>
    <dc:date>2023-06-05T13:49:54.157019</dc:date>
    <dc:format>image/svg+xml</dc:format>
    <dc:creator>
     <cc:Agent>
      <dc:title>Matplotlib v3.5.2, https://matplotlib.org/</dc:title>
     </cc:Agent>
    </dc:creator>
   </cc:Work>
  </rdf:RDF>
 </metadata>
 <defs>
  <style type="text/css">*{stroke-linejoin: round; stroke-linecap: butt}</style>
 </defs>
 <g id="figure_1">
  <g id="patch_1">
   <path d="M 0 288 
L 432 288 
L 432 0 
L 0 0 
L 0 288 
z
" style="fill: none"/>
  </g>
  <g id="axes_1">
   <g id="patch_2">
    <path d="M 54 252 
L 388.8 252 
L 388.8 34.56 
L 54 34.56 
z
" style="fill: #ffffff"/>
   </g>
   <g id="PolyCollection_1">
    <path d="M 69.218182 234.675229 
L 69.218182 200.106371 
L 70.747647 197.575491 
L 72.277113 198.152069 
L 73.806578 189.515885 
L 75.336044 198.871944 
L 76.865509 186.094007 
L 78.394975 206.174705 
L 79.92444 200.212081 
L 81.453906 182.895168 
L 82.983371 176.975955 
L 84.512837 174.926703 
L 86.042302 163.756447 
L 87.571768 190.262327 
L 89.101233 178.673939 
L 90.630699 189.954744 
L 92.160164 190.02007 
L 93.68963 188.463848 
L 95.219095 171.587757 
L 96.748561 167.669832 
L 98.278026 185.193287 
L 99.807492 175.474829 
L 101.336958 168.159491 
L 102.866423 168.912805 
L 104.395889 177.135989 
L 105.925354 165.095524 
L 107.45482 170.858744 
L 108.984285 182.368816 
L 110.513751 184.841663 
L 112.043216 172.863486 
L 113.572682 178.926323 
L 115.102147 168.320333 
L 116.631613 161.314525 
L 118.161078 171.762432 
L 119.690544 183.318574 
L 121.220009 175.368044 
L 122.749475 159.880212 
L 124.27894 165.606725 
L 125.808406 187.761936 
L 127.337871 160.363679 
L 128.867337 149.782508 
L 130.396802 134.033817 
L 131.926268 148.927843 
L 133.455733 141.103118 
L 134.985199 153.702196 
L 136.514664 164.952231 
L 138.04413 151.308664 
L 139.573595 162.790961 
L 141.103061 147.407517 
L 142.632526 141.693814 
L 144.161992 139.631022 
L 145.691457 140.442209 
L 147.220923 148.886667 
L 148.750388 151.984151 
L 150.279854 130.306556 
L 151.809319 149.476329 
L 153.338785 137.782149 
L 154.86825 149.647097 
L 156.397716 141.008855 
L 157.927181 145.436147 
L 159.456647 134.565459 
L 160.986112 136.00737 
L 162.515578 159.694132 
L 164.045043 149.703984 
L 165.574509 157.743669 
L 167.103974 142.612796 
L 168.63344 149.12029 
L 170.162905 142.830981 
L 171.692371 146.307552 
L 173.221836 148.424481 
L 174.751302 137.908175 
L 176.280767 156.614635 
L 177.810233 139.589637 
L 179.339698 155.224358 
L 180.869164 140.931085 
L 182.39863 154.312101 
L 183.928095 158.702684 
L 185.457561 143.296482 
L 186.987026 146.396465 
L 188.516492 142.451234 
L 190.045957 155.347291 
L 191.575423 142.873671 
L 193.104888 154.584616 
L 194.634354 150.996117 
L 196.163819 122.905054 
L 197.693285 144.260107 
L 199.22275 141.860968 
L 200.752216 153.674385 
L 202.281681 141.206121 
L 203.811147 140.71785 
L 205.340612 143.337214 
L 206.870078 148.890455 
L 208.399543 145.932172 
L 209.929009 145.484635 
L 211.458474 155.615858 
L 212.98794 149.927466 
L 214.517405 154.148303 
L 216.046871 143.96865 
L 217.576336 159.305148 
L 219.105802 138.880535 
L 220.635267 161.625359 
L 222.164733 152.798529 
L 223.694198 147.066415 
L 225.223664 154.15017 
L 226.753129 146.399314 
L 228.282595 153.863703 
L 229.81206 150.351949 
L 231.341526 155.743773 
L 232.870991 154.351452 
L 234.400457 147.597651 
L 235.929922 149.452374 
L 237.459388 150.965112 
L 238.988853 156.019644 
L 240.518319 173.345282 
L 242.047784 156.312987 
L 243.57725 152.867357 
L 245.106715 167.264991 
L 246.636181 152.398764 
L 248.165646 150.879086 
L 249.695112 144.782452 
L 251.224577 142.888412 
L 252.754043 154.508558 
L 254.283508 138.211481 
L 255.812974 151.344364 
L 257.342439 163.388259 
L 258.871905 154.054078 
L 260.40137 153.367077 
L 261.930836 142.431826 
L 263.460302 145.609317 
L 264.989767 143.682957 
L 266.519233 162.198176 
L 268.048698 137.758189 
L 269.578164 144.111968 
L 271.107629 140.625459 
L 272.637095 152.166893 
L 274.16656 158.9768 
L 275.696026 142.348537 
L 277.225491 137.682004 
L 278.754957 136.076982 
L 280.284422 144.248765 
L 281.813888 125.582896 
L 283.343353 143.549416 
L 284.872819 154.234082 
L 286.402284 151.582971 
L 287.93175 144.11565 
L 289.461215 158.993235 
L 290.990681 145.19319 
L 292.520146 155.309416 
L 294.049612 126.596476 
L 295.579077 162.977253 
L 297.108543 148.161452 
L 298.638008 143.877721 
L 300.167474 155.534651 
L 301.696939 140.081194 
L 303.226405 141.084301 
L 304.75587 128.119811 
L 306.285336 112.886862 
L 307.814801 123.142914 
L 309.344267 136.305999 
L 310.873732 123.400553 
L 312.403198 130.140593 
L 313.932663 141.676013 
L 315.462129 133.853746 
L 316.991594 135.407721 
L 318.52106 138.196447 
L 320.050525 142.982989 
L 321.579991 138.40233 
L 323.109456 124.433441 
L 324.638922 139.562863 
L 326.168387 139.994578 
L 327.697853 140.663705 
L 329.227318 137.894193 
L 330.756784 150.564423 
L 332.286249 128.349808 
L 333.815715 123.501426 
L 335.34518 142.328772 
L 336.874646 131.504449 
L 338.404111 120.483125 
L 339.933577 128.544652 
L 341.463042 129.080037 
L 342.992508 139.083676 
L 344.521974 135.127678 
L 346.051439 155.616308 
L 347.580905 141.701517 
L 349.11037 143.204663 
L 350.639836 131.214199 
L 352.169301 140.913471 
L 353.698767 118.236763 
L 355.228232 128.177796 
L 356.757698 108.837624 
L 358.287163 126.082369 
L 359.816629 116.770828 
L 361.346094 119.466442 
L 362.87556 122.696266 
L 364.405025 135.92092 
L 365.934491 135.69285 
L 367.463956 134.639861 
L 368.993422 126.060455 
L 370.522887 134.720233 
L 372.052353 122.681469 
L 373.581818 140.551776 
L 373.581818 163.041024 
L 373.581818 163.041024 
L 372.052353 162.066531 
L 370.522887 161.262167 
L 368.993422 143.829145 
L 367.463956 148.296139 
L 365.934491 163.91355 
L 364.405025 153.17588 
L 362.87556 154.078934 
L 361.346094 163.831958 
L 359.816629 158.192372 
L 358.287163 152.142431 
L 356.757698 154.528776 
L 355.228232 161.281404 
L 353.698767 154.914437 
L 352.169301 161.954529 
L 350.639836 149.185001 
L 349.11037 178.145737 
L 347.580905 172.400883 
L 346.051439 168.995692 
L 344.521974 154.693922 
L 342.992508 147.113924 
L 341.463042 157.842363 
L 339.933577 164.176148 
L 338.404111 147.232075 
L 336.874646 144.908351 
L 335.34518 170.686428 
L 333.815715 155.448174 
L 332.286249 174.155792 
L 330.756784 157.739577 
L 329.227318 171.859407 
L 327.697853 168.002695 
L 326.168387 167.584622 
L 324.638922 162.217937 
L 323.109456 161.764159 
L 321.579991 167.36487 
L 320.050525 170.032211 
L 318.52106 171.194753 
L 316.991594 166.010679 
L 315.462129 150.894254 
L 313.932663 157.567987 
L 312.403198 167.653807 
L 310.873732 150.837847 
L 309.344267 154.965201 
L 307.814801 149.283486 
L 306.285336 160.264338 
L 304.75587 145.393789 
L 303.226405 165.770099 
L 301.696939 159.887606 
L 300.167474 168.352549 
L 298.638008 158.990279 
L 297.108543 181.161748 
L 295.579077 174.681147 
L 294.049612 151.628324 
L 292.520146 164.591384 
L 290.990681 164.56041 
L 289.461215 186.637965 
L 287.93175 186.65715 
L 286.402284 178.102629 
L 284.872819 172.552318 
L 283.343353 167.653784 
L 281.813888 163.513904 
L 280.284422 178.188835 
L 278.754957 181.287018 
L 277.225491 180.406796 
L 275.696026 177.189863 
L 274.16656 172.1584 
L 272.637095 172.445107 
L 271.107629 159.705741 
L 269.578164 170.352832 
L 268.048698 160.036211 
L 266.519233 182.708224 
L 264.989767 174.405843 
L 263.460302 179.365083 
L 261.930836 179.280974 
L 260.40137 166.533723 
L 258.871905 184.329122 
L 257.342439 183.330141 
L 255.812974 159.858836 
L 254.283508 176.978119 
L 252.754043 165.754642 
L 251.224577 165.415588 
L 249.695112 173.306348 
L 248.165646 162.498514 
L 246.636181 176.924436 
L 245.106715 181.990209 
L 243.57725 167.033443 
L 242.047784 175.909413 
L 240.518319 182.795518 
L 238.988853 173.665956 
L 237.459388 206.262888 
L 235.929922 166.462026 
L 234.400457 158.169549 
L 232.870991 206.500548 
L 231.341526 171.767427 
L 229.81206 182.232851 
L 228.282595 173.285097 
L 226.753129 164.079086 
L 225.223664 190.03143 
L 223.694198 166.311185 
L 222.164733 160.216671 
L 220.635267 174.221041 
L 219.105802 175.221865 
L 217.576336 182.339652 
L 216.046871 158.53695 
L 214.517405 171.913297 
L 212.98794 179.395734 
L 211.458474 187.840942 
L 209.929009 171.516965 
L 208.399543 167.445428 
L 206.870078 182.969545 
L 205.340612 169.677986 
L 203.811147 177.00855 
L 202.281681 171.809079 
L 200.752216 168.038415 
L 199.22275 174.053432 
L 197.693285 167.667893 
L 196.163819 185.761346 
L 194.634354 164.555883 
L 193.104888 163.866584 
L 191.575423 180.288729 
L 190.045957 178.324709 
L 188.516492 183.610366 
L 186.987026 176.403535 
L 185.457561 171.168318 
L 183.928095 179.318116 
L 182.39863 165.226299 
L 180.869164 185.130515 
L 179.339698 177.360442 
L 177.810233 168.351963 
L 176.280767 169.084565 
L 174.751302 173.657425 
L 173.221836 177.999519 
L 171.692371 183.015648 
L 170.162905 186.129819 
L 168.63344 172.59251 
L 167.103974 188.160004 
L 165.574509 198.397131 
L 164.045043 186.867216 
L 162.515578 185.574668 
L 160.986112 181.35663 
L 159.456647 184.972941 
L 157.927181 192.222253 
L 156.397716 177.079945 
L 154.86825 166.629703 
L 153.338785 165.448251 
L 151.809319 184.558071 
L 150.279854 168.937444 
L 148.750388 182.050249 
L 147.220923 195.657333 
L 145.691457 187.431391 
L 144.161992 181.719378 
L 142.632526 186.542186 
L 141.103061 176.117283 
L 139.573595 189.725839 
L 138.04413 179.464136 
L 136.514664 172.343769 
L 134.985199 197.365004 
L 133.455733 167.563282 
L 131.926268 175.684157 
L 130.396802 206.523783 
L 128.867337 175.191892 
L 127.337871 178.381921 
L 125.808406 197.008464 
L 124.27894 186.547675 
L 122.749475 190.824588 
L 121.220009 185.846356 
L 119.690544 198.190226 
L 118.161078 191.988768 
L 116.631613 201.349475 
L 115.102147 202.316467 
L 113.572682 188.811277 
L 112.043216 192.699714 
L 110.513751 210.800737 
L 108.984285 204.575984 
L 107.45482 183.470056 
L 105.925354 200.830076 
L 104.395889 189.876811 
L 102.866423 191.214395 
L 101.336958 190.155709 
L 99.807492 204.584371 
L 98.278026 202.113913 
L 96.748561 205.503768 
L 95.219095 202.310643 
L 93.68963 201.017752 
L 92.160164 203.81033 
L 90.630699 198.802056 
L 89.101233 194.499661 
L 87.571768 198.494473 
L 86.042302 202.531553 
L 84.512837 207.669297 
L 82.983371 195.110445 
L 81.453906 223.256832 
L 79.92444 226.234319 
L 78.394975 207.950095 
L 76.865509 222.232393 
L 75.336044 223.225656 
L 73.806578 221.347315 
L 72.277113 222.133531 
L 70.747647 217.998909 
L 69.218182 234.675229 
z
" clip-path="url(#pbdc6c2ef84)" style="fill: #1f77b4; fill-opacity: 0.5"/>
   </g>
   <g id="matplotlib.axis_1">
    <g id="xtick_1">
     <g id="line2d_1">
      <defs>
       <path id="m6109896413" d="M 0 0 
L 0 3.5 
" style="stroke: #000000; stroke-width: 0.8"/>
      </defs>
      <g>
       <use xlink:href="#m6109896413" x="69.218182" y="252" style="stroke: #000000; stroke-width: 0.8"/>
      </g>
     </g>
     <g id="text_1">
      <!-- 0 -->
      <g transform="translate(66.036932 266.598437)scale(0.1 -0.1)">
       <defs>
        <path id="DejaVuSans-30" d="M 2034 4250 
Q 1547 4250 1301 3770 
Q 1056 3291 1056 2328 
Q 1056 1369 1301 889 
Q 1547 409 2034 409 
Q 2525 409 2770 889 
Q 3016 1369 3016 2328 
Q 3016 3291 2770 3770 
Q 2525 4250 2034 4250 
z
M 2034 4750 
Q 2819 4750 3233 4129 
Q 3647 3509 3647 2328 
Q 3647 1150 3233 529 
Q 2819 -91 2034 -91 
Q 1250 -91 836 529 
Q 422 1150 422 2328 
Q 422 3509 836 4129 
Q 1250 4750 2034 4750 
z
" transform="scale(0.015625)"/>
       </defs>
       <use xlink:href="#DejaVuSans-30"/>
      </g>
     </g>
    </g>
    <g id="xtick_2">
     <g id="line2d_2">
      <g>
       <use xlink:href="#m6109896413" x="107.45482" y="252" style="stroke: #000000; stroke-width: 0.8"/>
      </g>
     </g>
     <g id="text_2">
      <!-- 25 -->
      <g transform="translate(101.09232 266.598437)scale(0.1 -0.1)">
       <defs>
        <path id="DejaVuSans-32" d="M 1228 531 
L 3431 531 
L 3431 0 
L 469 0 
L 469 531 
Q 828 903 1448 1529 
Q 2069 2156 2228 2338 
Q 2531 2678 2651 2914 
Q 2772 3150 2772 3378 
Q 2772 3750 2511 3984 
Q 2250 4219 1831 4219 
Q 1534 4219 1204 4116 
Q 875 4013 500 3803 
L 500 4441 
Q 881 4594 1212 4672 
Q 1544 4750 1819 4750 
Q 2544 4750 2975 4387 
Q 3406 4025 3406 3419 
Q 3406 3131 3298 2873 
Q 3191 2616 2906 2266 
Q 2828 2175 2409 1742 
Q 1991 1309 1228 531 
z
" transform="scale(0.015625)"/>
        <path id="DejaVuSans-35" d="M 691 4666 
L 3169 4666 
L 3169 4134 
L 1269 4134 
L 1269 2991 
Q 1406 3038 1543 3061 
Q 1681 3084 1819 3084 
Q 2600 3084 3056 2656 
Q 3513 2228 3513 1497 
Q 3513 744 3044 326 
Q 2575 -91 1722 -91 
Q 1428 -91 1123 -41 
Q 819 9 494 109 
L 494 744 
Q 775 591 1075 516 
Q 1375 441 1709 441 
Q 2250 441 2565 725 
Q 2881 1009 2881 1497 
Q 2881 1984 2565 2268 
Q 2250 2553 1709 2553 
Q 1456 2553 1204 2497 
Q 953 2441 691 2322 
L 691 4666 
z
" transform="scale(0.015625)"/>
       </defs>
       <use xlink:href="#DejaVuSans-32"/>
       <use xlink:href="#DejaVuSans-35" x="63.623047"/>
      </g>
     </g>
    </g>
    <g id="xtick_3">
     <g id="line2d_3">
      <g>
       <use xlink:href="#m6109896413" x="145.691457" y="252" style="stroke: #000000; stroke-width: 0.8"/>
      </g>
     </g>
     <g id="text_3">
      <!-- 50 -->
      <g transform="translate(139.328957 266.598437)scale(0.1 -0.1)">
       <use xlink:href="#DejaVuSans-35"/>
       <use xlink:href="#DejaVuSans-30" x="63.623047"/>
      </g>
     </g>
    </g>
    <g id="xtick_4">
     <g id="line2d_4">
      <g>
       <use xlink:href="#m6109896413" x="183.928095" y="252" style="stroke: #000000; stroke-width: 0.8"/>
      </g>
     </g>
     <g id="text_4">
      <!-- 75 -->
      <g transform="translate(177.565595 266.598437)scale(0.1 -0.1)">
       <defs>
        <path id="DejaVuSans-37" d="M 525 4666 
L 3525 4666 
L 3525 4397 
L 1831 0 
L 1172 0 
L 2766 4134 
L 525 4134 
L 525 4666 
z
" transform="scale(0.015625)"/>
       </defs>
       <use xlink:href="#DejaVuSans-37"/>
       <use xlink:href="#DejaVuSans-35" x="63.623047"/>
      </g>
     </g>
    </g>
    <g id="xtick_5">
     <g id="line2d_5">
      <g>
       <use xlink:href="#m6109896413" x="222.164733" y="252" style="stroke: #000000; stroke-width: 0.8"/>
      </g>
     </g>
     <g id="text_5">
      <!-- 100 -->
      <g transform="translate(212.620983 266.598437)scale(0.1 -0.1)">
       <defs>
        <path id="DejaVuSans-31" d="M 794 531 
L 1825 531 
L 1825 4091 
L 703 3866 
L 703 4441 
L 1819 4666 
L 2450 4666 
L 2450 531 
L 3481 531 
L 3481 0 
L 794 0 
L 794 531 
z
" transform="scale(0.015625)"/>
       </defs>
       <use xlink:href="#DejaVuSans-31"/>
       <use xlink:href="#DejaVuSans-30" x="63.623047"/>
       <use xlink:href="#DejaVuSans-30" x="127.246094"/>
      </g>
     </g>
    </g>
    <g id="xtick_6">
     <g id="line2d_6">
      <g>
       <use xlink:href="#m6109896413" x="260.40137" y="252" style="stroke: #000000; stroke-width: 0.8"/>
      </g>
     </g>
     <g id="text_6">
      <!-- 125 -->
      <g transform="translate(250.85762 266.598437)scale(0.1 -0.1)">
       <use xlink:href="#DejaVuSans-31"/>
       <use xlink:href="#DejaVuSans-32" x="63.623047"/>
       <use xlink:href="#DejaVuSans-35" x="127.246094"/>
      </g>
     </g>
    </g>
    <g id="xtick_7">
     <g id="line2d_7">
      <g>
       <use xlink:href="#m6109896413" x="298.638008" y="252" style="stroke: #000000; stroke-width: 0.8"/>
      </g>
     </g>
     <g id="text_7">
      <!-- 150 -->
      <g transform="translate(289.094258 266.598437)scale(0.1 -0.1)">
       <use xlink:href="#DejaVuSans-31"/>
       <use xlink:href="#DejaVuSans-35" x="63.623047"/>
       <use xlink:href="#DejaVuSans-30" x="127.246094"/>
      </g>
     </g>
    </g>
    <g id="xtick_8">
     <g id="line2d_8">
      <g>
       <use xlink:href="#m6109896413" x="336.874646" y="252" style="stroke: #000000; stroke-width: 0.8"/>
      </g>
     </g>
     <g id="text_8">
      <!-- 175 -->
      <g transform="translate(327.330896 266.598437)scale(0.1 -0.1)">
       <use xlink:href="#DejaVuSans-31"/>
       <use xlink:href="#DejaVuSans-37" x="63.623047"/>
       <use xlink:href="#DejaVuSans-35" x="127.246094"/>
      </g>
     </g>
    </g>
    <g id="xtick_9">
     <g id="line2d_9">
      <g>
       <use xlink:href="#m6109896413" x="375.111284" y="252" style="stroke: #000000; stroke-width: 0.8"/>
      </g>
     </g>
     <g id="text_9">
      <!-- 200 -->
      <g transform="translate(365.567534 266.598437)scale(0.1 -0.1)">
       <use xlink:href="#DejaVuSans-32"/>
       <use xlink:href="#DejaVuSans-30" x="63.623047"/>
       <use xlink:href="#DejaVuSans-30" x="127.246094"/>
      </g>
     </g>
    </g>
    <g id="text_10">
     <!-- Generation -->
     <g transform="translate(193.507031 280.276563)scale(0.1 -0.1)">
      <defs>
       <path id="DejaVuSans-47" d="M 3809 666 
L 3809 1919 
L 2778 1919 
L 2778 2438 
L 4434 2438 
L 4434 434 
Q 4069 175 3628 42 
Q 3188 -91 2688 -91 
Q 1594 -91 976 548 
Q 359 1188 359 2328 
Q 359 3472 976 4111 
Q 1594 4750 2688 4750 
Q 3144 4750 3555 4637 
Q 3966 4525 4313 4306 
L 4313 3634 
Q 3963 3931 3569 4081 
Q 3175 4231 2741 4231 
Q 1884 4231 1454 3753 
Q 1025 3275 1025 2328 
Q 1025 1384 1454 906 
Q 1884 428 2741 428 
Q 3075 428 3337 486 
Q 3600 544 3809 666 
z
" transform="scale(0.015625)"/>
       <path id="DejaVuSans-65" d="M 3597 1894 
L 3597 1613 
L 953 1613 
Q 991 1019 1311 708 
Q 1631 397 2203 397 
Q 2534 397 2845 478 
Q 3156 559 3463 722 
L 3463 178 
Q 3153 47 2828 -22 
Q 2503 -91 2169 -91 
Q 1331 -91 842 396 
Q 353 884 353 1716 
Q 353 2575 817 3079 
Q 1281 3584 2069 3584 
Q 2775 3584 3186 3129 
Q 3597 2675 3597 1894 
z
M 3022 2063 
Q 3016 2534 2758 2815 
Q 2500 3097 2075 3097 
Q 1594 3097 1305 2825 
Q 1016 2553 972 2059 
L 3022 2063 
z
" transform="scale(0.015625)"/>
       <path id="DejaVuSans-6e" d="M 3513 2113 
L 3513 0 
L 2938 0 
L 2938 2094 
Q 2938 2591 2744 2837 
Q 2550 3084 2163 3084 
Q 1697 3084 1428 2787 
Q 1159 2491 1159 1978 
L 1159 0 
L 581 0 
L 581 3500 
L 1159 3500 
L 1159 2956 
Q 1366 3272 1645 3428 
Q 1925 3584 2291 3584 
Q 2894 3584 3203 3211 
Q 3513 2838 3513 2113 
z
" transform="scale(0.015625)"/>
       <path id="DejaVuSans-72" d="M 2631 2963 
Q 2534 3019 2420 3045 
Q 2306 3072 2169 3072 
Q 1681 3072 1420 2755 
Q 1159 2438 1159 1844 
L 1159 0 
L 581 0 
L 581 3500 
L 1159 3500 
L 1159 2956 
Q 1341 3275 1631 3429 
Q 1922 3584 2338 3584 
Q 2397 3584 2469 3576 
Q 2541 3569 2628 3553 
L 2631 2963 
z
" transform="scale(0.015625)"/>
       <path id="DejaVuSans-61" d="M 2194 1759 
Q 1497 1759 1228 1600 
Q 959 1441 959 1056 
Q 959 750 1161 570 
Q 1363 391 1709 391 
Q 2188 391 2477 730 
Q 2766 1069 2766 1631 
L 2766 1759 
L 2194 1759 
z
M 3341 1997 
L 3341 0 
L 2766 0 
L 2766 531 
Q 2569 213 2275 61 
Q 1981 -91 1556 -91 
Q 1019 -91 701 211 
Q 384 513 384 1019 
Q 384 1609 779 1909 
Q 1175 2209 1959 2209 
L 2766 2209 
L 2766 2266 
Q 2766 2663 2505 2880 
Q 2244 3097 1772 3097 
Q 1472 3097 1187 3025 
Q 903 2953 641 2809 
L 641 3341 
Q 956 3463 1253 3523 
Q 1550 3584 1831 3584 
Q 2591 3584 2966 3190 
Q 3341 2797 3341 1997 
z
" transform="scale(0.015625)"/>
       <path id="DejaVuSans-74" d="M 1172 4494 
L 1172 3500 
L 2356 3500 
L 2356 3053 
L 1172 3053 
L 1172 1153 
Q 1172 725 1289 603 
Q 1406 481 1766 481 
L 2356 481 
L 2356 0 
L 1766 0 
Q 1100 0 847 248 
Q 594 497 594 1153 
L 594 3053 
L 172 3053 
L 172 3500 
L 594 3500 
L 594 4494 
L 1172 4494 
z
" transform="scale(0.015625)"/>
       <path id="DejaVuSans-69" d="M 603 3500 
L 1178 3500 
L 1178 0 
L 603 0 
L 603 3500 
z
M 603 4863 
L 1178 4863 
L 1178 4134 
L 603 4134 
L 603 4863 
z
" transform="scale(0.015625)"/>
       <path id="DejaVuSans-6f" d="M 1959 3097 
Q 1497 3097 1228 2736 
Q 959 2375 959 1747 
Q 959 1119 1226 758 
Q 1494 397 1959 397 
Q 2419 397 2687 759 
Q 2956 1122 2956 1747 
Q 2956 2369 2687 2733 
Q 2419 3097 1959 3097 
z
M 1959 3584 
Q 2709 3584 3137 3096 
Q 3566 2609 3566 1747 
Q 3566 888 3137 398 
Q 2709 -91 1959 -91 
Q 1206 -91 779 398 
Q 353 888 353 1747 
Q 353 2609 779 3096 
Q 1206 3584 1959 3584 
z
" transform="scale(0.015625)"/>
      </defs>
      <use xlink:href="#DejaVuSans-47"/>
      <use xlink:href="#DejaVuSans-65" x="77.490234"/>
      <use xlink:href="#DejaVuSans-6e" x="139.013672"/>
      <use xlink:href="#DejaVuSans-65" x="202.392578"/>
      <use xlink:href="#DejaVuSans-72" x="263.916016"/>
      <use xlink:href="#DejaVuSans-61" x="305.029297"/>
      <use xlink:href="#DejaVuSans-74" x="366.308594"/>
      <use xlink:href="#DejaVuSans-69" x="405.517578"/>
      <use xlink:href="#DejaVuSans-6f" x="433.300781"/>
      <use xlink:href="#DejaVuSans-6e" x="494.482422"/>
     </g>
    </g>
   </g>
   <g id="matplotlib.axis_2">
    <g id="ytick_1">
     <g id="line2d_10">
      <defs>
       <path id="m92961dc54a" d="M 0 0 
L -3.5 0 
" style="stroke: #000000; stroke-width: 0.8"/>
      </defs>
      <g>
       <use xlink:href="#m92961dc54a" x="54" y="252" style="stroke: #000000; stroke-width: 0.8"/>
      </g>
     </g>
     <g id="text_11">
      <!-- 7.5 -->
      <g transform="translate(31.096875 255.799219)scale(0.1 -0.1)">
       <defs>
        <path id="DejaVuSans-2e" d="M 684 794 
L 1344 794 
L 1344 0 
L 684 0 
L 684 794 
z
" transform="scale(0.015625)"/>
       </defs>
       <use xlink:href="#DejaVuSans-37"/>
       <use xlink:href="#DejaVuSans-2e" x="63.623047"/>
       <use xlink:href="#DejaVuSans-35" x="95.410156"/>
      </g>
     </g>
    </g>
    <g id="ytick_2">
     <g id="line2d_11">
      <g>
       <use xlink:href="#m92961dc54a" x="54" y="215.76" style="stroke: #000000; stroke-width: 0.8"/>
      </g>
     </g>
     <g id="text_12">
      <!-- 8.0 -->
      <g transform="translate(31.096875 219.559219)scale(0.1 -0.1)">
       <defs>
        <path id="DejaVuSans-38" d="M 2034 2216 
Q 1584 2216 1326 1975 
Q 1069 1734 1069 1313 
Q 1069 891 1326 650 
Q 1584 409 2034 409 
Q 2484 409 2743 651 
Q 3003 894 3003 1313 
Q 3003 1734 2745 1975 
Q 2488 2216 2034 2216 
z
M 1403 2484 
Q 997 2584 770 2862 
Q 544 3141 544 3541 
Q 544 4100 942 4425 
Q 1341 4750 2034 4750 
Q 2731 4750 3128 4425 
Q 3525 4100 3525 3541 
Q 3525 3141 3298 2862 
Q 3072 2584 2669 2484 
Q 3125 2378 3379 2068 
Q 3634 1759 3634 1313 
Q 3634 634 3220 271 
Q 2806 -91 2034 -91 
Q 1263 -91 848 271 
Q 434 634 434 1313 
Q 434 1759 690 2068 
Q 947 2378 1403 2484 
z
M 1172 3481 
Q 1172 3119 1398 2916 
Q 1625 2713 2034 2713 
Q 2441 2713 2670 2916 
Q 2900 3119 2900 3481 
Q 2900 3844 2670 4047 
Q 2441 4250 2034 4250 
Q 1625 4250 1398 4047 
Q 1172 3844 1172 3481 
z
" transform="scale(0.015625)"/>
       </defs>
       <use xlink:href="#DejaVuSans-38"/>
       <use xlink:href="#DejaVuSans-2e" x="63.623047"/>
       <use xlink:href="#DejaVuSans-30" x="95.410156"/>
      </g>
     </g>
    </g>
    <g id="ytick_3">
     <g id="line2d_12">
      <g>
       <use xlink:href="#m92961dc54a" x="54" y="179.52" style="stroke: #000000; stroke-width: 0.8"/>
      </g>
     </g>
     <g id="text_13">
      <!-- 8.5 -->
      <g transform="translate(31.096875 183.319219)scale(0.1 -0.1)">
       <use xlink:href="#DejaVuSans-38"/>
       <use xlink:href="#DejaVuSans-2e" x="63.623047"/>
       <use xlink:href="#DejaVuSans-35" x="95.410156"/>
      </g>
     </g>
    </g>
    <g id="ytick_4">
     <g id="line2d_13">
      <g>
       <use xlink:href="#m92961dc54a" x="54" y="143.28" style="stroke: #000000; stroke-width: 0.8"/>
      </g>
     </g>
     <g id="text_14">
      <!-- 9.0 -->
      <g transform="translate(31.096875 147.079219)scale(0.1 -0.1)">
       <defs>
        <path id="DejaVuSans-39" d="M 703 97 
L 703 672 
Q 941 559 1184 500 
Q 1428 441 1663 441 
Q 2288 441 2617 861 
Q 2947 1281 2994 2138 
Q 2813 1869 2534 1725 
Q 2256 1581 1919 1581 
Q 1219 1581 811 2004 
Q 403 2428 403 3163 
Q 403 3881 828 4315 
Q 1253 4750 1959 4750 
Q 2769 4750 3195 4129 
Q 3622 3509 3622 2328 
Q 3622 1225 3098 567 
Q 2575 -91 1691 -91 
Q 1453 -91 1209 -44 
Q 966 3 703 97 
z
M 1959 2075 
Q 2384 2075 2632 2365 
Q 2881 2656 2881 3163 
Q 2881 3666 2632 3958 
Q 2384 4250 1959 4250 
Q 1534 4250 1286 3958 
Q 1038 3666 1038 3163 
Q 1038 2656 1286 2365 
Q 1534 2075 1959 2075 
z
" transform="scale(0.015625)"/>
       </defs>
       <use xlink:href="#DejaVuSans-39"/>
       <use xlink:href="#DejaVuSans-2e" x="63.623047"/>
       <use xlink:href="#DejaVuSans-30" x="95.410156"/>
      </g>
     </g>
    </g>
    <g id="ytick_5">
     <g id="line2d_14">
      <g>
       <use xlink:href="#m92961dc54a" x="54" y="107.04" style="stroke: #000000; stroke-width: 0.8"/>
      </g>
     </g>
     <g id="text_15">
      <!-- 9.5 -->
      <g transform="translate(31.096875 110.839219)scale(0.1 -0.1)">
       <use xlink:href="#DejaVuSans-39"/>
       <use xlink:href="#DejaVuSans-2e" x="63.623047"/>
       <use xlink:href="#DejaVuSans-35" x="95.410156"/>
      </g>
     </g>
    </g>
    <g id="ytick_6">
     <g id="line2d_15">
      <g>
       <use xlink:href="#m92961dc54a" x="54" y="70.8" style="stroke: #000000; stroke-width: 0.8"/>
      </g>
     </g>
     <g id="text_16">
      <!-- 10.0 -->
      <g transform="translate(24.734375 74.599219)scale(0.1 -0.1)">
       <use xlink:href="#DejaVuSans-31"/>
       <use xlink:href="#DejaVuSans-30" x="63.623047"/>
       <use xlink:href="#DejaVuSans-2e" x="127.246094"/>
       <use xlink:href="#DejaVuSans-30" x="159.033203"/>
      </g>
     </g>
    </g>
    <g id="ytick_7">
     <g id="line2d_16">
      <g>
       <use xlink:href="#m92961dc54a" x="54" y="34.56" style="stroke: #000000; stroke-width: 0.8"/>
      </g>
     </g>
     <g id="text_17">
      <!-- 10.5 -->
      <g transform="translate(24.734375 38.359219)scale(0.1 -0.1)">
       <use xlink:href="#DejaVuSans-31"/>
       <use xlink:href="#DejaVuSans-30" x="63.623047"/>
       <use xlink:href="#DejaVuSans-2e" x="127.246094"/>
       <use xlink:href="#DejaVuSans-35" x="159.033203"/>
      </g>
     </g>
    </g>
    <g id="text_18">
     <!-- Average Energy -->
     <g transform="translate(18.654687 182.908125)rotate(-90)scale(0.1 -0.1)">
      <defs>
       <path id="DejaVuSans-41" d="M 2188 4044 
L 1331 1722 
L 3047 1722 
L 2188 4044 
z
M 1831 4666 
L 2547 4666 
L 4325 0 
L 3669 0 
L 3244 1197 
L 1141 1197 
L 716 0 
L 50 0 
L 1831 4666 
z
" transform="scale(0.015625)"/>
       <path id="DejaVuSans-76" d="M 191 3500 
L 800 3500 
L 1894 563 
L 2988 3500 
L 3597 3500 
L 2284 0 
L 1503 0 
L 191 3500 
z
" transform="scale(0.015625)"/>
       <path id="DejaVuSans-67" d="M 2906 1791 
Q 2906 2416 2648 2759 
Q 2391 3103 1925 3103 
Q 1463 3103 1205 2759 
Q 947 2416 947 1791 
Q 947 1169 1205 825 
Q 1463 481 1925 481 
Q 2391 481 2648 825 
Q 2906 1169 2906 1791 
z
M 3481 434 
Q 3481 -459 3084 -895 
Q 2688 -1331 1869 -1331 
Q 1566 -1331 1297 -1286 
Q 1028 -1241 775 -1147 
L 775 -588 
Q 1028 -725 1275 -790 
Q 1522 -856 1778 -856 
Q 2344 -856 2625 -561 
Q 2906 -266 2906 331 
L 2906 616 
Q 2728 306 2450 153 
Q 2172 0 1784 0 
Q 1141 0 747 490 
Q 353 981 353 1791 
Q 353 2603 747 3093 
Q 1141 3584 1784 3584 
Q 2172 3584 2450 3431 
Q 2728 3278 2906 2969 
L 2906 3500 
L 3481 3500 
L 3481 434 
z
" transform="scale(0.015625)"/>
       <path id="DejaVuSans-20" transform="scale(0.015625)"/>
       <path id="DejaVuSans-45" d="M 628 4666 
L 3578 4666 
L 3578 4134 
L 1259 4134 
L 1259 2753 
L 3481 2753 
L 3481 2222 
L 1259 2222 
L 1259 531 
L 3634 531 
L 3634 0 
L 628 0 
L 628 4666 
z
" transform="scale(0.015625)"/>
       <path id="DejaVuSans-79" d="M 2059 -325 
Q 1816 -950 1584 -1140 
Q 1353 -1331 966 -1331 
L 506 -1331 
L 506 -850 
L 844 -850 
Q 1081 -850 1212 -737 
Q 1344 -625 1503 -206 
L 1606 56 
L 191 3500 
L 800 3500 
L 1894 763 
L 2988 3500 
L 3597 3500 
L 2059 -325 
z
" transform="scale(0.015625)"/>
      </defs>
      <use xlink:href="#DejaVuSans-41"/>
      <use xlink:href="#DejaVuSans-76" x="62.533203"/>
      <use xlink:href="#DejaVuSans-65" x="121.712891"/>
      <use xlink:href="#DejaVuSans-72" x="183.236328"/>
      <use xlink:href="#DejaVuSans-61" x="224.349609"/>
      <use xlink:href="#DejaVuSans-67" x="285.628906"/>
      <use xlink:href="#DejaVuSans-65" x="349.105469"/>
      <use xlink:href="#DejaVuSans-20" x="410.628906"/>
      <use xlink:href="#DejaVuSans-45" x="442.416016"/>
      <use xlink:href="#DejaVuSans-6e" x="505.599609"/>
      <use xlink:href="#DejaVuSans-65" x="568.978516"/>
      <use xlink:href="#DejaVuSans-72" x="630.501953"/>
      <use xlink:href="#DejaVuSans-67" x="669.865234"/>
      <use xlink:href="#DejaVuSans-79" x="733.341797"/>
     </g>
    </g>
   </g>
   <g id="line2d_17">
    <path d="M 69.218182 217.3908 
L 70.747647 207.7872 
L 72.277113 210.1428 
L 73.806578 205.4316 
L 75.336044 211.0488 
L 76.865509 204.1632 
L 78.394975 207.0624 
L 79.92444 213.2232 
L 81.453906 203.076 
L 82.983371 186.0432 
L 84.512837 191.298 
L 86.042302 183.144 
L 87.571768 194.3784 
L 89.101233 186.5868 
L 90.630699 194.3784 
L 92.160164 196.9152 
L 93.68963 194.7408 
L 95.219095 186.9492 
L 96.748561 186.5868 
L 98.278026 193.6536 
L 99.807492 190.0296 
L 101.336958 179.1576 
L 102.866423 180.0636 
L 104.395889 183.5064 
L 105.925354 182.9628 
L 107.45482 177.1644 
L 108.984285 193.4724 
L 110.513751 197.8212 
L 112.043216 182.7816 
L 113.572682 183.8688 
L 115.102147 185.3184 
L 116.631613 181.332 
L 118.161078 181.8756 
L 119.690544 190.7544 
L 121.220009 180.6072 
L 122.749475 175.3524 
L 124.27894 176.0772 
L 125.808406 192.3852 
L 127.337871 169.3728 
L 128.867337 162.4872 
L 130.396802 170.2788 
L 133.455733 154.3332 
L 134.985199 175.5336 
L 136.514664 168.648 
L 138.04413 165.3864 
L 139.573595 176.2584 
L 141.103061 161.7624 
L 142.632526 164.118 
L 144.161992 160.6752 
L 145.691457 163.9368 
L 147.220923 172.272 
L 148.750388 167.0172 
L 150.279854 149.622 
L 151.809319 167.0172 
L 153.338785 151.6152 
L 154.86825 158.1384 
L 156.397716 159.0444 
L 157.927181 168.8292 
L 159.456647 159.7692 
L 160.986112 158.682 
L 162.515578 172.6344 
L 164.045043 168.2856 
L 165.574509 178.0704 
L 167.103974 165.3864 
L 168.63344 160.8564 
L 170.162905 164.4804 
L 171.692371 164.6616 
L 173.221836 163.212 
L 174.751302 155.7828 
L 176.280767 162.8496 
L 177.810233 153.9708 
L 179.339698 166.2924 
L 182.39863 159.7692 
L 183.928095 169.0104 
L 185.457561 157.2324 
L 186.987026 161.4 
L 188.516492 163.0308 
L 190.045957 166.836 
L 191.575423 161.5812 
L 193.104888 159.2256 
L 194.634354 157.776 
L 196.163819 154.3332 
L 197.693285 155.964 
L 199.22275 157.9572 
L 200.752216 160.8564 
L 202.281681 156.5076 
L 203.811147 158.8632 
L 205.340612 156.5076 
L 206.870078 165.93 
L 208.399543 156.6888 
L 209.929009 158.5008 
L 211.458474 171.7284 
L 212.98794 164.6616 
L 214.517405 163.0308 
L 216.046871 151.2528 
L 217.576336 170.8224 
L 219.105802 157.0512 
L 220.635267 167.9232 
L 222.164733 156.5076 
L 223.694198 156.6888 
L 225.223664 172.0908 
L 226.753129 155.2392 
L 228.282595 163.5744 
L 229.81206 166.2924 
L 231.341526 163.7556 
L 232.870991 180.426 
L 234.400457 152.8836 
L 235.929922 157.9572 
L 237.459388 178.614 
L 238.988853 164.8428 
L 240.518319 178.0704 
L 242.047784 166.1112 
L 243.57725 159.9504 
L 245.106715 174.6276 
L 246.636181 164.6616 
L 248.165646 156.6888 
L 249.695112 159.0444 
L 251.224577 154.152 
L 252.754043 160.1316 
L 254.283508 157.5948 
L 255.812974 155.6016 
L 257.342439 173.3592 
L 258.871905 169.1916 
L 260.40137 159.9504 
L 261.930836 160.8564 
L 263.460302 162.4872 
L 264.989767 159.0444 
L 266.519233 172.4532 
L 268.048698 148.8972 
L 269.578164 157.2324 
L 271.107629 150.1656 
L 272.637095 162.306 
L 274.16656 165.5676 
L 275.696026 159.7692 
L 277.225491 159.0444 
L 278.754957 158.682 
L 280.284422 161.2188 
L 281.813888 144.5484 
L 283.343353 155.6016 
L 284.872819 163.3932 
L 286.402284 164.8428 
L 287.93175 165.3864 
L 289.461215 172.8156 
L 290.990681 154.8768 
L 292.520146 159.9504 
L 294.049612 139.1124 
L 295.579077 168.8292 
L 297.108543 164.6616 
L 298.638008 151.434 
L 300.167474 161.9436 
L 301.696939 149.9844 
L 303.226405 153.4272 
L 304.75587 136.7568 
L 306.285336 136.5756 
L 307.814801 136.2132 
L 309.344267 145.6356 
L 310.873732 137.1192 
L 312.403198 148.8972 
L 313.932663 149.622 
L 315.462129 142.374 
L 316.991594 150.7092 
L 318.52106 154.6956 
L 320.050525 156.5076 
L 321.579991 152.8836 
L 323.109456 143.0988 
L 324.638922 150.8904 
L 326.168387 153.7896 
L 329.227318 154.8768 
L 330.756784 154.152 
L 332.286249 151.2528 
L 333.815715 139.4748 
L 335.34518 156.5076 
L 336.874646 138.2064 
L 338.404111 133.8576 
L 339.933577 146.3604 
L 341.463042 143.4612 
L 342.992508 143.0988 
L 344.521974 144.9108 
L 346.051439 162.306 
L 347.580905 157.0512 
L 349.11037 160.6752 
L 350.639836 140.1996 
L 352.169301 151.434 
L 353.698767 136.5756 
L 355.228232 144.7296 
L 356.757698 131.6832 
L 358.287163 139.1124 
L 359.816629 137.4816 
L 361.346094 141.6492 
L 362.87556 138.3876 
L 364.405025 144.5484 
L 365.934491 149.8032 
L 367.463956 141.468 
L 368.993422 134.9448 
L 370.522887 147.9912 
L 372.052353 142.374 
L 373.581818 151.7964 
L 373.581818 151.7964 
" clip-path="url(#pbdc6c2ef84)" style="fill: none; stroke: #1f77b4; stroke-width: 1.5; stroke-linecap: square"/>
   </g>
   <g id="line2d_18">
    <path d="M 69.218182 124.4352 
L 373.581818 124.4352 
L 373.581818 124.4352 
" clip-path="url(#pbdc6c2ef84)" style="fill: none; stroke-dasharray: 5.55,2.4; stroke-dashoffset: 0; stroke: #ff7f0e; stroke-width: 1.5"/>
   </g>
   <g id="patch_3">
    <path d="M 54 252 
L 54 34.56 
" style="fill: none; stroke: #000000; stroke-width: 0.8; stroke-linejoin: miter; stroke-linecap: square"/>
   </g>
   <g id="patch_4">
    <path d="M 388.8 252 
L 388.8 34.56 
" style="fill: none; stroke: #000000; stroke-width: 0.8; stroke-linejoin: miter; stroke-linecap: square"/>
   </g>
   <g id="patch_5">
    <path d="M 54 252 
L 388.8 252 
" style="fill: none; stroke: #000000; stroke-width: 0.8; stroke-linejoin: miter; stroke-linecap: square"/>
   </g>
   <g id="patch_6">
    <path d="M 54 34.56 
L 388.8 34.56 
" style="fill: none; stroke: #000000; stroke-width: 0.8; stroke-linejoin: miter; stroke-linecap: square"/>
   </g>
   <g id="text_19">
    <!-- Random -->
    <g transform="translate(196.561875 28.56)scale(0.12 -0.12)">
     <defs>
      <path id="DejaVuSans-52" d="M 2841 2188 
Q 3044 2119 3236 1894 
Q 3428 1669 3622 1275 
L 4263 0 
L 3584 0 
L 2988 1197 
Q 2756 1666 2539 1819 
Q 2322 1972 1947 1972 
L 1259 1972 
L 1259 0 
L 628 0 
L 628 4666 
L 2053 4666 
Q 2853 4666 3247 4331 
Q 3641 3997 3641 3322 
Q 3641 2881 3436 2590 
Q 3231 2300 2841 2188 
z
M 1259 4147 
L 1259 2491 
L 2053 2491 
Q 2509 2491 2742 2702 
Q 2975 2913 2975 3322 
Q 2975 3731 2742 3939 
Q 2509 4147 2053 4147 
L 1259 4147 
z
" transform="scale(0.015625)"/>
      <path id="DejaVuSans-64" d="M 2906 2969 
L 2906 4863 
L 3481 4863 
L 3481 0 
L 2906 0 
L 2906 525 
Q 2725 213 2448 61 
Q 2172 -91 1784 -91 
Q 1150 -91 751 415 
Q 353 922 353 1747 
Q 353 2572 751 3078 
Q 1150 3584 1784 3584 
Q 2172 3584 2448 3432 
Q 2725 3281 2906 2969 
z
M 947 1747 
Q 947 1113 1208 752 
Q 1469 391 1925 391 
Q 2381 391 2643 752 
Q 2906 1113 2906 1747 
Q 2906 2381 2643 2742 
Q 2381 3103 1925 3103 
Q 1469 3103 1208 2742 
Q 947 2381 947 1747 
z
" transform="scale(0.015625)"/>
      <path id="DejaVuSans-6d" d="M 3328 2828 
Q 3544 3216 3844 3400 
Q 4144 3584 4550 3584 
Q 5097 3584 5394 3201 
Q 5691 2819 5691 2113 
L 5691 0 
L 5113 0 
L 5113 2094 
Q 5113 2597 4934 2840 
Q 4756 3084 4391 3084 
Q 3944 3084 3684 2787 
Q 3425 2491 3425 1978 
L 3425 0 
L 2847 0 
L 2847 2094 
Q 2847 2600 2669 2842 
Q 2491 3084 2119 3084 
Q 1678 3084 1418 2786 
Q 1159 2488 1159 1978 
L 1159 0 
L 581 0 
L 581 3500 
L 1159 3500 
L 1159 2956 
Q 1356 3278 1631 3431 
Q 1906 3584 2284 3584 
Q 2666 3584 2933 3390 
Q 3200 3197 3328 2828 
z
" transform="scale(0.015625)"/>
     </defs>
     <use xlink:href="#DejaVuSans-52"/>
     <use xlink:href="#DejaVuSans-61" x="67.232422"/>
     <use xlink:href="#DejaVuSans-6e" x="128.511719"/>
     <use xlink:href="#DejaVuSans-64" x="191.890625"/>
     <use xlink:href="#DejaVuSans-6f" x="255.367188"/>
     <use xlink:href="#DejaVuSans-6d" x="316.548828"/>
    </g>
   </g>
   <g id="legend_1">
    <g id="patch_7">
     <path d="M 61 71.91625 
L 176.465625 71.91625 
Q 178.465625 71.91625 178.465625 69.91625 
L 178.465625 41.56 
Q 178.465625 39.56 176.465625 39.56 
L 61 39.56 
Q 59 39.56 59 41.56 
L 59 69.91625 
Q 59 71.91625 61 71.91625 
z
" style="fill: #ffffff; opacity: 0.8; stroke: #cccccc; stroke-linejoin: miter"/>
    </g>
    <g id="line2d_19">
     <path d="M 63 47.658437 
L 73 47.658437 
L 83 47.658437 
" style="fill: none; stroke: #1f77b4; stroke-width: 1.5; stroke-linecap: square"/>
    </g>
    <g id="text_20">
     <!-- training -->
     <g transform="translate(91 51.158437)scale(0.1 -0.1)">
      <use xlink:href="#DejaVuSans-74"/>
      <use xlink:href="#DejaVuSans-72" x="39.208984"/>
      <use xlink:href="#DejaVuSans-61" x="80.322266"/>
      <use xlink:href="#DejaVuSans-69" x="141.601562"/>
      <use xlink:href="#DejaVuSans-6e" x="169.384766"/>
      <use xlink:href="#DejaVuSans-69" x="232.763672"/>
      <use xlink:href="#DejaVuSans-6e" x="260.546875"/>
      <use xlink:href="#DejaVuSans-67" x="323.925781"/>
     </g>
    </g>
    <g id="line2d_20">
     <path d="M 63 62.336562 
L 73 62.336562 
L 83 62.336562 
" style="fill: none; stroke-dasharray: 5.55,2.4; stroke-dashoffset: 0; stroke: #ff7f0e; stroke-width: 1.5"/>
    </g>
    <g id="text_21">
     <!-- transfer learning -->
     <g transform="translate(91 65.836562)scale(0.1 -0.1)">
      <defs>
       <path id="DejaVuSans-73" d="M 2834 3397 
L 2834 2853 
Q 2591 2978 2328 3040 
Q 2066 3103 1784 3103 
Q 1356 3103 1142 2972 
Q 928 2841 928 2578 
Q 928 2378 1081 2264 
Q 1234 2150 1697 2047 
L 1894 2003 
Q 2506 1872 2764 1633 
Q 3022 1394 3022 966 
Q 3022 478 2636 193 
Q 2250 -91 1575 -91 
Q 1294 -91 989 -36 
Q 684 19 347 128 
L 347 722 
Q 666 556 975 473 
Q 1284 391 1588 391 
Q 1994 391 2212 530 
Q 2431 669 2431 922 
Q 2431 1156 2273 1281 
Q 2116 1406 1581 1522 
L 1381 1569 
Q 847 1681 609 1914 
Q 372 2147 372 2553 
Q 372 3047 722 3315 
Q 1072 3584 1716 3584 
Q 2034 3584 2315 3537 
Q 2597 3491 2834 3397 
z
" transform="scale(0.015625)"/>
       <path id="DejaVuSans-66" d="M 2375 4863 
L 2375 4384 
L 1825 4384 
Q 1516 4384 1395 4259 
Q 1275 4134 1275 3809 
L 1275 3500 
L 2222 3500 
L 2222 3053 
L 1275 3053 
L 1275 0 
L 697 0 
L 697 3053 
L 147 3053 
L 147 3500 
L 697 3500 
L 697 3744 
Q 697 4328 969 4595 
Q 1241 4863 1831 4863 
L 2375 4863 
z
" transform="scale(0.015625)"/>
       <path id="DejaVuSans-6c" d="M 603 4863 
L 1178 4863 
L 1178 0 
L 603 0 
L 603 4863 
z
" transform="scale(0.015625)"/>
      </defs>
      <use xlink:href="#DejaVuSans-74"/>
      <use xlink:href="#DejaVuSans-72" x="39.208984"/>
      <use xlink:href="#DejaVuSans-61" x="80.322266"/>
      <use xlink:href="#DejaVuSans-6e" x="141.601562"/>
      <use xlink:href="#DejaVuSans-73" x="204.980469"/>
      <use xlink:href="#DejaVuSans-66" x="257.080078"/>
      <use xlink:href="#DejaVuSans-65" x="292.285156"/>
      <use xlink:href="#DejaVuSans-72" x="353.808594"/>
      <use xlink:href="#DejaVuSans-20" x="394.921875"/>
      <use xlink:href="#DejaVuSans-6c" x="426.708984"/>
      <use xlink:href="#DejaVuSans-65" x="454.492188"/>
      <use xlink:href="#DejaVuSans-61" x="516.015625"/>
      <use xlink:href="#DejaVuSans-72" x="577.294922"/>
      <use xlink:href="#DejaVuSans-6e" x="616.658203"/>
      <use xlink:href="#DejaVuSans-69" x="680.037109"/>
      <use xlink:href="#DejaVuSans-6e" x="707.820312"/>
      <use xlink:href="#DejaVuSans-67" x="771.199219"/>
     </g>
    </g>
   </g>
  </g>
 </g>
 <defs>
  <clipPath id="pbdc6c2ef84">
   <rect x="54" y="34.56" width="334.8" height="217.44"/>
  </clipPath>
 </defs>
</svg>
