<?xml version="1.0" encoding="utf-8" standalone="no"?>
<!DOCTYPE svg PUBLIC "-//W3C//DTD SVG 1.1//EN"
  "http://www.w3.org/Graphics/SVG/1.1/DTD/svg11.dtd">
<svg xmlns:xlink="http://www.w3.org/1999/xlink" width="432pt" height="288pt" viewBox="0 0 432 288" xmlns="http://www.w3.org/2000/svg" version="1.1">
 <metadata>
  <rdf:RDF xmlns:dc="http://purl.org/dc/elements/1.1/" xmlns:cc="http://creativecommons.org/ns#" xmlns:rdf="http://www.w3.org/1999/02/22-rdf-syntax-ns#">
   <cc:Work>
    <dc:type rdf:resource="http://purl.org/dc/dcmitype/StillImage"/>
    <dc:date>2023-06-27T08:51:49.118414</dc:date>
    <dc:format>image/svg+xml</dc:format>
    <dc:creator>
     <cc:Agent>
      <dc:title>Matplotlib v3.5.2, https://matplotlib.org/</dc:title>
     </cc:Agent>
    </dc:creator>
   </cc:Work>
  </rdf:RDF>
 </metadata>
 <defs>
  <style type="text/css">*{stroke-linejoin: round; stroke-linecap: butt}</style>
 </defs>
 <g id="figure_1">
  <g id="patch_1">
   <path d="M 0 288 
L 432 288 
L 432 0 
L 0 0 
L 0 288 
z
" style="fill: none"/>
  </g>
  <g id="axes_1">
   <g id="patch_2">
    <path d="M 54 252 
L 388.8 252 
L 388.8 34.56 
L 54 34.56 
z
" style="fill: #ffffff"/>
   </g>
   <g id="PolyCollection_1">
    <path d="M 69.218182 140.758174 
L 69.218182 136.79981 
L 70.747647 132.876599 
L 72.277113 128.684055 
L 73.806578 128.088067 
L 75.336044 125.046504 
L 76.865509 124.133425 
L 78.394975 125.56332 
L 79.92444 126.303649 
L 81.453906 124.047966 
L 82.983371 124.149237 
L 84.512837 121.302067 
L 86.042302 116.026537 
L 87.571768 112.433774 
L 89.101233 111.32652 
L 90.630699 113.020242 
L 92.160164 113.097268 
L 93.68963 113.928266 
L 95.219095 111.460501 
L 96.748561 112.481246 
L 98.278026 110.083644 
L 99.807492 110.337817 
L 101.336958 111.47126 
L 102.866423 110.151553 
L 104.395889 110.561578 
L 105.925354 109.158839 
L 107.45482 108.030322 
L 108.984285 107.902353 
L 110.513751 111.082683 
L 112.043216 107.520814 
L 113.572682 107.362182 
L 115.102147 107.69135 
L 116.631613 107.436108 
L 118.161078 104.596404 
L 119.690544 108.637256 
L 121.220009 108.115741 
L 122.749475 109.050688 
L 124.27894 107.325789 
L 125.808406 109.806526 
L 127.337871 108.561767 
L 128.867337 109.567776 
L 130.396802 107.276547 
L 131.926268 104.064246 
L 133.455733 104.525729 
L 134.985199 103.821111 
L 136.514664 107.970045 
L 138.04413 105.106182 
L 139.573595 105.319596 
L 141.103061 104.905106 
L 142.632526 104.982868 
L 144.161992 105.792694 
L 145.691457 105.371774 
L 147.220923 102.390342 
L 148.750388 106.718645 
L 150.279854 103.485273 
L 151.809319 105.559369 
L 153.338785 101.52492 
L 154.86825 104.310332 
L 156.397716 103.069807 
L 157.927181 105.424122 
L 159.456647 101.867867 
L 160.986112 101.390299 
L 162.515578 103.393549 
L 164.045043 101.100155 
L 165.574509 102.251611 
L 167.103974 100.870325 
L 168.63344 100.686608 
L 170.162905 101.744239 
L 171.692371 101.147327 
L 173.221836 102.034857 
L 174.751302 100.064349 
L 176.280767 96.955602 
L 177.810233 97.490016 
L 179.339698 99.020525 
L 180.869164 97.729685 
L 182.39863 97.086114 
L 183.928095 98.005826 
L 185.457561 96.859462 
L 186.987026 95.490353 
L 188.516492 100.290559 
L 190.045957 100.388535 
L 191.575423 98.304233 
L 193.104888 99.410993 
L 194.634354 100.119592 
L 196.163819 98.882548 
L 197.693285 99.491349 
L 199.22275 94.933228 
L 200.752216 93.230196 
L 202.281681 93.260158 
L 203.811147 94.963302 
L 205.340612 92.124569 
L 206.870078 88.992787 
L 208.399543 91.540161 
L 209.929009 92.894797 
L 211.458474 91.541798 
L 212.98794 89.698425 
L 214.517405 91.602057 
L 216.046871 90.918122 
L 217.576336 89.273655 
L 219.105802 89.85281 
L 220.635267 90.806106 
L 222.164733 91.491488 
L 223.694198 89.710343 
L 225.223664 86.372999 
L 226.753129 89.581286 
L 228.282595 90.107679 
L 229.81206 87.754392 
L 231.341526 91.61835 
L 232.870991 90.349843 
L 234.400457 89.679082 
L 235.929922 91.921763 
L 237.459388 89.926475 
L 238.988853 87.565906 
L 240.518319 88.070236 
L 242.047784 87.307949 
L 243.57725 88.046945 
L 245.106715 89.184165 
L 246.636181 90.546258 
L 248.165646 90.603191 
L 249.695112 89.463764 
L 251.224577 90.484723 
L 252.754043 88.882135 
L 254.283508 89.221091 
L 255.812974 89.744396 
L 257.342439 92.992604 
L 258.871905 88.584046 
L 260.40137 89.212374 
L 261.930836 87.263743 
L 263.460302 87.182594 
L 264.989767 87.055707 
L 266.519233 87.629432 
L 268.048698 89.329802 
L 269.578164 90.570057 
L 271.107629 89.77683 
L 272.637095 90.830552 
L 274.16656 91.102848 
L 275.696026 89.224654 
L 277.225491 89.913109 
L 278.754957 87.223727 
L 280.284422 87.809086 
L 281.813888 89.908913 
L 283.343353 87.475678 
L 284.872819 88.636438 
L 286.402284 87.429723 
L 287.93175 86.619999 
L 289.461215 88.892333 
L 290.990681 88.563307 
L 292.520146 89.642944 
L 294.049612 88.685429 
L 295.579077 89.595723 
L 297.108543 88.309424 
L 298.638008 89.837946 
L 300.167474 88.235629 
L 301.696939 90.029007 
L 303.226405 92.057172 
L 304.75587 90.500345 
L 306.285336 86.623651 
L 307.814801 88.112294 
L 309.344267 85.310971 
L 310.873732 88.158894 
L 312.403198 87.243651 
L 313.932663 87.660781 
L 315.462129 88.061392 
L 316.991594 86.198461 
L 318.52106 88.891855 
L 320.050525 86.019968 
L 321.579991 86.728642 
L 323.109456 87.925666 
L 324.638922 85.9737 
L 326.168387 83.667656 
L 327.697853 87.264346 
L 329.227318 86.291902 
L 330.756784 83.771339 
L 332.286249 87.62496 
L 333.815715 85.753775 
L 335.34518 87.592832 
L 336.874646 86.891821 
L 338.404111 83.371103 
L 339.933577 87.879763 
L 341.463042 86.314508 
L 342.992508 89.64818 
L 344.521974 87.496676 
L 346.051439 84.612851 
L 347.580905 86.659506 
L 349.11037 86.118664 
L 350.639836 85.988519 
L 352.169301 82.800934 
L 353.698767 84.691674 
L 355.228232 83.909706 
L 356.757698 86.610269 
L 358.287163 84.218901 
L 359.816629 83.6591 
L 361.346094 83.46904 
L 362.87556 84.028791 
L 364.405025 86.106353 
L 365.934491 85.826634 
L 367.463956 87.335733 
L 368.993422 84.76811 
L 370.522887 87.294208 
L 372.052353 85.611644 
L 373.581818 85.174331 
L 373.581818 93.970309 
L 373.581818 93.970309 
L 372.052353 91.402084 
L 370.522887 95.503424 
L 368.993422 93.137122 
L 367.463956 96.570843 
L 365.934491 94.10079 
L 364.405025 94.321183 
L 362.87556 96.333513 
L 361.346094 95.936528 
L 359.816629 94.985428 
L 358.287163 96.056427 
L 356.757698 94.969699 
L 355.228232 95.669814 
L 353.698767 96.083766 
L 352.169301 96.517658 
L 350.639836 96.374233 
L 349.11037 96.700712 
L 347.580905 93.898494 
L 346.051439 92.466109 
L 344.521974 96.475132 
L 342.992508 96.911164 
L 341.463042 95.04802 
L 339.933577 94.135085 
L 338.404111 96.164929 
L 336.874646 94.557683 
L 335.34518 93.921904 
L 333.815715 93.738769 
L 332.286249 93.106992 
L 330.756784 95.416789 
L 329.227318 94.853186 
L 327.697853 94.337366 
L 326.168387 93.28084 
L 324.638922 95.6715 
L 323.109456 96.067886 
L 321.579991 96.50387 
L 320.050525 93.342112 
L 318.52106 96.949937 
L 316.991594 95.620691 
L 315.462129 95.236352 
L 313.932663 95.854403 
L 312.403198 95.619213 
L 310.873732 95.291058 
L 309.344267 93.268325 
L 307.814801 94.141738 
L 306.285336 97.609085 
L 304.75587 95.732839 
L 303.226405 96.241692 
L 301.696939 97.552305 
L 300.167474 97.649651 
L 298.638008 97.482438 
L 297.108543 98.206432 
L 295.579077 98.572677 
L 294.049612 98.417515 
L 292.520146 99.721376 
L 290.990681 98.604869 
L 289.461215 99.515251 
L 287.93175 96.677745 
L 286.402284 99.499269 
L 284.872819 98.727434 
L 283.343353 98.692274 
L 281.813888 96.106831 
L 280.284422 98.48933 
L 278.754957 99.987937 
L 277.225491 94.471835 
L 275.696026 101.13989 
L 274.16656 101.392608 
L 272.637095 101.599672 
L 271.107629 99.37005 
L 269.578164 100.838199 
L 268.048698 101.882758 
L 266.519233 101.995816 
L 264.989767 100.634325 
L 263.460302 102.834046 
L 261.930836 101.274305 
L 260.40137 102.043674 
L 258.871905 100.97597 
L 257.342439 104.047348 
L 255.812974 100.837588 
L 254.283508 103.513549 
L 252.754043 99.134057 
L 251.224577 103.076189 
L 249.695112 103.901452 
L 248.165646 100.631113 
L 246.636181 103.927902 
L 245.106715 101.376075 
L 243.57725 101.034703 
L 242.047784 102.860899 
L 240.518319 102.272564 
L 238.988853 101.55923 
L 237.459388 101.568757 
L 235.929922 104.052733 
L 234.400457 101.511734 
L 232.870991 101.319341 
L 231.341526 103.355922 
L 229.81206 99.196344 
L 228.282595 100.930929 
L 226.753129 101.674762 
L 225.223664 104.709097 
L 223.694198 101.806633 
L 222.164733 102.069424 
L 220.635267 103.97247 
L 219.105802 101.338006 
L 217.576336 100.242873 
L 216.046871 101.490358 
L 214.517405 100.806423 
L 212.98794 101.905527 
L 211.458474 100.518778 
L 209.929009 104.514803 
L 208.399543 104.042943 
L 206.870078 105.068237 
L 205.340612 107.307223 
L 203.811147 106.708122 
L 202.281681 104.758274 
L 200.752216 105.375324 
L 199.22275 105.324836 
L 197.693285 106.267947 
L 196.163819 105.354668 
L 194.634354 104.574248 
L 193.104888 104.021695 
L 191.575423 106.172167 
L 190.045957 107.936553 
L 188.516492 104.251073 
L 186.987026 103.484815 
L 185.457561 106.225322 
L 183.928095 105.25291 
L 182.39863 105.933438 
L 180.869164 103.767787 
L 179.339698 106.869235 
L 177.810233 105.942672 
L 176.280767 105.368142 
L 174.751302 107.173539 
L 173.221836 107.529639 
L 171.692371 108.069265 
L 170.162905 105.754577 
L 168.63344 109.747648 
L 167.103974 109.216027 
L 165.574509 108.487061 
L 164.045043 109.638517 
L 162.515578 110.563235 
L 160.986112 110.631269 
L 159.456647 112.045429 
L 157.927181 111.533334 
L 156.397716 114.431249 
L 154.86825 112.016548 
L 153.338785 113.27988 
L 151.809319 112.724471 
L 150.279854 114.472407 
L 148.750388 112.021819 
L 147.220923 114.936762 
L 145.691457 111.042082 
L 144.161992 115.970186 
L 142.632526 113.931548 
L 141.103061 113.226526 
L 139.573595 111.659604 
L 138.04413 111.851274 
L 136.514664 112.488195 
L 134.985199 112.070889 
L 133.455733 113.018815 
L 131.926268 114.30657 
L 130.396802 112.398909 
L 128.867337 112.956144 
L 127.337871 116.941081 
L 125.808406 115.239698 
L 124.27894 117.350787 
L 122.749475 119.49632 
L 121.220009 118.561283 
L 119.690544 118.300696 
L 118.161078 118.036236 
L 116.631613 118.371156 
L 115.102147 117.55057 
L 113.572682 119.79321 
L 112.043216 119.460626 
L 110.513751 119.856165 
L 108.984285 121.275231 
L 107.45482 120.234014 
L 105.925354 120.040489 
L 104.395889 122.529926 
L 102.866423 122.679023 
L 101.336958 120.29386 
L 99.807492 120.535799 
L 98.278026 122.964372 
L 96.748561 123.045586 
L 95.219095 123.631451 
L 93.68963 122.794486 
L 92.160164 124.69094 
L 90.630699 124.876686 
L 89.101233 123.80892 
L 87.571768 124.397698 
L 86.042302 126.632327 
L 84.512837 126.249197 
L 82.983371 128.446635 
L 81.453906 130.461378 
L 79.92444 130.684511 
L 78.394975 129.90276 
L 76.865509 133.637519 
L 75.336044 135.616392 
L 73.806578 136.510493 
L 72.277113 136.044969 
L 70.747647 135.983785 
L 69.218182 140.758174 
z
" clip-path="url(#p85a7ecb434)" style="fill: #1f77b4; fill-opacity: 0.5"/>
   </g>
   <g id="PolyCollection_2">
    <path d="M 69.218182 165.261934 
L 69.218182 163.916306 
L 70.747647 163.916306 
L 72.277113 163.916306 
L 73.806578 163.916306 
L 75.336044 163.916306 
L 76.865509 163.916306 
L 78.394975 163.916306 
L 79.92444 163.916306 
L 81.453906 163.916306 
L 82.983371 163.916306 
L 84.512837 163.916306 
L 86.042302 163.916306 
L 87.571768 163.916306 
L 89.101233 163.916306 
L 90.630699 163.916306 
L 92.160164 163.916306 
L 93.68963 163.916306 
L 95.219095 163.916306 
L 96.748561 163.916306 
L 98.278026 163.916306 
L 99.807492 163.916306 
L 101.336958 163.916306 
L 102.866423 163.916306 
L 104.395889 163.916306 
L 105.925354 163.916306 
L 107.45482 163.916306 
L 108.984285 163.916306 
L 110.513751 163.916306 
L 112.043216 163.916306 
L 113.572682 163.916306 
L 115.102147 163.916306 
L 116.631613 163.916306 
L 118.161078 163.916306 
L 119.690544 163.916306 
L 121.220009 163.916306 
L 122.749475 163.916306 
L 124.27894 163.916306 
L 125.808406 163.916306 
L 127.337871 163.916306 
L 128.867337 163.916306 
L 130.396802 163.916306 
L 131.926268 163.916306 
L 133.455733 163.916306 
L 134.985199 163.916306 
L 136.514664 163.916306 
L 138.04413 163.916306 
L 139.573595 163.916306 
L 141.103061 163.916306 
L 142.632526 163.916306 
L 144.161992 163.916306 
L 145.691457 163.916306 
L 147.220923 163.916306 
L 148.750388 163.916306 
L 150.279854 163.916306 
L 151.809319 163.916306 
L 153.338785 163.916306 
L 154.86825 163.916306 
L 156.397716 163.916306 
L 157.927181 163.916306 
L 159.456647 163.916306 
L 160.986112 163.916306 
L 162.515578 163.916306 
L 164.045043 163.916306 
L 165.574509 163.916306 
L 167.103974 163.916306 
L 168.63344 163.916306 
L 170.162905 163.916306 
L 171.692371 163.916306 
L 173.221836 163.916306 
L 174.751302 163.916306 
L 176.280767 163.916306 
L 177.810233 163.916306 
L 179.339698 163.916306 
L 180.869164 163.916306 
L 182.39863 163.916306 
L 183.928095 163.916306 
L 185.457561 163.916306 
L 186.987026 163.916306 
L 188.516492 163.916306 
L 190.045957 163.916306 
L 191.575423 163.916306 
L 193.104888 163.916306 
L 194.634354 163.916306 
L 196.163819 163.916306 
L 197.693285 163.916306 
L 199.22275 163.916306 
L 200.752216 163.916306 
L 202.281681 163.916306 
L 203.811147 163.916306 
L 205.340612 163.916306 
L 206.870078 163.916306 
L 208.399543 163.916306 
L 209.929009 163.916306 
L 211.458474 163.916306 
L 212.98794 163.916306 
L 214.517405 163.916306 
L 216.046871 163.916306 
L 217.576336 163.916306 
L 219.105802 163.916306 
L 220.635267 163.916306 
L 222.164733 163.916306 
L 223.694198 163.916306 
L 225.223664 163.916306 
L 226.753129 163.916306 
L 228.282595 163.916306 
L 229.81206 163.916306 
L 231.341526 163.916306 
L 232.870991 163.916306 
L 234.400457 163.916306 
L 235.929922 163.916306 
L 237.459388 163.916306 
L 238.988853 163.916306 
L 240.518319 163.916306 
L 242.047784 163.916306 
L 243.57725 163.916306 
L 245.106715 163.916306 
L 246.636181 163.916306 
L 248.165646 163.916306 
L 249.695112 163.916306 
L 251.224577 163.916306 
L 252.754043 163.916306 
L 254.283508 163.916306 
L 255.812974 163.916306 
L 257.342439 163.916306 
L 258.871905 163.916306 
L 260.40137 163.916306 
L 261.930836 163.916306 
L 263.460302 163.916306 
L 264.989767 163.916306 
L 266.519233 163.916306 
L 268.048698 163.916306 
L 269.578164 163.916306 
L 271.107629 163.916306 
L 272.637095 163.916306 
L 274.16656 163.916306 
L 275.696026 163.916306 
L 277.225491 163.916306 
L 278.754957 163.916306 
L 280.284422 163.916306 
L 281.813888 163.916306 
L 283.343353 163.916306 
L 284.872819 163.916306 
L 286.402284 163.916306 
L 287.93175 163.916306 
L 289.461215 163.916306 
L 290.990681 163.916306 
L 292.520146 163.916306 
L 294.049612 163.916306 
L 295.579077 163.916306 
L 297.108543 163.916306 
L 298.638008 163.916306 
L 300.167474 163.916306 
L 301.696939 163.916306 
L 303.226405 163.916306 
L 304.75587 163.916306 
L 306.285336 163.916306 
L 307.814801 163.916306 
L 309.344267 163.916306 
L 310.873732 163.916306 
L 312.403198 163.916306 
L 313.932663 163.916306 
L 315.462129 163.916306 
L 316.991594 163.916306 
L 318.52106 163.916306 
L 320.050525 163.916306 
L 321.579991 163.916306 
L 323.109456 163.916306 
L 324.638922 163.916306 
L 326.168387 163.916306 
L 327.697853 163.916306 
L 329.227318 163.916306 
L 330.756784 163.916306 
L 332.286249 163.916306 
L 333.815715 163.916306 
L 335.34518 163.916306 
L 336.874646 163.916306 
L 338.404111 163.916306 
L 339.933577 163.916306 
L 341.463042 163.916306 
L 342.992508 163.916306 
L 344.521974 163.916306 
L 346.051439 163.916306 
L 347.580905 163.916306 
L 349.11037 163.916306 
L 350.639836 163.916306 
L 352.169301 163.916306 
L 353.698767 163.916306 
L 355.228232 163.916306 
L 356.757698 163.916306 
L 358.287163 163.916306 
L 359.816629 163.916306 
L 361.346094 163.916306 
L 362.87556 163.916306 
L 364.405025 163.916306 
L 365.934491 163.916306 
L 367.463956 163.916306 
L 368.993422 163.916306 
L 370.522887 163.916306 
L 372.052353 163.916306 
L 373.581818 163.916306 
L 373.581818 165.261934 
L 373.581818 165.261934 
L 372.052353 165.261934 
L 370.522887 165.261934 
L 368.993422 165.261934 
L 367.463956 165.261934 
L 365.934491 165.261934 
L 364.405025 165.261934 
L 362.87556 165.261934 
L 361.346094 165.261934 
L 359.816629 165.261934 
L 358.287163 165.261934 
L 356.757698 165.261934 
L 355.228232 165.261934 
L 353.698767 165.261934 
L 352.169301 165.261934 
L 350.639836 165.261934 
L 349.11037 165.261934 
L 347.580905 165.261934 
L 346.051439 165.261934 
L 344.521974 165.261934 
L 342.992508 165.261934 
L 341.463042 165.261934 
L 339.933577 165.261934 
L 338.404111 165.261934 
L 336.874646 165.261934 
L 335.34518 165.261934 
L 333.815715 165.261934 
L 332.286249 165.261934 
L 330.756784 165.261934 
L 329.227318 165.261934 
L 327.697853 165.261934 
L 326.168387 165.261934 
L 324.638922 165.261934 
L 323.109456 165.261934 
L 321.579991 165.261934 
L 320.050525 165.261934 
L 318.52106 165.261934 
L 316.991594 165.261934 
L 315.462129 165.261934 
L 313.932663 165.261934 
L 312.403198 165.261934 
L 310.873732 165.261934 
L 309.344267 165.261934 
L 307.814801 165.261934 
L 306.285336 165.261934 
L 304.75587 165.261934 
L 303.226405 165.261934 
L 301.696939 165.261934 
L 300.167474 165.261934 
L 298.638008 165.261934 
L 297.108543 165.261934 
L 295.579077 165.261934 
L 294.049612 165.261934 
L 292.520146 165.261934 
L 290.990681 165.261934 
L 289.461215 165.261934 
L 287.93175 165.261934 
L 286.402284 165.261934 
L 284.872819 165.261934 
L 283.343353 165.261934 
L 281.813888 165.261934 
L 280.284422 165.261934 
L 278.754957 165.261934 
L 277.225491 165.261934 
L 275.696026 165.261934 
L 274.16656 165.261934 
L 272.637095 165.261934 
L 271.107629 165.261934 
L 269.578164 165.261934 
L 268.048698 165.261934 
L 266.519233 165.261934 
L 264.989767 165.261934 
L 263.460302 165.261934 
L 261.930836 165.261934 
L 260.40137 165.261934 
L 258.871905 165.261934 
L 257.342439 165.261934 
L 255.812974 165.261934 
L 254.283508 165.261934 
L 252.754043 165.261934 
L 251.224577 165.261934 
L 249.695112 165.261934 
L 248.165646 165.261934 
L 246.636181 165.261934 
L 245.106715 165.261934 
L 243.57725 165.261934 
L 242.047784 165.261934 
L 240.518319 165.261934 
L 238.988853 165.261934 
L 237.459388 165.261934 
L 235.929922 165.261934 
L 234.400457 165.261934 
L 232.870991 165.261934 
L 231.341526 165.261934 
L 229.81206 165.261934 
L 228.282595 165.261934 
L 226.753129 165.261934 
L 225.223664 165.261934 
L 223.694198 165.261934 
L 222.164733 165.261934 
L 220.635267 165.261934 
L 219.105802 165.261934 
L 217.576336 165.261934 
L 216.046871 165.261934 
L 214.517405 165.261934 
L 212.98794 165.261934 
L 211.458474 165.261934 
L 209.929009 165.261934 
L 208.399543 165.261934 
L 206.870078 165.261934 
L 205.340612 165.261934 
L 203.811147 165.261934 
L 202.281681 165.261934 
L 200.752216 165.261934 
L 199.22275 165.261934 
L 197.693285 165.261934 
L 196.163819 165.261934 
L 194.634354 165.261934 
L 193.104888 165.261934 
L 191.575423 165.261934 
L 190.045957 165.261934 
L 188.516492 165.261934 
L 186.987026 165.261934 
L 185.457561 165.261934 
L 183.928095 165.261934 
L 182.39863 165.261934 
L 180.869164 165.261934 
L 179.339698 165.261934 
L 177.810233 165.261934 
L 176.280767 165.261934 
L 174.751302 165.261934 
L 173.221836 165.261934 
L 171.692371 165.261934 
L 170.162905 165.261934 
L 168.63344 165.261934 
L 167.103974 165.261934 
L 165.574509 165.261934 
L 164.045043 165.261934 
L 162.515578 165.261934 
L 160.986112 165.261934 
L 159.456647 165.261934 
L 157.927181 165.261934 
L 156.397716 165.261934 
L 154.86825 165.261934 
L 153.338785 165.261934 
L 151.809319 165.261934 
L 150.279854 165.261934 
L 148.750388 165.261934 
L 147.220923 165.261934 
L 145.691457 165.261934 
L 144.161992 165.261934 
L 142.632526 165.261934 
L 141.103061 165.261934 
L 139.573595 165.261934 
L 138.04413 165.261934 
L 136.514664 165.261934 
L 134.985199 165.261934 
L 133.455733 165.261934 
L 131.926268 165.261934 
L 130.396802 165.261934 
L 128.867337 165.261934 
L 127.337871 165.261934 
L 125.808406 165.261934 
L 124.27894 165.261934 
L 122.749475 165.261934 
L 121.220009 165.261934 
L 119.690544 165.261934 
L 118.161078 165.261934 
L 116.631613 165.261934 
L 115.102147 165.261934 
L 113.572682 165.261934 
L 112.043216 165.261934 
L 110.513751 165.261934 
L 108.984285 165.261934 
L 107.45482 165.261934 
L 105.925354 165.261934 
L 104.395889 165.261934 
L 102.866423 165.261934 
L 101.336958 165.261934 
L 99.807492 165.261934 
L 98.278026 165.261934 
L 96.748561 165.261934 
L 95.219095 165.261934 
L 93.68963 165.261934 
L 92.160164 165.261934 
L 90.630699 165.261934 
L 89.101233 165.261934 
L 87.571768 165.261934 
L 86.042302 165.261934 
L 84.512837 165.261934 
L 82.983371 165.261934 
L 81.453906 165.261934 
L 79.92444 165.261934 
L 78.394975 165.261934 
L 76.865509 165.261934 
L 75.336044 165.261934 
L 73.806578 165.261934 
L 72.277113 165.261934 
L 70.747647 165.261934 
L 69.218182 165.261934 
z
" clip-path="url(#p85a7ecb434)" style="fill: #ff7f0e; fill-opacity: 0.5"/>
   </g>
   <g id="matplotlib.axis_1">
    <g id="xtick_1">
     <g id="line2d_1">
      <defs>
       <path id="m8321228527" d="M 0 0 
L 0 3.5 
" style="stroke: #000000; stroke-width: 0.8"/>
      </defs>
      <g>
       <use xlink:href="#m8321228527" x="69.218182" y="252" style="stroke: #000000; stroke-width: 0.8"/>
      </g>
     </g>
     <g id="text_1">
      <!-- 0 -->
      <g transform="translate(66.036932 266.598437)scale(0.1 -0.1)">
       <defs>
        <path id="DejaVuSans-30" d="M 2034 4250 
Q 1547 4250 1301 3770 
Q 1056 3291 1056 2328 
Q 1056 1369 1301 889 
Q 1547 409 2034 409 
Q 2525 409 2770 889 
Q 3016 1369 3016 2328 
Q 3016 3291 2770 3770 
Q 2525 4250 2034 4250 
z
M 2034 4750 
Q 2819 4750 3233 4129 
Q 3647 3509 3647 2328 
Q 3647 1150 3233 529 
Q 2819 -91 2034 -91 
Q 1250 -91 836 529 
Q 422 1150 422 2328 
Q 422 3509 836 4129 
Q 1250 4750 2034 4750 
z
" transform="scale(0.015625)"/>
       </defs>
       <use xlink:href="#DejaVuSans-30"/>
      </g>
     </g>
    </g>
    <g id="xtick_2">
     <g id="line2d_2">
      <g>
       <use xlink:href="#m8321228527" x="107.45482" y="252" style="stroke: #000000; stroke-width: 0.8"/>
      </g>
     </g>
     <g id="text_2">
      <!-- 25 -->
      <g transform="translate(101.09232 266.598437)scale(0.1 -0.1)">
       <defs>
        <path id="DejaVuSans-32" d="M 1228 531 
L 3431 531 
L 3431 0 
L 469 0 
L 469 531 
Q 828 903 1448 1529 
Q 2069 2156 2228 2338 
Q 2531 2678 2651 2914 
Q 2772 3150 2772 3378 
Q 2772 3750 2511 3984 
Q 2250 4219 1831 4219 
Q 1534 4219 1204 4116 
Q 875 4013 500 3803 
L 500 4441 
Q 881 4594 1212 4672 
Q 1544 4750 1819 4750 
Q 2544 4750 2975 4387 
Q 3406 4025 3406 3419 
Q 3406 3131 3298 2873 
Q 3191 2616 2906 2266 
Q 2828 2175 2409 1742 
Q 1991 1309 1228 531 
z
" transform="scale(0.015625)"/>
        <path id="DejaVuSans-35" d="M 691 4666 
L 3169 4666 
L 3169 4134 
L 1269 4134 
L 1269 2991 
Q 1406 3038 1543 3061 
Q 1681 3084 1819 3084 
Q 2600 3084 3056 2656 
Q 3513 2228 3513 1497 
Q 3513 744 3044 326 
Q 2575 -91 1722 -91 
Q 1428 -91 1123 -41 
Q 819 9 494 109 
L 494 744 
Q 775 591 1075 516 
Q 1375 441 1709 441 
Q 2250 441 2565 725 
Q 2881 1009 2881 1497 
Q 2881 1984 2565 2268 
Q 2250 2553 1709 2553 
Q 1456 2553 1204 2497 
Q 953 2441 691 2322 
L 691 4666 
z
" transform="scale(0.015625)"/>
       </defs>
       <use xlink:href="#DejaVuSans-32"/>
       <use xlink:href="#DejaVuSans-35" x="63.623047"/>
      </g>
     </g>
    </g>
    <g id="xtick_3">
     <g id="line2d_3">
      <g>
       <use xlink:href="#m8321228527" x="145.691457" y="252" style="stroke: #000000; stroke-width: 0.8"/>
      </g>
     </g>
     <g id="text_3">
      <!-- 50 -->
      <g transform="translate(139.328957 266.598437)scale(0.1 -0.1)">
       <use xlink:href="#DejaVuSans-35"/>
       <use xlink:href="#DejaVuSans-30" x="63.623047"/>
      </g>
     </g>
    </g>
    <g id="xtick_4">
     <g id="line2d_4">
      <g>
       <use xlink:href="#m8321228527" x="183.928095" y="252" style="stroke: #000000; stroke-width: 0.8"/>
      </g>
     </g>
     <g id="text_4">
      <!-- 75 -->
      <g transform="translate(177.565595 266.598437)scale(0.1 -0.1)">
       <defs>
        <path id="DejaVuSans-37" d="M 525 4666 
L 3525 4666 
L 3525 4397 
L 1831 0 
L 1172 0 
L 2766 4134 
L 525 4134 
L 525 4666 
z
" transform="scale(0.015625)"/>
       </defs>
       <use xlink:href="#DejaVuSans-37"/>
       <use xlink:href="#DejaVuSans-35" x="63.623047"/>
      </g>
     </g>
    </g>
    <g id="xtick_5">
     <g id="line2d_5">
      <g>
       <use xlink:href="#m8321228527" x="222.164733" y="252" style="stroke: #000000; stroke-width: 0.8"/>
      </g>
     </g>
     <g id="text_5">
      <!-- 100 -->
      <g transform="translate(212.620983 266.598437)scale(0.1 -0.1)">
       <defs>
        <path id="DejaVuSans-31" d="M 794 531 
L 1825 531 
L 1825 4091 
L 703 3866 
L 703 4441 
L 1819 4666 
L 2450 4666 
L 2450 531 
L 3481 531 
L 3481 0 
L 794 0 
L 794 531 
z
" transform="scale(0.015625)"/>
       </defs>
       <use xlink:href="#DejaVuSans-31"/>
       <use xlink:href="#DejaVuSans-30" x="63.623047"/>
       <use xlink:href="#DejaVuSans-30" x="127.246094"/>
      </g>
     </g>
    </g>
    <g id="xtick_6">
     <g id="line2d_6">
      <g>
       <use xlink:href="#m8321228527" x="260.40137" y="252" style="stroke: #000000; stroke-width: 0.8"/>
      </g>
     </g>
     <g id="text_6">
      <!-- 125 -->
      <g transform="translate(250.85762 266.598437)scale(0.1 -0.1)">
       <use xlink:href="#DejaVuSans-31"/>
       <use xlink:href="#DejaVuSans-32" x="63.623047"/>
       <use xlink:href="#DejaVuSans-35" x="127.246094"/>
      </g>
     </g>
    </g>
    <g id="xtick_7">
     <g id="line2d_7">
      <g>
       <use xlink:href="#m8321228527" x="298.638008" y="252" style="stroke: #000000; stroke-width: 0.8"/>
      </g>
     </g>
     <g id="text_7">
      <!-- 150 -->
      <g transform="translate(289.094258 266.598437)scale(0.1 -0.1)">
       <use xlink:href="#DejaVuSans-31"/>
       <use xlink:href="#DejaVuSans-35" x="63.623047"/>
       <use xlink:href="#DejaVuSans-30" x="127.246094"/>
      </g>
     </g>
    </g>
    <g id="xtick_8">
     <g id="line2d_8">
      <g>
       <use xlink:href="#m8321228527" x="336.874646" y="252" style="stroke: #000000; stroke-width: 0.8"/>
      </g>
     </g>
     <g id="text_8">
      <!-- 175 -->
      <g transform="translate(327.330896 266.598437)scale(0.1 -0.1)">
       <use xlink:href="#DejaVuSans-31"/>
       <use xlink:href="#DejaVuSans-37" x="63.623047"/>
       <use xlink:href="#DejaVuSans-35" x="127.246094"/>
      </g>
     </g>
    </g>
    <g id="xtick_9">
     <g id="line2d_9">
      <g>
       <use xlink:href="#m8321228527" x="375.111284" y="252" style="stroke: #000000; stroke-width: 0.8"/>
      </g>
     </g>
     <g id="text_9">
      <!-- 200 -->
      <g transform="translate(365.567534 266.598437)scale(0.1 -0.1)">
       <use xlink:href="#DejaVuSans-32"/>
       <use xlink:href="#DejaVuSans-30" x="63.623047"/>
       <use xlink:href="#DejaVuSans-30" x="127.246094"/>
      </g>
     </g>
    </g>
    <g id="text_10">
     <!-- Generation -->
     <g transform="translate(193.507031 280.276563)scale(0.1 -0.1)">
      <defs>
       <path id="DejaVuSans-47" d="M 3809 666 
L 3809 1919 
L 2778 1919 
L 2778 2438 
L 4434 2438 
L 4434 434 
Q 4069 175 3628 42 
Q 3188 -91 2688 -91 
Q 1594 -91 976 548 
Q 359 1188 359 2328 
Q 359 3472 976 4111 
Q 1594 4750 2688 4750 
Q 3144 4750 3555 4637 
Q 3966 4525 4313 4306 
L 4313 3634 
Q 3963 3931 3569 4081 
Q 3175 4231 2741 4231 
Q 1884 4231 1454 3753 
Q 1025 3275 1025 2328 
Q 1025 1384 1454 906 
Q 1884 428 2741 428 
Q 3075 428 3337 486 
Q 3600 544 3809 666 
z
" transform="scale(0.015625)"/>
       <path id="DejaVuSans-65" d="M 3597 1894 
L 3597 1613 
L 953 1613 
Q 991 1019 1311 708 
Q 1631 397 2203 397 
Q 2534 397 2845 478 
Q 3156 559 3463 722 
L 3463 178 
Q 3153 47 2828 -22 
Q 2503 -91 2169 -91 
Q 1331 -91 842 396 
Q 353 884 353 1716 
Q 353 2575 817 3079 
Q 1281 3584 2069 3584 
Q 2775 3584 3186 3129 
Q 3597 2675 3597 1894 
z
M 3022 2063 
Q 3016 2534 2758 2815 
Q 2500 3097 2075 3097 
Q 1594 3097 1305 2825 
Q 1016 2553 972 2059 
L 3022 2063 
z
" transform="scale(0.015625)"/>
       <path id="DejaVuSans-6e" d="M 3513 2113 
L 3513 0 
L 2938 0 
L 2938 2094 
Q 2938 2591 2744 2837 
Q 2550 3084 2163 3084 
Q 1697 3084 1428 2787 
Q 1159 2491 1159 1978 
L 1159 0 
L 581 0 
L 581 3500 
L 1159 3500 
L 1159 2956 
Q 1366 3272 1645 3428 
Q 1925 3584 2291 3584 
Q 2894 3584 3203 3211 
Q 3513 2838 3513 2113 
z
" transform="scale(0.015625)"/>
       <path id="DejaVuSans-72" d="M 2631 2963 
Q 2534 3019 2420 3045 
Q 2306 3072 2169 3072 
Q 1681 3072 1420 2755 
Q 1159 2438 1159 1844 
L 1159 0 
L 581 0 
L 581 3500 
L 1159 3500 
L 1159 2956 
Q 1341 3275 1631 3429 
Q 1922 3584 2338 3584 
Q 2397 3584 2469 3576 
Q 2541 3569 2628 3553 
L 2631 2963 
z
" transform="scale(0.015625)"/>
       <path id="DejaVuSans-61" d="M 2194 1759 
Q 1497 1759 1228 1600 
Q 959 1441 959 1056 
Q 959 750 1161 570 
Q 1363 391 1709 391 
Q 2188 391 2477 730 
Q 2766 1069 2766 1631 
L 2766 1759 
L 2194 1759 
z
M 3341 1997 
L 3341 0 
L 2766 0 
L 2766 531 
Q 2569 213 2275 61 
Q 1981 -91 1556 -91 
Q 1019 -91 701 211 
Q 384 513 384 1019 
Q 384 1609 779 1909 
Q 1175 2209 1959 2209 
L 2766 2209 
L 2766 2266 
Q 2766 2663 2505 2880 
Q 2244 3097 1772 3097 
Q 1472 3097 1187 3025 
Q 903 2953 641 2809 
L 641 3341 
Q 956 3463 1253 3523 
Q 1550 3584 1831 3584 
Q 2591 3584 2966 3190 
Q 3341 2797 3341 1997 
z
" transform="scale(0.015625)"/>
       <path id="DejaVuSans-74" d="M 1172 4494 
L 1172 3500 
L 2356 3500 
L 2356 3053 
L 1172 3053 
L 1172 1153 
Q 1172 725 1289 603 
Q 1406 481 1766 481 
L 2356 481 
L 2356 0 
L 1766 0 
Q 1100 0 847 248 
Q 594 497 594 1153 
L 594 3053 
L 172 3053 
L 172 3500 
L 594 3500 
L 594 4494 
L 1172 4494 
z
" transform="scale(0.015625)"/>
       <path id="DejaVuSans-69" d="M 603 3500 
L 1178 3500 
L 1178 0 
L 603 0 
L 603 3500 
z
M 603 4863 
L 1178 4863 
L 1178 4134 
L 603 4134 
L 603 4863 
z
" transform="scale(0.015625)"/>
       <path id="DejaVuSans-6f" d="M 1959 3097 
Q 1497 3097 1228 2736 
Q 959 2375 959 1747 
Q 959 1119 1226 758 
Q 1494 397 1959 397 
Q 2419 397 2687 759 
Q 2956 1122 2956 1747 
Q 2956 2369 2687 2733 
Q 2419 3097 1959 3097 
z
M 1959 3584 
Q 2709 3584 3137 3096 
Q 3566 2609 3566 1747 
Q 3566 888 3137 398 
Q 2709 -91 1959 -91 
Q 1206 -91 779 398 
Q 353 888 353 1747 
Q 353 2609 779 3096 
Q 1206 3584 1959 3584 
z
" transform="scale(0.015625)"/>
      </defs>
      <use xlink:href="#DejaVuSans-47"/>
      <use xlink:href="#DejaVuSans-65" x="77.490234"/>
      <use xlink:href="#DejaVuSans-6e" x="139.013672"/>
      <use xlink:href="#DejaVuSans-65" x="202.392578"/>
      <use xlink:href="#DejaVuSans-72" x="263.916016"/>
      <use xlink:href="#DejaVuSans-61" x="305.029297"/>
      <use xlink:href="#DejaVuSans-74" x="366.308594"/>
      <use xlink:href="#DejaVuSans-69" x="405.517578"/>
      <use xlink:href="#DejaVuSans-6f" x="433.300781"/>
      <use xlink:href="#DejaVuSans-6e" x="494.482422"/>
     </g>
    </g>
   </g>
   <g id="matplotlib.axis_2">
    <g id="ytick_1">
     <g id="line2d_10">
      <defs>
       <path id="m6616becd0f" d="M 0 0 
L -3.5 0 
" style="stroke: #000000; stroke-width: 0.8"/>
      </defs>
      <g>
       <use xlink:href="#m6616becd0f" x="54" y="230.256" style="stroke: #000000; stroke-width: 0.8"/>
      </g>
     </g>
     <g id="text_11">
      <!-- 5 -->
      <g transform="translate(40.6375 234.055219)scale(0.1 -0.1)">
       <use xlink:href="#DejaVuSans-35"/>
      </g>
     </g>
    </g>
    <g id="ytick_2">
     <g id="line2d_11">
      <g>
       <use xlink:href="#m6616becd0f" x="54" y="186.768" style="stroke: #000000; stroke-width: 0.8"/>
      </g>
     </g>
     <g id="text_12">
      <!-- 6 -->
      <g transform="translate(40.6375 190.567219)scale(0.1 -0.1)">
       <defs>
        <path id="DejaVuSans-36" d="M 2113 2584 
Q 1688 2584 1439 2293 
Q 1191 2003 1191 1497 
Q 1191 994 1439 701 
Q 1688 409 2113 409 
Q 2538 409 2786 701 
Q 3034 994 3034 1497 
Q 3034 2003 2786 2293 
Q 2538 2584 2113 2584 
z
M 3366 4563 
L 3366 3988 
Q 3128 4100 2886 4159 
Q 2644 4219 2406 4219 
Q 1781 4219 1451 3797 
Q 1122 3375 1075 2522 
Q 1259 2794 1537 2939 
Q 1816 3084 2150 3084 
Q 2853 3084 3261 2657 
Q 3669 2231 3669 1497 
Q 3669 778 3244 343 
Q 2819 -91 2113 -91 
Q 1303 -91 875 529 
Q 447 1150 447 2328 
Q 447 3434 972 4092 
Q 1497 4750 2381 4750 
Q 2619 4750 2861 4703 
Q 3103 4656 3366 4563 
z
" transform="scale(0.015625)"/>
       </defs>
       <use xlink:href="#DejaVuSans-36"/>
      </g>
     </g>
    </g>
    <g id="ytick_3">
     <g id="line2d_12">
      <g>
       <use xlink:href="#m6616becd0f" x="54" y="143.28" style="stroke: #000000; stroke-width: 0.8"/>
      </g>
     </g>
     <g id="text_13">
      <!-- 7 -->
      <g transform="translate(40.6375 147.079219)scale(0.1 -0.1)">
       <use xlink:href="#DejaVuSans-37"/>
      </g>
     </g>
    </g>
    <g id="ytick_4">
     <g id="line2d_13">
      <g>
       <use xlink:href="#m6616becd0f" x="54" y="99.792" style="stroke: #000000; stroke-width: 0.8"/>
      </g>
     </g>
     <g id="text_14">
      <!-- 8 -->
      <g transform="translate(40.6375 103.591219)scale(0.1 -0.1)">
       <defs>
        <path id="DejaVuSans-38" d="M 2034 2216 
Q 1584 2216 1326 1975 
Q 1069 1734 1069 1313 
Q 1069 891 1326 650 
Q 1584 409 2034 409 
Q 2484 409 2743 651 
Q 3003 894 3003 1313 
Q 3003 1734 2745 1975 
Q 2488 2216 2034 2216 
z
M 1403 2484 
Q 997 2584 770 2862 
Q 544 3141 544 3541 
Q 544 4100 942 4425 
Q 1341 4750 2034 4750 
Q 2731 4750 3128 4425 
Q 3525 4100 3525 3541 
Q 3525 3141 3298 2862 
Q 3072 2584 2669 2484 
Q 3125 2378 3379 2068 
Q 3634 1759 3634 1313 
Q 3634 634 3220 271 
Q 2806 -91 2034 -91 
Q 1263 -91 848 271 
Q 434 634 434 1313 
Q 434 1759 690 2068 
Q 947 2378 1403 2484 
z
M 1172 3481 
Q 1172 3119 1398 2916 
Q 1625 2713 2034 2713 
Q 2441 2713 2670 2916 
Q 2900 3119 2900 3481 
Q 2900 3844 2670 4047 
Q 2441 4250 2034 4250 
Q 1625 4250 1398 4047 
Q 1172 3844 1172 3481 
z
" transform="scale(0.015625)"/>
       </defs>
       <use xlink:href="#DejaVuSans-38"/>
      </g>
     </g>
    </g>
    <g id="ytick_5">
     <g id="line2d_14">
      <g>
       <use xlink:href="#m6616becd0f" x="54" y="56.304" style="stroke: #000000; stroke-width: 0.8"/>
      </g>
     </g>
     <g id="text_15">
      <!-- 9 -->
      <g transform="translate(40.6375 60.103219)scale(0.1 -0.1)">
       <defs>
        <path id="DejaVuSans-39" d="M 703 97 
L 703 672 
Q 941 559 1184 500 
Q 1428 441 1663 441 
Q 2288 441 2617 861 
Q 2947 1281 2994 2138 
Q 2813 1869 2534 1725 
Q 2256 1581 1919 1581 
Q 1219 1581 811 2004 
Q 403 2428 403 3163 
Q 403 3881 828 4315 
Q 1253 4750 1959 4750 
Q 2769 4750 3195 4129 
Q 3622 3509 3622 2328 
Q 3622 1225 3098 567 
Q 2575 -91 1691 -91 
Q 1453 -91 1209 -44 
Q 966 3 703 97 
z
M 1959 2075 
Q 2384 2075 2632 2365 
Q 2881 2656 2881 3163 
Q 2881 3666 2632 3958 
Q 2384 4250 1959 4250 
Q 1534 4250 1286 3958 
Q 1038 3666 1038 3163 
Q 1038 2656 1286 2365 
Q 1534 2075 1959 2075 
z
" transform="scale(0.015625)"/>
       </defs>
       <use xlink:href="#DejaVuSans-39"/>
      </g>
     </g>
    </g>
    <g id="text_16">
     <!-- Best Fitness -->
     <g transform="translate(34.557812 173.258125)rotate(-90)scale(0.1 -0.1)">
      <defs>
       <path id="DejaVuSans-42" d="M 1259 2228 
L 1259 519 
L 2272 519 
Q 2781 519 3026 730 
Q 3272 941 3272 1375 
Q 3272 1813 3026 2020 
Q 2781 2228 2272 2228 
L 1259 2228 
z
M 1259 4147 
L 1259 2741 
L 2194 2741 
Q 2656 2741 2882 2914 
Q 3109 3088 3109 3444 
Q 3109 3797 2882 3972 
Q 2656 4147 2194 4147 
L 1259 4147 
z
M 628 4666 
L 2241 4666 
Q 2963 4666 3353 4366 
Q 3744 4066 3744 3513 
Q 3744 3084 3544 2831 
Q 3344 2578 2956 2516 
Q 3422 2416 3680 2098 
Q 3938 1781 3938 1306 
Q 3938 681 3513 340 
Q 3088 0 2303 0 
L 628 0 
L 628 4666 
z
" transform="scale(0.015625)"/>
       <path id="DejaVuSans-73" d="M 2834 3397 
L 2834 2853 
Q 2591 2978 2328 3040 
Q 2066 3103 1784 3103 
Q 1356 3103 1142 2972 
Q 928 2841 928 2578 
Q 928 2378 1081 2264 
Q 1234 2150 1697 2047 
L 1894 2003 
Q 2506 1872 2764 1633 
Q 3022 1394 3022 966 
Q 3022 478 2636 193 
Q 2250 -91 1575 -91 
Q 1294 -91 989 -36 
Q 684 19 347 128 
L 347 722 
Q 666 556 975 473 
Q 1284 391 1588 391 
Q 1994 391 2212 530 
Q 2431 669 2431 922 
Q 2431 1156 2273 1281 
Q 2116 1406 1581 1522 
L 1381 1569 
Q 847 1681 609 1914 
Q 372 2147 372 2553 
Q 372 3047 722 3315 
Q 1072 3584 1716 3584 
Q 2034 3584 2315 3537 
Q 2597 3491 2834 3397 
z
" transform="scale(0.015625)"/>
       <path id="DejaVuSans-20" transform="scale(0.015625)"/>
       <path id="DejaVuSans-46" d="M 628 4666 
L 3309 4666 
L 3309 4134 
L 1259 4134 
L 1259 2759 
L 3109 2759 
L 3109 2228 
L 1259 2228 
L 1259 0 
L 628 0 
L 628 4666 
z
" transform="scale(0.015625)"/>
      </defs>
      <use xlink:href="#DejaVuSans-42"/>
      <use xlink:href="#DejaVuSans-65" x="68.603516"/>
      <use xlink:href="#DejaVuSans-73" x="130.126953"/>
      <use xlink:href="#DejaVuSans-74" x="182.226562"/>
      <use xlink:href="#DejaVuSans-20" x="221.435547"/>
      <use xlink:href="#DejaVuSans-46" x="253.222656"/>
      <use xlink:href="#DejaVuSans-69" x="303.492188"/>
      <use xlink:href="#DejaVuSans-74" x="331.275391"/>
      <use xlink:href="#DejaVuSans-6e" x="370.484375"/>
      <use xlink:href="#DejaVuSans-65" x="433.863281"/>
      <use xlink:href="#DejaVuSans-73" x="495.386719"/>
      <use xlink:href="#DejaVuSans-73" x="547.486328"/>
     </g>
    </g>
   </g>
   <g id="line2d_15">
    <path d="M 69.218182 138.778992 
L 70.747647 134.430192 
L 72.277113 132.364512 
L 73.806578 132.29928 
L 75.336044 130.331448 
L 76.865509 128.885472 
L 78.394975 127.73304 
L 79.92444 128.49408 
L 81.453906 127.254672 
L 82.983371 126.297936 
L 86.042302 121.329432 
L 87.571768 118.415736 
L 89.101233 117.56772 
L 90.630699 118.948464 
L 92.160164 118.894104 
L 93.68963 118.361376 
L 95.219095 117.545976 
L 96.748561 117.763416 
L 98.278026 116.524008 
L 99.807492 115.436808 
L 102.866423 116.415288 
L 104.395889 116.545752 
L 105.925354 114.599664 
L 107.45482 114.132168 
L 108.984285 114.588792 
L 110.513751 115.469424 
L 112.043216 113.49072 
L 113.572682 113.577696 
L 115.102147 112.62096 
L 116.631613 112.903632 
L 118.161078 111.31632 
L 119.690544 113.468976 
L 121.220009 113.338512 
L 122.749475 114.273504 
L 124.27894 112.338288 
L 127.337871 112.751424 
L 130.396802 109.837728 
L 131.926268 109.185408 
L 133.455733 108.772272 
L 134.985199 107.946 
L 136.514664 110.22912 
L 138.04413 108.478728 
L 139.573595 108.4896 
L 141.103061 109.065816 
L 142.632526 109.457208 
L 144.161992 110.88144 
L 145.691457 108.206928 
L 147.220923 108.663552 
L 148.750388 109.370232 
L 150.279854 108.97884 
L 151.809319 109.14192 
L 153.338785 107.4024 
L 154.86825 108.16344 
L 156.397716 108.750528 
L 157.927181 108.478728 
L 159.456647 106.956648 
L 160.986112 106.010784 
L 162.515578 106.978392 
L 164.045043 105.369336 
L 165.574509 105.369336 
L 167.103974 105.043176 
L 168.63344 105.217128 
L 170.162905 103.749408 
L 171.692371 104.608296 
L 173.221836 104.782248 
L 174.751302 103.618944 
L 176.280767 101.161872 
L 177.810233 101.716344 
L 179.339698 102.94488 
L 180.869164 100.748736 
L 182.39863 101.509776 
L 183.928095 101.629368 
L 185.457561 101.542392 
L 186.987026 99.487584 
L 188.516492 102.270816 
L 190.045957 104.162544 
L 191.575423 102.2382 
L 193.104888 101.716344 
L 194.634354 102.34692 
L 196.163819 102.118608 
L 197.693285 102.879648 
L 199.22275 100.129032 
L 200.752216 99.30276 
L 202.281681 99.009216 
L 203.811147 100.835712 
L 205.340612 99.715896 
L 206.870078 97.030512 
L 208.399543 97.791552 
L 209.929009 98.7048 
L 211.458474 96.030288 
L 212.98794 95.801976 
L 214.517405 96.20424 
L 216.046871 96.20424 
L 217.576336 94.758264 
L 219.105802 95.595408 
L 220.635267 97.389288 
L 222.164733 96.780456 
L 223.694198 95.758488 
L 225.223664 95.541048 
L 226.753129 95.628024 
L 228.282595 95.519304 
L 229.81206 93.475368 
L 231.341526 97.487136 
L 232.870991 95.834592 
L 234.400457 95.595408 
L 235.929922 97.987248 
L 237.459388 95.747616 
L 238.988853 94.562568 
L 240.518319 95.1714 
L 242.047784 95.084424 
L 243.57725 94.540824 
L 245.106715 95.28012 
L 246.636181 97.23708 
L 248.165646 95.617152 
L 249.695112 96.682608 
L 251.224577 96.780456 
L 252.754043 94.008096 
L 254.283508 96.36732 
L 255.812974 95.290992 
L 257.342439 98.519976 
L 258.871905 94.780008 
L 260.40137 95.628024 
L 261.930836 94.269024 
L 263.460302 95.00832 
L 264.989767 93.845016 
L 266.519233 94.812624 
L 268.048698 95.60628 
L 269.578164 95.704128 
L 271.107629 94.57344 
L 272.637095 96.215112 
L 274.16656 96.247728 
L 275.696026 95.182272 
L 277.225491 92.192472 
L 278.754957 93.605832 
L 280.284422 93.149208 
L 281.813888 93.007872 
L 283.343353 93.083976 
L 284.872819 93.681936 
L 286.402284 93.464496 
L 287.93175 91.648872 
L 289.461215 94.203792 
L 290.990681 93.584088 
L 292.520146 94.68216 
L 294.049612 93.551472 
L 295.579077 94.0842 
L 297.108543 93.257928 
L 298.638008 93.660192 
L 300.167474 92.94264 
L 301.696939 93.790656 
L 303.226405 94.149432 
L 307.814801 91.127016 
L 309.344267 89.289648 
L 310.873732 91.724976 
L 312.403198 91.431432 
L 313.932663 91.757592 
L 315.462129 91.648872 
L 316.991594 90.909576 
L 318.52106 92.920896 
L 320.050525 89.68104 
L 321.579991 91.616256 
L 323.109456 91.996776 
L 324.638922 90.8226 
L 326.168387 88.474248 
L 327.697853 90.800856 
L 329.227318 90.572544 
L 330.756784 89.594064 
L 332.286249 90.365976 
L 333.815715 89.746272 
L 335.34518 90.757368 
L 336.874646 90.724752 
L 338.404111 89.768016 
L 339.933577 91.007424 
L 341.463042 90.681264 
L 342.992508 93.279672 
L 344.521974 91.985904 
L 346.051439 88.53948 
L 347.580905 90.279 
L 349.11037 91.409688 
L 350.639836 91.181376 
L 352.169301 89.659296 
L 353.698767 90.38772 
L 355.228232 89.78976 
L 356.757698 90.789984 
L 358.287163 90.137664 
L 359.816629 89.322264 
L 362.87556 90.181152 
L 364.405025 90.213768 
L 365.934491 89.963712 
L 367.463956 91.953288 
L 368.993422 88.952616 
L 370.522887 91.398816 
L 372.052353 88.506864 
L 373.581818 89.57232 
L 373.581818 89.57232 
" clip-path="url(#p85a7ecb434)" style="fill: none; stroke: #1f77b4; stroke-width: 1.5; stroke-linecap: square"/>
   </g>
   <g id="line2d_16">
    <path d="M 69.218182 164.58912 
L 373.581818 164.58912 
L 373.581818 164.58912 
" clip-path="url(#p85a7ecb434)" style="fill: none; stroke-dasharray: 5.55,2.4; stroke-dashoffset: 0; stroke: #ff7f0e; stroke-width: 1.5"/>
   </g>
   <g id="patch_3">
    <path d="M 54 252 
L 54 34.56 
" style="fill: none; stroke: #000000; stroke-width: 0.8; stroke-linejoin: miter; stroke-linecap: square"/>
   </g>
   <g id="patch_4">
    <path d="M 388.8 252 
L 388.8 34.56 
" style="fill: none; stroke: #000000; stroke-width: 0.8; stroke-linejoin: miter; stroke-linecap: square"/>
   </g>
   <g id="patch_5">
    <path d="M 54 252 
L 388.8 252 
" style="fill: none; stroke: #000000; stroke-width: 0.8; stroke-linejoin: miter; stroke-linecap: square"/>
   </g>
   <g id="patch_6">
    <path d="M 54 34.56 
L 388.8 34.56 
" style="fill: none; stroke: #000000; stroke-width: 0.8; stroke-linejoin: miter; stroke-linecap: square"/>
   </g>
   <g id="text_17">
    <!-- Barbell -->
    <g transform="translate(200.305313 28.56)scale(0.12 -0.12)">
     <defs>
      <path id="DejaVuSans-62" d="M 3116 1747 
Q 3116 2381 2855 2742 
Q 2594 3103 2138 3103 
Q 1681 3103 1420 2742 
Q 1159 2381 1159 1747 
Q 1159 1113 1420 752 
Q 1681 391 2138 391 
Q 2594 391 2855 752 
Q 3116 1113 3116 1747 
z
M 1159 2969 
Q 1341 3281 1617 3432 
Q 1894 3584 2278 3584 
Q 2916 3584 3314 3078 
Q 3713 2572 3713 1747 
Q 3713 922 3314 415 
Q 2916 -91 2278 -91 
Q 1894 -91 1617 61 
Q 1341 213 1159 525 
L 1159 0 
L 581 0 
L 581 4863 
L 1159 4863 
L 1159 2969 
z
" transform="scale(0.015625)"/>
      <path id="DejaVuSans-6c" d="M 603 4863 
L 1178 4863 
L 1178 0 
L 603 0 
L 603 4863 
z
" transform="scale(0.015625)"/>
     </defs>
     <use xlink:href="#DejaVuSans-42"/>
     <use xlink:href="#DejaVuSans-61" x="68.603516"/>
     <use xlink:href="#DejaVuSans-72" x="129.882812"/>
     <use xlink:href="#DejaVuSans-62" x="170.996094"/>
     <use xlink:href="#DejaVuSans-65" x="234.472656"/>
     <use xlink:href="#DejaVuSans-6c" x="295.996094"/>
     <use xlink:href="#DejaVuSans-6c" x="323.779297"/>
    </g>
   </g>
   <g id="legend_1">
    <g id="patch_7">
     <path d="M 61 71.91625 
L 217.648438 71.91625 
Q 219.648438 71.91625 219.648438 69.91625 
L 219.648438 41.56 
Q 219.648438 39.56 217.648438 39.56 
L 61 39.56 
Q 59 39.56 59 41.56 
L 59 69.91625 
Q 59 71.91625 61 71.91625 
z
" style="fill: #ffffff; opacity: 0.8; stroke: #cccccc; stroke-linejoin: miter"/>
    </g>
    <g id="line2d_17">
     <path d="M 63 47.658437 
L 73 47.658437 
L 83 47.658437 
" style="fill: none; stroke: #1f77b4; stroke-width: 1.5; stroke-linecap: square"/>
    </g>
    <g id="text_18">
     <!-- training on barbell graph -->
     <g transform="translate(91 51.158437)scale(0.1 -0.1)">
      <defs>
       <path id="DejaVuSans-67" d="M 2906 1791 
Q 2906 2416 2648 2759 
Q 2391 3103 1925 3103 
Q 1463 3103 1205 2759 
Q 947 2416 947 1791 
Q 947 1169 1205 825 
Q 1463 481 1925 481 
Q 2391 481 2648 825 
Q 2906 1169 2906 1791 
z
M 3481 434 
Q 3481 -459 3084 -895 
Q 2688 -1331 1869 -1331 
Q 1566 -1331 1297 -1286 
Q 1028 -1241 775 -1147 
L 775 -588 
Q 1028 -725 1275 -790 
Q 1522 -856 1778 -856 
Q 2344 -856 2625 -561 
Q 2906 -266 2906 331 
L 2906 616 
Q 2728 306 2450 153 
Q 2172 0 1784 0 
Q 1141 0 747 490 
Q 353 981 353 1791 
Q 353 2603 747 3093 
Q 1141 3584 1784 3584 
Q 2172 3584 2450 3431 
Q 2728 3278 2906 2969 
L 2906 3500 
L 3481 3500 
L 3481 434 
z
" transform="scale(0.015625)"/>
       <path id="DejaVuSans-70" d="M 1159 525 
L 1159 -1331 
L 581 -1331 
L 581 3500 
L 1159 3500 
L 1159 2969 
Q 1341 3281 1617 3432 
Q 1894 3584 2278 3584 
Q 2916 3584 3314 3078 
Q 3713 2572 3713 1747 
Q 3713 922 3314 415 
Q 2916 -91 2278 -91 
Q 1894 -91 1617 61 
Q 1341 213 1159 525 
z
M 3116 1747 
Q 3116 2381 2855 2742 
Q 2594 3103 2138 3103 
Q 1681 3103 1420 2742 
Q 1159 2381 1159 1747 
Q 1159 1113 1420 752 
Q 1681 391 2138 391 
Q 2594 391 2855 752 
Q 3116 1113 3116 1747 
z
" transform="scale(0.015625)"/>
       <path id="DejaVuSans-68" d="M 3513 2113 
L 3513 0 
L 2938 0 
L 2938 2094 
Q 2938 2591 2744 2837 
Q 2550 3084 2163 3084 
Q 1697 3084 1428 2787 
Q 1159 2491 1159 1978 
L 1159 0 
L 581 0 
L 581 4863 
L 1159 4863 
L 1159 2956 
Q 1366 3272 1645 3428 
Q 1925 3584 2291 3584 
Q 2894 3584 3203 3211 
Q 3513 2838 3513 2113 
z
" transform="scale(0.015625)"/>
      </defs>
      <use xlink:href="#DejaVuSans-74"/>
      <use xlink:href="#DejaVuSans-72" x="39.208984"/>
      <use xlink:href="#DejaVuSans-61" x="80.322266"/>
      <use xlink:href="#DejaVuSans-69" x="141.601562"/>
      <use xlink:href="#DejaVuSans-6e" x="169.384766"/>
      <use xlink:href="#DejaVuSans-69" x="232.763672"/>
      <use xlink:href="#DejaVuSans-6e" x="260.546875"/>
      <use xlink:href="#DejaVuSans-67" x="323.925781"/>
      <use xlink:href="#DejaVuSans-20" x="387.402344"/>
      <use xlink:href="#DejaVuSans-6f" x="419.189453"/>
      <use xlink:href="#DejaVuSans-6e" x="480.371094"/>
      <use xlink:href="#DejaVuSans-20" x="543.75"/>
      <use xlink:href="#DejaVuSans-62" x="575.537109"/>
      <use xlink:href="#DejaVuSans-61" x="639.013672"/>
      <use xlink:href="#DejaVuSans-72" x="700.292969"/>
      <use xlink:href="#DejaVuSans-62" x="741.40625"/>
      <use xlink:href="#DejaVuSans-65" x="804.882812"/>
      <use xlink:href="#DejaVuSans-6c" x="866.40625"/>
      <use xlink:href="#DejaVuSans-6c" x="894.189453"/>
      <use xlink:href="#DejaVuSans-20" x="921.972656"/>
      <use xlink:href="#DejaVuSans-67" x="953.759766"/>
      <use xlink:href="#DejaVuSans-72" x="1017.236328"/>
      <use xlink:href="#DejaVuSans-61" x="1058.349609"/>
      <use xlink:href="#DejaVuSans-70" x="1119.628906"/>
      <use xlink:href="#DejaVuSans-68" x="1183.105469"/>
     </g>
    </g>
    <g id="line2d_18">
     <path d="M 63 62.336562 
L 73 62.336562 
L 83 62.336562 
" style="fill: none; stroke-dasharray: 5.55,2.4; stroke-dashoffset: 0; stroke: #ff7f0e; stroke-width: 1.5"/>
    </g>
    <g id="text_19">
     <!-- transfer learning -->
     <g transform="translate(91 65.836562)scale(0.1 -0.1)">
      <defs>
       <path id="DejaVuSans-66" d="M 2375 4863 
L 2375 4384 
L 1825 4384 
Q 1516 4384 1395 4259 
Q 1275 4134 1275 3809 
L 1275 3500 
L 2222 3500 
L 2222 3053 
L 1275 3053 
L 1275 0 
L 697 0 
L 697 3053 
L 147 3053 
L 147 3500 
L 697 3500 
L 697 3744 
Q 697 4328 969 4595 
Q 1241 4863 1831 4863 
L 2375 4863 
z
" transform="scale(0.015625)"/>
      </defs>
      <use xlink:href="#DejaVuSans-74"/>
      <use xlink:href="#DejaVuSans-72" x="39.208984"/>
      <use xlink:href="#DejaVuSans-61" x="80.322266"/>
      <use xlink:href="#DejaVuSans-6e" x="141.601562"/>
      <use xlink:href="#DejaVuSans-73" x="204.980469"/>
      <use xlink:href="#DejaVuSans-66" x="257.080078"/>
      <use xlink:href="#DejaVuSans-65" x="292.285156"/>
      <use xlink:href="#DejaVuSans-72" x="353.808594"/>
      <use xlink:href="#DejaVuSans-20" x="394.921875"/>
      <use xlink:href="#DejaVuSans-6c" x="426.708984"/>
      <use xlink:href="#DejaVuSans-65" x="454.492188"/>
      <use xlink:href="#DejaVuSans-61" x="516.015625"/>
      <use xlink:href="#DejaVuSans-72" x="577.294922"/>
      <use xlink:href="#DejaVuSans-6e" x="616.658203"/>
      <use xlink:href="#DejaVuSans-69" x="680.037109"/>
      <use xlink:href="#DejaVuSans-6e" x="707.820312"/>
      <use xlink:href="#DejaVuSans-67" x="771.199219"/>
     </g>
    </g>
   </g>
  </g>
 </g>
 <defs>
  <clipPath id="p85a7ecb434">
   <rect x="54" y="34.56" width="334.8" height="217.44"/>
  </clipPath>
 </defs>
</svg>
