<?xml version="1.0" encoding="utf-8" standalone="no"?>
<!DOCTYPE svg PUBLIC "-//W3C//DTD SVG 1.1//EN"
  "http://www.w3.org/Graphics/SVG/1.1/DTD/svg11.dtd">
<svg xmlns:xlink="http://www.w3.org/1999/xlink" width="432pt" height="288pt" viewBox="0 0 432 288" xmlns="http://www.w3.org/2000/svg" version="1.1">
 <metadata>
  <rdf:RDF xmlns:dc="http://purl.org/dc/elements/1.1/" xmlns:cc="http://creativecommons.org/ns#" xmlns:rdf="http://www.w3.org/1999/02/22-rdf-syntax-ns#">
   <cc:Work>
    <dc:type rdf:resource="http://purl.org/dc/dcmitype/StillImage"/>
    <dc:date>2023-06-27T09:26:55.469904</dc:date>
    <dc:format>image/svg+xml</dc:format>
    <dc:creator>
     <cc:Agent>
      <dc:title>Matplotlib v3.5.2, https://matplotlib.org/</dc:title>
     </cc:Agent>
    </dc:creator>
   </cc:Work>
  </rdf:RDF>
 </metadata>
 <defs>
  <style type="text/css">*{stroke-linejoin: round; stroke-linecap: butt}</style>
 </defs>
 <g id="figure_1">
  <g id="patch_1">
   <path d="M 0 288 
L 432 288 
L 432 0 
L 0 0 
L 0 288 
z
" style="fill: none"/>
  </g>
  <g id="axes_1">
   <g id="patch_2">
    <path d="M 54 252 
L 388.8 252 
L 388.8 34.56 
L 54 34.56 
z
" style="fill: #ffffff"/>
   </g>
   <g id="PolyCollection_1">
    <path d="M 69.218182 166.666084 
L 69.218182 165.334092 
L 70.747647 161.330894 
L 72.277113 159.540926 
L 73.806578 158.346755 
L 75.336044 156.073132 
L 76.865509 154.626291 
L 78.394975 153.186433 
L 79.92444 152.847951 
L 81.453906 152.417798 
L 82.983371 150.735473 
L 84.512837 150.803117 
L 86.042302 148.1996 
L 87.571768 147.429745 
L 89.101233 146.892486 
L 90.630699 147.275551 
L 92.160164 146.235471 
L 93.68963 145.299909 
L 95.219095 145.041181 
L 96.748561 145.598025 
L 98.278026 144.167807 
L 99.807492 144.246538 
L 101.336958 143.867425 
L 102.866423 142.457008 
L 104.395889 141.89833 
L 105.925354 143.166247 
L 107.45482 141.416335 
L 108.984285 143.038457 
L 110.513751 142.302594 
L 112.043216 142.522914 
L 113.572682 142.796207 
L 115.102147 141.520632 
L 116.631613 140.771246 
L 118.161078 141.852109 
L 119.690544 142.993083 
L 121.220009 143.220652 
L 122.749475 142.618892 
L 124.27894 141.692502 
L 125.808406 141.175756 
L 127.337871 142.63082 
L 128.867337 143.249117 
L 130.396802 142.83413 
L 131.926268 141.464154 
L 133.455733 142.243522 
L 134.985199 142.075498 
L 136.514664 143.379534 
L 138.04413 140.865888 
L 139.573595 139.843004 
L 141.103061 140.779379 
L 142.632526 140.153536 
L 144.161992 140.970558 
L 145.691457 139.825108 
L 147.220923 140.068378 
L 148.750388 140.227343 
L 150.279854 140.555047 
L 151.809319 140.530383 
L 153.338785 139.688254 
L 154.86825 141.178483 
L 156.397716 141.34669 
L 157.927181 140.176574 
L 159.456647 141.407398 
L 160.986112 140.282208 
L 162.515578 139.929669 
L 164.045043 139.592036 
L 165.574509 140.008972 
L 167.103974 140.318565 
L 168.63344 140.390806 
L 170.162905 140.593043 
L 171.692371 141.234533 
L 173.221836 139.684356 
L 174.751302 140.054138 
L 176.280767 139.987347 
L 177.810233 140.716063 
L 179.339698 140.266561 
L 180.869164 139.681661 
L 182.39863 139.344076 
L 183.928095 139.757239 
L 185.457561 139.877028 
L 186.987026 138.70097 
L 188.516492 137.813905 
L 190.045957 139.007151 
L 191.575423 139.729443 
L 193.104888 137.872394 
L 194.634354 138.838939 
L 196.163819 138.640045 
L 197.693285 138.780242 
L 199.22275 141.114496 
L 200.752216 140.360759 
L 202.281681 140.782618 
L 203.811147 139.692137 
L 205.340612 140.218189 
L 206.870078 140.24776 
L 208.399543 138.861456 
L 209.929009 139.907368 
L 211.458474 140.21719 
L 212.98794 137.868901 
L 214.517405 137.650898 
L 216.046871 137.736001 
L 217.576336 138.599897 
L 219.105802 138.1268 
L 220.635267 139.080792 
L 222.164733 138.700824 
L 223.694198 137.682486 
L 225.223664 138.212739 
L 226.753129 138.179714 
L 228.282595 137.656289 
L 229.81206 136.855207 
L 231.341526 136.163815 
L 232.870991 138.210889 
L 234.400457 137.836796 
L 235.929922 137.012942 
L 237.459388 139.015321 
L 238.988853 139.519708 
L 240.518319 138.904398 
L 242.047784 137.847928 
L 243.57725 138.273004 
L 245.106715 138.529671 
L 246.636181 139.186547 
L 248.165646 138.383151 
L 249.695112 140.515249 
L 251.224577 139.105902 
L 252.754043 138.774592 
L 254.283508 138.534751 
L 255.812974 138.859944 
L 257.342439 138.551377 
L 258.871905 140.187228 
L 260.40137 139.302053 
L 261.930836 139.052784 
L 263.460302 139.311938 
L 264.989767 138.868277 
L 266.519233 138.217363 
L 268.048698 137.949145 
L 269.578164 137.678735 
L 271.107629 139.284586 
L 272.637095 137.998434 
L 274.16656 139.562712 
L 275.696026 137.576747 
L 277.225491 139.208011 
L 278.754957 141.417816 
L 280.284422 139.363976 
L 281.813888 138.946774 
L 283.343353 139.895473 
L 284.872819 138.948582 
L 286.402284 138.183265 
L 287.93175 140.459228 
L 289.461215 137.859954 
L 290.990681 137.610751 
L 292.520146 139.637567 
L 294.049612 138.387974 
L 295.579077 137.697813 
L 297.108543 137.112815 
L 298.638008 138.653347 
L 300.167474 139.152444 
L 301.696939 139.129599 
L 303.226405 138.989447 
L 304.75587 138.991429 
L 306.285336 139.13758 
L 307.814801 139.069351 
L 309.344267 138.624281 
L 310.873732 136.756866 
L 312.403198 138.775733 
L 313.932663 138.310054 
L 315.462129 139.036835 
L 316.991594 137.314939 
L 318.52106 137.536101 
L 320.050525 136.54597 
L 321.579991 136.537626 
L 323.109456 137.585976 
L 324.638922 136.572391 
L 326.168387 139.178309 
L 327.697853 138.386709 
L 329.227318 137.248356 
L 330.756784 137.404232 
L 332.286249 137.686163 
L 333.815715 137.032197 
L 335.34518 136.678197 
L 336.874646 138.810306 
L 338.404111 136.663113 
L 339.933577 137.383921 
L 341.463042 137.177833 
L 342.992508 138.994327 
L 344.521974 139.234954 
L 346.051439 137.63684 
L 347.580905 136.825956 
L 349.11037 136.221693 
L 350.639836 137.542948 
L 352.169301 137.943676 
L 353.698767 137.199918 
L 355.228232 136.006629 
L 356.757698 136.595059 
L 358.287163 137.185518 
L 359.816629 136.514334 
L 361.346094 135.700499 
L 362.87556 135.783426 
L 364.405025 136.778335 
L 365.934491 136.709564 
L 367.463956 136.291403 
L 368.993422 136.239626 
L 370.522887 135.514517 
L 372.052353 136.292231 
L 373.581818 137.214187 
L 373.581818 142.721832 
L 373.581818 142.721832 
L 372.052353 143.894391 
L 370.522887 144.367924 
L 368.993422 143.684723 
L 367.463956 144.895698 
L 365.934491 144.627785 
L 364.405025 144.209738 
L 362.87556 143.789705 
L 361.346094 143.49535 
L 359.816629 142.671304 
L 358.287163 143.510662 
L 356.757698 145.269756 
L 355.228232 144.087299 
L 353.698767 144.012748 
L 352.169301 143.6713 
L 350.639836 144.234971 
L 349.11037 144.444296 
L 347.580905 143.978377 
L 346.051439 144.030026 
L 344.521974 143.616972 
L 342.992508 145.581635 
L 341.463042 142.746229 
L 339.933577 144.260218 
L 338.404111 142.580565 
L 336.874646 143.659073 
L 335.34518 143.590444 
L 333.815715 144.669588 
L 332.286249 143.508682 
L 330.756784 143.336176 
L 329.227318 143.126723 
L 327.697853 144.715838 
L 326.168387 145.858524 
L 324.638922 145.955201 
L 323.109456 145.334161 
L 321.579991 145.795904 
L 320.050525 145.036973 
L 318.52106 145.40776 
L 316.991594 144.718531 
L 315.462129 144.397052 
L 313.932663 142.297809 
L 312.403198 143.194662 
L 310.873732 141.964162 
L 309.344267 141.866225 
L 307.814801 143.769509 
L 306.285336 140.984991 
L 304.75587 141.150521 
L 303.226405 141.582181 
L 301.696939 142.248567 
L 300.167474 141.673526 
L 298.638008 141.231422 
L 297.108543 140.957457 
L 295.579077 140.983095 
L 294.049612 142.386021 
L 292.520146 141.060596 
L 290.990681 142.234801 
L 289.461215 140.804627 
L 287.93175 142.123165 
L 286.402284 143.269073 
L 284.872819 142.308239 
L 283.343353 141.984716 
L 281.813888 143.871455 
L 280.284422 143.571268 
L 278.754957 143.679345 
L 277.225491 143.841024 
L 275.696026 143.208249 
L 274.16656 141.946504 
L 272.637095 144.069954 
L 271.107629 142.99945 
L 269.578164 143.413243 
L 268.048698 143.400932 
L 266.519233 143.723995 
L 264.989767 143.324548 
L 263.460302 143.718857 
L 261.930836 145.932601 
L 260.40137 142.325631 
L 258.871905 142.685344 
L 257.342439 143.628583 
L 255.812974 142.243264 
L 254.283508 143.467439 
L 252.754043 142.161548 
L 251.224577 142.256326 
L 249.695112 142.477672 
L 248.165646 142.570987 
L 246.636181 142.587516 
L 245.106715 141.920215 
L 243.57725 141.329026 
L 242.047784 142.487278 
L 240.518319 143.058695 
L 238.988853 144.36071 
L 237.459388 143.628318 
L 235.929922 143.588905 
L 234.400457 142.971637 
L 232.870991 144.093812 
L 231.341526 143.435475 
L 229.81206 143.314198 
L 228.282595 142.469377 
L 226.753129 143.738319 
L 225.223664 142.513798 
L 223.694198 143.054309 
L 222.164733 144.119599 
L 220.635267 144.654081 
L 219.105802 143.993196 
L 217.576336 143.208799 
L 216.046871 143.275436 
L 214.517405 142.990693 
L 212.98794 143.781906 
L 211.458474 142.70544 
L 209.929009 142.64178 
L 208.399543 141.930311 
L 206.870078 142.764459 
L 205.340612 141.692038 
L 203.811147 141.808248 
L 202.281681 141.653426 
L 200.752216 141.161303 
L 199.22275 142.404407 
L 197.693285 140.393703 
L 196.163819 140.831173 
L 194.634354 140.004025 
L 193.104888 139.948416 
L 191.575423 141.6126 
L 190.045957 140.976357 
L 188.516492 141.503212 
L 186.987026 140.567926 
L 185.457561 142.164774 
L 183.928095 141.662998 
L 182.39863 142.073391 
L 180.869164 141.261148 
L 179.339698 143.327521 
L 177.810233 142.371841 
L 176.280767 142.218633 
L 174.751302 143.683052 
L 173.221836 141.502562 
L 171.692371 142.241774 
L 170.162905 143.727608 
L 168.63344 142.401175 
L 167.103974 144.410454 
L 165.574509 143.701726 
L 164.045043 143.349394 
L 162.515578 144.253527 
L 160.986112 143.83877 
L 159.456647 142.921508 
L 157.927181 143.398029 
L 156.397716 143.014924 
L 154.86825 143.63624 
L 153.338785 142.431536 
L 151.809319 143.705549 
L 150.279854 143.156856 
L 148.750388 143.973799 
L 147.220923 143.801221 
L 145.691457 143.307749 
L 144.161992 145.030037 
L 142.632526 143.527963 
L 141.103061 144.19558 
L 139.573595 142.545373 
L 138.04413 144.401528 
L 136.514664 144.363434 
L 134.985199 144.236745 
L 133.455733 145.798729 
L 131.926268 145.8611 
L 130.396802 145.048609 
L 128.867337 146.638274 
L 127.337871 145.98649 
L 125.808406 145.146345 
L 124.27894 145.787563 
L 122.749475 145.823003 
L 121.220009 147.165646 
L 119.690544 145.024762 
L 118.161078 146.521927 
L 116.631613 146.796128 
L 115.102147 145.934195 
L 113.572682 145.730527 
L 112.043216 145.442879 
L 110.513751 145.194223 
L 108.984285 146.031893 
L 107.45482 145.961311 
L 105.925354 145.013141 
L 104.395889 145.387394 
L 102.866423 144.927746 
L 101.336958 147.796519 
L 99.807492 146.740586 
L 98.278026 147.771584 
L 96.748561 147.602553 
L 95.219095 147.58619 
L 93.68963 147.629085 
L 92.160164 148.058047 
L 90.630699 148.369489 
L 89.101233 148.92325 
L 87.571768 149.145059 
L 86.042302 151.839725 
L 84.512837 152.703925 
L 82.983371 153.968331 
L 81.453906 153.910707 
L 79.92444 154.278108 
L 78.394975 155.182242 
L 76.865509 156.409521 
L 75.336044 157.166695 
L 73.806578 159.441802 
L 72.277113 161.130998 
L 70.747647 163.051203 
L 69.218182 166.666084 
z
" clip-path="url(#pd51a753766)" style="fill: #1f77b4; fill-opacity: 0.5"/>
   </g>
   <g id="PolyCollection_2">
    <path d="M 69.218182 171.778004 
L 69.218182 171.316396 
L 70.747647 171.316396 
L 72.277113 171.316396 
L 73.806578 171.316396 
L 75.336044 171.316396 
L 76.865509 171.316396 
L 78.394975 171.316396 
L 79.92444 171.316396 
L 81.453906 171.316396 
L 82.983371 171.316396 
L 84.512837 171.316396 
L 86.042302 171.316396 
L 87.571768 171.316396 
L 89.101233 171.316396 
L 90.630699 171.316396 
L 92.160164 171.316396 
L 93.68963 171.316396 
L 95.219095 171.316396 
L 96.748561 171.316396 
L 98.278026 171.316396 
L 99.807492 171.316396 
L 101.336958 171.316396 
L 102.866423 171.316396 
L 104.395889 171.316396 
L 105.925354 171.316396 
L 107.45482 171.316396 
L 108.984285 171.316396 
L 110.513751 171.316396 
L 112.043216 171.316396 
L 113.572682 171.316396 
L 115.102147 171.316396 
L 116.631613 171.316396 
L 118.161078 171.316396 
L 119.690544 171.316396 
L 121.220009 171.316396 
L 122.749475 171.316396 
L 124.27894 171.316396 
L 125.808406 171.316396 
L 127.337871 171.316396 
L 128.867337 171.316396 
L 130.396802 171.316396 
L 131.926268 171.316396 
L 133.455733 171.316396 
L 134.985199 171.316396 
L 136.514664 171.316396 
L 138.04413 171.316396 
L 139.573595 171.316396 
L 141.103061 171.316396 
L 142.632526 171.316396 
L 144.161992 171.316396 
L 145.691457 171.316396 
L 147.220923 171.316396 
L 148.750388 171.316396 
L 150.279854 171.316396 
L 151.809319 171.316396 
L 153.338785 171.316396 
L 154.86825 171.316396 
L 156.397716 171.316396 
L 157.927181 171.316396 
L 159.456647 171.316396 
L 160.986112 171.316396 
L 162.515578 171.316396 
L 164.045043 171.316396 
L 165.574509 171.316396 
L 167.103974 171.316396 
L 168.63344 171.316396 
L 170.162905 171.316396 
L 171.692371 171.316396 
L 173.221836 171.316396 
L 174.751302 171.316396 
L 176.280767 171.316396 
L 177.810233 171.316396 
L 179.339698 171.316396 
L 180.869164 171.316396 
L 182.39863 171.316396 
L 183.928095 171.316396 
L 185.457561 171.316396 
L 186.987026 171.316396 
L 188.516492 171.316396 
L 190.045957 171.316396 
L 191.575423 171.316396 
L 193.104888 171.316396 
L 194.634354 171.316396 
L 196.163819 171.316396 
L 197.693285 171.316396 
L 199.22275 171.316396 
L 200.752216 171.316396 
L 202.281681 171.316396 
L 203.811147 171.316396 
L 205.340612 171.316396 
L 206.870078 171.316396 
L 208.399543 171.316396 
L 209.929009 171.316396 
L 211.458474 171.316396 
L 212.98794 171.316396 
L 214.517405 171.316396 
L 216.046871 171.316396 
L 217.576336 171.316396 
L 219.105802 171.316396 
L 220.635267 171.316396 
L 222.164733 171.316396 
L 223.694198 171.316396 
L 225.223664 171.316396 
L 226.753129 171.316396 
L 228.282595 171.316396 
L 229.81206 171.316396 
L 231.341526 171.316396 
L 232.870991 171.316396 
L 234.400457 171.316396 
L 235.929922 171.316396 
L 237.459388 171.316396 
L 238.988853 171.316396 
L 240.518319 171.316396 
L 242.047784 171.316396 
L 243.57725 171.316396 
L 245.106715 171.316396 
L 246.636181 171.316396 
L 248.165646 171.316396 
L 249.695112 171.316396 
L 251.224577 171.316396 
L 252.754043 171.316396 
L 254.283508 171.316396 
L 255.812974 171.316396 
L 257.342439 171.316396 
L 258.871905 171.316396 
L 260.40137 171.316396 
L 261.930836 171.316396 
L 263.460302 171.316396 
L 264.989767 171.316396 
L 266.519233 171.316396 
L 268.048698 171.316396 
L 269.578164 171.316396 
L 271.107629 171.316396 
L 272.637095 171.316396 
L 274.16656 171.316396 
L 275.696026 171.316396 
L 277.225491 171.316396 
L 278.754957 171.316396 
L 280.284422 171.316396 
L 281.813888 171.316396 
L 283.343353 171.316396 
L 284.872819 171.316396 
L 286.402284 171.316396 
L 287.93175 171.316396 
L 289.461215 171.316396 
L 290.990681 171.316396 
L 292.520146 171.316396 
L 294.049612 171.316396 
L 295.579077 171.316396 
L 297.108543 171.316396 
L 298.638008 171.316396 
L 300.167474 171.316396 
L 301.696939 171.316396 
L 303.226405 171.316396 
L 304.75587 171.316396 
L 306.285336 171.316396 
L 307.814801 171.316396 
L 309.344267 171.316396 
L 310.873732 171.316396 
L 312.403198 171.316396 
L 313.932663 171.316396 
L 315.462129 171.316396 
L 316.991594 171.316396 
L 318.52106 171.316396 
L 320.050525 171.316396 
L 321.579991 171.316396 
L 323.109456 171.316396 
L 324.638922 171.316396 
L 326.168387 171.316396 
L 327.697853 171.316396 
L 329.227318 171.316396 
L 330.756784 171.316396 
L 332.286249 171.316396 
L 333.815715 171.316396 
L 335.34518 171.316396 
L 336.874646 171.316396 
L 338.404111 171.316396 
L 339.933577 171.316396 
L 341.463042 171.316396 
L 342.992508 171.316396 
L 344.521974 171.316396 
L 346.051439 171.316396 
L 347.580905 171.316396 
L 349.11037 171.316396 
L 350.639836 171.316396 
L 352.169301 171.316396 
L 353.698767 171.316396 
L 355.228232 171.316396 
L 356.757698 171.316396 
L 358.287163 171.316396 
L 359.816629 171.316396 
L 361.346094 171.316396 
L 362.87556 171.316396 
L 364.405025 171.316396 
L 365.934491 171.316396 
L 367.463956 171.316396 
L 368.993422 171.316396 
L 370.522887 171.316396 
L 372.052353 171.316396 
L 373.581818 171.316396 
L 373.581818 171.778004 
L 373.581818 171.778004 
L 372.052353 171.778004 
L 370.522887 171.778004 
L 368.993422 171.778004 
L 367.463956 171.778004 
L 365.934491 171.778004 
L 364.405025 171.778004 
L 362.87556 171.778004 
L 361.346094 171.778004 
L 359.816629 171.778004 
L 358.287163 171.778004 
L 356.757698 171.778004 
L 355.228232 171.778004 
L 353.698767 171.778004 
L 352.169301 171.778004 
L 350.639836 171.778004 
L 349.11037 171.778004 
L 347.580905 171.778004 
L 346.051439 171.778004 
L 344.521974 171.778004 
L 342.992508 171.778004 
L 341.463042 171.778004 
L 339.933577 171.778004 
L 338.404111 171.778004 
L 336.874646 171.778004 
L 335.34518 171.778004 
L 333.815715 171.778004 
L 332.286249 171.778004 
L 330.756784 171.778004 
L 329.227318 171.778004 
L 327.697853 171.778004 
L 326.168387 171.778004 
L 324.638922 171.778004 
L 323.109456 171.778004 
L 321.579991 171.778004 
L 320.050525 171.778004 
L 318.52106 171.778004 
L 316.991594 171.778004 
L 315.462129 171.778004 
L 313.932663 171.778004 
L 312.403198 171.778004 
L 310.873732 171.778004 
L 309.344267 171.778004 
L 307.814801 171.778004 
L 306.285336 171.778004 
L 304.75587 171.778004 
L 303.226405 171.778004 
L 301.696939 171.778004 
L 300.167474 171.778004 
L 298.638008 171.778004 
L 297.108543 171.778004 
L 295.579077 171.778004 
L 294.049612 171.778004 
L 292.520146 171.778004 
L 290.990681 171.778004 
L 289.461215 171.778004 
L 287.93175 171.778004 
L 286.402284 171.778004 
L 284.872819 171.778004 
L 283.343353 171.778004 
L 281.813888 171.778004 
L 280.284422 171.778004 
L 278.754957 171.778004 
L 277.225491 171.778004 
L 275.696026 171.778004 
L 274.16656 171.778004 
L 272.637095 171.778004 
L 271.107629 171.778004 
L 269.578164 171.778004 
L 268.048698 171.778004 
L 266.519233 171.778004 
L 264.989767 171.778004 
L 263.460302 171.778004 
L 261.930836 171.778004 
L 260.40137 171.778004 
L 258.871905 171.778004 
L 257.342439 171.778004 
L 255.812974 171.778004 
L 254.283508 171.778004 
L 252.754043 171.778004 
L 251.224577 171.778004 
L 249.695112 171.778004 
L 248.165646 171.778004 
L 246.636181 171.778004 
L 245.106715 171.778004 
L 243.57725 171.778004 
L 242.047784 171.778004 
L 240.518319 171.778004 
L 238.988853 171.778004 
L 237.459388 171.778004 
L 235.929922 171.778004 
L 234.400457 171.778004 
L 232.870991 171.778004 
L 231.341526 171.778004 
L 229.81206 171.778004 
L 228.282595 171.778004 
L 226.753129 171.778004 
L 225.223664 171.778004 
L 223.694198 171.778004 
L 222.164733 171.778004 
L 220.635267 171.778004 
L 219.105802 171.778004 
L 217.576336 171.778004 
L 216.046871 171.778004 
L 214.517405 171.778004 
L 212.98794 171.778004 
L 211.458474 171.778004 
L 209.929009 171.778004 
L 208.399543 171.778004 
L 206.870078 171.778004 
L 205.340612 171.778004 
L 203.811147 171.778004 
L 202.281681 171.778004 
L 200.752216 171.778004 
L 199.22275 171.778004 
L 197.693285 171.778004 
L 196.163819 171.778004 
L 194.634354 171.778004 
L 193.104888 171.778004 
L 191.575423 171.778004 
L 190.045957 171.778004 
L 188.516492 171.778004 
L 186.987026 171.778004 
L 185.457561 171.778004 
L 183.928095 171.778004 
L 182.39863 171.778004 
L 180.869164 171.778004 
L 179.339698 171.778004 
L 177.810233 171.778004 
L 176.280767 171.778004 
L 174.751302 171.778004 
L 173.221836 171.778004 
L 171.692371 171.778004 
L 170.162905 171.778004 
L 168.63344 171.778004 
L 167.103974 171.778004 
L 165.574509 171.778004 
L 164.045043 171.778004 
L 162.515578 171.778004 
L 160.986112 171.778004 
L 159.456647 171.778004 
L 157.927181 171.778004 
L 156.397716 171.778004 
L 154.86825 171.778004 
L 153.338785 171.778004 
L 151.809319 171.778004 
L 150.279854 171.778004 
L 148.750388 171.778004 
L 147.220923 171.778004 
L 145.691457 171.778004 
L 144.161992 171.778004 
L 142.632526 171.778004 
L 141.103061 171.778004 
L 139.573595 171.778004 
L 138.04413 171.778004 
L 136.514664 171.778004 
L 134.985199 171.778004 
L 133.455733 171.778004 
L 131.926268 171.778004 
L 130.396802 171.778004 
L 128.867337 171.778004 
L 127.337871 171.778004 
L 125.808406 171.778004 
L 124.27894 171.778004 
L 122.749475 171.778004 
L 121.220009 171.778004 
L 119.690544 171.778004 
L 118.161078 171.778004 
L 116.631613 171.778004 
L 115.102147 171.778004 
L 113.572682 171.778004 
L 112.043216 171.778004 
L 110.513751 171.778004 
L 108.984285 171.778004 
L 107.45482 171.778004 
L 105.925354 171.778004 
L 104.395889 171.778004 
L 102.866423 171.778004 
L 101.336958 171.778004 
L 99.807492 171.778004 
L 98.278026 171.778004 
L 96.748561 171.778004 
L 95.219095 171.778004 
L 93.68963 171.778004 
L 92.160164 171.778004 
L 90.630699 171.778004 
L 89.101233 171.778004 
L 87.571768 171.778004 
L 86.042302 171.778004 
L 84.512837 171.778004 
L 82.983371 171.778004 
L 81.453906 171.778004 
L 79.92444 171.778004 
L 78.394975 171.778004 
L 76.865509 171.778004 
L 75.336044 171.778004 
L 73.806578 171.778004 
L 72.277113 171.778004 
L 70.747647 171.778004 
L 69.218182 171.778004 
z
" clip-path="url(#pd51a753766)" style="fill: #ff7f0e; fill-opacity: 0.5"/>
   </g>
   <g id="matplotlib.axis_1">
    <g id="xtick_1">
     <g id="line2d_1">
      <defs>
       <path id="m4e61f7a5b2" d="M 0 0 
L 0 3.5 
" style="stroke: #000000; stroke-width: 0.8"/>
      </defs>
      <g>
       <use xlink:href="#m4e61f7a5b2" x="69.218182" y="252" style="stroke: #000000; stroke-width: 0.8"/>
      </g>
     </g>
     <g id="text_1">
      <!-- 0 -->
      <g transform="translate(66.036932 266.598437)scale(0.1 -0.1)">
       <defs>
        <path id="DejaVuSans-30" d="M 2034 4250 
Q 1547 4250 1301 3770 
Q 1056 3291 1056 2328 
Q 1056 1369 1301 889 
Q 1547 409 2034 409 
Q 2525 409 2770 889 
Q 3016 1369 3016 2328 
Q 3016 3291 2770 3770 
Q 2525 4250 2034 4250 
z
M 2034 4750 
Q 2819 4750 3233 4129 
Q 3647 3509 3647 2328 
Q 3647 1150 3233 529 
Q 2819 -91 2034 -91 
Q 1250 -91 836 529 
Q 422 1150 422 2328 
Q 422 3509 836 4129 
Q 1250 4750 2034 4750 
z
" transform="scale(0.015625)"/>
       </defs>
       <use xlink:href="#DejaVuSans-30"/>
      </g>
     </g>
    </g>
    <g id="xtick_2">
     <g id="line2d_2">
      <g>
       <use xlink:href="#m4e61f7a5b2" x="107.45482" y="252" style="stroke: #000000; stroke-width: 0.8"/>
      </g>
     </g>
     <g id="text_2">
      <!-- 25 -->
      <g transform="translate(101.09232 266.598437)scale(0.1 -0.1)">
       <defs>
        <path id="DejaVuSans-32" d="M 1228 531 
L 3431 531 
L 3431 0 
L 469 0 
L 469 531 
Q 828 903 1448 1529 
Q 2069 2156 2228 2338 
Q 2531 2678 2651 2914 
Q 2772 3150 2772 3378 
Q 2772 3750 2511 3984 
Q 2250 4219 1831 4219 
Q 1534 4219 1204 4116 
Q 875 4013 500 3803 
L 500 4441 
Q 881 4594 1212 4672 
Q 1544 4750 1819 4750 
Q 2544 4750 2975 4387 
Q 3406 4025 3406 3419 
Q 3406 3131 3298 2873 
Q 3191 2616 2906 2266 
Q 2828 2175 2409 1742 
Q 1991 1309 1228 531 
z
" transform="scale(0.015625)"/>
        <path id="DejaVuSans-35" d="M 691 4666 
L 3169 4666 
L 3169 4134 
L 1269 4134 
L 1269 2991 
Q 1406 3038 1543 3061 
Q 1681 3084 1819 3084 
Q 2600 3084 3056 2656 
Q 3513 2228 3513 1497 
Q 3513 744 3044 326 
Q 2575 -91 1722 -91 
Q 1428 -91 1123 -41 
Q 819 9 494 109 
L 494 744 
Q 775 591 1075 516 
Q 1375 441 1709 441 
Q 2250 441 2565 725 
Q 2881 1009 2881 1497 
Q 2881 1984 2565 2268 
Q 2250 2553 1709 2553 
Q 1456 2553 1204 2497 
Q 953 2441 691 2322 
L 691 4666 
z
" transform="scale(0.015625)"/>
       </defs>
       <use xlink:href="#DejaVuSans-32"/>
       <use xlink:href="#DejaVuSans-35" x="63.623047"/>
      </g>
     </g>
    </g>
    <g id="xtick_3">
     <g id="line2d_3">
      <g>
       <use xlink:href="#m4e61f7a5b2" x="145.691457" y="252" style="stroke: #000000; stroke-width: 0.8"/>
      </g>
     </g>
     <g id="text_3">
      <!-- 50 -->
      <g transform="translate(139.328957 266.598437)scale(0.1 -0.1)">
       <use xlink:href="#DejaVuSans-35"/>
       <use xlink:href="#DejaVuSans-30" x="63.623047"/>
      </g>
     </g>
    </g>
    <g id="xtick_4">
     <g id="line2d_4">
      <g>
       <use xlink:href="#m4e61f7a5b2" x="183.928095" y="252" style="stroke: #000000; stroke-width: 0.8"/>
      </g>
     </g>
     <g id="text_4">
      <!-- 75 -->
      <g transform="translate(177.565595 266.598437)scale(0.1 -0.1)">
       <defs>
        <path id="DejaVuSans-37" d="M 525 4666 
L 3525 4666 
L 3525 4397 
L 1831 0 
L 1172 0 
L 2766 4134 
L 525 4134 
L 525 4666 
z
" transform="scale(0.015625)"/>
       </defs>
       <use xlink:href="#DejaVuSans-37"/>
       <use xlink:href="#DejaVuSans-35" x="63.623047"/>
      </g>
     </g>
    </g>
    <g id="xtick_5">
     <g id="line2d_5">
      <g>
       <use xlink:href="#m4e61f7a5b2" x="222.164733" y="252" style="stroke: #000000; stroke-width: 0.8"/>
      </g>
     </g>
     <g id="text_5">
      <!-- 100 -->
      <g transform="translate(212.620983 266.598437)scale(0.1 -0.1)">
       <defs>
        <path id="DejaVuSans-31" d="M 794 531 
L 1825 531 
L 1825 4091 
L 703 3866 
L 703 4441 
L 1819 4666 
L 2450 4666 
L 2450 531 
L 3481 531 
L 3481 0 
L 794 0 
L 794 531 
z
" transform="scale(0.015625)"/>
       </defs>
       <use xlink:href="#DejaVuSans-31"/>
       <use xlink:href="#DejaVuSans-30" x="63.623047"/>
       <use xlink:href="#DejaVuSans-30" x="127.246094"/>
      </g>
     </g>
    </g>
    <g id="xtick_6">
     <g id="line2d_6">
      <g>
       <use xlink:href="#m4e61f7a5b2" x="260.40137" y="252" style="stroke: #000000; stroke-width: 0.8"/>
      </g>
     </g>
     <g id="text_6">
      <!-- 125 -->
      <g transform="translate(250.85762 266.598437)scale(0.1 -0.1)">
       <use xlink:href="#DejaVuSans-31"/>
       <use xlink:href="#DejaVuSans-32" x="63.623047"/>
       <use xlink:href="#DejaVuSans-35" x="127.246094"/>
      </g>
     </g>
    </g>
    <g id="xtick_7">
     <g id="line2d_7">
      <g>
       <use xlink:href="#m4e61f7a5b2" x="298.638008" y="252" style="stroke: #000000; stroke-width: 0.8"/>
      </g>
     </g>
     <g id="text_7">
      <!-- 150 -->
      <g transform="translate(289.094258 266.598437)scale(0.1 -0.1)">
       <use xlink:href="#DejaVuSans-31"/>
       <use xlink:href="#DejaVuSans-35" x="63.623047"/>
       <use xlink:href="#DejaVuSans-30" x="127.246094"/>
      </g>
     </g>
    </g>
    <g id="xtick_8">
     <g id="line2d_8">
      <g>
       <use xlink:href="#m4e61f7a5b2" x="336.874646" y="252" style="stroke: #000000; stroke-width: 0.8"/>
      </g>
     </g>
     <g id="text_8">
      <!-- 175 -->
      <g transform="translate(327.330896 266.598437)scale(0.1 -0.1)">
       <use xlink:href="#DejaVuSans-31"/>
       <use xlink:href="#DejaVuSans-37" x="63.623047"/>
       <use xlink:href="#DejaVuSans-35" x="127.246094"/>
      </g>
     </g>
    </g>
    <g id="xtick_9">
     <g id="line2d_9">
      <g>
       <use xlink:href="#m4e61f7a5b2" x="375.111284" y="252" style="stroke: #000000; stroke-width: 0.8"/>
      </g>
     </g>
     <g id="text_9">
      <!-- 200 -->
      <g transform="translate(365.567534 266.598437)scale(0.1 -0.1)">
       <use xlink:href="#DejaVuSans-32"/>
       <use xlink:href="#DejaVuSans-30" x="63.623047"/>
       <use xlink:href="#DejaVuSans-30" x="127.246094"/>
      </g>
     </g>
    </g>
    <g id="text_10">
     <!-- Generation -->
     <g transform="translate(193.507031 280.276563)scale(0.1 -0.1)">
      <defs>
       <path id="DejaVuSans-47" d="M 3809 666 
L 3809 1919 
L 2778 1919 
L 2778 2438 
L 4434 2438 
L 4434 434 
Q 4069 175 3628 42 
Q 3188 -91 2688 -91 
Q 1594 -91 976 548 
Q 359 1188 359 2328 
Q 359 3472 976 4111 
Q 1594 4750 2688 4750 
Q 3144 4750 3555 4637 
Q 3966 4525 4313 4306 
L 4313 3634 
Q 3963 3931 3569 4081 
Q 3175 4231 2741 4231 
Q 1884 4231 1454 3753 
Q 1025 3275 1025 2328 
Q 1025 1384 1454 906 
Q 1884 428 2741 428 
Q 3075 428 3337 486 
Q 3600 544 3809 666 
z
" transform="scale(0.015625)"/>
       <path id="DejaVuSans-65" d="M 3597 1894 
L 3597 1613 
L 953 1613 
Q 991 1019 1311 708 
Q 1631 397 2203 397 
Q 2534 397 2845 478 
Q 3156 559 3463 722 
L 3463 178 
Q 3153 47 2828 -22 
Q 2503 -91 2169 -91 
Q 1331 -91 842 396 
Q 353 884 353 1716 
Q 353 2575 817 3079 
Q 1281 3584 2069 3584 
Q 2775 3584 3186 3129 
Q 3597 2675 3597 1894 
z
M 3022 2063 
Q 3016 2534 2758 2815 
Q 2500 3097 2075 3097 
Q 1594 3097 1305 2825 
Q 1016 2553 972 2059 
L 3022 2063 
z
" transform="scale(0.015625)"/>
       <path id="DejaVuSans-6e" d="M 3513 2113 
L 3513 0 
L 2938 0 
L 2938 2094 
Q 2938 2591 2744 2837 
Q 2550 3084 2163 3084 
Q 1697 3084 1428 2787 
Q 1159 2491 1159 1978 
L 1159 0 
L 581 0 
L 581 3500 
L 1159 3500 
L 1159 2956 
Q 1366 3272 1645 3428 
Q 1925 3584 2291 3584 
Q 2894 3584 3203 3211 
Q 3513 2838 3513 2113 
z
" transform="scale(0.015625)"/>
       <path id="DejaVuSans-72" d="M 2631 2963 
Q 2534 3019 2420 3045 
Q 2306 3072 2169 3072 
Q 1681 3072 1420 2755 
Q 1159 2438 1159 1844 
L 1159 0 
L 581 0 
L 581 3500 
L 1159 3500 
L 1159 2956 
Q 1341 3275 1631 3429 
Q 1922 3584 2338 3584 
Q 2397 3584 2469 3576 
Q 2541 3569 2628 3553 
L 2631 2963 
z
" transform="scale(0.015625)"/>
       <path id="DejaVuSans-61" d="M 2194 1759 
Q 1497 1759 1228 1600 
Q 959 1441 959 1056 
Q 959 750 1161 570 
Q 1363 391 1709 391 
Q 2188 391 2477 730 
Q 2766 1069 2766 1631 
L 2766 1759 
L 2194 1759 
z
M 3341 1997 
L 3341 0 
L 2766 0 
L 2766 531 
Q 2569 213 2275 61 
Q 1981 -91 1556 -91 
Q 1019 -91 701 211 
Q 384 513 384 1019 
Q 384 1609 779 1909 
Q 1175 2209 1959 2209 
L 2766 2209 
L 2766 2266 
Q 2766 2663 2505 2880 
Q 2244 3097 1772 3097 
Q 1472 3097 1187 3025 
Q 903 2953 641 2809 
L 641 3341 
Q 956 3463 1253 3523 
Q 1550 3584 1831 3584 
Q 2591 3584 2966 3190 
Q 3341 2797 3341 1997 
z
" transform="scale(0.015625)"/>
       <path id="DejaVuSans-74" d="M 1172 4494 
L 1172 3500 
L 2356 3500 
L 2356 3053 
L 1172 3053 
L 1172 1153 
Q 1172 725 1289 603 
Q 1406 481 1766 481 
L 2356 481 
L 2356 0 
L 1766 0 
Q 1100 0 847 248 
Q 594 497 594 1153 
L 594 3053 
L 172 3053 
L 172 3500 
L 594 3500 
L 594 4494 
L 1172 4494 
z
" transform="scale(0.015625)"/>
       <path id="DejaVuSans-69" d="M 603 3500 
L 1178 3500 
L 1178 0 
L 603 0 
L 603 3500 
z
M 603 4863 
L 1178 4863 
L 1178 4134 
L 603 4134 
L 603 4863 
z
" transform="scale(0.015625)"/>
       <path id="DejaVuSans-6f" d="M 1959 3097 
Q 1497 3097 1228 2736 
Q 959 2375 959 1747 
Q 959 1119 1226 758 
Q 1494 397 1959 397 
Q 2419 397 2687 759 
Q 2956 1122 2956 1747 
Q 2956 2369 2687 2733 
Q 2419 3097 1959 3097 
z
M 1959 3584 
Q 2709 3584 3137 3096 
Q 3566 2609 3566 1747 
Q 3566 888 3137 398 
Q 2709 -91 1959 -91 
Q 1206 -91 779 398 
Q 353 888 353 1747 
Q 353 2609 779 3096 
Q 1206 3584 1959 3584 
z
" transform="scale(0.015625)"/>
      </defs>
      <use xlink:href="#DejaVuSans-47"/>
      <use xlink:href="#DejaVuSans-65" x="77.490234"/>
      <use xlink:href="#DejaVuSans-6e" x="139.013672"/>
      <use xlink:href="#DejaVuSans-65" x="202.392578"/>
      <use xlink:href="#DejaVuSans-72" x="263.916016"/>
      <use xlink:href="#DejaVuSans-61" x="305.029297"/>
      <use xlink:href="#DejaVuSans-74" x="366.308594"/>
      <use xlink:href="#DejaVuSans-69" x="405.517578"/>
      <use xlink:href="#DejaVuSans-6f" x="433.300781"/>
      <use xlink:href="#DejaVuSans-6e" x="494.482422"/>
     </g>
    </g>
   </g>
   <g id="matplotlib.axis_2">
    <g id="ytick_1">
     <g id="line2d_10">
      <defs>
       <path id="m8595106bdf" d="M 0 0 
L -3.5 0 
" style="stroke: #000000; stroke-width: 0.8"/>
      </defs>
      <g>
       <use xlink:href="#m8595106bdf" x="54" y="230.256" style="stroke: #000000; stroke-width: 0.8"/>
      </g>
     </g>
     <g id="text_11">
      <!-- 5 -->
      <g transform="translate(40.6375 234.055219)scale(0.1 -0.1)">
       <use xlink:href="#DejaVuSans-35"/>
      </g>
     </g>
    </g>
    <g id="ytick_2">
     <g id="line2d_11">
      <g>
       <use xlink:href="#m8595106bdf" x="54" y="186.768" style="stroke: #000000; stroke-width: 0.8"/>
      </g>
     </g>
     <g id="text_12">
      <!-- 6 -->
      <g transform="translate(40.6375 190.567219)scale(0.1 -0.1)">
       <defs>
        <path id="DejaVuSans-36" d="M 2113 2584 
Q 1688 2584 1439 2293 
Q 1191 2003 1191 1497 
Q 1191 994 1439 701 
Q 1688 409 2113 409 
Q 2538 409 2786 701 
Q 3034 994 3034 1497 
Q 3034 2003 2786 2293 
Q 2538 2584 2113 2584 
z
M 3366 4563 
L 3366 3988 
Q 3128 4100 2886 4159 
Q 2644 4219 2406 4219 
Q 1781 4219 1451 3797 
Q 1122 3375 1075 2522 
Q 1259 2794 1537 2939 
Q 1816 3084 2150 3084 
Q 2853 3084 3261 2657 
Q 3669 2231 3669 1497 
Q 3669 778 3244 343 
Q 2819 -91 2113 -91 
Q 1303 -91 875 529 
Q 447 1150 447 2328 
Q 447 3434 972 4092 
Q 1497 4750 2381 4750 
Q 2619 4750 2861 4703 
Q 3103 4656 3366 4563 
z
" transform="scale(0.015625)"/>
       </defs>
       <use xlink:href="#DejaVuSans-36"/>
      </g>
     </g>
    </g>
    <g id="ytick_3">
     <g id="line2d_12">
      <g>
       <use xlink:href="#m8595106bdf" x="54" y="143.28" style="stroke: #000000; stroke-width: 0.8"/>
      </g>
     </g>
     <g id="text_13">
      <!-- 7 -->
      <g transform="translate(40.6375 147.079219)scale(0.1 -0.1)">
       <use xlink:href="#DejaVuSans-37"/>
      </g>
     </g>
    </g>
    <g id="ytick_4">
     <g id="line2d_13">
      <g>
       <use xlink:href="#m8595106bdf" x="54" y="99.792" style="stroke: #000000; stroke-width: 0.8"/>
      </g>
     </g>
     <g id="text_14">
      <!-- 8 -->
      <g transform="translate(40.6375 103.591219)scale(0.1 -0.1)">
       <defs>
        <path id="DejaVuSans-38" d="M 2034 2216 
Q 1584 2216 1326 1975 
Q 1069 1734 1069 1313 
Q 1069 891 1326 650 
Q 1584 409 2034 409 
Q 2484 409 2743 651 
Q 3003 894 3003 1313 
Q 3003 1734 2745 1975 
Q 2488 2216 2034 2216 
z
M 1403 2484 
Q 997 2584 770 2862 
Q 544 3141 544 3541 
Q 544 4100 942 4425 
Q 1341 4750 2034 4750 
Q 2731 4750 3128 4425 
Q 3525 4100 3525 3541 
Q 3525 3141 3298 2862 
Q 3072 2584 2669 2484 
Q 3125 2378 3379 2068 
Q 3634 1759 3634 1313 
Q 3634 634 3220 271 
Q 2806 -91 2034 -91 
Q 1263 -91 848 271 
Q 434 634 434 1313 
Q 434 1759 690 2068 
Q 947 2378 1403 2484 
z
M 1172 3481 
Q 1172 3119 1398 2916 
Q 1625 2713 2034 2713 
Q 2441 2713 2670 2916 
Q 2900 3119 2900 3481 
Q 2900 3844 2670 4047 
Q 2441 4250 2034 4250 
Q 1625 4250 1398 4047 
Q 1172 3844 1172 3481 
z
" transform="scale(0.015625)"/>
       </defs>
       <use xlink:href="#DejaVuSans-38"/>
      </g>
     </g>
    </g>
    <g id="ytick_5">
     <g id="line2d_14">
      <g>
       <use xlink:href="#m8595106bdf" x="54" y="56.304" style="stroke: #000000; stroke-width: 0.8"/>
      </g>
     </g>
     <g id="text_15">
      <!-- 9 -->
      <g transform="translate(40.6375 60.103219)scale(0.1 -0.1)">
       <defs>
        <path id="DejaVuSans-39" d="M 703 97 
L 703 672 
Q 941 559 1184 500 
Q 1428 441 1663 441 
Q 2288 441 2617 861 
Q 2947 1281 2994 2138 
Q 2813 1869 2534 1725 
Q 2256 1581 1919 1581 
Q 1219 1581 811 2004 
Q 403 2428 403 3163 
Q 403 3881 828 4315 
Q 1253 4750 1959 4750 
Q 2769 4750 3195 4129 
Q 3622 3509 3622 2328 
Q 3622 1225 3098 567 
Q 2575 -91 1691 -91 
Q 1453 -91 1209 -44 
Q 966 3 703 97 
z
M 1959 2075 
Q 2384 2075 2632 2365 
Q 2881 2656 2881 3163 
Q 2881 3666 2632 3958 
Q 2384 4250 1959 4250 
Q 1534 4250 1286 3958 
Q 1038 3666 1038 3163 
Q 1038 2656 1286 2365 
Q 1534 2075 1959 2075 
z
" transform="scale(0.015625)"/>
       </defs>
       <use xlink:href="#DejaVuSans-39"/>
      </g>
     </g>
    </g>
    <g id="text_16">
     <!-- Mean Score -->
     <g transform="translate(34.557812 172.494844)rotate(-90)scale(0.1 -0.1)">
      <defs>
       <path id="DejaVuSans-4d" d="M 628 4666 
L 1569 4666 
L 2759 1491 
L 3956 4666 
L 4897 4666 
L 4897 0 
L 4281 0 
L 4281 4097 
L 3078 897 
L 2444 897 
L 1241 4097 
L 1241 0 
L 628 0 
L 628 4666 
z
" transform="scale(0.015625)"/>
       <path id="DejaVuSans-20" transform="scale(0.015625)"/>
       <path id="DejaVuSans-53" d="M 3425 4513 
L 3425 3897 
Q 3066 4069 2747 4153 
Q 2428 4238 2131 4238 
Q 1616 4238 1336 4038 
Q 1056 3838 1056 3469 
Q 1056 3159 1242 3001 
Q 1428 2844 1947 2747 
L 2328 2669 
Q 3034 2534 3370 2195 
Q 3706 1856 3706 1288 
Q 3706 609 3251 259 
Q 2797 -91 1919 -91 
Q 1588 -91 1214 -16 
Q 841 59 441 206 
L 441 856 
Q 825 641 1194 531 
Q 1563 422 1919 422 
Q 2459 422 2753 634 
Q 3047 847 3047 1241 
Q 3047 1584 2836 1778 
Q 2625 1972 2144 2069 
L 1759 2144 
Q 1053 2284 737 2584 
Q 422 2884 422 3419 
Q 422 4038 858 4394 
Q 1294 4750 2059 4750 
Q 2388 4750 2728 4690 
Q 3069 4631 3425 4513 
z
" transform="scale(0.015625)"/>
       <path id="DejaVuSans-63" d="M 3122 3366 
L 3122 2828 
Q 2878 2963 2633 3030 
Q 2388 3097 2138 3097 
Q 1578 3097 1268 2742 
Q 959 2388 959 1747 
Q 959 1106 1268 751 
Q 1578 397 2138 397 
Q 2388 397 2633 464 
Q 2878 531 3122 666 
L 3122 134 
Q 2881 22 2623 -34 
Q 2366 -91 2075 -91 
Q 1284 -91 818 406 
Q 353 903 353 1747 
Q 353 2603 823 3093 
Q 1294 3584 2113 3584 
Q 2378 3584 2631 3529 
Q 2884 3475 3122 3366 
z
" transform="scale(0.015625)"/>
      </defs>
      <use xlink:href="#DejaVuSans-4d"/>
      <use xlink:href="#DejaVuSans-65" x="86.279297"/>
      <use xlink:href="#DejaVuSans-61" x="147.802734"/>
      <use xlink:href="#DejaVuSans-6e" x="209.082031"/>
      <use xlink:href="#DejaVuSans-20" x="272.460938"/>
      <use xlink:href="#DejaVuSans-53" x="304.248047"/>
      <use xlink:href="#DejaVuSans-63" x="367.724609"/>
      <use xlink:href="#DejaVuSans-6f" x="422.705078"/>
      <use xlink:href="#DejaVuSans-72" x="483.886719"/>
      <use xlink:href="#DejaVuSans-65" x="522.75"/>
     </g>
    </g>
   </g>
   <g id="line2d_15">
    <path d="M 69.218182 166.000088 
L 70.747647 162.191048 
L 72.277113 160.335962 
L 73.806578 158.894278 
L 75.336044 156.619913 
L 76.865509 155.517906 
L 78.394975 154.184337 
L 79.92444 153.563029 
L 81.453906 153.164252 
L 82.983371 152.351902 
L 84.512837 151.753521 
L 87.571768 148.287402 
L 89.101233 147.907868 
L 90.630699 147.82252 
L 93.68963 146.464497 
L 95.219095 146.313686 
L 96.748561 146.600289 
L 98.278026 145.969695 
L 99.807492 145.493562 
L 101.336958 145.831972 
L 102.866423 143.692377 
L 104.395889 143.642862 
L 105.925354 144.089694 
L 107.45482 143.688823 
L 108.984285 144.535175 
L 110.513751 143.748409 
L 113.572682 144.263367 
L 115.102147 143.727413 
L 116.631613 143.783687 
L 118.161078 144.187018 
L 119.690544 144.008922 
L 121.220009 145.193149 
L 122.749475 144.220947 
L 125.808406 143.161051 
L 127.337871 144.308655 
L 128.867337 144.943695 
L 130.396802 143.94137 
L 131.926268 143.662627 
L 133.455733 144.021125 
L 134.985199 143.156122 
L 136.514664 143.871484 
L 138.04413 142.633708 
L 139.573595 141.194188 
L 141.103061 142.48748 
L 142.632526 141.840749 
L 144.161992 143.000298 
L 145.691457 141.566428 
L 147.220923 141.934799 
L 148.750388 142.100571 
L 150.279854 141.855951 
L 151.809319 142.117966 
L 153.338785 141.059895 
L 154.86825 142.407362 
L 156.397716 142.180807 
L 157.927181 141.787302 
L 159.456647 142.164453 
L 160.986112 142.060489 
L 162.515578 142.091598 
L 164.045043 141.470715 
L 165.574509 141.855349 
L 167.103974 142.36451 
L 168.63344 141.395991 
L 170.162905 142.160325 
L 171.692371 141.738153 
L 173.221836 140.593459 
L 174.751302 141.868595 
L 176.280767 141.10299 
L 177.810233 141.543952 
L 179.339698 141.797041 
L 180.869164 140.471404 
L 182.39863 140.708734 
L 183.928095 140.710118 
L 185.457561 141.020901 
L 186.987026 139.634448 
L 188.516492 139.658559 
L 190.045957 139.991754 
L 191.575423 140.671021 
L 193.104888 138.910405 
L 194.634354 139.421482 
L 196.163819 139.735609 
L 197.693285 139.586972 
L 199.22275 141.759451 
L 200.752216 140.761031 
L 202.281681 141.218022 
L 203.811147 140.750193 
L 205.340612 140.955113 
L 206.870078 141.506109 
L 208.399543 140.395884 
L 209.929009 141.274574 
L 211.458474 141.461315 
L 212.98794 140.825404 
L 214.517405 140.320795 
L 216.046871 140.505719 
L 217.576336 140.904348 
L 219.105802 141.059998 
L 220.635267 141.867436 
L 222.164733 141.410212 
L 223.694198 140.368398 
L 225.223664 140.363268 
L 226.753129 140.959016 
L 228.282595 140.062833 
L 229.81206 140.084703 
L 231.341526 139.799645 
L 232.870991 141.152351 
L 234.400457 140.404217 
L 235.929922 140.300924 
L 237.459388 141.32182 
L 238.988853 141.940209 
L 240.518319 140.981547 
L 242.047784 140.167603 
L 243.57725 139.801015 
L 245.106715 140.224943 
L 246.636181 140.887031 
L 248.165646 140.477069 
L 249.695112 141.496461 
L 251.224577 140.681114 
L 252.754043 140.46807 
L 254.283508 141.001095 
L 255.812974 140.551604 
L 257.342439 141.08998 
L 258.871905 141.436286 
L 260.40137 140.813842 
L 261.930836 142.492693 
L 263.460302 141.515397 
L 264.989767 141.096412 
L 266.519233 140.970679 
L 268.048698 140.675038 
L 269.578164 140.545989 
L 271.107629 141.142018 
L 272.637095 141.034194 
L 275.696026 140.392498 
L 278.754957 142.54858 
L 280.284422 141.467622 
L 281.813888 141.409114 
L 283.343353 140.940095 
L 284.872819 140.628411 
L 286.402284 140.726169 
L 287.93175 141.291196 
L 289.461215 139.33229 
L 290.990681 139.922776 
L 292.520146 140.349082 
L 294.049612 140.386997 
L 295.579077 139.340454 
L 297.108543 139.035136 
L 298.638008 139.942385 
L 300.167474 140.412985 
L 301.696939 140.689083 
L 303.226405 140.285814 
L 304.75587 140.070975 
L 306.285336 140.061286 
L 307.814801 141.41943 
L 309.344267 140.245253 
L 310.873732 139.360514 
L 312.403198 140.985198 
L 313.932663 140.303931 
L 315.462129 141.716944 
L 316.991594 141.016735 
L 318.52106 141.471931 
L 320.050525 140.791472 
L 323.109456 141.460069 
L 324.638922 141.263796 
L 326.168387 142.518416 
L 327.697853 141.551274 
L 329.227318 140.18754 
L 332.286249 140.597423 
L 333.815715 140.850892 
L 335.34518 140.13432 
L 336.874646 141.234689 
L 338.404111 139.621839 
L 339.933577 140.822069 
L 341.463042 139.962031 
L 342.992508 142.287981 
L 344.521974 141.425963 
L 346.051439 140.833433 
L 347.580905 140.402166 
L 349.11037 140.332994 
L 350.639836 140.888959 
L 352.169301 140.807488 
L 353.698767 140.606333 
L 355.228232 140.046964 
L 356.757698 140.932407 
L 358.287163 140.34809 
L 359.816629 139.592819 
L 361.346094 139.597925 
L 362.87556 139.786566 
L 364.405025 140.494037 
L 365.934491 140.668674 
L 367.463956 140.593551 
L 368.993422 139.962175 
L 370.522887 139.941221 
L 372.052353 140.093311 
L 373.581818 139.96801 
L 373.581818 139.96801 
" clip-path="url(#pd51a753766)" style="fill: none; stroke: #1f77b4; stroke-width: 1.5; stroke-linecap: square"/>
   </g>
   <g id="line2d_16">
    <path d="M 69.218182 171.5472 
L 373.581818 171.5472 
L 373.581818 171.5472 
" clip-path="url(#pd51a753766)" style="fill: none; stroke-dasharray: 5.55,2.4; stroke-dashoffset: 0; stroke: #ff7f0e; stroke-width: 1.5"/>
   </g>
   <g id="line2d_17">
    <path d="M 69.218182 99.792 
L 373.581818 99.792 
L 373.581818 99.792 
" clip-path="url(#pd51a753766)" style="fill: none; stroke-dasharray: 5.55,2.4; stroke-dashoffset: 0; stroke: #2ca02c; stroke-width: 1.5"/>
   </g>
   <g id="patch_3">
    <path d="M 54 252 
L 54 34.56 
" style="fill: none; stroke: #000000; stroke-width: 0.8; stroke-linejoin: miter; stroke-linecap: square"/>
   </g>
   <g id="patch_4">
    <path d="M 388.8 252 
L 388.8 34.56 
" style="fill: none; stroke: #000000; stroke-width: 0.8; stroke-linejoin: miter; stroke-linecap: square"/>
   </g>
   <g id="patch_5">
    <path d="M 54 252 
L 388.8 252 
" style="fill: none; stroke: #000000; stroke-width: 0.8; stroke-linejoin: miter; stroke-linecap: square"/>
   </g>
   <g id="patch_6">
    <path d="M 54 34.56 
L 388.8 34.56 
" style="fill: none; stroke: #000000; stroke-width: 0.8; stroke-linejoin: miter; stroke-linecap: square"/>
   </g>
   <g id="text_17">
    <!-- Barbell -->
    <g transform="translate(200.305313 28.56)scale(0.12 -0.12)">
     <defs>
      <path id="DejaVuSans-42" d="M 1259 2228 
L 1259 519 
L 2272 519 
Q 2781 519 3026 730 
Q 3272 941 3272 1375 
Q 3272 1813 3026 2020 
Q 2781 2228 2272 2228 
L 1259 2228 
z
M 1259 4147 
L 1259 2741 
L 2194 2741 
Q 2656 2741 2882 2914 
Q 3109 3088 3109 3444 
Q 3109 3797 2882 3972 
Q 2656 4147 2194 4147 
L 1259 4147 
z
M 628 4666 
L 2241 4666 
Q 2963 4666 3353 4366 
Q 3744 4066 3744 3513 
Q 3744 3084 3544 2831 
Q 3344 2578 2956 2516 
Q 3422 2416 3680 2098 
Q 3938 1781 3938 1306 
Q 3938 681 3513 340 
Q 3088 0 2303 0 
L 628 0 
L 628 4666 
z
" transform="scale(0.015625)"/>
      <path id="DejaVuSans-62" d="M 3116 1747 
Q 3116 2381 2855 2742 
Q 2594 3103 2138 3103 
Q 1681 3103 1420 2742 
Q 1159 2381 1159 1747 
Q 1159 1113 1420 752 
Q 1681 391 2138 391 
Q 2594 391 2855 752 
Q 3116 1113 3116 1747 
z
M 1159 2969 
Q 1341 3281 1617 3432 
Q 1894 3584 2278 3584 
Q 2916 3584 3314 3078 
Q 3713 2572 3713 1747 
Q 3713 922 3314 415 
Q 2916 -91 2278 -91 
Q 1894 -91 1617 61 
Q 1341 213 1159 525 
L 1159 0 
L 581 0 
L 581 4863 
L 1159 4863 
L 1159 2969 
z
" transform="scale(0.015625)"/>
      <path id="DejaVuSans-6c" d="M 603 4863 
L 1178 4863 
L 1178 0 
L 603 0 
L 603 4863 
z
" transform="scale(0.015625)"/>
     </defs>
     <use xlink:href="#DejaVuSans-42"/>
     <use xlink:href="#DejaVuSans-61" x="68.603516"/>
     <use xlink:href="#DejaVuSans-72" x="129.882812"/>
     <use xlink:href="#DejaVuSans-62" x="170.996094"/>
     <use xlink:href="#DejaVuSans-65" x="234.472656"/>
     <use xlink:href="#DejaVuSans-6c" x="295.996094"/>
     <use xlink:href="#DejaVuSans-6c" x="323.779297"/>
    </g>
   </g>
   <g id="legend_1">
    <g id="patch_7">
     <path d="M 61 86.8725 
L 217.648438 86.8725 
Q 219.648438 86.8725 219.648438 84.8725 
L 219.648438 41.56 
Q 219.648438 39.56 217.648438 39.56 
L 61 39.56 
Q 59 39.56 59 41.56 
L 59 84.8725 
Q 59 86.8725 61 86.8725 
z
" style="fill: #ffffff; opacity: 0.8; stroke: #cccccc; stroke-linejoin: miter"/>
    </g>
    <g id="line2d_18">
     <path d="M 63 47.658437 
L 73 47.658437 
L 83 47.658437 
" style="fill: none; stroke: #1f77b4; stroke-width: 1.5; stroke-linecap: square"/>
    </g>
    <g id="text_18">
     <!-- training on barbell graph -->
     <g transform="translate(91 51.158437)scale(0.1 -0.1)">
      <defs>
       <path id="DejaVuSans-67" d="M 2906 1791 
Q 2906 2416 2648 2759 
Q 2391 3103 1925 3103 
Q 1463 3103 1205 2759 
Q 947 2416 947 1791 
Q 947 1169 1205 825 
Q 1463 481 1925 481 
Q 2391 481 2648 825 
Q 2906 1169 2906 1791 
z
M 3481 434 
Q 3481 -459 3084 -895 
Q 2688 -1331 1869 -1331 
Q 1566 -1331 1297 -1286 
Q 1028 -1241 775 -1147 
L 775 -588 
Q 1028 -725 1275 -790 
Q 1522 -856 1778 -856 
Q 2344 -856 2625 -561 
Q 2906 -266 2906 331 
L 2906 616 
Q 2728 306 2450 153 
Q 2172 0 1784 0 
Q 1141 0 747 490 
Q 353 981 353 1791 
Q 353 2603 747 3093 
Q 1141 3584 1784 3584 
Q 2172 3584 2450 3431 
Q 2728 3278 2906 2969 
L 2906 3500 
L 3481 3500 
L 3481 434 
z
" transform="scale(0.015625)"/>
       <path id="DejaVuSans-70" d="M 1159 525 
L 1159 -1331 
L 581 -1331 
L 581 3500 
L 1159 3500 
L 1159 2969 
Q 1341 3281 1617 3432 
Q 1894 3584 2278 3584 
Q 2916 3584 3314 3078 
Q 3713 2572 3713 1747 
Q 3713 922 3314 415 
Q 2916 -91 2278 -91 
Q 1894 -91 1617 61 
Q 1341 213 1159 525 
z
M 3116 1747 
Q 3116 2381 2855 2742 
Q 2594 3103 2138 3103 
Q 1681 3103 1420 2742 
Q 1159 2381 1159 1747 
Q 1159 1113 1420 752 
Q 1681 391 2138 391 
Q 2594 391 2855 752 
Q 3116 1113 3116 1747 
z
" transform="scale(0.015625)"/>
       <path id="DejaVuSans-68" d="M 3513 2113 
L 3513 0 
L 2938 0 
L 2938 2094 
Q 2938 2591 2744 2837 
Q 2550 3084 2163 3084 
Q 1697 3084 1428 2787 
Q 1159 2491 1159 1978 
L 1159 0 
L 581 0 
L 581 4863 
L 1159 4863 
L 1159 2956 
Q 1366 3272 1645 3428 
Q 1925 3584 2291 3584 
Q 2894 3584 3203 3211 
Q 3513 2838 3513 2113 
z
" transform="scale(0.015625)"/>
      </defs>
      <use xlink:href="#DejaVuSans-74"/>
      <use xlink:href="#DejaVuSans-72" x="39.208984"/>
      <use xlink:href="#DejaVuSans-61" x="80.322266"/>
      <use xlink:href="#DejaVuSans-69" x="141.601562"/>
      <use xlink:href="#DejaVuSans-6e" x="169.384766"/>
      <use xlink:href="#DejaVuSans-69" x="232.763672"/>
      <use xlink:href="#DejaVuSans-6e" x="260.546875"/>
      <use xlink:href="#DejaVuSans-67" x="323.925781"/>
      <use xlink:href="#DejaVuSans-20" x="387.402344"/>
      <use xlink:href="#DejaVuSans-6f" x="419.189453"/>
      <use xlink:href="#DejaVuSans-6e" x="480.371094"/>
      <use xlink:href="#DejaVuSans-20" x="543.75"/>
      <use xlink:href="#DejaVuSans-62" x="575.537109"/>
      <use xlink:href="#DejaVuSans-61" x="639.013672"/>
      <use xlink:href="#DejaVuSans-72" x="700.292969"/>
      <use xlink:href="#DejaVuSans-62" x="741.40625"/>
      <use xlink:href="#DejaVuSans-65" x="804.882812"/>
      <use xlink:href="#DejaVuSans-6c" x="866.40625"/>
      <use xlink:href="#DejaVuSans-6c" x="894.189453"/>
      <use xlink:href="#DejaVuSans-20" x="921.972656"/>
      <use xlink:href="#DejaVuSans-67" x="953.759766"/>
      <use xlink:href="#DejaVuSans-72" x="1017.236328"/>
      <use xlink:href="#DejaVuSans-61" x="1058.349609"/>
      <use xlink:href="#DejaVuSans-70" x="1119.628906"/>
      <use xlink:href="#DejaVuSans-68" x="1183.105469"/>
     </g>
    </g>
    <g id="line2d_19">
     <path d="M 63 62.336562 
L 73 62.336562 
L 83 62.336562 
" style="fill: none; stroke-dasharray: 5.55,2.4; stroke-dashoffset: 0; stroke: #ff7f0e; stroke-width: 1.5"/>
    </g>
    <g id="text_19">
     <!-- transfer learning -->
     <g transform="translate(91 65.836562)scale(0.1 -0.1)">
      <defs>
       <path id="DejaVuSans-73" d="M 2834 3397 
L 2834 2853 
Q 2591 2978 2328 3040 
Q 2066 3103 1784 3103 
Q 1356 3103 1142 2972 
Q 928 2841 928 2578 
Q 928 2378 1081 2264 
Q 1234 2150 1697 2047 
L 1894 2003 
Q 2506 1872 2764 1633 
Q 3022 1394 3022 966 
Q 3022 478 2636 193 
Q 2250 -91 1575 -91 
Q 1294 -91 989 -36 
Q 684 19 347 128 
L 347 722 
Q 666 556 975 473 
Q 1284 391 1588 391 
Q 1994 391 2212 530 
Q 2431 669 2431 922 
Q 2431 1156 2273 1281 
Q 2116 1406 1581 1522 
L 1381 1569 
Q 847 1681 609 1914 
Q 372 2147 372 2553 
Q 372 3047 722 3315 
Q 1072 3584 1716 3584 
Q 2034 3584 2315 3537 
Q 2597 3491 2834 3397 
z
" transform="scale(0.015625)"/>
       <path id="DejaVuSans-66" d="M 2375 4863 
L 2375 4384 
L 1825 4384 
Q 1516 4384 1395 4259 
Q 1275 4134 1275 3809 
L 1275 3500 
L 2222 3500 
L 2222 3053 
L 1275 3053 
L 1275 0 
L 697 0 
L 697 3053 
L 147 3053 
L 147 3500 
L 697 3500 
L 697 3744 
Q 697 4328 969 4595 
Q 1241 4863 1831 4863 
L 2375 4863 
z
" transform="scale(0.015625)"/>
      </defs>
      <use xlink:href="#DejaVuSans-74"/>
      <use xlink:href="#DejaVuSans-72" x="39.208984"/>
      <use xlink:href="#DejaVuSans-61" x="80.322266"/>
      <use xlink:href="#DejaVuSans-6e" x="141.601562"/>
      <use xlink:href="#DejaVuSans-73" x="204.980469"/>
      <use xlink:href="#DejaVuSans-66" x="257.080078"/>
      <use xlink:href="#DejaVuSans-65" x="292.285156"/>
      <use xlink:href="#DejaVuSans-72" x="353.808594"/>
      <use xlink:href="#DejaVuSans-20" x="394.921875"/>
      <use xlink:href="#DejaVuSans-6c" x="426.708984"/>
      <use xlink:href="#DejaVuSans-65" x="454.492188"/>
      <use xlink:href="#DejaVuSans-61" x="516.015625"/>
      <use xlink:href="#DejaVuSans-72" x="577.294922"/>
      <use xlink:href="#DejaVuSans-6e" x="616.658203"/>
      <use xlink:href="#DejaVuSans-69" x="680.037109"/>
      <use xlink:href="#DejaVuSans-6e" x="707.820312"/>
      <use xlink:href="#DejaVuSans-67" x="771.199219"/>
     </g>
    </g>
    <g id="line2d_20">
     <path d="M 63 77.014687 
L 73 77.014687 
L 83 77.014687 
" style="fill: none; stroke-dasharray: 5.55,2.4; stroke-dashoffset: 0; stroke: #2ca02c; stroke-width: 1.5"/>
    </g>
    <g id="text_20">
     <!-- QAOA_4 -->
     <g transform="translate(91 80.514687)scale(0.1 -0.1)">
      <defs>
       <path id="DejaVuSans-51" d="M 2522 4238 
Q 1834 4238 1429 3725 
Q 1025 3213 1025 2328 
Q 1025 1447 1429 934 
Q 1834 422 2522 422 
Q 3209 422 3611 934 
Q 4013 1447 4013 2328 
Q 4013 3213 3611 3725 
Q 3209 4238 2522 4238 
z
M 3406 84 
L 4238 -825 
L 3475 -825 
L 2784 -78 
Q 2681 -84 2626 -87 
Q 2572 -91 2522 -91 
Q 1538 -91 948 567 
Q 359 1225 359 2328 
Q 359 3434 948 4092 
Q 1538 4750 2522 4750 
Q 3503 4750 4090 4092 
Q 4678 3434 4678 2328 
Q 4678 1516 4351 937 
Q 4025 359 3406 84 
z
" transform="scale(0.015625)"/>
       <path id="DejaVuSans-41" d="M 2188 4044 
L 1331 1722 
L 3047 1722 
L 2188 4044 
z
M 1831 4666 
L 2547 4666 
L 4325 0 
L 3669 0 
L 3244 1197 
L 1141 1197 
L 716 0 
L 50 0 
L 1831 4666 
z
" transform="scale(0.015625)"/>
       <path id="DejaVuSans-4f" d="M 2522 4238 
Q 1834 4238 1429 3725 
Q 1025 3213 1025 2328 
Q 1025 1447 1429 934 
Q 1834 422 2522 422 
Q 3209 422 3611 934 
Q 4013 1447 4013 2328 
Q 4013 3213 3611 3725 
Q 3209 4238 2522 4238 
z
M 2522 4750 
Q 3503 4750 4090 4092 
Q 4678 3434 4678 2328 
Q 4678 1225 4090 567 
Q 3503 -91 2522 -91 
Q 1538 -91 948 565 
Q 359 1222 359 2328 
Q 359 3434 948 4092 
Q 1538 4750 2522 4750 
z
" transform="scale(0.015625)"/>
       <path id="DejaVuSans-5f" d="M 3263 -1063 
L 3263 -1509 
L -63 -1509 
L -63 -1063 
L 3263 -1063 
z
" transform="scale(0.015625)"/>
       <path id="DejaVuSans-34" d="M 2419 4116 
L 825 1625 
L 2419 1625 
L 2419 4116 
z
M 2253 4666 
L 3047 4666 
L 3047 1625 
L 3713 1625 
L 3713 1100 
L 3047 1100 
L 3047 0 
L 2419 0 
L 2419 1100 
L 313 1100 
L 313 1709 
L 2253 4666 
z
" transform="scale(0.015625)"/>
      </defs>
      <use xlink:href="#DejaVuSans-51"/>
      <use xlink:href="#DejaVuSans-41" x="78.710938"/>
      <use xlink:href="#DejaVuSans-4f" x="145.369141"/>
      <use xlink:href="#DejaVuSans-41" x="222.330078"/>
      <use xlink:href="#DejaVuSans-5f" x="290.738281"/>
      <use xlink:href="#DejaVuSans-34" x="340.738281"/>
     </g>
    </g>
   </g>
  </g>
 </g>
 <defs>
  <clipPath id="pd51a753766">
   <rect x="54" y="34.56" width="334.8" height="217.44"/>
  </clipPath>
 </defs>
</svg>
