<?xml version="1.0" encoding="utf-8" standalone="no"?>
<!DOCTYPE svg PUBLIC "-//W3C//DTD SVG 1.1//EN"
  "http://www.w3.org/Graphics/SVG/1.1/DTD/svg11.dtd">
<svg xmlns:xlink="http://www.w3.org/1999/xlink" width="432pt" height="288pt" viewBox="0 0 432 288" xmlns="http://www.w3.org/2000/svg" version="1.1">
 <metadata>
  <rdf:RDF xmlns:dc="http://purl.org/dc/elements/1.1/" xmlns:cc="http://creativecommons.org/ns#" xmlns:rdf="http://www.w3.org/1999/02/22-rdf-syntax-ns#">
   <cc:Work>
    <dc:type rdf:resource="http://purl.org/dc/dcmitype/StillImage"/>
    <dc:date>2023-06-27T09:38:31.878626</dc:date>
    <dc:format>image/svg+xml</dc:format>
    <dc:creator>
     <cc:Agent>
      <dc:title>Matplotlib v3.5.2, https://matplotlib.org/</dc:title>
     </cc:Agent>
    </dc:creator>
   </cc:Work>
  </rdf:RDF>
 </metadata>
 <defs>
  <style type="text/css">*{stroke-linejoin: round; stroke-linecap: butt}</style>
 </defs>
 <g id="figure_1">
  <g id="patch_1">
   <path d="M 0 288 
L 432 288 
L 432 0 
L 0 0 
L 0 288 
z
" style="fill: none"/>
  </g>
  <g id="axes_1">
   <g id="patch_2">
    <path d="M 54 252 
L 388.8 252 
L 388.8 34.56 
L 54 34.56 
z
" style="fill: #ffffff"/>
   </g>
   <g id="PolyCollection_1">
    <path d="M 69.218182 193.203905 
L 69.218182 169.460095 
L 70.747647 172.865883 
L 72.277113 174.114818 
L 73.806578 161.039905 
L 75.336044 166.365015 
L 76.865509 166.229914 
L 78.394975 167.223909 
L 79.92444 166.037471 
L 81.453906 164.919338 
L 82.983371 148.173004 
L 84.512837 161.317657 
L 86.042302 163.46894 
L 87.571768 152.120369 
L 89.101233 163.413619 
L 90.630699 155.75905 
L 92.160164 153.604309 
L 93.68963 161.518354 
L 95.219095 154.528638 
L 96.748561 166.760992 
L 98.278026 155.759692 
L 99.807492 155.455298 
L 101.336958 157.943846 
L 102.866423 160.070929 
L 104.395889 157.123516 
L 105.925354 154.728915 
L 107.45482 155.086582 
L 108.984285 148.545274 
L 110.513751 148.285303 
L 112.043216 155.048419 
L 113.572682 162.447459 
L 115.102147 155.24586 
L 116.631613 159.620864 
L 118.161078 153.566221 
L 119.690544 154.023706 
L 121.220009 155.157191 
L 122.749475 147.711824 
L 124.27894 159.200003 
L 125.808406 157.004138 
L 127.337871 154.391406 
L 128.867337 152.524924 
L 130.396802 154.020658 
L 131.926268 145.679428 
L 133.455733 149.590355 
L 134.985199 158.712522 
L 136.514664 157.257033 
L 138.04413 151.634865 
L 139.573595 150.491905 
L 141.103061 149.361734 
L 142.632526 143.885505 
L 144.161992 153.734358 
L 145.691457 149.997061 
L 147.220923 147.603457 
L 148.750388 145.289773 
L 150.279854 154.702234 
L 151.809319 145.971799 
L 153.338785 148.804892 
L 154.86825 144.838395 
L 156.397716 147.236449 
L 157.927181 146.748932 
L 159.456647 155.283833 
L 160.986112 151.389889 
L 162.515578 151.715247 
L 164.045043 152.595451 
L 165.574509 153.208299 
L 167.103974 150.73082 
L 168.63344 146.604472 
L 170.162905 153.108745 
L 171.692371 148.574887 
L 173.221836 147.493554 
L 174.751302 147.863442 
L 176.280767 148.83607 
L 177.810233 143.796141 
L 179.339698 152.709666 
L 180.869164 148.638231 
L 182.39863 144.810451 
L 183.928095 154.342834 
L 185.457561 152.349071 
L 186.987026 140.843483 
L 188.516492 147.36109 
L 190.045957 153.221333 
L 191.575423 143.078114 
L 193.104888 156.130777 
L 194.634354 149.661238 
L 196.163819 157.243043 
L 197.693285 138.068238 
L 199.22275 146.036545 
L 200.752216 149.169042 
L 202.281681 153.975011 
L 203.811147 148.194326 
L 205.340612 149.63309 
L 206.870078 141.818133 
L 208.399543 145.246025 
L 209.929009 140.948874 
L 211.458474 148.867101 
L 212.98794 143.008943 
L 214.517405 149.453023 
L 216.046871 137.970388 
L 217.576336 149.127356 
L 219.105802 146.271867 
L 220.635267 151.382957 
L 222.164733 149.773925 
L 223.694198 147.209491 
L 225.223664 144.23574 
L 226.753129 147.377549 
L 228.282595 150.886376 
L 229.81206 146.889301 
L 231.341526 145.519961 
L 232.870991 142.999146 
L 234.400457 151.832341 
L 235.929922 140.531609 
L 237.459388 141.300252 
L 238.988853 145.749453 
L 240.518319 136.048008 
L 242.047784 145.823149 
L 243.57725 148.390628 
L 245.106715 147.534435 
L 246.636181 141.230273 
L 248.165646 144.467156 
L 249.695112 146.961027 
L 251.224577 143.654711 
L 252.754043 143.712465 
L 254.283508 142.595759 
L 255.812974 143.278093 
L 257.342439 146.958484 
L 258.871905 139.35312 
L 260.40137 141.617262 
L 261.930836 143.471699 
L 263.460302 139.705453 
L 264.989767 133.597423 
L 266.519233 133.909624 
L 268.048698 144.144458 
L 269.578164 138.543646 
L 271.107629 146.316916 
L 272.637095 144.754578 
L 274.16656 141.008543 
L 275.696026 142.385494 
L 277.225491 141.729543 
L 278.754957 141.232834 
L 280.284422 136.02025 
L 281.813888 142.55123 
L 283.343353 139.794567 
L 284.872819 134.581058 
L 286.402284 144.903599 
L 287.93175 145.629053 
L 289.461215 138.146124 
L 290.990681 134.671546 
L 292.520146 139.497537 
L 294.049612 139.57934 
L 295.579077 137.285446 
L 297.108543 140.257624 
L 298.638008 142.286597 
L 300.167474 144.341387 
L 301.696939 137.206457 
L 303.226405 138.157021 
L 304.75587 138.728875 
L 306.285336 133.518973 
L 307.814801 139.527048 
L 309.344267 134.416467 
L 310.873732 148.360852 
L 312.403198 132.521926 
L 313.932663 133.723419 
L 315.462129 136.295314 
L 316.991594 142.171931 
L 318.52106 139.503363 
L 320.050525 140.037409 
L 321.579991 137.631998 
L 323.109456 135.428687 
L 324.638922 138.090247 
L 326.168387 143.198198 
L 327.697853 134.234606 
L 329.227318 137.719151 
L 330.756784 136.912665 
L 332.286249 145.488283 
L 333.815715 144.698738 
L 335.34518 134.76625 
L 336.874646 132.654927 
L 338.404111 137.286127 
L 339.933577 135.526885 
L 341.463042 153.603873 
L 342.992508 143.858591 
L 344.521974 131.115014 
L 346.051439 142.358759 
L 347.580905 140.155802 
L 349.11037 138.161372 
L 350.639836 141.576855 
L 352.169301 141.526903 
L 353.698767 137.732161 
L 355.228232 141.967002 
L 356.757698 133.149057 
L 358.287163 134.393496 
L 359.816629 136.653412 
L 361.346094 135.561568 
L 362.87556 132.96024 
L 364.405025 131.995846 
L 365.934491 133.191129 
L 367.463956 132.031026 
L 368.993422 135.923326 
L 370.522887 140.067263 
L 372.052353 139.411142 
L 373.581818 139.809329 
L 373.581818 151.099471 
L 373.581818 151.099471 
L 372.052353 155.629018 
L 370.522887 158.886817 
L 368.993422 164.552834 
L 367.463956 149.527854 
L 365.934491 155.108391 
L 364.405025 151.737434 
L 362.87556 156.20904 
L 361.346094 152.737952 
L 359.816629 147.732188 
L 358.287163 156.732744 
L 356.757698 156.237663 
L 355.228232 156.117318 
L 353.698767 164.266079 
L 352.169301 155.470217 
L 350.639836 151.288905 
L 349.11037 152.964868 
L 347.580905 160.320358 
L 346.051439 151.594201 
L 344.521974 155.444986 
L 342.992508 152.268769 
L 341.463042 161.440767 
L 339.933577 151.902875 
L 338.404111 162.972593 
L 336.874646 153.470193 
L 335.34518 153.09839 
L 333.815715 164.475022 
L 332.286249 164.990117 
L 330.756784 156.170535 
L 329.227318 145.796689 
L 327.697853 159.935794 
L 326.168387 162.931402 
L 324.638922 167.604473 
L 323.109456 151.566193 
L 321.579991 155.016322 
L 320.050525 153.698111 
L 318.52106 161.407677 
L 316.991594 153.520549 
L 315.462129 147.872846 
L 313.932663 157.837701 
L 312.403198 152.950874 
L 310.873732 161.030348 
L 309.344267 154.100493 
L 307.814801 160.514232 
L 306.285336 152.388707 
L 304.75587 154.354325 
L 303.226405 151.664579 
L 301.696939 154.789543 
L 300.167474 153.525493 
L 298.638008 151.014043 
L 297.108543 152.173256 
L 295.579077 152.318714 
L 294.049612 150.89458 
L 292.520146 156.629823 
L 290.990681 153.410534 
L 289.461215 153.414996 
L 287.93175 155.064547 
L 286.402284 162.965521 
L 284.872819 152.196382 
L 283.343353 154.593273 
L 281.813888 153.14125 
L 280.284422 157.71527 
L 278.754957 152.067806 
L 277.225491 155.919897 
L 275.696026 154.829066 
L 274.16656 150.117697 
L 272.637095 157.243662 
L 271.107629 159.377804 
L 269.578164 159.975554 
L 268.048698 161.985142 
L 266.519233 148.953896 
L 264.989767 153.614897 
L 263.460302 154.899827 
L 261.930836 148.089421 
L 260.40137 150.161298 
L 258.871905 163.08 
L 257.342439 149.603756 
L 255.812974 155.675987 
L 254.283508 161.142001 
L 252.754043 153.502095 
L 251.224577 159.430729 
L 249.695112 150.036093 
L 248.165646 164.706604 
L 246.636181 153.809887 
L 245.106715 151.637085 
L 243.57725 163.392412 
L 242.047784 151.608851 
L 240.518319 157.035192 
L 238.988853 162.119667 
L 237.459388 158.958468 
L 235.929922 149.507431 
L 234.400457 160.603019 
L 232.870991 155.737494 
L 231.341526 158.435239 
L 229.81206 156.196139 
L 228.282595 156.765304 
L 226.753129 154.403251 
L 225.223664 160.37178 
L 223.694198 153.266669 
L 222.164733 163.531195 
L 220.635267 155.833843 
L 219.105802 164.858853 
L 217.576336 154.175524 
L 216.046871 154.677932 
L 214.517405 162.764897 
L 212.98794 162.903217 
L 211.458474 153.566019 
L 209.929009 152.569206 
L 208.399543 160.883575 
L 206.870078 150.395307 
L 205.340612 152.58259 
L 203.811147 163.806154 
L 202.281681 158.025469 
L 200.752216 156.960558 
L 199.22275 158.570975 
L 197.693285 151.970802 
L 196.163819 164.759677 
L 194.634354 159.295082 
L 193.104888 162.610343 
L 191.575423 153.701566 
L 190.045957 156.387307 
L 188.516492 159.63827 
L 186.987026 163.111717 
L 185.457561 159.868849 
L 183.928095 165.920366 
L 182.39863 153.273869 
L 180.869164 155.099529 
L 179.339698 155.594334 
L 177.810233 162.333459 
L 176.280767 154.03193 
L 174.751302 156.091758 
L 173.221836 166.681326 
L 171.692371 174.515033 
L 170.162905 167.589335 
L 168.63344 160.829768 
L 167.103974 161.70454 
L 165.574509 171.186261 
L 164.045043 162.231749 
L 162.515578 157.023633 
L 160.986112 159.740831 
L 159.456647 161.065447 
L 157.927181 165.468988 
L 156.397716 164.981471 
L 154.86825 162.378405 
L 153.338785 160.151428 
L 151.809319 152.764841 
L 150.279854 163.604006 
L 148.750388 158.665427 
L 147.220923 173.746943 
L 145.691457 160.046459 
L 144.161992 157.831242 
L 142.632526 164.635935 
L 141.103061 163.725946 
L 139.573595 159.551615 
L 138.04413 159.495855 
L 136.514664 164.963127 
L 134.985199 166.986678 
L 133.455733 165.019405 
L 131.926268 164.364092 
L 130.396802 172.330862 
L 128.867337 168.390596 
L 127.337871 156.521874 
L 125.808406 169.999702 
L 124.27894 166.716637 
L 122.749475 160.157296 
L 121.220009 166.193209 
L 119.690544 172.762694 
L 118.161078 171.263219 
L 116.631613 163.903936 
L 115.102147 165.8871 
L 113.572682 171.079581 
L 112.043216 176.304221 
L 110.513751 159.583817 
L 108.984285 166.716806 
L 107.45482 167.785898 
L 105.925354 166.404045 
L 104.395889 173.141924 
L 102.866423 170.846831 
L 101.336958 171.234394 
L 99.807492 173.070622 
L 98.278026 167.547668 
L 96.748561 176.115968 
L 95.219095 165.952002 
L 93.68963 173.095886 
L 92.160164 173.834411 
L 90.630699 173.20175 
L 89.101233 175.549421 
L 87.571768 167.707951 
L 86.042302 173.53714 
L 84.512837 166.121063 
L 82.983371 167.741396 
L 81.453906 179.479702 
L 79.92444 174.447649 
L 78.394975 177.392571 
L 76.865509 176.864486 
L 75.336044 176.077065 
L 73.806578 173.574335 
L 72.277113 185.505022 
L 70.747647 186.319077 
L 69.218182 193.203905 
z
" clip-path="url(#p94992eb444)" style="fill: #1f77b4; fill-opacity: 0.5"/>
   </g>
   <g id="PolyCollection_2">
    <path d="M 69.218182 189.523734 
L 69.218182 175.314666 
L 70.747647 175.314666 
L 72.277113 175.314666 
L 73.806578 175.314666 
L 75.336044 175.314666 
L 76.865509 175.314666 
L 78.394975 175.314666 
L 79.92444 175.314666 
L 81.453906 175.314666 
L 82.983371 175.314666 
L 84.512837 175.314666 
L 86.042302 175.314666 
L 87.571768 175.314666 
L 89.101233 175.314666 
L 90.630699 175.314666 
L 92.160164 175.314666 
L 93.68963 175.314666 
L 95.219095 175.314666 
L 96.748561 175.314666 
L 98.278026 175.314666 
L 99.807492 175.314666 
L 101.336958 175.314666 
L 102.866423 175.314666 
L 104.395889 175.314666 
L 105.925354 175.314666 
L 107.45482 175.314666 
L 108.984285 175.314666 
L 110.513751 175.314666 
L 112.043216 175.314666 
L 113.572682 175.314666 
L 115.102147 175.314666 
L 116.631613 175.314666 
L 118.161078 175.314666 
L 119.690544 175.314666 
L 121.220009 175.314666 
L 122.749475 175.314666 
L 124.27894 175.314666 
L 125.808406 175.314666 
L 127.337871 175.314666 
L 128.867337 175.314666 
L 130.396802 175.314666 
L 131.926268 175.314666 
L 133.455733 175.314666 
L 134.985199 175.314666 
L 136.514664 175.314666 
L 138.04413 175.314666 
L 139.573595 175.314666 
L 141.103061 175.314666 
L 142.632526 175.314666 
L 144.161992 175.314666 
L 145.691457 175.314666 
L 147.220923 175.314666 
L 148.750388 175.314666 
L 150.279854 175.314666 
L 151.809319 175.314666 
L 153.338785 175.314666 
L 154.86825 175.314666 
L 156.397716 175.314666 
L 157.927181 175.314666 
L 159.456647 175.314666 
L 160.986112 175.314666 
L 162.515578 175.314666 
L 164.045043 175.314666 
L 165.574509 175.314666 
L 167.103974 175.314666 
L 168.63344 175.314666 
L 170.162905 175.314666 
L 171.692371 175.314666 
L 173.221836 175.314666 
L 174.751302 175.314666 
L 176.280767 175.314666 
L 177.810233 175.314666 
L 179.339698 175.314666 
L 180.869164 175.314666 
L 182.39863 175.314666 
L 183.928095 175.314666 
L 185.457561 175.314666 
L 186.987026 175.314666 
L 188.516492 175.314666 
L 190.045957 175.314666 
L 191.575423 175.314666 
L 193.104888 175.314666 
L 194.634354 175.314666 
L 196.163819 175.314666 
L 197.693285 175.314666 
L 199.22275 175.314666 
L 200.752216 175.314666 
L 202.281681 175.314666 
L 203.811147 175.314666 
L 205.340612 175.314666 
L 206.870078 175.314666 
L 208.399543 175.314666 
L 209.929009 175.314666 
L 211.458474 175.314666 
L 212.98794 175.314666 
L 214.517405 175.314666 
L 216.046871 175.314666 
L 217.576336 175.314666 
L 219.105802 175.314666 
L 220.635267 175.314666 
L 222.164733 175.314666 
L 223.694198 175.314666 
L 225.223664 175.314666 
L 226.753129 175.314666 
L 228.282595 175.314666 
L 229.81206 175.314666 
L 231.341526 175.314666 
L 232.870991 175.314666 
L 234.400457 175.314666 
L 235.929922 175.314666 
L 237.459388 175.314666 
L 238.988853 175.314666 
L 240.518319 175.314666 
L 242.047784 175.314666 
L 243.57725 175.314666 
L 245.106715 175.314666 
L 246.636181 175.314666 
L 248.165646 175.314666 
L 249.695112 175.314666 
L 251.224577 175.314666 
L 252.754043 175.314666 
L 254.283508 175.314666 
L 255.812974 175.314666 
L 257.342439 175.314666 
L 258.871905 175.314666 
L 260.40137 175.314666 
L 261.930836 175.314666 
L 263.460302 175.314666 
L 264.989767 175.314666 
L 266.519233 175.314666 
L 268.048698 175.314666 
L 269.578164 175.314666 
L 271.107629 175.314666 
L 272.637095 175.314666 
L 274.16656 175.314666 
L 275.696026 175.314666 
L 277.225491 175.314666 
L 278.754957 175.314666 
L 280.284422 175.314666 
L 281.813888 175.314666 
L 283.343353 175.314666 
L 284.872819 175.314666 
L 286.402284 175.314666 
L 287.93175 175.314666 
L 289.461215 175.314666 
L 290.990681 175.314666 
L 292.520146 175.314666 
L 294.049612 175.314666 
L 295.579077 175.314666 
L 297.108543 175.314666 
L 298.638008 175.314666 
L 300.167474 175.314666 
L 301.696939 175.314666 
L 303.226405 175.314666 
L 304.75587 175.314666 
L 306.285336 175.314666 
L 307.814801 175.314666 
L 309.344267 175.314666 
L 310.873732 175.314666 
L 312.403198 175.314666 
L 313.932663 175.314666 
L 315.462129 175.314666 
L 316.991594 175.314666 
L 318.52106 175.314666 
L 320.050525 175.314666 
L 321.579991 175.314666 
L 323.109456 175.314666 
L 324.638922 175.314666 
L 326.168387 175.314666 
L 327.697853 175.314666 
L 329.227318 175.314666 
L 330.756784 175.314666 
L 332.286249 175.314666 
L 333.815715 175.314666 
L 335.34518 175.314666 
L 336.874646 175.314666 
L 338.404111 175.314666 
L 339.933577 175.314666 
L 341.463042 175.314666 
L 342.992508 175.314666 
L 344.521974 175.314666 
L 346.051439 175.314666 
L 347.580905 175.314666 
L 349.11037 175.314666 
L 350.639836 175.314666 
L 352.169301 175.314666 
L 353.698767 175.314666 
L 355.228232 175.314666 
L 356.757698 175.314666 
L 358.287163 175.314666 
L 359.816629 175.314666 
L 361.346094 175.314666 
L 362.87556 175.314666 
L 364.405025 175.314666 
L 365.934491 175.314666 
L 367.463956 175.314666 
L 368.993422 175.314666 
L 370.522887 175.314666 
L 372.052353 175.314666 
L 373.581818 175.314666 
L 373.581818 189.523734 
L 373.581818 189.523734 
L 372.052353 189.523734 
L 370.522887 189.523734 
L 368.993422 189.523734 
L 367.463956 189.523734 
L 365.934491 189.523734 
L 364.405025 189.523734 
L 362.87556 189.523734 
L 361.346094 189.523734 
L 359.816629 189.523734 
L 358.287163 189.523734 
L 356.757698 189.523734 
L 355.228232 189.523734 
L 353.698767 189.523734 
L 352.169301 189.523734 
L 350.639836 189.523734 
L 349.11037 189.523734 
L 347.580905 189.523734 
L 346.051439 189.523734 
L 344.521974 189.523734 
L 342.992508 189.523734 
L 341.463042 189.523734 
L 339.933577 189.523734 
L 338.404111 189.523734 
L 336.874646 189.523734 
L 335.34518 189.523734 
L 333.815715 189.523734 
L 332.286249 189.523734 
L 330.756784 189.523734 
L 329.227318 189.523734 
L 327.697853 189.523734 
L 326.168387 189.523734 
L 324.638922 189.523734 
L 323.109456 189.523734 
L 321.579991 189.523734 
L 320.050525 189.523734 
L 318.52106 189.523734 
L 316.991594 189.523734 
L 315.462129 189.523734 
L 313.932663 189.523734 
L 312.403198 189.523734 
L 310.873732 189.523734 
L 309.344267 189.523734 
L 307.814801 189.523734 
L 306.285336 189.523734 
L 304.75587 189.523734 
L 303.226405 189.523734 
L 301.696939 189.523734 
L 300.167474 189.523734 
L 298.638008 189.523734 
L 297.108543 189.523734 
L 295.579077 189.523734 
L 294.049612 189.523734 
L 292.520146 189.523734 
L 290.990681 189.523734 
L 289.461215 189.523734 
L 287.93175 189.523734 
L 286.402284 189.523734 
L 284.872819 189.523734 
L 283.343353 189.523734 
L 281.813888 189.523734 
L 280.284422 189.523734 
L 278.754957 189.523734 
L 277.225491 189.523734 
L 275.696026 189.523734 
L 274.16656 189.523734 
L 272.637095 189.523734 
L 271.107629 189.523734 
L 269.578164 189.523734 
L 268.048698 189.523734 
L 266.519233 189.523734 
L 264.989767 189.523734 
L 263.460302 189.523734 
L 261.930836 189.523734 
L 260.40137 189.523734 
L 258.871905 189.523734 
L 257.342439 189.523734 
L 255.812974 189.523734 
L 254.283508 189.523734 
L 252.754043 189.523734 
L 251.224577 189.523734 
L 249.695112 189.523734 
L 248.165646 189.523734 
L 246.636181 189.523734 
L 245.106715 189.523734 
L 243.57725 189.523734 
L 242.047784 189.523734 
L 240.518319 189.523734 
L 238.988853 189.523734 
L 237.459388 189.523734 
L 235.929922 189.523734 
L 234.400457 189.523734 
L 232.870991 189.523734 
L 231.341526 189.523734 
L 229.81206 189.523734 
L 228.282595 189.523734 
L 226.753129 189.523734 
L 225.223664 189.523734 
L 223.694198 189.523734 
L 222.164733 189.523734 
L 220.635267 189.523734 
L 219.105802 189.523734 
L 217.576336 189.523734 
L 216.046871 189.523734 
L 214.517405 189.523734 
L 212.98794 189.523734 
L 211.458474 189.523734 
L 209.929009 189.523734 
L 208.399543 189.523734 
L 206.870078 189.523734 
L 205.340612 189.523734 
L 203.811147 189.523734 
L 202.281681 189.523734 
L 200.752216 189.523734 
L 199.22275 189.523734 
L 197.693285 189.523734 
L 196.163819 189.523734 
L 194.634354 189.523734 
L 193.104888 189.523734 
L 191.575423 189.523734 
L 190.045957 189.523734 
L 188.516492 189.523734 
L 186.987026 189.523734 
L 185.457561 189.523734 
L 183.928095 189.523734 
L 182.39863 189.523734 
L 180.869164 189.523734 
L 179.339698 189.523734 
L 177.810233 189.523734 
L 176.280767 189.523734 
L 174.751302 189.523734 
L 173.221836 189.523734 
L 171.692371 189.523734 
L 170.162905 189.523734 
L 168.63344 189.523734 
L 167.103974 189.523734 
L 165.574509 189.523734 
L 164.045043 189.523734 
L 162.515578 189.523734 
L 160.986112 189.523734 
L 159.456647 189.523734 
L 157.927181 189.523734 
L 156.397716 189.523734 
L 154.86825 189.523734 
L 153.338785 189.523734 
L 151.809319 189.523734 
L 150.279854 189.523734 
L 148.750388 189.523734 
L 147.220923 189.523734 
L 145.691457 189.523734 
L 144.161992 189.523734 
L 142.632526 189.523734 
L 141.103061 189.523734 
L 139.573595 189.523734 
L 138.04413 189.523734 
L 136.514664 189.523734 
L 134.985199 189.523734 
L 133.455733 189.523734 
L 131.926268 189.523734 
L 130.396802 189.523734 
L 128.867337 189.523734 
L 127.337871 189.523734 
L 125.808406 189.523734 
L 124.27894 189.523734 
L 122.749475 189.523734 
L 121.220009 189.523734 
L 119.690544 189.523734 
L 118.161078 189.523734 
L 116.631613 189.523734 
L 115.102147 189.523734 
L 113.572682 189.523734 
L 112.043216 189.523734 
L 110.513751 189.523734 
L 108.984285 189.523734 
L 107.45482 189.523734 
L 105.925354 189.523734 
L 104.395889 189.523734 
L 102.866423 189.523734 
L 101.336958 189.523734 
L 99.807492 189.523734 
L 98.278026 189.523734 
L 96.748561 189.523734 
L 95.219095 189.523734 
L 93.68963 189.523734 
L 92.160164 189.523734 
L 90.630699 189.523734 
L 89.101233 189.523734 
L 87.571768 189.523734 
L 86.042302 189.523734 
L 84.512837 189.523734 
L 82.983371 189.523734 
L 81.453906 189.523734 
L 79.92444 189.523734 
L 78.394975 189.523734 
L 76.865509 189.523734 
L 75.336044 189.523734 
L 73.806578 189.523734 
L 72.277113 189.523734 
L 70.747647 189.523734 
L 69.218182 189.523734 
z
" clip-path="url(#p94992eb444)" style="fill: #ff7f0e; fill-opacity: 0.5"/>
   </g>
   <g id="matplotlib.axis_1">
    <g id="xtick_1">
     <g id="line2d_1">
      <defs>
       <path id="mccff560e0a" d="M 0 0 
L 0 3.5 
" style="stroke: #000000; stroke-width: 0.8"/>
      </defs>
      <g>
       <use xlink:href="#mccff560e0a" x="69.218182" y="252" style="stroke: #000000; stroke-width: 0.8"/>
      </g>
     </g>
     <g id="text_1">
      <!-- 0 -->
      <g transform="translate(66.036932 266.598437)scale(0.1 -0.1)">
       <defs>
        <path id="DejaVuSans-30" d="M 2034 4250 
Q 1547 4250 1301 3770 
Q 1056 3291 1056 2328 
Q 1056 1369 1301 889 
Q 1547 409 2034 409 
Q 2525 409 2770 889 
Q 3016 1369 3016 2328 
Q 3016 3291 2770 3770 
Q 2525 4250 2034 4250 
z
M 2034 4750 
Q 2819 4750 3233 4129 
Q 3647 3509 3647 2328 
Q 3647 1150 3233 529 
Q 2819 -91 2034 -91 
Q 1250 -91 836 529 
Q 422 1150 422 2328 
Q 422 3509 836 4129 
Q 1250 4750 2034 4750 
z
" transform="scale(0.015625)"/>
       </defs>
       <use xlink:href="#DejaVuSans-30"/>
      </g>
     </g>
    </g>
    <g id="xtick_2">
     <g id="line2d_2">
      <g>
       <use xlink:href="#mccff560e0a" x="107.45482" y="252" style="stroke: #000000; stroke-width: 0.8"/>
      </g>
     </g>
     <g id="text_2">
      <!-- 25 -->
      <g transform="translate(101.09232 266.598437)scale(0.1 -0.1)">
       <defs>
        <path id="DejaVuSans-32" d="M 1228 531 
L 3431 531 
L 3431 0 
L 469 0 
L 469 531 
Q 828 903 1448 1529 
Q 2069 2156 2228 2338 
Q 2531 2678 2651 2914 
Q 2772 3150 2772 3378 
Q 2772 3750 2511 3984 
Q 2250 4219 1831 4219 
Q 1534 4219 1204 4116 
Q 875 4013 500 3803 
L 500 4441 
Q 881 4594 1212 4672 
Q 1544 4750 1819 4750 
Q 2544 4750 2975 4387 
Q 3406 4025 3406 3419 
Q 3406 3131 3298 2873 
Q 3191 2616 2906 2266 
Q 2828 2175 2409 1742 
Q 1991 1309 1228 531 
z
" transform="scale(0.015625)"/>
        <path id="DejaVuSans-35" d="M 691 4666 
L 3169 4666 
L 3169 4134 
L 1269 4134 
L 1269 2991 
Q 1406 3038 1543 3061 
Q 1681 3084 1819 3084 
Q 2600 3084 3056 2656 
Q 3513 2228 3513 1497 
Q 3513 744 3044 326 
Q 2575 -91 1722 -91 
Q 1428 -91 1123 -41 
Q 819 9 494 109 
L 494 744 
Q 775 591 1075 516 
Q 1375 441 1709 441 
Q 2250 441 2565 725 
Q 2881 1009 2881 1497 
Q 2881 1984 2565 2268 
Q 2250 2553 1709 2553 
Q 1456 2553 1204 2497 
Q 953 2441 691 2322 
L 691 4666 
z
" transform="scale(0.015625)"/>
       </defs>
       <use xlink:href="#DejaVuSans-32"/>
       <use xlink:href="#DejaVuSans-35" x="63.623047"/>
      </g>
     </g>
    </g>
    <g id="xtick_3">
     <g id="line2d_3">
      <g>
       <use xlink:href="#mccff560e0a" x="145.691457" y="252" style="stroke: #000000; stroke-width: 0.8"/>
      </g>
     </g>
     <g id="text_3">
      <!-- 50 -->
      <g transform="translate(139.328957 266.598437)scale(0.1 -0.1)">
       <use xlink:href="#DejaVuSans-35"/>
       <use xlink:href="#DejaVuSans-30" x="63.623047"/>
      </g>
     </g>
    </g>
    <g id="xtick_4">
     <g id="line2d_4">
      <g>
       <use xlink:href="#mccff560e0a" x="183.928095" y="252" style="stroke: #000000; stroke-width: 0.8"/>
      </g>
     </g>
     <g id="text_4">
      <!-- 75 -->
      <g transform="translate(177.565595 266.598437)scale(0.1 -0.1)">
       <defs>
        <path id="DejaVuSans-37" d="M 525 4666 
L 3525 4666 
L 3525 4397 
L 1831 0 
L 1172 0 
L 2766 4134 
L 525 4134 
L 525 4666 
z
" transform="scale(0.015625)"/>
       </defs>
       <use xlink:href="#DejaVuSans-37"/>
       <use xlink:href="#DejaVuSans-35" x="63.623047"/>
      </g>
     </g>
    </g>
    <g id="xtick_5">
     <g id="line2d_5">
      <g>
       <use xlink:href="#mccff560e0a" x="222.164733" y="252" style="stroke: #000000; stroke-width: 0.8"/>
      </g>
     </g>
     <g id="text_5">
      <!-- 100 -->
      <g transform="translate(212.620983 266.598437)scale(0.1 -0.1)">
       <defs>
        <path id="DejaVuSans-31" d="M 794 531 
L 1825 531 
L 1825 4091 
L 703 3866 
L 703 4441 
L 1819 4666 
L 2450 4666 
L 2450 531 
L 3481 531 
L 3481 0 
L 794 0 
L 794 531 
z
" transform="scale(0.015625)"/>
       </defs>
       <use xlink:href="#DejaVuSans-31"/>
       <use xlink:href="#DejaVuSans-30" x="63.623047"/>
       <use xlink:href="#DejaVuSans-30" x="127.246094"/>
      </g>
     </g>
    </g>
    <g id="xtick_6">
     <g id="line2d_6">
      <g>
       <use xlink:href="#mccff560e0a" x="260.40137" y="252" style="stroke: #000000; stroke-width: 0.8"/>
      </g>
     </g>
     <g id="text_6">
      <!-- 125 -->
      <g transform="translate(250.85762 266.598437)scale(0.1 -0.1)">
       <use xlink:href="#DejaVuSans-31"/>
       <use xlink:href="#DejaVuSans-32" x="63.623047"/>
       <use xlink:href="#DejaVuSans-35" x="127.246094"/>
      </g>
     </g>
    </g>
    <g id="xtick_7">
     <g id="line2d_7">
      <g>
       <use xlink:href="#mccff560e0a" x="298.638008" y="252" style="stroke: #000000; stroke-width: 0.8"/>
      </g>
     </g>
     <g id="text_7">
      <!-- 150 -->
      <g transform="translate(289.094258 266.598437)scale(0.1 -0.1)">
       <use xlink:href="#DejaVuSans-31"/>
       <use xlink:href="#DejaVuSans-35" x="63.623047"/>
       <use xlink:href="#DejaVuSans-30" x="127.246094"/>
      </g>
     </g>
    </g>
    <g id="xtick_8">
     <g id="line2d_8">
      <g>
       <use xlink:href="#mccff560e0a" x="336.874646" y="252" style="stroke: #000000; stroke-width: 0.8"/>
      </g>
     </g>
     <g id="text_8">
      <!-- 175 -->
      <g transform="translate(327.330896 266.598437)scale(0.1 -0.1)">
       <use xlink:href="#DejaVuSans-31"/>
       <use xlink:href="#DejaVuSans-37" x="63.623047"/>
       <use xlink:href="#DejaVuSans-35" x="127.246094"/>
      </g>
     </g>
    </g>
    <g id="xtick_9">
     <g id="line2d_9">
      <g>
       <use xlink:href="#mccff560e0a" x="375.111284" y="252" style="stroke: #000000; stroke-width: 0.8"/>
      </g>
     </g>
     <g id="text_9">
      <!-- 200 -->
      <g transform="translate(365.567534 266.598437)scale(0.1 -0.1)">
       <use xlink:href="#DejaVuSans-32"/>
       <use xlink:href="#DejaVuSans-30" x="63.623047"/>
       <use xlink:href="#DejaVuSans-30" x="127.246094"/>
      </g>
     </g>
    </g>
    <g id="text_10">
     <!-- Generation -->
     <g transform="translate(193.507031 280.276563)scale(0.1 -0.1)">
      <defs>
       <path id="DejaVuSans-47" d="M 3809 666 
L 3809 1919 
L 2778 1919 
L 2778 2438 
L 4434 2438 
L 4434 434 
Q 4069 175 3628 42 
Q 3188 -91 2688 -91 
Q 1594 -91 976 548 
Q 359 1188 359 2328 
Q 359 3472 976 4111 
Q 1594 4750 2688 4750 
Q 3144 4750 3555 4637 
Q 3966 4525 4313 4306 
L 4313 3634 
Q 3963 3931 3569 4081 
Q 3175 4231 2741 4231 
Q 1884 4231 1454 3753 
Q 1025 3275 1025 2328 
Q 1025 1384 1454 906 
Q 1884 428 2741 428 
Q 3075 428 3337 486 
Q 3600 544 3809 666 
z
" transform="scale(0.015625)"/>
       <path id="DejaVuSans-65" d="M 3597 1894 
L 3597 1613 
L 953 1613 
Q 991 1019 1311 708 
Q 1631 397 2203 397 
Q 2534 397 2845 478 
Q 3156 559 3463 722 
L 3463 178 
Q 3153 47 2828 -22 
Q 2503 -91 2169 -91 
Q 1331 -91 842 396 
Q 353 884 353 1716 
Q 353 2575 817 3079 
Q 1281 3584 2069 3584 
Q 2775 3584 3186 3129 
Q 3597 2675 3597 1894 
z
M 3022 2063 
Q 3016 2534 2758 2815 
Q 2500 3097 2075 3097 
Q 1594 3097 1305 2825 
Q 1016 2553 972 2059 
L 3022 2063 
z
" transform="scale(0.015625)"/>
       <path id="DejaVuSans-6e" d="M 3513 2113 
L 3513 0 
L 2938 0 
L 2938 2094 
Q 2938 2591 2744 2837 
Q 2550 3084 2163 3084 
Q 1697 3084 1428 2787 
Q 1159 2491 1159 1978 
L 1159 0 
L 581 0 
L 581 3500 
L 1159 3500 
L 1159 2956 
Q 1366 3272 1645 3428 
Q 1925 3584 2291 3584 
Q 2894 3584 3203 3211 
Q 3513 2838 3513 2113 
z
" transform="scale(0.015625)"/>
       <path id="DejaVuSans-72" d="M 2631 2963 
Q 2534 3019 2420 3045 
Q 2306 3072 2169 3072 
Q 1681 3072 1420 2755 
Q 1159 2438 1159 1844 
L 1159 0 
L 581 0 
L 581 3500 
L 1159 3500 
L 1159 2956 
Q 1341 3275 1631 3429 
Q 1922 3584 2338 3584 
Q 2397 3584 2469 3576 
Q 2541 3569 2628 3553 
L 2631 2963 
z
" transform="scale(0.015625)"/>
       <path id="DejaVuSans-61" d="M 2194 1759 
Q 1497 1759 1228 1600 
Q 959 1441 959 1056 
Q 959 750 1161 570 
Q 1363 391 1709 391 
Q 2188 391 2477 730 
Q 2766 1069 2766 1631 
L 2766 1759 
L 2194 1759 
z
M 3341 1997 
L 3341 0 
L 2766 0 
L 2766 531 
Q 2569 213 2275 61 
Q 1981 -91 1556 -91 
Q 1019 -91 701 211 
Q 384 513 384 1019 
Q 384 1609 779 1909 
Q 1175 2209 1959 2209 
L 2766 2209 
L 2766 2266 
Q 2766 2663 2505 2880 
Q 2244 3097 1772 3097 
Q 1472 3097 1187 3025 
Q 903 2953 641 2809 
L 641 3341 
Q 956 3463 1253 3523 
Q 1550 3584 1831 3584 
Q 2591 3584 2966 3190 
Q 3341 2797 3341 1997 
z
" transform="scale(0.015625)"/>
       <path id="DejaVuSans-74" d="M 1172 4494 
L 1172 3500 
L 2356 3500 
L 2356 3053 
L 1172 3053 
L 1172 1153 
Q 1172 725 1289 603 
Q 1406 481 1766 481 
L 2356 481 
L 2356 0 
L 1766 0 
Q 1100 0 847 248 
Q 594 497 594 1153 
L 594 3053 
L 172 3053 
L 172 3500 
L 594 3500 
L 594 4494 
L 1172 4494 
z
" transform="scale(0.015625)"/>
       <path id="DejaVuSans-69" d="M 603 3500 
L 1178 3500 
L 1178 0 
L 603 0 
L 603 3500 
z
M 603 4863 
L 1178 4863 
L 1178 4134 
L 603 4134 
L 603 4863 
z
" transform="scale(0.015625)"/>
       <path id="DejaVuSans-6f" d="M 1959 3097 
Q 1497 3097 1228 2736 
Q 959 2375 959 1747 
Q 959 1119 1226 758 
Q 1494 397 1959 397 
Q 2419 397 2687 759 
Q 2956 1122 2956 1747 
Q 2956 2369 2687 2733 
Q 2419 3097 1959 3097 
z
M 1959 3584 
Q 2709 3584 3137 3096 
Q 3566 2609 3566 1747 
Q 3566 888 3137 398 
Q 2709 -91 1959 -91 
Q 1206 -91 779 398 
Q 353 888 353 1747 
Q 353 2609 779 3096 
Q 1206 3584 1959 3584 
z
" transform="scale(0.015625)"/>
      </defs>
      <use xlink:href="#DejaVuSans-47"/>
      <use xlink:href="#DejaVuSans-65" x="77.490234"/>
      <use xlink:href="#DejaVuSans-6e" x="139.013672"/>
      <use xlink:href="#DejaVuSans-65" x="202.392578"/>
      <use xlink:href="#DejaVuSans-72" x="263.916016"/>
      <use xlink:href="#DejaVuSans-61" x="305.029297"/>
      <use xlink:href="#DejaVuSans-74" x="366.308594"/>
      <use xlink:href="#DejaVuSans-69" x="405.517578"/>
      <use xlink:href="#DejaVuSans-6f" x="433.300781"/>
      <use xlink:href="#DejaVuSans-6e" x="494.482422"/>
     </g>
    </g>
   </g>
   <g id="matplotlib.axis_2">
    <g id="ytick_1">
     <g id="line2d_10">
      <defs>
       <path id="m7f7072fb0f" d="M 0 0 
L -3.5 0 
" style="stroke: #000000; stroke-width: 0.8"/>
      </defs>
      <g>
       <use xlink:href="#m7f7072fb0f" x="54" y="230.256" style="stroke: #000000; stroke-width: 0.8"/>
      </g>
     </g>
     <g id="text_11">
      <!-- 5 -->
      <g transform="translate(40.6375 234.055219)scale(0.1 -0.1)">
       <use xlink:href="#DejaVuSans-35"/>
      </g>
     </g>
    </g>
    <g id="ytick_2">
     <g id="line2d_11">
      <g>
       <use xlink:href="#m7f7072fb0f" x="54" y="186.768" style="stroke: #000000; stroke-width: 0.8"/>
      </g>
     </g>
     <g id="text_12">
      <!-- 6 -->
      <g transform="translate(40.6375 190.567219)scale(0.1 -0.1)">
       <defs>
        <path id="DejaVuSans-36" d="M 2113 2584 
Q 1688 2584 1439 2293 
Q 1191 2003 1191 1497 
Q 1191 994 1439 701 
Q 1688 409 2113 409 
Q 2538 409 2786 701 
Q 3034 994 3034 1497 
Q 3034 2003 2786 2293 
Q 2538 2584 2113 2584 
z
M 3366 4563 
L 3366 3988 
Q 3128 4100 2886 4159 
Q 2644 4219 2406 4219 
Q 1781 4219 1451 3797 
Q 1122 3375 1075 2522 
Q 1259 2794 1537 2939 
Q 1816 3084 2150 3084 
Q 2853 3084 3261 2657 
Q 3669 2231 3669 1497 
Q 3669 778 3244 343 
Q 2819 -91 2113 -91 
Q 1303 -91 875 529 
Q 447 1150 447 2328 
Q 447 3434 972 4092 
Q 1497 4750 2381 4750 
Q 2619 4750 2861 4703 
Q 3103 4656 3366 4563 
z
" transform="scale(0.015625)"/>
       </defs>
       <use xlink:href="#DejaVuSans-36"/>
      </g>
     </g>
    </g>
    <g id="ytick_3">
     <g id="line2d_12">
      <g>
       <use xlink:href="#m7f7072fb0f" x="54" y="143.28" style="stroke: #000000; stroke-width: 0.8"/>
      </g>
     </g>
     <g id="text_13">
      <!-- 7 -->
      <g transform="translate(40.6375 147.079219)scale(0.1 -0.1)">
       <use xlink:href="#DejaVuSans-37"/>
      </g>
     </g>
    </g>
    <g id="ytick_4">
     <g id="line2d_13">
      <g>
       <use xlink:href="#m7f7072fb0f" x="54" y="99.792" style="stroke: #000000; stroke-width: 0.8"/>
      </g>
     </g>
     <g id="text_14">
      <!-- 8 -->
      <g transform="translate(40.6375 103.591219)scale(0.1 -0.1)">
       <defs>
        <path id="DejaVuSans-38" d="M 2034 2216 
Q 1584 2216 1326 1975 
Q 1069 1734 1069 1313 
Q 1069 891 1326 650 
Q 1584 409 2034 409 
Q 2484 409 2743 651 
Q 3003 894 3003 1313 
Q 3003 1734 2745 1975 
Q 2488 2216 2034 2216 
z
M 1403 2484 
Q 997 2584 770 2862 
Q 544 3141 544 3541 
Q 544 4100 942 4425 
Q 1341 4750 2034 4750 
Q 2731 4750 3128 4425 
Q 3525 4100 3525 3541 
Q 3525 3141 3298 2862 
Q 3072 2584 2669 2484 
Q 3125 2378 3379 2068 
Q 3634 1759 3634 1313 
Q 3634 634 3220 271 
Q 2806 -91 2034 -91 
Q 1263 -91 848 271 
Q 434 634 434 1313 
Q 434 1759 690 2068 
Q 947 2378 1403 2484 
z
M 1172 3481 
Q 1172 3119 1398 2916 
Q 1625 2713 2034 2713 
Q 2441 2713 2670 2916 
Q 2900 3119 2900 3481 
Q 2900 3844 2670 4047 
Q 2441 4250 2034 4250 
Q 1625 4250 1398 4047 
Q 1172 3844 1172 3481 
z
" transform="scale(0.015625)"/>
       </defs>
       <use xlink:href="#DejaVuSans-38"/>
      </g>
     </g>
    </g>
    <g id="ytick_5">
     <g id="line2d_14">
      <g>
       <use xlink:href="#m7f7072fb0f" x="54" y="56.304" style="stroke: #000000; stroke-width: 0.8"/>
      </g>
     </g>
     <g id="text_15">
      <!-- 9 -->
      <g transform="translate(40.6375 60.103219)scale(0.1 -0.1)">
       <defs>
        <path id="DejaVuSans-39" d="M 703 97 
L 703 672 
Q 941 559 1184 500 
Q 1428 441 1663 441 
Q 2288 441 2617 861 
Q 2947 1281 2994 2138 
Q 2813 1869 2534 1725 
Q 2256 1581 1919 1581 
Q 1219 1581 811 2004 
Q 403 2428 403 3163 
Q 403 3881 828 4315 
Q 1253 4750 1959 4750 
Q 2769 4750 3195 4129 
Q 3622 3509 3622 2328 
Q 3622 1225 3098 567 
Q 2575 -91 1691 -91 
Q 1453 -91 1209 -44 
Q 966 3 703 97 
z
M 1959 2075 
Q 2384 2075 2632 2365 
Q 2881 2656 2881 3163 
Q 2881 3666 2632 3958 
Q 2384 4250 1959 4250 
Q 1534 4250 1286 3958 
Q 1038 3666 1038 3163 
Q 1038 2656 1286 2365 
Q 1534 2075 1959 2075 
z
" transform="scale(0.015625)"/>
       </defs>
       <use xlink:href="#DejaVuSans-39"/>
      </g>
     </g>
    </g>
    <g id="text_16">
     <!-- Average Energy -->
     <g transform="translate(34.557812 182.908125)rotate(-90)scale(0.1 -0.1)">
      <defs>
       <path id="DejaVuSans-41" d="M 2188 4044 
L 1331 1722 
L 3047 1722 
L 2188 4044 
z
M 1831 4666 
L 2547 4666 
L 4325 0 
L 3669 0 
L 3244 1197 
L 1141 1197 
L 716 0 
L 50 0 
L 1831 4666 
z
" transform="scale(0.015625)"/>
       <path id="DejaVuSans-76" d="M 191 3500 
L 800 3500 
L 1894 563 
L 2988 3500 
L 3597 3500 
L 2284 0 
L 1503 0 
L 191 3500 
z
" transform="scale(0.015625)"/>
       <path id="DejaVuSans-67" d="M 2906 1791 
Q 2906 2416 2648 2759 
Q 2391 3103 1925 3103 
Q 1463 3103 1205 2759 
Q 947 2416 947 1791 
Q 947 1169 1205 825 
Q 1463 481 1925 481 
Q 2391 481 2648 825 
Q 2906 1169 2906 1791 
z
M 3481 434 
Q 3481 -459 3084 -895 
Q 2688 -1331 1869 -1331 
Q 1566 -1331 1297 -1286 
Q 1028 -1241 775 -1147 
L 775 -588 
Q 1028 -725 1275 -790 
Q 1522 -856 1778 -856 
Q 2344 -856 2625 -561 
Q 2906 -266 2906 331 
L 2906 616 
Q 2728 306 2450 153 
Q 2172 0 1784 0 
Q 1141 0 747 490 
Q 353 981 353 1791 
Q 353 2603 747 3093 
Q 1141 3584 1784 3584 
Q 2172 3584 2450 3431 
Q 2728 3278 2906 2969 
L 2906 3500 
L 3481 3500 
L 3481 434 
z
" transform="scale(0.015625)"/>
       <path id="DejaVuSans-20" transform="scale(0.015625)"/>
       <path id="DejaVuSans-45" d="M 628 4666 
L 3578 4666 
L 3578 4134 
L 1259 4134 
L 1259 2753 
L 3481 2753 
L 3481 2222 
L 1259 2222 
L 1259 531 
L 3634 531 
L 3634 0 
L 628 0 
L 628 4666 
z
" transform="scale(0.015625)"/>
       <path id="DejaVuSans-79" d="M 2059 -325 
Q 1816 -950 1584 -1140 
Q 1353 -1331 966 -1331 
L 506 -1331 
L 506 -850 
L 844 -850 
Q 1081 -850 1212 -737 
Q 1344 -625 1503 -206 
L 1606 56 
L 191 3500 
L 800 3500 
L 1894 763 
L 2988 3500 
L 3597 3500 
L 2059 -325 
z
" transform="scale(0.015625)"/>
      </defs>
      <use xlink:href="#DejaVuSans-41"/>
      <use xlink:href="#DejaVuSans-76" x="62.533203"/>
      <use xlink:href="#DejaVuSans-65" x="121.712891"/>
      <use xlink:href="#DejaVuSans-72" x="183.236328"/>
      <use xlink:href="#DejaVuSans-61" x="224.349609"/>
      <use xlink:href="#DejaVuSans-67" x="285.628906"/>
      <use xlink:href="#DejaVuSans-65" x="349.105469"/>
      <use xlink:href="#DejaVuSans-20" x="410.628906"/>
      <use xlink:href="#DejaVuSans-45" x="442.416016"/>
      <use xlink:href="#DejaVuSans-6e" x="505.599609"/>
      <use xlink:href="#DejaVuSans-65" x="568.978516"/>
      <use xlink:href="#DejaVuSans-72" x="630.501953"/>
      <use xlink:href="#DejaVuSans-67" x="669.865234"/>
      <use xlink:href="#DejaVuSans-79" x="733.341797"/>
     </g>
    </g>
   </g>
   <g id="line2d_15">
    <path d="M 69.218182 181.332 
L 70.747647 179.59248 
L 72.277113 179.80992 
L 73.806578 167.30712 
L 75.336044 171.22104 
L 76.865509 171.5472 
L 78.394975 172.30824 
L 79.92444 170.24256 
L 81.453906 172.19952 
L 82.983371 157.9572 
L 84.512837 163.71936 
L 86.042302 168.50304 
L 87.571768 159.91416 
L 89.101233 169.48152 
L 90.630699 164.4804 
L 92.160164 163.71936 
L 93.68963 167.30712 
L 95.219095 160.24032 
L 96.748561 171.43848 
L 98.278026 161.65368 
L 99.807492 164.26296 
L 101.336958 164.58912 
L 102.866423 165.45888 
L 104.395889 165.13272 
L 105.925354 160.56648 
L 107.45482 161.43624 
L 110.513751 153.93456 
L 112.043216 165.67632 
L 113.572682 166.76352 
L 115.102147 160.56648 
L 116.631613 161.7624 
L 118.161078 162.41472 
L 119.690544 163.3932 
L 121.220009 160.6752 
L 122.749475 153.93456 
L 124.27894 162.95832 
L 125.808406 163.50192 
L 127.337871 155.45664 
L 128.867337 160.45776 
L 130.396802 163.17576 
L 131.926268 155.02176 
L 133.455733 157.30488 
L 134.985199 162.8496 
L 136.514664 161.11008 
L 138.04413 155.56536 
L 139.573595 155.02176 
L 141.103061 156.54384 
L 142.632526 154.26072 
L 144.161992 155.7828 
L 145.691457 155.02176 
L 147.220923 160.6752 
L 148.750388 151.9776 
L 150.279854 159.15312 
L 151.809319 149.36832 
L 153.338785 154.47816 
L 154.86825 153.6084 
L 156.397716 156.10896 
L 157.927181 156.10896 
L 159.456647 158.17464 
L 160.986112 155.56536 
L 162.515578 154.36944 
L 164.045043 157.4136 
L 165.574509 162.19728 
L 167.103974 156.21768 
L 168.63344 153.71712 
L 170.162905 160.34904 
L 171.692371 161.54496 
L 173.221836 157.08744 
L 174.751302 151.9776 
L 176.280767 151.434 
L 177.810233 153.0648 
L 179.339698 154.152 
L 180.869164 151.86888 
L 182.39863 149.04216 
L 183.928095 160.1316 
L 186.987026 151.9776 
L 188.516492 153.49968 
L 190.045957 154.80432 
L 191.575423 148.38984 
L 193.104888 159.37056 
L 194.634354 154.47816 
L 196.163819 161.00136 
L 197.693285 145.01952 
L 199.22275 152.30376 
L 200.752216 153.0648 
L 202.281681 156.00024 
L 203.811147 156.00024 
L 206.870078 146.10672 
L 208.399543 153.0648 
L 209.929009 146.75904 
L 211.458474 151.21656 
L 212.98794 152.95608 
L 214.517405 156.10896 
L 216.046871 146.32416 
L 217.576336 151.65144 
L 219.105802 155.56536 
L 220.635267 153.6084 
L 222.164733 156.65256 
L 223.694198 150.23808 
L 225.223664 152.30376 
L 226.753129 150.8904 
L 228.282595 153.82584 
L 229.81206 151.54272 
L 231.341526 151.9776 
L 232.870991 149.36832 
L 234.400457 156.21768 
L 235.929922 145.01952 
L 237.459388 150.12936 
L 238.988853 153.93456 
L 240.518319 146.5416 
L 242.047784 148.716 
L 243.57725 155.89152 
L 245.106715 149.58576 
L 246.636181 147.52008 
L 248.165646 154.58688 
L 249.695112 148.49856 
L 251.224577 151.54272 
L 252.754043 148.60728 
L 254.283508 151.86888 
L 255.812974 149.47704 
L 257.342439 148.28112 
L 258.871905 151.21656 
L 260.40137 145.88928 
L 261.930836 145.78056 
L 263.460302 147.30264 
L 264.989767 143.60616 
L 266.519233 141.43176 
L 268.048698 153.0648 
L 269.578164 149.2596 
L 271.107629 152.84736 
L 272.637095 150.99912 
L 274.16656 145.56312 
L 275.696026 148.60728 
L 277.225491 148.82472 
L 278.754957 146.65032 
L 280.284422 146.86776 
L 281.813888 147.84624 
L 283.343353 147.19392 
L 284.872819 143.38872 
L 286.402284 153.93456 
L 287.93175 150.3468 
L 289.461215 145.78056 
L 290.990681 144.04104 
L 292.520146 148.06368 
L 294.049612 145.23696 
L 295.579077 144.80208 
L 297.108543 146.21544 
L 298.638008 146.65032 
L 300.167474 148.93344 
L 301.696939 145.998 
L 303.226405 144.9108 
L 304.75587 146.5416 
L 306.285336 142.95384 
L 307.814801 150.02064 
L 309.344267 144.25848 
L 310.873732 154.6956 
L 312.403198 142.7364 
L 313.932663 145.78056 
L 315.462129 142.08408 
L 316.991594 147.84624 
L 318.52106 150.45552 
L 320.050525 146.86776 
L 321.579991 146.32416 
L 323.109456 143.49744 
L 324.638922 152.84736 
L 326.168387 153.0648 
L 327.697853 147.0852 
L 329.227318 141.75792 
L 330.756784 146.5416 
L 332.286249 155.2392 
L 333.815715 154.58688 
L 335.34518 143.93232 
L 336.874646 143.06256 
L 338.404111 150.12936 
L 339.933577 143.71488 
L 341.463042 157.52232 
L 342.992508 148.06368 
L 344.521974 143.28 
L 346.051439 146.97648 
L 347.580905 150.23808 
L 349.11037 145.56312 
L 350.639836 146.43288 
L 352.169301 148.49856 
L 353.698767 150.99912 
L 355.228232 149.04216 
L 356.757698 144.69336 
L 358.287163 145.56312 
L 359.816629 142.1928 
L 361.346094 144.14976 
L 362.87556 144.58464 
L 364.405025 141.86664 
L 365.934491 144.14976 
L 367.463956 140.77944 
L 368.993422 150.23808 
L 370.522887 149.47704 
L 373.581818 145.4544 
L 373.581818 145.4544 
" clip-path="url(#p94992eb444)" style="fill: none; stroke: #1f77b4; stroke-width: 1.5; stroke-linecap: square"/>
   </g>
   <g id="line2d_16">
    <path d="M 69.218182 182.4192 
L 373.581818 182.4192 
L 373.581818 182.4192 
" clip-path="url(#p94992eb444)" style="fill: none; stroke-dasharray: 5.55,2.4; stroke-dashoffset: 0; stroke: #ff7f0e; stroke-width: 1.5"/>
   </g>
   <g id="line2d_17">
    <path d="M 69.218182 171.98208 
L 373.581818 171.98208 
L 373.581818 171.98208 
" clip-path="url(#p94992eb444)" style="fill: none; stroke-dasharray: 5.55,2.4; stroke-dashoffset: 0; stroke: #2ca02c; stroke-width: 1.5"/>
   </g>
   <g id="patch_3">
    <path d="M 54 252 
L 54 34.56 
" style="fill: none; stroke: #000000; stroke-width: 0.8; stroke-linejoin: miter; stroke-linecap: square"/>
   </g>
   <g id="patch_4">
    <path d="M 388.8 252 
L 388.8 34.56 
" style="fill: none; stroke: #000000; stroke-width: 0.8; stroke-linejoin: miter; stroke-linecap: square"/>
   </g>
   <g id="patch_5">
    <path d="M 54 252 
L 388.8 252 
" style="fill: none; stroke: #000000; stroke-width: 0.8; stroke-linejoin: miter; stroke-linecap: square"/>
   </g>
   <g id="patch_6">
    <path d="M 54 34.56 
L 388.8 34.56 
" style="fill: none; stroke: #000000; stroke-width: 0.8; stroke-linejoin: miter; stroke-linecap: square"/>
   </g>
   <g id="text_17">
    <!-- Caveman -->
    <g transform="translate(192.966563 28.56)scale(0.12 -0.12)">
     <defs>
      <path id="DejaVuSans-43" d="M 4122 4306 
L 4122 3641 
Q 3803 3938 3442 4084 
Q 3081 4231 2675 4231 
Q 1875 4231 1450 3742 
Q 1025 3253 1025 2328 
Q 1025 1406 1450 917 
Q 1875 428 2675 428 
Q 3081 428 3442 575 
Q 3803 722 4122 1019 
L 4122 359 
Q 3791 134 3420 21 
Q 3050 -91 2638 -91 
Q 1578 -91 968 557 
Q 359 1206 359 2328 
Q 359 3453 968 4101 
Q 1578 4750 2638 4750 
Q 3056 4750 3426 4639 
Q 3797 4528 4122 4306 
z
" transform="scale(0.015625)"/>
      <path id="DejaVuSans-6d" d="M 3328 2828 
Q 3544 3216 3844 3400 
Q 4144 3584 4550 3584 
Q 5097 3584 5394 3201 
Q 5691 2819 5691 2113 
L 5691 0 
L 5113 0 
L 5113 2094 
Q 5113 2597 4934 2840 
Q 4756 3084 4391 3084 
Q 3944 3084 3684 2787 
Q 3425 2491 3425 1978 
L 3425 0 
L 2847 0 
L 2847 2094 
Q 2847 2600 2669 2842 
Q 2491 3084 2119 3084 
Q 1678 3084 1418 2786 
Q 1159 2488 1159 1978 
L 1159 0 
L 581 0 
L 581 3500 
L 1159 3500 
L 1159 2956 
Q 1356 3278 1631 3431 
Q 1906 3584 2284 3584 
Q 2666 3584 2933 3390 
Q 3200 3197 3328 2828 
z
" transform="scale(0.015625)"/>
     </defs>
     <use xlink:href="#DejaVuSans-43"/>
     <use xlink:href="#DejaVuSans-61" x="69.824219"/>
     <use xlink:href="#DejaVuSans-76" x="131.103516"/>
     <use xlink:href="#DejaVuSans-65" x="190.283203"/>
     <use xlink:href="#DejaVuSans-6d" x="251.806641"/>
     <use xlink:href="#DejaVuSans-61" x="349.21875"/>
     <use xlink:href="#DejaVuSans-6e" x="410.498047"/>
    </g>
   </g>
   <g id="legend_1">
    <g id="patch_7">
     <path d="M 61 86.8725 
L 228.907813 86.8725 
Q 230.907813 86.8725 230.907813 84.8725 
L 230.907813 41.56 
Q 230.907813 39.56 228.907813 39.56 
L 61 39.56 
Q 59 39.56 59 41.56 
L 59 84.8725 
Q 59 86.8725 61 86.8725 
z
" style="fill: #ffffff; opacity: 0.8; stroke: #cccccc; stroke-linejoin: miter"/>
    </g>
    <g id="line2d_18">
     <path d="M 63 47.658437 
L 73 47.658437 
L 83 47.658437 
" style="fill: none; stroke: #1f77b4; stroke-width: 1.5; stroke-linecap: square"/>
    </g>
    <g id="text_18">
     <!-- training on caveman graph -->
     <g transform="translate(91 51.158437)scale(0.1 -0.1)">
      <defs>
       <path id="DejaVuSans-63" d="M 3122 3366 
L 3122 2828 
Q 2878 2963 2633 3030 
Q 2388 3097 2138 3097 
Q 1578 3097 1268 2742 
Q 959 2388 959 1747 
Q 959 1106 1268 751 
Q 1578 397 2138 397 
Q 2388 397 2633 464 
Q 2878 531 3122 666 
L 3122 134 
Q 2881 22 2623 -34 
Q 2366 -91 2075 -91 
Q 1284 -91 818 406 
Q 353 903 353 1747 
Q 353 2603 823 3093 
Q 1294 3584 2113 3584 
Q 2378 3584 2631 3529 
Q 2884 3475 3122 3366 
z
" transform="scale(0.015625)"/>
       <path id="DejaVuSans-70" d="M 1159 525 
L 1159 -1331 
L 581 -1331 
L 581 3500 
L 1159 3500 
L 1159 2969 
Q 1341 3281 1617 3432 
Q 1894 3584 2278 3584 
Q 2916 3584 3314 3078 
Q 3713 2572 3713 1747 
Q 3713 922 3314 415 
Q 2916 -91 2278 -91 
Q 1894 -91 1617 61 
Q 1341 213 1159 525 
z
M 3116 1747 
Q 3116 2381 2855 2742 
Q 2594 3103 2138 3103 
Q 1681 3103 1420 2742 
Q 1159 2381 1159 1747 
Q 1159 1113 1420 752 
Q 1681 391 2138 391 
Q 2594 391 2855 752 
Q 3116 1113 3116 1747 
z
" transform="scale(0.015625)"/>
       <path id="DejaVuSans-68" d="M 3513 2113 
L 3513 0 
L 2938 0 
L 2938 2094 
Q 2938 2591 2744 2837 
Q 2550 3084 2163 3084 
Q 1697 3084 1428 2787 
Q 1159 2491 1159 1978 
L 1159 0 
L 581 0 
L 581 4863 
L 1159 4863 
L 1159 2956 
Q 1366 3272 1645 3428 
Q 1925 3584 2291 3584 
Q 2894 3584 3203 3211 
Q 3513 2838 3513 2113 
z
" transform="scale(0.015625)"/>
      </defs>
      <use xlink:href="#DejaVuSans-74"/>
      <use xlink:href="#DejaVuSans-72" x="39.208984"/>
      <use xlink:href="#DejaVuSans-61" x="80.322266"/>
      <use xlink:href="#DejaVuSans-69" x="141.601562"/>
      <use xlink:href="#DejaVuSans-6e" x="169.384766"/>
      <use xlink:href="#DejaVuSans-69" x="232.763672"/>
      <use xlink:href="#DejaVuSans-6e" x="260.546875"/>
      <use xlink:href="#DejaVuSans-67" x="323.925781"/>
      <use xlink:href="#DejaVuSans-20" x="387.402344"/>
      <use xlink:href="#DejaVuSans-6f" x="419.189453"/>
      <use xlink:href="#DejaVuSans-6e" x="480.371094"/>
      <use xlink:href="#DejaVuSans-20" x="543.75"/>
      <use xlink:href="#DejaVuSans-63" x="575.537109"/>
      <use xlink:href="#DejaVuSans-61" x="630.517578"/>
      <use xlink:href="#DejaVuSans-76" x="691.796875"/>
      <use xlink:href="#DejaVuSans-65" x="750.976562"/>
      <use xlink:href="#DejaVuSans-6d" x="812.5"/>
      <use xlink:href="#DejaVuSans-61" x="909.912109"/>
      <use xlink:href="#DejaVuSans-6e" x="971.191406"/>
      <use xlink:href="#DejaVuSans-20" x="1034.570312"/>
      <use xlink:href="#DejaVuSans-67" x="1066.357422"/>
      <use xlink:href="#DejaVuSans-72" x="1129.833984"/>
      <use xlink:href="#DejaVuSans-61" x="1170.947266"/>
      <use xlink:href="#DejaVuSans-70" x="1232.226562"/>
      <use xlink:href="#DejaVuSans-68" x="1295.703125"/>
     </g>
    </g>
    <g id="line2d_19">
     <path d="M 63 62.336562 
L 73 62.336562 
L 83 62.336562 
" style="fill: none; stroke-dasharray: 5.55,2.4; stroke-dashoffset: 0; stroke: #ff7f0e; stroke-width: 1.5"/>
    </g>
    <g id="text_19">
     <!-- transfer learning -->
     <g transform="translate(91 65.836562)scale(0.1 -0.1)">
      <defs>
       <path id="DejaVuSans-73" d="M 2834 3397 
L 2834 2853 
Q 2591 2978 2328 3040 
Q 2066 3103 1784 3103 
Q 1356 3103 1142 2972 
Q 928 2841 928 2578 
Q 928 2378 1081 2264 
Q 1234 2150 1697 2047 
L 1894 2003 
Q 2506 1872 2764 1633 
Q 3022 1394 3022 966 
Q 3022 478 2636 193 
Q 2250 -91 1575 -91 
Q 1294 -91 989 -36 
Q 684 19 347 128 
L 347 722 
Q 666 556 975 473 
Q 1284 391 1588 391 
Q 1994 391 2212 530 
Q 2431 669 2431 922 
Q 2431 1156 2273 1281 
Q 2116 1406 1581 1522 
L 1381 1569 
Q 847 1681 609 1914 
Q 372 2147 372 2553 
Q 372 3047 722 3315 
Q 1072 3584 1716 3584 
Q 2034 3584 2315 3537 
Q 2597 3491 2834 3397 
z
" transform="scale(0.015625)"/>
       <path id="DejaVuSans-66" d="M 2375 4863 
L 2375 4384 
L 1825 4384 
Q 1516 4384 1395 4259 
Q 1275 4134 1275 3809 
L 1275 3500 
L 2222 3500 
L 2222 3053 
L 1275 3053 
L 1275 0 
L 697 0 
L 697 3053 
L 147 3053 
L 147 3500 
L 697 3500 
L 697 3744 
Q 697 4328 969 4595 
Q 1241 4863 1831 4863 
L 2375 4863 
z
" transform="scale(0.015625)"/>
       <path id="DejaVuSans-6c" d="M 603 4863 
L 1178 4863 
L 1178 0 
L 603 0 
L 603 4863 
z
" transform="scale(0.015625)"/>
      </defs>
      <use xlink:href="#DejaVuSans-74"/>
      <use xlink:href="#DejaVuSans-72" x="39.208984"/>
      <use xlink:href="#DejaVuSans-61" x="80.322266"/>
      <use xlink:href="#DejaVuSans-6e" x="141.601562"/>
      <use xlink:href="#DejaVuSans-73" x="204.980469"/>
      <use xlink:href="#DejaVuSans-66" x="257.080078"/>
      <use xlink:href="#DejaVuSans-65" x="292.285156"/>
      <use xlink:href="#DejaVuSans-72" x="353.808594"/>
      <use xlink:href="#DejaVuSans-20" x="394.921875"/>
      <use xlink:href="#DejaVuSans-6c" x="426.708984"/>
      <use xlink:href="#DejaVuSans-65" x="454.492188"/>
      <use xlink:href="#DejaVuSans-61" x="516.015625"/>
      <use xlink:href="#DejaVuSans-72" x="577.294922"/>
      <use xlink:href="#DejaVuSans-6e" x="616.658203"/>
      <use xlink:href="#DejaVuSans-69" x="680.037109"/>
      <use xlink:href="#DejaVuSans-6e" x="707.820312"/>
      <use xlink:href="#DejaVuSans-67" x="771.199219"/>
     </g>
    </g>
    <g id="line2d_20">
     <path d="M 63 77.014687 
L 73 77.014687 
L 83 77.014687 
" style="fill: none; stroke-dasharray: 5.55,2.4; stroke-dashoffset: 0; stroke: #2ca02c; stroke-width: 1.5"/>
    </g>
    <g id="text_20">
     <!-- QAOQ_4 -->
     <g transform="translate(91 80.514687)scale(0.1 -0.1)">
      <defs>
       <path id="DejaVuSans-51" d="M 2522 4238 
Q 1834 4238 1429 3725 
Q 1025 3213 1025 2328 
Q 1025 1447 1429 934 
Q 1834 422 2522 422 
Q 3209 422 3611 934 
Q 4013 1447 4013 2328 
Q 4013 3213 3611 3725 
Q 3209 4238 2522 4238 
z
M 3406 84 
L 4238 -825 
L 3475 -825 
L 2784 -78 
Q 2681 -84 2626 -87 
Q 2572 -91 2522 -91 
Q 1538 -91 948 567 
Q 359 1225 359 2328 
Q 359 3434 948 4092 
Q 1538 4750 2522 4750 
Q 3503 4750 4090 4092 
Q 4678 3434 4678 2328 
Q 4678 1516 4351 937 
Q 4025 359 3406 84 
z
" transform="scale(0.015625)"/>
       <path id="DejaVuSans-4f" d="M 2522 4238 
Q 1834 4238 1429 3725 
Q 1025 3213 1025 2328 
Q 1025 1447 1429 934 
Q 1834 422 2522 422 
Q 3209 422 3611 934 
Q 4013 1447 4013 2328 
Q 4013 3213 3611 3725 
Q 3209 4238 2522 4238 
z
M 2522 4750 
Q 3503 4750 4090 4092 
Q 4678 3434 4678 2328 
Q 4678 1225 4090 567 
Q 3503 -91 2522 -91 
Q 1538 -91 948 565 
Q 359 1222 359 2328 
Q 359 3434 948 4092 
Q 1538 4750 2522 4750 
z
" transform="scale(0.015625)"/>
       <path id="DejaVuSans-5f" d="M 3263 -1063 
L 3263 -1509 
L -63 -1509 
L -63 -1063 
L 3263 -1063 
z
" transform="scale(0.015625)"/>
       <path id="DejaVuSans-34" d="M 2419 4116 
L 825 1625 
L 2419 1625 
L 2419 4116 
z
M 2253 4666 
L 3047 4666 
L 3047 1625 
L 3713 1625 
L 3713 1100 
L 3047 1100 
L 3047 0 
L 2419 0 
L 2419 1100 
L 313 1100 
L 313 1709 
L 2253 4666 
z
" transform="scale(0.015625)"/>
      </defs>
      <use xlink:href="#DejaVuSans-51"/>
      <use xlink:href="#DejaVuSans-41" x="78.710938"/>
      <use xlink:href="#DejaVuSans-4f" x="145.369141"/>
      <use xlink:href="#DejaVuSans-51" x="224.080078"/>
      <use xlink:href="#DejaVuSans-5f" x="302.791016"/>
      <use xlink:href="#DejaVuSans-34" x="352.791016"/>
     </g>
    </g>
   </g>
  </g>
 </g>
 <defs>
  <clipPath id="p94992eb444">
   <rect x="54" y="34.56" width="334.8" height="217.44"/>
  </clipPath>
 </defs>
</svg>
