<?xml version="1.0" encoding="utf-8" standalone="no"?>
<!DOCTYPE svg PUBLIC "-//W3C//DTD SVG 1.1//EN"
  "http://www.w3.org/Graphics/SVG/1.1/DTD/svg11.dtd">
<svg xmlns:xlink="http://www.w3.org/1999/xlink" width="432pt" height="288pt" viewBox="0 0 432 288" xmlns="http://www.w3.org/2000/svg" version="1.1">
 <metadata>
  <rdf:RDF xmlns:dc="http://purl.org/dc/elements/1.1/" xmlns:cc="http://creativecommons.org/ns#" xmlns:rdf="http://www.w3.org/1999/02/22-rdf-syntax-ns#">
   <cc:Work>
    <dc:type rdf:resource="http://purl.org/dc/dcmitype/StillImage"/>
    <dc:date>2023-06-27T08:55:26.516886</dc:date>
    <dc:format>image/svg+xml</dc:format>
    <dc:creator>
     <cc:Agent>
      <dc:title>Matplotlib v3.5.2, https://matplotlib.org/</dc:title>
     </cc:Agent>
    </dc:creator>
   </cc:Work>
  </rdf:RDF>
 </metadata>
 <defs>
  <style type="text/css">*{stroke-linejoin: round; stroke-linecap: butt}</style>
 </defs>
 <g id="figure_1">
  <g id="patch_1">
   <path d="M 0 288 
L 432 288 
L 432 0 
L 0 0 
L 0 288 
z
" style="fill: none"/>
  </g>
  <g id="axes_1">
   <g id="patch_2">
    <path d="M 54 252 
L 388.8 252 
L 388.8 34.56 
L 54 34.56 
z
" style="fill: #ffffff"/>
   </g>
   <g id="PolyCollection_1">
    <path d="M 69.218182 176.420026 
L 69.218182 175.437206 
L 70.747647 172.081595 
L 72.277113 171.556052 
L 73.806578 167.491038 
L 75.336044 168.649541 
L 76.865509 167.734066 
L 78.394975 165.327457 
L 79.92444 163.39889 
L 81.453906 161.860444 
L 82.983371 161.339696 
L 84.512837 161.043137 
L 86.042302 162.259343 
L 87.571768 158.09595 
L 89.101233 159.886041 
L 90.630699 160.319339 
L 92.160164 157.121191 
L 93.68963 158.154204 
L 95.219095 159.297713 
L 96.748561 158.379816 
L 98.278026 158.503898 
L 99.807492 158.934029 
L 101.336958 157.679425 
L 102.866423 157.016482 
L 104.395889 157.573447 
L 105.925354 156.526293 
L 107.45482 157.943242 
L 108.984285 156.116263 
L 110.513751 154.887771 
L 112.043216 156.942416 
L 113.572682 157.378656 
L 115.102147 155.883658 
L 116.631613 155.968519 
L 118.161078 157.895335 
L 119.690544 156.270637 
L 121.220009 156.235744 
L 122.749475 155.99766 
L 124.27894 155.622179 
L 125.808406 154.333842 
L 127.337871 151.378883 
L 128.867337 152.362786 
L 130.396802 152.074539 
L 131.926268 152.499309 
L 133.455733 152.594119 
L 134.985199 152.246444 
L 136.514664 151.742557 
L 138.04413 153.455337 
L 139.573595 150.75046 
L 141.103061 153.075053 
L 142.632526 152.669786 
L 144.161992 151.801847 
L 145.691457 151.067978 
L 147.220923 149.232104 
L 148.750388 146.738249 
L 150.279854 149.71154 
L 151.809319 147.967152 
L 153.338785 150.138844 
L 154.86825 148.185181 
L 156.397716 147.770816 
L 157.927181 147.851106 
L 159.456647 150.259265 
L 160.986112 149.193521 
L 162.515578 146.997487 
L 164.045043 149.625809 
L 165.574509 151.799332 
L 167.103974 150.349602 
L 168.63344 150.5099 
L 170.162905 150.293524 
L 171.692371 150.808157 
L 173.221836 149.889252 
L 174.751302 148.751796 
L 176.280767 147.938539 
L 177.810233 150.570739 
L 179.339698 150.308572 
L 180.869164 147.337715 
L 182.39863 149.505757 
L 183.928095 146.240189 
L 185.457561 146.244821 
L 186.987026 146.261259 
L 188.516492 145.627602 
L 190.045957 148.773795 
L 191.575423 146.945539 
L 193.104888 147.567154 
L 194.634354 145.647111 
L 196.163819 144.661762 
L 197.693285 147.442217 
L 199.22275 148.119189 
L 200.752216 148.231613 
L 202.281681 147.617616 
L 203.811147 146.882331 
L 205.340612 146.813039 
L 206.870078 145.967907 
L 208.399543 149.50258 
L 209.929009 143.907682 
L 211.458474 146.056246 
L 212.98794 149.600754 
L 214.517405 146.427756 
L 216.046871 148.732536 
L 217.576336 146.593645 
L 219.105802 147.188503 
L 220.635267 148.571128 
L 222.164733 150.092793 
L 223.694198 146.514171 
L 225.223664 148.93344 
L 226.753129 147.227826 
L 228.282595 146.129152 
L 229.81206 147.359457 
L 231.341526 146.828952 
L 232.870991 141.920321 
L 234.400457 146.303895 
L 235.929922 145.433695 
L 237.459388 144.805334 
L 238.988853 144.344221 
L 240.518319 144.815517 
L 242.047784 145.562245 
L 243.57725 146.419166 
L 245.106715 145.834647 
L 246.636181 147.122087 
L 248.165646 144.579284 
L 249.695112 143.602479 
L 251.224577 142.78472 
L 252.754043 142.384697 
L 254.283508 140.673596 
L 255.812974 143.874364 
L 257.342439 142.638465 
L 258.871905 140.262157 
L 260.40137 140.739927 
L 261.930836 138.568791 
L 263.460302 140.628728 
L 264.989767 138.808931 
L 266.519233 139.213984 
L 268.048698 140.278905 
L 269.578164 139.861238 
L 271.107629 141.593432 
L 272.637095 140.665504 
L 274.16656 140.452304 
L 275.696026 138.910174 
L 277.225491 139.49883 
L 278.754957 141.368609 
L 280.284422 140.397045 
L 281.813888 142.853764 
L 283.343353 143.745318 
L 284.872819 141.563399 
L 286.402284 142.416209 
L 287.93175 145.52751 
L 289.461215 138.072695 
L 290.990681 139.175949 
L 292.520146 137.790869 
L 294.049612 137.24126 
L 295.579077 138.362336 
L 297.108543 140.18673 
L 298.638008 140.202607 
L 300.167474 138.515007 
L 301.696939 138.409755 
L 303.226405 139.713585 
L 304.75587 140.28165 
L 306.285336 137.146207 
L 307.814801 136.19417 
L 309.344267 136.514194 
L 310.873732 136.363891 
L 312.403198 135.99082 
L 313.932663 137.314562 
L 315.462129 136.767614 
L 316.991594 137.244907 
L 318.52106 138.998426 
L 320.050525 139.883958 
L 321.579991 138.648215 
L 323.109456 138.230923 
L 324.638922 138.739184 
L 326.168387 140.195759 
L 327.697853 140.454717 
L 329.227318 135.581718 
L 330.756784 138.759003 
L 332.286249 139.389504 
L 333.815715 139.358405 
L 335.34518 139.673884 
L 336.874646 139.473153 
L 338.404111 137.764961 
L 339.933577 136.092733 
L 341.463042 137.225509 
L 342.992508 137.002919 
L 344.521974 136.962696 
L 346.051439 139.72571 
L 347.580905 138.635075 
L 349.11037 136.799287 
L 350.639836 137.700564 
L 352.169301 135.338058 
L 353.698767 141.304936 
L 355.228232 133.991297 
L 356.757698 137.632517 
L 358.287163 137.221338 
L 359.816629 138.113722 
L 361.346094 139.292137 
L 362.87556 137.771512 
L 364.405025 136.502357 
L 365.934491 138.517671 
L 367.463956 137.985427 
L 368.993422 137.666987 
L 370.522887 139.057224 
L 372.052353 136.842626 
L 373.581818 136.465429 
L 373.581818 150.007595 
L 373.581818 150.007595 
L 372.052353 148.564942 
L 370.522887 150.829608 
L 368.993422 149.175685 
L 367.463956 149.618285 
L 365.934491 149.346969 
L 364.405025 150.166363 
L 362.87556 150.354056 
L 361.346094 151.160039 
L 359.816629 152.164502 
L 358.287163 148.534134 
L 356.757698 148.579579 
L 355.228232 150.068143 
L 353.698767 151.886984 
L 352.169301 151.200198 
L 350.639836 152.729868 
L 349.11037 153.805097 
L 347.580905 152.882557 
L 346.051439 151.487506 
L 344.521974 151.554264 
L 342.992508 153.188329 
L 341.463042 152.139467 
L 339.933577 153.250499 
L 338.404111 154.318015 
L 336.874646 151.674831 
L 335.34518 152.99618 
L 333.815715 152.702827 
L 332.286249 153.737184 
L 330.756784 151.149573 
L 329.227318 151.23921 
L 327.697853 151.476051 
L 326.168387 153.235345 
L 324.638922 150.2344 
L 323.109456 152.199509 
L 321.579991 152.260585 
L 320.050525 152.307738 
L 318.52106 152.040838 
L 316.991594 152.163557 
L 315.462129 151.01005 
L 313.932663 149.41939 
L 312.403198 151.786844 
L 310.873732 149.609021 
L 309.344267 149.85011 
L 307.814801 150.03967 
L 306.285336 149.174609 
L 304.75587 148.01787 
L 303.226405 149.781855 
L 301.696939 149.346165 
L 300.167474 151.045665 
L 298.638008 149.205857 
L 297.108543 148.939062 
L 295.579077 149.110912 
L 294.049612 150.07978 
L 292.520146 147.116587 
L 290.990681 148.601715 
L 289.461215 149.487529 
L 287.93175 147.860106 
L 286.402284 151.558495 
L 284.872819 151.019689 
L 283.343353 148.685562 
L 281.813888 148.533404 
L 280.284422 150.424779 
L 278.754957 150.453439 
L 277.225491 152.214498 
L 275.696026 148.780514 
L 274.16656 147.238384 
L 272.637095 150.460736 
L 271.107629 147.554104 
L 269.578164 148.742698 
L 268.048698 151.456167 
L 266.519233 151.868768 
L 264.989767 151.838941 
L 263.460302 151.215064 
L 261.930836 150.774441 
L 260.40137 150.668985 
L 258.871905 151.733843 
L 257.342439 152.184255 
L 255.812974 151.339748 
L 254.283508 153.083668 
L 252.754043 152.220583 
L 251.224577 150.755104 
L 249.695112 151.698609 
L 248.165646 149.39542 
L 246.636181 151.462345 
L 245.106715 150.597129 
L 243.57725 149.708194 
L 242.047784 151.239179 
L 240.518319 150.572547 
L 238.988853 152.196275 
L 237.459388 149.452042 
L 235.929922 152.259233 
L 234.400457 151.736937 
L 232.870991 149.401615 
L 231.341526 151.168392 
L 229.81206 151.638111 
L 228.282595 151.281104 
L 226.753129 150.61731 
L 225.223664 151.412256 
L 223.694198 152.092005 
L 222.164733 152.101143 
L 220.635267 150.948296 
L 219.105802 148.764905 
L 217.576336 150.425219 
L 216.046871 150.41724 
L 214.517405 152.200164 
L 212.98794 151.919118 
L 211.458474 151.071338 
L 209.929009 151.262942 
L 208.399543 150.495212 
L 206.870078 151.072701 
L 205.340612 151.727905 
L 203.811147 151.767333 
L 202.281681 150.271008 
L 200.752216 150.004915 
L 199.22275 152.335227 
L 197.693285 151.946743 
L 196.163819 150.813278 
L 194.634354 149.610489 
L 193.104888 151.386926 
L 191.575423 151.530173 
L 190.045957 152.245965 
L 188.516492 151.934862 
L 186.987026 149.300757 
L 185.457561 151.034971 
L 183.928095 152.844355 
L 182.39863 152.753411 
L 180.869164 153.921229 
L 179.339698 153.49442 
L 177.810233 152.710397 
L 176.280767 154.994693 
L 174.751302 155.029452 
L 173.221836 153.217932 
L 171.692371 154.799587 
L 170.162905 156.51014 
L 168.63344 156.48946 
L 167.103974 153.975246 
L 165.574509 153.830156 
L 164.045043 156.503791 
L 162.515578 155.022497 
L 160.986112 156.175039 
L 159.456647 157.870783 
L 157.927181 157.126062 
L 156.397716 154.20568 
L 154.86825 155.922227 
L 153.338785 156.186452 
L 151.809319 156.292464 
L 150.279854 156.983404 
L 148.750388 155.173015 
L 147.220923 158.484808 
L 145.691457 157.779622 
L 144.161992 155.610649 
L 142.632526 159.004534 
L 141.103061 158.229619 
L 139.573595 157.944932 
L 138.04413 159.262695 
L 136.514664 160.301411 
L 134.985199 161.167396 
L 133.455733 160.428329 
L 131.926268 160.566627 
L 130.396802 158.708277 
L 128.867337 162.921038 
L 127.337871 161.839261 
L 125.808406 159.68883 
L 124.27894 159.705133 
L 122.749475 159.48186 
L 121.220009 158.808896 
L 119.690544 160.230851 
L 118.161078 160.911017 
L 116.631613 157.684505 
L 115.102147 161.574566 
L 113.572682 161.797344 
L 112.043216 161.01592 
L 110.513751 159.787221 
L 108.984285 161.385449 
L 107.45482 160.97183 
L 105.925354 162.323547 
L 104.395889 162.950681 
L 102.866423 161.811614 
L 101.336958 162.888191 
L 99.807492 162.372883 
L 98.278026 161.47663 
L 96.748561 163.731624 
L 95.219095 161.943967 
L 93.68963 164.479092 
L 92.160164 165.142457 
L 90.630699 164.249173 
L 89.101233 164.638983 
L 87.571768 163.537122 
L 86.042302 167.484241 
L 84.512837 165.743263 
L 82.983371 169.404112 
L 81.453906 169.687892 
L 79.92444 170.954422 
L 78.394975 171.243743 
L 76.865509 170.185262 
L 75.336044 173.335915 
L 73.806578 173.624658 
L 72.277113 175.713196 
L 70.747647 176.122645 
L 69.218182 176.420026 
z
" clip-path="url(#pb738886fc7)" style="fill: #1f77b4; fill-opacity: 0.5"/>
   </g>
   <g id="PolyCollection_2">
    <path d="M 69.218182 180.084344 
L 69.218182 176.926216 
L 70.747647 176.926216 
L 72.277113 176.926216 
L 73.806578 176.926216 
L 75.336044 176.926216 
L 76.865509 176.926216 
L 78.394975 176.926216 
L 79.92444 176.926216 
L 81.453906 176.926216 
L 82.983371 176.926216 
L 84.512837 176.926216 
L 86.042302 176.926216 
L 87.571768 176.926216 
L 89.101233 176.926216 
L 90.630699 176.926216 
L 92.160164 176.926216 
L 93.68963 176.926216 
L 95.219095 176.926216 
L 96.748561 176.926216 
L 98.278026 176.926216 
L 99.807492 176.926216 
L 101.336958 176.926216 
L 102.866423 176.926216 
L 104.395889 176.926216 
L 105.925354 176.926216 
L 107.45482 176.926216 
L 108.984285 176.926216 
L 110.513751 176.926216 
L 112.043216 176.926216 
L 113.572682 176.926216 
L 115.102147 176.926216 
L 116.631613 176.926216 
L 118.161078 176.926216 
L 119.690544 176.926216 
L 121.220009 176.926216 
L 122.749475 176.926216 
L 124.27894 176.926216 
L 125.808406 176.926216 
L 127.337871 176.926216 
L 128.867337 176.926216 
L 130.396802 176.926216 
L 131.926268 176.926216 
L 133.455733 176.926216 
L 134.985199 176.926216 
L 136.514664 176.926216 
L 138.04413 176.926216 
L 139.573595 176.926216 
L 141.103061 176.926216 
L 142.632526 176.926216 
L 144.161992 176.926216 
L 145.691457 176.926216 
L 147.220923 176.926216 
L 148.750388 176.926216 
L 150.279854 176.926216 
L 151.809319 176.926216 
L 153.338785 176.926216 
L 154.86825 176.926216 
L 156.397716 176.926216 
L 157.927181 176.926216 
L 159.456647 176.926216 
L 160.986112 176.926216 
L 162.515578 176.926216 
L 164.045043 176.926216 
L 165.574509 176.926216 
L 167.103974 176.926216 
L 168.63344 176.926216 
L 170.162905 176.926216 
L 171.692371 176.926216 
L 173.221836 176.926216 
L 174.751302 176.926216 
L 176.280767 176.926216 
L 177.810233 176.926216 
L 179.339698 176.926216 
L 180.869164 176.926216 
L 182.39863 176.926216 
L 183.928095 176.926216 
L 185.457561 176.926216 
L 186.987026 176.926216 
L 188.516492 176.926216 
L 190.045957 176.926216 
L 191.575423 176.926216 
L 193.104888 176.926216 
L 194.634354 176.926216 
L 196.163819 176.926216 
L 197.693285 176.926216 
L 199.22275 176.926216 
L 200.752216 176.926216 
L 202.281681 176.926216 
L 203.811147 176.926216 
L 205.340612 176.926216 
L 206.870078 176.926216 
L 208.399543 176.926216 
L 209.929009 176.926216 
L 211.458474 176.926216 
L 212.98794 176.926216 
L 214.517405 176.926216 
L 216.046871 176.926216 
L 217.576336 176.926216 
L 219.105802 176.926216 
L 220.635267 176.926216 
L 222.164733 176.926216 
L 223.694198 176.926216 
L 225.223664 176.926216 
L 226.753129 176.926216 
L 228.282595 176.926216 
L 229.81206 176.926216 
L 231.341526 176.926216 
L 232.870991 176.926216 
L 234.400457 176.926216 
L 235.929922 176.926216 
L 237.459388 176.926216 
L 238.988853 176.926216 
L 240.518319 176.926216 
L 242.047784 176.926216 
L 243.57725 176.926216 
L 245.106715 176.926216 
L 246.636181 176.926216 
L 248.165646 176.926216 
L 249.695112 176.926216 
L 251.224577 176.926216 
L 252.754043 176.926216 
L 254.283508 176.926216 
L 255.812974 176.926216 
L 257.342439 176.926216 
L 258.871905 176.926216 
L 260.40137 176.926216 
L 261.930836 176.926216 
L 263.460302 176.926216 
L 264.989767 176.926216 
L 266.519233 176.926216 
L 268.048698 176.926216 
L 269.578164 176.926216 
L 271.107629 176.926216 
L 272.637095 176.926216 
L 274.16656 176.926216 
L 275.696026 176.926216 
L 277.225491 176.926216 
L 278.754957 176.926216 
L 280.284422 176.926216 
L 281.813888 176.926216 
L 283.343353 176.926216 
L 284.872819 176.926216 
L 286.402284 176.926216 
L 287.93175 176.926216 
L 289.461215 176.926216 
L 290.990681 176.926216 
L 292.520146 176.926216 
L 294.049612 176.926216 
L 295.579077 176.926216 
L 297.108543 176.926216 
L 298.638008 176.926216 
L 300.167474 176.926216 
L 301.696939 176.926216 
L 303.226405 176.926216 
L 304.75587 176.926216 
L 306.285336 176.926216 
L 307.814801 176.926216 
L 309.344267 176.926216 
L 310.873732 176.926216 
L 312.403198 176.926216 
L 313.932663 176.926216 
L 315.462129 176.926216 
L 316.991594 176.926216 
L 318.52106 176.926216 
L 320.050525 176.926216 
L 321.579991 176.926216 
L 323.109456 176.926216 
L 324.638922 176.926216 
L 326.168387 176.926216 
L 327.697853 176.926216 
L 329.227318 176.926216 
L 330.756784 176.926216 
L 332.286249 176.926216 
L 333.815715 176.926216 
L 335.34518 176.926216 
L 336.874646 176.926216 
L 338.404111 176.926216 
L 339.933577 176.926216 
L 341.463042 176.926216 
L 342.992508 176.926216 
L 344.521974 176.926216 
L 346.051439 176.926216 
L 347.580905 176.926216 
L 349.11037 176.926216 
L 350.639836 176.926216 
L 352.169301 176.926216 
L 353.698767 176.926216 
L 355.228232 176.926216 
L 356.757698 176.926216 
L 358.287163 176.926216 
L 359.816629 176.926216 
L 361.346094 176.926216 
L 362.87556 176.926216 
L 364.405025 176.926216 
L 365.934491 176.926216 
L 367.463956 176.926216 
L 368.993422 176.926216 
L 370.522887 176.926216 
L 372.052353 176.926216 
L 373.581818 176.926216 
L 373.581818 180.084344 
L 373.581818 180.084344 
L 372.052353 180.084344 
L 370.522887 180.084344 
L 368.993422 180.084344 
L 367.463956 180.084344 
L 365.934491 180.084344 
L 364.405025 180.084344 
L 362.87556 180.084344 
L 361.346094 180.084344 
L 359.816629 180.084344 
L 358.287163 180.084344 
L 356.757698 180.084344 
L 355.228232 180.084344 
L 353.698767 180.084344 
L 352.169301 180.084344 
L 350.639836 180.084344 
L 349.11037 180.084344 
L 347.580905 180.084344 
L 346.051439 180.084344 
L 344.521974 180.084344 
L 342.992508 180.084344 
L 341.463042 180.084344 
L 339.933577 180.084344 
L 338.404111 180.084344 
L 336.874646 180.084344 
L 335.34518 180.084344 
L 333.815715 180.084344 
L 332.286249 180.084344 
L 330.756784 180.084344 
L 329.227318 180.084344 
L 327.697853 180.084344 
L 326.168387 180.084344 
L 324.638922 180.084344 
L 323.109456 180.084344 
L 321.579991 180.084344 
L 320.050525 180.084344 
L 318.52106 180.084344 
L 316.991594 180.084344 
L 315.462129 180.084344 
L 313.932663 180.084344 
L 312.403198 180.084344 
L 310.873732 180.084344 
L 309.344267 180.084344 
L 307.814801 180.084344 
L 306.285336 180.084344 
L 304.75587 180.084344 
L 303.226405 180.084344 
L 301.696939 180.084344 
L 300.167474 180.084344 
L 298.638008 180.084344 
L 297.108543 180.084344 
L 295.579077 180.084344 
L 294.049612 180.084344 
L 292.520146 180.084344 
L 290.990681 180.084344 
L 289.461215 180.084344 
L 287.93175 180.084344 
L 286.402284 180.084344 
L 284.872819 180.084344 
L 283.343353 180.084344 
L 281.813888 180.084344 
L 280.284422 180.084344 
L 278.754957 180.084344 
L 277.225491 180.084344 
L 275.696026 180.084344 
L 274.16656 180.084344 
L 272.637095 180.084344 
L 271.107629 180.084344 
L 269.578164 180.084344 
L 268.048698 180.084344 
L 266.519233 180.084344 
L 264.989767 180.084344 
L 263.460302 180.084344 
L 261.930836 180.084344 
L 260.40137 180.084344 
L 258.871905 180.084344 
L 257.342439 180.084344 
L 255.812974 180.084344 
L 254.283508 180.084344 
L 252.754043 180.084344 
L 251.224577 180.084344 
L 249.695112 180.084344 
L 248.165646 180.084344 
L 246.636181 180.084344 
L 245.106715 180.084344 
L 243.57725 180.084344 
L 242.047784 180.084344 
L 240.518319 180.084344 
L 238.988853 180.084344 
L 237.459388 180.084344 
L 235.929922 180.084344 
L 234.400457 180.084344 
L 232.870991 180.084344 
L 231.341526 180.084344 
L 229.81206 180.084344 
L 228.282595 180.084344 
L 226.753129 180.084344 
L 225.223664 180.084344 
L 223.694198 180.084344 
L 222.164733 180.084344 
L 220.635267 180.084344 
L 219.105802 180.084344 
L 217.576336 180.084344 
L 216.046871 180.084344 
L 214.517405 180.084344 
L 212.98794 180.084344 
L 211.458474 180.084344 
L 209.929009 180.084344 
L 208.399543 180.084344 
L 206.870078 180.084344 
L 205.340612 180.084344 
L 203.811147 180.084344 
L 202.281681 180.084344 
L 200.752216 180.084344 
L 199.22275 180.084344 
L 197.693285 180.084344 
L 196.163819 180.084344 
L 194.634354 180.084344 
L 193.104888 180.084344 
L 191.575423 180.084344 
L 190.045957 180.084344 
L 188.516492 180.084344 
L 186.987026 180.084344 
L 185.457561 180.084344 
L 183.928095 180.084344 
L 182.39863 180.084344 
L 180.869164 180.084344 
L 179.339698 180.084344 
L 177.810233 180.084344 
L 176.280767 180.084344 
L 174.751302 180.084344 
L 173.221836 180.084344 
L 171.692371 180.084344 
L 170.162905 180.084344 
L 168.63344 180.084344 
L 167.103974 180.084344 
L 165.574509 180.084344 
L 164.045043 180.084344 
L 162.515578 180.084344 
L 160.986112 180.084344 
L 159.456647 180.084344 
L 157.927181 180.084344 
L 156.397716 180.084344 
L 154.86825 180.084344 
L 153.338785 180.084344 
L 151.809319 180.084344 
L 150.279854 180.084344 
L 148.750388 180.084344 
L 147.220923 180.084344 
L 145.691457 180.084344 
L 144.161992 180.084344 
L 142.632526 180.084344 
L 141.103061 180.084344 
L 139.573595 180.084344 
L 138.04413 180.084344 
L 136.514664 180.084344 
L 134.985199 180.084344 
L 133.455733 180.084344 
L 131.926268 180.084344 
L 130.396802 180.084344 
L 128.867337 180.084344 
L 127.337871 180.084344 
L 125.808406 180.084344 
L 124.27894 180.084344 
L 122.749475 180.084344 
L 121.220009 180.084344 
L 119.690544 180.084344 
L 118.161078 180.084344 
L 116.631613 180.084344 
L 115.102147 180.084344 
L 113.572682 180.084344 
L 112.043216 180.084344 
L 110.513751 180.084344 
L 108.984285 180.084344 
L 107.45482 180.084344 
L 105.925354 180.084344 
L 104.395889 180.084344 
L 102.866423 180.084344 
L 101.336958 180.084344 
L 99.807492 180.084344 
L 98.278026 180.084344 
L 96.748561 180.084344 
L 95.219095 180.084344 
L 93.68963 180.084344 
L 92.160164 180.084344 
L 90.630699 180.084344 
L 89.101233 180.084344 
L 87.571768 180.084344 
L 86.042302 180.084344 
L 84.512837 180.084344 
L 82.983371 180.084344 
L 81.453906 180.084344 
L 79.92444 180.084344 
L 78.394975 180.084344 
L 76.865509 180.084344 
L 75.336044 180.084344 
L 73.806578 180.084344 
L 72.277113 180.084344 
L 70.747647 180.084344 
L 69.218182 180.084344 
z
" clip-path="url(#pb738886fc7)" style="fill: #ff7f0e; fill-opacity: 0.5"/>
   </g>
   <g id="matplotlib.axis_1">
    <g id="xtick_1">
     <g id="line2d_1">
      <defs>
       <path id="m6fcea9530e" d="M 0 0 
L 0 3.5 
" style="stroke: #000000; stroke-width: 0.8"/>
      </defs>
      <g>
       <use xlink:href="#m6fcea9530e" x="69.218182" y="252" style="stroke: #000000; stroke-width: 0.8"/>
      </g>
     </g>
     <g id="text_1">
      <!-- 0 -->
      <g transform="translate(66.036932 266.598437)scale(0.1 -0.1)">
       <defs>
        <path id="DejaVuSans-30" d="M 2034 4250 
Q 1547 4250 1301 3770 
Q 1056 3291 1056 2328 
Q 1056 1369 1301 889 
Q 1547 409 2034 409 
Q 2525 409 2770 889 
Q 3016 1369 3016 2328 
Q 3016 3291 2770 3770 
Q 2525 4250 2034 4250 
z
M 2034 4750 
Q 2819 4750 3233 4129 
Q 3647 3509 3647 2328 
Q 3647 1150 3233 529 
Q 2819 -91 2034 -91 
Q 1250 -91 836 529 
Q 422 1150 422 2328 
Q 422 3509 836 4129 
Q 1250 4750 2034 4750 
z
" transform="scale(0.015625)"/>
       </defs>
       <use xlink:href="#DejaVuSans-30"/>
      </g>
     </g>
    </g>
    <g id="xtick_2">
     <g id="line2d_2">
      <g>
       <use xlink:href="#m6fcea9530e" x="107.45482" y="252" style="stroke: #000000; stroke-width: 0.8"/>
      </g>
     </g>
     <g id="text_2">
      <!-- 25 -->
      <g transform="translate(101.09232 266.598437)scale(0.1 -0.1)">
       <defs>
        <path id="DejaVuSans-32" d="M 1228 531 
L 3431 531 
L 3431 0 
L 469 0 
L 469 531 
Q 828 903 1448 1529 
Q 2069 2156 2228 2338 
Q 2531 2678 2651 2914 
Q 2772 3150 2772 3378 
Q 2772 3750 2511 3984 
Q 2250 4219 1831 4219 
Q 1534 4219 1204 4116 
Q 875 4013 500 3803 
L 500 4441 
Q 881 4594 1212 4672 
Q 1544 4750 1819 4750 
Q 2544 4750 2975 4387 
Q 3406 4025 3406 3419 
Q 3406 3131 3298 2873 
Q 3191 2616 2906 2266 
Q 2828 2175 2409 1742 
Q 1991 1309 1228 531 
z
" transform="scale(0.015625)"/>
        <path id="DejaVuSans-35" d="M 691 4666 
L 3169 4666 
L 3169 4134 
L 1269 4134 
L 1269 2991 
Q 1406 3038 1543 3061 
Q 1681 3084 1819 3084 
Q 2600 3084 3056 2656 
Q 3513 2228 3513 1497 
Q 3513 744 3044 326 
Q 2575 -91 1722 -91 
Q 1428 -91 1123 -41 
Q 819 9 494 109 
L 494 744 
Q 775 591 1075 516 
Q 1375 441 1709 441 
Q 2250 441 2565 725 
Q 2881 1009 2881 1497 
Q 2881 1984 2565 2268 
Q 2250 2553 1709 2553 
Q 1456 2553 1204 2497 
Q 953 2441 691 2322 
L 691 4666 
z
" transform="scale(0.015625)"/>
       </defs>
       <use xlink:href="#DejaVuSans-32"/>
       <use xlink:href="#DejaVuSans-35" x="63.623047"/>
      </g>
     </g>
    </g>
    <g id="xtick_3">
     <g id="line2d_3">
      <g>
       <use xlink:href="#m6fcea9530e" x="145.691457" y="252" style="stroke: #000000; stroke-width: 0.8"/>
      </g>
     </g>
     <g id="text_3">
      <!-- 50 -->
      <g transform="translate(139.328957 266.598437)scale(0.1 -0.1)">
       <use xlink:href="#DejaVuSans-35"/>
       <use xlink:href="#DejaVuSans-30" x="63.623047"/>
      </g>
     </g>
    </g>
    <g id="xtick_4">
     <g id="line2d_4">
      <g>
       <use xlink:href="#m6fcea9530e" x="183.928095" y="252" style="stroke: #000000; stroke-width: 0.8"/>
      </g>
     </g>
     <g id="text_4">
      <!-- 75 -->
      <g transform="translate(177.565595 266.598437)scale(0.1 -0.1)">
       <defs>
        <path id="DejaVuSans-37" d="M 525 4666 
L 3525 4666 
L 3525 4397 
L 1831 0 
L 1172 0 
L 2766 4134 
L 525 4134 
L 525 4666 
z
" transform="scale(0.015625)"/>
       </defs>
       <use xlink:href="#DejaVuSans-37"/>
       <use xlink:href="#DejaVuSans-35" x="63.623047"/>
      </g>
     </g>
    </g>
    <g id="xtick_5">
     <g id="line2d_5">
      <g>
       <use xlink:href="#m6fcea9530e" x="222.164733" y="252" style="stroke: #000000; stroke-width: 0.8"/>
      </g>
     </g>
     <g id="text_5">
      <!-- 100 -->
      <g transform="translate(212.620983 266.598437)scale(0.1 -0.1)">
       <defs>
        <path id="DejaVuSans-31" d="M 794 531 
L 1825 531 
L 1825 4091 
L 703 3866 
L 703 4441 
L 1819 4666 
L 2450 4666 
L 2450 531 
L 3481 531 
L 3481 0 
L 794 0 
L 794 531 
z
" transform="scale(0.015625)"/>
       </defs>
       <use xlink:href="#DejaVuSans-31"/>
       <use xlink:href="#DejaVuSans-30" x="63.623047"/>
       <use xlink:href="#DejaVuSans-30" x="127.246094"/>
      </g>
     </g>
    </g>
    <g id="xtick_6">
     <g id="line2d_6">
      <g>
       <use xlink:href="#m6fcea9530e" x="260.40137" y="252" style="stroke: #000000; stroke-width: 0.8"/>
      </g>
     </g>
     <g id="text_6">
      <!-- 125 -->
      <g transform="translate(250.85762 266.598437)scale(0.1 -0.1)">
       <use xlink:href="#DejaVuSans-31"/>
       <use xlink:href="#DejaVuSans-32" x="63.623047"/>
       <use xlink:href="#DejaVuSans-35" x="127.246094"/>
      </g>
     </g>
    </g>
    <g id="xtick_7">
     <g id="line2d_7">
      <g>
       <use xlink:href="#m6fcea9530e" x="298.638008" y="252" style="stroke: #000000; stroke-width: 0.8"/>
      </g>
     </g>
     <g id="text_7">
      <!-- 150 -->
      <g transform="translate(289.094258 266.598437)scale(0.1 -0.1)">
       <use xlink:href="#DejaVuSans-31"/>
       <use xlink:href="#DejaVuSans-35" x="63.623047"/>
       <use xlink:href="#DejaVuSans-30" x="127.246094"/>
      </g>
     </g>
    </g>
    <g id="xtick_8">
     <g id="line2d_8">
      <g>
       <use xlink:href="#m6fcea9530e" x="336.874646" y="252" style="stroke: #000000; stroke-width: 0.8"/>
      </g>
     </g>
     <g id="text_8">
      <!-- 175 -->
      <g transform="translate(327.330896 266.598437)scale(0.1 -0.1)">
       <use xlink:href="#DejaVuSans-31"/>
       <use xlink:href="#DejaVuSans-37" x="63.623047"/>
       <use xlink:href="#DejaVuSans-35" x="127.246094"/>
      </g>
     </g>
    </g>
    <g id="xtick_9">
     <g id="line2d_9">
      <g>
       <use xlink:href="#m6fcea9530e" x="375.111284" y="252" style="stroke: #000000; stroke-width: 0.8"/>
      </g>
     </g>
     <g id="text_9">
      <!-- 200 -->
      <g transform="translate(365.567534 266.598437)scale(0.1 -0.1)">
       <use xlink:href="#DejaVuSans-32"/>
       <use xlink:href="#DejaVuSans-30" x="63.623047"/>
       <use xlink:href="#DejaVuSans-30" x="127.246094"/>
      </g>
     </g>
    </g>
    <g id="text_10">
     <!-- Generation -->
     <g transform="translate(193.507031 280.276563)scale(0.1 -0.1)">
      <defs>
       <path id="DejaVuSans-47" d="M 3809 666 
L 3809 1919 
L 2778 1919 
L 2778 2438 
L 4434 2438 
L 4434 434 
Q 4069 175 3628 42 
Q 3188 -91 2688 -91 
Q 1594 -91 976 548 
Q 359 1188 359 2328 
Q 359 3472 976 4111 
Q 1594 4750 2688 4750 
Q 3144 4750 3555 4637 
Q 3966 4525 4313 4306 
L 4313 3634 
Q 3963 3931 3569 4081 
Q 3175 4231 2741 4231 
Q 1884 4231 1454 3753 
Q 1025 3275 1025 2328 
Q 1025 1384 1454 906 
Q 1884 428 2741 428 
Q 3075 428 3337 486 
Q 3600 544 3809 666 
z
" transform="scale(0.015625)"/>
       <path id="DejaVuSans-65" d="M 3597 1894 
L 3597 1613 
L 953 1613 
Q 991 1019 1311 708 
Q 1631 397 2203 397 
Q 2534 397 2845 478 
Q 3156 559 3463 722 
L 3463 178 
Q 3153 47 2828 -22 
Q 2503 -91 2169 -91 
Q 1331 -91 842 396 
Q 353 884 353 1716 
Q 353 2575 817 3079 
Q 1281 3584 2069 3584 
Q 2775 3584 3186 3129 
Q 3597 2675 3597 1894 
z
M 3022 2063 
Q 3016 2534 2758 2815 
Q 2500 3097 2075 3097 
Q 1594 3097 1305 2825 
Q 1016 2553 972 2059 
L 3022 2063 
z
" transform="scale(0.015625)"/>
       <path id="DejaVuSans-6e" d="M 3513 2113 
L 3513 0 
L 2938 0 
L 2938 2094 
Q 2938 2591 2744 2837 
Q 2550 3084 2163 3084 
Q 1697 3084 1428 2787 
Q 1159 2491 1159 1978 
L 1159 0 
L 581 0 
L 581 3500 
L 1159 3500 
L 1159 2956 
Q 1366 3272 1645 3428 
Q 1925 3584 2291 3584 
Q 2894 3584 3203 3211 
Q 3513 2838 3513 2113 
z
" transform="scale(0.015625)"/>
       <path id="DejaVuSans-72" d="M 2631 2963 
Q 2534 3019 2420 3045 
Q 2306 3072 2169 3072 
Q 1681 3072 1420 2755 
Q 1159 2438 1159 1844 
L 1159 0 
L 581 0 
L 581 3500 
L 1159 3500 
L 1159 2956 
Q 1341 3275 1631 3429 
Q 1922 3584 2338 3584 
Q 2397 3584 2469 3576 
Q 2541 3569 2628 3553 
L 2631 2963 
z
" transform="scale(0.015625)"/>
       <path id="DejaVuSans-61" d="M 2194 1759 
Q 1497 1759 1228 1600 
Q 959 1441 959 1056 
Q 959 750 1161 570 
Q 1363 391 1709 391 
Q 2188 391 2477 730 
Q 2766 1069 2766 1631 
L 2766 1759 
L 2194 1759 
z
M 3341 1997 
L 3341 0 
L 2766 0 
L 2766 531 
Q 2569 213 2275 61 
Q 1981 -91 1556 -91 
Q 1019 -91 701 211 
Q 384 513 384 1019 
Q 384 1609 779 1909 
Q 1175 2209 1959 2209 
L 2766 2209 
L 2766 2266 
Q 2766 2663 2505 2880 
Q 2244 3097 1772 3097 
Q 1472 3097 1187 3025 
Q 903 2953 641 2809 
L 641 3341 
Q 956 3463 1253 3523 
Q 1550 3584 1831 3584 
Q 2591 3584 2966 3190 
Q 3341 2797 3341 1997 
z
" transform="scale(0.015625)"/>
       <path id="DejaVuSans-74" d="M 1172 4494 
L 1172 3500 
L 2356 3500 
L 2356 3053 
L 1172 3053 
L 1172 1153 
Q 1172 725 1289 603 
Q 1406 481 1766 481 
L 2356 481 
L 2356 0 
L 1766 0 
Q 1100 0 847 248 
Q 594 497 594 1153 
L 594 3053 
L 172 3053 
L 172 3500 
L 594 3500 
L 594 4494 
L 1172 4494 
z
" transform="scale(0.015625)"/>
       <path id="DejaVuSans-69" d="M 603 3500 
L 1178 3500 
L 1178 0 
L 603 0 
L 603 3500 
z
M 603 4863 
L 1178 4863 
L 1178 4134 
L 603 4134 
L 603 4863 
z
" transform="scale(0.015625)"/>
       <path id="DejaVuSans-6f" d="M 1959 3097 
Q 1497 3097 1228 2736 
Q 959 2375 959 1747 
Q 959 1119 1226 758 
Q 1494 397 1959 397 
Q 2419 397 2687 759 
Q 2956 1122 2956 1747 
Q 2956 2369 2687 2733 
Q 2419 3097 1959 3097 
z
M 1959 3584 
Q 2709 3584 3137 3096 
Q 3566 2609 3566 1747 
Q 3566 888 3137 398 
Q 2709 -91 1959 -91 
Q 1206 -91 779 398 
Q 353 888 353 1747 
Q 353 2609 779 3096 
Q 1206 3584 1959 3584 
z
" transform="scale(0.015625)"/>
      </defs>
      <use xlink:href="#DejaVuSans-47"/>
      <use xlink:href="#DejaVuSans-65" x="77.490234"/>
      <use xlink:href="#DejaVuSans-6e" x="139.013672"/>
      <use xlink:href="#DejaVuSans-65" x="202.392578"/>
      <use xlink:href="#DejaVuSans-72" x="263.916016"/>
      <use xlink:href="#DejaVuSans-61" x="305.029297"/>
      <use xlink:href="#DejaVuSans-74" x="366.308594"/>
      <use xlink:href="#DejaVuSans-69" x="405.517578"/>
      <use xlink:href="#DejaVuSans-6f" x="433.300781"/>
      <use xlink:href="#DejaVuSans-6e" x="494.482422"/>
     </g>
    </g>
   </g>
   <g id="matplotlib.axis_2">
    <g id="ytick_1">
     <g id="line2d_10">
      <defs>
       <path id="m2398f48f44" d="M 0 0 
L -3.5 0 
" style="stroke: #000000; stroke-width: 0.8"/>
      </defs>
      <g>
       <use xlink:href="#m2398f48f44" x="54" y="230.256" style="stroke: #000000; stroke-width: 0.8"/>
      </g>
     </g>
     <g id="text_11">
      <!-- 5 -->
      <g transform="translate(40.6375 234.055219)scale(0.1 -0.1)">
       <use xlink:href="#DejaVuSans-35"/>
      </g>
     </g>
    </g>
    <g id="ytick_2">
     <g id="line2d_11">
      <g>
       <use xlink:href="#m2398f48f44" x="54" y="186.768" style="stroke: #000000; stroke-width: 0.8"/>
      </g>
     </g>
     <g id="text_12">
      <!-- 6 -->
      <g transform="translate(40.6375 190.567219)scale(0.1 -0.1)">
       <defs>
        <path id="DejaVuSans-36" d="M 2113 2584 
Q 1688 2584 1439 2293 
Q 1191 2003 1191 1497 
Q 1191 994 1439 701 
Q 1688 409 2113 409 
Q 2538 409 2786 701 
Q 3034 994 3034 1497 
Q 3034 2003 2786 2293 
Q 2538 2584 2113 2584 
z
M 3366 4563 
L 3366 3988 
Q 3128 4100 2886 4159 
Q 2644 4219 2406 4219 
Q 1781 4219 1451 3797 
Q 1122 3375 1075 2522 
Q 1259 2794 1537 2939 
Q 1816 3084 2150 3084 
Q 2853 3084 3261 2657 
Q 3669 2231 3669 1497 
Q 3669 778 3244 343 
Q 2819 -91 2113 -91 
Q 1303 -91 875 529 
Q 447 1150 447 2328 
Q 447 3434 972 4092 
Q 1497 4750 2381 4750 
Q 2619 4750 2861 4703 
Q 3103 4656 3366 4563 
z
" transform="scale(0.015625)"/>
       </defs>
       <use xlink:href="#DejaVuSans-36"/>
      </g>
     </g>
    </g>
    <g id="ytick_3">
     <g id="line2d_12">
      <g>
       <use xlink:href="#m2398f48f44" x="54" y="143.28" style="stroke: #000000; stroke-width: 0.8"/>
      </g>
     </g>
     <g id="text_13">
      <!-- 7 -->
      <g transform="translate(40.6375 147.079219)scale(0.1 -0.1)">
       <use xlink:href="#DejaVuSans-37"/>
      </g>
     </g>
    </g>
    <g id="ytick_4">
     <g id="line2d_13">
      <g>
       <use xlink:href="#m2398f48f44" x="54" y="99.792" style="stroke: #000000; stroke-width: 0.8"/>
      </g>
     </g>
     <g id="text_14">
      <!-- 8 -->
      <g transform="translate(40.6375 103.591219)scale(0.1 -0.1)">
       <defs>
        <path id="DejaVuSans-38" d="M 2034 2216 
Q 1584 2216 1326 1975 
Q 1069 1734 1069 1313 
Q 1069 891 1326 650 
Q 1584 409 2034 409 
Q 2484 409 2743 651 
Q 3003 894 3003 1313 
Q 3003 1734 2745 1975 
Q 2488 2216 2034 2216 
z
M 1403 2484 
Q 997 2584 770 2862 
Q 544 3141 544 3541 
Q 544 4100 942 4425 
Q 1341 4750 2034 4750 
Q 2731 4750 3128 4425 
Q 3525 4100 3525 3541 
Q 3525 3141 3298 2862 
Q 3072 2584 2669 2484 
Q 3125 2378 3379 2068 
Q 3634 1759 3634 1313 
Q 3634 634 3220 271 
Q 2806 -91 2034 -91 
Q 1263 -91 848 271 
Q 434 634 434 1313 
Q 434 1759 690 2068 
Q 947 2378 1403 2484 
z
M 1172 3481 
Q 1172 3119 1398 2916 
Q 1625 2713 2034 2713 
Q 2441 2713 2670 2916 
Q 2900 3119 2900 3481 
Q 2900 3844 2670 4047 
Q 2441 4250 2034 4250 
Q 1625 4250 1398 4047 
Q 1172 3844 1172 3481 
z
" transform="scale(0.015625)"/>
       </defs>
       <use xlink:href="#DejaVuSans-38"/>
      </g>
     </g>
    </g>
    <g id="ytick_5">
     <g id="line2d_14">
      <g>
       <use xlink:href="#m2398f48f44" x="54" y="56.304" style="stroke: #000000; stroke-width: 0.8"/>
      </g>
     </g>
     <g id="text_15">
      <!-- 9 -->
      <g transform="translate(40.6375 60.103219)scale(0.1 -0.1)">
       <defs>
        <path id="DejaVuSans-39" d="M 703 97 
L 703 672 
Q 941 559 1184 500 
Q 1428 441 1663 441 
Q 2288 441 2617 861 
Q 2947 1281 2994 2138 
Q 2813 1869 2534 1725 
Q 2256 1581 1919 1581 
Q 1219 1581 811 2004 
Q 403 2428 403 3163 
Q 403 3881 828 4315 
Q 1253 4750 1959 4750 
Q 2769 4750 3195 4129 
Q 3622 3509 3622 2328 
Q 3622 1225 3098 567 
Q 2575 -91 1691 -91 
Q 1453 -91 1209 -44 
Q 966 3 703 97 
z
M 1959 2075 
Q 2384 2075 2632 2365 
Q 2881 2656 2881 3163 
Q 2881 3666 2632 3958 
Q 2384 4250 1959 4250 
Q 1534 4250 1286 3958 
Q 1038 3666 1038 3163 
Q 1038 2656 1286 2365 
Q 1534 2075 1959 2075 
z
" transform="scale(0.015625)"/>
       </defs>
       <use xlink:href="#DejaVuSans-39"/>
      </g>
     </g>
    </g>
    <g id="text_16">
     <!-- Best Fitness -->
     <g transform="translate(34.557812 173.258125)rotate(-90)scale(0.1 -0.1)">
      <defs>
       <path id="DejaVuSans-42" d="M 1259 2228 
L 1259 519 
L 2272 519 
Q 2781 519 3026 730 
Q 3272 941 3272 1375 
Q 3272 1813 3026 2020 
Q 2781 2228 2272 2228 
L 1259 2228 
z
M 1259 4147 
L 1259 2741 
L 2194 2741 
Q 2656 2741 2882 2914 
Q 3109 3088 3109 3444 
Q 3109 3797 2882 3972 
Q 2656 4147 2194 4147 
L 1259 4147 
z
M 628 4666 
L 2241 4666 
Q 2963 4666 3353 4366 
Q 3744 4066 3744 3513 
Q 3744 3084 3544 2831 
Q 3344 2578 2956 2516 
Q 3422 2416 3680 2098 
Q 3938 1781 3938 1306 
Q 3938 681 3513 340 
Q 3088 0 2303 0 
L 628 0 
L 628 4666 
z
" transform="scale(0.015625)"/>
       <path id="DejaVuSans-73" d="M 2834 3397 
L 2834 2853 
Q 2591 2978 2328 3040 
Q 2066 3103 1784 3103 
Q 1356 3103 1142 2972 
Q 928 2841 928 2578 
Q 928 2378 1081 2264 
Q 1234 2150 1697 2047 
L 1894 2003 
Q 2506 1872 2764 1633 
Q 3022 1394 3022 966 
Q 3022 478 2636 193 
Q 2250 -91 1575 -91 
Q 1294 -91 989 -36 
Q 684 19 347 128 
L 347 722 
Q 666 556 975 473 
Q 1284 391 1588 391 
Q 1994 391 2212 530 
Q 2431 669 2431 922 
Q 2431 1156 2273 1281 
Q 2116 1406 1581 1522 
L 1381 1569 
Q 847 1681 609 1914 
Q 372 2147 372 2553 
Q 372 3047 722 3315 
Q 1072 3584 1716 3584 
Q 2034 3584 2315 3537 
Q 2597 3491 2834 3397 
z
" transform="scale(0.015625)"/>
       <path id="DejaVuSans-20" transform="scale(0.015625)"/>
       <path id="DejaVuSans-46" d="M 628 4666 
L 3309 4666 
L 3309 4134 
L 1259 4134 
L 1259 2759 
L 3109 2759 
L 3109 2228 
L 1259 2228 
L 1259 0 
L 628 0 
L 628 4666 
z
" transform="scale(0.015625)"/>
      </defs>
      <use xlink:href="#DejaVuSans-42"/>
      <use xlink:href="#DejaVuSans-65" x="68.603516"/>
      <use xlink:href="#DejaVuSans-73" x="130.126953"/>
      <use xlink:href="#DejaVuSans-74" x="182.226562"/>
      <use xlink:href="#DejaVuSans-20" x="221.435547"/>
      <use xlink:href="#DejaVuSans-46" x="253.222656"/>
      <use xlink:href="#DejaVuSans-69" x="303.492188"/>
      <use xlink:href="#DejaVuSans-74" x="331.275391"/>
      <use xlink:href="#DejaVuSans-6e" x="370.484375"/>
      <use xlink:href="#DejaVuSans-65" x="433.863281"/>
      <use xlink:href="#DejaVuSans-73" x="495.386719"/>
      <use xlink:href="#DejaVuSans-73" x="547.486328"/>
     </g>
    </g>
   </g>
   <g id="line2d_15">
    <path d="M 69.218182 175.928616 
L 70.747647 174.10212 
L 72.277113 173.634624 
L 73.806578 170.557848 
L 75.336044 170.992728 
L 76.865509 168.959664 
L 78.394975 168.2856 
L 79.92444 167.176656 
L 81.453906 165.774168 
L 82.983371 165.371904 
L 84.512837 163.3932 
L 86.042302 164.871792 
L 87.571768 160.816536 
L 89.101233 162.262512 
L 90.630699 162.284256 
L 92.160164 161.131824 
L 93.68963 161.316648 
L 95.219095 160.62084 
L 96.748561 161.05572 
L 98.278026 159.990264 
L 99.807492 160.653456 
L 101.336958 160.283808 
L 102.866423 159.414048 
L 104.395889 160.262064 
L 105.925354 159.42492 
L 107.45482 159.457536 
L 108.984285 158.750856 
L 110.513751 157.337496 
L 112.043216 158.979168 
L 113.572682 159.588 
L 115.102147 158.729112 
L 116.631613 156.826512 
L 118.161078 159.403176 
L 119.690544 158.250744 
L 121.220009 157.52232 
L 122.749475 157.73976 
L 124.27894 157.663656 
L 125.808406 157.011336 
L 127.337871 156.609072 
L 128.867337 157.641912 
L 130.396802 155.391408 
L 131.926268 156.532968 
L 133.455733 156.511224 
L 134.985199 156.70692 
L 136.514664 156.021984 
L 138.04413 156.359016 
L 139.573595 154.347696 
L 141.103061 155.652336 
L 142.632526 155.83716 
L 144.161992 153.706248 
L 145.691457 154.4238 
L 147.220923 153.858456 
L 148.750388 150.955632 
L 150.279854 153.347472 
L 151.809319 152.129808 
L 153.338785 153.162648 
L 156.397716 150.988248 
L 159.456647 154.065024 
L 160.986112 152.68428 
L 162.515578 151.009992 
L 164.045043 153.0648 
L 165.574509 152.814744 
L 167.103974 152.162424 
L 168.63344 153.49968 
L 170.162905 153.401832 
L 171.692371 152.803872 
L 173.221836 151.553592 
L 174.751302 151.890624 
L 176.280767 151.466616 
L 179.339698 151.901496 
L 180.869164 150.629472 
L 182.39863 151.129584 
L 183.928095 149.542272 
L 186.987026 147.781008 
L 188.516492 148.781232 
L 190.045957 150.50988 
L 191.575423 149.237856 
L 193.104888 149.47704 
L 194.634354 147.6288 
L 196.163819 147.73752 
L 197.693285 149.69448 
L 199.22275 150.227208 
L 200.752216 149.118264 
L 202.281681 148.944312 
L 203.811147 149.324832 
L 205.340612 149.270472 
L 206.870078 148.520304 
L 208.399543 149.998896 
L 209.929009 147.585312 
L 211.458474 148.563792 
L 212.98794 150.759936 
L 214.517405 149.31396 
L 216.046871 149.574888 
L 217.576336 148.509432 
L 219.105802 147.976704 
L 220.635267 149.759712 
L 222.164733 151.096968 
L 223.694198 149.303088 
L 225.223664 150.172848 
L 226.753129 148.922568 
L 228.282595 148.705128 
L 229.81206 149.498784 
L 231.341526 148.998672 
L 232.870991 145.660968 
L 234.400457 149.020416 
L 235.929922 148.846464 
L 237.459388 147.128688 
L 238.988853 148.270248 
L 240.518319 147.694032 
L 242.047784 148.400712 
L 243.57725 148.06368 
L 245.106715 148.215888 
L 246.636181 149.292216 
L 248.165646 146.987352 
L 249.695112 147.650544 
L 251.224577 146.769912 
L 252.754043 147.30264 
L 254.283508 146.878632 
L 255.812974 147.607056 
L 257.342439 147.41136 
L 258.871905 145.998 
L 260.40137 145.704456 
L 261.930836 144.671616 
L 263.460302 145.921896 
L 264.989767 145.323936 
L 268.048698 145.867536 
L 269.578164 144.301968 
L 271.107629 144.573768 
L 272.637095 145.56312 
L 274.16656 143.845344 
L 275.696026 143.845344 
L 277.225491 145.856664 
L 278.754957 145.911024 
L 280.284422 145.410912 
L 281.813888 145.693584 
L 283.343353 146.21544 
L 284.872819 146.291544 
L 286.402284 146.987352 
L 287.93175 146.693808 
L 289.461215 143.780112 
L 290.990681 143.888832 
L 292.520146 142.453728 
L 294.049612 143.66052 
L 295.579077 143.736624 
L 297.108543 144.562896 
L 300.167474 144.780336 
L 301.696939 143.87796 
L 303.226405 144.74772 
L 304.75587 144.14976 
L 306.285336 143.160408 
L 310.873732 142.986456 
L 312.403198 143.888832 
L 313.932663 143.366976 
L 315.462129 143.888832 
L 318.52106 145.519632 
L 320.050525 146.095848 
L 321.579991 145.4544 
L 323.109456 145.215216 
L 324.638922 144.486792 
L 326.168387 146.715552 
L 327.697853 145.965384 
L 329.227318 143.410464 
L 332.286249 146.563344 
L 333.815715 146.030616 
L 335.34518 146.335032 
L 336.874646 145.573992 
L 338.404111 146.041488 
L 339.933577 144.671616 
L 341.463042 144.682488 
L 342.992508 145.095624 
L 344.521974 144.25848 
L 346.051439 145.606608 
L 347.580905 145.758816 
L 349.11037 145.302192 
L 350.639836 145.215216 
L 352.169301 143.269128 
L 353.698767 146.59596 
L 355.228232 142.02972 
L 356.757698 143.106048 
L 358.287163 142.877736 
L 359.816629 145.139112 
L 361.346094 145.226088 
L 362.87556 144.062784 
L 364.405025 143.33436 
L 365.934491 143.93232 
L 367.463956 143.801856 
L 368.993422 143.421336 
L 370.522887 144.943416 
L 372.052353 142.703784 
L 373.581818 143.236512 
L 373.581818 143.236512 
" clip-path="url(#pb738886fc7)" style="fill: none; stroke: #1f77b4; stroke-width: 1.5; stroke-linecap: square"/>
   </g>
   <g id="line2d_16">
    <path d="M 69.218182 178.50528 
L 373.581818 178.50528 
L 373.581818 178.50528 
" clip-path="url(#pb738886fc7)" style="fill: none; stroke-dasharray: 5.55,2.4; stroke-dashoffset: 0; stroke: #ff7f0e; stroke-width: 1.5"/>
   </g>
   <g id="patch_3">
    <path d="M 54 252 
L 54 34.56 
" style="fill: none; stroke: #000000; stroke-width: 0.8; stroke-linejoin: miter; stroke-linecap: square"/>
   </g>
   <g id="patch_4">
    <path d="M 388.8 252 
L 388.8 34.56 
" style="fill: none; stroke: #000000; stroke-width: 0.8; stroke-linejoin: miter; stroke-linecap: square"/>
   </g>
   <g id="patch_5">
    <path d="M 54 252 
L 388.8 252 
" style="fill: none; stroke: #000000; stroke-width: 0.8; stroke-linejoin: miter; stroke-linecap: square"/>
   </g>
   <g id="patch_6">
    <path d="M 54 34.56 
L 388.8 34.56 
" style="fill: none; stroke: #000000; stroke-width: 0.8; stroke-linejoin: miter; stroke-linecap: square"/>
   </g>
   <g id="text_17">
    <!-- Caveman -->
    <g transform="translate(192.966563 28.56)scale(0.12 -0.12)">
     <defs>
      <path id="DejaVuSans-43" d="M 4122 4306 
L 4122 3641 
Q 3803 3938 3442 4084 
Q 3081 4231 2675 4231 
Q 1875 4231 1450 3742 
Q 1025 3253 1025 2328 
Q 1025 1406 1450 917 
Q 1875 428 2675 428 
Q 3081 428 3442 575 
Q 3803 722 4122 1019 
L 4122 359 
Q 3791 134 3420 21 
Q 3050 -91 2638 -91 
Q 1578 -91 968 557 
Q 359 1206 359 2328 
Q 359 3453 968 4101 
Q 1578 4750 2638 4750 
Q 3056 4750 3426 4639 
Q 3797 4528 4122 4306 
z
" transform="scale(0.015625)"/>
      <path id="DejaVuSans-76" d="M 191 3500 
L 800 3500 
L 1894 563 
L 2988 3500 
L 3597 3500 
L 2284 0 
L 1503 0 
L 191 3500 
z
" transform="scale(0.015625)"/>
      <path id="DejaVuSans-6d" d="M 3328 2828 
Q 3544 3216 3844 3400 
Q 4144 3584 4550 3584 
Q 5097 3584 5394 3201 
Q 5691 2819 5691 2113 
L 5691 0 
L 5113 0 
L 5113 2094 
Q 5113 2597 4934 2840 
Q 4756 3084 4391 3084 
Q 3944 3084 3684 2787 
Q 3425 2491 3425 1978 
L 3425 0 
L 2847 0 
L 2847 2094 
Q 2847 2600 2669 2842 
Q 2491 3084 2119 3084 
Q 1678 3084 1418 2786 
Q 1159 2488 1159 1978 
L 1159 0 
L 581 0 
L 581 3500 
L 1159 3500 
L 1159 2956 
Q 1356 3278 1631 3431 
Q 1906 3584 2284 3584 
Q 2666 3584 2933 3390 
Q 3200 3197 3328 2828 
z
" transform="scale(0.015625)"/>
     </defs>
     <use xlink:href="#DejaVuSans-43"/>
     <use xlink:href="#DejaVuSans-61" x="69.824219"/>
     <use xlink:href="#DejaVuSans-76" x="131.103516"/>
     <use xlink:href="#DejaVuSans-65" x="190.283203"/>
     <use xlink:href="#DejaVuSans-6d" x="251.806641"/>
     <use xlink:href="#DejaVuSans-61" x="349.21875"/>
     <use xlink:href="#DejaVuSans-6e" x="410.498047"/>
    </g>
   </g>
   <g id="legend_1">
    <g id="patch_7">
     <path d="M 61 71.91625 
L 228.907813 71.91625 
Q 230.907813 71.91625 230.907813 69.91625 
L 230.907813 41.56 
Q 230.907813 39.56 228.907813 39.56 
L 61 39.56 
Q 59 39.56 59 41.56 
L 59 69.91625 
Q 59 71.91625 61 71.91625 
z
" style="fill: #ffffff; opacity: 0.8; stroke: #cccccc; stroke-linejoin: miter"/>
    </g>
    <g id="line2d_17">
     <path d="M 63 47.658437 
L 73 47.658437 
L 83 47.658437 
" style="fill: none; stroke: #1f77b4; stroke-width: 1.5; stroke-linecap: square"/>
    </g>
    <g id="text_18">
     <!-- training on caveman graph -->
     <g transform="translate(91 51.158437)scale(0.1 -0.1)">
      <defs>
       <path id="DejaVuSans-67" d="M 2906 1791 
Q 2906 2416 2648 2759 
Q 2391 3103 1925 3103 
Q 1463 3103 1205 2759 
Q 947 2416 947 1791 
Q 947 1169 1205 825 
Q 1463 481 1925 481 
Q 2391 481 2648 825 
Q 2906 1169 2906 1791 
z
M 3481 434 
Q 3481 -459 3084 -895 
Q 2688 -1331 1869 -1331 
Q 1566 -1331 1297 -1286 
Q 1028 -1241 775 -1147 
L 775 -588 
Q 1028 -725 1275 -790 
Q 1522 -856 1778 -856 
Q 2344 -856 2625 -561 
Q 2906 -266 2906 331 
L 2906 616 
Q 2728 306 2450 153 
Q 2172 0 1784 0 
Q 1141 0 747 490 
Q 353 981 353 1791 
Q 353 2603 747 3093 
Q 1141 3584 1784 3584 
Q 2172 3584 2450 3431 
Q 2728 3278 2906 2969 
L 2906 3500 
L 3481 3500 
L 3481 434 
z
" transform="scale(0.015625)"/>
       <path id="DejaVuSans-63" d="M 3122 3366 
L 3122 2828 
Q 2878 2963 2633 3030 
Q 2388 3097 2138 3097 
Q 1578 3097 1268 2742 
Q 959 2388 959 1747 
Q 959 1106 1268 751 
Q 1578 397 2138 397 
Q 2388 397 2633 464 
Q 2878 531 3122 666 
L 3122 134 
Q 2881 22 2623 -34 
Q 2366 -91 2075 -91 
Q 1284 -91 818 406 
Q 353 903 353 1747 
Q 353 2603 823 3093 
Q 1294 3584 2113 3584 
Q 2378 3584 2631 3529 
Q 2884 3475 3122 3366 
z
" transform="scale(0.015625)"/>
       <path id="DejaVuSans-70" d="M 1159 525 
L 1159 -1331 
L 581 -1331 
L 581 3500 
L 1159 3500 
L 1159 2969 
Q 1341 3281 1617 3432 
Q 1894 3584 2278 3584 
Q 2916 3584 3314 3078 
Q 3713 2572 3713 1747 
Q 3713 922 3314 415 
Q 2916 -91 2278 -91 
Q 1894 -91 1617 61 
Q 1341 213 1159 525 
z
M 3116 1747 
Q 3116 2381 2855 2742 
Q 2594 3103 2138 3103 
Q 1681 3103 1420 2742 
Q 1159 2381 1159 1747 
Q 1159 1113 1420 752 
Q 1681 391 2138 391 
Q 2594 391 2855 752 
Q 3116 1113 3116 1747 
z
" transform="scale(0.015625)"/>
       <path id="DejaVuSans-68" d="M 3513 2113 
L 3513 0 
L 2938 0 
L 2938 2094 
Q 2938 2591 2744 2837 
Q 2550 3084 2163 3084 
Q 1697 3084 1428 2787 
Q 1159 2491 1159 1978 
L 1159 0 
L 581 0 
L 581 4863 
L 1159 4863 
L 1159 2956 
Q 1366 3272 1645 3428 
Q 1925 3584 2291 3584 
Q 2894 3584 3203 3211 
Q 3513 2838 3513 2113 
z
" transform="scale(0.015625)"/>
      </defs>
      <use xlink:href="#DejaVuSans-74"/>
      <use xlink:href="#DejaVuSans-72" x="39.208984"/>
      <use xlink:href="#DejaVuSans-61" x="80.322266"/>
      <use xlink:href="#DejaVuSans-69" x="141.601562"/>
      <use xlink:href="#DejaVuSans-6e" x="169.384766"/>
      <use xlink:href="#DejaVuSans-69" x="232.763672"/>
      <use xlink:href="#DejaVuSans-6e" x="260.546875"/>
      <use xlink:href="#DejaVuSans-67" x="323.925781"/>
      <use xlink:href="#DejaVuSans-20" x="387.402344"/>
      <use xlink:href="#DejaVuSans-6f" x="419.189453"/>
      <use xlink:href="#DejaVuSans-6e" x="480.371094"/>
      <use xlink:href="#DejaVuSans-20" x="543.75"/>
      <use xlink:href="#DejaVuSans-63" x="575.537109"/>
      <use xlink:href="#DejaVuSans-61" x="630.517578"/>
      <use xlink:href="#DejaVuSans-76" x="691.796875"/>
      <use xlink:href="#DejaVuSans-65" x="750.976562"/>
      <use xlink:href="#DejaVuSans-6d" x="812.5"/>
      <use xlink:href="#DejaVuSans-61" x="909.912109"/>
      <use xlink:href="#DejaVuSans-6e" x="971.191406"/>
      <use xlink:href="#DejaVuSans-20" x="1034.570312"/>
      <use xlink:href="#DejaVuSans-67" x="1066.357422"/>
      <use xlink:href="#DejaVuSans-72" x="1129.833984"/>
      <use xlink:href="#DejaVuSans-61" x="1170.947266"/>
      <use xlink:href="#DejaVuSans-70" x="1232.226562"/>
      <use xlink:href="#DejaVuSans-68" x="1295.703125"/>
     </g>
    </g>
    <g id="line2d_18">
     <path d="M 63 62.336562 
L 73 62.336562 
L 83 62.336562 
" style="fill: none; stroke-dasharray: 5.55,2.4; stroke-dashoffset: 0; stroke: #ff7f0e; stroke-width: 1.5"/>
    </g>
    <g id="text_19">
     <!-- transfer learning -->
     <g transform="translate(91 65.836562)scale(0.1 -0.1)">
      <defs>
       <path id="DejaVuSans-66" d="M 2375 4863 
L 2375 4384 
L 1825 4384 
Q 1516 4384 1395 4259 
Q 1275 4134 1275 3809 
L 1275 3500 
L 2222 3500 
L 2222 3053 
L 1275 3053 
L 1275 0 
L 697 0 
L 697 3053 
L 147 3053 
L 147 3500 
L 697 3500 
L 697 3744 
Q 697 4328 969 4595 
Q 1241 4863 1831 4863 
L 2375 4863 
z
" transform="scale(0.015625)"/>
       <path id="DejaVuSans-6c" d="M 603 4863 
L 1178 4863 
L 1178 0 
L 603 0 
L 603 4863 
z
" transform="scale(0.015625)"/>
      </defs>
      <use xlink:href="#DejaVuSans-74"/>
      <use xlink:href="#DejaVuSans-72" x="39.208984"/>
      <use xlink:href="#DejaVuSans-61" x="80.322266"/>
      <use xlink:href="#DejaVuSans-6e" x="141.601562"/>
      <use xlink:href="#DejaVuSans-73" x="204.980469"/>
      <use xlink:href="#DejaVuSans-66" x="257.080078"/>
      <use xlink:href="#DejaVuSans-65" x="292.285156"/>
      <use xlink:href="#DejaVuSans-72" x="353.808594"/>
      <use xlink:href="#DejaVuSans-20" x="394.921875"/>
      <use xlink:href="#DejaVuSans-6c" x="426.708984"/>
      <use xlink:href="#DejaVuSans-65" x="454.492188"/>
      <use xlink:href="#DejaVuSans-61" x="516.015625"/>
      <use xlink:href="#DejaVuSans-72" x="577.294922"/>
      <use xlink:href="#DejaVuSans-6e" x="616.658203"/>
      <use xlink:href="#DejaVuSans-69" x="680.037109"/>
      <use xlink:href="#DejaVuSans-6e" x="707.820312"/>
      <use xlink:href="#DejaVuSans-67" x="771.199219"/>
     </g>
    </g>
   </g>
  </g>
 </g>
 <defs>
  <clipPath id="pb738886fc7">
   <rect x="54" y="34.56" width="334.8" height="217.44"/>
  </clipPath>
 </defs>
</svg>
