<?xml version="1.0" encoding="utf-8" standalone="no"?>
<!DOCTYPE svg PUBLIC "-//W3C//DTD SVG 1.1//EN"
  "http://www.w3.org/Graphics/SVG/1.1/DTD/svg11.dtd">
<svg xmlns:xlink="http://www.w3.org/1999/xlink" width="432pt" height="288pt" viewBox="0 0 432 288" xmlns="http://www.w3.org/2000/svg" version="1.1">
 <metadata>
  <rdf:RDF xmlns:dc="http://purl.org/dc/elements/1.1/" xmlns:cc="http://creativecommons.org/ns#" xmlns:rdf="http://www.w3.org/1999/02/22-rdf-syntax-ns#">
   <cc:Work>
    <dc:type rdf:resource="http://purl.org/dc/dcmitype/StillImage"/>
    <dc:date>2023-06-27T09:37:11.484974</dc:date>
    <dc:format>image/svg+xml</dc:format>
    <dc:creator>
     <cc:Agent>
      <dc:title>Matplotlib v3.5.2, https://matplotlib.org/</dc:title>
     </cc:Agent>
    </dc:creator>
   </cc:Work>
  </rdf:RDF>
 </metadata>
 <defs>
  <style type="text/css">*{stroke-linejoin: round; stroke-linecap: butt}</style>
 </defs>
 <g id="figure_1">
  <g id="patch_1">
   <path d="M 0 288 
L 432 288 
L 432 0 
L 0 0 
L 0 288 
z
" style="fill: none"/>
  </g>
  <g id="axes_1">
   <g id="patch_2">
    <path d="M 54 252 
L 388.8 252 
L 388.8 34.56 
L 54 34.56 
z
" style="fill: #ffffff"/>
   </g>
   <g id="PolyCollection_1">
    <path d="M 69.218182 186.916102 
L 69.218182 186.749601 
L 70.747647 185.613322 
L 72.277113 185.254215 
L 73.806578 185.040057 
L 75.336044 184.006111 
L 76.865509 183.733911 
L 78.394975 183.049114 
L 79.92444 182.570093 
L 81.453906 181.309926 
L 82.983371 181.084945 
L 84.512837 181.294296 
L 86.042302 181.351704 
L 87.571768 180.739906 
L 89.101233 180.267798 
L 90.630699 180.112302 
L 92.160164 180.374547 
L 93.68963 179.134624 
L 95.219095 179.600025 
L 96.748561 180.092196 
L 98.278026 180.029687 
L 99.807492 178.991222 
L 101.336958 179.366337 
L 102.866423 179.710279 
L 104.395889 179.250518 
L 105.925354 178.882229 
L 107.45482 179.711544 
L 108.984285 179.839028 
L 110.513751 179.169047 
L 112.043216 179.694992 
L 113.572682 180.303487 
L 115.102147 179.623108 
L 116.631613 179.489077 
L 118.161078 178.881134 
L 119.690544 178.671275 
L 121.220009 178.987214 
L 122.749475 179.19978 
L 124.27894 178.441373 
L 125.808406 178.03059 
L 127.337871 178.573541 
L 128.867337 177.93979 
L 130.396802 178.091844 
L 131.926268 178.529635 
L 133.455733 177.337242 
L 134.985199 178.038061 
L 136.514664 177.581208 
L 138.04413 177.504408 
L 139.573595 177.880478 
L 141.103061 177.66479 
L 142.632526 177.738846 
L 144.161992 177.377413 
L 145.691457 177.941441 
L 147.220923 177.201913 
L 148.750388 177.171921 
L 150.279854 176.856041 
L 151.809319 177.165335 
L 153.338785 176.568202 
L 154.86825 176.352434 
L 156.397716 176.234658 
L 157.927181 176.989004 
L 159.456647 175.486168 
L 160.986112 176.559072 
L 162.515578 176.665052 
L 164.045043 176.679321 
L 165.574509 176.779175 
L 167.103974 176.609552 
L 168.63344 175.618925 
L 170.162905 176.217763 
L 171.692371 175.526611 
L 173.221836 175.764234 
L 174.751302 175.983888 
L 176.280767 175.866643 
L 177.810233 175.106363 
L 179.339698 175.743016 
L 180.869164 176.399397 
L 182.39863 176.595561 
L 183.928095 175.979265 
L 185.457561 176.000135 
L 186.987026 175.894982 
L 188.516492 175.455689 
L 190.045957 176.996749 
L 191.575423 175.983089 
L 193.104888 175.306863 
L 194.634354 176.210038 
L 196.163819 175.629235 
L 197.693285 176.543263 
L 199.22275 176.247475 
L 200.752216 175.742616 
L 202.281681 176.372826 
L 203.811147 175.423284 
L 205.340612 175.719448 
L 206.870078 175.944285 
L 208.399543 175.598304 
L 209.929009 175.022042 
L 211.458474 175.325716 
L 212.98794 175.58323 
L 214.517405 175.425054 
L 216.046871 175.848234 
L 217.576336 174.435416 
L 219.105802 175.152778 
L 220.635267 175.030124 
L 222.164733 174.682994 
L 223.694198 175.483116 
L 225.223664 175.353031 
L 226.753129 175.33895 
L 228.282595 176.042231 
L 229.81206 175.018168 
L 231.341526 175.563499 
L 232.870991 174.999714 
L 234.400457 176.102139 
L 235.929922 176.002498 
L 237.459388 176.032149 
L 238.988853 175.548387 
L 240.518319 175.295919 
L 242.047784 176.309036 
L 243.57725 176.257989 
L 245.106715 175.510596 
L 246.636181 175.320611 
L 248.165646 176.265508 
L 249.695112 175.469272 
L 251.224577 175.332434 
L 252.754043 175.643866 
L 254.283508 175.378069 
L 255.812974 174.833671 
L 257.342439 174.672244 
L 258.871905 174.889108 
L 260.40137 174.505741 
L 261.930836 174.757079 
L 263.460302 174.85591 
L 264.989767 174.364365 
L 266.519233 175.494215 
L 268.048698 175.100856 
L 269.578164 175.569249 
L 271.107629 175.121393 
L 272.637095 176.057177 
L 274.16656 175.249849 
L 275.696026 175.06546 
L 277.225491 175.405416 
L 278.754957 175.111402 
L 280.284422 175.181721 
L 281.813888 174.371426 
L 283.343353 174.960357 
L 284.872819 175.286696 
L 286.402284 175.105773 
L 287.93175 175.432206 
L 289.461215 175.392613 
L 290.990681 174.490907 
L 292.520146 174.845386 
L 294.049612 175.570229 
L 295.579077 176.436078 
L 297.108543 176.086603 
L 298.638008 176.487391 
L 300.167474 176.173049 
L 301.696939 176.310067 
L 303.226405 176.542088 
L 304.75587 176.820959 
L 306.285336 176.197832 
L 307.814801 176.356217 
L 309.344267 175.690149 
L 310.873732 176.137449 
L 312.403198 176.330299 
L 313.932663 176.353567 
L 315.462129 175.851218 
L 316.991594 176.360201 
L 318.52106 176.313428 
L 320.050525 176.71073 
L 321.579991 175.830801 
L 323.109456 175.79163 
L 324.638922 175.909669 
L 326.168387 175.597632 
L 327.697853 175.811804 
L 329.227318 175.436127 
L 330.756784 176.090004 
L 332.286249 176.914647 
L 333.815715 176.134303 
L 335.34518 175.918991 
L 336.874646 175.817194 
L 338.404111 176.389052 
L 339.933577 175.744998 
L 341.463042 175.952238 
L 342.992508 176.683713 
L 344.521974 175.902147 
L 346.051439 175.474126 
L 347.580905 175.783268 
L 349.11037 175.163267 
L 350.639836 176.303342 
L 352.169301 176.460333 
L 353.698767 175.995955 
L 355.228232 176.365415 
L 356.757698 176.104842 
L 358.287163 175.987959 
L 359.816629 175.694992 
L 361.346094 175.533511 
L 362.87556 176.152142 
L 364.405025 176.191111 
L 365.934491 175.828771 
L 367.463956 175.552646 
L 368.993422 175.372505 
L 370.522887 175.604034 
L 372.052353 176.184304 
L 373.581818 175.008691 
L 373.581818 178.086359 
L 373.581818 178.086359 
L 372.052353 178.178357 
L 370.522887 178.073119 
L 368.993422 178.180812 
L 367.463956 178.883344 
L 365.934491 178.801524 
L 364.405025 178.805531 
L 362.87556 177.832018 
L 361.346094 179.21963 
L 359.816629 178.698837 
L 358.287163 178.493318 
L 356.757698 178.697863 
L 355.228232 177.795036 
L 353.698767 178.541621 
L 352.169301 178.748885 
L 350.639836 178.492613 
L 349.11037 178.60872 
L 347.580905 178.769751 
L 346.051439 178.282817 
L 344.521974 178.279586 
L 342.992508 177.83473 
L 341.463042 178.395656 
L 339.933577 178.375612 
L 338.404111 179.012162 
L 336.874646 178.737971 
L 335.34518 178.564176 
L 333.815715 178.606273 
L 332.286249 177.753809 
L 330.756784 178.535442 
L 329.227318 179.313622 
L 327.697853 177.559118 
L 326.168387 177.766001 
L 324.638922 177.995036 
L 323.109456 177.869775 
L 321.579991 178.167298 
L 320.050525 178.138691 
L 318.52106 177.648335 
L 316.991594 178.500046 
L 315.462129 178.235943 
L 313.932663 178.687774 
L 312.403198 178.463397 
L 310.873732 178.311031 
L 309.344267 178.581806 
L 307.814801 177.936988 
L 306.285336 177.969137 
L 304.75587 178.11608 
L 303.226405 178.498979 
L 301.696939 178.104365 
L 300.167474 178.483881 
L 298.638008 178.65378 
L 297.108543 178.513402 
L 295.579077 178.336388 
L 294.049612 178.116768 
L 292.520146 176.805993 
L 290.990681 177.893638 
L 289.461215 177.486723 
L 287.93175 176.818611 
L 286.402284 176.929544 
L 284.872819 177.265925 
L 283.343353 178.034216 
L 281.813888 178.03183 
L 280.284422 178.071307 
L 278.754957 178.034405 
L 277.225491 178.437349 
L 275.696026 178.34129 
L 274.16656 177.966426 
L 272.637095 178.179603 
L 271.107629 177.935435 
L 269.578164 178.286903 
L 268.048698 178.343223 
L 266.519233 178.325395 
L 264.989767 178.082174 
L 263.460302 177.552941 
L 261.930836 177.732438 
L 260.40137 178.207924 
L 258.871905 176.800206 
L 257.342439 177.858832 
L 255.812974 177.301677 
L 254.283508 178.304177 
L 252.754043 178.343437 
L 251.224577 178.960044 
L 249.695112 178.125192 
L 248.165646 178.345869 
L 246.636181 177.555964 
L 245.106715 178.119533 
L 243.57725 178.265453 
L 242.047784 178.411898 
L 240.518319 178.795815 
L 238.988853 178.251167 
L 237.459388 178.321681 
L 235.929922 178.138317 
L 234.400457 178.256701 
L 232.870991 178.513152 
L 231.341526 178.57696 
L 229.81206 178.689097 
L 228.282595 178.18012 
L 226.753129 178.250096 
L 225.223664 178.606343 
L 223.694198 178.569966 
L 222.164733 178.648291 
L 220.635267 178.659486 
L 219.105802 179.028679 
L 217.576336 178.390289 
L 216.046871 179.604856 
L 214.517405 179.631741 
L 212.98794 178.078476 
L 211.458474 179.150473 
L 209.929009 177.258236 
L 208.399543 178.122096 
L 206.870078 177.303231 
L 205.340612 177.566778 
L 203.811147 177.516769 
L 202.281681 177.853886 
L 200.752216 178.020881 
L 199.22275 177.700973 
L 197.693285 177.927835 
L 196.163819 177.758181 
L 194.634354 177.489369 
L 193.104888 177.697066 
L 191.575423 178.049235 
L 190.045957 178.205816 
L 188.516492 177.991795 
L 186.987026 178.324694 
L 185.457561 178.208181 
L 183.928095 178.451923 
L 182.39863 178.400563 
L 180.869164 178.413487 
L 179.339698 178.523904 
L 177.810233 178.927854 
L 176.280767 178.854505 
L 174.751302 178.016683 
L 173.221836 178.376776 
L 171.692371 178.641694 
L 170.162905 178.092137 
L 168.63344 179.037218 
L 167.103974 178.143457 
L 165.574509 179.081856 
L 164.045043 178.538577 
L 162.515578 178.964546 
L 160.986112 178.691436 
L 159.456647 178.936274 
L 157.927181 178.641375 
L 156.397716 178.710848 
L 154.86825 179.295219 
L 153.338785 178.898656 
L 151.809319 178.417426 
L 150.279854 179.05403 
L 148.750388 178.814832 
L 147.220923 178.895565 
L 145.691457 179.31581 
L 144.161992 179.001913 
L 142.632526 179.432136 
L 141.103061 179.354509 
L 139.573595 179.105323 
L 138.04413 179.299579 
L 136.514664 179.315874 
L 134.985199 179.243665 
L 133.455733 178.868899 
L 131.926268 179.0092 
L 130.396802 179.755852 
L 128.867337 179.504657 
L 127.337871 179.542134 
L 125.808406 180.340278 
L 124.27894 179.400082 
L 122.749475 179.839536 
L 121.220009 179.349893 
L 119.690544 179.60494 
L 118.161078 179.614043 
L 116.631613 180.185638 
L 115.102147 180.28201 
L 113.572682 180.90624 
L 112.043216 180.846214 
L 110.513751 181.071766 
L 108.984285 180.823814 
L 107.45482 180.889591 
L 105.925354 181.519503 
L 104.395889 181.104429 
L 102.866423 180.306267 
L 101.336958 180.730124 
L 99.807492 180.420471 
L 98.278026 181.190134 
L 96.748561 181.02401 
L 95.219095 181.239425 
L 93.68963 181.316355 
L 92.160164 181.105439 
L 90.630699 181.71274 
L 89.101233 181.249431 
L 87.571768 181.614465 
L 86.042302 182.179274 
L 84.512837 182.694979 
L 82.983371 182.770901 
L 81.453906 183.385839 
L 79.92444 183.723434 
L 78.394975 183.657071 
L 76.865509 184.044918 
L 75.336044 184.702427 
L 73.806578 185.269355 
L 72.277113 185.858203 
L 70.747647 186.208474 
L 69.218182 186.916102 
z
" clip-path="url(#p2f528b7fac)" style="fill: #1f77b4; fill-opacity: 0.5"/>
   </g>
   <g id="PolyCollection_2">
    <path d="M 69.218182 185.621966 
L 69.218182 185.304754 
L 70.747647 185.304754 
L 72.277113 185.304754 
L 73.806578 185.304754 
L 75.336044 185.304754 
L 76.865509 185.304754 
L 78.394975 185.304754 
L 79.92444 185.304754 
L 81.453906 185.304754 
L 82.983371 185.304754 
L 84.512837 185.304754 
L 86.042302 185.304754 
L 87.571768 185.304754 
L 89.101233 185.304754 
L 90.630699 185.304754 
L 92.160164 185.304754 
L 93.68963 185.304754 
L 95.219095 185.304754 
L 96.748561 185.304754 
L 98.278026 185.304754 
L 99.807492 185.304754 
L 101.336958 185.304754 
L 102.866423 185.304754 
L 104.395889 185.304754 
L 105.925354 185.304754 
L 107.45482 185.304754 
L 108.984285 185.304754 
L 110.513751 185.304754 
L 112.043216 185.304754 
L 113.572682 185.304754 
L 115.102147 185.304754 
L 116.631613 185.304754 
L 118.161078 185.304754 
L 119.690544 185.304754 
L 121.220009 185.304754 
L 122.749475 185.304754 
L 124.27894 185.304754 
L 125.808406 185.304754 
L 127.337871 185.304754 
L 128.867337 185.304754 
L 130.396802 185.304754 
L 131.926268 185.304754 
L 133.455733 185.304754 
L 134.985199 185.304754 
L 136.514664 185.304754 
L 138.04413 185.304754 
L 139.573595 185.304754 
L 141.103061 185.304754 
L 142.632526 185.304754 
L 144.161992 185.304754 
L 145.691457 185.304754 
L 147.220923 185.304754 
L 148.750388 185.304754 
L 150.279854 185.304754 
L 151.809319 185.304754 
L 153.338785 185.304754 
L 154.86825 185.304754 
L 156.397716 185.304754 
L 157.927181 185.304754 
L 159.456647 185.304754 
L 160.986112 185.304754 
L 162.515578 185.304754 
L 164.045043 185.304754 
L 165.574509 185.304754 
L 167.103974 185.304754 
L 168.63344 185.304754 
L 170.162905 185.304754 
L 171.692371 185.304754 
L 173.221836 185.304754 
L 174.751302 185.304754 
L 176.280767 185.304754 
L 177.810233 185.304754 
L 179.339698 185.304754 
L 180.869164 185.304754 
L 182.39863 185.304754 
L 183.928095 185.304754 
L 185.457561 185.304754 
L 186.987026 185.304754 
L 188.516492 185.304754 
L 190.045957 185.304754 
L 191.575423 185.304754 
L 193.104888 185.304754 
L 194.634354 185.304754 
L 196.163819 185.304754 
L 197.693285 185.304754 
L 199.22275 185.304754 
L 200.752216 185.304754 
L 202.281681 185.304754 
L 203.811147 185.304754 
L 205.340612 185.304754 
L 206.870078 185.304754 
L 208.399543 185.304754 
L 209.929009 185.304754 
L 211.458474 185.304754 
L 212.98794 185.304754 
L 214.517405 185.304754 
L 216.046871 185.304754 
L 217.576336 185.304754 
L 219.105802 185.304754 
L 220.635267 185.304754 
L 222.164733 185.304754 
L 223.694198 185.304754 
L 225.223664 185.304754 
L 226.753129 185.304754 
L 228.282595 185.304754 
L 229.81206 185.304754 
L 231.341526 185.304754 
L 232.870991 185.304754 
L 234.400457 185.304754 
L 235.929922 185.304754 
L 237.459388 185.304754 
L 238.988853 185.304754 
L 240.518319 185.304754 
L 242.047784 185.304754 
L 243.57725 185.304754 
L 245.106715 185.304754 
L 246.636181 185.304754 
L 248.165646 185.304754 
L 249.695112 185.304754 
L 251.224577 185.304754 
L 252.754043 185.304754 
L 254.283508 185.304754 
L 255.812974 185.304754 
L 257.342439 185.304754 
L 258.871905 185.304754 
L 260.40137 185.304754 
L 261.930836 185.304754 
L 263.460302 185.304754 
L 264.989767 185.304754 
L 266.519233 185.304754 
L 268.048698 185.304754 
L 269.578164 185.304754 
L 271.107629 185.304754 
L 272.637095 185.304754 
L 274.16656 185.304754 
L 275.696026 185.304754 
L 277.225491 185.304754 
L 278.754957 185.304754 
L 280.284422 185.304754 
L 281.813888 185.304754 
L 283.343353 185.304754 
L 284.872819 185.304754 
L 286.402284 185.304754 
L 287.93175 185.304754 
L 289.461215 185.304754 
L 290.990681 185.304754 
L 292.520146 185.304754 
L 294.049612 185.304754 
L 295.579077 185.304754 
L 297.108543 185.304754 
L 298.638008 185.304754 
L 300.167474 185.304754 
L 301.696939 185.304754 
L 303.226405 185.304754 
L 304.75587 185.304754 
L 306.285336 185.304754 
L 307.814801 185.304754 
L 309.344267 185.304754 
L 310.873732 185.304754 
L 312.403198 185.304754 
L 313.932663 185.304754 
L 315.462129 185.304754 
L 316.991594 185.304754 
L 318.52106 185.304754 
L 320.050525 185.304754 
L 321.579991 185.304754 
L 323.109456 185.304754 
L 324.638922 185.304754 
L 326.168387 185.304754 
L 327.697853 185.304754 
L 329.227318 185.304754 
L 330.756784 185.304754 
L 332.286249 185.304754 
L 333.815715 185.304754 
L 335.34518 185.304754 
L 336.874646 185.304754 
L 338.404111 185.304754 
L 339.933577 185.304754 
L 341.463042 185.304754 
L 342.992508 185.304754 
L 344.521974 185.304754 
L 346.051439 185.304754 
L 347.580905 185.304754 
L 349.11037 185.304754 
L 350.639836 185.304754 
L 352.169301 185.304754 
L 353.698767 185.304754 
L 355.228232 185.304754 
L 356.757698 185.304754 
L 358.287163 185.304754 
L 359.816629 185.304754 
L 361.346094 185.304754 
L 362.87556 185.304754 
L 364.405025 185.304754 
L 365.934491 185.304754 
L 367.463956 185.304754 
L 368.993422 185.304754 
L 370.522887 185.304754 
L 372.052353 185.304754 
L 373.581818 185.304754 
L 373.581818 185.621966 
L 373.581818 185.621966 
L 372.052353 185.621966 
L 370.522887 185.621966 
L 368.993422 185.621966 
L 367.463956 185.621966 
L 365.934491 185.621966 
L 364.405025 185.621966 
L 362.87556 185.621966 
L 361.346094 185.621966 
L 359.816629 185.621966 
L 358.287163 185.621966 
L 356.757698 185.621966 
L 355.228232 185.621966 
L 353.698767 185.621966 
L 352.169301 185.621966 
L 350.639836 185.621966 
L 349.11037 185.621966 
L 347.580905 185.621966 
L 346.051439 185.621966 
L 344.521974 185.621966 
L 342.992508 185.621966 
L 341.463042 185.621966 
L 339.933577 185.621966 
L 338.404111 185.621966 
L 336.874646 185.621966 
L 335.34518 185.621966 
L 333.815715 185.621966 
L 332.286249 185.621966 
L 330.756784 185.621966 
L 329.227318 185.621966 
L 327.697853 185.621966 
L 326.168387 185.621966 
L 324.638922 185.621966 
L 323.109456 185.621966 
L 321.579991 185.621966 
L 320.050525 185.621966 
L 318.52106 185.621966 
L 316.991594 185.621966 
L 315.462129 185.621966 
L 313.932663 185.621966 
L 312.403198 185.621966 
L 310.873732 185.621966 
L 309.344267 185.621966 
L 307.814801 185.621966 
L 306.285336 185.621966 
L 304.75587 185.621966 
L 303.226405 185.621966 
L 301.696939 185.621966 
L 300.167474 185.621966 
L 298.638008 185.621966 
L 297.108543 185.621966 
L 295.579077 185.621966 
L 294.049612 185.621966 
L 292.520146 185.621966 
L 290.990681 185.621966 
L 289.461215 185.621966 
L 287.93175 185.621966 
L 286.402284 185.621966 
L 284.872819 185.621966 
L 283.343353 185.621966 
L 281.813888 185.621966 
L 280.284422 185.621966 
L 278.754957 185.621966 
L 277.225491 185.621966 
L 275.696026 185.621966 
L 274.16656 185.621966 
L 272.637095 185.621966 
L 271.107629 185.621966 
L 269.578164 185.621966 
L 268.048698 185.621966 
L 266.519233 185.621966 
L 264.989767 185.621966 
L 263.460302 185.621966 
L 261.930836 185.621966 
L 260.40137 185.621966 
L 258.871905 185.621966 
L 257.342439 185.621966 
L 255.812974 185.621966 
L 254.283508 185.621966 
L 252.754043 185.621966 
L 251.224577 185.621966 
L 249.695112 185.621966 
L 248.165646 185.621966 
L 246.636181 185.621966 
L 245.106715 185.621966 
L 243.57725 185.621966 
L 242.047784 185.621966 
L 240.518319 185.621966 
L 238.988853 185.621966 
L 237.459388 185.621966 
L 235.929922 185.621966 
L 234.400457 185.621966 
L 232.870991 185.621966 
L 231.341526 185.621966 
L 229.81206 185.621966 
L 228.282595 185.621966 
L 226.753129 185.621966 
L 225.223664 185.621966 
L 223.694198 185.621966 
L 222.164733 185.621966 
L 220.635267 185.621966 
L 219.105802 185.621966 
L 217.576336 185.621966 
L 216.046871 185.621966 
L 214.517405 185.621966 
L 212.98794 185.621966 
L 211.458474 185.621966 
L 209.929009 185.621966 
L 208.399543 185.621966 
L 206.870078 185.621966 
L 205.340612 185.621966 
L 203.811147 185.621966 
L 202.281681 185.621966 
L 200.752216 185.621966 
L 199.22275 185.621966 
L 197.693285 185.621966 
L 196.163819 185.621966 
L 194.634354 185.621966 
L 193.104888 185.621966 
L 191.575423 185.621966 
L 190.045957 185.621966 
L 188.516492 185.621966 
L 186.987026 185.621966 
L 185.457561 185.621966 
L 183.928095 185.621966 
L 182.39863 185.621966 
L 180.869164 185.621966 
L 179.339698 185.621966 
L 177.810233 185.621966 
L 176.280767 185.621966 
L 174.751302 185.621966 
L 173.221836 185.621966 
L 171.692371 185.621966 
L 170.162905 185.621966 
L 168.63344 185.621966 
L 167.103974 185.621966 
L 165.574509 185.621966 
L 164.045043 185.621966 
L 162.515578 185.621966 
L 160.986112 185.621966 
L 159.456647 185.621966 
L 157.927181 185.621966 
L 156.397716 185.621966 
L 154.86825 185.621966 
L 153.338785 185.621966 
L 151.809319 185.621966 
L 150.279854 185.621966 
L 148.750388 185.621966 
L 147.220923 185.621966 
L 145.691457 185.621966 
L 144.161992 185.621966 
L 142.632526 185.621966 
L 141.103061 185.621966 
L 139.573595 185.621966 
L 138.04413 185.621966 
L 136.514664 185.621966 
L 134.985199 185.621966 
L 133.455733 185.621966 
L 131.926268 185.621966 
L 130.396802 185.621966 
L 128.867337 185.621966 
L 127.337871 185.621966 
L 125.808406 185.621966 
L 124.27894 185.621966 
L 122.749475 185.621966 
L 121.220009 185.621966 
L 119.690544 185.621966 
L 118.161078 185.621966 
L 116.631613 185.621966 
L 115.102147 185.621966 
L 113.572682 185.621966 
L 112.043216 185.621966 
L 110.513751 185.621966 
L 108.984285 185.621966 
L 107.45482 185.621966 
L 105.925354 185.621966 
L 104.395889 185.621966 
L 102.866423 185.621966 
L 101.336958 185.621966 
L 99.807492 185.621966 
L 98.278026 185.621966 
L 96.748561 185.621966 
L 95.219095 185.621966 
L 93.68963 185.621966 
L 92.160164 185.621966 
L 90.630699 185.621966 
L 89.101233 185.621966 
L 87.571768 185.621966 
L 86.042302 185.621966 
L 84.512837 185.621966 
L 82.983371 185.621966 
L 81.453906 185.621966 
L 79.92444 185.621966 
L 78.394975 185.621966 
L 76.865509 185.621966 
L 75.336044 185.621966 
L 73.806578 185.621966 
L 72.277113 185.621966 
L 70.747647 185.621966 
L 69.218182 185.621966 
z
" clip-path="url(#p2f528b7fac)" style="fill: #ff7f0e; fill-opacity: 0.5"/>
   </g>
   <g id="matplotlib.axis_1">
    <g id="xtick_1">
     <g id="line2d_1">
      <defs>
       <path id="mfea48eaa43" d="M 0 0 
L 0 3.5 
" style="stroke: #000000; stroke-width: 0.8"/>
      </defs>
      <g>
       <use xlink:href="#mfea48eaa43" x="69.218182" y="252" style="stroke: #000000; stroke-width: 0.8"/>
      </g>
     </g>
     <g id="text_1">
      <!-- 0 -->
      <g transform="translate(66.036932 266.598437)scale(0.1 -0.1)">
       <defs>
        <path id="DejaVuSans-30" d="M 2034 4250 
Q 1547 4250 1301 3770 
Q 1056 3291 1056 2328 
Q 1056 1369 1301 889 
Q 1547 409 2034 409 
Q 2525 409 2770 889 
Q 3016 1369 3016 2328 
Q 3016 3291 2770 3770 
Q 2525 4250 2034 4250 
z
M 2034 4750 
Q 2819 4750 3233 4129 
Q 3647 3509 3647 2328 
Q 3647 1150 3233 529 
Q 2819 -91 2034 -91 
Q 1250 -91 836 529 
Q 422 1150 422 2328 
Q 422 3509 836 4129 
Q 1250 4750 2034 4750 
z
" transform="scale(0.015625)"/>
       </defs>
       <use xlink:href="#DejaVuSans-30"/>
      </g>
     </g>
    </g>
    <g id="xtick_2">
     <g id="line2d_2">
      <g>
       <use xlink:href="#mfea48eaa43" x="107.45482" y="252" style="stroke: #000000; stroke-width: 0.8"/>
      </g>
     </g>
     <g id="text_2">
      <!-- 25 -->
      <g transform="translate(101.09232 266.598437)scale(0.1 -0.1)">
       <defs>
        <path id="DejaVuSans-32" d="M 1228 531 
L 3431 531 
L 3431 0 
L 469 0 
L 469 531 
Q 828 903 1448 1529 
Q 2069 2156 2228 2338 
Q 2531 2678 2651 2914 
Q 2772 3150 2772 3378 
Q 2772 3750 2511 3984 
Q 2250 4219 1831 4219 
Q 1534 4219 1204 4116 
Q 875 4013 500 3803 
L 500 4441 
Q 881 4594 1212 4672 
Q 1544 4750 1819 4750 
Q 2544 4750 2975 4387 
Q 3406 4025 3406 3419 
Q 3406 3131 3298 2873 
Q 3191 2616 2906 2266 
Q 2828 2175 2409 1742 
Q 1991 1309 1228 531 
z
" transform="scale(0.015625)"/>
        <path id="DejaVuSans-35" d="M 691 4666 
L 3169 4666 
L 3169 4134 
L 1269 4134 
L 1269 2991 
Q 1406 3038 1543 3061 
Q 1681 3084 1819 3084 
Q 2600 3084 3056 2656 
Q 3513 2228 3513 1497 
Q 3513 744 3044 326 
Q 2575 -91 1722 -91 
Q 1428 -91 1123 -41 
Q 819 9 494 109 
L 494 744 
Q 775 591 1075 516 
Q 1375 441 1709 441 
Q 2250 441 2565 725 
Q 2881 1009 2881 1497 
Q 2881 1984 2565 2268 
Q 2250 2553 1709 2553 
Q 1456 2553 1204 2497 
Q 953 2441 691 2322 
L 691 4666 
z
" transform="scale(0.015625)"/>
       </defs>
       <use xlink:href="#DejaVuSans-32"/>
       <use xlink:href="#DejaVuSans-35" x="63.623047"/>
      </g>
     </g>
    </g>
    <g id="xtick_3">
     <g id="line2d_3">
      <g>
       <use xlink:href="#mfea48eaa43" x="145.691457" y="252" style="stroke: #000000; stroke-width: 0.8"/>
      </g>
     </g>
     <g id="text_3">
      <!-- 50 -->
      <g transform="translate(139.328957 266.598437)scale(0.1 -0.1)">
       <use xlink:href="#DejaVuSans-35"/>
       <use xlink:href="#DejaVuSans-30" x="63.623047"/>
      </g>
     </g>
    </g>
    <g id="xtick_4">
     <g id="line2d_4">
      <g>
       <use xlink:href="#mfea48eaa43" x="183.928095" y="252" style="stroke: #000000; stroke-width: 0.8"/>
      </g>
     </g>
     <g id="text_4">
      <!-- 75 -->
      <g transform="translate(177.565595 266.598437)scale(0.1 -0.1)">
       <defs>
        <path id="DejaVuSans-37" d="M 525 4666 
L 3525 4666 
L 3525 4397 
L 1831 0 
L 1172 0 
L 2766 4134 
L 525 4134 
L 525 4666 
z
" transform="scale(0.015625)"/>
       </defs>
       <use xlink:href="#DejaVuSans-37"/>
       <use xlink:href="#DejaVuSans-35" x="63.623047"/>
      </g>
     </g>
    </g>
    <g id="xtick_5">
     <g id="line2d_5">
      <g>
       <use xlink:href="#mfea48eaa43" x="222.164733" y="252" style="stroke: #000000; stroke-width: 0.8"/>
      </g>
     </g>
     <g id="text_5">
      <!-- 100 -->
      <g transform="translate(212.620983 266.598437)scale(0.1 -0.1)">
       <defs>
        <path id="DejaVuSans-31" d="M 794 531 
L 1825 531 
L 1825 4091 
L 703 3866 
L 703 4441 
L 1819 4666 
L 2450 4666 
L 2450 531 
L 3481 531 
L 3481 0 
L 794 0 
L 794 531 
z
" transform="scale(0.015625)"/>
       </defs>
       <use xlink:href="#DejaVuSans-31"/>
       <use xlink:href="#DejaVuSans-30" x="63.623047"/>
       <use xlink:href="#DejaVuSans-30" x="127.246094"/>
      </g>
     </g>
    </g>
    <g id="xtick_6">
     <g id="line2d_6">
      <g>
       <use xlink:href="#mfea48eaa43" x="260.40137" y="252" style="stroke: #000000; stroke-width: 0.8"/>
      </g>
     </g>
     <g id="text_6">
      <!-- 125 -->
      <g transform="translate(250.85762 266.598437)scale(0.1 -0.1)">
       <use xlink:href="#DejaVuSans-31"/>
       <use xlink:href="#DejaVuSans-32" x="63.623047"/>
       <use xlink:href="#DejaVuSans-35" x="127.246094"/>
      </g>
     </g>
    </g>
    <g id="xtick_7">
     <g id="line2d_7">
      <g>
       <use xlink:href="#mfea48eaa43" x="298.638008" y="252" style="stroke: #000000; stroke-width: 0.8"/>
      </g>
     </g>
     <g id="text_7">
      <!-- 150 -->
      <g transform="translate(289.094258 266.598437)scale(0.1 -0.1)">
       <use xlink:href="#DejaVuSans-31"/>
       <use xlink:href="#DejaVuSans-35" x="63.623047"/>
       <use xlink:href="#DejaVuSans-30" x="127.246094"/>
      </g>
     </g>
    </g>
    <g id="xtick_8">
     <g id="line2d_8">
      <g>
       <use xlink:href="#mfea48eaa43" x="336.874646" y="252" style="stroke: #000000; stroke-width: 0.8"/>
      </g>
     </g>
     <g id="text_8">
      <!-- 175 -->
      <g transform="translate(327.330896 266.598437)scale(0.1 -0.1)">
       <use xlink:href="#DejaVuSans-31"/>
       <use xlink:href="#DejaVuSans-37" x="63.623047"/>
       <use xlink:href="#DejaVuSans-35" x="127.246094"/>
      </g>
     </g>
    </g>
    <g id="xtick_9">
     <g id="line2d_9">
      <g>
       <use xlink:href="#mfea48eaa43" x="375.111284" y="252" style="stroke: #000000; stroke-width: 0.8"/>
      </g>
     </g>
     <g id="text_9">
      <!-- 200 -->
      <g transform="translate(365.567534 266.598437)scale(0.1 -0.1)">
       <use xlink:href="#DejaVuSans-32"/>
       <use xlink:href="#DejaVuSans-30" x="63.623047"/>
       <use xlink:href="#DejaVuSans-30" x="127.246094"/>
      </g>
     </g>
    </g>
    <g id="text_10">
     <!-- Generation -->
     <g transform="translate(193.507031 280.276563)scale(0.1 -0.1)">
      <defs>
       <path id="DejaVuSans-47" d="M 3809 666 
L 3809 1919 
L 2778 1919 
L 2778 2438 
L 4434 2438 
L 4434 434 
Q 4069 175 3628 42 
Q 3188 -91 2688 -91 
Q 1594 -91 976 548 
Q 359 1188 359 2328 
Q 359 3472 976 4111 
Q 1594 4750 2688 4750 
Q 3144 4750 3555 4637 
Q 3966 4525 4313 4306 
L 4313 3634 
Q 3963 3931 3569 4081 
Q 3175 4231 2741 4231 
Q 1884 4231 1454 3753 
Q 1025 3275 1025 2328 
Q 1025 1384 1454 906 
Q 1884 428 2741 428 
Q 3075 428 3337 486 
Q 3600 544 3809 666 
z
" transform="scale(0.015625)"/>
       <path id="DejaVuSans-65" d="M 3597 1894 
L 3597 1613 
L 953 1613 
Q 991 1019 1311 708 
Q 1631 397 2203 397 
Q 2534 397 2845 478 
Q 3156 559 3463 722 
L 3463 178 
Q 3153 47 2828 -22 
Q 2503 -91 2169 -91 
Q 1331 -91 842 396 
Q 353 884 353 1716 
Q 353 2575 817 3079 
Q 1281 3584 2069 3584 
Q 2775 3584 3186 3129 
Q 3597 2675 3597 1894 
z
M 3022 2063 
Q 3016 2534 2758 2815 
Q 2500 3097 2075 3097 
Q 1594 3097 1305 2825 
Q 1016 2553 972 2059 
L 3022 2063 
z
" transform="scale(0.015625)"/>
       <path id="DejaVuSans-6e" d="M 3513 2113 
L 3513 0 
L 2938 0 
L 2938 2094 
Q 2938 2591 2744 2837 
Q 2550 3084 2163 3084 
Q 1697 3084 1428 2787 
Q 1159 2491 1159 1978 
L 1159 0 
L 581 0 
L 581 3500 
L 1159 3500 
L 1159 2956 
Q 1366 3272 1645 3428 
Q 1925 3584 2291 3584 
Q 2894 3584 3203 3211 
Q 3513 2838 3513 2113 
z
" transform="scale(0.015625)"/>
       <path id="DejaVuSans-72" d="M 2631 2963 
Q 2534 3019 2420 3045 
Q 2306 3072 2169 3072 
Q 1681 3072 1420 2755 
Q 1159 2438 1159 1844 
L 1159 0 
L 581 0 
L 581 3500 
L 1159 3500 
L 1159 2956 
Q 1341 3275 1631 3429 
Q 1922 3584 2338 3584 
Q 2397 3584 2469 3576 
Q 2541 3569 2628 3553 
L 2631 2963 
z
" transform="scale(0.015625)"/>
       <path id="DejaVuSans-61" d="M 2194 1759 
Q 1497 1759 1228 1600 
Q 959 1441 959 1056 
Q 959 750 1161 570 
Q 1363 391 1709 391 
Q 2188 391 2477 730 
Q 2766 1069 2766 1631 
L 2766 1759 
L 2194 1759 
z
M 3341 1997 
L 3341 0 
L 2766 0 
L 2766 531 
Q 2569 213 2275 61 
Q 1981 -91 1556 -91 
Q 1019 -91 701 211 
Q 384 513 384 1019 
Q 384 1609 779 1909 
Q 1175 2209 1959 2209 
L 2766 2209 
L 2766 2266 
Q 2766 2663 2505 2880 
Q 2244 3097 1772 3097 
Q 1472 3097 1187 3025 
Q 903 2953 641 2809 
L 641 3341 
Q 956 3463 1253 3523 
Q 1550 3584 1831 3584 
Q 2591 3584 2966 3190 
Q 3341 2797 3341 1997 
z
" transform="scale(0.015625)"/>
       <path id="DejaVuSans-74" d="M 1172 4494 
L 1172 3500 
L 2356 3500 
L 2356 3053 
L 1172 3053 
L 1172 1153 
Q 1172 725 1289 603 
Q 1406 481 1766 481 
L 2356 481 
L 2356 0 
L 1766 0 
Q 1100 0 847 248 
Q 594 497 594 1153 
L 594 3053 
L 172 3053 
L 172 3500 
L 594 3500 
L 594 4494 
L 1172 4494 
z
" transform="scale(0.015625)"/>
       <path id="DejaVuSans-69" d="M 603 3500 
L 1178 3500 
L 1178 0 
L 603 0 
L 603 3500 
z
M 603 4863 
L 1178 4863 
L 1178 4134 
L 603 4134 
L 603 4863 
z
" transform="scale(0.015625)"/>
       <path id="DejaVuSans-6f" d="M 1959 3097 
Q 1497 3097 1228 2736 
Q 959 2375 959 1747 
Q 959 1119 1226 758 
Q 1494 397 1959 397 
Q 2419 397 2687 759 
Q 2956 1122 2956 1747 
Q 2956 2369 2687 2733 
Q 2419 3097 1959 3097 
z
M 1959 3584 
Q 2709 3584 3137 3096 
Q 3566 2609 3566 1747 
Q 3566 888 3137 398 
Q 2709 -91 1959 -91 
Q 1206 -91 779 398 
Q 353 888 353 1747 
Q 353 2609 779 3096 
Q 1206 3584 1959 3584 
z
" transform="scale(0.015625)"/>
      </defs>
      <use xlink:href="#DejaVuSans-47"/>
      <use xlink:href="#DejaVuSans-65" x="77.490234"/>
      <use xlink:href="#DejaVuSans-6e" x="139.013672"/>
      <use xlink:href="#DejaVuSans-65" x="202.392578"/>
      <use xlink:href="#DejaVuSans-72" x="263.916016"/>
      <use xlink:href="#DejaVuSans-61" x="305.029297"/>
      <use xlink:href="#DejaVuSans-74" x="366.308594"/>
      <use xlink:href="#DejaVuSans-69" x="405.517578"/>
      <use xlink:href="#DejaVuSans-6f" x="433.300781"/>
      <use xlink:href="#DejaVuSans-6e" x="494.482422"/>
     </g>
    </g>
   </g>
   <g id="matplotlib.axis_2">
    <g id="ytick_1">
     <g id="line2d_10">
      <defs>
       <path id="m47bdf52d30" d="M 0 0 
L -3.5 0 
" style="stroke: #000000; stroke-width: 0.8"/>
      </defs>
      <g>
       <use xlink:href="#m47bdf52d30" x="54" y="230.256" style="stroke: #000000; stroke-width: 0.8"/>
      </g>
     </g>
     <g id="text_11">
      <!-- 5 -->
      <g transform="translate(40.6375 234.055219)scale(0.1 -0.1)">
       <use xlink:href="#DejaVuSans-35"/>
      </g>
     </g>
    </g>
    <g id="ytick_2">
     <g id="line2d_11">
      <g>
       <use xlink:href="#m47bdf52d30" x="54" y="186.768" style="stroke: #000000; stroke-width: 0.8"/>
      </g>
     </g>
     <g id="text_12">
      <!-- 6 -->
      <g transform="translate(40.6375 190.567219)scale(0.1 -0.1)">
       <defs>
        <path id="DejaVuSans-36" d="M 2113 2584 
Q 1688 2584 1439 2293 
Q 1191 2003 1191 1497 
Q 1191 994 1439 701 
Q 1688 409 2113 409 
Q 2538 409 2786 701 
Q 3034 994 3034 1497 
Q 3034 2003 2786 2293 
Q 2538 2584 2113 2584 
z
M 3366 4563 
L 3366 3988 
Q 3128 4100 2886 4159 
Q 2644 4219 2406 4219 
Q 1781 4219 1451 3797 
Q 1122 3375 1075 2522 
Q 1259 2794 1537 2939 
Q 1816 3084 2150 3084 
Q 2853 3084 3261 2657 
Q 3669 2231 3669 1497 
Q 3669 778 3244 343 
Q 2819 -91 2113 -91 
Q 1303 -91 875 529 
Q 447 1150 447 2328 
Q 447 3434 972 4092 
Q 1497 4750 2381 4750 
Q 2619 4750 2861 4703 
Q 3103 4656 3366 4563 
z
" transform="scale(0.015625)"/>
       </defs>
       <use xlink:href="#DejaVuSans-36"/>
      </g>
     </g>
    </g>
    <g id="ytick_3">
     <g id="line2d_12">
      <g>
       <use xlink:href="#m47bdf52d30" x="54" y="143.28" style="stroke: #000000; stroke-width: 0.8"/>
      </g>
     </g>
     <g id="text_13">
      <!-- 7 -->
      <g transform="translate(40.6375 147.079219)scale(0.1 -0.1)">
       <use xlink:href="#DejaVuSans-37"/>
      </g>
     </g>
    </g>
    <g id="ytick_4">
     <g id="line2d_13">
      <g>
       <use xlink:href="#m47bdf52d30" x="54" y="99.792" style="stroke: #000000; stroke-width: 0.8"/>
      </g>
     </g>
     <g id="text_14">
      <!-- 8 -->
      <g transform="translate(40.6375 103.591219)scale(0.1 -0.1)">
       <defs>
        <path id="DejaVuSans-38" d="M 2034 2216 
Q 1584 2216 1326 1975 
Q 1069 1734 1069 1313 
Q 1069 891 1326 650 
Q 1584 409 2034 409 
Q 2484 409 2743 651 
Q 3003 894 3003 1313 
Q 3003 1734 2745 1975 
Q 2488 2216 2034 2216 
z
M 1403 2484 
Q 997 2584 770 2862 
Q 544 3141 544 3541 
Q 544 4100 942 4425 
Q 1341 4750 2034 4750 
Q 2731 4750 3128 4425 
Q 3525 4100 3525 3541 
Q 3525 3141 3298 2862 
Q 3072 2584 2669 2484 
Q 3125 2378 3379 2068 
Q 3634 1759 3634 1313 
Q 3634 634 3220 271 
Q 2806 -91 2034 -91 
Q 1263 -91 848 271 
Q 434 634 434 1313 
Q 434 1759 690 2068 
Q 947 2378 1403 2484 
z
M 1172 3481 
Q 1172 3119 1398 2916 
Q 1625 2713 2034 2713 
Q 2441 2713 2670 2916 
Q 2900 3119 2900 3481 
Q 2900 3844 2670 4047 
Q 2441 4250 2034 4250 
Q 1625 4250 1398 4047 
Q 1172 3844 1172 3481 
z
" transform="scale(0.015625)"/>
       </defs>
       <use xlink:href="#DejaVuSans-38"/>
      </g>
     </g>
    </g>
    <g id="ytick_5">
     <g id="line2d_14">
      <g>
       <use xlink:href="#m47bdf52d30" x="54" y="56.304" style="stroke: #000000; stroke-width: 0.8"/>
      </g>
     </g>
     <g id="text_15">
      <!-- 9 -->
      <g transform="translate(40.6375 60.103219)scale(0.1 -0.1)">
       <defs>
        <path id="DejaVuSans-39" d="M 703 97 
L 703 672 
Q 941 559 1184 500 
Q 1428 441 1663 441 
Q 2288 441 2617 861 
Q 2947 1281 2994 2138 
Q 2813 1869 2534 1725 
Q 2256 1581 1919 1581 
Q 1219 1581 811 2004 
Q 403 2428 403 3163 
Q 403 3881 828 4315 
Q 1253 4750 1959 4750 
Q 2769 4750 3195 4129 
Q 3622 3509 3622 2328 
Q 3622 1225 3098 567 
Q 2575 -91 1691 -91 
Q 1453 -91 1209 -44 
Q 966 3 703 97 
z
M 1959 2075 
Q 2384 2075 2632 2365 
Q 2881 2656 2881 3163 
Q 2881 3666 2632 3958 
Q 2384 4250 1959 4250 
Q 1534 4250 1286 3958 
Q 1038 3666 1038 3163 
Q 1038 2656 1286 2365 
Q 1534 2075 1959 2075 
z
" transform="scale(0.015625)"/>
       </defs>
       <use xlink:href="#DejaVuSans-39"/>
      </g>
     </g>
    </g>
    <g id="text_16">
     <!-- Mean Score -->
     <g transform="translate(34.557812 172.494844)rotate(-90)scale(0.1 -0.1)">
      <defs>
       <path id="DejaVuSans-4d" d="M 628 4666 
L 1569 4666 
L 2759 1491 
L 3956 4666 
L 4897 4666 
L 4897 0 
L 4281 0 
L 4281 4097 
L 3078 897 
L 2444 897 
L 1241 4097 
L 1241 0 
L 628 0 
L 628 4666 
z
" transform="scale(0.015625)"/>
       <path id="DejaVuSans-20" transform="scale(0.015625)"/>
       <path id="DejaVuSans-53" d="M 3425 4513 
L 3425 3897 
Q 3066 4069 2747 4153 
Q 2428 4238 2131 4238 
Q 1616 4238 1336 4038 
Q 1056 3838 1056 3469 
Q 1056 3159 1242 3001 
Q 1428 2844 1947 2747 
L 2328 2669 
Q 3034 2534 3370 2195 
Q 3706 1856 3706 1288 
Q 3706 609 3251 259 
Q 2797 -91 1919 -91 
Q 1588 -91 1214 -16 
Q 841 59 441 206 
L 441 856 
Q 825 641 1194 531 
Q 1563 422 1919 422 
Q 2459 422 2753 634 
Q 3047 847 3047 1241 
Q 3047 1584 2836 1778 
Q 2625 1972 2144 2069 
L 1759 2144 
Q 1053 2284 737 2584 
Q 422 2884 422 3419 
Q 422 4038 858 4394 
Q 1294 4750 2059 4750 
Q 2388 4750 2728 4690 
Q 3069 4631 3425 4513 
z
" transform="scale(0.015625)"/>
       <path id="DejaVuSans-63" d="M 3122 3366 
L 3122 2828 
Q 2878 2963 2633 3030 
Q 2388 3097 2138 3097 
Q 1578 3097 1268 2742 
Q 959 2388 959 1747 
Q 959 1106 1268 751 
Q 1578 397 2138 397 
Q 2388 397 2633 464 
Q 2878 531 3122 666 
L 3122 134 
Q 2881 22 2623 -34 
Q 2366 -91 2075 -91 
Q 1284 -91 818 406 
Q 353 903 353 1747 
Q 353 2603 823 3093 
Q 1294 3584 2113 3584 
Q 2378 3584 2631 3529 
Q 2884 3475 3122 3366 
z
" transform="scale(0.015625)"/>
      </defs>
      <use xlink:href="#DejaVuSans-4d"/>
      <use xlink:href="#DejaVuSans-65" x="86.279297"/>
      <use xlink:href="#DejaVuSans-61" x="147.802734"/>
      <use xlink:href="#DejaVuSans-6e" x="209.082031"/>
      <use xlink:href="#DejaVuSans-20" x="272.460938"/>
      <use xlink:href="#DejaVuSans-53" x="304.248047"/>
      <use xlink:href="#DejaVuSans-63" x="367.724609"/>
      <use xlink:href="#DejaVuSans-6f" x="422.705078"/>
      <use xlink:href="#DejaVuSans-72" x="483.886719"/>
      <use xlink:href="#DejaVuSans-65" x="522.75"/>
     </g>
    </g>
   </g>
   <g id="line2d_15">
    <path d="M 69.218182 186.832851 
L 70.747647 185.910898 
L 73.806578 185.154706 
L 75.336044 184.354269 
L 78.394975 183.353092 
L 79.92444 183.146764 
L 81.453906 182.347882 
L 82.983371 181.927923 
L 84.512837 181.994638 
L 86.042302 181.765489 
L 87.571768 181.177186 
L 89.101233 180.758614 
L 90.630699 180.912521 
L 92.160164 180.739993 
L 93.68963 180.225489 
L 96.748561 180.558103 
L 98.278026 180.60991 
L 99.807492 179.705847 
L 101.336958 180.048231 
L 102.866423 180.008273 
L 104.395889 180.177474 
L 108.984285 180.331421 
L 110.513751 180.120407 
L 112.043216 180.270603 
L 113.572682 180.604863 
L 115.102147 179.952559 
L 116.631613 179.837358 
L 118.161078 179.247589 
L 119.690544 179.138108 
L 121.220009 179.168553 
L 122.749475 179.519658 
L 124.27894 178.920727 
L 125.808406 179.185434 
L 127.337871 179.057837 
L 128.867337 178.722224 
L 130.396802 178.923848 
L 131.926268 178.769417 
L 133.455733 178.103071 
L 134.985199 178.640863 
L 136.514664 178.448541 
L 138.04413 178.401993 
L 142.632526 178.585491 
L 144.161992 178.189663 
L 145.691457 178.628626 
L 147.220923 178.048739 
L 154.86825 177.823826 
L 156.397716 177.472753 
L 157.927181 177.815189 
L 159.456647 177.211221 
L 160.986112 177.625254 
L 162.515578 177.814799 
L 164.045043 177.608949 
L 165.574509 177.930515 
L 167.103974 177.376504 
L 168.63344 177.328071 
L 171.692371 177.084152 
L 174.751302 177.000286 
L 176.280767 177.360574 
L 177.810233 177.017108 
L 179.339698 177.13346 
L 180.869164 177.406442 
L 182.39863 177.498062 
L 183.928095 177.215594 
L 185.457561 177.104158 
L 186.987026 177.109838 
L 188.516492 176.723742 
L 190.045957 177.601282 
L 193.104888 176.501965 
L 194.634354 176.849704 
L 196.163819 176.693708 
L 197.693285 177.235549 
L 199.22275 176.974224 
L 200.752216 176.881749 
L 202.281681 177.113356 
L 203.811147 176.470026 
L 205.340612 176.643113 
L 206.870078 176.623758 
L 208.399543 176.8602 
L 209.929009 176.140139 
L 211.458474 177.238095 
L 212.98794 176.830853 
L 214.517405 177.528397 
L 216.046871 177.726545 
L 217.576336 176.412852 
L 219.105802 177.090729 
L 222.164733 176.665642 
L 223.694198 177.026541 
L 225.223664 176.979687 
L 226.753129 176.794523 
L 228.282595 177.111175 
L 229.81206 176.853633 
L 231.341526 177.070229 
L 232.870991 176.756433 
L 234.400457 177.17942 
L 235.929922 177.070407 
L 237.459388 177.176915 
L 238.988853 176.899777 
L 240.518319 177.045867 
L 242.047784 177.360467 
L 243.57725 177.261721 
L 246.636181 176.438287 
L 248.165646 177.305689 
L 249.695112 176.797232 
L 251.224577 177.146239 
L 254.283508 176.841123 
L 255.812974 176.067674 
L 257.342439 176.265538 
L 258.871905 175.844657 
L 260.40137 176.356833 
L 263.460302 176.204426 
L 264.989767 176.223269 
L 266.519233 176.909805 
L 268.048698 176.722039 
L 269.578164 176.928076 
L 271.107629 176.528414 
L 272.637095 177.11839 
L 274.16656 176.608138 
L 275.696026 176.703375 
L 277.225491 176.921382 
L 278.754957 176.572904 
L 280.284422 176.626514 
L 281.813888 176.201628 
L 283.343353 176.497287 
L 286.402284 176.017659 
L 287.93175 176.125409 
L 289.461215 176.439668 
L 290.990681 176.192273 
L 292.520146 175.82569 
L 294.049612 176.843499 
L 295.579077 177.386233 
L 297.108543 177.300002 
L 298.638008 177.570585 
L 300.167474 177.328465 
L 301.696939 177.207216 
L 303.226405 177.520534 
L 304.75587 177.468519 
L 306.285336 177.083484 
L 312.403198 177.396848 
L 313.932663 177.520671 
L 315.462129 177.04358 
L 316.991594 177.430123 
L 318.52106 176.980882 
L 320.050525 177.42471 
L 321.579991 176.99905 
L 323.109456 176.830702 
L 324.638922 176.952353 
L 326.168387 176.681816 
L 327.697853 176.685461 
L 329.227318 177.374874 
L 332.286249 177.334228 
L 333.815715 177.370288 
L 335.34518 177.241583 
L 336.874646 177.277583 
L 338.404111 177.700607 
L 339.933577 177.060305 
L 342.992508 177.259221 
L 346.051439 176.878471 
L 347.580905 177.276509 
L 349.11037 176.885993 
L 350.639836 177.397977 
L 352.169301 177.604609 
L 353.698767 177.268788 
L 355.228232 177.080225 
L 356.757698 177.401352 
L 358.287163 177.240639 
L 359.816629 177.196915 
L 361.346094 177.37657 
L 362.87556 176.99208 
L 364.405025 177.498321 
L 367.463956 177.217995 
L 368.993422 176.776658 
L 370.522887 176.838576 
L 372.052353 177.181331 
L 373.581818 176.547525 
L 373.581818 176.547525 
" clip-path="url(#p2f528b7fac)" style="fill: none; stroke: #1f77b4; stroke-width: 1.5; stroke-linecap: square"/>
   </g>
   <g id="line2d_16">
    <path d="M 69.218182 185.46336 
L 373.581818 185.46336 
L 373.581818 185.46336 
" clip-path="url(#p2f528b7fac)" style="fill: none; stroke-dasharray: 5.55,2.4; stroke-dashoffset: 0; stroke: #ff7f0e; stroke-width: 1.5"/>
   </g>
   <g id="line2d_17">
    <path d="M 69.218182 230.256 
L 373.581818 230.256 
L 373.581818 230.256 
" clip-path="url(#p2f528b7fac)" style="fill: none; stroke-dasharray: 5.55,2.4; stroke-dashoffset: 0; stroke: #2ca02c; stroke-width: 1.5"/>
   </g>
   <g id="patch_3">
    <path d="M 54 252 
L 54 34.56 
" style="fill: none; stroke: #000000; stroke-width: 0.8; stroke-linejoin: miter; stroke-linecap: square"/>
   </g>
   <g id="patch_4">
    <path d="M 388.8 252 
L 388.8 34.56 
" style="fill: none; stroke: #000000; stroke-width: 0.8; stroke-linejoin: miter; stroke-linecap: square"/>
   </g>
   <g id="patch_5">
    <path d="M 54 252 
L 388.8 252 
" style="fill: none; stroke: #000000; stroke-width: 0.8; stroke-linejoin: miter; stroke-linecap: square"/>
   </g>
   <g id="patch_6">
    <path d="M 54 34.56 
L 388.8 34.56 
" style="fill: none; stroke: #000000; stroke-width: 0.8; stroke-linejoin: miter; stroke-linecap: square"/>
   </g>
   <g id="text_17">
    <!-- Caveman -->
    <g transform="translate(192.966563 28.56)scale(0.12 -0.12)">
     <defs>
      <path id="DejaVuSans-43" d="M 4122 4306 
L 4122 3641 
Q 3803 3938 3442 4084 
Q 3081 4231 2675 4231 
Q 1875 4231 1450 3742 
Q 1025 3253 1025 2328 
Q 1025 1406 1450 917 
Q 1875 428 2675 428 
Q 3081 428 3442 575 
Q 3803 722 4122 1019 
L 4122 359 
Q 3791 134 3420 21 
Q 3050 -91 2638 -91 
Q 1578 -91 968 557 
Q 359 1206 359 2328 
Q 359 3453 968 4101 
Q 1578 4750 2638 4750 
Q 3056 4750 3426 4639 
Q 3797 4528 4122 4306 
z
" transform="scale(0.015625)"/>
      <path id="DejaVuSans-76" d="M 191 3500 
L 800 3500 
L 1894 563 
L 2988 3500 
L 3597 3500 
L 2284 0 
L 1503 0 
L 191 3500 
z
" transform="scale(0.015625)"/>
      <path id="DejaVuSans-6d" d="M 3328 2828 
Q 3544 3216 3844 3400 
Q 4144 3584 4550 3584 
Q 5097 3584 5394 3201 
Q 5691 2819 5691 2113 
L 5691 0 
L 5113 0 
L 5113 2094 
Q 5113 2597 4934 2840 
Q 4756 3084 4391 3084 
Q 3944 3084 3684 2787 
Q 3425 2491 3425 1978 
L 3425 0 
L 2847 0 
L 2847 2094 
Q 2847 2600 2669 2842 
Q 2491 3084 2119 3084 
Q 1678 3084 1418 2786 
Q 1159 2488 1159 1978 
L 1159 0 
L 581 0 
L 581 3500 
L 1159 3500 
L 1159 2956 
Q 1356 3278 1631 3431 
Q 1906 3584 2284 3584 
Q 2666 3584 2933 3390 
Q 3200 3197 3328 2828 
z
" transform="scale(0.015625)"/>
     </defs>
     <use xlink:href="#DejaVuSans-43"/>
     <use xlink:href="#DejaVuSans-61" x="69.824219"/>
     <use xlink:href="#DejaVuSans-76" x="131.103516"/>
     <use xlink:href="#DejaVuSans-65" x="190.283203"/>
     <use xlink:href="#DejaVuSans-6d" x="251.806641"/>
     <use xlink:href="#DejaVuSans-61" x="349.21875"/>
     <use xlink:href="#DejaVuSans-6e" x="410.498047"/>
    </g>
   </g>
   <g id="legend_1">
    <g id="patch_7">
     <path d="M 61 86.8725 
L 228.907813 86.8725 
Q 230.907813 86.8725 230.907813 84.8725 
L 230.907813 41.56 
Q 230.907813 39.56 228.907813 39.56 
L 61 39.56 
Q 59 39.56 59 41.56 
L 59 84.8725 
Q 59 86.8725 61 86.8725 
z
" style="fill: #ffffff; opacity: 0.8; stroke: #cccccc; stroke-linejoin: miter"/>
    </g>
    <g id="line2d_18">
     <path d="M 63 47.658437 
L 73 47.658437 
L 83 47.658437 
" style="fill: none; stroke: #1f77b4; stroke-width: 1.5; stroke-linecap: square"/>
    </g>
    <g id="text_18">
     <!-- training on caveman graph -->
     <g transform="translate(91 51.158437)scale(0.1 -0.1)">
      <defs>
       <path id="DejaVuSans-67" d="M 2906 1791 
Q 2906 2416 2648 2759 
Q 2391 3103 1925 3103 
Q 1463 3103 1205 2759 
Q 947 2416 947 1791 
Q 947 1169 1205 825 
Q 1463 481 1925 481 
Q 2391 481 2648 825 
Q 2906 1169 2906 1791 
z
M 3481 434 
Q 3481 -459 3084 -895 
Q 2688 -1331 1869 -1331 
Q 1566 -1331 1297 -1286 
Q 1028 -1241 775 -1147 
L 775 -588 
Q 1028 -725 1275 -790 
Q 1522 -856 1778 -856 
Q 2344 -856 2625 -561 
Q 2906 -266 2906 331 
L 2906 616 
Q 2728 306 2450 153 
Q 2172 0 1784 0 
Q 1141 0 747 490 
Q 353 981 353 1791 
Q 353 2603 747 3093 
Q 1141 3584 1784 3584 
Q 2172 3584 2450 3431 
Q 2728 3278 2906 2969 
L 2906 3500 
L 3481 3500 
L 3481 434 
z
" transform="scale(0.015625)"/>
       <path id="DejaVuSans-70" d="M 1159 525 
L 1159 -1331 
L 581 -1331 
L 581 3500 
L 1159 3500 
L 1159 2969 
Q 1341 3281 1617 3432 
Q 1894 3584 2278 3584 
Q 2916 3584 3314 3078 
Q 3713 2572 3713 1747 
Q 3713 922 3314 415 
Q 2916 -91 2278 -91 
Q 1894 -91 1617 61 
Q 1341 213 1159 525 
z
M 3116 1747 
Q 3116 2381 2855 2742 
Q 2594 3103 2138 3103 
Q 1681 3103 1420 2742 
Q 1159 2381 1159 1747 
Q 1159 1113 1420 752 
Q 1681 391 2138 391 
Q 2594 391 2855 752 
Q 3116 1113 3116 1747 
z
" transform="scale(0.015625)"/>
       <path id="DejaVuSans-68" d="M 3513 2113 
L 3513 0 
L 2938 0 
L 2938 2094 
Q 2938 2591 2744 2837 
Q 2550 3084 2163 3084 
Q 1697 3084 1428 2787 
Q 1159 2491 1159 1978 
L 1159 0 
L 581 0 
L 581 4863 
L 1159 4863 
L 1159 2956 
Q 1366 3272 1645 3428 
Q 1925 3584 2291 3584 
Q 2894 3584 3203 3211 
Q 3513 2838 3513 2113 
z
" transform="scale(0.015625)"/>
      </defs>
      <use xlink:href="#DejaVuSans-74"/>
      <use xlink:href="#DejaVuSans-72" x="39.208984"/>
      <use xlink:href="#DejaVuSans-61" x="80.322266"/>
      <use xlink:href="#DejaVuSans-69" x="141.601562"/>
      <use xlink:href="#DejaVuSans-6e" x="169.384766"/>
      <use xlink:href="#DejaVuSans-69" x="232.763672"/>
      <use xlink:href="#DejaVuSans-6e" x="260.546875"/>
      <use xlink:href="#DejaVuSans-67" x="323.925781"/>
      <use xlink:href="#DejaVuSans-20" x="387.402344"/>
      <use xlink:href="#DejaVuSans-6f" x="419.189453"/>
      <use xlink:href="#DejaVuSans-6e" x="480.371094"/>
      <use xlink:href="#DejaVuSans-20" x="543.75"/>
      <use xlink:href="#DejaVuSans-63" x="575.537109"/>
      <use xlink:href="#DejaVuSans-61" x="630.517578"/>
      <use xlink:href="#DejaVuSans-76" x="691.796875"/>
      <use xlink:href="#DejaVuSans-65" x="750.976562"/>
      <use xlink:href="#DejaVuSans-6d" x="812.5"/>
      <use xlink:href="#DejaVuSans-61" x="909.912109"/>
      <use xlink:href="#DejaVuSans-6e" x="971.191406"/>
      <use xlink:href="#DejaVuSans-20" x="1034.570312"/>
      <use xlink:href="#DejaVuSans-67" x="1066.357422"/>
      <use xlink:href="#DejaVuSans-72" x="1129.833984"/>
      <use xlink:href="#DejaVuSans-61" x="1170.947266"/>
      <use xlink:href="#DejaVuSans-70" x="1232.226562"/>
      <use xlink:href="#DejaVuSans-68" x="1295.703125"/>
     </g>
    </g>
    <g id="line2d_19">
     <path d="M 63 62.336562 
L 73 62.336562 
L 83 62.336562 
" style="fill: none; stroke-dasharray: 5.55,2.4; stroke-dashoffset: 0; stroke: #ff7f0e; stroke-width: 1.5"/>
    </g>
    <g id="text_19">
     <!-- transfer learning -->
     <g transform="translate(91 65.836562)scale(0.1 -0.1)">
      <defs>
       <path id="DejaVuSans-73" d="M 2834 3397 
L 2834 2853 
Q 2591 2978 2328 3040 
Q 2066 3103 1784 3103 
Q 1356 3103 1142 2972 
Q 928 2841 928 2578 
Q 928 2378 1081 2264 
Q 1234 2150 1697 2047 
L 1894 2003 
Q 2506 1872 2764 1633 
Q 3022 1394 3022 966 
Q 3022 478 2636 193 
Q 2250 -91 1575 -91 
Q 1294 -91 989 -36 
Q 684 19 347 128 
L 347 722 
Q 666 556 975 473 
Q 1284 391 1588 391 
Q 1994 391 2212 530 
Q 2431 669 2431 922 
Q 2431 1156 2273 1281 
Q 2116 1406 1581 1522 
L 1381 1569 
Q 847 1681 609 1914 
Q 372 2147 372 2553 
Q 372 3047 722 3315 
Q 1072 3584 1716 3584 
Q 2034 3584 2315 3537 
Q 2597 3491 2834 3397 
z
" transform="scale(0.015625)"/>
       <path id="DejaVuSans-66" d="M 2375 4863 
L 2375 4384 
L 1825 4384 
Q 1516 4384 1395 4259 
Q 1275 4134 1275 3809 
L 1275 3500 
L 2222 3500 
L 2222 3053 
L 1275 3053 
L 1275 0 
L 697 0 
L 697 3053 
L 147 3053 
L 147 3500 
L 697 3500 
L 697 3744 
Q 697 4328 969 4595 
Q 1241 4863 1831 4863 
L 2375 4863 
z
" transform="scale(0.015625)"/>
       <path id="DejaVuSans-6c" d="M 603 4863 
L 1178 4863 
L 1178 0 
L 603 0 
L 603 4863 
z
" transform="scale(0.015625)"/>
      </defs>
      <use xlink:href="#DejaVuSans-74"/>
      <use xlink:href="#DejaVuSans-72" x="39.208984"/>
      <use xlink:href="#DejaVuSans-61" x="80.322266"/>
      <use xlink:href="#DejaVuSans-6e" x="141.601562"/>
      <use xlink:href="#DejaVuSans-73" x="204.980469"/>
      <use xlink:href="#DejaVuSans-66" x="257.080078"/>
      <use xlink:href="#DejaVuSans-65" x="292.285156"/>
      <use xlink:href="#DejaVuSans-72" x="353.808594"/>
      <use xlink:href="#DejaVuSans-20" x="394.921875"/>
      <use xlink:href="#DejaVuSans-6c" x="426.708984"/>
      <use xlink:href="#DejaVuSans-65" x="454.492188"/>
      <use xlink:href="#DejaVuSans-61" x="516.015625"/>
      <use xlink:href="#DejaVuSans-72" x="577.294922"/>
      <use xlink:href="#DejaVuSans-6e" x="616.658203"/>
      <use xlink:href="#DejaVuSans-69" x="680.037109"/>
      <use xlink:href="#DejaVuSans-6e" x="707.820312"/>
      <use xlink:href="#DejaVuSans-67" x="771.199219"/>
     </g>
    </g>
    <g id="line2d_20">
     <path d="M 63 77.014687 
L 73 77.014687 
L 83 77.014687 
" style="fill: none; stroke-dasharray: 5.55,2.4; stroke-dashoffset: 0; stroke: #2ca02c; stroke-width: 1.5"/>
    </g>
    <g id="text_20">
     <!-- QAOA_4 -->
     <g transform="translate(91 80.514687)scale(0.1 -0.1)">
      <defs>
       <path id="DejaVuSans-51" d="M 2522 4238 
Q 1834 4238 1429 3725 
Q 1025 3213 1025 2328 
Q 1025 1447 1429 934 
Q 1834 422 2522 422 
Q 3209 422 3611 934 
Q 4013 1447 4013 2328 
Q 4013 3213 3611 3725 
Q 3209 4238 2522 4238 
z
M 3406 84 
L 4238 -825 
L 3475 -825 
L 2784 -78 
Q 2681 -84 2626 -87 
Q 2572 -91 2522 -91 
Q 1538 -91 948 567 
Q 359 1225 359 2328 
Q 359 3434 948 4092 
Q 1538 4750 2522 4750 
Q 3503 4750 4090 4092 
Q 4678 3434 4678 2328 
Q 4678 1516 4351 937 
Q 4025 359 3406 84 
z
" transform="scale(0.015625)"/>
       <path id="DejaVuSans-41" d="M 2188 4044 
L 1331 1722 
L 3047 1722 
L 2188 4044 
z
M 1831 4666 
L 2547 4666 
L 4325 0 
L 3669 0 
L 3244 1197 
L 1141 1197 
L 716 0 
L 50 0 
L 1831 4666 
z
" transform="scale(0.015625)"/>
       <path id="DejaVuSans-4f" d="M 2522 4238 
Q 1834 4238 1429 3725 
Q 1025 3213 1025 2328 
Q 1025 1447 1429 934 
Q 1834 422 2522 422 
Q 3209 422 3611 934 
Q 4013 1447 4013 2328 
Q 4013 3213 3611 3725 
Q 3209 4238 2522 4238 
z
M 2522 4750 
Q 3503 4750 4090 4092 
Q 4678 3434 4678 2328 
Q 4678 1225 4090 567 
Q 3503 -91 2522 -91 
Q 1538 -91 948 565 
Q 359 1222 359 2328 
Q 359 3434 948 4092 
Q 1538 4750 2522 4750 
z
" transform="scale(0.015625)"/>
       <path id="DejaVuSans-5f" d="M 3263 -1063 
L 3263 -1509 
L -63 -1509 
L -63 -1063 
L 3263 -1063 
z
" transform="scale(0.015625)"/>
       <path id="DejaVuSans-34" d="M 2419 4116 
L 825 1625 
L 2419 1625 
L 2419 4116 
z
M 2253 4666 
L 3047 4666 
L 3047 1625 
L 3713 1625 
L 3713 1100 
L 3047 1100 
L 3047 0 
L 2419 0 
L 2419 1100 
L 313 1100 
L 313 1709 
L 2253 4666 
z
" transform="scale(0.015625)"/>
      </defs>
      <use xlink:href="#DejaVuSans-51"/>
      <use xlink:href="#DejaVuSans-41" x="78.710938"/>
      <use xlink:href="#DejaVuSans-4f" x="145.369141"/>
      <use xlink:href="#DejaVuSans-41" x="222.330078"/>
      <use xlink:href="#DejaVuSans-5f" x="290.738281"/>
      <use xlink:href="#DejaVuSans-34" x="340.738281"/>
     </g>
    </g>
   </g>
  </g>
 </g>
 <defs>
  <clipPath id="p2f528b7fac">
   <rect x="54" y="34.56" width="334.8" height="217.44"/>
  </clipPath>
 </defs>
</svg>
