<?xml version="1.0" encoding="utf-8" standalone="no"?>
<!DOCTYPE svg PUBLIC "-//W3C//DTD SVG 1.1//EN"
  "http://www.w3.org/Graphics/SVG/1.1/DTD/svg11.dtd">
<svg xmlns:xlink="http://www.w3.org/1999/xlink" width="432pt" height="288pt" viewBox="0 0 432 288" xmlns="http://www.w3.org/2000/svg" version="1.1">
 <metadata>
  <rdf:RDF xmlns:dc="http://purl.org/dc/elements/1.1/" xmlns:cc="http://creativecommons.org/ns#" xmlns:rdf="http://www.w3.org/1999/02/22-rdf-syntax-ns#">
   <cc:Work>
    <dc:type rdf:resource="http://purl.org/dc/dcmitype/StillImage"/>
    <dc:date>2023-06-27T09:12:28.402032</dc:date>
    <dc:format>image/svg+xml</dc:format>
    <dc:creator>
     <cc:Agent>
      <dc:title>Matplotlib v3.5.2, https://matplotlib.org/</dc:title>
     </cc:Agent>
    </dc:creator>
   </cc:Work>
  </rdf:RDF>
 </metadata>
 <defs>
  <style type="text/css">*{stroke-linejoin: round; stroke-linecap: butt}</style>
 </defs>
 <g id="figure_1">
  <g id="patch_1">
   <path d="M 0 288 
L 432 288 
L 432 0 
L 0 0 
L 0 288 
z
" style="fill: none"/>
  </g>
  <g id="axes_1">
   <g id="patch_2">
    <path d="M 54 252 
L 388.8 252 
L 388.8 34.56 
L 54 34.56 
z
" style="fill: #ffffff"/>
   </g>
   <g id="PolyCollection_1">
    <path d="M 69.218182 223.507584 
L 69.218182 217.434816 
L 70.747647 221.745455 
L 72.277113 218.549056 
L 73.806578 216.037442 
L 75.336044 221.063579 
L 76.865509 217.2096 
L 78.394975 215.336977 
L 79.92444 212.044929 
L 81.453906 209.596181 
L 82.983371 216.400713 
L 84.512837 206.081576 
L 86.042302 209.306311 
L 87.571768 216.016702 
L 89.101233 201.55392 
L 90.630699 198.096651 
L 92.160164 199.842748 
L 93.68963 187.909686 
L 95.219095 195.781633 
L 96.748561 208.925244 
L 98.278026 199.642392 
L 99.807492 196.646597 
L 101.336958 197.494688 
L 102.866423 190.539525 
L 104.395889 195.283268 
L 105.925354 194.623955 
L 107.45482 188.554684 
L 108.984285 192.102349 
L 110.513751 191.158256 
L 112.043216 200.065151 
L 113.572682 189.860929 
L 115.102147 187.181163 
L 116.631613 194.97825 
L 118.161078 185.778654 
L 119.690544 189.727416 
L 121.220009 192.600771 
L 122.749475 191.622919 
L 124.27894 184.013242 
L 125.808406 192.635374 
L 127.337871 199.058216 
L 128.867337 192.701453 
L 130.396802 186.905888 
L 131.926268 197.073778 
L 133.455733 194.271694 
L 134.985199 193.527649 
L 136.514664 197.707307 
L 138.04413 191.410015 
L 139.573595 189.448344 
L 141.103061 187.656726 
L 142.632526 184.650617 
L 144.161992 187.290198 
L 145.691457 186.227977 
L 147.220923 184.439156 
L 148.750388 185.474337 
L 150.279854 201.146436 
L 151.809319 184.791871 
L 153.338785 193.631828 
L 154.86825 205.146632 
L 156.397716 189.934686 
L 157.927181 191.382464 
L 159.456647 183.865103 
L 160.986112 179.719798 
L 162.515578 186.577172 
L 164.045043 193.433261 
L 165.574509 197.4725 
L 167.103974 184.299105 
L 168.63344 192.871334 
L 170.162905 182.218245 
L 171.692371 188.876809 
L 173.221836 181.119288 
L 174.751302 186.844963 
L 176.280767 192.104182 
L 177.810233 186.798925 
L 179.339698 179.883674 
L 180.869164 179.677323 
L 182.39863 189.752128 
L 183.928095 186.051719 
L 185.457561 183.379264 
L 186.987026 187.111863 
L 188.516492 184.93989 
L 190.045957 177.971877 
L 191.575423 184.578622 
L 193.104888 187.415595 
L 194.634354 185.312403 
L 196.163819 187.612019 
L 197.693285 186.794405 
L 199.22275 183.591329 
L 200.752216 186.599342 
L 202.281681 176.956067 
L 203.811147 180.002082 
L 205.340612 177.793166 
L 206.870078 180.024642 
L 208.399543 184.379785 
L 209.929009 187.013695 
L 211.458474 175.378151 
L 212.98794 184.479623 
L 214.517405 193.301738 
L 216.046871 179.623377 
L 217.576336 183.798265 
L 219.105802 174.362139 
L 220.635267 185.568945 
L 222.164733 184.669628 
L 223.694198 177.975286 
L 225.223664 177.209009 
L 226.753129 177.434479 
L 228.282595 185.38603 
L 229.81206 185.253176 
L 231.341526 189.985101 
L 232.870991 171.736869 
L 234.400457 184.426268 
L 235.929922 181.371359 
L 237.459388 186.531407 
L 238.988853 182.63025 
L 240.518319 183.771569 
L 242.047784 186.113461 
L 243.57725 188.286055 
L 245.106715 177.064776 
L 246.636181 176.493504 
L 248.165646 181.851695 
L 249.695112 176.183893 
L 251.224577 183.606201 
L 252.754043 182.804914 
L 254.283508 183.84033 
L 255.812974 177.367311 
L 257.342439 180.361818 
L 258.871905 173.956844 
L 260.40137 169.786626 
L 261.930836 175.983167 
L 263.460302 178.105508 
L 264.989767 177.023065 
L 266.519233 168.329646 
L 268.048698 179.173185 
L 269.578164 183.905194 
L 271.107629 181.765659 
L 272.637095 181.880544 
L 274.16656 182.979938 
L 275.696026 176.350688 
L 277.225491 165.256411 
L 278.754957 178.558763 
L 280.284422 179.299972 
L 281.813888 173.573746 
L 283.343353 170.997748 
L 284.872819 177.687041 
L 286.402284 169.194049 
L 287.93175 175.76799 
L 289.461215 181.137512 
L 290.990681 177.611996 
L 292.520146 172.346785 
L 294.049612 178.536991 
L 295.579077 176.354016 
L 297.108543 168.162837 
L 298.638008 171.611501 
L 300.167474 166.921287 
L 301.696939 171.256427 
L 303.226405 174.111375 
L 304.75587 171.374993 
L 306.285336 171.082029 
L 307.814801 163.923347 
L 309.344267 170.905606 
L 310.873732 178.50528 
L 312.403198 172.390972 
L 313.932663 175.929801 
L 315.462129 168.554547 
L 316.991594 175.785216 
L 318.52106 162.317144 
L 320.050525 178.565551 
L 321.579991 172.922526 
L 323.109456 170.201411 
L 324.638922 178.044907 
L 326.168387 172.149926 
L 327.697853 182.006126 
L 329.227318 173.331869 
L 330.756784 165.626797 
L 332.286249 167.989734 
L 333.815715 169.517543 
L 335.34518 166.92849 
L 336.874646 165.166256 
L 338.404111 166.476921 
L 339.933577 176.401391 
L 341.463042 172.145295 
L 342.992508 172.504643 
L 344.521974 175.02624 
L 346.051439 176.913292 
L 347.580905 174.476405 
L 349.11037 172.092892 
L 350.639836 171.339359 
L 352.169301 172.428678 
L 353.698767 173.542961 
L 355.228232 174.919395 
L 356.757698 163.2411 
L 358.287163 170.514561 
L 359.816629 164.948227 
L 361.346094 167.337518 
L 362.87556 167.321588 
L 364.405025 174.202513 
L 365.934491 171.110413 
L 367.463956 172.099241 
L 368.993422 166.456844 
L 370.522887 172.224115 
L 372.052353 165.651674 
L 373.581818 157.459151 
L 373.581818 181.286449 
L 373.581818 181.286449 
L 372.052353 175.268326 
L 370.522887 185.656205 
L 368.993422 184.030516 
L 367.463956 184.693879 
L 365.934491 183.508307 
L 364.405025 182.373167 
L 362.87556 187.732012 
L 361.346094 178.583602 
L 359.816629 175.319453 
L 358.287163 185.191359 
L 356.757698 180.72306 
L 355.228232 181.221405 
L 353.698767 180.205999 
L 352.169301 186.538842 
L 350.639836 186.106081 
L 349.11037 177.742148 
L 347.580905 187.752715 
L 346.051439 188.142548 
L 344.521974 182.4192 
L 342.992508 183.201277 
L 341.463042 193.997745 
L 339.933577 189.741649 
L 338.404111 184.662759 
L 336.874646 189.452464 
L 335.34518 187.25535 
L 333.815715 181.622137 
L 332.286249 177.713946 
L 330.756784 183.338483 
L 329.227318 185.853091 
L 327.697853 189.572914 
L 326.168387 182.686234 
L 324.638922 185.488853 
L 323.109456 189.200989 
L 321.579991 187.567074 
L 320.050525 191.056529 
L 318.52106 188.822536 
L 316.991594 192.967104 
L 315.462129 188.238573 
L 313.932663 194.779479 
L 312.403198 187.881188 
L 310.873732 182.4192 
L 309.344267 186.322394 
L 307.814801 186.781453 
L 306.285336 189.842451 
L 304.75587 199.551727 
L 303.226405 184.638705 
L 301.696939 183.579733 
L 300.167474 186.392793 
L 298.638008 187.356019 
L 297.108543 180.802443 
L 295.579077 183.483264 
L 294.049612 195.651329 
L 292.520146 184.881215 
L 290.990681 182.660164 
L 289.461215 189.354328 
L 287.93175 192.33201 
L 286.402284 182.597951 
L 284.872819 184.976959 
L 283.343353 185.143052 
L 281.813888 196.265774 
L 280.284422 189.452348 
L 278.754957 188.671477 
L 277.225491 188.927429 
L 275.696026 185.878432 
L 274.16656 194.687422 
L 272.637095 193.829856 
L 271.107629 201.120261 
L 269.578164 192.457526 
L 268.048698 183.708255 
L 266.519233 188.680914 
L 264.989767 194.773415 
L 263.460302 190.864252 
L 261.930836 190.812193 
L 260.40137 197.878494 
L 258.871905 197.839636 
L 257.342439 193.174182 
L 255.812974 194.646609 
L 254.283508 197.52351 
L 252.754043 192.470606 
L 251.224577 198.192519 
L 249.695112 196.917227 
L 248.165646 189.292465 
L 246.636181 195.955296 
L 245.106715 197.558424 
L 243.57725 200.035865 
L 242.047784 207.427019 
L 240.518319 197.592271 
L 238.988853 190.03599 
L 237.459388 197.659153 
L 235.929922 196.948321 
L 234.400457 200.416612 
L 232.870991 190.492251 
L 231.341526 197.467059 
L 229.81206 191.761864 
L 228.282595 203.80565 
L 226.753129 193.274801 
L 225.223664 188.499151 
L 223.694198 189.254954 
L 222.164733 201.695332 
L 220.635267 196.882095 
L 219.105802 192.433221 
L 217.576336 198.652775 
L 216.046871 194.130063 
L 214.517405 200.021302 
L 212.98794 191.230777 
L 211.458474 199.679929 
L 209.929009 198.698945 
L 208.399543 197.418935 
L 206.870078 197.425278 
L 205.340612 192.481234 
L 203.811147 195.925758 
L 202.281681 192.666013 
L 200.752216 203.027218 
L 199.22275 202.991071 
L 197.693285 201.092635 
L 196.163819 192.229741 
L 194.634354 196.268877 
L 193.104888 197.427285 
L 191.575423 197.220098 
L 190.045957 202.304763 
L 188.516492 194.90187 
L 186.987026 195.774057 
L 185.457561 195.592736 
L 183.928095 196.834201 
L 182.39863 199.656992 
L 180.869164 204.948117 
L 179.339698 202.567366 
L 177.810233 204.349715 
L 176.280767 204.045578 
L 174.751302 207.347837 
L 173.221836 201.114312 
L 171.692371 203.359031 
L 170.162905 203.711835 
L 168.63344 205.452826 
L 167.103974 205.544895 
L 165.574509 202.1563 
L 164.045043 207.935059 
L 162.515578 206.093548 
L 160.986112 213.385802 
L 159.456647 201.630097 
L 157.927181 221.727616 
L 156.397716 204.475554 
L 154.86825 207.528568 
L 153.338785 214.042252 
L 151.809319 207.009089 
L 150.279854 204.570684 
L 148.750388 209.153343 
L 147.220923 212.145484 
L 145.691457 202.746263 
L 144.161992 195.595722 
L 142.632526 199.105063 
L 141.103061 211.319754 
L 139.573595 208.006056 
L 138.04413 209.740865 
L 136.514664 204.313333 
L 134.985199 207.188351 
L 133.455733 200.138546 
L 131.926268 215.383982 
L 130.396802 205.112512 
L 128.867337 208.884307 
L 127.337871 211.225144 
L 125.808406 206.123666 
L 124.27894 204.308678 
L 122.749475 212.789561 
L 121.220009 208.767549 
L 119.690544 207.944424 
L 118.161078 206.457186 
L 116.631613 215.30511 
L 115.102147 204.619797 
L 113.572682 212.594591 
L 112.043216 204.999649 
L 110.513751 206.513584 
L 108.984285 213.832211 
L 107.45482 216.075236 
L 105.925354 208.049005 
L 104.395889 208.042012 
L 102.866423 214.090395 
L 101.336958 204.960832 
L 99.807492 205.374043 
L 98.278026 215.207208 
L 96.748561 213.317316 
L 95.219095 208.630847 
L 93.68963 211.284234 
L 92.160164 215.659172 
L 90.630699 215.448309 
L 89.101233 212.42592 
L 87.571768 219.924578 
L 86.042302 218.154809 
L 84.512837 212.247064 
L 82.983371 224.106807 
L 81.453906 225.257899 
L 79.92444 230.854431 
L 78.394975 230.389103 
L 76.865509 222.86304 
L 75.336044 229.011301 
L 73.806578 224.470078 
L 72.277113 228.699104 
L 70.747647 238.114225 
L 69.218182 223.507584 
z
" clip-path="url(#p2730714989)" style="fill: #1f77b4; fill-opacity: 0.5"/>
   </g>
   <g id="PolyCollection_2">
    <path d="M 69.218182 243.147416 
L 69.218182 228.671464 
L 70.747647 228.671464 
L 72.277113 228.671464 
L 73.806578 228.671464 
L 75.336044 228.671464 
L 76.865509 228.671464 
L 78.394975 228.671464 
L 79.92444 228.671464 
L 81.453906 228.671464 
L 82.983371 228.671464 
L 84.512837 228.671464 
L 86.042302 228.671464 
L 87.571768 228.671464 
L 89.101233 228.671464 
L 90.630699 228.671464 
L 92.160164 228.671464 
L 93.68963 228.671464 
L 95.219095 228.671464 
L 96.748561 228.671464 
L 98.278026 228.671464 
L 99.807492 228.671464 
L 101.336958 228.671464 
L 102.866423 228.671464 
L 104.395889 228.671464 
L 105.925354 228.671464 
L 107.45482 228.671464 
L 108.984285 228.671464 
L 110.513751 228.671464 
L 112.043216 228.671464 
L 113.572682 228.671464 
L 115.102147 228.671464 
L 116.631613 228.671464 
L 118.161078 228.671464 
L 119.690544 228.671464 
L 121.220009 228.671464 
L 122.749475 228.671464 
L 124.27894 228.671464 
L 125.808406 228.671464 
L 127.337871 228.671464 
L 128.867337 228.671464 
L 130.396802 228.671464 
L 131.926268 228.671464 
L 133.455733 228.671464 
L 134.985199 228.671464 
L 136.514664 228.671464 
L 138.04413 228.671464 
L 139.573595 228.671464 
L 141.103061 228.671464 
L 142.632526 228.671464 
L 144.161992 228.671464 
L 145.691457 228.671464 
L 147.220923 228.671464 
L 148.750388 228.671464 
L 150.279854 228.671464 
L 151.809319 228.671464 
L 153.338785 228.671464 
L 154.86825 228.671464 
L 156.397716 228.671464 
L 157.927181 228.671464 
L 159.456647 228.671464 
L 160.986112 228.671464 
L 162.515578 228.671464 
L 164.045043 228.671464 
L 165.574509 228.671464 
L 167.103974 228.671464 
L 168.63344 228.671464 
L 170.162905 228.671464 
L 171.692371 228.671464 
L 173.221836 228.671464 
L 174.751302 228.671464 
L 176.280767 228.671464 
L 177.810233 228.671464 
L 179.339698 228.671464 
L 180.869164 228.671464 
L 182.39863 228.671464 
L 183.928095 228.671464 
L 185.457561 228.671464 
L 186.987026 228.671464 
L 188.516492 228.671464 
L 190.045957 228.671464 
L 191.575423 228.671464 
L 193.104888 228.671464 
L 194.634354 228.671464 
L 196.163819 228.671464 
L 197.693285 228.671464 
L 199.22275 228.671464 
L 200.752216 228.671464 
L 202.281681 228.671464 
L 203.811147 228.671464 
L 205.340612 228.671464 
L 206.870078 228.671464 
L 208.399543 228.671464 
L 209.929009 228.671464 
L 211.458474 228.671464 
L 212.98794 228.671464 
L 214.517405 228.671464 
L 216.046871 228.671464 
L 217.576336 228.671464 
L 219.105802 228.671464 
L 220.635267 228.671464 
L 222.164733 228.671464 
L 223.694198 228.671464 
L 225.223664 228.671464 
L 226.753129 228.671464 
L 228.282595 228.671464 
L 229.81206 228.671464 
L 231.341526 228.671464 
L 232.870991 228.671464 
L 234.400457 228.671464 
L 235.929922 228.671464 
L 237.459388 228.671464 
L 238.988853 228.671464 
L 240.518319 228.671464 
L 242.047784 228.671464 
L 243.57725 228.671464 
L 245.106715 228.671464 
L 246.636181 228.671464 
L 248.165646 228.671464 
L 249.695112 228.671464 
L 251.224577 228.671464 
L 252.754043 228.671464 
L 254.283508 228.671464 
L 255.812974 228.671464 
L 257.342439 228.671464 
L 258.871905 228.671464 
L 260.40137 228.671464 
L 261.930836 228.671464 
L 263.460302 228.671464 
L 264.989767 228.671464 
L 266.519233 228.671464 
L 268.048698 228.671464 
L 269.578164 228.671464 
L 271.107629 228.671464 
L 272.637095 228.671464 
L 274.16656 228.671464 
L 275.696026 228.671464 
L 277.225491 228.671464 
L 278.754957 228.671464 
L 280.284422 228.671464 
L 281.813888 228.671464 
L 283.343353 228.671464 
L 284.872819 228.671464 
L 286.402284 228.671464 
L 287.93175 228.671464 
L 289.461215 228.671464 
L 290.990681 228.671464 
L 292.520146 228.671464 
L 294.049612 228.671464 
L 295.579077 228.671464 
L 297.108543 228.671464 
L 298.638008 228.671464 
L 300.167474 228.671464 
L 301.696939 228.671464 
L 303.226405 228.671464 
L 304.75587 228.671464 
L 306.285336 228.671464 
L 307.814801 228.671464 
L 309.344267 228.671464 
L 310.873732 228.671464 
L 312.403198 228.671464 
L 313.932663 228.671464 
L 315.462129 228.671464 
L 316.991594 228.671464 
L 318.52106 228.671464 
L 320.050525 228.671464 
L 321.579991 228.671464 
L 323.109456 228.671464 
L 324.638922 228.671464 
L 326.168387 228.671464 
L 327.697853 228.671464 
L 329.227318 228.671464 
L 330.756784 228.671464 
L 332.286249 228.671464 
L 333.815715 228.671464 
L 335.34518 228.671464 
L 336.874646 228.671464 
L 338.404111 228.671464 
L 339.933577 228.671464 
L 341.463042 228.671464 
L 342.992508 228.671464 
L 344.521974 228.671464 
L 346.051439 228.671464 
L 347.580905 228.671464 
L 349.11037 228.671464 
L 350.639836 228.671464 
L 352.169301 228.671464 
L 353.698767 228.671464 
L 355.228232 228.671464 
L 356.757698 228.671464 
L 358.287163 228.671464 
L 359.816629 228.671464 
L 361.346094 228.671464 
L 362.87556 228.671464 
L 364.405025 228.671464 
L 365.934491 228.671464 
L 367.463956 228.671464 
L 368.993422 228.671464 
L 370.522887 228.671464 
L 372.052353 228.671464 
L 373.581818 228.671464 
L 373.581818 243.147416 
L 373.581818 243.147416 
L 372.052353 243.147416 
L 370.522887 243.147416 
L 368.993422 243.147416 
L 367.463956 243.147416 
L 365.934491 243.147416 
L 364.405025 243.147416 
L 362.87556 243.147416 
L 361.346094 243.147416 
L 359.816629 243.147416 
L 358.287163 243.147416 
L 356.757698 243.147416 
L 355.228232 243.147416 
L 353.698767 243.147416 
L 352.169301 243.147416 
L 350.639836 243.147416 
L 349.11037 243.147416 
L 347.580905 243.147416 
L 346.051439 243.147416 
L 344.521974 243.147416 
L 342.992508 243.147416 
L 341.463042 243.147416 
L 339.933577 243.147416 
L 338.404111 243.147416 
L 336.874646 243.147416 
L 335.34518 243.147416 
L 333.815715 243.147416 
L 332.286249 243.147416 
L 330.756784 243.147416 
L 329.227318 243.147416 
L 327.697853 243.147416 
L 326.168387 243.147416 
L 324.638922 243.147416 
L 323.109456 243.147416 
L 321.579991 243.147416 
L 320.050525 243.147416 
L 318.52106 243.147416 
L 316.991594 243.147416 
L 315.462129 243.147416 
L 313.932663 243.147416 
L 312.403198 243.147416 
L 310.873732 243.147416 
L 309.344267 243.147416 
L 307.814801 243.147416 
L 306.285336 243.147416 
L 304.75587 243.147416 
L 303.226405 243.147416 
L 301.696939 243.147416 
L 300.167474 243.147416 
L 298.638008 243.147416 
L 297.108543 243.147416 
L 295.579077 243.147416 
L 294.049612 243.147416 
L 292.520146 243.147416 
L 290.990681 243.147416 
L 289.461215 243.147416 
L 287.93175 243.147416 
L 286.402284 243.147416 
L 284.872819 243.147416 
L 283.343353 243.147416 
L 281.813888 243.147416 
L 280.284422 243.147416 
L 278.754957 243.147416 
L 277.225491 243.147416 
L 275.696026 243.147416 
L 274.16656 243.147416 
L 272.637095 243.147416 
L 271.107629 243.147416 
L 269.578164 243.147416 
L 268.048698 243.147416 
L 266.519233 243.147416 
L 264.989767 243.147416 
L 263.460302 243.147416 
L 261.930836 243.147416 
L 260.40137 243.147416 
L 258.871905 243.147416 
L 257.342439 243.147416 
L 255.812974 243.147416 
L 254.283508 243.147416 
L 252.754043 243.147416 
L 251.224577 243.147416 
L 249.695112 243.147416 
L 248.165646 243.147416 
L 246.636181 243.147416 
L 245.106715 243.147416 
L 243.57725 243.147416 
L 242.047784 243.147416 
L 240.518319 243.147416 
L 238.988853 243.147416 
L 237.459388 243.147416 
L 235.929922 243.147416 
L 234.400457 243.147416 
L 232.870991 243.147416 
L 231.341526 243.147416 
L 229.81206 243.147416 
L 228.282595 243.147416 
L 226.753129 243.147416 
L 225.223664 243.147416 
L 223.694198 243.147416 
L 222.164733 243.147416 
L 220.635267 243.147416 
L 219.105802 243.147416 
L 217.576336 243.147416 
L 216.046871 243.147416 
L 214.517405 243.147416 
L 212.98794 243.147416 
L 211.458474 243.147416 
L 209.929009 243.147416 
L 208.399543 243.147416 
L 206.870078 243.147416 
L 205.340612 243.147416 
L 203.811147 243.147416 
L 202.281681 243.147416 
L 200.752216 243.147416 
L 199.22275 243.147416 
L 197.693285 243.147416 
L 196.163819 243.147416 
L 194.634354 243.147416 
L 193.104888 243.147416 
L 191.575423 243.147416 
L 190.045957 243.147416 
L 188.516492 243.147416 
L 186.987026 243.147416 
L 185.457561 243.147416 
L 183.928095 243.147416 
L 182.39863 243.147416 
L 180.869164 243.147416 
L 179.339698 243.147416 
L 177.810233 243.147416 
L 176.280767 243.147416 
L 174.751302 243.147416 
L 173.221836 243.147416 
L 171.692371 243.147416 
L 170.162905 243.147416 
L 168.63344 243.147416 
L 167.103974 243.147416 
L 165.574509 243.147416 
L 164.045043 243.147416 
L 162.515578 243.147416 
L 160.986112 243.147416 
L 159.456647 243.147416 
L 157.927181 243.147416 
L 156.397716 243.147416 
L 154.86825 243.147416 
L 153.338785 243.147416 
L 151.809319 243.147416 
L 150.279854 243.147416 
L 148.750388 243.147416 
L 147.220923 243.147416 
L 145.691457 243.147416 
L 144.161992 243.147416 
L 142.632526 243.147416 
L 141.103061 243.147416 
L 139.573595 243.147416 
L 138.04413 243.147416 
L 136.514664 243.147416 
L 134.985199 243.147416 
L 133.455733 243.147416 
L 131.926268 243.147416 
L 130.396802 243.147416 
L 128.867337 243.147416 
L 127.337871 243.147416 
L 125.808406 243.147416 
L 124.27894 243.147416 
L 122.749475 243.147416 
L 121.220009 243.147416 
L 119.690544 243.147416 
L 118.161078 243.147416 
L 116.631613 243.147416 
L 115.102147 243.147416 
L 113.572682 243.147416 
L 112.043216 243.147416 
L 110.513751 243.147416 
L 108.984285 243.147416 
L 107.45482 243.147416 
L 105.925354 243.147416 
L 104.395889 243.147416 
L 102.866423 243.147416 
L 101.336958 243.147416 
L 99.807492 243.147416 
L 98.278026 243.147416 
L 96.748561 243.147416 
L 95.219095 243.147416 
L 93.68963 243.147416 
L 92.160164 243.147416 
L 90.630699 243.147416 
L 89.101233 243.147416 
L 87.571768 243.147416 
L 86.042302 243.147416 
L 84.512837 243.147416 
L 82.983371 243.147416 
L 81.453906 243.147416 
L 79.92444 243.147416 
L 78.394975 243.147416 
L 76.865509 243.147416 
L 75.336044 243.147416 
L 73.806578 243.147416 
L 72.277113 243.147416 
L 70.747647 243.147416 
L 69.218182 243.147416 
z
" clip-path="url(#p2730714989)" style="fill: #ff7f0e; fill-opacity: 0.5"/>
   </g>
   <g id="matplotlib.axis_1">
    <g id="xtick_1">
     <g id="line2d_1">
      <defs>
       <path id="mdbec7bcc35" d="M 0 0 
L 0 3.5 
" style="stroke: #000000; stroke-width: 0.8"/>
      </defs>
      <g>
       <use xlink:href="#mdbec7bcc35" x="69.218182" y="252" style="stroke: #000000; stroke-width: 0.8"/>
      </g>
     </g>
     <g id="text_1">
      <!-- 0 -->
      <g transform="translate(66.036932 266.598437)scale(0.1 -0.1)">
       <defs>
        <path id="DejaVuSans-30" d="M 2034 4250 
Q 1547 4250 1301 3770 
Q 1056 3291 1056 2328 
Q 1056 1369 1301 889 
Q 1547 409 2034 409 
Q 2525 409 2770 889 
Q 3016 1369 3016 2328 
Q 3016 3291 2770 3770 
Q 2525 4250 2034 4250 
z
M 2034 4750 
Q 2819 4750 3233 4129 
Q 3647 3509 3647 2328 
Q 3647 1150 3233 529 
Q 2819 -91 2034 -91 
Q 1250 -91 836 529 
Q 422 1150 422 2328 
Q 422 3509 836 4129 
Q 1250 4750 2034 4750 
z
" transform="scale(0.015625)"/>
       </defs>
       <use xlink:href="#DejaVuSans-30"/>
      </g>
     </g>
    </g>
    <g id="xtick_2">
     <g id="line2d_2">
      <g>
       <use xlink:href="#mdbec7bcc35" x="107.45482" y="252" style="stroke: #000000; stroke-width: 0.8"/>
      </g>
     </g>
     <g id="text_2">
      <!-- 25 -->
      <g transform="translate(101.09232 266.598437)scale(0.1 -0.1)">
       <defs>
        <path id="DejaVuSans-32" d="M 1228 531 
L 3431 531 
L 3431 0 
L 469 0 
L 469 531 
Q 828 903 1448 1529 
Q 2069 2156 2228 2338 
Q 2531 2678 2651 2914 
Q 2772 3150 2772 3378 
Q 2772 3750 2511 3984 
Q 2250 4219 1831 4219 
Q 1534 4219 1204 4116 
Q 875 4013 500 3803 
L 500 4441 
Q 881 4594 1212 4672 
Q 1544 4750 1819 4750 
Q 2544 4750 2975 4387 
Q 3406 4025 3406 3419 
Q 3406 3131 3298 2873 
Q 3191 2616 2906 2266 
Q 2828 2175 2409 1742 
Q 1991 1309 1228 531 
z
" transform="scale(0.015625)"/>
        <path id="DejaVuSans-35" d="M 691 4666 
L 3169 4666 
L 3169 4134 
L 1269 4134 
L 1269 2991 
Q 1406 3038 1543 3061 
Q 1681 3084 1819 3084 
Q 2600 3084 3056 2656 
Q 3513 2228 3513 1497 
Q 3513 744 3044 326 
Q 2575 -91 1722 -91 
Q 1428 -91 1123 -41 
Q 819 9 494 109 
L 494 744 
Q 775 591 1075 516 
Q 1375 441 1709 441 
Q 2250 441 2565 725 
Q 2881 1009 2881 1497 
Q 2881 1984 2565 2268 
Q 2250 2553 1709 2553 
Q 1456 2553 1204 2497 
Q 953 2441 691 2322 
L 691 4666 
z
" transform="scale(0.015625)"/>
       </defs>
       <use xlink:href="#DejaVuSans-32"/>
       <use xlink:href="#DejaVuSans-35" x="63.623047"/>
      </g>
     </g>
    </g>
    <g id="xtick_3">
     <g id="line2d_3">
      <g>
       <use xlink:href="#mdbec7bcc35" x="145.691457" y="252" style="stroke: #000000; stroke-width: 0.8"/>
      </g>
     </g>
     <g id="text_3">
      <!-- 50 -->
      <g transform="translate(139.328957 266.598437)scale(0.1 -0.1)">
       <use xlink:href="#DejaVuSans-35"/>
       <use xlink:href="#DejaVuSans-30" x="63.623047"/>
      </g>
     </g>
    </g>
    <g id="xtick_4">
     <g id="line2d_4">
      <g>
       <use xlink:href="#mdbec7bcc35" x="183.928095" y="252" style="stroke: #000000; stroke-width: 0.8"/>
      </g>
     </g>
     <g id="text_4">
      <!-- 75 -->
      <g transform="translate(177.565595 266.598437)scale(0.1 -0.1)">
       <defs>
        <path id="DejaVuSans-37" d="M 525 4666 
L 3525 4666 
L 3525 4397 
L 1831 0 
L 1172 0 
L 2766 4134 
L 525 4134 
L 525 4666 
z
" transform="scale(0.015625)"/>
       </defs>
       <use xlink:href="#DejaVuSans-37"/>
       <use xlink:href="#DejaVuSans-35" x="63.623047"/>
      </g>
     </g>
    </g>
    <g id="xtick_5">
     <g id="line2d_5">
      <g>
       <use xlink:href="#mdbec7bcc35" x="222.164733" y="252" style="stroke: #000000; stroke-width: 0.8"/>
      </g>
     </g>
     <g id="text_5">
      <!-- 100 -->
      <g transform="translate(212.620983 266.598437)scale(0.1 -0.1)">
       <defs>
        <path id="DejaVuSans-31" d="M 794 531 
L 1825 531 
L 1825 4091 
L 703 3866 
L 703 4441 
L 1819 4666 
L 2450 4666 
L 2450 531 
L 3481 531 
L 3481 0 
L 794 0 
L 794 531 
z
" transform="scale(0.015625)"/>
       </defs>
       <use xlink:href="#DejaVuSans-31"/>
       <use xlink:href="#DejaVuSans-30" x="63.623047"/>
       <use xlink:href="#DejaVuSans-30" x="127.246094"/>
      </g>
     </g>
    </g>
    <g id="xtick_6">
     <g id="line2d_6">
      <g>
       <use xlink:href="#mdbec7bcc35" x="260.40137" y="252" style="stroke: #000000; stroke-width: 0.8"/>
      </g>
     </g>
     <g id="text_6">
      <!-- 125 -->
      <g transform="translate(250.85762 266.598437)scale(0.1 -0.1)">
       <use xlink:href="#DejaVuSans-31"/>
       <use xlink:href="#DejaVuSans-32" x="63.623047"/>
       <use xlink:href="#DejaVuSans-35" x="127.246094"/>
      </g>
     </g>
    </g>
    <g id="xtick_7">
     <g id="line2d_7">
      <g>
       <use xlink:href="#mdbec7bcc35" x="298.638008" y="252" style="stroke: #000000; stroke-width: 0.8"/>
      </g>
     </g>
     <g id="text_7">
      <!-- 150 -->
      <g transform="translate(289.094258 266.598437)scale(0.1 -0.1)">
       <use xlink:href="#DejaVuSans-31"/>
       <use xlink:href="#DejaVuSans-35" x="63.623047"/>
       <use xlink:href="#DejaVuSans-30" x="127.246094"/>
      </g>
     </g>
    </g>
    <g id="xtick_8">
     <g id="line2d_8">
      <g>
       <use xlink:href="#mdbec7bcc35" x="336.874646" y="252" style="stroke: #000000; stroke-width: 0.8"/>
      </g>
     </g>
     <g id="text_8">
      <!-- 175 -->
      <g transform="translate(327.330896 266.598437)scale(0.1 -0.1)">
       <use xlink:href="#DejaVuSans-31"/>
       <use xlink:href="#DejaVuSans-37" x="63.623047"/>
       <use xlink:href="#DejaVuSans-35" x="127.246094"/>
      </g>
     </g>
    </g>
    <g id="xtick_9">
     <g id="line2d_9">
      <g>
       <use xlink:href="#mdbec7bcc35" x="375.111284" y="252" style="stroke: #000000; stroke-width: 0.8"/>
      </g>
     </g>
     <g id="text_9">
      <!-- 200 -->
      <g transform="translate(365.567534 266.598437)scale(0.1 -0.1)">
       <use xlink:href="#DejaVuSans-32"/>
       <use xlink:href="#DejaVuSans-30" x="63.623047"/>
       <use xlink:href="#DejaVuSans-30" x="127.246094"/>
      </g>
     </g>
    </g>
    <g id="text_10">
     <!-- Generation -->
     <g transform="translate(193.507031 280.276563)scale(0.1 -0.1)">
      <defs>
       <path id="DejaVuSans-47" d="M 3809 666 
L 3809 1919 
L 2778 1919 
L 2778 2438 
L 4434 2438 
L 4434 434 
Q 4069 175 3628 42 
Q 3188 -91 2688 -91 
Q 1594 -91 976 548 
Q 359 1188 359 2328 
Q 359 3472 976 4111 
Q 1594 4750 2688 4750 
Q 3144 4750 3555 4637 
Q 3966 4525 4313 4306 
L 4313 3634 
Q 3963 3931 3569 4081 
Q 3175 4231 2741 4231 
Q 1884 4231 1454 3753 
Q 1025 3275 1025 2328 
Q 1025 1384 1454 906 
Q 1884 428 2741 428 
Q 3075 428 3337 486 
Q 3600 544 3809 666 
z
" transform="scale(0.015625)"/>
       <path id="DejaVuSans-65" d="M 3597 1894 
L 3597 1613 
L 953 1613 
Q 991 1019 1311 708 
Q 1631 397 2203 397 
Q 2534 397 2845 478 
Q 3156 559 3463 722 
L 3463 178 
Q 3153 47 2828 -22 
Q 2503 -91 2169 -91 
Q 1331 -91 842 396 
Q 353 884 353 1716 
Q 353 2575 817 3079 
Q 1281 3584 2069 3584 
Q 2775 3584 3186 3129 
Q 3597 2675 3597 1894 
z
M 3022 2063 
Q 3016 2534 2758 2815 
Q 2500 3097 2075 3097 
Q 1594 3097 1305 2825 
Q 1016 2553 972 2059 
L 3022 2063 
z
" transform="scale(0.015625)"/>
       <path id="DejaVuSans-6e" d="M 3513 2113 
L 3513 0 
L 2938 0 
L 2938 2094 
Q 2938 2591 2744 2837 
Q 2550 3084 2163 3084 
Q 1697 3084 1428 2787 
Q 1159 2491 1159 1978 
L 1159 0 
L 581 0 
L 581 3500 
L 1159 3500 
L 1159 2956 
Q 1366 3272 1645 3428 
Q 1925 3584 2291 3584 
Q 2894 3584 3203 3211 
Q 3513 2838 3513 2113 
z
" transform="scale(0.015625)"/>
       <path id="DejaVuSans-72" d="M 2631 2963 
Q 2534 3019 2420 3045 
Q 2306 3072 2169 3072 
Q 1681 3072 1420 2755 
Q 1159 2438 1159 1844 
L 1159 0 
L 581 0 
L 581 3500 
L 1159 3500 
L 1159 2956 
Q 1341 3275 1631 3429 
Q 1922 3584 2338 3584 
Q 2397 3584 2469 3576 
Q 2541 3569 2628 3553 
L 2631 2963 
z
" transform="scale(0.015625)"/>
       <path id="DejaVuSans-61" d="M 2194 1759 
Q 1497 1759 1228 1600 
Q 959 1441 959 1056 
Q 959 750 1161 570 
Q 1363 391 1709 391 
Q 2188 391 2477 730 
Q 2766 1069 2766 1631 
L 2766 1759 
L 2194 1759 
z
M 3341 1997 
L 3341 0 
L 2766 0 
L 2766 531 
Q 2569 213 2275 61 
Q 1981 -91 1556 -91 
Q 1019 -91 701 211 
Q 384 513 384 1019 
Q 384 1609 779 1909 
Q 1175 2209 1959 2209 
L 2766 2209 
L 2766 2266 
Q 2766 2663 2505 2880 
Q 2244 3097 1772 3097 
Q 1472 3097 1187 3025 
Q 903 2953 641 2809 
L 641 3341 
Q 956 3463 1253 3523 
Q 1550 3584 1831 3584 
Q 2591 3584 2966 3190 
Q 3341 2797 3341 1997 
z
" transform="scale(0.015625)"/>
       <path id="DejaVuSans-74" d="M 1172 4494 
L 1172 3500 
L 2356 3500 
L 2356 3053 
L 1172 3053 
L 1172 1153 
Q 1172 725 1289 603 
Q 1406 481 1766 481 
L 2356 481 
L 2356 0 
L 1766 0 
Q 1100 0 847 248 
Q 594 497 594 1153 
L 594 3053 
L 172 3053 
L 172 3500 
L 594 3500 
L 594 4494 
L 1172 4494 
z
" transform="scale(0.015625)"/>
       <path id="DejaVuSans-69" d="M 603 3500 
L 1178 3500 
L 1178 0 
L 603 0 
L 603 3500 
z
M 603 4863 
L 1178 4863 
L 1178 4134 
L 603 4134 
L 603 4863 
z
" transform="scale(0.015625)"/>
       <path id="DejaVuSans-6f" d="M 1959 3097 
Q 1497 3097 1228 2736 
Q 959 2375 959 1747 
Q 959 1119 1226 758 
Q 1494 397 1959 397 
Q 2419 397 2687 759 
Q 2956 1122 2956 1747 
Q 2956 2369 2687 2733 
Q 2419 3097 1959 3097 
z
M 1959 3584 
Q 2709 3584 3137 3096 
Q 3566 2609 3566 1747 
Q 3566 888 3137 398 
Q 2709 -91 1959 -91 
Q 1206 -91 779 398 
Q 353 888 353 1747 
Q 353 2609 779 3096 
Q 1206 3584 1959 3584 
z
" transform="scale(0.015625)"/>
      </defs>
      <use xlink:href="#DejaVuSans-47"/>
      <use xlink:href="#DejaVuSans-65" x="77.490234"/>
      <use xlink:href="#DejaVuSans-6e" x="139.013672"/>
      <use xlink:href="#DejaVuSans-65" x="202.392578"/>
      <use xlink:href="#DejaVuSans-72" x="263.916016"/>
      <use xlink:href="#DejaVuSans-61" x="305.029297"/>
      <use xlink:href="#DejaVuSans-74" x="366.308594"/>
      <use xlink:href="#DejaVuSans-69" x="405.517578"/>
      <use xlink:href="#DejaVuSans-6f" x="433.300781"/>
      <use xlink:href="#DejaVuSans-6e" x="494.482422"/>
     </g>
    </g>
   </g>
   <g id="matplotlib.axis_2">
    <g id="ytick_1">
     <g id="line2d_10">
      <defs>
       <path id="ma55edae5d3" d="M 0 0 
L -3.5 0 
" style="stroke: #000000; stroke-width: 0.8"/>
      </defs>
      <g>
       <use xlink:href="#ma55edae5d3" x="54" y="230.256" style="stroke: #000000; stroke-width: 0.8"/>
      </g>
     </g>
     <g id="text_11">
      <!-- 5 -->
      <g transform="translate(40.6375 234.055219)scale(0.1 -0.1)">
       <use xlink:href="#DejaVuSans-35"/>
      </g>
     </g>
    </g>
    <g id="ytick_2">
     <g id="line2d_11">
      <g>
       <use xlink:href="#ma55edae5d3" x="54" y="186.768" style="stroke: #000000; stroke-width: 0.8"/>
      </g>
     </g>
     <g id="text_12">
      <!-- 6 -->
      <g transform="translate(40.6375 190.567219)scale(0.1 -0.1)">
       <defs>
        <path id="DejaVuSans-36" d="M 2113 2584 
Q 1688 2584 1439 2293 
Q 1191 2003 1191 1497 
Q 1191 994 1439 701 
Q 1688 409 2113 409 
Q 2538 409 2786 701 
Q 3034 994 3034 1497 
Q 3034 2003 2786 2293 
Q 2538 2584 2113 2584 
z
M 3366 4563 
L 3366 3988 
Q 3128 4100 2886 4159 
Q 2644 4219 2406 4219 
Q 1781 4219 1451 3797 
Q 1122 3375 1075 2522 
Q 1259 2794 1537 2939 
Q 1816 3084 2150 3084 
Q 2853 3084 3261 2657 
Q 3669 2231 3669 1497 
Q 3669 778 3244 343 
Q 2819 -91 2113 -91 
Q 1303 -91 875 529 
Q 447 1150 447 2328 
Q 447 3434 972 4092 
Q 1497 4750 2381 4750 
Q 2619 4750 2861 4703 
Q 3103 4656 3366 4563 
z
" transform="scale(0.015625)"/>
       </defs>
       <use xlink:href="#DejaVuSans-36"/>
      </g>
     </g>
    </g>
    <g id="ytick_3">
     <g id="line2d_12">
      <g>
       <use xlink:href="#ma55edae5d3" x="54" y="143.28" style="stroke: #000000; stroke-width: 0.8"/>
      </g>
     </g>
     <g id="text_13">
      <!-- 7 -->
      <g transform="translate(40.6375 147.079219)scale(0.1 -0.1)">
       <use xlink:href="#DejaVuSans-37"/>
      </g>
     </g>
    </g>
    <g id="ytick_4">
     <g id="line2d_13">
      <g>
       <use xlink:href="#ma55edae5d3" x="54" y="99.792" style="stroke: #000000; stroke-width: 0.8"/>
      </g>
     </g>
     <g id="text_14">
      <!-- 8 -->
      <g transform="translate(40.6375 103.591219)scale(0.1 -0.1)">
       <defs>
        <path id="DejaVuSans-38" d="M 2034 2216 
Q 1584 2216 1326 1975 
Q 1069 1734 1069 1313 
Q 1069 891 1326 650 
Q 1584 409 2034 409 
Q 2484 409 2743 651 
Q 3003 894 3003 1313 
Q 3003 1734 2745 1975 
Q 2488 2216 2034 2216 
z
M 1403 2484 
Q 997 2584 770 2862 
Q 544 3141 544 3541 
Q 544 4100 942 4425 
Q 1341 4750 2034 4750 
Q 2731 4750 3128 4425 
Q 3525 4100 3525 3541 
Q 3525 3141 3298 2862 
Q 3072 2584 2669 2484 
Q 3125 2378 3379 2068 
Q 3634 1759 3634 1313 
Q 3634 634 3220 271 
Q 2806 -91 2034 -91 
Q 1263 -91 848 271 
Q 434 634 434 1313 
Q 434 1759 690 2068 
Q 947 2378 1403 2484 
z
M 1172 3481 
Q 1172 3119 1398 2916 
Q 1625 2713 2034 2713 
Q 2441 2713 2670 2916 
Q 2900 3119 2900 3481 
Q 2900 3844 2670 4047 
Q 2441 4250 2034 4250 
Q 1625 4250 1398 4047 
Q 1172 3844 1172 3481 
z
" transform="scale(0.015625)"/>
       </defs>
       <use xlink:href="#DejaVuSans-38"/>
      </g>
     </g>
    </g>
    <g id="ytick_5">
     <g id="line2d_14">
      <g>
       <use xlink:href="#ma55edae5d3" x="54" y="56.304" style="stroke: #000000; stroke-width: 0.8"/>
      </g>
     </g>
     <g id="text_15">
      <!-- 9 -->
      <g transform="translate(40.6375 60.103219)scale(0.1 -0.1)">
       <defs>
        <path id="DejaVuSans-39" d="M 703 97 
L 703 672 
Q 941 559 1184 500 
Q 1428 441 1663 441 
Q 2288 441 2617 861 
Q 2947 1281 2994 2138 
Q 2813 1869 2534 1725 
Q 2256 1581 1919 1581 
Q 1219 1581 811 2004 
Q 403 2428 403 3163 
Q 403 3881 828 4315 
Q 1253 4750 1959 4750 
Q 2769 4750 3195 4129 
Q 3622 3509 3622 2328 
Q 3622 1225 3098 567 
Q 2575 -91 1691 -91 
Q 1453 -91 1209 -44 
Q 966 3 703 97 
z
M 1959 2075 
Q 2384 2075 2632 2365 
Q 2881 2656 2881 3163 
Q 2881 3666 2632 3958 
Q 2384 4250 1959 4250 
Q 1534 4250 1286 3958 
Q 1038 3666 1038 3163 
Q 1038 2656 1286 2365 
Q 1534 2075 1959 2075 
z
" transform="scale(0.015625)"/>
       </defs>
       <use xlink:href="#DejaVuSans-39"/>
      </g>
     </g>
    </g>
    <g id="text_16">
     <!-- Average Energy -->
     <g transform="translate(34.557812 182.908125)rotate(-90)scale(0.1 -0.1)">
      <defs>
       <path id="DejaVuSans-41" d="M 2188 4044 
L 1331 1722 
L 3047 1722 
L 2188 4044 
z
M 1831 4666 
L 2547 4666 
L 4325 0 
L 3669 0 
L 3244 1197 
L 1141 1197 
L 716 0 
L 50 0 
L 1831 4666 
z
" transform="scale(0.015625)"/>
       <path id="DejaVuSans-76" d="M 191 3500 
L 800 3500 
L 1894 563 
L 2988 3500 
L 3597 3500 
L 2284 0 
L 1503 0 
L 191 3500 
z
" transform="scale(0.015625)"/>
       <path id="DejaVuSans-67" d="M 2906 1791 
Q 2906 2416 2648 2759 
Q 2391 3103 1925 3103 
Q 1463 3103 1205 2759 
Q 947 2416 947 1791 
Q 947 1169 1205 825 
Q 1463 481 1925 481 
Q 2391 481 2648 825 
Q 2906 1169 2906 1791 
z
M 3481 434 
Q 3481 -459 3084 -895 
Q 2688 -1331 1869 -1331 
Q 1566 -1331 1297 -1286 
Q 1028 -1241 775 -1147 
L 775 -588 
Q 1028 -725 1275 -790 
Q 1522 -856 1778 -856 
Q 2344 -856 2625 -561 
Q 2906 -266 2906 331 
L 2906 616 
Q 2728 306 2450 153 
Q 2172 0 1784 0 
Q 1141 0 747 490 
Q 353 981 353 1791 
Q 353 2603 747 3093 
Q 1141 3584 1784 3584 
Q 2172 3584 2450 3431 
Q 2728 3278 2906 2969 
L 2906 3500 
L 3481 3500 
L 3481 434 
z
" transform="scale(0.015625)"/>
       <path id="DejaVuSans-20" transform="scale(0.015625)"/>
       <path id="DejaVuSans-45" d="M 628 4666 
L 3578 4666 
L 3578 4134 
L 1259 4134 
L 1259 2753 
L 3481 2753 
L 3481 2222 
L 1259 2222 
L 1259 531 
L 3634 531 
L 3634 0 
L 628 0 
L 628 4666 
z
" transform="scale(0.015625)"/>
       <path id="DejaVuSans-79" d="M 2059 -325 
Q 1816 -950 1584 -1140 
Q 1353 -1331 966 -1331 
L 506 -1331 
L 506 -850 
L 844 -850 
Q 1081 -850 1212 -737 
Q 1344 -625 1503 -206 
L 1606 56 
L 191 3500 
L 800 3500 
L 1894 763 
L 2988 3500 
L 3597 3500 
L 2059 -325 
z
" transform="scale(0.015625)"/>
      </defs>
      <use xlink:href="#DejaVuSans-41"/>
      <use xlink:href="#DejaVuSans-76" x="62.533203"/>
      <use xlink:href="#DejaVuSans-65" x="121.712891"/>
      <use xlink:href="#DejaVuSans-72" x="183.236328"/>
      <use xlink:href="#DejaVuSans-61" x="224.349609"/>
      <use xlink:href="#DejaVuSans-67" x="285.628906"/>
      <use xlink:href="#DejaVuSans-65" x="349.105469"/>
      <use xlink:href="#DejaVuSans-20" x="410.628906"/>
      <use xlink:href="#DejaVuSans-45" x="442.416016"/>
      <use xlink:href="#DejaVuSans-6e" x="505.599609"/>
      <use xlink:href="#DejaVuSans-65" x="568.978516"/>
      <use xlink:href="#DejaVuSans-72" x="630.501953"/>
      <use xlink:href="#DejaVuSans-67" x="669.865234"/>
      <use xlink:href="#DejaVuSans-79" x="733.341797"/>
     </g>
    </g>
   </g>
   <g id="line2d_15">
    <path d="M 69.218182 220.4712 
L 70.747647 229.92984 
L 72.277113 223.62408 
L 73.806578 220.25376 
L 75.336044 225.03744 
L 76.865509 220.03632 
L 78.394975 222.86304 
L 79.92444 221.44968 
L 81.453906 217.42704 
L 82.983371 220.25376 
L 84.512837 209.16432 
L 87.571768 217.97064 
L 89.101233 206.98992 
L 90.630699 206.77248 
L 92.160164 207.75096 
L 93.68963 199.59696 
L 95.219095 202.20624 
L 96.748561 211.12128 
L 98.278026 207.4248 
L 99.807492 201.01032 
L 101.336958 201.22776 
L 102.866423 202.31496 
L 104.395889 201.66264 
L 105.925354 201.33648 
L 107.45482 202.31496 
L 108.984285 202.96728 
L 110.513751 198.83592 
L 112.043216 202.5324 
L 113.572682 201.22776 
L 115.102147 195.90048 
L 116.631613 205.14168 
L 118.161078 196.11792 
L 119.690544 198.83592 
L 121.220009 200.68416 
L 122.749475 202.20624 
L 124.27894 194.16096 
L 125.808406 199.37952 
L 127.337871 205.14168 
L 128.867337 200.79288 
L 130.396802 196.0092 
L 131.926268 206.22888 
L 133.455733 197.20512 
L 134.985199 200.358 
L 136.514664 201.01032 
L 138.04413 200.57544 
L 139.573595 198.7272 
L 141.103061 199.48824 
L 142.632526 191.87784 
L 144.161992 191.44296 
L 145.691457 194.48712 
L 147.220923 198.29232 
L 148.750388 197.31384 
L 150.279854 202.85856 
L 151.809319 195.90048 
L 153.338785 203.83704 
L 154.86825 206.3376 
L 156.397716 197.20512 
L 157.927181 206.55504 
L 159.456647 192.7476 
L 160.986112 196.5528 
L 162.515578 196.33536 
L 164.045043 200.68416 
L 165.574509 199.8144 
L 167.103974 194.922 
L 168.63344 199.16208 
L 170.162905 192.96504 
L 171.692371 196.11792 
L 173.221836 191.1168 
L 174.751302 197.0964 
L 176.280767 198.07488 
L 177.810233 195.57432 
L 179.339698 191.22552 
L 180.869164 192.31272 
L 182.39863 194.70456 
L 183.928095 191.44296 
L 185.457561 189.486 
L 186.987026 191.44296 
L 188.516492 189.92088 
L 190.045957 190.13832 
L 191.575423 190.89936 
L 193.104888 192.42144 
L 194.634354 190.79064 
L 196.163819 189.92088 
L 197.693285 193.94352 
L 199.22275 193.2912 
L 200.752216 194.81328 
L 202.281681 184.81104 
L 203.811147 187.96392 
L 205.340612 185.1372 
L 206.870078 188.72496 
L 208.399543 190.89936 
L 209.929009 192.85632 
L 211.458474 187.52904 
L 212.98794 187.8552 
L 214.517405 196.66152 
L 216.046871 186.87672 
L 217.576336 191.22552 
L 219.105802 183.39768 
L 220.635267 191.22552 
L 222.164733 193.18248 
L 223.694198 183.61512 
L 225.223664 182.85408 
L 226.753129 185.35464 
L 228.282595 194.59584 
L 229.81206 188.50752 
L 231.341526 193.72608 
L 232.870991 181.11456 
L 234.400457 192.42144 
L 235.929922 189.15984 
L 237.459388 192.09528 
L 238.988853 186.33312 
L 240.518319 190.68192 
L 242.047784 196.77024 
L 243.57725 194.16096 
L 245.106715 187.3116 
L 246.636181 186.2244 
L 248.165646 185.57208 
L 249.695112 186.55056 
L 251.224577 190.89936 
L 252.754043 187.63776 
L 254.283508 190.68192 
L 255.812974 186.00696 
L 257.342439 186.768 
L 258.871905 185.89824 
L 260.40137 183.83256 
L 261.930836 183.39768 
L 263.460302 184.48488 
L 264.989767 185.89824 
L 266.519233 178.50528 
L 268.048698 181.44072 
L 269.578164 188.18136 
L 271.107629 191.44296 
L 272.637095 187.8552 
L 274.16656 188.83368 
L 275.696026 181.11456 
L 277.225491 177.09192 
L 278.754957 183.61512 
L 280.284422 184.37616 
L 281.813888 184.91976 
L 283.343353 178.0704 
L 284.872819 181.332 
L 286.402284 175.896 
L 287.93175 184.05 
L 289.461215 185.24592 
L 290.990681 180.13608 
L 292.520146 178.614 
L 294.049612 187.09416 
L 295.579077 179.91864 
L 297.108543 174.48264 
L 298.638008 179.48376 
L 300.167474 176.65704 
L 301.696939 177.41808 
L 303.226405 179.37504 
L 304.75587 185.46336 
L 307.814801 175.3524 
L 309.344267 178.614 
L 310.873732 180.46224 
L 312.403198 180.13608 
L 313.932663 185.35464 
L 315.462129 178.39656 
L 316.991594 184.37616 
L 318.52106 175.56984 
L 320.050525 184.81104 
L 321.579991 180.2448 
L 323.109456 179.7012 
L 324.638922 181.76688 
L 326.168387 177.41808 
L 327.697853 185.78952 
L 329.227318 179.59248 
L 330.756784 174.48264 
L 332.286249 172.85184 
L 333.815715 175.56984 
L 335.34518 177.09192 
L 336.874646 177.30936 
L 338.404111 175.56984 
L 339.933577 183.07152 
L 341.463042 183.07152 
L 342.992508 177.85296 
L 344.521974 178.72272 
L 346.051439 182.52792 
L 347.580905 181.11456 
L 349.11037 174.91752 
L 350.639836 178.72272 
L 352.169301 179.48376 
L 353.698767 176.87448 
L 355.228232 178.0704 
L 356.757698 171.98208 
L 358.287163 177.85296 
L 359.816629 170.13384 
L 361.346094 172.96056 
L 362.87556 177.5268 
L 364.405025 178.28784 
L 365.934491 177.30936 
L 367.463956 178.39656 
L 368.993422 175.24368 
L 370.522887 178.94016 
L 372.052353 170.46 
L 373.581818 169.3728 
L 373.581818 169.3728 
" clip-path="url(#p2730714989)" style="fill: none; stroke: #1f77b4; stroke-width: 1.5; stroke-linecap: square"/>
   </g>
   <g id="line2d_16">
    <path d="M 69.218182 235.90944 
L 373.581818 235.90944 
L 373.581818 235.90944 
" clip-path="url(#p2730714989)" style="fill: none; stroke-dasharray: 5.55,2.4; stroke-dashoffset: 0; stroke: #ff7f0e; stroke-width: 1.5"/>
   </g>
   <g id="line2d_17">
    <path d="M 69.218182 101.09664 
L 373.581818 101.09664 
L 373.581818 101.09664 
" clip-path="url(#p2730714989)" style="fill: none; stroke-dasharray: 5.55,2.4; stroke-dashoffset: 0; stroke: #2ca02c; stroke-width: 1.5"/>
   </g>
   <g id="patch_3">
    <path d="M 54 252 
L 54 34.56 
" style="fill: none; stroke: #000000; stroke-width: 0.8; stroke-linejoin: miter; stroke-linecap: square"/>
   </g>
   <g id="patch_4">
    <path d="M 388.8 252 
L 388.8 34.56 
" style="fill: none; stroke: #000000; stroke-width: 0.8; stroke-linejoin: miter; stroke-linecap: square"/>
   </g>
   <g id="patch_5">
    <path d="M 54 252 
L 388.8 252 
" style="fill: none; stroke: #000000; stroke-width: 0.8; stroke-linejoin: miter; stroke-linecap: square"/>
   </g>
   <g id="patch_6">
    <path d="M 54 34.56 
L 388.8 34.56 
" style="fill: none; stroke: #000000; stroke-width: 0.8; stroke-linejoin: miter; stroke-linecap: square"/>
   </g>
   <g id="text_17">
    <!-- Ladder -->
    <g transform="translate(200.603438 28.56)scale(0.12 -0.12)">
     <defs>
      <path id="DejaVuSans-4c" d="M 628 4666 
L 1259 4666 
L 1259 531 
L 3531 531 
L 3531 0 
L 628 0 
L 628 4666 
z
" transform="scale(0.015625)"/>
      <path id="DejaVuSans-64" d="M 2906 2969 
L 2906 4863 
L 3481 4863 
L 3481 0 
L 2906 0 
L 2906 525 
Q 2725 213 2448 61 
Q 2172 -91 1784 -91 
Q 1150 -91 751 415 
Q 353 922 353 1747 
Q 353 2572 751 3078 
Q 1150 3584 1784 3584 
Q 2172 3584 2448 3432 
Q 2725 3281 2906 2969 
z
M 947 1747 
Q 947 1113 1208 752 
Q 1469 391 1925 391 
Q 2381 391 2643 752 
Q 2906 1113 2906 1747 
Q 2906 2381 2643 2742 
Q 2381 3103 1925 3103 
Q 1469 3103 1208 2742 
Q 947 2381 947 1747 
z
" transform="scale(0.015625)"/>
     </defs>
     <use xlink:href="#DejaVuSans-4c"/>
     <use xlink:href="#DejaVuSans-61" x="55.712891"/>
     <use xlink:href="#DejaVuSans-64" x="116.992188"/>
     <use xlink:href="#DejaVuSans-64" x="180.46875"/>
     <use xlink:href="#DejaVuSans-65" x="243.945312"/>
     <use xlink:href="#DejaVuSans-72" x="305.46875"/>
    </g>
   </g>
   <g id="legend_1">
    <g id="patch_7">
     <path d="M 61 86.8725 
L 214.870313 86.8725 
Q 216.870313 86.8725 216.870313 84.8725 
L 216.870313 41.56 
Q 216.870313 39.56 214.870313 39.56 
L 61 39.56 
Q 59 39.56 59 41.56 
L 59 84.8725 
Q 59 86.8725 61 86.8725 
z
" style="fill: #ffffff; opacity: 0.8; stroke: #cccccc; stroke-linejoin: miter"/>
    </g>
    <g id="line2d_18">
     <path d="M 63 47.658437 
L 73 47.658437 
L 83 47.658437 
" style="fill: none; stroke: #1f77b4; stroke-width: 1.5; stroke-linecap: square"/>
    </g>
    <g id="text_18">
     <!-- training on ladder graph -->
     <g transform="translate(91 51.158437)scale(0.1 -0.1)">
      <defs>
       <path id="DejaVuSans-6c" d="M 603 4863 
L 1178 4863 
L 1178 0 
L 603 0 
L 603 4863 
z
" transform="scale(0.015625)"/>
       <path id="DejaVuSans-70" d="M 1159 525 
L 1159 -1331 
L 581 -1331 
L 581 3500 
L 1159 3500 
L 1159 2969 
Q 1341 3281 1617 3432 
Q 1894 3584 2278 3584 
Q 2916 3584 3314 3078 
Q 3713 2572 3713 1747 
Q 3713 922 3314 415 
Q 2916 -91 2278 -91 
Q 1894 -91 1617 61 
Q 1341 213 1159 525 
z
M 3116 1747 
Q 3116 2381 2855 2742 
Q 2594 3103 2138 3103 
Q 1681 3103 1420 2742 
Q 1159 2381 1159 1747 
Q 1159 1113 1420 752 
Q 1681 391 2138 391 
Q 2594 391 2855 752 
Q 3116 1113 3116 1747 
z
" transform="scale(0.015625)"/>
       <path id="DejaVuSans-68" d="M 3513 2113 
L 3513 0 
L 2938 0 
L 2938 2094 
Q 2938 2591 2744 2837 
Q 2550 3084 2163 3084 
Q 1697 3084 1428 2787 
Q 1159 2491 1159 1978 
L 1159 0 
L 581 0 
L 581 4863 
L 1159 4863 
L 1159 2956 
Q 1366 3272 1645 3428 
Q 1925 3584 2291 3584 
Q 2894 3584 3203 3211 
Q 3513 2838 3513 2113 
z
" transform="scale(0.015625)"/>
      </defs>
      <use xlink:href="#DejaVuSans-74"/>
      <use xlink:href="#DejaVuSans-72" x="39.208984"/>
      <use xlink:href="#DejaVuSans-61" x="80.322266"/>
      <use xlink:href="#DejaVuSans-69" x="141.601562"/>
      <use xlink:href="#DejaVuSans-6e" x="169.384766"/>
      <use xlink:href="#DejaVuSans-69" x="232.763672"/>
      <use xlink:href="#DejaVuSans-6e" x="260.546875"/>
      <use xlink:href="#DejaVuSans-67" x="323.925781"/>
      <use xlink:href="#DejaVuSans-20" x="387.402344"/>
      <use xlink:href="#DejaVuSans-6f" x="419.189453"/>
      <use xlink:href="#DejaVuSans-6e" x="480.371094"/>
      <use xlink:href="#DejaVuSans-20" x="543.75"/>
      <use xlink:href="#DejaVuSans-6c" x="575.537109"/>
      <use xlink:href="#DejaVuSans-61" x="603.320312"/>
      <use xlink:href="#DejaVuSans-64" x="664.599609"/>
      <use xlink:href="#DejaVuSans-64" x="728.076172"/>
      <use xlink:href="#DejaVuSans-65" x="791.552734"/>
      <use xlink:href="#DejaVuSans-72" x="853.076172"/>
      <use xlink:href="#DejaVuSans-20" x="894.189453"/>
      <use xlink:href="#DejaVuSans-67" x="925.976562"/>
      <use xlink:href="#DejaVuSans-72" x="989.453125"/>
      <use xlink:href="#DejaVuSans-61" x="1030.566406"/>
      <use xlink:href="#DejaVuSans-70" x="1091.845703"/>
      <use xlink:href="#DejaVuSans-68" x="1155.322266"/>
     </g>
    </g>
    <g id="line2d_19">
     <path d="M 63 62.336562 
L 73 62.336562 
L 83 62.336562 
" style="fill: none; stroke-dasharray: 5.55,2.4; stroke-dashoffset: 0; stroke: #ff7f0e; stroke-width: 1.5"/>
    </g>
    <g id="text_19">
     <!-- transfer learning -->
     <g transform="translate(91 65.836562)scale(0.1 -0.1)">
      <defs>
       <path id="DejaVuSans-73" d="M 2834 3397 
L 2834 2853 
Q 2591 2978 2328 3040 
Q 2066 3103 1784 3103 
Q 1356 3103 1142 2972 
Q 928 2841 928 2578 
Q 928 2378 1081 2264 
Q 1234 2150 1697 2047 
L 1894 2003 
Q 2506 1872 2764 1633 
Q 3022 1394 3022 966 
Q 3022 478 2636 193 
Q 2250 -91 1575 -91 
Q 1294 -91 989 -36 
Q 684 19 347 128 
L 347 722 
Q 666 556 975 473 
Q 1284 391 1588 391 
Q 1994 391 2212 530 
Q 2431 669 2431 922 
Q 2431 1156 2273 1281 
Q 2116 1406 1581 1522 
L 1381 1569 
Q 847 1681 609 1914 
Q 372 2147 372 2553 
Q 372 3047 722 3315 
Q 1072 3584 1716 3584 
Q 2034 3584 2315 3537 
Q 2597 3491 2834 3397 
z
" transform="scale(0.015625)"/>
       <path id="DejaVuSans-66" d="M 2375 4863 
L 2375 4384 
L 1825 4384 
Q 1516 4384 1395 4259 
Q 1275 4134 1275 3809 
L 1275 3500 
L 2222 3500 
L 2222 3053 
L 1275 3053 
L 1275 0 
L 697 0 
L 697 3053 
L 147 3053 
L 147 3500 
L 697 3500 
L 697 3744 
Q 697 4328 969 4595 
Q 1241 4863 1831 4863 
L 2375 4863 
z
" transform="scale(0.015625)"/>
      </defs>
      <use xlink:href="#DejaVuSans-74"/>
      <use xlink:href="#DejaVuSans-72" x="39.208984"/>
      <use xlink:href="#DejaVuSans-61" x="80.322266"/>
      <use xlink:href="#DejaVuSans-6e" x="141.601562"/>
      <use xlink:href="#DejaVuSans-73" x="204.980469"/>
      <use xlink:href="#DejaVuSans-66" x="257.080078"/>
      <use xlink:href="#DejaVuSans-65" x="292.285156"/>
      <use xlink:href="#DejaVuSans-72" x="353.808594"/>
      <use xlink:href="#DejaVuSans-20" x="394.921875"/>
      <use xlink:href="#DejaVuSans-6c" x="426.708984"/>
      <use xlink:href="#DejaVuSans-65" x="454.492188"/>
      <use xlink:href="#DejaVuSans-61" x="516.015625"/>
      <use xlink:href="#DejaVuSans-72" x="577.294922"/>
      <use xlink:href="#DejaVuSans-6e" x="616.658203"/>
      <use xlink:href="#DejaVuSans-69" x="680.037109"/>
      <use xlink:href="#DejaVuSans-6e" x="707.820312"/>
      <use xlink:href="#DejaVuSans-67" x="771.199219"/>
     </g>
    </g>
    <g id="line2d_20">
     <path d="M 63 77.014687 
L 73 77.014687 
L 83 77.014687 
" style="fill: none; stroke-dasharray: 5.55,2.4; stroke-dashoffset: 0; stroke: #2ca02c; stroke-width: 1.5"/>
    </g>
    <g id="text_20">
     <!-- QAOA_4 -->
     <g transform="translate(91 80.514687)scale(0.1 -0.1)">
      <defs>
       <path id="DejaVuSans-51" d="M 2522 4238 
Q 1834 4238 1429 3725 
Q 1025 3213 1025 2328 
Q 1025 1447 1429 934 
Q 1834 422 2522 422 
Q 3209 422 3611 934 
Q 4013 1447 4013 2328 
Q 4013 3213 3611 3725 
Q 3209 4238 2522 4238 
z
M 3406 84 
L 4238 -825 
L 3475 -825 
L 2784 -78 
Q 2681 -84 2626 -87 
Q 2572 -91 2522 -91 
Q 1538 -91 948 567 
Q 359 1225 359 2328 
Q 359 3434 948 4092 
Q 1538 4750 2522 4750 
Q 3503 4750 4090 4092 
Q 4678 3434 4678 2328 
Q 4678 1516 4351 937 
Q 4025 359 3406 84 
z
" transform="scale(0.015625)"/>
       <path id="DejaVuSans-4f" d="M 2522 4238 
Q 1834 4238 1429 3725 
Q 1025 3213 1025 2328 
Q 1025 1447 1429 934 
Q 1834 422 2522 422 
Q 3209 422 3611 934 
Q 4013 1447 4013 2328 
Q 4013 3213 3611 3725 
Q 3209 4238 2522 4238 
z
M 2522 4750 
Q 3503 4750 4090 4092 
Q 4678 3434 4678 2328 
Q 4678 1225 4090 567 
Q 3503 -91 2522 -91 
Q 1538 -91 948 565 
Q 359 1222 359 2328 
Q 359 3434 948 4092 
Q 1538 4750 2522 4750 
z
" transform="scale(0.015625)"/>
       <path id="DejaVuSans-5f" d="M 3263 -1063 
L 3263 -1509 
L -63 -1509 
L -63 -1063 
L 3263 -1063 
z
" transform="scale(0.015625)"/>
       <path id="DejaVuSans-34" d="M 2419 4116 
L 825 1625 
L 2419 1625 
L 2419 4116 
z
M 2253 4666 
L 3047 4666 
L 3047 1625 
L 3713 1625 
L 3713 1100 
L 3047 1100 
L 3047 0 
L 2419 0 
L 2419 1100 
L 313 1100 
L 313 1709 
L 2253 4666 
z
" transform="scale(0.015625)"/>
      </defs>
      <use xlink:href="#DejaVuSans-51"/>
      <use xlink:href="#DejaVuSans-41" x="78.710938"/>
      <use xlink:href="#DejaVuSans-4f" x="145.369141"/>
      <use xlink:href="#DejaVuSans-41" x="222.330078"/>
      <use xlink:href="#DejaVuSans-5f" x="290.738281"/>
      <use xlink:href="#DejaVuSans-34" x="340.738281"/>
     </g>
    </g>
   </g>
  </g>
 </g>
 <defs>
  <clipPath id="p2730714989">
   <rect x="54" y="34.56" width="334.8" height="217.44"/>
  </clipPath>
 </defs>
</svg>
