<?xml version="1.0" encoding="utf-8" standalone="no"?>
<!DOCTYPE svg PUBLIC "-//W3C//DTD SVG 1.1//EN"
  "http://www.w3.org/Graphics/SVG/1.1/DTD/svg11.dtd">
<svg xmlns:xlink="http://www.w3.org/1999/xlink" width="432pt" height="288pt" viewBox="0 0 432 288" xmlns="http://www.w3.org/2000/svg" version="1.1">
 <metadata>
  <rdf:RDF xmlns:dc="http://purl.org/dc/elements/1.1/" xmlns:cc="http://creativecommons.org/ns#" xmlns:rdf="http://www.w3.org/1999/02/22-rdf-syntax-ns#">
   <cc:Work>
    <dc:type rdf:resource="http://purl.org/dc/dcmitype/StillImage"/>
    <dc:date>2023-06-27T08:53:35.734804</dc:date>
    <dc:format>image/svg+xml</dc:format>
    <dc:creator>
     <cc:Agent>
      <dc:title>Matplotlib v3.5.2, https://matplotlib.org/</dc:title>
     </cc:Agent>
    </dc:creator>
   </cc:Work>
  </rdf:RDF>
 </metadata>
 <defs>
  <style type="text/css">*{stroke-linejoin: round; stroke-linecap: butt}</style>
 </defs>
 <g id="figure_1">
  <g id="patch_1">
   <path d="M 0 288 
L 432 288 
L 432 0 
L 0 0 
L 0 288 
z
" style="fill: none"/>
  </g>
  <g id="axes_1">
   <g id="patch_2">
    <path d="M 54 252 
L 388.8 252 
L 388.8 34.56 
L 54 34.56 
z
" style="fill: #ffffff"/>
   </g>
   <g id="PolyCollection_1">
    <path d="M 69.218182 221.751829 
L 69.218182 218.625227 
L 70.747647 218.00507 
L 72.277113 216.206074 
L 73.806578 215.360705 
L 75.336044 214.502615 
L 76.865509 214.179034 
L 78.394975 213.012898 
L 79.92444 211.951003 
L 81.453906 211.141546 
L 82.983371 211.074174 
L 84.512837 208.93957 
L 86.042302 206.567111 
L 87.571768 205.101004 
L 89.101233 205.747948 
L 90.630699 205.089694 
L 92.160164 203.66869 
L 93.68963 203.514738 
L 95.219095 201.97306 
L 96.748561 201.329154 
L 98.278026 201.213965 
L 99.807492 201.215765 
L 101.336958 197.493581 
L 102.866423 199.278324 
L 104.395889 195.027137 
L 105.925354 194.518159 
L 107.45482 192.559529 
L 108.984285 193.74494 
L 110.513751 191.45923 
L 112.043216 189.331391 
L 113.572682 193.718701 
L 115.102147 193.398881 
L 116.631613 193.951777 
L 118.161078 194.299573 
L 119.690544 192.152256 
L 121.220009 190.823307 
L 122.749475 192.365753 
L 124.27894 193.284064 
L 125.808406 194.04729 
L 127.337871 194.648059 
L 128.867337 194.97631 
L 130.396802 191.219203 
L 131.926268 195.650704 
L 133.455733 192.208516 
L 134.985199 195.868495 
L 136.514664 191.685132 
L 138.04413 193.684979 
L 139.573595 194.692306 
L 141.103061 192.235886 
L 142.632526 192.793063 
L 144.161992 192.414225 
L 145.691457 193.229284 
L 147.220923 193.944062 
L 148.750388 191.769831 
L 150.279854 193.365836 
L 151.809319 190.953165 
L 153.338785 191.133055 
L 154.86825 188.794093 
L 156.397716 192.652083 
L 157.927181 191.374334 
L 159.456647 192.71126 
L 160.986112 190.056824 
L 162.515578 191.180732 
L 164.045043 189.455883 
L 165.574509 190.749494 
L 167.103974 191.234346 
L 168.63344 189.611297 
L 170.162905 187.403905 
L 171.692371 187.851248 
L 173.221836 186.483386 
L 174.751302 185.229763 
L 176.280767 188.089765 
L 177.810233 184.520187 
L 179.339698 187.295114 
L 180.869164 188.353668 
L 182.39863 186.989342 
L 183.928095 186.304428 
L 185.457561 185.702493 
L 186.987026 190.088705 
L 188.516492 186.582106 
L 190.045957 186.825325 
L 191.575423 182.588375 
L 193.104888 184.122957 
L 194.634354 184.452074 
L 196.163819 184.630032 
L 197.693285 183.916581 
L 199.22275 181.303793 
L 200.752216 181.198539 
L 202.281681 180.813084 
L 203.811147 181.958064 
L 205.340612 179.272369 
L 206.870078 181.281196 
L 208.399543 182.450437 
L 209.929009 181.111974 
L 211.458474 181.069657 
L 212.98794 182.23892 
L 214.517405 183.310451 
L 216.046871 183.403383 
L 217.576336 182.931501 
L 219.105802 185.550921 
L 220.635267 183.647002 
L 222.164733 184.125315 
L 223.694198 182.302111 
L 225.223664 183.120768 
L 226.753129 183.870358 
L 228.282595 185.164531 
L 229.81206 183.916145 
L 231.341526 182.048999 
L 232.870991 183.848276 
L 234.400457 185.30022 
L 235.929922 185.772754 
L 237.459388 184.606269 
L 238.988853 185.394753 
L 240.518319 184.38342 
L 242.047784 181.227636 
L 243.57725 182.21942 
L 245.106715 181.365533 
L 246.636181 184.020653 
L 248.165646 182.575372 
L 249.695112 182.607535 
L 251.224577 183.510096 
L 252.754043 183.545253 
L 254.283508 181.85743 
L 255.812974 180.828674 
L 257.342439 180.517766 
L 258.871905 180.569009 
L 260.40137 179.264751 
L 261.930836 177.073542 
L 263.460302 178.728663 
L 264.989767 179.048299 
L 266.519233 178.88883 
L 268.048698 178.450183 
L 269.578164 178.862944 
L 271.107629 179.64018 
L 272.637095 179.238574 
L 274.16656 177.261081 
L 275.696026 179.812155 
L 277.225491 174.573594 
L 278.754957 174.503396 
L 280.284422 173.714754 
L 281.813888 175.53714 
L 283.343353 173.920768 
L 284.872819 175.817513 
L 286.402284 173.608088 
L 287.93175 171.832853 
L 289.461215 174.162532 
L 290.990681 176.0606 
L 292.520146 176.371279 
L 294.049612 175.609423 
L 295.579077 173.109392 
L 297.108543 174.371715 
L 298.638008 176.225786 
L 300.167474 175.84268 
L 301.696939 175.220506 
L 303.226405 174.071532 
L 304.75587 175.886673 
L 306.285336 175.48268 
L 307.814801 172.412922 
L 309.344267 173.534846 
L 310.873732 172.370988 
L 312.403198 173.747001 
L 313.932663 172.32419 
L 315.462129 172.388032 
L 316.991594 171.23448 
L 318.52106 172.052751 
L 320.050525 173.988263 
L 321.579991 171.555452 
L 323.109456 174.374866 
L 324.638922 176.026065 
L 326.168387 173.563414 
L 327.697853 172.340884 
L 329.227318 175.963784 
L 330.756784 172.749571 
L 332.286249 173.574587 
L 333.815715 172.431488 
L 335.34518 173.106022 
L 336.874646 174.430999 
L 338.404111 173.516701 
L 339.933577 170.57626 
L 341.463042 172.995326 
L 342.992508 170.760055 
L 344.521974 175.349928 
L 346.051439 172.952657 
L 347.580905 173.109977 
L 349.11037 171.618542 
L 350.639836 175.931432 
L 352.169301 173.358588 
L 353.698767 172.285002 
L 355.228232 173.465232 
L 356.757698 168.66916 
L 358.287163 174.01928 
L 359.816629 171.79085 
L 361.346094 172.974977 
L 362.87556 171.713539 
L 364.405025 169.888326 
L 365.934491 170.900382 
L 367.463956 172.16693 
L 368.993422 172.780248 
L 370.522887 170.125063 
L 372.052353 171.432553 
L 373.581818 171.759783 
L 373.581818 175.074585 
L 373.581818 175.074585 
L 372.052353 175.467047 
L 370.522887 176.948489 
L 368.993422 175.945848 
L 367.463956 176.733118 
L 365.934491 176.695026 
L 364.405025 176.467674 
L 362.87556 177.838829 
L 361.346094 177.273199 
L 359.816629 177.60931 
L 358.287163 178.272832 
L 356.757698 177.882536 
L 355.228232 178.022352 
L 353.698767 176.875974 
L 352.169301 179.585844 
L 350.639836 177.817528 
L 349.11037 175.868146 
L 347.580905 177.855751 
L 346.051439 178.404463 
L 344.521974 180.421224 
L 342.992508 180.792761 
L 341.463042 179.64469 
L 339.933577 180.193772 
L 338.404111 179.819123 
L 336.874646 180.035513 
L 335.34518 183.10001 
L 333.815715 179.056096 
L 332.286249 180.804949 
L 330.756784 178.716269 
L 329.227318 179.481208 
L 327.697853 176.580908 
L 326.168387 180.924842 
L 324.638922 180.767055 
L 323.109456 180.374318 
L 321.579991 181.258516 
L 320.050525 180.413017 
L 318.52106 182.044113 
L 316.991594 181.405536 
L 315.462129 180.621632 
L 313.932663 183.142546 
L 312.403198 183.698439 
L 310.873732 181.225764 
L 309.344267 185.236978 
L 307.814801 181.140342 
L 306.285336 181.897528 
L 304.75587 182.080623 
L 303.226405 180.481956 
L 301.696939 183.486086 
L 300.167474 182.320312 
L 298.638008 181.63279 
L 297.108543 183.486861 
L 295.579077 182.074672 
L 294.049612 181.727297 
L 292.520146 184.640177 
L 290.990681 182.667736 
L 289.461215 181.4999 
L 287.93175 183.090283 
L 286.402284 184.120024 
L 284.872819 182.715127 
L 283.343353 185.220704 
L 281.813888 185.409084 
L 280.284422 181.491054 
L 278.754957 182.15926 
L 277.225491 183.959046 
L 275.696026 186.156933 
L 274.16656 184.272231 
L 272.637095 188.578754 
L 271.107629 186.089724 
L 269.578164 187.258352 
L 268.048698 187.910297 
L 266.519233 187.819554 
L 264.989767 187.594853 
L 263.460302 188.110185 
L 261.930836 188.025786 
L 260.40137 187.856769 
L 258.871905 189.053071 
L 257.342439 189.539194 
L 255.812974 188.554222 
L 254.283508 187.938602 
L 252.754043 187.272747 
L 251.224577 188.0472 
L 249.695112 188.427905 
L 248.165646 188.177396 
L 246.636181 188.536867 
L 245.106715 190.778851 
L 243.57725 188.359396 
L 242.047784 190.721052 
L 240.518319 188.804676 
L 238.988853 190.511343 
L 237.459388 192.039123 
L 235.929922 192.416462 
L 234.400457 191.236452 
L 232.870991 191.579452 
L 231.341526 191.030377 
L 229.81206 194.099119 
L 228.282595 192.394109 
L 226.753129 190.274474 
L 225.223664 191.9808 
L 223.694198 191.603537 
L 222.164733 195.368541 
L 220.635267 193.150598 
L 219.105802 191.616327 
L 217.576336 190.561011 
L 216.046871 193.263753 
L 214.517405 191.725885 
L 212.98794 192.145096 
L 211.458474 193.270871 
L 209.929009 194.641914 
L 208.399543 195.738779 
L 206.870078 195.668612 
L 205.340612 194.350607 
L 203.811147 191.7084 
L 202.281681 193.918836 
L 200.752216 194.533605 
L 199.22275 194.515327 
L 197.693285 193.598571 
L 196.163819 192.711168 
L 194.634354 193.802374 
L 193.104888 194.153235 
L 191.575423 193.926553 
L 190.045957 195.951875 
L 188.516492 196.195094 
L 186.987026 194.493247 
L 185.457561 195.052515 
L 183.928095 196.451028 
L 182.39863 198.375394 
L 180.869164 197.271996 
L 179.339698 198.395782 
L 177.810233 197.387253 
L 176.280767 200.427851 
L 174.751302 197.199533 
L 173.221836 200.359942 
L 171.692371 198.861616 
L 170.162905 200.439647 
L 168.63344 202.472335 
L 167.103974 201.806022 
L 165.574509 202.660522 
L 164.045043 203.693205 
L 162.515578 203.72962 
L 160.986112 201.526696 
L 159.456647 202.46002 
L 157.927181 201.687778 
L 156.397716 198.583533 
L 154.86825 197.940515 
L 153.338785 201.689873 
L 151.809319 200.108499 
L 150.279854 198.761284 
L 148.750388 201.074841 
L 147.220923 202.227442 
L 145.691457 200.854796 
L 144.161992 201.104511 
L 142.632526 201.769385 
L 141.103061 199.195426 
L 139.573595 199.739678 
L 138.04413 199.920733 
L 136.514664 199.593972 
L 134.985199 199.802897 
L 133.455733 200.527436 
L 131.926268 201.129632 
L 130.396802 200.581757 
L 128.867337 202.021466 
L 127.337871 202.545413 
L 125.808406 201.406662 
L 124.27894 202.169888 
L 122.749475 200.826823 
L 121.220009 202.412757 
L 119.690544 203.040768 
L 118.161078 204.502955 
L 116.631613 204.937727 
L 115.102147 203.642383 
L 113.572682 205.388243 
L 112.043216 203.904673 
L 110.513751 203.037986 
L 108.984285 204.405268 
L 107.45482 205.047079 
L 105.925354 207.632945 
L 104.395889 206.906527 
L 102.866423 206.02566 
L 101.336958 204.266131 
L 99.807492 204.479611 
L 98.278026 205.220707 
L 96.748561 204.692382 
L 95.219095 205.353116 
L 93.68963 204.920382 
L 92.160164 205.984094 
L 90.630699 207.128882 
L 89.101233 206.948996 
L 87.571768 208.965812 
L 86.042302 210.609097 
L 84.512837 214.411934 
L 82.983371 213.429762 
L 81.453906 213.862502 
L 79.92444 215.510117 
L 78.394975 215.165774 
L 76.865509 215.956598 
L 75.336044 215.328601 
L 73.806578 218.971519 
L 72.277113 217.713014 
L 70.747647 220.154098 
L 69.218182 221.751829 
z
" clip-path="url(#p2be703830d)" style="fill: #1f77b4; fill-opacity: 0.5"/>
   </g>
   <g id="PolyCollection_2">
    <path d="M 69.218182 226.668588 
L 69.218182 224.276052 
L 70.747647 224.276052 
L 72.277113 224.276052 
L 73.806578 224.276052 
L 75.336044 224.276052 
L 76.865509 224.276052 
L 78.394975 224.276052 
L 79.92444 224.276052 
L 81.453906 224.276052 
L 82.983371 224.276052 
L 84.512837 224.276052 
L 86.042302 224.276052 
L 87.571768 224.276052 
L 89.101233 224.276052 
L 90.630699 224.276052 
L 92.160164 224.276052 
L 93.68963 224.276052 
L 95.219095 224.276052 
L 96.748561 224.276052 
L 98.278026 224.276052 
L 99.807492 224.276052 
L 101.336958 224.276052 
L 102.866423 224.276052 
L 104.395889 224.276052 
L 105.925354 224.276052 
L 107.45482 224.276052 
L 108.984285 224.276052 
L 110.513751 224.276052 
L 112.043216 224.276052 
L 113.572682 224.276052 
L 115.102147 224.276052 
L 116.631613 224.276052 
L 118.161078 224.276052 
L 119.690544 224.276052 
L 121.220009 224.276052 
L 122.749475 224.276052 
L 124.27894 224.276052 
L 125.808406 224.276052 
L 127.337871 224.276052 
L 128.867337 224.276052 
L 130.396802 224.276052 
L 131.926268 224.276052 
L 133.455733 224.276052 
L 134.985199 224.276052 
L 136.514664 224.276052 
L 138.04413 224.276052 
L 139.573595 224.276052 
L 141.103061 224.276052 
L 142.632526 224.276052 
L 144.161992 224.276052 
L 145.691457 224.276052 
L 147.220923 224.276052 
L 148.750388 224.276052 
L 150.279854 224.276052 
L 151.809319 224.276052 
L 153.338785 224.276052 
L 154.86825 224.276052 
L 156.397716 224.276052 
L 157.927181 224.276052 
L 159.456647 224.276052 
L 160.986112 224.276052 
L 162.515578 224.276052 
L 164.045043 224.276052 
L 165.574509 224.276052 
L 167.103974 224.276052 
L 168.63344 224.276052 
L 170.162905 224.276052 
L 171.692371 224.276052 
L 173.221836 224.276052 
L 174.751302 224.276052 
L 176.280767 224.276052 
L 177.810233 224.276052 
L 179.339698 224.276052 
L 180.869164 224.276052 
L 182.39863 224.276052 
L 183.928095 224.276052 
L 185.457561 224.276052 
L 186.987026 224.276052 
L 188.516492 224.276052 
L 190.045957 224.276052 
L 191.575423 224.276052 
L 193.104888 224.276052 
L 194.634354 224.276052 
L 196.163819 224.276052 
L 197.693285 224.276052 
L 199.22275 224.276052 
L 200.752216 224.276052 
L 202.281681 224.276052 
L 203.811147 224.276052 
L 205.340612 224.276052 
L 206.870078 224.276052 
L 208.399543 224.276052 
L 209.929009 224.276052 
L 211.458474 224.276052 
L 212.98794 224.276052 
L 214.517405 224.276052 
L 216.046871 224.276052 
L 217.576336 224.276052 
L 219.105802 224.276052 
L 220.635267 224.276052 
L 222.164733 224.276052 
L 223.694198 224.276052 
L 225.223664 224.276052 
L 226.753129 224.276052 
L 228.282595 224.276052 
L 229.81206 224.276052 
L 231.341526 224.276052 
L 232.870991 224.276052 
L 234.400457 224.276052 
L 235.929922 224.276052 
L 237.459388 224.276052 
L 238.988853 224.276052 
L 240.518319 224.276052 
L 242.047784 224.276052 
L 243.57725 224.276052 
L 245.106715 224.276052 
L 246.636181 224.276052 
L 248.165646 224.276052 
L 249.695112 224.276052 
L 251.224577 224.276052 
L 252.754043 224.276052 
L 254.283508 224.276052 
L 255.812974 224.276052 
L 257.342439 224.276052 
L 258.871905 224.276052 
L 260.40137 224.276052 
L 261.930836 224.276052 
L 263.460302 224.276052 
L 264.989767 224.276052 
L 266.519233 224.276052 
L 268.048698 224.276052 
L 269.578164 224.276052 
L 271.107629 224.276052 
L 272.637095 224.276052 
L 274.16656 224.276052 
L 275.696026 224.276052 
L 277.225491 224.276052 
L 278.754957 224.276052 
L 280.284422 224.276052 
L 281.813888 224.276052 
L 283.343353 224.276052 
L 284.872819 224.276052 
L 286.402284 224.276052 
L 287.93175 224.276052 
L 289.461215 224.276052 
L 290.990681 224.276052 
L 292.520146 224.276052 
L 294.049612 224.276052 
L 295.579077 224.276052 
L 297.108543 224.276052 
L 298.638008 224.276052 
L 300.167474 224.276052 
L 301.696939 224.276052 
L 303.226405 224.276052 
L 304.75587 224.276052 
L 306.285336 224.276052 
L 307.814801 224.276052 
L 309.344267 224.276052 
L 310.873732 224.276052 
L 312.403198 224.276052 
L 313.932663 224.276052 
L 315.462129 224.276052 
L 316.991594 224.276052 
L 318.52106 224.276052 
L 320.050525 224.276052 
L 321.579991 224.276052 
L 323.109456 224.276052 
L 324.638922 224.276052 
L 326.168387 224.276052 
L 327.697853 224.276052 
L 329.227318 224.276052 
L 330.756784 224.276052 
L 332.286249 224.276052 
L 333.815715 224.276052 
L 335.34518 224.276052 
L 336.874646 224.276052 
L 338.404111 224.276052 
L 339.933577 224.276052 
L 341.463042 224.276052 
L 342.992508 224.276052 
L 344.521974 224.276052 
L 346.051439 224.276052 
L 347.580905 224.276052 
L 349.11037 224.276052 
L 350.639836 224.276052 
L 352.169301 224.276052 
L 353.698767 224.276052 
L 355.228232 224.276052 
L 356.757698 224.276052 
L 358.287163 224.276052 
L 359.816629 224.276052 
L 361.346094 224.276052 
L 362.87556 224.276052 
L 364.405025 224.276052 
L 365.934491 224.276052 
L 367.463956 224.276052 
L 368.993422 224.276052 
L 370.522887 224.276052 
L 372.052353 224.276052 
L 373.581818 224.276052 
L 373.581818 226.668588 
L 373.581818 226.668588 
L 372.052353 226.668588 
L 370.522887 226.668588 
L 368.993422 226.668588 
L 367.463956 226.668588 
L 365.934491 226.668588 
L 364.405025 226.668588 
L 362.87556 226.668588 
L 361.346094 226.668588 
L 359.816629 226.668588 
L 358.287163 226.668588 
L 356.757698 226.668588 
L 355.228232 226.668588 
L 353.698767 226.668588 
L 352.169301 226.668588 
L 350.639836 226.668588 
L 349.11037 226.668588 
L 347.580905 226.668588 
L 346.051439 226.668588 
L 344.521974 226.668588 
L 342.992508 226.668588 
L 341.463042 226.668588 
L 339.933577 226.668588 
L 338.404111 226.668588 
L 336.874646 226.668588 
L 335.34518 226.668588 
L 333.815715 226.668588 
L 332.286249 226.668588 
L 330.756784 226.668588 
L 329.227318 226.668588 
L 327.697853 226.668588 
L 326.168387 226.668588 
L 324.638922 226.668588 
L 323.109456 226.668588 
L 321.579991 226.668588 
L 320.050525 226.668588 
L 318.52106 226.668588 
L 316.991594 226.668588 
L 315.462129 226.668588 
L 313.932663 226.668588 
L 312.403198 226.668588 
L 310.873732 226.668588 
L 309.344267 226.668588 
L 307.814801 226.668588 
L 306.285336 226.668588 
L 304.75587 226.668588 
L 303.226405 226.668588 
L 301.696939 226.668588 
L 300.167474 226.668588 
L 298.638008 226.668588 
L 297.108543 226.668588 
L 295.579077 226.668588 
L 294.049612 226.668588 
L 292.520146 226.668588 
L 290.990681 226.668588 
L 289.461215 226.668588 
L 287.93175 226.668588 
L 286.402284 226.668588 
L 284.872819 226.668588 
L 283.343353 226.668588 
L 281.813888 226.668588 
L 280.284422 226.668588 
L 278.754957 226.668588 
L 277.225491 226.668588 
L 275.696026 226.668588 
L 274.16656 226.668588 
L 272.637095 226.668588 
L 271.107629 226.668588 
L 269.578164 226.668588 
L 268.048698 226.668588 
L 266.519233 226.668588 
L 264.989767 226.668588 
L 263.460302 226.668588 
L 261.930836 226.668588 
L 260.40137 226.668588 
L 258.871905 226.668588 
L 257.342439 226.668588 
L 255.812974 226.668588 
L 254.283508 226.668588 
L 252.754043 226.668588 
L 251.224577 226.668588 
L 249.695112 226.668588 
L 248.165646 226.668588 
L 246.636181 226.668588 
L 245.106715 226.668588 
L 243.57725 226.668588 
L 242.047784 226.668588 
L 240.518319 226.668588 
L 238.988853 226.668588 
L 237.459388 226.668588 
L 235.929922 226.668588 
L 234.400457 226.668588 
L 232.870991 226.668588 
L 231.341526 226.668588 
L 229.81206 226.668588 
L 228.282595 226.668588 
L 226.753129 226.668588 
L 225.223664 226.668588 
L 223.694198 226.668588 
L 222.164733 226.668588 
L 220.635267 226.668588 
L 219.105802 226.668588 
L 217.576336 226.668588 
L 216.046871 226.668588 
L 214.517405 226.668588 
L 212.98794 226.668588 
L 211.458474 226.668588 
L 209.929009 226.668588 
L 208.399543 226.668588 
L 206.870078 226.668588 
L 205.340612 226.668588 
L 203.811147 226.668588 
L 202.281681 226.668588 
L 200.752216 226.668588 
L 199.22275 226.668588 
L 197.693285 226.668588 
L 196.163819 226.668588 
L 194.634354 226.668588 
L 193.104888 226.668588 
L 191.575423 226.668588 
L 190.045957 226.668588 
L 188.516492 226.668588 
L 186.987026 226.668588 
L 185.457561 226.668588 
L 183.928095 226.668588 
L 182.39863 226.668588 
L 180.869164 226.668588 
L 179.339698 226.668588 
L 177.810233 226.668588 
L 176.280767 226.668588 
L 174.751302 226.668588 
L 173.221836 226.668588 
L 171.692371 226.668588 
L 170.162905 226.668588 
L 168.63344 226.668588 
L 167.103974 226.668588 
L 165.574509 226.668588 
L 164.045043 226.668588 
L 162.515578 226.668588 
L 160.986112 226.668588 
L 159.456647 226.668588 
L 157.927181 226.668588 
L 156.397716 226.668588 
L 154.86825 226.668588 
L 153.338785 226.668588 
L 151.809319 226.668588 
L 150.279854 226.668588 
L 148.750388 226.668588 
L 147.220923 226.668588 
L 145.691457 226.668588 
L 144.161992 226.668588 
L 142.632526 226.668588 
L 141.103061 226.668588 
L 139.573595 226.668588 
L 138.04413 226.668588 
L 136.514664 226.668588 
L 134.985199 226.668588 
L 133.455733 226.668588 
L 131.926268 226.668588 
L 130.396802 226.668588 
L 128.867337 226.668588 
L 127.337871 226.668588 
L 125.808406 226.668588 
L 124.27894 226.668588 
L 122.749475 226.668588 
L 121.220009 226.668588 
L 119.690544 226.668588 
L 118.161078 226.668588 
L 116.631613 226.668588 
L 115.102147 226.668588 
L 113.572682 226.668588 
L 112.043216 226.668588 
L 110.513751 226.668588 
L 108.984285 226.668588 
L 107.45482 226.668588 
L 105.925354 226.668588 
L 104.395889 226.668588 
L 102.866423 226.668588 
L 101.336958 226.668588 
L 99.807492 226.668588 
L 98.278026 226.668588 
L 96.748561 226.668588 
L 95.219095 226.668588 
L 93.68963 226.668588 
L 92.160164 226.668588 
L 90.630699 226.668588 
L 89.101233 226.668588 
L 87.571768 226.668588 
L 86.042302 226.668588 
L 84.512837 226.668588 
L 82.983371 226.668588 
L 81.453906 226.668588 
L 79.92444 226.668588 
L 78.394975 226.668588 
L 76.865509 226.668588 
L 75.336044 226.668588 
L 73.806578 226.668588 
L 72.277113 226.668588 
L 70.747647 226.668588 
L 69.218182 226.668588 
z
" clip-path="url(#p2be703830d)" style="fill: #ff7f0e; fill-opacity: 0.5"/>
   </g>
   <g id="matplotlib.axis_1">
    <g id="xtick_1">
     <g id="line2d_1">
      <defs>
       <path id="m291c4cd111" d="M 0 0 
L 0 3.5 
" style="stroke: #000000; stroke-width: 0.8"/>
      </defs>
      <g>
       <use xlink:href="#m291c4cd111" x="69.218182" y="252" style="stroke: #000000; stroke-width: 0.8"/>
      </g>
     </g>
     <g id="text_1">
      <!-- 0 -->
      <g transform="translate(66.036932 266.598437)scale(0.1 -0.1)">
       <defs>
        <path id="DejaVuSans-30" d="M 2034 4250 
Q 1547 4250 1301 3770 
Q 1056 3291 1056 2328 
Q 1056 1369 1301 889 
Q 1547 409 2034 409 
Q 2525 409 2770 889 
Q 3016 1369 3016 2328 
Q 3016 3291 2770 3770 
Q 2525 4250 2034 4250 
z
M 2034 4750 
Q 2819 4750 3233 4129 
Q 3647 3509 3647 2328 
Q 3647 1150 3233 529 
Q 2819 -91 2034 -91 
Q 1250 -91 836 529 
Q 422 1150 422 2328 
Q 422 3509 836 4129 
Q 1250 4750 2034 4750 
z
" transform="scale(0.015625)"/>
       </defs>
       <use xlink:href="#DejaVuSans-30"/>
      </g>
     </g>
    </g>
    <g id="xtick_2">
     <g id="line2d_2">
      <g>
       <use xlink:href="#m291c4cd111" x="107.45482" y="252" style="stroke: #000000; stroke-width: 0.8"/>
      </g>
     </g>
     <g id="text_2">
      <!-- 25 -->
      <g transform="translate(101.09232 266.598437)scale(0.1 -0.1)">
       <defs>
        <path id="DejaVuSans-32" d="M 1228 531 
L 3431 531 
L 3431 0 
L 469 0 
L 469 531 
Q 828 903 1448 1529 
Q 2069 2156 2228 2338 
Q 2531 2678 2651 2914 
Q 2772 3150 2772 3378 
Q 2772 3750 2511 3984 
Q 2250 4219 1831 4219 
Q 1534 4219 1204 4116 
Q 875 4013 500 3803 
L 500 4441 
Q 881 4594 1212 4672 
Q 1544 4750 1819 4750 
Q 2544 4750 2975 4387 
Q 3406 4025 3406 3419 
Q 3406 3131 3298 2873 
Q 3191 2616 2906 2266 
Q 2828 2175 2409 1742 
Q 1991 1309 1228 531 
z
" transform="scale(0.015625)"/>
        <path id="DejaVuSans-35" d="M 691 4666 
L 3169 4666 
L 3169 4134 
L 1269 4134 
L 1269 2991 
Q 1406 3038 1543 3061 
Q 1681 3084 1819 3084 
Q 2600 3084 3056 2656 
Q 3513 2228 3513 1497 
Q 3513 744 3044 326 
Q 2575 -91 1722 -91 
Q 1428 -91 1123 -41 
Q 819 9 494 109 
L 494 744 
Q 775 591 1075 516 
Q 1375 441 1709 441 
Q 2250 441 2565 725 
Q 2881 1009 2881 1497 
Q 2881 1984 2565 2268 
Q 2250 2553 1709 2553 
Q 1456 2553 1204 2497 
Q 953 2441 691 2322 
L 691 4666 
z
" transform="scale(0.015625)"/>
       </defs>
       <use xlink:href="#DejaVuSans-32"/>
       <use xlink:href="#DejaVuSans-35" x="63.623047"/>
      </g>
     </g>
    </g>
    <g id="xtick_3">
     <g id="line2d_3">
      <g>
       <use xlink:href="#m291c4cd111" x="145.691457" y="252" style="stroke: #000000; stroke-width: 0.8"/>
      </g>
     </g>
     <g id="text_3">
      <!-- 50 -->
      <g transform="translate(139.328957 266.598437)scale(0.1 -0.1)">
       <use xlink:href="#DejaVuSans-35"/>
       <use xlink:href="#DejaVuSans-30" x="63.623047"/>
      </g>
     </g>
    </g>
    <g id="xtick_4">
     <g id="line2d_4">
      <g>
       <use xlink:href="#m291c4cd111" x="183.928095" y="252" style="stroke: #000000; stroke-width: 0.8"/>
      </g>
     </g>
     <g id="text_4">
      <!-- 75 -->
      <g transform="translate(177.565595 266.598437)scale(0.1 -0.1)">
       <defs>
        <path id="DejaVuSans-37" d="M 525 4666 
L 3525 4666 
L 3525 4397 
L 1831 0 
L 1172 0 
L 2766 4134 
L 525 4134 
L 525 4666 
z
" transform="scale(0.015625)"/>
       </defs>
       <use xlink:href="#DejaVuSans-37"/>
       <use xlink:href="#DejaVuSans-35" x="63.623047"/>
      </g>
     </g>
    </g>
    <g id="xtick_5">
     <g id="line2d_5">
      <g>
       <use xlink:href="#m291c4cd111" x="222.164733" y="252" style="stroke: #000000; stroke-width: 0.8"/>
      </g>
     </g>
     <g id="text_5">
      <!-- 100 -->
      <g transform="translate(212.620983 266.598437)scale(0.1 -0.1)">
       <defs>
        <path id="DejaVuSans-31" d="M 794 531 
L 1825 531 
L 1825 4091 
L 703 3866 
L 703 4441 
L 1819 4666 
L 2450 4666 
L 2450 531 
L 3481 531 
L 3481 0 
L 794 0 
L 794 531 
z
" transform="scale(0.015625)"/>
       </defs>
       <use xlink:href="#DejaVuSans-31"/>
       <use xlink:href="#DejaVuSans-30" x="63.623047"/>
       <use xlink:href="#DejaVuSans-30" x="127.246094"/>
      </g>
     </g>
    </g>
    <g id="xtick_6">
     <g id="line2d_6">
      <g>
       <use xlink:href="#m291c4cd111" x="260.40137" y="252" style="stroke: #000000; stroke-width: 0.8"/>
      </g>
     </g>
     <g id="text_6">
      <!-- 125 -->
      <g transform="translate(250.85762 266.598437)scale(0.1 -0.1)">
       <use xlink:href="#DejaVuSans-31"/>
       <use xlink:href="#DejaVuSans-32" x="63.623047"/>
       <use xlink:href="#DejaVuSans-35" x="127.246094"/>
      </g>
     </g>
    </g>
    <g id="xtick_7">
     <g id="line2d_7">
      <g>
       <use xlink:href="#m291c4cd111" x="298.638008" y="252" style="stroke: #000000; stroke-width: 0.8"/>
      </g>
     </g>
     <g id="text_7">
      <!-- 150 -->
      <g transform="translate(289.094258 266.598437)scale(0.1 -0.1)">
       <use xlink:href="#DejaVuSans-31"/>
       <use xlink:href="#DejaVuSans-35" x="63.623047"/>
       <use xlink:href="#DejaVuSans-30" x="127.246094"/>
      </g>
     </g>
    </g>
    <g id="xtick_8">
     <g id="line2d_8">
      <g>
       <use xlink:href="#m291c4cd111" x="336.874646" y="252" style="stroke: #000000; stroke-width: 0.8"/>
      </g>
     </g>
     <g id="text_8">
      <!-- 175 -->
      <g transform="translate(327.330896 266.598437)scale(0.1 -0.1)">
       <use xlink:href="#DejaVuSans-31"/>
       <use xlink:href="#DejaVuSans-37" x="63.623047"/>
       <use xlink:href="#DejaVuSans-35" x="127.246094"/>
      </g>
     </g>
    </g>
    <g id="xtick_9">
     <g id="line2d_9">
      <g>
       <use xlink:href="#m291c4cd111" x="375.111284" y="252" style="stroke: #000000; stroke-width: 0.8"/>
      </g>
     </g>
     <g id="text_9">
      <!-- 200 -->
      <g transform="translate(365.567534 266.598437)scale(0.1 -0.1)">
       <use xlink:href="#DejaVuSans-32"/>
       <use xlink:href="#DejaVuSans-30" x="63.623047"/>
       <use xlink:href="#DejaVuSans-30" x="127.246094"/>
      </g>
     </g>
    </g>
    <g id="text_10">
     <!-- Generation -->
     <g transform="translate(193.507031 280.276563)scale(0.1 -0.1)">
      <defs>
       <path id="DejaVuSans-47" d="M 3809 666 
L 3809 1919 
L 2778 1919 
L 2778 2438 
L 4434 2438 
L 4434 434 
Q 4069 175 3628 42 
Q 3188 -91 2688 -91 
Q 1594 -91 976 548 
Q 359 1188 359 2328 
Q 359 3472 976 4111 
Q 1594 4750 2688 4750 
Q 3144 4750 3555 4637 
Q 3966 4525 4313 4306 
L 4313 3634 
Q 3963 3931 3569 4081 
Q 3175 4231 2741 4231 
Q 1884 4231 1454 3753 
Q 1025 3275 1025 2328 
Q 1025 1384 1454 906 
Q 1884 428 2741 428 
Q 3075 428 3337 486 
Q 3600 544 3809 666 
z
" transform="scale(0.015625)"/>
       <path id="DejaVuSans-65" d="M 3597 1894 
L 3597 1613 
L 953 1613 
Q 991 1019 1311 708 
Q 1631 397 2203 397 
Q 2534 397 2845 478 
Q 3156 559 3463 722 
L 3463 178 
Q 3153 47 2828 -22 
Q 2503 -91 2169 -91 
Q 1331 -91 842 396 
Q 353 884 353 1716 
Q 353 2575 817 3079 
Q 1281 3584 2069 3584 
Q 2775 3584 3186 3129 
Q 3597 2675 3597 1894 
z
M 3022 2063 
Q 3016 2534 2758 2815 
Q 2500 3097 2075 3097 
Q 1594 3097 1305 2825 
Q 1016 2553 972 2059 
L 3022 2063 
z
" transform="scale(0.015625)"/>
       <path id="DejaVuSans-6e" d="M 3513 2113 
L 3513 0 
L 2938 0 
L 2938 2094 
Q 2938 2591 2744 2837 
Q 2550 3084 2163 3084 
Q 1697 3084 1428 2787 
Q 1159 2491 1159 1978 
L 1159 0 
L 581 0 
L 581 3500 
L 1159 3500 
L 1159 2956 
Q 1366 3272 1645 3428 
Q 1925 3584 2291 3584 
Q 2894 3584 3203 3211 
Q 3513 2838 3513 2113 
z
" transform="scale(0.015625)"/>
       <path id="DejaVuSans-72" d="M 2631 2963 
Q 2534 3019 2420 3045 
Q 2306 3072 2169 3072 
Q 1681 3072 1420 2755 
Q 1159 2438 1159 1844 
L 1159 0 
L 581 0 
L 581 3500 
L 1159 3500 
L 1159 2956 
Q 1341 3275 1631 3429 
Q 1922 3584 2338 3584 
Q 2397 3584 2469 3576 
Q 2541 3569 2628 3553 
L 2631 2963 
z
" transform="scale(0.015625)"/>
       <path id="DejaVuSans-61" d="M 2194 1759 
Q 1497 1759 1228 1600 
Q 959 1441 959 1056 
Q 959 750 1161 570 
Q 1363 391 1709 391 
Q 2188 391 2477 730 
Q 2766 1069 2766 1631 
L 2766 1759 
L 2194 1759 
z
M 3341 1997 
L 3341 0 
L 2766 0 
L 2766 531 
Q 2569 213 2275 61 
Q 1981 -91 1556 -91 
Q 1019 -91 701 211 
Q 384 513 384 1019 
Q 384 1609 779 1909 
Q 1175 2209 1959 2209 
L 2766 2209 
L 2766 2266 
Q 2766 2663 2505 2880 
Q 2244 3097 1772 3097 
Q 1472 3097 1187 3025 
Q 903 2953 641 2809 
L 641 3341 
Q 956 3463 1253 3523 
Q 1550 3584 1831 3584 
Q 2591 3584 2966 3190 
Q 3341 2797 3341 1997 
z
" transform="scale(0.015625)"/>
       <path id="DejaVuSans-74" d="M 1172 4494 
L 1172 3500 
L 2356 3500 
L 2356 3053 
L 1172 3053 
L 1172 1153 
Q 1172 725 1289 603 
Q 1406 481 1766 481 
L 2356 481 
L 2356 0 
L 1766 0 
Q 1100 0 847 248 
Q 594 497 594 1153 
L 594 3053 
L 172 3053 
L 172 3500 
L 594 3500 
L 594 4494 
L 1172 4494 
z
" transform="scale(0.015625)"/>
       <path id="DejaVuSans-69" d="M 603 3500 
L 1178 3500 
L 1178 0 
L 603 0 
L 603 3500 
z
M 603 4863 
L 1178 4863 
L 1178 4134 
L 603 4134 
L 603 4863 
z
" transform="scale(0.015625)"/>
       <path id="DejaVuSans-6f" d="M 1959 3097 
Q 1497 3097 1228 2736 
Q 959 2375 959 1747 
Q 959 1119 1226 758 
Q 1494 397 1959 397 
Q 2419 397 2687 759 
Q 2956 1122 2956 1747 
Q 2956 2369 2687 2733 
Q 2419 3097 1959 3097 
z
M 1959 3584 
Q 2709 3584 3137 3096 
Q 3566 2609 3566 1747 
Q 3566 888 3137 398 
Q 2709 -91 1959 -91 
Q 1206 -91 779 398 
Q 353 888 353 1747 
Q 353 2609 779 3096 
Q 1206 3584 1959 3584 
z
" transform="scale(0.015625)"/>
      </defs>
      <use xlink:href="#DejaVuSans-47"/>
      <use xlink:href="#DejaVuSans-65" x="77.490234"/>
      <use xlink:href="#DejaVuSans-6e" x="139.013672"/>
      <use xlink:href="#DejaVuSans-65" x="202.392578"/>
      <use xlink:href="#DejaVuSans-72" x="263.916016"/>
      <use xlink:href="#DejaVuSans-61" x="305.029297"/>
      <use xlink:href="#DejaVuSans-74" x="366.308594"/>
      <use xlink:href="#DejaVuSans-69" x="405.517578"/>
      <use xlink:href="#DejaVuSans-6f" x="433.300781"/>
      <use xlink:href="#DejaVuSans-6e" x="494.482422"/>
     </g>
    </g>
   </g>
   <g id="matplotlib.axis_2">
    <g id="ytick_1">
     <g id="line2d_10">
      <defs>
       <path id="m1e0d38dfc0" d="M 0 0 
L -3.5 0 
" style="stroke: #000000; stroke-width: 0.8"/>
      </defs>
      <g>
       <use xlink:href="#m1e0d38dfc0" x="54" y="230.256" style="stroke: #000000; stroke-width: 0.8"/>
      </g>
     </g>
     <g id="text_11">
      <!-- 5 -->
      <g transform="translate(40.6375 234.055219)scale(0.1 -0.1)">
       <use xlink:href="#DejaVuSans-35"/>
      </g>
     </g>
    </g>
    <g id="ytick_2">
     <g id="line2d_11">
      <g>
       <use xlink:href="#m1e0d38dfc0" x="54" y="186.768" style="stroke: #000000; stroke-width: 0.8"/>
      </g>
     </g>
     <g id="text_12">
      <!-- 6 -->
      <g transform="translate(40.6375 190.567219)scale(0.1 -0.1)">
       <defs>
        <path id="DejaVuSans-36" d="M 2113 2584 
Q 1688 2584 1439 2293 
Q 1191 2003 1191 1497 
Q 1191 994 1439 701 
Q 1688 409 2113 409 
Q 2538 409 2786 701 
Q 3034 994 3034 1497 
Q 3034 2003 2786 2293 
Q 2538 2584 2113 2584 
z
M 3366 4563 
L 3366 3988 
Q 3128 4100 2886 4159 
Q 2644 4219 2406 4219 
Q 1781 4219 1451 3797 
Q 1122 3375 1075 2522 
Q 1259 2794 1537 2939 
Q 1816 3084 2150 3084 
Q 2853 3084 3261 2657 
Q 3669 2231 3669 1497 
Q 3669 778 3244 343 
Q 2819 -91 2113 -91 
Q 1303 -91 875 529 
Q 447 1150 447 2328 
Q 447 3434 972 4092 
Q 1497 4750 2381 4750 
Q 2619 4750 2861 4703 
Q 3103 4656 3366 4563 
z
" transform="scale(0.015625)"/>
       </defs>
       <use xlink:href="#DejaVuSans-36"/>
      </g>
     </g>
    </g>
    <g id="ytick_3">
     <g id="line2d_12">
      <g>
       <use xlink:href="#m1e0d38dfc0" x="54" y="143.28" style="stroke: #000000; stroke-width: 0.8"/>
      </g>
     </g>
     <g id="text_13">
      <!-- 7 -->
      <g transform="translate(40.6375 147.079219)scale(0.1 -0.1)">
       <use xlink:href="#DejaVuSans-37"/>
      </g>
     </g>
    </g>
    <g id="ytick_4">
     <g id="line2d_13">
      <g>
       <use xlink:href="#m1e0d38dfc0" x="54" y="99.792" style="stroke: #000000; stroke-width: 0.8"/>
      </g>
     </g>
     <g id="text_14">
      <!-- 8 -->
      <g transform="translate(40.6375 103.591219)scale(0.1 -0.1)">
       <defs>
        <path id="DejaVuSans-38" d="M 2034 2216 
Q 1584 2216 1326 1975 
Q 1069 1734 1069 1313 
Q 1069 891 1326 650 
Q 1584 409 2034 409 
Q 2484 409 2743 651 
Q 3003 894 3003 1313 
Q 3003 1734 2745 1975 
Q 2488 2216 2034 2216 
z
M 1403 2484 
Q 997 2584 770 2862 
Q 544 3141 544 3541 
Q 544 4100 942 4425 
Q 1341 4750 2034 4750 
Q 2731 4750 3128 4425 
Q 3525 4100 3525 3541 
Q 3525 3141 3298 2862 
Q 3072 2584 2669 2484 
Q 3125 2378 3379 2068 
Q 3634 1759 3634 1313 
Q 3634 634 3220 271 
Q 2806 -91 2034 -91 
Q 1263 -91 848 271 
Q 434 634 434 1313 
Q 434 1759 690 2068 
Q 947 2378 1403 2484 
z
M 1172 3481 
Q 1172 3119 1398 2916 
Q 1625 2713 2034 2713 
Q 2441 2713 2670 2916 
Q 2900 3119 2900 3481 
Q 2900 3844 2670 4047 
Q 2441 4250 2034 4250 
Q 1625 4250 1398 4047 
Q 1172 3844 1172 3481 
z
" transform="scale(0.015625)"/>
       </defs>
       <use xlink:href="#DejaVuSans-38"/>
      </g>
     </g>
    </g>
    <g id="ytick_5">
     <g id="line2d_14">
      <g>
       <use xlink:href="#m1e0d38dfc0" x="54" y="56.304" style="stroke: #000000; stroke-width: 0.8"/>
      </g>
     </g>
     <g id="text_15">
      <!-- 9 -->
      <g transform="translate(40.6375 60.103219)scale(0.1 -0.1)">
       <defs>
        <path id="DejaVuSans-39" d="M 703 97 
L 703 672 
Q 941 559 1184 500 
Q 1428 441 1663 441 
Q 2288 441 2617 861 
Q 2947 1281 2994 2138 
Q 2813 1869 2534 1725 
Q 2256 1581 1919 1581 
Q 1219 1581 811 2004 
Q 403 2428 403 3163 
Q 403 3881 828 4315 
Q 1253 4750 1959 4750 
Q 2769 4750 3195 4129 
Q 3622 3509 3622 2328 
Q 3622 1225 3098 567 
Q 2575 -91 1691 -91 
Q 1453 -91 1209 -44 
Q 966 3 703 97 
z
M 1959 2075 
Q 2384 2075 2632 2365 
Q 2881 2656 2881 3163 
Q 2881 3666 2632 3958 
Q 2384 4250 1959 4250 
Q 1534 4250 1286 3958 
Q 1038 3666 1038 3163 
Q 1038 2656 1286 2365 
Q 1534 2075 1959 2075 
z
" transform="scale(0.015625)"/>
       </defs>
       <use xlink:href="#DejaVuSans-39"/>
      </g>
     </g>
    </g>
    <g id="text_16">
     <!-- Best Fitness -->
     <g transform="translate(34.557812 173.258125)rotate(-90)scale(0.1 -0.1)">
      <defs>
       <path id="DejaVuSans-42" d="M 1259 2228 
L 1259 519 
L 2272 519 
Q 2781 519 3026 730 
Q 3272 941 3272 1375 
Q 3272 1813 3026 2020 
Q 2781 2228 2272 2228 
L 1259 2228 
z
M 1259 4147 
L 1259 2741 
L 2194 2741 
Q 2656 2741 2882 2914 
Q 3109 3088 3109 3444 
Q 3109 3797 2882 3972 
Q 2656 4147 2194 4147 
L 1259 4147 
z
M 628 4666 
L 2241 4666 
Q 2963 4666 3353 4366 
Q 3744 4066 3744 3513 
Q 3744 3084 3544 2831 
Q 3344 2578 2956 2516 
Q 3422 2416 3680 2098 
Q 3938 1781 3938 1306 
Q 3938 681 3513 340 
Q 3088 0 2303 0 
L 628 0 
L 628 4666 
z
" transform="scale(0.015625)"/>
       <path id="DejaVuSans-73" d="M 2834 3397 
L 2834 2853 
Q 2591 2978 2328 3040 
Q 2066 3103 1784 3103 
Q 1356 3103 1142 2972 
Q 928 2841 928 2578 
Q 928 2378 1081 2264 
Q 1234 2150 1697 2047 
L 1894 2003 
Q 2506 1872 2764 1633 
Q 3022 1394 3022 966 
Q 3022 478 2636 193 
Q 2250 -91 1575 -91 
Q 1294 -91 989 -36 
Q 684 19 347 128 
L 347 722 
Q 666 556 975 473 
Q 1284 391 1588 391 
Q 1994 391 2212 530 
Q 2431 669 2431 922 
Q 2431 1156 2273 1281 
Q 2116 1406 1581 1522 
L 1381 1569 
Q 847 1681 609 1914 
Q 372 2147 372 2553 
Q 372 3047 722 3315 
Q 1072 3584 1716 3584 
Q 2034 3584 2315 3537 
Q 2597 3491 2834 3397 
z
" transform="scale(0.015625)"/>
       <path id="DejaVuSans-20" transform="scale(0.015625)"/>
       <path id="DejaVuSans-46" d="M 628 4666 
L 3309 4666 
L 3309 4134 
L 1259 4134 
L 1259 2759 
L 3109 2759 
L 3109 2228 
L 1259 2228 
L 1259 0 
L 628 0 
L 628 4666 
z
" transform="scale(0.015625)"/>
      </defs>
      <use xlink:href="#DejaVuSans-42"/>
      <use xlink:href="#DejaVuSans-65" x="68.603516"/>
      <use xlink:href="#DejaVuSans-73" x="130.126953"/>
      <use xlink:href="#DejaVuSans-74" x="182.226562"/>
      <use xlink:href="#DejaVuSans-20" x="221.435547"/>
      <use xlink:href="#DejaVuSans-46" x="253.222656"/>
      <use xlink:href="#DejaVuSans-69" x="303.492188"/>
      <use xlink:href="#DejaVuSans-74" x="331.275391"/>
      <use xlink:href="#DejaVuSans-6e" x="370.484375"/>
      <use xlink:href="#DejaVuSans-65" x="433.863281"/>
      <use xlink:href="#DejaVuSans-73" x="495.386719"/>
      <use xlink:href="#DejaVuSans-73" x="547.486328"/>
     </g>
    </g>
   </g>
   <g id="line2d_15">
    <path d="M 69.218182 220.188528 
L 70.747647 219.079584 
L 72.277113 216.959544 
L 73.806578 217.166112 
L 75.336044 214.915608 
L 76.865509 215.067816 
L 78.394975 214.089336 
L 79.92444 213.73056 
L 81.453906 212.502024 
L 82.983371 212.251968 
L 84.512837 211.675752 
L 86.042302 208.588104 
L 87.571768 207.033408 
L 89.101233 206.348472 
L 90.630699 206.109288 
L 92.160164 204.826392 
L 96.748561 203.010768 
L 98.278026 203.217336 
L 99.807492 202.847688 
L 101.336958 200.879856 
L 102.866423 202.651992 
L 104.395889 200.966832 
L 105.925354 201.075552 
L 107.45482 198.803304 
L 108.984285 199.075104 
L 110.513751 197.248608 
L 112.043216 196.618032 
L 113.572682 199.553472 
L 115.102147 198.520632 
L 116.631613 199.444752 
L 118.161078 199.401264 
L 119.690544 197.596512 
L 121.220009 196.618032 
L 122.749475 196.596288 
L 124.27894 197.726976 
L 125.808406 197.726976 
L 127.337871 198.596736 
L 128.867337 198.498888 
L 130.396802 195.90048 
L 131.926268 198.390168 
L 133.455733 196.367976 
L 134.985199 197.835696 
L 136.514664 195.639552 
L 138.04413 196.802856 
L 139.573595 197.215992 
L 141.103061 195.715656 
L 142.632526 197.281224 
L 144.161992 196.759368 
L 145.691457 197.04204 
L 147.220923 198.085752 
L 148.750388 196.422336 
L 150.279854 196.06356 
L 151.809319 195.530832 
L 153.338785 196.411464 
L 154.86825 193.367304 
L 156.397716 195.617808 
L 157.927181 196.531056 
L 159.456647 197.58564 
L 160.986112 195.79176 
L 162.515578 197.455176 
L 164.045043 196.574544 
L 165.574509 196.705008 
L 167.103974 196.520184 
L 168.63344 196.041816 
L 170.162905 193.921776 
L 171.692371 193.356432 
L 173.221836 193.421664 
L 174.751302 191.214648 
L 176.280767 194.258808 
L 177.810233 190.95372 
L 179.339698 192.845448 
L 182.39863 192.682368 
L 183.928095 191.377728 
L 185.457561 190.377504 
L 186.987026 192.290976 
L 188.516492 191.3886 
L 190.045957 191.3886 
L 191.575423 188.257464 
L 193.104888 189.138096 
L 194.634354 189.127224 
L 196.163819 188.6706 
L 197.693285 188.757576 
L 199.22275 187.90956 
L 200.752216 187.866072 
L 203.811147 186.833232 
L 205.340612 186.811488 
L 206.870078 188.474904 
L 208.399543 189.094608 
L 209.929009 187.876944 
L 211.458474 187.170264 
L 212.98794 187.192008 
L 214.517405 187.518168 
L 216.046871 188.333568 
L 217.576336 186.746256 
L 219.105802 188.583624 
L 220.635267 188.3988 
L 222.164733 189.746928 
L 223.694198 186.952824 
L 225.223664 187.550784 
L 226.753129 187.072416 
L 228.282595 188.77932 
L 229.81206 189.007632 
L 231.341526 186.539688 
L 232.870991 187.713864 
L 234.400457 188.268336 
L 235.929922 189.094608 
L 237.459388 188.322696 
L 238.988853 187.953048 
L 240.518319 186.594048 
L 243.57725 185.289408 
L 245.106715 186.072192 
L 246.636181 186.27876 
L 248.165646 185.376384 
L 249.695112 185.51772 
L 251.224577 185.778648 
L 252.754043 185.409 
L 254.283508 184.898016 
L 255.812974 184.691448 
L 257.342439 185.02848 
L 258.871905 184.81104 
L 260.40137 183.56076 
L 261.930836 182.549664 
L 263.460302 183.419424 
L 264.989767 183.321576 
L 266.519233 183.354192 
L 271.107629 182.864952 
L 272.637095 183.908664 
L 274.16656 180.766656 
L 275.696026 182.984544 
L 277.225491 179.26632 
L 278.754957 178.331328 
L 280.284422 177.602904 
L 281.813888 180.473112 
L 283.343353 179.570736 
L 286.402284 178.864056 
L 287.93175 177.461568 
L 289.461215 177.831216 
L 290.990681 179.364168 
L 292.520146 180.505728 
L 294.049612 178.66836 
L 295.579077 177.592032 
L 297.108543 178.929288 
L 298.638008 178.929288 
L 300.167474 179.081496 
L 301.696939 179.353296 
L 303.226405 177.276744 
L 304.75587 178.983648 
L 306.285336 178.690104 
L 307.814801 176.776632 
L 309.344267 179.385912 
L 310.873732 176.798376 
L 312.403198 178.72272 
L 313.932663 177.733368 
L 315.462129 176.504832 
L 316.991594 176.320008 
L 318.52106 177.048432 
L 320.050525 177.20064 
L 321.579991 176.406984 
L 324.638922 178.39656 
L 326.168387 177.244128 
L 327.697853 174.460896 
L 329.227318 177.722496 
L 330.756784 175.73292 
L 332.286249 177.189768 
L 333.815715 175.743792 
L 335.34518 178.103016 
L 336.874646 177.233256 
L 338.404111 176.667912 
L 339.933577 175.385016 
L 341.463042 176.320008 
L 342.992508 175.776408 
L 344.521974 177.885576 
L 346.051439 175.67856 
L 347.580905 175.482864 
L 349.11037 173.743344 
L 350.639836 176.87448 
L 352.169301 176.472216 
L 353.698767 174.580488 
L 355.228232 175.743792 
L 356.757698 173.275848 
L 358.287163 176.146056 
L 359.816629 174.70008 
L 361.346094 175.124088 
L 362.87556 174.776184 
L 364.405025 173.178 
L 367.463956 174.450024 
L 368.993422 174.363048 
L 370.522887 173.536776 
L 373.581818 173.417184 
L 373.581818 173.417184 
" clip-path="url(#p2be703830d)" style="fill: none; stroke: #1f77b4; stroke-width: 1.5; stroke-linecap: square"/>
   </g>
   <g id="line2d_16">
    <path d="M 69.218182 225.47232 
L 373.581818 225.47232 
L 373.581818 225.47232 
" clip-path="url(#p2be703830d)" style="fill: none; stroke-dasharray: 5.55,2.4; stroke-dashoffset: 0; stroke: #ff7f0e; stroke-width: 1.5"/>
   </g>
   <g id="patch_3">
    <path d="M 54 252 
L 54 34.56 
" style="fill: none; stroke: #000000; stroke-width: 0.8; stroke-linejoin: miter; stroke-linecap: square"/>
   </g>
   <g id="patch_4">
    <path d="M 388.8 252 
L 388.8 34.56 
" style="fill: none; stroke: #000000; stroke-width: 0.8; stroke-linejoin: miter; stroke-linecap: square"/>
   </g>
   <g id="patch_5">
    <path d="M 54 252 
L 388.8 252 
" style="fill: none; stroke: #000000; stroke-width: 0.8; stroke-linejoin: miter; stroke-linecap: square"/>
   </g>
   <g id="patch_6">
    <path d="M 54 34.56 
L 388.8 34.56 
" style="fill: none; stroke: #000000; stroke-width: 0.8; stroke-linejoin: miter; stroke-linecap: square"/>
   </g>
   <g id="text_17">
    <!-- Ladder -->
    <g transform="translate(200.603438 28.56)scale(0.12 -0.12)">
     <defs>
      <path id="DejaVuSans-4c" d="M 628 4666 
L 1259 4666 
L 1259 531 
L 3531 531 
L 3531 0 
L 628 0 
L 628 4666 
z
" transform="scale(0.015625)"/>
      <path id="DejaVuSans-64" d="M 2906 2969 
L 2906 4863 
L 3481 4863 
L 3481 0 
L 2906 0 
L 2906 525 
Q 2725 213 2448 61 
Q 2172 -91 1784 -91 
Q 1150 -91 751 415 
Q 353 922 353 1747 
Q 353 2572 751 3078 
Q 1150 3584 1784 3584 
Q 2172 3584 2448 3432 
Q 2725 3281 2906 2969 
z
M 947 1747 
Q 947 1113 1208 752 
Q 1469 391 1925 391 
Q 2381 391 2643 752 
Q 2906 1113 2906 1747 
Q 2906 2381 2643 2742 
Q 2381 3103 1925 3103 
Q 1469 3103 1208 2742 
Q 947 2381 947 1747 
z
" transform="scale(0.015625)"/>
     </defs>
     <use xlink:href="#DejaVuSans-4c"/>
     <use xlink:href="#DejaVuSans-61" x="55.712891"/>
     <use xlink:href="#DejaVuSans-64" x="116.992188"/>
     <use xlink:href="#DejaVuSans-64" x="180.46875"/>
     <use xlink:href="#DejaVuSans-65" x="243.945312"/>
     <use xlink:href="#DejaVuSans-72" x="305.46875"/>
    </g>
   </g>
   <g id="legend_1">
    <g id="patch_7">
     <path d="M 61 71.91625 
L 214.870313 71.91625 
Q 216.870313 71.91625 216.870313 69.91625 
L 216.870313 41.56 
Q 216.870313 39.56 214.870313 39.56 
L 61 39.56 
Q 59 39.56 59 41.56 
L 59 69.91625 
Q 59 71.91625 61 71.91625 
z
" style="fill: #ffffff; opacity: 0.8; stroke: #cccccc; stroke-linejoin: miter"/>
    </g>
    <g id="line2d_17">
     <path d="M 63 47.658437 
L 73 47.658437 
L 83 47.658437 
" style="fill: none; stroke: #1f77b4; stroke-width: 1.5; stroke-linecap: square"/>
    </g>
    <g id="text_18">
     <!-- training on ladder graph -->
     <g transform="translate(91 51.158437)scale(0.1 -0.1)">
      <defs>
       <path id="DejaVuSans-67" d="M 2906 1791 
Q 2906 2416 2648 2759 
Q 2391 3103 1925 3103 
Q 1463 3103 1205 2759 
Q 947 2416 947 1791 
Q 947 1169 1205 825 
Q 1463 481 1925 481 
Q 2391 481 2648 825 
Q 2906 1169 2906 1791 
z
M 3481 434 
Q 3481 -459 3084 -895 
Q 2688 -1331 1869 -1331 
Q 1566 -1331 1297 -1286 
Q 1028 -1241 775 -1147 
L 775 -588 
Q 1028 -725 1275 -790 
Q 1522 -856 1778 -856 
Q 2344 -856 2625 -561 
Q 2906 -266 2906 331 
L 2906 616 
Q 2728 306 2450 153 
Q 2172 0 1784 0 
Q 1141 0 747 490 
Q 353 981 353 1791 
Q 353 2603 747 3093 
Q 1141 3584 1784 3584 
Q 2172 3584 2450 3431 
Q 2728 3278 2906 2969 
L 2906 3500 
L 3481 3500 
L 3481 434 
z
" transform="scale(0.015625)"/>
       <path id="DejaVuSans-6c" d="M 603 4863 
L 1178 4863 
L 1178 0 
L 603 0 
L 603 4863 
z
" transform="scale(0.015625)"/>
       <path id="DejaVuSans-70" d="M 1159 525 
L 1159 -1331 
L 581 -1331 
L 581 3500 
L 1159 3500 
L 1159 2969 
Q 1341 3281 1617 3432 
Q 1894 3584 2278 3584 
Q 2916 3584 3314 3078 
Q 3713 2572 3713 1747 
Q 3713 922 3314 415 
Q 2916 -91 2278 -91 
Q 1894 -91 1617 61 
Q 1341 213 1159 525 
z
M 3116 1747 
Q 3116 2381 2855 2742 
Q 2594 3103 2138 3103 
Q 1681 3103 1420 2742 
Q 1159 2381 1159 1747 
Q 1159 1113 1420 752 
Q 1681 391 2138 391 
Q 2594 391 2855 752 
Q 3116 1113 3116 1747 
z
" transform="scale(0.015625)"/>
       <path id="DejaVuSans-68" d="M 3513 2113 
L 3513 0 
L 2938 0 
L 2938 2094 
Q 2938 2591 2744 2837 
Q 2550 3084 2163 3084 
Q 1697 3084 1428 2787 
Q 1159 2491 1159 1978 
L 1159 0 
L 581 0 
L 581 4863 
L 1159 4863 
L 1159 2956 
Q 1366 3272 1645 3428 
Q 1925 3584 2291 3584 
Q 2894 3584 3203 3211 
Q 3513 2838 3513 2113 
z
" transform="scale(0.015625)"/>
      </defs>
      <use xlink:href="#DejaVuSans-74"/>
      <use xlink:href="#DejaVuSans-72" x="39.208984"/>
      <use xlink:href="#DejaVuSans-61" x="80.322266"/>
      <use xlink:href="#DejaVuSans-69" x="141.601562"/>
      <use xlink:href="#DejaVuSans-6e" x="169.384766"/>
      <use xlink:href="#DejaVuSans-69" x="232.763672"/>
      <use xlink:href="#DejaVuSans-6e" x="260.546875"/>
      <use xlink:href="#DejaVuSans-67" x="323.925781"/>
      <use xlink:href="#DejaVuSans-20" x="387.402344"/>
      <use xlink:href="#DejaVuSans-6f" x="419.189453"/>
      <use xlink:href="#DejaVuSans-6e" x="480.371094"/>
      <use xlink:href="#DejaVuSans-20" x="543.75"/>
      <use xlink:href="#DejaVuSans-6c" x="575.537109"/>
      <use xlink:href="#DejaVuSans-61" x="603.320312"/>
      <use xlink:href="#DejaVuSans-64" x="664.599609"/>
      <use xlink:href="#DejaVuSans-64" x="728.076172"/>
      <use xlink:href="#DejaVuSans-65" x="791.552734"/>
      <use xlink:href="#DejaVuSans-72" x="853.076172"/>
      <use xlink:href="#DejaVuSans-20" x="894.189453"/>
      <use xlink:href="#DejaVuSans-67" x="925.976562"/>
      <use xlink:href="#DejaVuSans-72" x="989.453125"/>
      <use xlink:href="#DejaVuSans-61" x="1030.566406"/>
      <use xlink:href="#DejaVuSans-70" x="1091.845703"/>
      <use xlink:href="#DejaVuSans-68" x="1155.322266"/>
     </g>
    </g>
    <g id="line2d_18">
     <path d="M 63 62.336562 
L 73 62.336562 
L 83 62.336562 
" style="fill: none; stroke-dasharray: 5.55,2.4; stroke-dashoffset: 0; stroke: #ff7f0e; stroke-width: 1.5"/>
    </g>
    <g id="text_19">
     <!-- transfer learning -->
     <g transform="translate(91 65.836562)scale(0.1 -0.1)">
      <defs>
       <path id="DejaVuSans-66" d="M 2375 4863 
L 2375 4384 
L 1825 4384 
Q 1516 4384 1395 4259 
Q 1275 4134 1275 3809 
L 1275 3500 
L 2222 3500 
L 2222 3053 
L 1275 3053 
L 1275 0 
L 697 0 
L 697 3053 
L 147 3053 
L 147 3500 
L 697 3500 
L 697 3744 
Q 697 4328 969 4595 
Q 1241 4863 1831 4863 
L 2375 4863 
z
" transform="scale(0.015625)"/>
      </defs>
      <use xlink:href="#DejaVuSans-74"/>
      <use xlink:href="#DejaVuSans-72" x="39.208984"/>
      <use xlink:href="#DejaVuSans-61" x="80.322266"/>
      <use xlink:href="#DejaVuSans-6e" x="141.601562"/>
      <use xlink:href="#DejaVuSans-73" x="204.980469"/>
      <use xlink:href="#DejaVuSans-66" x="257.080078"/>
      <use xlink:href="#DejaVuSans-65" x="292.285156"/>
      <use xlink:href="#DejaVuSans-72" x="353.808594"/>
      <use xlink:href="#DejaVuSans-20" x="394.921875"/>
      <use xlink:href="#DejaVuSans-6c" x="426.708984"/>
      <use xlink:href="#DejaVuSans-65" x="454.492188"/>
      <use xlink:href="#DejaVuSans-61" x="516.015625"/>
      <use xlink:href="#DejaVuSans-72" x="577.294922"/>
      <use xlink:href="#DejaVuSans-6e" x="616.658203"/>
      <use xlink:href="#DejaVuSans-69" x="680.037109"/>
      <use xlink:href="#DejaVuSans-6e" x="707.820312"/>
      <use xlink:href="#DejaVuSans-67" x="771.199219"/>
     </g>
    </g>
   </g>
  </g>
 </g>
 <defs>
  <clipPath id="p2be703830d">
   <rect x="54" y="34.56" width="334.8" height="217.44"/>
  </clipPath>
 </defs>
</svg>
