<?xml version="1.0" encoding="utf-8" standalone="no"?>
<!DOCTYPE svg PUBLIC "-//W3C//DTD SVG 1.1//EN"
  "http://www.w3.org/Graphics/SVG/1.1/DTD/svg11.dtd">
<svg xmlns:xlink="http://www.w3.org/1999/xlink" width="432pt" height="288pt" viewBox="0 0 432 288" xmlns="http://www.w3.org/2000/svg" version="1.1">
 <metadata>
  <rdf:RDF xmlns:dc="http://purl.org/dc/elements/1.1/" xmlns:cc="http://creativecommons.org/ns#" xmlns:rdf="http://www.w3.org/1999/02/22-rdf-syntax-ns#">
   <cc:Work>
    <dc:type rdf:resource="http://purl.org/dc/dcmitype/StillImage"/>
    <dc:date>2023-06-27T09:10:18.703386</dc:date>
    <dc:format>image/svg+xml</dc:format>
    <dc:creator>
     <cc:Agent>
      <dc:title>Matplotlib v3.5.2, https://matplotlib.org/</dc:title>
     </cc:Agent>
    </dc:creator>
   </cc:Work>
  </rdf:RDF>
 </metadata>
 <defs>
  <style type="text/css">*{stroke-linejoin: round; stroke-linecap: butt}</style>
 </defs>
 <g id="figure_1">
  <g id="patch_1">
   <path d="M 0 288 
L 432 288 
L 432 0 
L 0 0 
L 0 288 
z
" style="fill: none"/>
  </g>
  <g id="axes_1">
   <g id="patch_2">
    <path d="M 54 252 
L 388.8 252 
L 388.8 34.56 
L 54 34.56 
z
" style="fill: #ffffff"/>
   </g>
   <g id="PolyCollection_1">
    <path d="M 69.218182 234.013357 
L 69.218182 233.872214 
L 70.747647 233.051374 
L 72.277113 232.811163 
L 73.806578 232.121075 
L 75.336044 231.93663 
L 76.865509 231.773902 
L 78.394975 231.601847 
L 79.92444 230.936514 
L 81.453906 230.790959 
L 82.983371 230.628824 
L 84.512837 229.960555 
L 86.042302 230.050784 
L 87.571768 229.499153 
L 89.101233 228.952537 
L 90.630699 229.351584 
L 92.160164 229.125359 
L 93.68963 228.657498 
L 95.219095 228.976427 
L 96.748561 228.027907 
L 98.278026 227.946416 
L 99.807492 227.626625 
L 101.336958 227.609271 
L 102.866423 227.647257 
L 104.395889 227.773159 
L 105.925354 227.892893 
L 107.45482 227.607757 
L 108.984285 227.566215 
L 110.513751 227.334768 
L 112.043216 227.755554 
L 113.572682 227.664325 
L 115.102147 227.093288 
L 116.631613 227.562229 
L 118.161078 227.815514 
L 119.690544 227.817602 
L 121.220009 227.470933 
L 122.749475 226.988268 
L 124.27894 226.573732 
L 125.808406 227.009387 
L 127.337871 226.796159 
L 128.867337 226.942262 
L 130.396802 227.108078 
L 131.926268 226.488092 
L 133.455733 226.833317 
L 134.985199 226.990894 
L 136.514664 226.670662 
L 138.04413 227.010113 
L 139.573595 227.116911 
L 141.103061 226.534102 
L 142.632526 226.498354 
L 144.161992 226.758355 
L 145.691457 226.712276 
L 147.220923 226.804815 
L 148.750388 226.468104 
L 150.279854 226.438131 
L 151.809319 227.141262 
L 153.338785 227.041337 
L 154.86825 226.629809 
L 156.397716 225.442035 
L 157.927181 226.193462 
L 159.456647 226.403353 
L 160.986112 226.238129 
L 162.515578 225.733299 
L 164.045043 226.703794 
L 165.574509 226.541136 
L 167.103974 225.87384 
L 168.63344 226.043627 
L 170.162905 225.964001 
L 171.692371 226.290441 
L 173.221836 225.206855 
L 174.751302 226.125412 
L 176.280767 225.656161 
L 177.810233 225.362478 
L 179.339698 225.454694 
L 180.869164 224.762248 
L 182.39863 225.422089 
L 183.928095 226.050472 
L 185.457561 225.082551 
L 186.987026 225.658608 
L 188.516492 226.281415 
L 190.045957 226.132829 
L 191.575423 225.757333 
L 193.104888 226.669877 
L 194.634354 226.330823 
L 196.163819 225.89817 
L 197.693285 225.37957 
L 199.22275 226.686077 
L 200.752216 225.63509 
L 202.281681 226.419122 
L 203.811147 225.348267 
L 205.340612 225.28317 
L 206.870078 225.306953 
L 208.399543 225.436133 
L 209.929009 225.71123 
L 211.458474 226.196981 
L 212.98794 225.52234 
L 214.517405 225.17239 
L 216.046871 224.662486 
L 217.576336 225.127526 
L 219.105802 225.214264 
L 220.635267 225.321786 
L 222.164733 225.390752 
L 223.694198 225.745862 
L 225.223664 224.786059 
L 226.753129 225.568871 
L 228.282595 225.424663 
L 229.81206 224.912798 
L 231.341526 225.10454 
L 232.870991 225.199272 
L 234.400457 225.976713 
L 235.929922 225.434741 
L 237.459388 225.547918 
L 238.988853 224.678382 
L 240.518319 225.520927 
L 242.047784 225.025804 
L 243.57725 224.898385 
L 245.106715 225.215948 
L 246.636181 224.434086 
L 248.165646 224.77157 
L 249.695112 224.972422 
L 251.224577 224.335867 
L 252.754043 224.590138 
L 254.283508 224.892401 
L 255.812974 224.740018 
L 257.342439 224.328213 
L 258.871905 224.863752 
L 260.40137 224.896313 
L 261.930836 224.264612 
L 263.460302 224.399364 
L 264.989767 224.83264 
L 266.519233 225.142965 
L 268.048698 223.048686 
L 269.578164 223.891441 
L 271.107629 224.394569 
L 272.637095 224.920588 
L 274.16656 224.404093 
L 275.696026 224.9207 
L 277.225491 224.645085 
L 278.754957 223.957903 
L 280.284422 224.297572 
L 281.813888 223.700025 
L 283.343353 224.341862 
L 284.872819 223.570647 
L 286.402284 224.076646 
L 287.93175 224.078467 
L 289.461215 223.688081 
L 290.990681 223.661728 
L 292.520146 222.716014 
L 294.049612 223.866503 
L 295.579077 223.105855 
L 297.108543 223.353133 
L 298.638008 223.411918 
L 300.167474 223.973771 
L 301.696939 223.148096 
L 303.226405 223.782277 
L 304.75587 223.742023 
L 306.285336 223.572205 
L 307.814801 224.191801 
L 309.344267 224.190678 
L 310.873732 224.226848 
L 312.403198 223.973401 
L 313.932663 223.335479 
L 315.462129 223.563123 
L 316.991594 224.266441 
L 318.52106 223.5609 
L 320.050525 224.058042 
L 321.579991 224.015342 
L 323.109456 224.068953 
L 324.638922 224.459577 
L 326.168387 223.313197 
L 327.697853 224.19301 
L 329.227318 223.920696 
L 330.756784 223.899352 
L 332.286249 224.079952 
L 333.815715 223.189995 
L 335.34518 223.733341 
L 336.874646 223.233125 
L 338.404111 223.42749 
L 339.933577 224.088803 
L 341.463042 223.271461 
L 342.992508 223.547603 
L 344.521974 222.77159 
L 346.051439 224.173638 
L 347.580905 224.130557 
L 349.11037 224.790094 
L 350.639836 222.916641 
L 352.169301 224.501877 
L 353.698767 223.145137 
L 355.228232 224.117275 
L 356.757698 224.098014 
L 358.287163 224.101233 
L 359.816629 223.628459 
L 361.346094 224.174046 
L 362.87556 224.715097 
L 364.405025 223.726408 
L 365.934491 223.94673 
L 367.463956 224.085407 
L 368.993422 223.701554 
L 370.522887 223.780791 
L 372.052353 224.069087 
L 373.581818 224.613252 
L 373.581818 225.961612 
L 373.581818 225.961612 
L 372.052353 225.985713 
L 370.522887 227.445265 
L 368.993422 225.981944 
L 367.463956 226.480517 
L 365.934491 226.095232 
L 364.405025 227.176702 
L 362.87556 225.800123 
L 361.346094 226.308876 
L 359.816629 226.890151 
L 358.287163 226.6546 
L 356.757698 226.441 
L 355.228232 225.756949 
L 353.698767 224.898892 
L 352.169301 226.585433 
L 350.639836 225.705981 
L 349.11037 226.687427 
L 347.580905 225.792302 
L 346.051439 226.634252 
L 344.521974 226.036839 
L 342.992508 226.864712 
L 341.463042 226.355129 
L 339.933577 226.823856 
L 338.404111 226.092556 
L 336.874646 226.721064 
L 335.34518 226.656098 
L 333.815715 226.026428 
L 332.286249 226.424746 
L 330.756784 226.525604 
L 329.227318 225.9504 
L 327.697853 226.351467 
L 326.168387 226.904187 
L 324.638922 227.060772 
L 323.109456 226.702986 
L 321.579991 226.940569 
L 320.050525 226.500579 
L 318.52106 227.09623 
L 316.991594 226.469159 
L 315.462129 226.176614 
L 313.932663 226.026982 
L 312.403198 226.830597 
L 310.873732 226.04717 
L 309.344267 226.296484 
L 307.814801 226.142485 
L 306.285336 226.304027 
L 304.75587 226.182315 
L 303.226405 226.399202 
L 301.696939 225.685753 
L 300.167474 226.343591 
L 298.638008 226.234706 
L 297.108543 226.833735 
L 295.579077 226.016971 
L 294.049612 226.18524 
L 292.520146 225.689265 
L 290.990681 226.297229 
L 289.461215 225.689513 
L 287.93175 225.911061 
L 286.402284 225.838059 
L 284.872819 226.163225 
L 283.343353 225.778676 
L 281.813888 226.054736 
L 280.284422 225.871948 
L 278.754957 226.53724 
L 277.225491 226.090417 
L 275.696026 227.365005 
L 274.16656 226.451376 
L 272.637095 226.796652 
L 271.107629 227.440524 
L 269.578164 226.675446 
L 268.048698 226.500495 
L 266.519233 226.436778 
L 264.989767 227.510701 
L 263.460302 226.416228 
L 261.930836 227.715005 
L 260.40137 227.381253 
L 258.871905 226.426277 
L 257.342439 226.893802 
L 255.812974 225.939879 
L 254.283508 227.421348 
L 252.754043 226.666362 
L 251.224577 227.535372 
L 249.695112 226.851831 
L 248.165646 227.119329 
L 246.636181 226.803933 
L 245.106715 226.439807 
L 243.57725 226.921282 
L 242.047784 227.389272 
L 240.518319 227.060316 
L 238.988853 227.15951 
L 237.459388 227.85955 
L 235.929922 226.920094 
L 234.400457 227.854463 
L 232.870991 227.494004 
L 231.341526 227.988618 
L 229.81206 227.66866 
L 228.282595 227.292485 
L 226.753129 227.443439 
L 225.223664 227.558418 
L 223.694198 227.053774 
L 222.164733 227.588507 
L 220.635267 227.477073 
L 219.105802 227.377755 
L 217.576336 227.209008 
L 216.046871 227.657812 
L 214.517405 228.012379 
L 212.98794 227.725607 
L 211.458474 227.477045 
L 209.929009 226.989522 
L 208.399543 226.659558 
L 206.870078 227.04226 
L 205.340612 226.983231 
L 203.811147 227.493917 
L 202.281681 226.946516 
L 200.752216 227.29622 
L 199.22275 227.092133 
L 197.693285 226.926887 
L 196.163819 227.069886 
L 194.634354 227.583368 
L 193.104888 227.7976 
L 191.575423 227.324545 
L 190.045957 227.330788 
L 188.516492 227.164925 
L 186.987026 227.277923 
L 185.457561 227.40537 
L 183.928095 227.881881 
L 182.39863 226.79244 
L 180.869164 227.062975 
L 179.339698 226.85175 
L 177.810233 227.090623 
L 176.280767 227.268518 
L 174.751302 227.234625 
L 173.221836 227.448721 
L 171.692371 228.290968 
L 170.162905 227.998237 
L 168.63344 227.984722 
L 167.103974 228.727279 
L 165.574509 227.778796 
L 164.045043 228.274271 
L 162.515578 227.34922 
L 160.986112 227.096646 
L 159.456647 227.993039 
L 157.927181 226.834637 
L 156.397716 227.804918 
L 154.86825 227.91656 
L 153.338785 227.943556 
L 151.809319 227.884653 
L 150.279854 227.50186 
L 148.750388 228.166834 
L 147.220923 228.043019 
L 145.691457 227.972548 
L 144.161992 227.687713 
L 142.632526 228.336273 
L 141.103061 228.852659 
L 139.573595 228.677581 
L 138.04413 228.583152 
L 136.514664 228.257446 
L 134.985199 228.250872 
L 133.455733 228.668453 
L 131.926268 229.168712 
L 130.396802 229.115229 
L 128.867337 228.415702 
L 127.337871 229.350292 
L 125.808406 229.359471 
L 124.27894 229.119129 
L 122.749475 229.519023 
L 121.220009 229.00901 
L 119.690544 229.802621 
L 118.161078 229.883473 
L 116.631613 229.887659 
L 115.102147 229.659818 
L 113.572682 229.155197 
L 112.043216 229.086421 
L 110.513751 228.860447 
L 108.984285 229.007437 
L 107.45482 228.413556 
L 105.925354 228.799596 
L 104.395889 228.479934 
L 102.866423 228.925921 
L 101.336958 228.995172 
L 99.807492 229.63329 
L 98.278026 229.318366 
L 96.748561 229.428707 
L 95.219095 229.34002 
L 93.68963 229.485961 
L 92.160164 229.7545 
L 90.630699 230.293437 
L 89.101233 229.906316 
L 87.571768 230.20955 
L 86.042302 230.3887 
L 84.512837 230.985402 
L 82.983371 231.088804 
L 81.453906 231.432665 
L 79.92444 231.254194 
L 78.394975 231.937695 
L 76.865509 232.07905 
L 75.336044 232.346075 
L 73.806578 232.459891 
L 72.277113 233.072029 
L 70.747647 233.634405 
L 69.218182 234.013357 
z
" clip-path="url(#p91f50a76c1)" style="fill: #1f77b4; fill-opacity: 0.5"/>
   </g>
   <g id="PolyCollection_2">
    <path d="M 69.218182 235.140852 
L 69.218182 234.793548 
L 70.747647 234.793548 
L 72.277113 234.793548 
L 73.806578 234.793548 
L 75.336044 234.793548 
L 76.865509 234.793548 
L 78.394975 234.793548 
L 79.92444 234.793548 
L 81.453906 234.793548 
L 82.983371 234.793548 
L 84.512837 234.793548 
L 86.042302 234.793548 
L 87.571768 234.793548 
L 89.101233 234.793548 
L 90.630699 234.793548 
L 92.160164 234.793548 
L 93.68963 234.793548 
L 95.219095 234.793548 
L 96.748561 234.793548 
L 98.278026 234.793548 
L 99.807492 234.793548 
L 101.336958 234.793548 
L 102.866423 234.793548 
L 104.395889 234.793548 
L 105.925354 234.793548 
L 107.45482 234.793548 
L 108.984285 234.793548 
L 110.513751 234.793548 
L 112.043216 234.793548 
L 113.572682 234.793548 
L 115.102147 234.793548 
L 116.631613 234.793548 
L 118.161078 234.793548 
L 119.690544 234.793548 
L 121.220009 234.793548 
L 122.749475 234.793548 
L 124.27894 234.793548 
L 125.808406 234.793548 
L 127.337871 234.793548 
L 128.867337 234.793548 
L 130.396802 234.793548 
L 131.926268 234.793548 
L 133.455733 234.793548 
L 134.985199 234.793548 
L 136.514664 234.793548 
L 138.04413 234.793548 
L 139.573595 234.793548 
L 141.103061 234.793548 
L 142.632526 234.793548 
L 144.161992 234.793548 
L 145.691457 234.793548 
L 147.220923 234.793548 
L 148.750388 234.793548 
L 150.279854 234.793548 
L 151.809319 234.793548 
L 153.338785 234.793548 
L 154.86825 234.793548 
L 156.397716 234.793548 
L 157.927181 234.793548 
L 159.456647 234.793548 
L 160.986112 234.793548 
L 162.515578 234.793548 
L 164.045043 234.793548 
L 165.574509 234.793548 
L 167.103974 234.793548 
L 168.63344 234.793548 
L 170.162905 234.793548 
L 171.692371 234.793548 
L 173.221836 234.793548 
L 174.751302 234.793548 
L 176.280767 234.793548 
L 177.810233 234.793548 
L 179.339698 234.793548 
L 180.869164 234.793548 
L 182.39863 234.793548 
L 183.928095 234.793548 
L 185.457561 234.793548 
L 186.987026 234.793548 
L 188.516492 234.793548 
L 190.045957 234.793548 
L 191.575423 234.793548 
L 193.104888 234.793548 
L 194.634354 234.793548 
L 196.163819 234.793548 
L 197.693285 234.793548 
L 199.22275 234.793548 
L 200.752216 234.793548 
L 202.281681 234.793548 
L 203.811147 234.793548 
L 205.340612 234.793548 
L 206.870078 234.793548 
L 208.399543 234.793548 
L 209.929009 234.793548 
L 211.458474 234.793548 
L 212.98794 234.793548 
L 214.517405 234.793548 
L 216.046871 234.793548 
L 217.576336 234.793548 
L 219.105802 234.793548 
L 220.635267 234.793548 
L 222.164733 234.793548 
L 223.694198 234.793548 
L 225.223664 234.793548 
L 226.753129 234.793548 
L 228.282595 234.793548 
L 229.81206 234.793548 
L 231.341526 234.793548 
L 232.870991 234.793548 
L 234.400457 234.793548 
L 235.929922 234.793548 
L 237.459388 234.793548 
L 238.988853 234.793548 
L 240.518319 234.793548 
L 242.047784 234.793548 
L 243.57725 234.793548 
L 245.106715 234.793548 
L 246.636181 234.793548 
L 248.165646 234.793548 
L 249.695112 234.793548 
L 251.224577 234.793548 
L 252.754043 234.793548 
L 254.283508 234.793548 
L 255.812974 234.793548 
L 257.342439 234.793548 
L 258.871905 234.793548 
L 260.40137 234.793548 
L 261.930836 234.793548 
L 263.460302 234.793548 
L 264.989767 234.793548 
L 266.519233 234.793548 
L 268.048698 234.793548 
L 269.578164 234.793548 
L 271.107629 234.793548 
L 272.637095 234.793548 
L 274.16656 234.793548 
L 275.696026 234.793548 
L 277.225491 234.793548 
L 278.754957 234.793548 
L 280.284422 234.793548 
L 281.813888 234.793548 
L 283.343353 234.793548 
L 284.872819 234.793548 
L 286.402284 234.793548 
L 287.93175 234.793548 
L 289.461215 234.793548 
L 290.990681 234.793548 
L 292.520146 234.793548 
L 294.049612 234.793548 
L 295.579077 234.793548 
L 297.108543 234.793548 
L 298.638008 234.793548 
L 300.167474 234.793548 
L 301.696939 234.793548 
L 303.226405 234.793548 
L 304.75587 234.793548 
L 306.285336 234.793548 
L 307.814801 234.793548 
L 309.344267 234.793548 
L 310.873732 234.793548 
L 312.403198 234.793548 
L 313.932663 234.793548 
L 315.462129 234.793548 
L 316.991594 234.793548 
L 318.52106 234.793548 
L 320.050525 234.793548 
L 321.579991 234.793548 
L 323.109456 234.793548 
L 324.638922 234.793548 
L 326.168387 234.793548 
L 327.697853 234.793548 
L 329.227318 234.793548 
L 330.756784 234.793548 
L 332.286249 234.793548 
L 333.815715 234.793548 
L 335.34518 234.793548 
L 336.874646 234.793548 
L 338.404111 234.793548 
L 339.933577 234.793548 
L 341.463042 234.793548 
L 342.992508 234.793548 
L 344.521974 234.793548 
L 346.051439 234.793548 
L 347.580905 234.793548 
L 349.11037 234.793548 
L 350.639836 234.793548 
L 352.169301 234.793548 
L 353.698767 234.793548 
L 355.228232 234.793548 
L 356.757698 234.793548 
L 358.287163 234.793548 
L 359.816629 234.793548 
L 361.346094 234.793548 
L 362.87556 234.793548 
L 364.405025 234.793548 
L 365.934491 234.793548 
L 367.463956 234.793548 
L 368.993422 234.793548 
L 370.522887 234.793548 
L 372.052353 234.793548 
L 373.581818 234.793548 
L 373.581818 235.140852 
L 373.581818 235.140852 
L 372.052353 235.140852 
L 370.522887 235.140852 
L 368.993422 235.140852 
L 367.463956 235.140852 
L 365.934491 235.140852 
L 364.405025 235.140852 
L 362.87556 235.140852 
L 361.346094 235.140852 
L 359.816629 235.140852 
L 358.287163 235.140852 
L 356.757698 235.140852 
L 355.228232 235.140852 
L 353.698767 235.140852 
L 352.169301 235.140852 
L 350.639836 235.140852 
L 349.11037 235.140852 
L 347.580905 235.140852 
L 346.051439 235.140852 
L 344.521974 235.140852 
L 342.992508 235.140852 
L 341.463042 235.140852 
L 339.933577 235.140852 
L 338.404111 235.140852 
L 336.874646 235.140852 
L 335.34518 235.140852 
L 333.815715 235.140852 
L 332.286249 235.140852 
L 330.756784 235.140852 
L 329.227318 235.140852 
L 327.697853 235.140852 
L 326.168387 235.140852 
L 324.638922 235.140852 
L 323.109456 235.140852 
L 321.579991 235.140852 
L 320.050525 235.140852 
L 318.52106 235.140852 
L 316.991594 235.140852 
L 315.462129 235.140852 
L 313.932663 235.140852 
L 312.403198 235.140852 
L 310.873732 235.140852 
L 309.344267 235.140852 
L 307.814801 235.140852 
L 306.285336 235.140852 
L 304.75587 235.140852 
L 303.226405 235.140852 
L 301.696939 235.140852 
L 300.167474 235.140852 
L 298.638008 235.140852 
L 297.108543 235.140852 
L 295.579077 235.140852 
L 294.049612 235.140852 
L 292.520146 235.140852 
L 290.990681 235.140852 
L 289.461215 235.140852 
L 287.93175 235.140852 
L 286.402284 235.140852 
L 284.872819 235.140852 
L 283.343353 235.140852 
L 281.813888 235.140852 
L 280.284422 235.140852 
L 278.754957 235.140852 
L 277.225491 235.140852 
L 275.696026 235.140852 
L 274.16656 235.140852 
L 272.637095 235.140852 
L 271.107629 235.140852 
L 269.578164 235.140852 
L 268.048698 235.140852 
L 266.519233 235.140852 
L 264.989767 235.140852 
L 263.460302 235.140852 
L 261.930836 235.140852 
L 260.40137 235.140852 
L 258.871905 235.140852 
L 257.342439 235.140852 
L 255.812974 235.140852 
L 254.283508 235.140852 
L 252.754043 235.140852 
L 251.224577 235.140852 
L 249.695112 235.140852 
L 248.165646 235.140852 
L 246.636181 235.140852 
L 245.106715 235.140852 
L 243.57725 235.140852 
L 242.047784 235.140852 
L 240.518319 235.140852 
L 238.988853 235.140852 
L 237.459388 235.140852 
L 235.929922 235.140852 
L 234.400457 235.140852 
L 232.870991 235.140852 
L 231.341526 235.140852 
L 229.81206 235.140852 
L 228.282595 235.140852 
L 226.753129 235.140852 
L 225.223664 235.140852 
L 223.694198 235.140852 
L 222.164733 235.140852 
L 220.635267 235.140852 
L 219.105802 235.140852 
L 217.576336 235.140852 
L 216.046871 235.140852 
L 214.517405 235.140852 
L 212.98794 235.140852 
L 211.458474 235.140852 
L 209.929009 235.140852 
L 208.399543 235.140852 
L 206.870078 235.140852 
L 205.340612 235.140852 
L 203.811147 235.140852 
L 202.281681 235.140852 
L 200.752216 235.140852 
L 199.22275 235.140852 
L 197.693285 235.140852 
L 196.163819 235.140852 
L 194.634354 235.140852 
L 193.104888 235.140852 
L 191.575423 235.140852 
L 190.045957 235.140852 
L 188.516492 235.140852 
L 186.987026 235.140852 
L 185.457561 235.140852 
L 183.928095 235.140852 
L 182.39863 235.140852 
L 180.869164 235.140852 
L 179.339698 235.140852 
L 177.810233 235.140852 
L 176.280767 235.140852 
L 174.751302 235.140852 
L 173.221836 235.140852 
L 171.692371 235.140852 
L 170.162905 235.140852 
L 168.63344 235.140852 
L 167.103974 235.140852 
L 165.574509 235.140852 
L 164.045043 235.140852 
L 162.515578 235.140852 
L 160.986112 235.140852 
L 159.456647 235.140852 
L 157.927181 235.140852 
L 156.397716 235.140852 
L 154.86825 235.140852 
L 153.338785 235.140852 
L 151.809319 235.140852 
L 150.279854 235.140852 
L 148.750388 235.140852 
L 147.220923 235.140852 
L 145.691457 235.140852 
L 144.161992 235.140852 
L 142.632526 235.140852 
L 141.103061 235.140852 
L 139.573595 235.140852 
L 138.04413 235.140852 
L 136.514664 235.140852 
L 134.985199 235.140852 
L 133.455733 235.140852 
L 131.926268 235.140852 
L 130.396802 235.140852 
L 128.867337 235.140852 
L 127.337871 235.140852 
L 125.808406 235.140852 
L 124.27894 235.140852 
L 122.749475 235.140852 
L 121.220009 235.140852 
L 119.690544 235.140852 
L 118.161078 235.140852 
L 116.631613 235.140852 
L 115.102147 235.140852 
L 113.572682 235.140852 
L 112.043216 235.140852 
L 110.513751 235.140852 
L 108.984285 235.140852 
L 107.45482 235.140852 
L 105.925354 235.140852 
L 104.395889 235.140852 
L 102.866423 235.140852 
L 101.336958 235.140852 
L 99.807492 235.140852 
L 98.278026 235.140852 
L 96.748561 235.140852 
L 95.219095 235.140852 
L 93.68963 235.140852 
L 92.160164 235.140852 
L 90.630699 235.140852 
L 89.101233 235.140852 
L 87.571768 235.140852 
L 86.042302 235.140852 
L 84.512837 235.140852 
L 82.983371 235.140852 
L 81.453906 235.140852 
L 79.92444 235.140852 
L 78.394975 235.140852 
L 76.865509 235.140852 
L 75.336044 235.140852 
L 73.806578 235.140852 
L 72.277113 235.140852 
L 70.747647 235.140852 
L 69.218182 235.140852 
z
" clip-path="url(#p91f50a76c1)" style="fill: #ff7f0e; fill-opacity: 0.5"/>
   </g>
   <g id="matplotlib.axis_1">
    <g id="xtick_1">
     <g id="line2d_1">
      <defs>
       <path id="m3da0af570f" d="M 0 0 
L 0 3.5 
" style="stroke: #000000; stroke-width: 0.8"/>
      </defs>
      <g>
       <use xlink:href="#m3da0af570f" x="69.218182" y="252" style="stroke: #000000; stroke-width: 0.8"/>
      </g>
     </g>
     <g id="text_1">
      <!-- 0 -->
      <g transform="translate(66.036932 266.598437)scale(0.1 -0.1)">
       <defs>
        <path id="DejaVuSans-30" d="M 2034 4250 
Q 1547 4250 1301 3770 
Q 1056 3291 1056 2328 
Q 1056 1369 1301 889 
Q 1547 409 2034 409 
Q 2525 409 2770 889 
Q 3016 1369 3016 2328 
Q 3016 3291 2770 3770 
Q 2525 4250 2034 4250 
z
M 2034 4750 
Q 2819 4750 3233 4129 
Q 3647 3509 3647 2328 
Q 3647 1150 3233 529 
Q 2819 -91 2034 -91 
Q 1250 -91 836 529 
Q 422 1150 422 2328 
Q 422 3509 836 4129 
Q 1250 4750 2034 4750 
z
" transform="scale(0.015625)"/>
       </defs>
       <use xlink:href="#DejaVuSans-30"/>
      </g>
     </g>
    </g>
    <g id="xtick_2">
     <g id="line2d_2">
      <g>
       <use xlink:href="#m3da0af570f" x="107.45482" y="252" style="stroke: #000000; stroke-width: 0.8"/>
      </g>
     </g>
     <g id="text_2">
      <!-- 25 -->
      <g transform="translate(101.09232 266.598437)scale(0.1 -0.1)">
       <defs>
        <path id="DejaVuSans-32" d="M 1228 531 
L 3431 531 
L 3431 0 
L 469 0 
L 469 531 
Q 828 903 1448 1529 
Q 2069 2156 2228 2338 
Q 2531 2678 2651 2914 
Q 2772 3150 2772 3378 
Q 2772 3750 2511 3984 
Q 2250 4219 1831 4219 
Q 1534 4219 1204 4116 
Q 875 4013 500 3803 
L 500 4441 
Q 881 4594 1212 4672 
Q 1544 4750 1819 4750 
Q 2544 4750 2975 4387 
Q 3406 4025 3406 3419 
Q 3406 3131 3298 2873 
Q 3191 2616 2906 2266 
Q 2828 2175 2409 1742 
Q 1991 1309 1228 531 
z
" transform="scale(0.015625)"/>
        <path id="DejaVuSans-35" d="M 691 4666 
L 3169 4666 
L 3169 4134 
L 1269 4134 
L 1269 2991 
Q 1406 3038 1543 3061 
Q 1681 3084 1819 3084 
Q 2600 3084 3056 2656 
Q 3513 2228 3513 1497 
Q 3513 744 3044 326 
Q 2575 -91 1722 -91 
Q 1428 -91 1123 -41 
Q 819 9 494 109 
L 494 744 
Q 775 591 1075 516 
Q 1375 441 1709 441 
Q 2250 441 2565 725 
Q 2881 1009 2881 1497 
Q 2881 1984 2565 2268 
Q 2250 2553 1709 2553 
Q 1456 2553 1204 2497 
Q 953 2441 691 2322 
L 691 4666 
z
" transform="scale(0.015625)"/>
       </defs>
       <use xlink:href="#DejaVuSans-32"/>
       <use xlink:href="#DejaVuSans-35" x="63.623047"/>
      </g>
     </g>
    </g>
    <g id="xtick_3">
     <g id="line2d_3">
      <g>
       <use xlink:href="#m3da0af570f" x="145.691457" y="252" style="stroke: #000000; stroke-width: 0.8"/>
      </g>
     </g>
     <g id="text_3">
      <!-- 50 -->
      <g transform="translate(139.328957 266.598437)scale(0.1 -0.1)">
       <use xlink:href="#DejaVuSans-35"/>
       <use xlink:href="#DejaVuSans-30" x="63.623047"/>
      </g>
     </g>
    </g>
    <g id="xtick_4">
     <g id="line2d_4">
      <g>
       <use xlink:href="#m3da0af570f" x="183.928095" y="252" style="stroke: #000000; stroke-width: 0.8"/>
      </g>
     </g>
     <g id="text_4">
      <!-- 75 -->
      <g transform="translate(177.565595 266.598437)scale(0.1 -0.1)">
       <defs>
        <path id="DejaVuSans-37" d="M 525 4666 
L 3525 4666 
L 3525 4397 
L 1831 0 
L 1172 0 
L 2766 4134 
L 525 4134 
L 525 4666 
z
" transform="scale(0.015625)"/>
       </defs>
       <use xlink:href="#DejaVuSans-37"/>
       <use xlink:href="#DejaVuSans-35" x="63.623047"/>
      </g>
     </g>
    </g>
    <g id="xtick_5">
     <g id="line2d_5">
      <g>
       <use xlink:href="#m3da0af570f" x="222.164733" y="252" style="stroke: #000000; stroke-width: 0.8"/>
      </g>
     </g>
     <g id="text_5">
      <!-- 100 -->
      <g transform="translate(212.620983 266.598437)scale(0.1 -0.1)">
       <defs>
        <path id="DejaVuSans-31" d="M 794 531 
L 1825 531 
L 1825 4091 
L 703 3866 
L 703 4441 
L 1819 4666 
L 2450 4666 
L 2450 531 
L 3481 531 
L 3481 0 
L 794 0 
L 794 531 
z
" transform="scale(0.015625)"/>
       </defs>
       <use xlink:href="#DejaVuSans-31"/>
       <use xlink:href="#DejaVuSans-30" x="63.623047"/>
       <use xlink:href="#DejaVuSans-30" x="127.246094"/>
      </g>
     </g>
    </g>
    <g id="xtick_6">
     <g id="line2d_6">
      <g>
       <use xlink:href="#m3da0af570f" x="260.40137" y="252" style="stroke: #000000; stroke-width: 0.8"/>
      </g>
     </g>
     <g id="text_6">
      <!-- 125 -->
      <g transform="translate(250.85762 266.598437)scale(0.1 -0.1)">
       <use xlink:href="#DejaVuSans-31"/>
       <use xlink:href="#DejaVuSans-32" x="63.623047"/>
       <use xlink:href="#DejaVuSans-35" x="127.246094"/>
      </g>
     </g>
    </g>
    <g id="xtick_7">
     <g id="line2d_7">
      <g>
       <use xlink:href="#m3da0af570f" x="298.638008" y="252" style="stroke: #000000; stroke-width: 0.8"/>
      </g>
     </g>
     <g id="text_7">
      <!-- 150 -->
      <g transform="translate(289.094258 266.598437)scale(0.1 -0.1)">
       <use xlink:href="#DejaVuSans-31"/>
       <use xlink:href="#DejaVuSans-35" x="63.623047"/>
       <use xlink:href="#DejaVuSans-30" x="127.246094"/>
      </g>
     </g>
    </g>
    <g id="xtick_8">
     <g id="line2d_8">
      <g>
       <use xlink:href="#m3da0af570f" x="336.874646" y="252" style="stroke: #000000; stroke-width: 0.8"/>
      </g>
     </g>
     <g id="text_8">
      <!-- 175 -->
      <g transform="translate(327.330896 266.598437)scale(0.1 -0.1)">
       <use xlink:href="#DejaVuSans-31"/>
       <use xlink:href="#DejaVuSans-37" x="63.623047"/>
       <use xlink:href="#DejaVuSans-35" x="127.246094"/>
      </g>
     </g>
    </g>
    <g id="xtick_9">
     <g id="line2d_9">
      <g>
       <use xlink:href="#m3da0af570f" x="375.111284" y="252" style="stroke: #000000; stroke-width: 0.8"/>
      </g>
     </g>
     <g id="text_9">
      <!-- 200 -->
      <g transform="translate(365.567534 266.598437)scale(0.1 -0.1)">
       <use xlink:href="#DejaVuSans-32"/>
       <use xlink:href="#DejaVuSans-30" x="63.623047"/>
       <use xlink:href="#DejaVuSans-30" x="127.246094"/>
      </g>
     </g>
    </g>
    <g id="text_10">
     <!-- Generation -->
     <g transform="translate(193.507031 280.276563)scale(0.1 -0.1)">
      <defs>
       <path id="DejaVuSans-47" d="M 3809 666 
L 3809 1919 
L 2778 1919 
L 2778 2438 
L 4434 2438 
L 4434 434 
Q 4069 175 3628 42 
Q 3188 -91 2688 -91 
Q 1594 -91 976 548 
Q 359 1188 359 2328 
Q 359 3472 976 4111 
Q 1594 4750 2688 4750 
Q 3144 4750 3555 4637 
Q 3966 4525 4313 4306 
L 4313 3634 
Q 3963 3931 3569 4081 
Q 3175 4231 2741 4231 
Q 1884 4231 1454 3753 
Q 1025 3275 1025 2328 
Q 1025 1384 1454 906 
Q 1884 428 2741 428 
Q 3075 428 3337 486 
Q 3600 544 3809 666 
z
" transform="scale(0.015625)"/>
       <path id="DejaVuSans-65" d="M 3597 1894 
L 3597 1613 
L 953 1613 
Q 991 1019 1311 708 
Q 1631 397 2203 397 
Q 2534 397 2845 478 
Q 3156 559 3463 722 
L 3463 178 
Q 3153 47 2828 -22 
Q 2503 -91 2169 -91 
Q 1331 -91 842 396 
Q 353 884 353 1716 
Q 353 2575 817 3079 
Q 1281 3584 2069 3584 
Q 2775 3584 3186 3129 
Q 3597 2675 3597 1894 
z
M 3022 2063 
Q 3016 2534 2758 2815 
Q 2500 3097 2075 3097 
Q 1594 3097 1305 2825 
Q 1016 2553 972 2059 
L 3022 2063 
z
" transform="scale(0.015625)"/>
       <path id="DejaVuSans-6e" d="M 3513 2113 
L 3513 0 
L 2938 0 
L 2938 2094 
Q 2938 2591 2744 2837 
Q 2550 3084 2163 3084 
Q 1697 3084 1428 2787 
Q 1159 2491 1159 1978 
L 1159 0 
L 581 0 
L 581 3500 
L 1159 3500 
L 1159 2956 
Q 1366 3272 1645 3428 
Q 1925 3584 2291 3584 
Q 2894 3584 3203 3211 
Q 3513 2838 3513 2113 
z
" transform="scale(0.015625)"/>
       <path id="DejaVuSans-72" d="M 2631 2963 
Q 2534 3019 2420 3045 
Q 2306 3072 2169 3072 
Q 1681 3072 1420 2755 
Q 1159 2438 1159 1844 
L 1159 0 
L 581 0 
L 581 3500 
L 1159 3500 
L 1159 2956 
Q 1341 3275 1631 3429 
Q 1922 3584 2338 3584 
Q 2397 3584 2469 3576 
Q 2541 3569 2628 3553 
L 2631 2963 
z
" transform="scale(0.015625)"/>
       <path id="DejaVuSans-61" d="M 2194 1759 
Q 1497 1759 1228 1600 
Q 959 1441 959 1056 
Q 959 750 1161 570 
Q 1363 391 1709 391 
Q 2188 391 2477 730 
Q 2766 1069 2766 1631 
L 2766 1759 
L 2194 1759 
z
M 3341 1997 
L 3341 0 
L 2766 0 
L 2766 531 
Q 2569 213 2275 61 
Q 1981 -91 1556 -91 
Q 1019 -91 701 211 
Q 384 513 384 1019 
Q 384 1609 779 1909 
Q 1175 2209 1959 2209 
L 2766 2209 
L 2766 2266 
Q 2766 2663 2505 2880 
Q 2244 3097 1772 3097 
Q 1472 3097 1187 3025 
Q 903 2953 641 2809 
L 641 3341 
Q 956 3463 1253 3523 
Q 1550 3584 1831 3584 
Q 2591 3584 2966 3190 
Q 3341 2797 3341 1997 
z
" transform="scale(0.015625)"/>
       <path id="DejaVuSans-74" d="M 1172 4494 
L 1172 3500 
L 2356 3500 
L 2356 3053 
L 1172 3053 
L 1172 1153 
Q 1172 725 1289 603 
Q 1406 481 1766 481 
L 2356 481 
L 2356 0 
L 1766 0 
Q 1100 0 847 248 
Q 594 497 594 1153 
L 594 3053 
L 172 3053 
L 172 3500 
L 594 3500 
L 594 4494 
L 1172 4494 
z
" transform="scale(0.015625)"/>
       <path id="DejaVuSans-69" d="M 603 3500 
L 1178 3500 
L 1178 0 
L 603 0 
L 603 3500 
z
M 603 4863 
L 1178 4863 
L 1178 4134 
L 603 4134 
L 603 4863 
z
" transform="scale(0.015625)"/>
       <path id="DejaVuSans-6f" d="M 1959 3097 
Q 1497 3097 1228 2736 
Q 959 2375 959 1747 
Q 959 1119 1226 758 
Q 1494 397 1959 397 
Q 2419 397 2687 759 
Q 2956 1122 2956 1747 
Q 2956 2369 2687 2733 
Q 2419 3097 1959 3097 
z
M 1959 3584 
Q 2709 3584 3137 3096 
Q 3566 2609 3566 1747 
Q 3566 888 3137 398 
Q 2709 -91 1959 -91 
Q 1206 -91 779 398 
Q 353 888 353 1747 
Q 353 2609 779 3096 
Q 1206 3584 1959 3584 
z
" transform="scale(0.015625)"/>
      </defs>
      <use xlink:href="#DejaVuSans-47"/>
      <use xlink:href="#DejaVuSans-65" x="77.490234"/>
      <use xlink:href="#DejaVuSans-6e" x="139.013672"/>
      <use xlink:href="#DejaVuSans-65" x="202.392578"/>
      <use xlink:href="#DejaVuSans-72" x="263.916016"/>
      <use xlink:href="#DejaVuSans-61" x="305.029297"/>
      <use xlink:href="#DejaVuSans-74" x="366.308594"/>
      <use xlink:href="#DejaVuSans-69" x="405.517578"/>
      <use xlink:href="#DejaVuSans-6f" x="433.300781"/>
      <use xlink:href="#DejaVuSans-6e" x="494.482422"/>
     </g>
    </g>
   </g>
   <g id="matplotlib.axis_2">
    <g id="ytick_1">
     <g id="line2d_10">
      <defs>
       <path id="mb324d0b8e5" d="M 0 0 
L -3.5 0 
" style="stroke: #000000; stroke-width: 0.8"/>
      </defs>
      <g>
       <use xlink:href="#mb324d0b8e5" x="54" y="233.88" style="stroke: #000000; stroke-width: 0.8"/>
      </g>
     </g>
     <g id="text_11">
      <!-- 5 -->
      <g transform="translate(40.6375 237.679219)scale(0.1 -0.1)">
       <use xlink:href="#DejaVuSans-35"/>
      </g>
     </g>
    </g>
    <g id="ytick_2">
     <g id="line2d_11">
      <g>
       <use xlink:href="#mb324d0b8e5" x="54" y="197.64" style="stroke: #000000; stroke-width: 0.8"/>
      </g>
     </g>
     <g id="text_12">
      <!-- 6 -->
      <g transform="translate(40.6375 201.439219)scale(0.1 -0.1)">
       <defs>
        <path id="DejaVuSans-36" d="M 2113 2584 
Q 1688 2584 1439 2293 
Q 1191 2003 1191 1497 
Q 1191 994 1439 701 
Q 1688 409 2113 409 
Q 2538 409 2786 701 
Q 3034 994 3034 1497 
Q 3034 2003 2786 2293 
Q 2538 2584 2113 2584 
z
M 3366 4563 
L 3366 3988 
Q 3128 4100 2886 4159 
Q 2644 4219 2406 4219 
Q 1781 4219 1451 3797 
Q 1122 3375 1075 2522 
Q 1259 2794 1537 2939 
Q 1816 3084 2150 3084 
Q 2853 3084 3261 2657 
Q 3669 2231 3669 1497 
Q 3669 778 3244 343 
Q 2819 -91 2113 -91 
Q 1303 -91 875 529 
Q 447 1150 447 2328 
Q 447 3434 972 4092 
Q 1497 4750 2381 4750 
Q 2619 4750 2861 4703 
Q 3103 4656 3366 4563 
z
" transform="scale(0.015625)"/>
       </defs>
       <use xlink:href="#DejaVuSans-36"/>
      </g>
     </g>
    </g>
    <g id="ytick_3">
     <g id="line2d_12">
      <g>
       <use xlink:href="#mb324d0b8e5" x="54" y="161.4" style="stroke: #000000; stroke-width: 0.8"/>
      </g>
     </g>
     <g id="text_13">
      <!-- 7 -->
      <g transform="translate(40.6375 165.199219)scale(0.1 -0.1)">
       <use xlink:href="#DejaVuSans-37"/>
      </g>
     </g>
    </g>
    <g id="ytick_4">
     <g id="line2d_13">
      <g>
       <use xlink:href="#mb324d0b8e5" x="54" y="125.16" style="stroke: #000000; stroke-width: 0.8"/>
      </g>
     </g>
     <g id="text_14">
      <!-- 8 -->
      <g transform="translate(40.6375 128.959219)scale(0.1 -0.1)">
       <defs>
        <path id="DejaVuSans-38" d="M 2034 2216 
Q 1584 2216 1326 1975 
Q 1069 1734 1069 1313 
Q 1069 891 1326 650 
Q 1584 409 2034 409 
Q 2484 409 2743 651 
Q 3003 894 3003 1313 
Q 3003 1734 2745 1975 
Q 2488 2216 2034 2216 
z
M 1403 2484 
Q 997 2584 770 2862 
Q 544 3141 544 3541 
Q 544 4100 942 4425 
Q 1341 4750 2034 4750 
Q 2731 4750 3128 4425 
Q 3525 4100 3525 3541 
Q 3525 3141 3298 2862 
Q 3072 2584 2669 2484 
Q 3125 2378 3379 2068 
Q 3634 1759 3634 1313 
Q 3634 634 3220 271 
Q 2806 -91 2034 -91 
Q 1263 -91 848 271 
Q 434 634 434 1313 
Q 434 1759 690 2068 
Q 947 2378 1403 2484 
z
M 1172 3481 
Q 1172 3119 1398 2916 
Q 1625 2713 2034 2713 
Q 2441 2713 2670 2916 
Q 2900 3119 2900 3481 
Q 2900 3844 2670 4047 
Q 2441 4250 2034 4250 
Q 1625 4250 1398 4047 
Q 1172 3844 1172 3481 
z
" transform="scale(0.015625)"/>
       </defs>
       <use xlink:href="#DejaVuSans-38"/>
      </g>
     </g>
    </g>
    <g id="ytick_5">
     <g id="line2d_14">
      <g>
       <use xlink:href="#mb324d0b8e5" x="54" y="88.92" style="stroke: #000000; stroke-width: 0.8"/>
      </g>
     </g>
     <g id="text_15">
      <!-- 9 -->
      <g transform="translate(40.6375 92.719219)scale(0.1 -0.1)">
       <defs>
        <path id="DejaVuSans-39" d="M 703 97 
L 703 672 
Q 941 559 1184 500 
Q 1428 441 1663 441 
Q 2288 441 2617 861 
Q 2947 1281 2994 2138 
Q 2813 1869 2534 1725 
Q 2256 1581 1919 1581 
Q 1219 1581 811 2004 
Q 403 2428 403 3163 
Q 403 3881 828 4315 
Q 1253 4750 1959 4750 
Q 2769 4750 3195 4129 
Q 3622 3509 3622 2328 
Q 3622 1225 3098 567 
Q 2575 -91 1691 -91 
Q 1453 -91 1209 -44 
Q 966 3 703 97 
z
M 1959 2075 
Q 2384 2075 2632 2365 
Q 2881 2656 2881 3163 
Q 2881 3666 2632 3958 
Q 2384 4250 1959 4250 
Q 1534 4250 1286 3958 
Q 1038 3666 1038 3163 
Q 1038 2656 1286 2365 
Q 1534 2075 1959 2075 
z
" transform="scale(0.015625)"/>
       </defs>
       <use xlink:href="#DejaVuSans-39"/>
      </g>
     </g>
    </g>
    <g id="ytick_6">
     <g id="line2d_15">
      <g>
       <use xlink:href="#mb324d0b8e5" x="54" y="52.68" style="stroke: #000000; stroke-width: 0.8"/>
      </g>
     </g>
     <g id="text_16">
      <!-- 10 -->
      <g transform="translate(34.275 56.479219)scale(0.1 -0.1)">
       <use xlink:href="#DejaVuSans-31"/>
       <use xlink:href="#DejaVuSans-30" x="63.623047"/>
      </g>
     </g>
    </g>
    <g id="text_17">
     <!-- Mean Score -->
     <g transform="translate(28.195312 172.494844)rotate(-90)scale(0.1 -0.1)">
      <defs>
       <path id="DejaVuSans-4d" d="M 628 4666 
L 1569 4666 
L 2759 1491 
L 3956 4666 
L 4897 4666 
L 4897 0 
L 4281 0 
L 4281 4097 
L 3078 897 
L 2444 897 
L 1241 4097 
L 1241 0 
L 628 0 
L 628 4666 
z
" transform="scale(0.015625)"/>
       <path id="DejaVuSans-20" transform="scale(0.015625)"/>
       <path id="DejaVuSans-53" d="M 3425 4513 
L 3425 3897 
Q 3066 4069 2747 4153 
Q 2428 4238 2131 4238 
Q 1616 4238 1336 4038 
Q 1056 3838 1056 3469 
Q 1056 3159 1242 3001 
Q 1428 2844 1947 2747 
L 2328 2669 
Q 3034 2534 3370 2195 
Q 3706 1856 3706 1288 
Q 3706 609 3251 259 
Q 2797 -91 1919 -91 
Q 1588 -91 1214 -16 
Q 841 59 441 206 
L 441 856 
Q 825 641 1194 531 
Q 1563 422 1919 422 
Q 2459 422 2753 634 
Q 3047 847 3047 1241 
Q 3047 1584 2836 1778 
Q 2625 1972 2144 2069 
L 1759 2144 
Q 1053 2284 737 2584 
Q 422 2884 422 3419 
Q 422 4038 858 4394 
Q 1294 4750 2059 4750 
Q 2388 4750 2728 4690 
Q 3069 4631 3425 4513 
z
" transform="scale(0.015625)"/>
       <path id="DejaVuSans-63" d="M 3122 3366 
L 3122 2828 
Q 2878 2963 2633 3030 
Q 2388 3097 2138 3097 
Q 1578 3097 1268 2742 
Q 959 2388 959 1747 
Q 959 1106 1268 751 
Q 1578 397 2138 397 
Q 2388 397 2633 464 
Q 2878 531 3122 666 
L 3122 134 
Q 2881 22 2623 -34 
Q 2366 -91 2075 -91 
Q 1284 -91 818 406 
Q 353 903 353 1747 
Q 353 2603 823 3093 
Q 1294 3584 2113 3584 
Q 2378 3584 2631 3529 
Q 2884 3475 3122 3366 
z
" transform="scale(0.015625)"/>
      </defs>
      <use xlink:href="#DejaVuSans-4d"/>
      <use xlink:href="#DejaVuSans-65" x="86.279297"/>
      <use xlink:href="#DejaVuSans-61" x="147.802734"/>
      <use xlink:href="#DejaVuSans-6e" x="209.082031"/>
      <use xlink:href="#DejaVuSans-20" x="272.460938"/>
      <use xlink:href="#DejaVuSans-53" x="304.248047"/>
      <use xlink:href="#DejaVuSans-63" x="367.724609"/>
      <use xlink:href="#DejaVuSans-6f" x="422.705078"/>
      <use xlink:href="#DejaVuSans-72" x="483.886719"/>
      <use xlink:href="#DejaVuSans-65" x="522.75"/>
     </g>
    </g>
   </g>
   <g id="line2d_16">
    <path d="M 69.218182 233.942786 
L 70.747647 233.34289 
L 72.277113 232.941596 
L 73.806578 232.290483 
L 78.394975 231.769771 
L 79.92444 231.095354 
L 81.453906 231.111812 
L 82.983371 230.858814 
L 84.512837 230.472979 
L 87.571768 229.854352 
L 89.101233 229.429427 
L 90.630699 229.82251 
L 93.68963 229.071729 
L 95.219095 229.158224 
L 96.748561 228.728307 
L 99.807492 228.629958 
L 101.336958 228.302222 
L 102.866423 228.286589 
L 104.395889 228.126546 
L 105.925354 228.346245 
L 107.45482 228.010656 
L 108.984285 228.286826 
L 110.513751 228.097608 
L 112.043216 228.420988 
L 115.102147 228.376553 
L 116.631613 228.724944 
L 118.161078 228.849493 
L 119.690544 228.810112 
L 121.220009 228.239972 
L 122.749475 228.253645 
L 124.27894 227.846431 
L 125.808406 228.184429 
L 127.337871 228.073225 
L 128.867337 227.678982 
L 130.396802 228.111653 
L 131.926268 227.828402 
L 134.985199 227.620883 
L 136.514664 227.464054 
L 138.04413 227.796633 
L 139.573595 227.897246 
L 144.161992 227.223034 
L 147.220923 227.423917 
L 148.750388 227.317469 
L 150.279854 226.969996 
L 151.809319 227.512957 
L 153.338785 227.492447 
L 154.86825 227.273185 
L 156.397716 226.623476 
L 157.927181 226.514049 
L 159.456647 227.198196 
L 160.986112 226.667388 
L 162.515578 226.541259 
L 164.045043 227.489032 
L 165.574509 227.159966 
L 167.103974 227.300559 
L 168.63344 227.014175 
L 170.162905 226.981119 
L 171.692371 227.290704 
L 173.221836 226.327788 
L 174.751302 226.680019 
L 177.810233 226.22655 
L 179.339698 226.153222 
L 180.869164 225.912612 
L 182.39863 226.107264 
L 183.928095 226.966176 
L 185.457561 226.24396 
L 188.516492 226.72317 
L 190.045957 226.731809 
L 191.575423 226.540939 
L 193.104888 227.233738 
L 194.634354 226.957096 
L 196.163819 226.484028 
L 197.693285 226.153229 
L 199.22275 226.889105 
L 200.752216 226.465655 
L 202.281681 226.682819 
L 205.340612 226.133201 
L 206.870078 226.174607 
L 208.399543 226.047846 
L 209.929009 226.350376 
L 211.458474 226.837013 
L 212.98794 226.623973 
L 214.517405 226.592385 
L 216.046871 226.160149 
L 217.576336 226.168267 
L 222.164733 226.48963 
L 223.694198 226.399818 
L 225.223664 226.172238 
L 226.753129 226.506155 
L 229.81206 226.290729 
L 231.341526 226.546579 
L 232.870991 226.346638 
L 234.400457 226.915588 
L 235.929922 226.177417 
L 237.459388 226.703734 
L 238.988853 225.918946 
L 240.518319 226.290621 
L 242.047784 226.207538 
L 243.57725 225.909834 
L 245.106715 225.827877 
L 246.636181 225.619009 
L 248.165646 225.94545 
L 251.224577 225.935619 
L 252.754043 225.62825 
L 254.283508 226.156875 
L 255.812974 225.339949 
L 257.342439 225.611007 
L 258.871905 225.645014 
L 260.40137 226.138783 
L 261.930836 225.989808 
L 263.460302 225.407796 
L 264.989767 226.17167 
L 266.519233 225.789871 
L 268.048698 224.774591 
L 269.578164 225.283444 
L 271.107629 225.917547 
L 272.637095 225.85862 
L 274.16656 225.427734 
L 275.696026 226.142853 
L 277.225491 225.367751 
L 280.284422 225.08476 
L 281.813888 224.87738 
L 283.343353 225.060269 
L 284.872819 224.866936 
L 287.93175 224.994764 
L 289.461215 224.688797 
L 290.990681 224.979478 
L 292.520146 224.20264 
L 294.049612 225.025871 
L 295.579077 224.561413 
L 297.108543 225.093434 
L 298.638008 224.823312 
L 300.167474 225.158681 
L 301.696939 224.416924 
L 303.226405 225.090739 
L 306.285336 224.938116 
L 307.814801 225.167143 
L 309.344267 225.243581 
L 310.873732 225.137009 
L 312.403198 225.401999 
L 313.932663 224.68123 
L 315.462129 224.869868 
L 316.991594 225.3678 
L 320.050525 225.27931 
L 321.579991 225.477955 
L 323.109456 225.38597 
L 324.638922 225.760174 
L 326.168387 225.108692 
L 327.697853 225.272239 
L 329.227318 224.935548 
L 330.756784 225.212478 
L 332.286249 225.252349 
L 333.815715 224.608211 
L 335.34518 225.194719 
L 338.404111 224.760023 
L 339.933577 225.45633 
L 341.463042 224.813295 
L 342.992508 225.206157 
L 344.521974 224.404215 
L 346.051439 225.403945 
L 347.580905 224.961429 
L 349.11037 225.738761 
L 350.639836 224.311311 
L 352.169301 225.543655 
L 353.698767 224.022014 
L 355.228232 224.937112 
L 356.757698 225.269507 
L 358.287163 225.377917 
L 361.346094 225.241461 
L 362.87556 225.25761 
L 364.405025 225.451555 
L 365.934491 225.020981 
L 367.463956 225.282962 
L 368.993422 224.841749 
L 370.522887 225.613028 
L 372.052353 225.0274 
L 373.581818 225.287432 
L 373.581818 225.287432 
" clip-path="url(#p91f50a76c1)" style="fill: none; stroke: #1f77b4; stroke-width: 1.5; stroke-linecap: square"/>
   </g>
   <g id="line2d_17">
    <path d="M 69.218182 234.9672 
L 373.581818 234.9672 
L 373.581818 234.9672 
" clip-path="url(#p91f50a76c1)" style="fill: none; stroke-dasharray: 5.55,2.4; stroke-dashoffset: 0; stroke: #ff7f0e; stroke-width: 1.5"/>
   </g>
   <g id="line2d_18">
    <path d="M 69.218182 52.68 
L 373.581818 52.68 
L 373.581818 52.68 
" clip-path="url(#p91f50a76c1)" style="fill: none; stroke-dasharray: 5.55,2.4; stroke-dashoffset: 0; stroke: #2ca02c; stroke-width: 1.5"/>
   </g>
   <g id="patch_3">
    <path d="M 54 252 
L 54 34.56 
" style="fill: none; stroke: #000000; stroke-width: 0.8; stroke-linejoin: miter; stroke-linecap: square"/>
   </g>
   <g id="patch_4">
    <path d="M 388.8 252 
L 388.8 34.56 
" style="fill: none; stroke: #000000; stroke-width: 0.8; stroke-linejoin: miter; stroke-linecap: square"/>
   </g>
   <g id="patch_5">
    <path d="M 54 252 
L 388.8 252 
" style="fill: none; stroke: #000000; stroke-width: 0.8; stroke-linejoin: miter; stroke-linecap: square"/>
   </g>
   <g id="patch_6">
    <path d="M 54 34.56 
L 388.8 34.56 
" style="fill: none; stroke: #000000; stroke-width: 0.8; stroke-linejoin: miter; stroke-linecap: square"/>
   </g>
   <g id="text_18">
    <!-- Ladder -->
    <g transform="translate(200.603438 28.56)scale(0.12 -0.12)">
     <defs>
      <path id="DejaVuSans-4c" d="M 628 4666 
L 1259 4666 
L 1259 531 
L 3531 531 
L 3531 0 
L 628 0 
L 628 4666 
z
" transform="scale(0.015625)"/>
      <path id="DejaVuSans-64" d="M 2906 2969 
L 2906 4863 
L 3481 4863 
L 3481 0 
L 2906 0 
L 2906 525 
Q 2725 213 2448 61 
Q 2172 -91 1784 -91 
Q 1150 -91 751 415 
Q 353 922 353 1747 
Q 353 2572 751 3078 
Q 1150 3584 1784 3584 
Q 2172 3584 2448 3432 
Q 2725 3281 2906 2969 
z
M 947 1747 
Q 947 1113 1208 752 
Q 1469 391 1925 391 
Q 2381 391 2643 752 
Q 2906 1113 2906 1747 
Q 2906 2381 2643 2742 
Q 2381 3103 1925 3103 
Q 1469 3103 1208 2742 
Q 947 2381 947 1747 
z
" transform="scale(0.015625)"/>
     </defs>
     <use xlink:href="#DejaVuSans-4c"/>
     <use xlink:href="#DejaVuSans-61" x="55.712891"/>
     <use xlink:href="#DejaVuSans-64" x="116.992188"/>
     <use xlink:href="#DejaVuSans-64" x="180.46875"/>
     <use xlink:href="#DejaVuSans-65" x="243.945312"/>
     <use xlink:href="#DejaVuSans-72" x="305.46875"/>
    </g>
   </g>
   <g id="legend_1">
    <g id="patch_7">
     <path d="M 227.929688 166.93625 
L 381.8 166.93625 
Q 383.8 166.93625 383.8 164.93625 
L 383.8 121.62375 
Q 383.8 119.62375 381.8 119.62375 
L 227.929688 119.62375 
Q 225.929688 119.62375 225.929688 121.62375 
L 225.929688 164.93625 
Q 225.929688 166.93625 227.929688 166.93625 
z
" style="fill: #ffffff; opacity: 0.8; stroke: #cccccc; stroke-linejoin: miter"/>
    </g>
    <g id="line2d_19">
     <path d="M 229.929688 127.722188 
L 239.929688 127.722188 
L 249.929688 127.722188 
" style="fill: none; stroke: #1f77b4; stroke-width: 1.5; stroke-linecap: square"/>
    </g>
    <g id="text_19">
     <!-- training on ladder graph -->
     <g transform="translate(257.929688 131.222188)scale(0.1 -0.1)">
      <defs>
       <path id="DejaVuSans-67" d="M 2906 1791 
Q 2906 2416 2648 2759 
Q 2391 3103 1925 3103 
Q 1463 3103 1205 2759 
Q 947 2416 947 1791 
Q 947 1169 1205 825 
Q 1463 481 1925 481 
Q 2391 481 2648 825 
Q 2906 1169 2906 1791 
z
M 3481 434 
Q 3481 -459 3084 -895 
Q 2688 -1331 1869 -1331 
Q 1566 -1331 1297 -1286 
Q 1028 -1241 775 -1147 
L 775 -588 
Q 1028 -725 1275 -790 
Q 1522 -856 1778 -856 
Q 2344 -856 2625 -561 
Q 2906 -266 2906 331 
L 2906 616 
Q 2728 306 2450 153 
Q 2172 0 1784 0 
Q 1141 0 747 490 
Q 353 981 353 1791 
Q 353 2603 747 3093 
Q 1141 3584 1784 3584 
Q 2172 3584 2450 3431 
Q 2728 3278 2906 2969 
L 2906 3500 
L 3481 3500 
L 3481 434 
z
" transform="scale(0.015625)"/>
       <path id="DejaVuSans-6c" d="M 603 4863 
L 1178 4863 
L 1178 0 
L 603 0 
L 603 4863 
z
" transform="scale(0.015625)"/>
       <path id="DejaVuSans-70" d="M 1159 525 
L 1159 -1331 
L 581 -1331 
L 581 3500 
L 1159 3500 
L 1159 2969 
Q 1341 3281 1617 3432 
Q 1894 3584 2278 3584 
Q 2916 3584 3314 3078 
Q 3713 2572 3713 1747 
Q 3713 922 3314 415 
Q 2916 -91 2278 -91 
Q 1894 -91 1617 61 
Q 1341 213 1159 525 
z
M 3116 1747 
Q 3116 2381 2855 2742 
Q 2594 3103 2138 3103 
Q 1681 3103 1420 2742 
Q 1159 2381 1159 1747 
Q 1159 1113 1420 752 
Q 1681 391 2138 391 
Q 2594 391 2855 752 
Q 3116 1113 3116 1747 
z
" transform="scale(0.015625)"/>
       <path id="DejaVuSans-68" d="M 3513 2113 
L 3513 0 
L 2938 0 
L 2938 2094 
Q 2938 2591 2744 2837 
Q 2550 3084 2163 3084 
Q 1697 3084 1428 2787 
Q 1159 2491 1159 1978 
L 1159 0 
L 581 0 
L 581 4863 
L 1159 4863 
L 1159 2956 
Q 1366 3272 1645 3428 
Q 1925 3584 2291 3584 
Q 2894 3584 3203 3211 
Q 3513 2838 3513 2113 
z
" transform="scale(0.015625)"/>
      </defs>
      <use xlink:href="#DejaVuSans-74"/>
      <use xlink:href="#DejaVuSans-72" x="39.208984"/>
      <use xlink:href="#DejaVuSans-61" x="80.322266"/>
      <use xlink:href="#DejaVuSans-69" x="141.601562"/>
      <use xlink:href="#DejaVuSans-6e" x="169.384766"/>
      <use xlink:href="#DejaVuSans-69" x="232.763672"/>
      <use xlink:href="#DejaVuSans-6e" x="260.546875"/>
      <use xlink:href="#DejaVuSans-67" x="323.925781"/>
      <use xlink:href="#DejaVuSans-20" x="387.402344"/>
      <use xlink:href="#DejaVuSans-6f" x="419.189453"/>
      <use xlink:href="#DejaVuSans-6e" x="480.371094"/>
      <use xlink:href="#DejaVuSans-20" x="543.75"/>
      <use xlink:href="#DejaVuSans-6c" x="575.537109"/>
      <use xlink:href="#DejaVuSans-61" x="603.320312"/>
      <use xlink:href="#DejaVuSans-64" x="664.599609"/>
      <use xlink:href="#DejaVuSans-64" x="728.076172"/>
      <use xlink:href="#DejaVuSans-65" x="791.552734"/>
      <use xlink:href="#DejaVuSans-72" x="853.076172"/>
      <use xlink:href="#DejaVuSans-20" x="894.189453"/>
      <use xlink:href="#DejaVuSans-67" x="925.976562"/>
      <use xlink:href="#DejaVuSans-72" x="989.453125"/>
      <use xlink:href="#DejaVuSans-61" x="1030.566406"/>
      <use xlink:href="#DejaVuSans-70" x="1091.845703"/>
      <use xlink:href="#DejaVuSans-68" x="1155.322266"/>
     </g>
    </g>
    <g id="line2d_20">
     <path d="M 229.929688 142.400313 
L 239.929688 142.400313 
L 249.929688 142.400313 
" style="fill: none; stroke-dasharray: 5.55,2.4; stroke-dashoffset: 0; stroke: #ff7f0e; stroke-width: 1.5"/>
    </g>
    <g id="text_20">
     <!-- transfer learning -->
     <g transform="translate(257.929688 145.900313)scale(0.1 -0.1)">
      <defs>
       <path id="DejaVuSans-73" d="M 2834 3397 
L 2834 2853 
Q 2591 2978 2328 3040 
Q 2066 3103 1784 3103 
Q 1356 3103 1142 2972 
Q 928 2841 928 2578 
Q 928 2378 1081 2264 
Q 1234 2150 1697 2047 
L 1894 2003 
Q 2506 1872 2764 1633 
Q 3022 1394 3022 966 
Q 3022 478 2636 193 
Q 2250 -91 1575 -91 
Q 1294 -91 989 -36 
Q 684 19 347 128 
L 347 722 
Q 666 556 975 473 
Q 1284 391 1588 391 
Q 1994 391 2212 530 
Q 2431 669 2431 922 
Q 2431 1156 2273 1281 
Q 2116 1406 1581 1522 
L 1381 1569 
Q 847 1681 609 1914 
Q 372 2147 372 2553 
Q 372 3047 722 3315 
Q 1072 3584 1716 3584 
Q 2034 3584 2315 3537 
Q 2597 3491 2834 3397 
z
" transform="scale(0.015625)"/>
       <path id="DejaVuSans-66" d="M 2375 4863 
L 2375 4384 
L 1825 4384 
Q 1516 4384 1395 4259 
Q 1275 4134 1275 3809 
L 1275 3500 
L 2222 3500 
L 2222 3053 
L 1275 3053 
L 1275 0 
L 697 0 
L 697 3053 
L 147 3053 
L 147 3500 
L 697 3500 
L 697 3744 
Q 697 4328 969 4595 
Q 1241 4863 1831 4863 
L 2375 4863 
z
" transform="scale(0.015625)"/>
      </defs>
      <use xlink:href="#DejaVuSans-74"/>
      <use xlink:href="#DejaVuSans-72" x="39.208984"/>
      <use xlink:href="#DejaVuSans-61" x="80.322266"/>
      <use xlink:href="#DejaVuSans-6e" x="141.601562"/>
      <use xlink:href="#DejaVuSans-73" x="204.980469"/>
      <use xlink:href="#DejaVuSans-66" x="257.080078"/>
      <use xlink:href="#DejaVuSans-65" x="292.285156"/>
      <use xlink:href="#DejaVuSans-72" x="353.808594"/>
      <use xlink:href="#DejaVuSans-20" x="394.921875"/>
      <use xlink:href="#DejaVuSans-6c" x="426.708984"/>
      <use xlink:href="#DejaVuSans-65" x="454.492188"/>
      <use xlink:href="#DejaVuSans-61" x="516.015625"/>
      <use xlink:href="#DejaVuSans-72" x="577.294922"/>
      <use xlink:href="#DejaVuSans-6e" x="616.658203"/>
      <use xlink:href="#DejaVuSans-69" x="680.037109"/>
      <use xlink:href="#DejaVuSans-6e" x="707.820312"/>
      <use xlink:href="#DejaVuSans-67" x="771.199219"/>
     </g>
    </g>
    <g id="line2d_21">
     <path d="M 229.929688 157.078438 
L 239.929688 157.078438 
L 249.929688 157.078438 
" style="fill: none; stroke-dasharray: 5.55,2.4; stroke-dashoffset: 0; stroke: #2ca02c; stroke-width: 1.5"/>
    </g>
    <g id="text_21">
     <!-- QAOA_4 -->
     <g transform="translate(257.929688 160.578438)scale(0.1 -0.1)">
      <defs>
       <path id="DejaVuSans-51" d="M 2522 4238 
Q 1834 4238 1429 3725 
Q 1025 3213 1025 2328 
Q 1025 1447 1429 934 
Q 1834 422 2522 422 
Q 3209 422 3611 934 
Q 4013 1447 4013 2328 
Q 4013 3213 3611 3725 
Q 3209 4238 2522 4238 
z
M 3406 84 
L 4238 -825 
L 3475 -825 
L 2784 -78 
Q 2681 -84 2626 -87 
Q 2572 -91 2522 -91 
Q 1538 -91 948 567 
Q 359 1225 359 2328 
Q 359 3434 948 4092 
Q 1538 4750 2522 4750 
Q 3503 4750 4090 4092 
Q 4678 3434 4678 2328 
Q 4678 1516 4351 937 
Q 4025 359 3406 84 
z
" transform="scale(0.015625)"/>
       <path id="DejaVuSans-41" d="M 2188 4044 
L 1331 1722 
L 3047 1722 
L 2188 4044 
z
M 1831 4666 
L 2547 4666 
L 4325 0 
L 3669 0 
L 3244 1197 
L 1141 1197 
L 716 0 
L 50 0 
L 1831 4666 
z
" transform="scale(0.015625)"/>
       <path id="DejaVuSans-4f" d="M 2522 4238 
Q 1834 4238 1429 3725 
Q 1025 3213 1025 2328 
Q 1025 1447 1429 934 
Q 1834 422 2522 422 
Q 3209 422 3611 934 
Q 4013 1447 4013 2328 
Q 4013 3213 3611 3725 
Q 3209 4238 2522 4238 
z
M 2522 4750 
Q 3503 4750 4090 4092 
Q 4678 3434 4678 2328 
Q 4678 1225 4090 567 
Q 3503 -91 2522 -91 
Q 1538 -91 948 565 
Q 359 1222 359 2328 
Q 359 3434 948 4092 
Q 1538 4750 2522 4750 
z
" transform="scale(0.015625)"/>
       <path id="DejaVuSans-5f" d="M 3263 -1063 
L 3263 -1509 
L -63 -1509 
L -63 -1063 
L 3263 -1063 
z
" transform="scale(0.015625)"/>
       <path id="DejaVuSans-34" d="M 2419 4116 
L 825 1625 
L 2419 1625 
L 2419 4116 
z
M 2253 4666 
L 3047 4666 
L 3047 1625 
L 3713 1625 
L 3713 1100 
L 3047 1100 
L 3047 0 
L 2419 0 
L 2419 1100 
L 313 1100 
L 313 1709 
L 2253 4666 
z
" transform="scale(0.015625)"/>
      </defs>
      <use xlink:href="#DejaVuSans-51"/>
      <use xlink:href="#DejaVuSans-41" x="78.710938"/>
      <use xlink:href="#DejaVuSans-4f" x="145.369141"/>
      <use xlink:href="#DejaVuSans-41" x="222.330078"/>
      <use xlink:href="#DejaVuSans-5f" x="290.738281"/>
      <use xlink:href="#DejaVuSans-34" x="340.738281"/>
     </g>
    </g>
   </g>
  </g>
 </g>
 <defs>
  <clipPath id="p91f50a76c1">
   <rect x="54" y="34.56" width="334.8" height="217.44"/>
  </clipPath>
 </defs>
</svg>
