<?xml version="1.0" encoding="utf-8" standalone="no"?>
<!DOCTYPE svg PUBLIC "-//W3C//DTD SVG 1.1//EN"
  "http://www.w3.org/Graphics/SVG/1.1/DTD/svg11.dtd">
<svg xmlns:xlink="http://www.w3.org/1999/xlink" width="432pt" height="288pt" viewBox="0 0 432 288" xmlns="http://www.w3.org/2000/svg" version="1.1">
 <metadata>
  <rdf:RDF xmlns:dc="http://purl.org/dc/elements/1.1/" xmlns:cc="http://creativecommons.org/ns#" xmlns:rdf="http://www.w3.org/1999/02/22-rdf-syntax-ns#">
   <cc:Work>
    <dc:type rdf:resource="http://purl.org/dc/dcmitype/StillImage"/>
    <dc:date>2023-06-27T09:03:39.320409</dc:date>
    <dc:format>image/svg+xml</dc:format>
    <dc:creator>
     <cc:Agent>
      <dc:title>Matplotlib v3.5.2, https://matplotlib.org/</dc:title>
     </cc:Agent>
    </dc:creator>
   </cc:Work>
  </rdf:RDF>
 </metadata>
 <defs>
  <style type="text/css">*{stroke-linejoin: round; stroke-linecap: butt}</style>
 </defs>
 <g id="figure_1">
  <g id="patch_1">
   <path d="M 0 288 
L 432 288 
L 432 0 
L 0 0 
L 0 288 
z
" style="fill: none"/>
  </g>
  <g id="axes_1">
   <g id="patch_2">
    <path d="M 54 252 
L 388.8 252 
L 388.8 34.56 
L 54 34.56 
z
" style="fill: #ffffff"/>
   </g>
   <g id="PolyCollection_1">
    <path d="M 69.218182 111.141137 
L 69.218182 90.399823 
L 70.747647 88.881294 
L 72.277113 89.227241 
L 73.806578 84.045531 
L 75.336044 89.659167 
L 76.865509 81.992404 
L 78.394975 94.040823 
L 79.92444 90.463249 
L 81.453906 80.073101 
L 82.983371 76.521573 
L 84.512837 75.292022 
L 86.042302 68.589868 
L 87.571768 84.493396 
L 89.101233 77.540363 
L 90.630699 84.308847 
L 92.160164 84.348042 
L 93.68963 83.414309 
L 95.219095 73.288654 
L 96.748561 70.937899 
L 98.278026 81.451972 
L 99.807492 75.620897 
L 101.336958 71.231695 
L 102.866423 71.683683 
L 104.395889 76.617594 
L 105.925354 69.393315 
L 107.45482 72.851246 
L 108.984285 79.75729 
L 110.513751 81.240998 
L 112.043216 74.054092 
L 113.572682 77.691794 
L 115.102147 71.3282 
L 116.631613 67.124715 
L 118.161078 73.393459 
L 119.690544 80.327144 
L 121.220009 75.556826 
L 122.749475 66.264127 
L 124.27894 69.700035 
L 125.808406 82.993162 
L 127.337871 66.554207 
L 128.867337 60.205505 
L 130.396802 50.75629 
L 131.926268 59.692706 
L 133.455733 54.997871 
L 134.985199 62.557317 
L 136.514664 69.307338 
L 138.04413 61.121199 
L 139.573595 68.010576 
L 141.103061 58.78051 
L 142.632526 55.352288 
L 144.161992 54.114613 
L 145.691457 54.601326 
L 147.220923 59.668 
L 148.750388 61.52649 
L 150.279854 48.519934 
L 151.809319 60.021797 
L 153.338785 53.00529 
L 154.86825 60.124258 
L 156.397716 54.941313 
L 157.927181 57.597688 
L 159.456647 51.075275 
L 160.986112 51.940422 
L 162.515578 66.152479 
L 164.045043 60.15839 
L 165.574509 64.982201 
L 167.103974 55.903678 
L 168.63344 59.808174 
L 170.162905 56.034588 
L 171.692371 58.120531 
L 173.221836 59.390689 
L 174.751302 53.080905 
L 176.280767 64.304781 
L 177.810233 54.089782 
L 179.339698 63.470615 
L 180.869164 54.894651 
L 182.39863 62.923261 
L 183.928095 65.55761 
L 185.457561 56.313889 
L 186.987026 58.173879 
L 188.516492 55.80674 
L 190.045957 63.544375 
L 191.575423 56.060203 
L 193.104888 63.086769 
L 194.634354 60.93367 
L 196.163819 44.079032 
L 197.693285 56.892064 
L 199.22275 55.452581 
L 200.752216 62.540631 
L 202.281681 55.059673 
L 203.811147 54.76671 
L 205.340612 56.338328 
L 206.870078 59.670273 
L 208.399543 57.895303 
L 209.929009 57.626781 
L 211.458474 63.705515 
L 212.98794 60.29248 
L 214.517405 62.824982 
L 216.046871 56.71719 
L 217.576336 65.919089 
L 219.105802 53.664321 
L 220.635267 67.311216 
L 222.164733 62.015117 
L 223.694198 58.575849 
L 225.223664 62.826102 
L 226.753129 58.175588 
L 228.282595 62.654222 
L 229.81206 60.547169 
L 231.341526 63.782264 
L 232.870991 62.946871 
L 234.400457 58.894591 
L 235.929922 60.007424 
L 237.459388 60.915067 
L 238.988853 63.947786 
L 240.518319 74.343169 
L 242.047784 64.123792 
L 243.57725 62.056414 
L 245.106715 70.694995 
L 246.636181 61.775258 
L 248.165646 60.863452 
L 249.695112 57.205471 
L 251.224577 56.069047 
L 252.754043 63.041135 
L 254.283508 53.262889 
L 255.812974 61.142618 
L 257.342439 68.368956 
L 258.871905 62.768447 
L 260.40137 62.356246 
L 261.930836 55.795095 
L 263.460302 57.70159 
L 264.989767 56.545774 
L 266.519233 67.654906 
L 268.048698 52.990913 
L 269.578164 56.803181 
L 271.107629 54.711275 
L 272.637095 61.636136 
L 274.16656 65.72208 
L 275.696026 55.745122 
L 277.225491 52.945202 
L 278.754957 51.982189 
L 280.284422 56.885259 
L 281.813888 45.685738 
L 283.343353 56.46565 
L 284.872819 62.876449 
L 286.402284 61.285782 
L 287.93175 56.80539 
L 289.461215 65.731941 
L 290.990681 57.451914 
L 292.520146 63.521649 
L 294.049612 46.293886 
L 295.579077 68.122352 
L 297.108543 59.232871 
L 298.638008 56.662633 
L 300.167474 63.65679 
L 301.696939 54.384717 
L 303.226405 54.98658 
L 304.75587 47.207887 
L 306.285336 38.068117 
L 307.814801 44.221748 
L 309.344267 52.1196 
L 310.873732 44.376332 
L 312.403198 48.420356 
L 313.932663 55.341608 
L 315.462129 50.648247 
L 316.991594 51.580633 
L 318.52106 53.253868 
L 320.050525 56.125794 
L 321.579991 53.377398 
L 323.109456 44.996065 
L 324.638922 54.073718 
L 326.168387 54.332747 
L 327.697853 54.734223 
L 329.227318 53.072516 
L 330.756784 60.674654 
L 332.286249 47.345885 
L 333.815715 44.436856 
L 335.34518 55.733263 
L 336.874646 49.238669 
L 338.404111 42.625875 
L 339.933577 47.462791 
L 341.463042 47.784022 
L 342.992508 53.786206 
L 344.521974 51.412607 
L 346.051439 63.705785 
L 347.580905 55.35691 
L 349.11037 56.258798 
L 350.639836 49.064519 
L 352.169301 54.884083 
L 353.698767 41.278058 
L 355.228232 47.242677 
L 356.757698 35.638574 
L 358.287163 45.985421 
L 359.816629 40.398497 
L 361.346094 42.015865 
L 362.87556 43.95376 
L 364.405025 51.888552 
L 365.934491 51.75171 
L 367.463956 51.119916 
L 368.993422 45.972273 
L 370.522887 51.16814 
L 372.052353 43.944882 
L 373.581818 54.667065 
L 373.581818 68.160615 
L 373.581818 68.160615 
L 372.052353 67.575918 
L 370.522887 67.0933 
L 368.993422 56.633487 
L 367.463956 59.313684 
L 365.934491 68.68413 
L 364.405025 62.241528 
L 362.87556 62.78336 
L 361.346094 68.635175 
L 359.816629 65.251423 
L 358.287163 61.621459 
L 356.757698 63.053266 
L 355.228232 67.104843 
L 353.698767 63.284662 
L 352.169301 67.508717 
L 350.639836 59.847001 
L 349.11037 77.223442 
L 347.580905 73.77653 
L 346.051439 71.733415 
L 344.521974 63.152353 
L 342.992508 58.604354 
L 341.463042 65.041418 
L 339.933577 68.841689 
L 338.404111 58.675245 
L 336.874646 57.281011 
L 335.34518 72.747857 
L 333.815715 63.604904 
L 332.286249 74.829475 
L 330.756784 64.979746 
L 329.227318 73.451644 
L 327.697853 71.137617 
L 326.168387 70.886773 
L 324.638922 67.666762 
L 323.109456 67.394495 
L 321.579991 70.754922 
L 320.050525 72.355326 
L 318.52106 73.052852 
L 316.991594 69.942407 
L 315.462129 60.872553 
L 313.932663 64.876792 
L 312.403198 70.928284 
L 310.873732 60.838708 
L 309.344267 63.31512 
L 307.814801 59.906092 
L 306.285336 66.494603 
L 304.75587 57.572273 
L 303.226405 69.79806 
L 301.696939 66.268563 
L 300.167474 71.34753 
L 298.638008 65.730167 
L 297.108543 79.033049 
L 295.579077 75.144688 
L 294.049612 61.312994 
L 292.520146 69.090831 
L 290.990681 69.072246 
L 289.461215 82.318779 
L 287.93175 82.33029 
L 286.402284 77.197578 
L 284.872819 73.867391 
L 283.343353 70.92827 
L 281.813888 68.444342 
L 280.284422 77.249301 
L 278.754957 79.108211 
L 277.225491 78.580078 
L 275.696026 76.649918 
L 274.16656 73.63104 
L 272.637095 73.803064 
L 271.107629 66.159445 
L 269.578164 72.547699 
L 268.048698 66.357727 
L 266.519233 79.960934 
L 264.989767 74.979506 
L 263.460302 77.95505 
L 261.930836 77.904585 
L 260.40137 70.256234 
L 258.871905 80.933473 
L 257.342439 80.334084 
L 255.812974 66.251302 
L 254.283508 76.522871 
L 252.754043 69.788785 
L 251.224577 69.585353 
L 249.695112 74.319809 
L 248.165646 67.835108 
L 246.636181 76.490662 
L 245.106715 79.530125 
L 243.57725 70.556066 
L 242.047784 75.881648 
L 240.518319 80.013311 
L 238.988853 74.535574 
L 237.459388 94.093733 
L 235.929922 70.213216 
L 234.400457 65.237729 
L 232.870991 94.236329 
L 231.341526 73.396456 
L 229.81206 79.675711 
L 228.282595 74.307058 
L 226.753129 68.783452 
L 225.223664 84.354858 
L 223.694198 70.122711 
L 222.164733 66.466003 
L 220.635267 74.868624 
L 219.105802 75.469119 
L 217.576336 79.739791 
L 216.046871 65.45817 
L 214.517405 73.483978 
L 212.98794 77.97344 
L 211.458474 83.040565 
L 209.929009 73.246179 
L 208.399543 70.803257 
L 206.870078 80.117727 
L 205.340612 72.142792 
L 203.811147 76.54113 
L 202.281681 73.421447 
L 200.752216 71.159049 
L 199.22275 74.768059 
L 197.693285 70.936736 
L 196.163819 81.792808 
L 194.634354 69.06953 
L 193.104888 68.655951 
L 191.575423 78.509237 
L 190.045957 77.330825 
L 188.516492 80.50222 
L 186.987026 76.178121 
L 185.457561 73.036991 
L 183.928095 77.92687 
L 182.39863 69.471779 
L 180.869164 81.414309 
L 179.339698 76.752265 
L 177.810233 71.347178 
L 176.280767 71.786739 
L 174.751302 74.530455 
L 173.221836 77.135711 
L 171.692371 80.145389 
L 170.162905 82.013892 
L 168.63344 73.891506 
L 167.103974 83.232002 
L 165.574509 89.374279 
L 164.045043 82.45633 
L 162.515578 81.680801 
L 160.986112 79.149978 
L 159.456647 81.319765 
L 157.927181 85.669352 
L 156.397716 76.583967 
L 154.86825 70.313822 
L 153.338785 69.60495 
L 151.809319 81.070843 
L 150.279854 71.698466 
L 148.750388 79.56615 
L 147.220923 87.7304 
L 145.691457 82.794834 
L 144.161992 79.367627 
L 142.632526 82.261312 
L 141.103061 76.00637 
L 139.573595 84.171504 
L 138.04413 78.014481 
L 136.514664 73.742262 
L 134.985199 88.755003 
L 133.455733 70.873969 
L 131.926268 75.746494 
L 130.396802 94.25027 
L 128.867337 75.451135 
L 127.337871 77.365153 
L 125.808406 88.541078 
L 124.27894 82.264605 
L 122.749475 84.830753 
L 121.220009 81.843814 
L 119.690544 89.250136 
L 118.161078 85.529261 
L 116.631613 91.145685 
L 115.102147 91.72588 
L 113.572682 83.622766 
L 112.043216 85.955828 
L 110.513751 96.816442 
L 108.984285 93.08159 
L 107.45482 80.418034 
L 105.925354 90.834045 
L 104.395889 84.262086 
L 102.866423 85.064637 
L 101.336958 84.429425 
L 99.807492 93.086623 
L 98.278026 91.604348 
L 96.748561 93.638261 
L 95.219095 91.722386 
L 93.68963 90.946651 
L 92.160164 92.622198 
L 90.630699 89.617233 
L 89.101233 87.035797 
L 87.571768 89.432684 
L 86.042302 91.854932 
L 84.512837 94.937578 
L 82.983371 87.402267 
L 81.453906 104.290099 
L 79.92444 106.076591 
L 78.394975 95.106057 
L 76.865509 103.675436 
L 75.336044 104.271393 
L 73.806578 103.144389 
L 72.277113 103.616119 
L 70.747647 101.135346 
L 69.218182 111.141137 
z
" clip-path="url(#pad57f523b5)" style="fill: #1f77b4; fill-opacity: 0.5"/>
   </g>
   <g id="PolyCollection_2">
    <path d="M 69.218182 129.36941 
L 69.218182 115.44211 
L 70.747647 115.44211 
L 72.277113 115.44211 
L 73.806578 115.44211 
L 75.336044 115.44211 
L 76.865509 115.44211 
L 78.394975 115.44211 
L 79.92444 115.44211 
L 81.453906 115.44211 
L 82.983371 115.44211 
L 84.512837 115.44211 
L 86.042302 115.44211 
L 87.571768 115.44211 
L 89.101233 115.44211 
L 90.630699 115.44211 
L 92.160164 115.44211 
L 93.68963 115.44211 
L 95.219095 115.44211 
L 96.748561 115.44211 
L 98.278026 115.44211 
L 99.807492 115.44211 
L 101.336958 115.44211 
L 102.866423 115.44211 
L 104.395889 115.44211 
L 105.925354 115.44211 
L 107.45482 115.44211 
L 108.984285 115.44211 
L 110.513751 115.44211 
L 112.043216 115.44211 
L 113.572682 115.44211 
L 115.102147 115.44211 
L 116.631613 115.44211 
L 118.161078 115.44211 
L 119.690544 115.44211 
L 121.220009 115.44211 
L 122.749475 115.44211 
L 124.27894 115.44211 
L 125.808406 115.44211 
L 127.337871 115.44211 
L 128.867337 115.44211 
L 130.396802 115.44211 
L 131.926268 115.44211 
L 133.455733 115.44211 
L 134.985199 115.44211 
L 136.514664 115.44211 
L 138.04413 115.44211 
L 139.573595 115.44211 
L 141.103061 115.44211 
L 142.632526 115.44211 
L 144.161992 115.44211 
L 145.691457 115.44211 
L 147.220923 115.44211 
L 148.750388 115.44211 
L 150.279854 115.44211 
L 151.809319 115.44211 
L 153.338785 115.44211 
L 154.86825 115.44211 
L 156.397716 115.44211 
L 157.927181 115.44211 
L 159.456647 115.44211 
L 160.986112 115.44211 
L 162.515578 115.44211 
L 164.045043 115.44211 
L 165.574509 115.44211 
L 167.103974 115.44211 
L 168.63344 115.44211 
L 170.162905 115.44211 
L 171.692371 115.44211 
L 173.221836 115.44211 
L 174.751302 115.44211 
L 176.280767 115.44211 
L 177.810233 115.44211 
L 179.339698 115.44211 
L 180.869164 115.44211 
L 182.39863 115.44211 
L 183.928095 115.44211 
L 185.457561 115.44211 
L 186.987026 115.44211 
L 188.516492 115.44211 
L 190.045957 115.44211 
L 191.575423 115.44211 
L 193.104888 115.44211 
L 194.634354 115.44211 
L 196.163819 115.44211 
L 197.693285 115.44211 
L 199.22275 115.44211 
L 200.752216 115.44211 
L 202.281681 115.44211 
L 203.811147 115.44211 
L 205.340612 115.44211 
L 206.870078 115.44211 
L 208.399543 115.44211 
L 209.929009 115.44211 
L 211.458474 115.44211 
L 212.98794 115.44211 
L 214.517405 115.44211 
L 216.046871 115.44211 
L 217.576336 115.44211 
L 219.105802 115.44211 
L 220.635267 115.44211 
L 222.164733 115.44211 
L 223.694198 115.44211 
L 225.223664 115.44211 
L 226.753129 115.44211 
L 228.282595 115.44211 
L 229.81206 115.44211 
L 231.341526 115.44211 
L 232.870991 115.44211 
L 234.400457 115.44211 
L 235.929922 115.44211 
L 237.459388 115.44211 
L 238.988853 115.44211 
L 240.518319 115.44211 
L 242.047784 115.44211 
L 243.57725 115.44211 
L 245.106715 115.44211 
L 246.636181 115.44211 
L 248.165646 115.44211 
L 249.695112 115.44211 
L 251.224577 115.44211 
L 252.754043 115.44211 
L 254.283508 115.44211 
L 255.812974 115.44211 
L 257.342439 115.44211 
L 258.871905 115.44211 
L 260.40137 115.44211 
L 261.930836 115.44211 
L 263.460302 115.44211 
L 264.989767 115.44211 
L 266.519233 115.44211 
L 268.048698 115.44211 
L 269.578164 115.44211 
L 271.107629 115.44211 
L 272.637095 115.44211 
L 274.16656 115.44211 
L 275.696026 115.44211 
L 277.225491 115.44211 
L 278.754957 115.44211 
L 280.284422 115.44211 
L 281.813888 115.44211 
L 283.343353 115.44211 
L 284.872819 115.44211 
L 286.402284 115.44211 
L 287.93175 115.44211 
L 289.461215 115.44211 
L 290.990681 115.44211 
L 292.520146 115.44211 
L 294.049612 115.44211 
L 295.579077 115.44211 
L 297.108543 115.44211 
L 298.638008 115.44211 
L 300.167474 115.44211 
L 301.696939 115.44211 
L 303.226405 115.44211 
L 304.75587 115.44211 
L 306.285336 115.44211 
L 307.814801 115.44211 
L 309.344267 115.44211 
L 310.873732 115.44211 
L 312.403198 115.44211 
L 313.932663 115.44211 
L 315.462129 115.44211 
L 316.991594 115.44211 
L 318.52106 115.44211 
L 320.050525 115.44211 
L 321.579991 115.44211 
L 323.109456 115.44211 
L 324.638922 115.44211 
L 326.168387 115.44211 
L 327.697853 115.44211 
L 329.227318 115.44211 
L 330.756784 115.44211 
L 332.286249 115.44211 
L 333.815715 115.44211 
L 335.34518 115.44211 
L 336.874646 115.44211 
L 338.404111 115.44211 
L 339.933577 115.44211 
L 341.463042 115.44211 
L 342.992508 115.44211 
L 344.521974 115.44211 
L 346.051439 115.44211 
L 347.580905 115.44211 
L 349.11037 115.44211 
L 350.639836 115.44211 
L 352.169301 115.44211 
L 353.698767 115.44211 
L 355.228232 115.44211 
L 356.757698 115.44211 
L 358.287163 115.44211 
L 359.816629 115.44211 
L 361.346094 115.44211 
L 362.87556 115.44211 
L 364.405025 115.44211 
L 365.934491 115.44211 
L 367.463956 115.44211 
L 368.993422 115.44211 
L 370.522887 115.44211 
L 372.052353 115.44211 
L 373.581818 115.44211 
L 373.581818 129.36941 
L 373.581818 129.36941 
L 372.052353 129.36941 
L 370.522887 129.36941 
L 368.993422 129.36941 
L 367.463956 129.36941 
L 365.934491 129.36941 
L 364.405025 129.36941 
L 362.87556 129.36941 
L 361.346094 129.36941 
L 359.816629 129.36941 
L 358.287163 129.36941 
L 356.757698 129.36941 
L 355.228232 129.36941 
L 353.698767 129.36941 
L 352.169301 129.36941 
L 350.639836 129.36941 
L 349.11037 129.36941 
L 347.580905 129.36941 
L 346.051439 129.36941 
L 344.521974 129.36941 
L 342.992508 129.36941 
L 341.463042 129.36941 
L 339.933577 129.36941 
L 338.404111 129.36941 
L 336.874646 129.36941 
L 335.34518 129.36941 
L 333.815715 129.36941 
L 332.286249 129.36941 
L 330.756784 129.36941 
L 329.227318 129.36941 
L 327.697853 129.36941 
L 326.168387 129.36941 
L 324.638922 129.36941 
L 323.109456 129.36941 
L 321.579991 129.36941 
L 320.050525 129.36941 
L 318.52106 129.36941 
L 316.991594 129.36941 
L 315.462129 129.36941 
L 313.932663 129.36941 
L 312.403198 129.36941 
L 310.873732 129.36941 
L 309.344267 129.36941 
L 307.814801 129.36941 
L 306.285336 129.36941 
L 304.75587 129.36941 
L 303.226405 129.36941 
L 301.696939 129.36941 
L 300.167474 129.36941 
L 298.638008 129.36941 
L 297.108543 129.36941 
L 295.579077 129.36941 
L 294.049612 129.36941 
L 292.520146 129.36941 
L 290.990681 129.36941 
L 289.461215 129.36941 
L 287.93175 129.36941 
L 286.402284 129.36941 
L 284.872819 129.36941 
L 283.343353 129.36941 
L 281.813888 129.36941 
L 280.284422 129.36941 
L 278.754957 129.36941 
L 277.225491 129.36941 
L 275.696026 129.36941 
L 274.16656 129.36941 
L 272.637095 129.36941 
L 271.107629 129.36941 
L 269.578164 129.36941 
L 268.048698 129.36941 
L 266.519233 129.36941 
L 264.989767 129.36941 
L 263.460302 129.36941 
L 261.930836 129.36941 
L 260.40137 129.36941 
L 258.871905 129.36941 
L 257.342439 129.36941 
L 255.812974 129.36941 
L 254.283508 129.36941 
L 252.754043 129.36941 
L 251.224577 129.36941 
L 249.695112 129.36941 
L 248.165646 129.36941 
L 246.636181 129.36941 
L 245.106715 129.36941 
L 243.57725 129.36941 
L 242.047784 129.36941 
L 240.518319 129.36941 
L 238.988853 129.36941 
L 237.459388 129.36941 
L 235.929922 129.36941 
L 234.400457 129.36941 
L 232.870991 129.36941 
L 231.341526 129.36941 
L 229.81206 129.36941 
L 228.282595 129.36941 
L 226.753129 129.36941 
L 225.223664 129.36941 
L 223.694198 129.36941 
L 222.164733 129.36941 
L 220.635267 129.36941 
L 219.105802 129.36941 
L 217.576336 129.36941 
L 216.046871 129.36941 
L 214.517405 129.36941 
L 212.98794 129.36941 
L 211.458474 129.36941 
L 209.929009 129.36941 
L 208.399543 129.36941 
L 206.870078 129.36941 
L 205.340612 129.36941 
L 203.811147 129.36941 
L 202.281681 129.36941 
L 200.752216 129.36941 
L 199.22275 129.36941 
L 197.693285 129.36941 
L 196.163819 129.36941 
L 194.634354 129.36941 
L 193.104888 129.36941 
L 191.575423 129.36941 
L 190.045957 129.36941 
L 188.516492 129.36941 
L 186.987026 129.36941 
L 185.457561 129.36941 
L 183.928095 129.36941 
L 182.39863 129.36941 
L 180.869164 129.36941 
L 179.339698 129.36941 
L 177.810233 129.36941 
L 176.280767 129.36941 
L 174.751302 129.36941 
L 173.221836 129.36941 
L 171.692371 129.36941 
L 170.162905 129.36941 
L 168.63344 129.36941 
L 167.103974 129.36941 
L 165.574509 129.36941 
L 164.045043 129.36941 
L 162.515578 129.36941 
L 160.986112 129.36941 
L 159.456647 129.36941 
L 157.927181 129.36941 
L 156.397716 129.36941 
L 154.86825 129.36941 
L 153.338785 129.36941 
L 151.809319 129.36941 
L 150.279854 129.36941 
L 148.750388 129.36941 
L 147.220923 129.36941 
L 145.691457 129.36941 
L 144.161992 129.36941 
L 142.632526 129.36941 
L 141.103061 129.36941 
L 139.573595 129.36941 
L 138.04413 129.36941 
L 136.514664 129.36941 
L 134.985199 129.36941 
L 133.455733 129.36941 
L 131.926268 129.36941 
L 130.396802 129.36941 
L 128.867337 129.36941 
L 127.337871 129.36941 
L 125.808406 129.36941 
L 124.27894 129.36941 
L 122.749475 129.36941 
L 121.220009 129.36941 
L 119.690544 129.36941 
L 118.161078 129.36941 
L 116.631613 129.36941 
L 115.102147 129.36941 
L 113.572682 129.36941 
L 112.043216 129.36941 
L 110.513751 129.36941 
L 108.984285 129.36941 
L 107.45482 129.36941 
L 105.925354 129.36941 
L 104.395889 129.36941 
L 102.866423 129.36941 
L 101.336958 129.36941 
L 99.807492 129.36941 
L 98.278026 129.36941 
L 96.748561 129.36941 
L 95.219095 129.36941 
L 93.68963 129.36941 
L 92.160164 129.36941 
L 90.630699 129.36941 
L 89.101233 129.36941 
L 87.571768 129.36941 
L 86.042302 129.36941 
L 84.512837 129.36941 
L 82.983371 129.36941 
L 81.453906 129.36941 
L 79.92444 129.36941 
L 78.394975 129.36941 
L 76.865509 129.36941 
L 75.336044 129.36941 
L 73.806578 129.36941 
L 72.277113 129.36941 
L 70.747647 129.36941 
L 69.218182 129.36941 
z
" clip-path="url(#pad57f523b5)" style="fill: #ff7f0e; fill-opacity: 0.5"/>
   </g>
   <g id="matplotlib.axis_1">
    <g id="xtick_1">
     <g id="line2d_1">
      <defs>
       <path id="mdd7bbba45d" d="M 0 0 
L 0 3.5 
" style="stroke: #000000; stroke-width: 0.8"/>
      </defs>
      <g>
       <use xlink:href="#mdd7bbba45d" x="69.218182" y="252" style="stroke: #000000; stroke-width: 0.8"/>
      </g>
     </g>
     <g id="text_1">
      <!-- 0 -->
      <g transform="translate(66.036932 266.598437)scale(0.1 -0.1)">
       <defs>
        <path id="DejaVuSans-30" d="M 2034 4250 
Q 1547 4250 1301 3770 
Q 1056 3291 1056 2328 
Q 1056 1369 1301 889 
Q 1547 409 2034 409 
Q 2525 409 2770 889 
Q 3016 1369 3016 2328 
Q 3016 3291 2770 3770 
Q 2525 4250 2034 4250 
z
M 2034 4750 
Q 2819 4750 3233 4129 
Q 3647 3509 3647 2328 
Q 3647 1150 3233 529 
Q 2819 -91 2034 -91 
Q 1250 -91 836 529 
Q 422 1150 422 2328 
Q 422 3509 836 4129 
Q 1250 4750 2034 4750 
z
" transform="scale(0.015625)"/>
       </defs>
       <use xlink:href="#DejaVuSans-30"/>
      </g>
     </g>
    </g>
    <g id="xtick_2">
     <g id="line2d_2">
      <g>
       <use xlink:href="#mdd7bbba45d" x="107.45482" y="252" style="stroke: #000000; stroke-width: 0.8"/>
      </g>
     </g>
     <g id="text_2">
      <!-- 25 -->
      <g transform="translate(101.09232 266.598437)scale(0.1 -0.1)">
       <defs>
        <path id="DejaVuSans-32" d="M 1228 531 
L 3431 531 
L 3431 0 
L 469 0 
L 469 531 
Q 828 903 1448 1529 
Q 2069 2156 2228 2338 
Q 2531 2678 2651 2914 
Q 2772 3150 2772 3378 
Q 2772 3750 2511 3984 
Q 2250 4219 1831 4219 
Q 1534 4219 1204 4116 
Q 875 4013 500 3803 
L 500 4441 
Q 881 4594 1212 4672 
Q 1544 4750 1819 4750 
Q 2544 4750 2975 4387 
Q 3406 4025 3406 3419 
Q 3406 3131 3298 2873 
Q 3191 2616 2906 2266 
Q 2828 2175 2409 1742 
Q 1991 1309 1228 531 
z
" transform="scale(0.015625)"/>
        <path id="DejaVuSans-35" d="M 691 4666 
L 3169 4666 
L 3169 4134 
L 1269 4134 
L 1269 2991 
Q 1406 3038 1543 3061 
Q 1681 3084 1819 3084 
Q 2600 3084 3056 2656 
Q 3513 2228 3513 1497 
Q 3513 744 3044 326 
Q 2575 -91 1722 -91 
Q 1428 -91 1123 -41 
Q 819 9 494 109 
L 494 744 
Q 775 591 1075 516 
Q 1375 441 1709 441 
Q 2250 441 2565 725 
Q 2881 1009 2881 1497 
Q 2881 1984 2565 2268 
Q 2250 2553 1709 2553 
Q 1456 2553 1204 2497 
Q 953 2441 691 2322 
L 691 4666 
z
" transform="scale(0.015625)"/>
       </defs>
       <use xlink:href="#DejaVuSans-32"/>
       <use xlink:href="#DejaVuSans-35" x="63.623047"/>
      </g>
     </g>
    </g>
    <g id="xtick_3">
     <g id="line2d_3">
      <g>
       <use xlink:href="#mdd7bbba45d" x="145.691457" y="252" style="stroke: #000000; stroke-width: 0.8"/>
      </g>
     </g>
     <g id="text_3">
      <!-- 50 -->
      <g transform="translate(139.328957 266.598437)scale(0.1 -0.1)">
       <use xlink:href="#DejaVuSans-35"/>
       <use xlink:href="#DejaVuSans-30" x="63.623047"/>
      </g>
     </g>
    </g>
    <g id="xtick_4">
     <g id="line2d_4">
      <g>
       <use xlink:href="#mdd7bbba45d" x="183.928095" y="252" style="stroke: #000000; stroke-width: 0.8"/>
      </g>
     </g>
     <g id="text_4">
      <!-- 75 -->
      <g transform="translate(177.565595 266.598437)scale(0.1 -0.1)">
       <defs>
        <path id="DejaVuSans-37" d="M 525 4666 
L 3525 4666 
L 3525 4397 
L 1831 0 
L 1172 0 
L 2766 4134 
L 525 4134 
L 525 4666 
z
" transform="scale(0.015625)"/>
       </defs>
       <use xlink:href="#DejaVuSans-37"/>
       <use xlink:href="#DejaVuSans-35" x="63.623047"/>
      </g>
     </g>
    </g>
    <g id="xtick_5">
     <g id="line2d_5">
      <g>
       <use xlink:href="#mdd7bbba45d" x="222.164733" y="252" style="stroke: #000000; stroke-width: 0.8"/>
      </g>
     </g>
     <g id="text_5">
      <!-- 100 -->
      <g transform="translate(212.620983 266.598437)scale(0.1 -0.1)">
       <defs>
        <path id="DejaVuSans-31" d="M 794 531 
L 1825 531 
L 1825 4091 
L 703 3866 
L 703 4441 
L 1819 4666 
L 2450 4666 
L 2450 531 
L 3481 531 
L 3481 0 
L 794 0 
L 794 531 
z
" transform="scale(0.015625)"/>
       </defs>
       <use xlink:href="#DejaVuSans-31"/>
       <use xlink:href="#DejaVuSans-30" x="63.623047"/>
       <use xlink:href="#DejaVuSans-30" x="127.246094"/>
      </g>
     </g>
    </g>
    <g id="xtick_6">
     <g id="line2d_6">
      <g>
       <use xlink:href="#mdd7bbba45d" x="260.40137" y="252" style="stroke: #000000; stroke-width: 0.8"/>
      </g>
     </g>
     <g id="text_6">
      <!-- 125 -->
      <g transform="translate(250.85762 266.598437)scale(0.1 -0.1)">
       <use xlink:href="#DejaVuSans-31"/>
       <use xlink:href="#DejaVuSans-32" x="63.623047"/>
       <use xlink:href="#DejaVuSans-35" x="127.246094"/>
      </g>
     </g>
    </g>
    <g id="xtick_7">
     <g id="line2d_7">
      <g>
       <use xlink:href="#mdd7bbba45d" x="298.638008" y="252" style="stroke: #000000; stroke-width: 0.8"/>
      </g>
     </g>
     <g id="text_7">
      <!-- 150 -->
      <g transform="translate(289.094258 266.598437)scale(0.1 -0.1)">
       <use xlink:href="#DejaVuSans-31"/>
       <use xlink:href="#DejaVuSans-35" x="63.623047"/>
       <use xlink:href="#DejaVuSans-30" x="127.246094"/>
      </g>
     </g>
    </g>
    <g id="xtick_8">
     <g id="line2d_8">
      <g>
       <use xlink:href="#mdd7bbba45d" x="336.874646" y="252" style="stroke: #000000; stroke-width: 0.8"/>
      </g>
     </g>
     <g id="text_8">
      <!-- 175 -->
      <g transform="translate(327.330896 266.598437)scale(0.1 -0.1)">
       <use xlink:href="#DejaVuSans-31"/>
       <use xlink:href="#DejaVuSans-37" x="63.623047"/>
       <use xlink:href="#DejaVuSans-35" x="127.246094"/>
      </g>
     </g>
    </g>
    <g id="xtick_9">
     <g id="line2d_9">
      <g>
       <use xlink:href="#mdd7bbba45d" x="375.111284" y="252" style="stroke: #000000; stroke-width: 0.8"/>
      </g>
     </g>
     <g id="text_9">
      <!-- 200 -->
      <g transform="translate(365.567534 266.598437)scale(0.1 -0.1)">
       <use xlink:href="#DejaVuSans-32"/>
       <use xlink:href="#DejaVuSans-30" x="63.623047"/>
       <use xlink:href="#DejaVuSans-30" x="127.246094"/>
      </g>
     </g>
    </g>
    <g id="text_10">
     <!-- Generation -->
     <g transform="translate(193.507031 280.276563)scale(0.1 -0.1)">
      <defs>
       <path id="DejaVuSans-47" d="M 3809 666 
L 3809 1919 
L 2778 1919 
L 2778 2438 
L 4434 2438 
L 4434 434 
Q 4069 175 3628 42 
Q 3188 -91 2688 -91 
Q 1594 -91 976 548 
Q 359 1188 359 2328 
Q 359 3472 976 4111 
Q 1594 4750 2688 4750 
Q 3144 4750 3555 4637 
Q 3966 4525 4313 4306 
L 4313 3634 
Q 3963 3931 3569 4081 
Q 3175 4231 2741 4231 
Q 1884 4231 1454 3753 
Q 1025 3275 1025 2328 
Q 1025 1384 1454 906 
Q 1884 428 2741 428 
Q 3075 428 3337 486 
Q 3600 544 3809 666 
z
" transform="scale(0.015625)"/>
       <path id="DejaVuSans-65" d="M 3597 1894 
L 3597 1613 
L 953 1613 
Q 991 1019 1311 708 
Q 1631 397 2203 397 
Q 2534 397 2845 478 
Q 3156 559 3463 722 
L 3463 178 
Q 3153 47 2828 -22 
Q 2503 -91 2169 -91 
Q 1331 -91 842 396 
Q 353 884 353 1716 
Q 353 2575 817 3079 
Q 1281 3584 2069 3584 
Q 2775 3584 3186 3129 
Q 3597 2675 3597 1894 
z
M 3022 2063 
Q 3016 2534 2758 2815 
Q 2500 3097 2075 3097 
Q 1594 3097 1305 2825 
Q 1016 2553 972 2059 
L 3022 2063 
z
" transform="scale(0.015625)"/>
       <path id="DejaVuSans-6e" d="M 3513 2113 
L 3513 0 
L 2938 0 
L 2938 2094 
Q 2938 2591 2744 2837 
Q 2550 3084 2163 3084 
Q 1697 3084 1428 2787 
Q 1159 2491 1159 1978 
L 1159 0 
L 581 0 
L 581 3500 
L 1159 3500 
L 1159 2956 
Q 1366 3272 1645 3428 
Q 1925 3584 2291 3584 
Q 2894 3584 3203 3211 
Q 3513 2838 3513 2113 
z
" transform="scale(0.015625)"/>
       <path id="DejaVuSans-72" d="M 2631 2963 
Q 2534 3019 2420 3045 
Q 2306 3072 2169 3072 
Q 1681 3072 1420 2755 
Q 1159 2438 1159 1844 
L 1159 0 
L 581 0 
L 581 3500 
L 1159 3500 
L 1159 2956 
Q 1341 3275 1631 3429 
Q 1922 3584 2338 3584 
Q 2397 3584 2469 3576 
Q 2541 3569 2628 3553 
L 2631 2963 
z
" transform="scale(0.015625)"/>
       <path id="DejaVuSans-61" d="M 2194 1759 
Q 1497 1759 1228 1600 
Q 959 1441 959 1056 
Q 959 750 1161 570 
Q 1363 391 1709 391 
Q 2188 391 2477 730 
Q 2766 1069 2766 1631 
L 2766 1759 
L 2194 1759 
z
M 3341 1997 
L 3341 0 
L 2766 0 
L 2766 531 
Q 2569 213 2275 61 
Q 1981 -91 1556 -91 
Q 1019 -91 701 211 
Q 384 513 384 1019 
Q 384 1609 779 1909 
Q 1175 2209 1959 2209 
L 2766 2209 
L 2766 2266 
Q 2766 2663 2505 2880 
Q 2244 3097 1772 3097 
Q 1472 3097 1187 3025 
Q 903 2953 641 2809 
L 641 3341 
Q 956 3463 1253 3523 
Q 1550 3584 1831 3584 
Q 2591 3584 2966 3190 
Q 3341 2797 3341 1997 
z
" transform="scale(0.015625)"/>
       <path id="DejaVuSans-74" d="M 1172 4494 
L 1172 3500 
L 2356 3500 
L 2356 3053 
L 1172 3053 
L 1172 1153 
Q 1172 725 1289 603 
Q 1406 481 1766 481 
L 2356 481 
L 2356 0 
L 1766 0 
Q 1100 0 847 248 
Q 594 497 594 1153 
L 594 3053 
L 172 3053 
L 172 3500 
L 594 3500 
L 594 4494 
L 1172 4494 
z
" transform="scale(0.015625)"/>
       <path id="DejaVuSans-69" d="M 603 3500 
L 1178 3500 
L 1178 0 
L 603 0 
L 603 3500 
z
M 603 4863 
L 1178 4863 
L 1178 4134 
L 603 4134 
L 603 4863 
z
" transform="scale(0.015625)"/>
       <path id="DejaVuSans-6f" d="M 1959 3097 
Q 1497 3097 1228 2736 
Q 959 2375 959 1747 
Q 959 1119 1226 758 
Q 1494 397 1959 397 
Q 2419 397 2687 759 
Q 2956 1122 2956 1747 
Q 2956 2369 2687 2733 
Q 2419 3097 1959 3097 
z
M 1959 3584 
Q 2709 3584 3137 3096 
Q 3566 2609 3566 1747 
Q 3566 888 3137 398 
Q 2709 -91 1959 -91 
Q 1206 -91 779 398 
Q 353 888 353 1747 
Q 353 2609 779 3096 
Q 1206 3584 1959 3584 
z
" transform="scale(0.015625)"/>
      </defs>
      <use xlink:href="#DejaVuSans-47"/>
      <use xlink:href="#DejaVuSans-65" x="77.490234"/>
      <use xlink:href="#DejaVuSans-6e" x="139.013672"/>
      <use xlink:href="#DejaVuSans-65" x="202.392578"/>
      <use xlink:href="#DejaVuSans-72" x="263.916016"/>
      <use xlink:href="#DejaVuSans-61" x="305.029297"/>
      <use xlink:href="#DejaVuSans-74" x="366.308594"/>
      <use xlink:href="#DejaVuSans-69" x="405.517578"/>
      <use xlink:href="#DejaVuSans-6f" x="433.300781"/>
      <use xlink:href="#DejaVuSans-6e" x="494.482422"/>
     </g>
    </g>
   </g>
   <g id="matplotlib.axis_2">
    <g id="ytick_1">
     <g id="line2d_10">
      <defs>
       <path id="m2bcda11cce" d="M 0 0 
L -3.5 0 
" style="stroke: #000000; stroke-width: 0.8"/>
      </defs>
      <g>
       <use xlink:href="#m2bcda11cce" x="54" y="230.256" style="stroke: #000000; stroke-width: 0.8"/>
      </g>
     </g>
     <g id="text_11">
      <!-- 5 -->
      <g transform="translate(40.6375 234.055219)scale(0.1 -0.1)">
       <use xlink:href="#DejaVuSans-35"/>
      </g>
     </g>
    </g>
    <g id="ytick_2">
     <g id="line2d_11">
      <g>
       <use xlink:href="#m2bcda11cce" x="54" y="186.768" style="stroke: #000000; stroke-width: 0.8"/>
      </g>
     </g>
     <g id="text_12">
      <!-- 6 -->
      <g transform="translate(40.6375 190.567219)scale(0.1 -0.1)">
       <defs>
        <path id="DejaVuSans-36" d="M 2113 2584 
Q 1688 2584 1439 2293 
Q 1191 2003 1191 1497 
Q 1191 994 1439 701 
Q 1688 409 2113 409 
Q 2538 409 2786 701 
Q 3034 994 3034 1497 
Q 3034 2003 2786 2293 
Q 2538 2584 2113 2584 
z
M 3366 4563 
L 3366 3988 
Q 3128 4100 2886 4159 
Q 2644 4219 2406 4219 
Q 1781 4219 1451 3797 
Q 1122 3375 1075 2522 
Q 1259 2794 1537 2939 
Q 1816 3084 2150 3084 
Q 2853 3084 3261 2657 
Q 3669 2231 3669 1497 
Q 3669 778 3244 343 
Q 2819 -91 2113 -91 
Q 1303 -91 875 529 
Q 447 1150 447 2328 
Q 447 3434 972 4092 
Q 1497 4750 2381 4750 
Q 2619 4750 2861 4703 
Q 3103 4656 3366 4563 
z
" transform="scale(0.015625)"/>
       </defs>
       <use xlink:href="#DejaVuSans-36"/>
      </g>
     </g>
    </g>
    <g id="ytick_3">
     <g id="line2d_12">
      <g>
       <use xlink:href="#m2bcda11cce" x="54" y="143.28" style="stroke: #000000; stroke-width: 0.8"/>
      </g>
     </g>
     <g id="text_13">
      <!-- 7 -->
      <g transform="translate(40.6375 147.079219)scale(0.1 -0.1)">
       <use xlink:href="#DejaVuSans-37"/>
      </g>
     </g>
    </g>
    <g id="ytick_4">
     <g id="line2d_13">
      <g>
       <use xlink:href="#m2bcda11cce" x="54" y="99.792" style="stroke: #000000; stroke-width: 0.8"/>
      </g>
     </g>
     <g id="text_14">
      <!-- 8 -->
      <g transform="translate(40.6375 103.591219)scale(0.1 -0.1)">
       <defs>
        <path id="DejaVuSans-38" d="M 2034 2216 
Q 1584 2216 1326 1975 
Q 1069 1734 1069 1313 
Q 1069 891 1326 650 
Q 1584 409 2034 409 
Q 2484 409 2743 651 
Q 3003 894 3003 1313 
Q 3003 1734 2745 1975 
Q 2488 2216 2034 2216 
z
M 1403 2484 
Q 997 2584 770 2862 
Q 544 3141 544 3541 
Q 544 4100 942 4425 
Q 1341 4750 2034 4750 
Q 2731 4750 3128 4425 
Q 3525 4100 3525 3541 
Q 3525 3141 3298 2862 
Q 3072 2584 2669 2484 
Q 3125 2378 3379 2068 
Q 3634 1759 3634 1313 
Q 3634 634 3220 271 
Q 2806 -91 2034 -91 
Q 1263 -91 848 271 
Q 434 634 434 1313 
Q 434 1759 690 2068 
Q 947 2378 1403 2484 
z
M 1172 3481 
Q 1172 3119 1398 2916 
Q 1625 2713 2034 2713 
Q 2441 2713 2670 2916 
Q 2900 3119 2900 3481 
Q 2900 3844 2670 4047 
Q 2441 4250 2034 4250 
Q 1625 4250 1398 4047 
Q 1172 3844 1172 3481 
z
" transform="scale(0.015625)"/>
       </defs>
       <use xlink:href="#DejaVuSans-38"/>
      </g>
     </g>
    </g>
    <g id="ytick_5">
     <g id="line2d_14">
      <g>
       <use xlink:href="#m2bcda11cce" x="54" y="56.304" style="stroke: #000000; stroke-width: 0.8"/>
      </g>
     </g>
     <g id="text_15">
      <!-- 9 -->
      <g transform="translate(40.6375 60.103219)scale(0.1 -0.1)">
       <defs>
        <path id="DejaVuSans-39" d="M 703 97 
L 703 672 
Q 941 559 1184 500 
Q 1428 441 1663 441 
Q 2288 441 2617 861 
Q 2947 1281 2994 2138 
Q 2813 1869 2534 1725 
Q 2256 1581 1919 1581 
Q 1219 1581 811 2004 
Q 403 2428 403 3163 
Q 403 3881 828 4315 
Q 1253 4750 1959 4750 
Q 2769 4750 3195 4129 
Q 3622 3509 3622 2328 
Q 3622 1225 3098 567 
Q 2575 -91 1691 -91 
Q 1453 -91 1209 -44 
Q 966 3 703 97 
z
M 1959 2075 
Q 2384 2075 2632 2365 
Q 2881 2656 2881 3163 
Q 2881 3666 2632 3958 
Q 2384 4250 1959 4250 
Q 1534 4250 1286 3958 
Q 1038 3666 1038 3163 
Q 1038 2656 1286 2365 
Q 1534 2075 1959 2075 
z
" transform="scale(0.015625)"/>
       </defs>
       <use xlink:href="#DejaVuSans-39"/>
      </g>
     </g>
    </g>
    <g id="text_16">
     <!-- Average Energy -->
     <g transform="translate(34.557812 182.908125)rotate(-90)scale(0.1 -0.1)">
      <defs>
       <path id="DejaVuSans-41" d="M 2188 4044 
L 1331 1722 
L 3047 1722 
L 2188 4044 
z
M 1831 4666 
L 2547 4666 
L 4325 0 
L 3669 0 
L 3244 1197 
L 1141 1197 
L 716 0 
L 50 0 
L 1831 4666 
z
" transform="scale(0.015625)"/>
       <path id="DejaVuSans-76" d="M 191 3500 
L 800 3500 
L 1894 563 
L 2988 3500 
L 3597 3500 
L 2284 0 
L 1503 0 
L 191 3500 
z
" transform="scale(0.015625)"/>
       <path id="DejaVuSans-67" d="M 2906 1791 
Q 2906 2416 2648 2759 
Q 2391 3103 1925 3103 
Q 1463 3103 1205 2759 
Q 947 2416 947 1791 
Q 947 1169 1205 825 
Q 1463 481 1925 481 
Q 2391 481 2648 825 
Q 2906 1169 2906 1791 
z
M 3481 434 
Q 3481 -459 3084 -895 
Q 2688 -1331 1869 -1331 
Q 1566 -1331 1297 -1286 
Q 1028 -1241 775 -1147 
L 775 -588 
Q 1028 -725 1275 -790 
Q 1522 -856 1778 -856 
Q 2344 -856 2625 -561 
Q 2906 -266 2906 331 
L 2906 616 
Q 2728 306 2450 153 
Q 2172 0 1784 0 
Q 1141 0 747 490 
Q 353 981 353 1791 
Q 353 2603 747 3093 
Q 1141 3584 1784 3584 
Q 2172 3584 2450 3431 
Q 2728 3278 2906 2969 
L 2906 3500 
L 3481 3500 
L 3481 434 
z
" transform="scale(0.015625)"/>
       <path id="DejaVuSans-20" transform="scale(0.015625)"/>
       <path id="DejaVuSans-45" d="M 628 4666 
L 3578 4666 
L 3578 4134 
L 1259 4134 
L 1259 2753 
L 3481 2753 
L 3481 2222 
L 1259 2222 
L 1259 531 
L 3634 531 
L 3634 0 
L 628 0 
L 628 4666 
z
" transform="scale(0.015625)"/>
       <path id="DejaVuSans-79" d="M 2059 -325 
Q 1816 -950 1584 -1140 
Q 1353 -1331 966 -1331 
L 506 -1331 
L 506 -850 
L 844 -850 
Q 1081 -850 1212 -737 
Q 1344 -625 1503 -206 
L 1606 56 
L 191 3500 
L 800 3500 
L 1894 763 
L 2988 3500 
L 3597 3500 
L 2059 -325 
z
" transform="scale(0.015625)"/>
      </defs>
      <use xlink:href="#DejaVuSans-41"/>
      <use xlink:href="#DejaVuSans-76" x="62.533203"/>
      <use xlink:href="#DejaVuSans-65" x="121.712891"/>
      <use xlink:href="#DejaVuSans-72" x="183.236328"/>
      <use xlink:href="#DejaVuSans-61" x="224.349609"/>
      <use xlink:href="#DejaVuSans-67" x="285.628906"/>
      <use xlink:href="#DejaVuSans-65" x="349.105469"/>
      <use xlink:href="#DejaVuSans-20" x="410.628906"/>
      <use xlink:href="#DejaVuSans-45" x="442.416016"/>
      <use xlink:href="#DejaVuSans-6e" x="505.599609"/>
      <use xlink:href="#DejaVuSans-65" x="568.978516"/>
      <use xlink:href="#DejaVuSans-72" x="630.501953"/>
      <use xlink:href="#DejaVuSans-67" x="669.865234"/>
      <use xlink:href="#DejaVuSans-79" x="733.341797"/>
     </g>
    </g>
   </g>
   <g id="line2d_15">
    <path d="M 69.218182 100.77048 
L 70.747647 95.00832 
L 72.277113 96.42168 
L 73.806578 93.59496 
L 75.336044 96.96528 
L 76.865509 92.83392 
L 78.394975 94.57344 
L 79.92444 98.26992 
L 81.453906 92.1816 
L 82.983371 81.96192 
L 84.512837 85.1148 
L 86.042302 80.2224 
L 87.571768 86.96304 
L 89.101233 82.28808 
L 90.630699 86.96304 
L 92.160164 88.48512 
L 93.68963 87.18048 
L 95.219095 82.50552 
L 96.748561 82.28808 
L 98.278026 86.52816 
L 99.807492 84.35376 
L 101.336958 77.83056 
L 102.866423 78.37416 
L 104.395889 80.43984 
L 105.925354 80.11368 
L 107.45482 76.63464 
L 108.984285 86.41944 
L 110.513751 89.02872 
L 112.043216 80.00496 
L 113.572682 80.65728 
L 115.102147 81.52704 
L 116.631613 79.1352 
L 118.161078 79.46136 
L 119.690544 84.78864 
L 121.220009 78.70032 
L 122.749475 75.54744 
L 124.27894 75.98232 
L 125.808406 85.76712 
L 127.337871 71.95968 
L 128.867337 67.82832 
L 130.396802 72.50328 
L 133.455733 62.93592 
L 134.985199 75.65616 
L 136.514664 71.5248 
L 138.04413 69.56784 
L 139.573595 76.09104 
L 141.103061 67.39344 
L 142.632526 68.8068 
L 144.161992 66.74112 
L 145.691457 68.69808 
L 147.220923 73.6992 
L 148.750388 70.54632 
L 150.279854 60.1092 
L 151.809319 70.54632 
L 153.338785 61.30512 
L 154.86825 65.21904 
L 156.397716 65.76264 
L 157.927181 71.63352 
L 159.456647 66.19752 
L 160.986112 65.5452 
L 162.515578 73.91664 
L 164.045043 71.30736 
L 165.574509 77.17824 
L 167.103974 69.56784 
L 168.63344 66.84984 
L 170.162905 69.02424 
L 171.692371 69.13296 
L 173.221836 68.2632 
L 174.751302 63.80568 
L 176.280767 68.04576 
L 177.810233 62.71848 
L 179.339698 70.11144 
L 182.39863 66.19752 
L 183.928095 71.74224 
L 185.457561 64.67544 
L 186.987026 67.176 
L 188.516492 68.15448 
L 190.045957 70.4376 
L 191.575423 67.28472 
L 193.104888 65.87136 
L 194.634354 65.0016 
L 196.163819 62.93592 
L 197.693285 63.9144 
L 199.22275 65.11032 
L 200.752216 66.84984 
L 202.281681 64.24056 
L 203.811147 65.65392 
L 205.340612 64.24056 
L 206.870078 69.894 
L 208.399543 64.34928 
L 209.929009 65.43648 
L 211.458474 73.37304 
L 212.98794 69.13296 
L 214.517405 68.15448 
L 216.046871 61.08768 
L 217.576336 72.82944 
L 219.105802 64.56672 
L 220.635267 71.08992 
L 222.164733 64.24056 
L 223.694198 64.34928 
L 225.223664 73.59048 
L 226.753129 63.47952 
L 228.282595 68.48064 
L 229.81206 70.11144 
L 231.341526 68.58936 
L 232.870991 78.5916 
L 234.400457 62.06616 
L 235.929922 65.11032 
L 237.459388 77.5044 
L 238.988853 69.24168 
L 240.518319 77.17824 
L 242.047784 70.00272 
L 243.57725 66.30624 
L 245.106715 75.11256 
L 246.636181 69.13296 
L 248.165646 64.34928 
L 249.695112 65.76264 
L 251.224577 62.8272 
L 252.754043 66.41496 
L 254.283508 64.89288 
L 255.812974 63.69696 
L 257.342439 74.35152 
L 258.871905 71.85096 
L 260.40137 66.30624 
L 261.930836 66.84984 
L 263.460302 67.82832 
L 264.989767 65.76264 
L 266.519233 73.80792 
L 268.048698 59.67432 
L 269.578164 64.67544 
L 271.107629 60.43536 
L 272.637095 67.7196 
L 274.16656 69.67656 
L 275.696026 66.19752 
L 277.225491 65.76264 
L 278.754957 65.5452 
L 280.284422 67.06728 
L 281.813888 57.06504 
L 283.343353 63.69696 
L 284.872819 68.37192 
L 286.402284 69.24168 
L 287.93175 69.56784 
L 289.461215 74.02536 
L 290.990681 63.26208 
L 292.520146 66.30624 
L 294.049612 53.80344 
L 295.579077 71.63352 
L 297.108543 69.13296 
L 298.638008 61.1964 
L 300.167474 67.50216 
L 301.696939 60.32664 
L 303.226405 62.39232 
L 304.75587 52.39008 
L 307.814801 52.06392 
L 309.344267 57.71736 
L 310.873732 52.60752 
L 312.403198 59.67432 
L 313.932663 60.1092 
L 315.462129 55.7604 
L 316.991594 60.76152 
L 318.52106 63.15336 
L 320.050525 64.24056 
L 321.579991 62.06616 
L 323.109456 56.19528 
L 324.638922 60.87024 
L 326.168387 62.60976 
L 329.227318 63.26208 
L 330.756784 62.8272 
L 332.286249 61.08768 
L 333.815715 54.02088 
L 335.34518 64.24056 
L 336.874646 53.25984 
L 338.404111 50.65056 
L 339.933577 58.15224 
L 341.463042 56.41272 
L 342.992508 56.19528 
L 344.521974 57.28248 
L 346.051439 67.7196 
L 347.580905 64.56672 
L 349.11037 66.74112 
L 350.639836 54.45576 
L 352.169301 61.1964 
L 353.698767 52.28136 
L 355.228232 57.17376 
L 356.757698 49.34592 
L 358.287163 53.80344 
L 359.816629 52.82496 
L 361.346094 55.32552 
L 362.87556 53.36856 
L 364.405025 57.06504 
L 365.934491 60.21792 
L 367.463956 55.2168 
L 368.993422 51.30288 
L 370.522887 59.13072 
L 372.052353 55.7604 
L 373.581818 61.41384 
L 373.581818 61.41384 
" clip-path="url(#pad57f523b5)" style="fill: none; stroke: #1f77b4; stroke-width: 1.5; stroke-linecap: square"/>
   </g>
   <g id="line2d_16">
    <path d="M 69.218182 122.40576 
L 373.581818 122.40576 
L 373.581818 122.40576 
" clip-path="url(#pad57f523b5)" style="fill: none; stroke-dasharray: 5.55,2.4; stroke-dashoffset: 0; stroke: #ff7f0e; stroke-width: 1.5"/>
   </g>
   <g id="line2d_17">
    <path d="M 69.218182 40.21344 
L 373.581818 40.21344 
L 373.581818 40.21344 
" clip-path="url(#pad57f523b5)" style="fill: none; stroke-dasharray: 5.55,2.4; stroke-dashoffset: 0; stroke: #2ca02c; stroke-width: 1.5"/>
   </g>
   <g id="patch_3">
    <path d="M 54 252 
L 54 34.56 
" style="fill: none; stroke: #000000; stroke-width: 0.8; stroke-linejoin: miter; stroke-linecap: square"/>
   </g>
   <g id="patch_4">
    <path d="M 388.8 252 
L 388.8 34.56 
" style="fill: none; stroke: #000000; stroke-width: 0.8; stroke-linejoin: miter; stroke-linecap: square"/>
   </g>
   <g id="patch_5">
    <path d="M 54 252 
L 388.8 252 
" style="fill: none; stroke: #000000; stroke-width: 0.8; stroke-linejoin: miter; stroke-linecap: square"/>
   </g>
   <g id="patch_6">
    <path d="M 54 34.56 
L 388.8 34.56 
" style="fill: none; stroke: #000000; stroke-width: 0.8; stroke-linejoin: miter; stroke-linecap: square"/>
   </g>
   <g id="text_17">
    <!-- Random -->
    <g transform="translate(196.561875 28.56)scale(0.12 -0.12)">
     <defs>
      <path id="DejaVuSans-52" d="M 2841 2188 
Q 3044 2119 3236 1894 
Q 3428 1669 3622 1275 
L 4263 0 
L 3584 0 
L 2988 1197 
Q 2756 1666 2539 1819 
Q 2322 1972 1947 1972 
L 1259 1972 
L 1259 0 
L 628 0 
L 628 4666 
L 2053 4666 
Q 2853 4666 3247 4331 
Q 3641 3997 3641 3322 
Q 3641 2881 3436 2590 
Q 3231 2300 2841 2188 
z
M 1259 4147 
L 1259 2491 
L 2053 2491 
Q 2509 2491 2742 2702 
Q 2975 2913 2975 3322 
Q 2975 3731 2742 3939 
Q 2509 4147 2053 4147 
L 1259 4147 
z
" transform="scale(0.015625)"/>
      <path id="DejaVuSans-64" d="M 2906 2969 
L 2906 4863 
L 3481 4863 
L 3481 0 
L 2906 0 
L 2906 525 
Q 2725 213 2448 61 
Q 2172 -91 1784 -91 
Q 1150 -91 751 415 
Q 353 922 353 1747 
Q 353 2572 751 3078 
Q 1150 3584 1784 3584 
Q 2172 3584 2448 3432 
Q 2725 3281 2906 2969 
z
M 947 1747 
Q 947 1113 1208 752 
Q 1469 391 1925 391 
Q 2381 391 2643 752 
Q 2906 1113 2906 1747 
Q 2906 2381 2643 2742 
Q 2381 3103 1925 3103 
Q 1469 3103 1208 2742 
Q 947 2381 947 1747 
z
" transform="scale(0.015625)"/>
      <path id="DejaVuSans-6d" d="M 3328 2828 
Q 3544 3216 3844 3400 
Q 4144 3584 4550 3584 
Q 5097 3584 5394 3201 
Q 5691 2819 5691 2113 
L 5691 0 
L 5113 0 
L 5113 2094 
Q 5113 2597 4934 2840 
Q 4756 3084 4391 3084 
Q 3944 3084 3684 2787 
Q 3425 2491 3425 1978 
L 3425 0 
L 2847 0 
L 2847 2094 
Q 2847 2600 2669 2842 
Q 2491 3084 2119 3084 
Q 1678 3084 1418 2786 
Q 1159 2488 1159 1978 
L 1159 0 
L 581 0 
L 581 3500 
L 1159 3500 
L 1159 2956 
Q 1356 3278 1631 3431 
Q 1906 3584 2284 3584 
Q 2666 3584 2933 3390 
Q 3200 3197 3328 2828 
z
" transform="scale(0.015625)"/>
     </defs>
     <use xlink:href="#DejaVuSans-52"/>
     <use xlink:href="#DejaVuSans-61" x="67.232422"/>
     <use xlink:href="#DejaVuSans-6e" x="128.511719"/>
     <use xlink:href="#DejaVuSans-64" x="191.890625"/>
     <use xlink:href="#DejaVuSans-6f" x="255.367188"/>
     <use xlink:href="#DejaVuSans-6d" x="316.548828"/>
    </g>
   </g>
   <g id="legend_1">
    <g id="patch_7">
     <path d="M 221.0125 247 
L 381.8 247 
Q 383.8 247 383.8 245 
L 383.8 201.6875 
Q 383.8 199.6875 381.8 199.6875 
L 221.0125 199.6875 
Q 219.0125 199.6875 219.0125 201.6875 
L 219.0125 245 
Q 219.0125 247 221.0125 247 
z
" style="fill: #ffffff; opacity: 0.8; stroke: #cccccc; stroke-linejoin: miter"/>
    </g>
    <g id="line2d_18">
     <path d="M 223.0125 207.785937 
L 233.0125 207.785937 
L 243.0125 207.785937 
" style="fill: none; stroke: #1f77b4; stroke-width: 1.5; stroke-linecap: square"/>
    </g>
    <g id="text_18">
     <!-- training on random graph -->
     <g transform="translate(251.0125 211.285937)scale(0.1 -0.1)">
      <defs>
       <path id="DejaVuSans-70" d="M 1159 525 
L 1159 -1331 
L 581 -1331 
L 581 3500 
L 1159 3500 
L 1159 2969 
Q 1341 3281 1617 3432 
Q 1894 3584 2278 3584 
Q 2916 3584 3314 3078 
Q 3713 2572 3713 1747 
Q 3713 922 3314 415 
Q 2916 -91 2278 -91 
Q 1894 -91 1617 61 
Q 1341 213 1159 525 
z
M 3116 1747 
Q 3116 2381 2855 2742 
Q 2594 3103 2138 3103 
Q 1681 3103 1420 2742 
Q 1159 2381 1159 1747 
Q 1159 1113 1420 752 
Q 1681 391 2138 391 
Q 2594 391 2855 752 
Q 3116 1113 3116 1747 
z
" transform="scale(0.015625)"/>
       <path id="DejaVuSans-68" d="M 3513 2113 
L 3513 0 
L 2938 0 
L 2938 2094 
Q 2938 2591 2744 2837 
Q 2550 3084 2163 3084 
Q 1697 3084 1428 2787 
Q 1159 2491 1159 1978 
L 1159 0 
L 581 0 
L 581 4863 
L 1159 4863 
L 1159 2956 
Q 1366 3272 1645 3428 
Q 1925 3584 2291 3584 
Q 2894 3584 3203 3211 
Q 3513 2838 3513 2113 
z
" transform="scale(0.015625)"/>
      </defs>
      <use xlink:href="#DejaVuSans-74"/>
      <use xlink:href="#DejaVuSans-72" x="39.208984"/>
      <use xlink:href="#DejaVuSans-61" x="80.322266"/>
      <use xlink:href="#DejaVuSans-69" x="141.601562"/>
      <use xlink:href="#DejaVuSans-6e" x="169.384766"/>
      <use xlink:href="#DejaVuSans-69" x="232.763672"/>
      <use xlink:href="#DejaVuSans-6e" x="260.546875"/>
      <use xlink:href="#DejaVuSans-67" x="323.925781"/>
      <use xlink:href="#DejaVuSans-20" x="387.402344"/>
      <use xlink:href="#DejaVuSans-6f" x="419.189453"/>
      <use xlink:href="#DejaVuSans-6e" x="480.371094"/>
      <use xlink:href="#DejaVuSans-20" x="543.75"/>
      <use xlink:href="#DejaVuSans-72" x="575.537109"/>
      <use xlink:href="#DejaVuSans-61" x="616.650391"/>
      <use xlink:href="#DejaVuSans-6e" x="677.929688"/>
      <use xlink:href="#DejaVuSans-64" x="741.308594"/>
      <use xlink:href="#DejaVuSans-6f" x="804.785156"/>
      <use xlink:href="#DejaVuSans-6d" x="865.966797"/>
      <use xlink:href="#DejaVuSans-20" x="963.378906"/>
      <use xlink:href="#DejaVuSans-67" x="995.166016"/>
      <use xlink:href="#DejaVuSans-72" x="1058.642578"/>
      <use xlink:href="#DejaVuSans-61" x="1099.755859"/>
      <use xlink:href="#DejaVuSans-70" x="1161.035156"/>
      <use xlink:href="#DejaVuSans-68" x="1224.511719"/>
     </g>
    </g>
    <g id="line2d_19">
     <path d="M 223.0125 222.464063 
L 233.0125 222.464063 
L 243.0125 222.464063 
" style="fill: none; stroke-dasharray: 5.55,2.4; stroke-dashoffset: 0; stroke: #ff7f0e; stroke-width: 1.5"/>
    </g>
    <g id="text_19">
     <!-- transfer learning -->
     <g transform="translate(251.0125 225.964063)scale(0.1 -0.1)">
      <defs>
       <path id="DejaVuSans-73" d="M 2834 3397 
L 2834 2853 
Q 2591 2978 2328 3040 
Q 2066 3103 1784 3103 
Q 1356 3103 1142 2972 
Q 928 2841 928 2578 
Q 928 2378 1081 2264 
Q 1234 2150 1697 2047 
L 1894 2003 
Q 2506 1872 2764 1633 
Q 3022 1394 3022 966 
Q 3022 478 2636 193 
Q 2250 -91 1575 -91 
Q 1294 -91 989 -36 
Q 684 19 347 128 
L 347 722 
Q 666 556 975 473 
Q 1284 391 1588 391 
Q 1994 391 2212 530 
Q 2431 669 2431 922 
Q 2431 1156 2273 1281 
Q 2116 1406 1581 1522 
L 1381 1569 
Q 847 1681 609 1914 
Q 372 2147 372 2553 
Q 372 3047 722 3315 
Q 1072 3584 1716 3584 
Q 2034 3584 2315 3537 
Q 2597 3491 2834 3397 
z
" transform="scale(0.015625)"/>
       <path id="DejaVuSans-66" d="M 2375 4863 
L 2375 4384 
L 1825 4384 
Q 1516 4384 1395 4259 
Q 1275 4134 1275 3809 
L 1275 3500 
L 2222 3500 
L 2222 3053 
L 1275 3053 
L 1275 0 
L 697 0 
L 697 3053 
L 147 3053 
L 147 3500 
L 697 3500 
L 697 3744 
Q 697 4328 969 4595 
Q 1241 4863 1831 4863 
L 2375 4863 
z
" transform="scale(0.015625)"/>
       <path id="DejaVuSans-6c" d="M 603 4863 
L 1178 4863 
L 1178 0 
L 603 0 
L 603 4863 
z
" transform="scale(0.015625)"/>
      </defs>
      <use xlink:href="#DejaVuSans-74"/>
      <use xlink:href="#DejaVuSans-72" x="39.208984"/>
      <use xlink:href="#DejaVuSans-61" x="80.322266"/>
      <use xlink:href="#DejaVuSans-6e" x="141.601562"/>
      <use xlink:href="#DejaVuSans-73" x="204.980469"/>
      <use xlink:href="#DejaVuSans-66" x="257.080078"/>
      <use xlink:href="#DejaVuSans-65" x="292.285156"/>
      <use xlink:href="#DejaVuSans-72" x="353.808594"/>
      <use xlink:href="#DejaVuSans-20" x="394.921875"/>
      <use xlink:href="#DejaVuSans-6c" x="426.708984"/>
      <use xlink:href="#DejaVuSans-65" x="454.492188"/>
      <use xlink:href="#DejaVuSans-61" x="516.015625"/>
      <use xlink:href="#DejaVuSans-72" x="577.294922"/>
      <use xlink:href="#DejaVuSans-6e" x="616.658203"/>
      <use xlink:href="#DejaVuSans-69" x="680.037109"/>
      <use xlink:href="#DejaVuSans-6e" x="707.820312"/>
      <use xlink:href="#DejaVuSans-67" x="771.199219"/>
     </g>
    </g>
    <g id="line2d_20">
     <path d="M 223.0125 237.142188 
L 233.0125 237.142188 
L 243.0125 237.142188 
" style="fill: none; stroke-dasharray: 5.55,2.4; stroke-dashoffset: 0; stroke: #2ca02c; stroke-width: 1.5"/>
    </g>
    <g id="text_20">
     <!-- QAOA_4 -->
     <g transform="translate(251.0125 240.642188)scale(0.1 -0.1)">
      <defs>
       <path id="DejaVuSans-51" d="M 2522 4238 
Q 1834 4238 1429 3725 
Q 1025 3213 1025 2328 
Q 1025 1447 1429 934 
Q 1834 422 2522 422 
Q 3209 422 3611 934 
Q 4013 1447 4013 2328 
Q 4013 3213 3611 3725 
Q 3209 4238 2522 4238 
z
M 3406 84 
L 4238 -825 
L 3475 -825 
L 2784 -78 
Q 2681 -84 2626 -87 
Q 2572 -91 2522 -91 
Q 1538 -91 948 567 
Q 359 1225 359 2328 
Q 359 3434 948 4092 
Q 1538 4750 2522 4750 
Q 3503 4750 4090 4092 
Q 4678 3434 4678 2328 
Q 4678 1516 4351 937 
Q 4025 359 3406 84 
z
" transform="scale(0.015625)"/>
       <path id="DejaVuSans-4f" d="M 2522 4238 
Q 1834 4238 1429 3725 
Q 1025 3213 1025 2328 
Q 1025 1447 1429 934 
Q 1834 422 2522 422 
Q 3209 422 3611 934 
Q 4013 1447 4013 2328 
Q 4013 3213 3611 3725 
Q 3209 4238 2522 4238 
z
M 2522 4750 
Q 3503 4750 4090 4092 
Q 4678 3434 4678 2328 
Q 4678 1225 4090 567 
Q 3503 -91 2522 -91 
Q 1538 -91 948 565 
Q 359 1222 359 2328 
Q 359 3434 948 4092 
Q 1538 4750 2522 4750 
z
" transform="scale(0.015625)"/>
       <path id="DejaVuSans-5f" d="M 3263 -1063 
L 3263 -1509 
L -63 -1509 
L -63 -1063 
L 3263 -1063 
z
" transform="scale(0.015625)"/>
       <path id="DejaVuSans-34" d="M 2419 4116 
L 825 1625 
L 2419 1625 
L 2419 4116 
z
M 2253 4666 
L 3047 4666 
L 3047 1625 
L 3713 1625 
L 3713 1100 
L 3047 1100 
L 3047 0 
L 2419 0 
L 2419 1100 
L 313 1100 
L 313 1709 
L 2253 4666 
z
" transform="scale(0.015625)"/>
      </defs>
      <use xlink:href="#DejaVuSans-51"/>
      <use xlink:href="#DejaVuSans-41" x="78.710938"/>
      <use xlink:href="#DejaVuSans-4f" x="145.369141"/>
      <use xlink:href="#DejaVuSans-41" x="222.330078"/>
      <use xlink:href="#DejaVuSans-5f" x="290.738281"/>
      <use xlink:href="#DejaVuSans-34" x="340.738281"/>
     </g>
    </g>
   </g>
  </g>
 </g>
 <defs>
  <clipPath id="pad57f523b5">
   <rect x="54" y="34.56" width="334.8" height="217.44"/>
  </clipPath>
 </defs>
</svg>
