<?xml version="1.0" encoding="utf-8" standalone="no"?>
<!DOCTYPE svg PUBLIC "-//W3C//DTD SVG 1.1//EN"
  "http://www.w3.org/Graphics/SVG/1.1/DTD/svg11.dtd">
<svg xmlns:xlink="http://www.w3.org/1999/xlink" width="432pt" height="288pt" viewBox="0 0 432 288" xmlns="http://www.w3.org/2000/svg" version="1.1">
 <metadata>
  <rdf:RDF xmlns:dc="http://purl.org/dc/elements/1.1/" xmlns:cc="http://creativecommons.org/ns#" xmlns:rdf="http://www.w3.org/1999/02/22-rdf-syntax-ns#">
   <cc:Work>
    <dc:type rdf:resource="http://purl.org/dc/dcmitype/StillImage"/>
    <dc:date>2023-06-27T08:47:53.625331</dc:date>
    <dc:format>image/svg+xml</dc:format>
    <dc:creator>
     <cc:Agent>
      <dc:title>Matplotlib v3.5.2, https://matplotlib.org/</dc:title>
     </cc:Agent>
    </dc:creator>
   </cc:Work>
  </rdf:RDF>
 </metadata>
 <defs>
  <style type="text/css">*{stroke-linejoin: round; stroke-linecap: butt}</style>
 </defs>
 <g id="figure_1">
  <g id="patch_1">
   <path d="M 0 288 
L 432 288 
L 432 0 
L 0 0 
L 0 288 
z
" style="fill: none"/>
  </g>
  <g id="axes_1">
   <g id="patch_2">
    <path d="M 54 252 
L 388.8 252 
L 388.8 34.56 
L 54 34.56 
z
" style="fill: #ffffff"/>
   </g>
   <g id="PolyCollection_1">
    <path d="M 69.218182 99.447657 
L 69.218182 91.677927 
L 70.747647 93.455997 
L 72.277113 93.434984 
L 73.806578 93.005156 
L 75.336044 87.359287 
L 76.865509 86.234819 
L 78.394975 83.598523 
L 79.92444 81.781523 
L 81.453906 82.88739 
L 82.983371 78.040273 
L 84.512837 78.717045 
L 86.042302 76.25695 
L 87.571768 78.330247 
L 89.101233 77.613558 
L 90.630699 80.409706 
L 92.160164 79.835277 
L 93.68963 79.512683 
L 95.219095 75.996328 
L 96.748561 79.717004 
L 98.278026 78.283961 
L 99.807492 77.722141 
L 101.336958 77.705205 
L 102.866423 76.546241 
L 104.395889 76.094031 
L 105.925354 76.457728 
L 107.45482 74.956046 
L 108.984285 74.439208 
L 110.513751 71.860923 
L 112.043216 72.383585 
L 113.572682 73.548366 
L 115.102147 71.775733 
L 116.631613 75.271703 
L 118.161078 72.551371 
L 119.690544 72.916105 
L 121.220009 73.102277 
L 122.749475 70.433485 
L 124.27894 75.695422 
L 125.808406 72.158478 
L 127.337871 71.06527 
L 128.867337 64.977164 
L 130.396802 63.272877 
L 131.926268 61.667492 
L 133.455733 62.571173 
L 134.985199 62.550571 
L 136.514664 60.214308 
L 138.04413 57.373455 
L 139.573595 60.073401 
L 141.103061 59.490589 
L 142.632526 61.413283 
L 144.161992 59.026774 
L 145.691457 60.316508 
L 147.220923 59.14347 
L 148.750388 62.876904 
L 150.279854 60.871243 
L 151.809319 57.284344 
L 153.338785 62.387736 
L 154.86825 58.598211 
L 156.397716 60.278923 
L 157.927181 59.256848 
L 159.456647 58.617048 
L 160.986112 59.313183 
L 162.515578 59.276887 
L 164.045043 59.029723 
L 165.574509 57.323432 
L 167.103974 57.182377 
L 168.63344 58.694553 
L 170.162905 60.228845 
L 171.692371 58.742514 
L 173.221836 58.250626 
L 174.751302 60.890856 
L 176.280767 57.838818 
L 177.810233 60.443656 
L 179.339698 60.0018 
L 180.869164 58.502184 
L 182.39863 61.50887 
L 183.928095 58.304821 
L 185.457561 60.429746 
L 186.987026 59.486525 
L 188.516492 59.899969 
L 190.045957 56.306204 
L 191.575423 60.344322 
L 193.104888 60.740581 
L 194.634354 59.524385 
L 196.163819 60.48433 
L 197.693285 59.246777 
L 199.22275 60.136734 
L 200.752216 60.841039 
L 202.281681 59.724429 
L 203.811147 58.310748 
L 205.340612 59.829632 
L 206.870078 56.086698 
L 208.399543 57.448879 
L 209.929009 56.834883 
L 211.458474 58.153211 
L 212.98794 57.170729 
L 214.517405 58.527001 
L 216.046871 59.505634 
L 217.576336 59.501399 
L 219.105802 59.375068 
L 220.635267 59.059254 
L 222.164733 58.527506 
L 223.694198 58.833516 
L 225.223664 60.641163 
L 226.753129 59.410638 
L 228.282595 59.058229 
L 229.81206 58.303583 
L 231.341526 58.927442 
L 232.870991 55.992498 
L 234.400457 57.093778 
L 235.929922 59.154602 
L 237.459388 57.21043 
L 238.988853 62.017979 
L 240.518319 62.850463 
L 242.047784 60.51203 
L 243.57725 62.137908 
L 245.106715 59.711211 
L 246.636181 57.377153 
L 248.165646 60.427908 
L 249.695112 61.500485 
L 251.224577 58.651331 
L 252.754043 61.246517 
L 254.283508 61.369951 
L 255.812974 59.212177 
L 257.342439 61.111465 
L 258.871905 61.531166 
L 260.40137 59.214745 
L 261.930836 61.686787 
L 263.460302 61.693853 
L 264.989767 61.053951 
L 266.519233 59.538042 
L 268.048698 60.561698 
L 269.578164 60.156736 
L 271.107629 60.361033 
L 272.637095 58.590599 
L 274.16656 59.579779 
L 275.696026 59.626667 
L 277.225491 60.313125 
L 278.754957 61.523775 
L 280.284422 59.36234 
L 281.813888 59.742287 
L 283.343353 57.766299 
L 284.872819 60.757323 
L 286.402284 58.676572 
L 287.93175 57.951762 
L 289.461215 57.748581 
L 290.990681 57.542261 
L 292.520146 57.300175 
L 294.049612 56.139597 
L 295.579077 55.273761 
L 297.108543 56.756264 
L 298.638008 54.783769 
L 300.167474 50.908216 
L 301.696939 52.229557 
L 303.226405 51.740185 
L 304.75587 55.19763 
L 306.285336 50.25647 
L 307.814801 49.248581 
L 309.344267 49.508297 
L 310.873732 48.831645 
L 312.403198 47.73149 
L 313.932663 49.259601 
L 315.462129 48.744876 
L 316.991594 54.575995 
L 318.52106 49.191772 
L 320.050525 49.481571 
L 321.579991 50.406945 
L 323.109456 51.263017 
L 324.638922 50.330393 
L 326.168387 47.911618 
L 327.697853 51.116248 
L 329.227318 49.623212 
L 330.756784 50.675727 
L 332.286249 51.417067 
L 333.815715 48.167564 
L 335.34518 51.308758 
L 336.874646 50.477753 
L 338.404111 51.580966 
L 339.933577 51.733761 
L 341.463042 51.555445 
L 342.992508 53.808526 
L 344.521974 51.559388 
L 346.051439 52.996738 
L 347.580905 48.997676 
L 349.11037 50.226453 
L 350.639836 53.481362 
L 352.169301 51.740735 
L 353.698767 50.773583 
L 355.228232 52.960068 
L 356.757698 51.009298 
L 358.287163 51.781213 
L 359.816629 51.015134 
L 361.346094 50.193569 
L 362.87556 49.72988 
L 364.405025 50.356527 
L 365.934491 48.893967 
L 367.463956 49.774825 
L 368.993422 53.596498 
L 370.522887 47.380227 
L 372.052353 51.814462 
L 373.581818 49.654593 
L 373.581818 57.647871 
L 373.581818 57.647871 
L 372.052353 59.923778 
L 370.522887 61.357341 
L 368.993422 59.59859 
L 367.463956 60.897959 
L 365.934491 62.605089 
L 364.405025 61.707873 
L 362.87556 61.443016 
L 361.346094 61.131535 
L 359.816629 59.266258 
L 358.287163 58.456691 
L 356.757698 60.22883 
L 355.228232 60.23502 
L 353.698767 58.659793 
L 352.169301 57.062065 
L 350.639836 56.952238 
L 349.11037 58.554603 
L 347.580905 57.348052 
L 346.051439 59.524286 
L 344.521974 59.265604 
L 342.992508 60.821666 
L 341.463042 59.139083 
L 339.933577 58.417167 
L 338.404111 58.28729 
L 336.874646 59.564455 
L 335.34518 58.863914 
L 333.815715 59.482804 
L 332.286249 59.973269 
L 330.756784 59.997057 
L 329.227318 62.72386 
L 327.697853 60.99164 
L 326.168387 61.760942 
L 324.638922 62.908183 
L 323.109456 61.627655 
L 321.579991 61.135599 
L 320.050525 63.104685 
L 318.52106 62.111588 
L 316.991594 61.380581 
L 315.462129 63.428244 
L 313.932663 63.652815 
L 312.403198 63.397918 
L 310.873732 63.885075 
L 309.344267 62.121223 
L 307.814801 63.424651 
L 306.285336 62.525482 
L 304.75587 60.88941 
L 303.226405 63.433607 
L 301.696939 61.704827 
L 300.167474 63.047912 
L 298.638008 63.477671 
L 297.108543 63.37516 
L 295.579077 65.857887 
L 294.049612 61.056387 
L 292.520146 64.309841 
L 290.990681 68.677483 
L 289.461215 65.796651 
L 287.93175 71.007726 
L 286.402284 68.412932 
L 284.872819 66.506133 
L 283.343353 67.605429 
L 281.813888 67.347217 
L 280.284422 67.683676 
L 278.754957 69.110001 
L 277.225491 66.711147 
L 275.696026 67.180165 
L 274.16656 66.618221 
L 272.637095 67.216009 
L 271.107629 70.272743 
L 269.578164 69.846464 
L 268.048698 69.963358 
L 266.519233 67.59495 
L 264.989767 66.470433 
L 263.460302 69.874915 
L 261.930836 68.794781 
L 260.40137 66.026519 
L 258.871905 66.906466 
L 257.342439 70.261607 
L 255.812974 68.855807 
L 254.283508 71.394737 
L 252.754043 70.583179 
L 251.224577 67.916317 
L 249.695112 68.633179 
L 248.165646 71.380044 
L 246.636181 66.276799 
L 245.106715 69.356997 
L 243.57725 69.387372 
L 242.047784 69.078034 
L 240.518319 68.761793 
L 238.988853 69.376837 
L 237.459388 69.596402 
L 235.929922 69.543958 
L 234.400457 68.038766 
L 232.870991 67.509246 
L 231.341526 68.444734 
L 229.81206 68.416273 
L 228.282595 68.770571 
L 226.753129 67.396194 
L 225.223664 69.753429 
L 223.694198 68.364708 
L 222.164733 69.757918 
L 220.635267 68.35641 
L 219.105802 69.714884 
L 217.576336 67.522873 
L 216.046871 67.670846 
L 214.517405 70.497719 
L 212.98794 71.288647 
L 211.458474 70.567093 
L 209.929009 70.863453 
L 208.399543 67.879361 
L 206.870078 69.785142 
L 205.340612 72.239248 
L 203.811147 69.56154 
L 202.281681 67.930419 
L 200.752216 71.532257 
L 199.22275 69.23589 
L 197.693285 68.712487 
L 196.163819 68.888294 
L 194.634354 72.000895 
L 193.104888 72.198059 
L 191.575423 72.920478 
L 190.045957 72.501076 
L 188.516492 72.995183 
L 186.987026 74.887219 
L 185.457561 72.226222 
L 183.928095 73.524875 
L 182.39863 75.061018 
L 180.869164 74.610408 
L 179.339698 72.7194 
L 177.810233 72.14708 
L 176.280767 72.599262 
L 174.751302 71.37372 
L 173.221836 69.904334 
L 171.692371 75.283326 
L 170.162905 71.361667 
L 168.63344 73.396071 
L 167.103974 73.277447 
L 165.574509 74.571496 
L 164.045043 73.561013 
L 162.515578 75.640457 
L 160.986112 75.082305 
L 159.456647 74.408568 
L 157.927181 75.834448 
L 156.397716 75.095045 
L 154.86825 74.231709 
L 153.338785 74.356104 
L 151.809319 74.915 
L 150.279854 75.959573 
L 148.750388 72.9102 
L 147.220923 75.817362 
L 145.691457 73.252708 
L 144.161992 73.977098 
L 142.632526 75.852413 
L 141.103061 76.470467 
L 139.573595 76.974855 
L 138.04413 77.587377 
L 136.514664 74.420364 
L 134.985199 75.650117 
L 133.455733 77.760427 
L 131.926268 76.685404 
L 130.396802 80.494275 
L 128.867337 78.85522 
L 127.337871 77.007194 
L 125.808406 77.870946 
L 124.27894 77.769554 
L 122.749475 77.791187 
L 121.220009 78.231787 
L 119.690544 76.721927 
L 118.161078 78.195605 
L 116.631613 78.128041 
L 115.102147 77.840555 
L 113.572682 79.568706 
L 112.043216 80.407327 
L 110.513751 79.016517 
L 108.984285 79.41716 
L 107.45482 80.944258 
L 105.925354 78.137936 
L 104.395889 79.806273 
L 102.866423 80.702191 
L 101.336958 81.956811 
L 99.807492 83.222771 
L 98.278026 82.247815 
L 96.748561 83.03266 
L 95.219095 84.92684 
L 93.68963 84.302437 
L 92.160164 83.762403 
L 90.630699 84.644822 
L 89.101233 83.548794 
L 87.571768 83.897561 
L 86.042302 85.318538 
L 84.512837 85.598187 
L 82.983371 86.492399 
L 81.453906 89.277426 
L 79.92444 91.948861 
L 78.394975 95.611349 
L 76.865509 93.801325 
L 75.336044 96.460313 
L 73.806578 96.837532 
L 72.277113 96.516424 
L 70.747647 99.082947 
L 69.218182 99.447657 
z
" clip-path="url(#p6537521cad)" style="fill: #1f77b4; fill-opacity: 0.5"/>
   </g>
   <g id="PolyCollection_2">
    <path d="M 69.218182 112.312681 
L 69.218182 110.754839 
L 70.747647 110.754839 
L 72.277113 110.754839 
L 73.806578 110.754839 
L 75.336044 110.754839 
L 76.865509 110.754839 
L 78.394975 110.754839 
L 79.92444 110.754839 
L 81.453906 110.754839 
L 82.983371 110.754839 
L 84.512837 110.754839 
L 86.042302 110.754839 
L 87.571768 110.754839 
L 89.101233 110.754839 
L 90.630699 110.754839 
L 92.160164 110.754839 
L 93.68963 110.754839 
L 95.219095 110.754839 
L 96.748561 110.754839 
L 98.278026 110.754839 
L 99.807492 110.754839 
L 101.336958 110.754839 
L 102.866423 110.754839 
L 104.395889 110.754839 
L 105.925354 110.754839 
L 107.45482 110.754839 
L 108.984285 110.754839 
L 110.513751 110.754839 
L 112.043216 110.754839 
L 113.572682 110.754839 
L 115.102147 110.754839 
L 116.631613 110.754839 
L 118.161078 110.754839 
L 119.690544 110.754839 
L 121.220009 110.754839 
L 122.749475 110.754839 
L 124.27894 110.754839 
L 125.808406 110.754839 
L 127.337871 110.754839 
L 128.867337 110.754839 
L 130.396802 110.754839 
L 131.926268 110.754839 
L 133.455733 110.754839 
L 134.985199 110.754839 
L 136.514664 110.754839 
L 138.04413 110.754839 
L 139.573595 110.754839 
L 141.103061 110.754839 
L 142.632526 110.754839 
L 144.161992 110.754839 
L 145.691457 110.754839 
L 147.220923 110.754839 
L 148.750388 110.754839 
L 150.279854 110.754839 
L 151.809319 110.754839 
L 153.338785 110.754839 
L 154.86825 110.754839 
L 156.397716 110.754839 
L 157.927181 110.754839 
L 159.456647 110.754839 
L 160.986112 110.754839 
L 162.515578 110.754839 
L 164.045043 110.754839 
L 165.574509 110.754839 
L 167.103974 110.754839 
L 168.63344 110.754839 
L 170.162905 110.754839 
L 171.692371 110.754839 
L 173.221836 110.754839 
L 174.751302 110.754839 
L 176.280767 110.754839 
L 177.810233 110.754839 
L 179.339698 110.754839 
L 180.869164 110.754839 
L 182.39863 110.754839 
L 183.928095 110.754839 
L 185.457561 110.754839 
L 186.987026 110.754839 
L 188.516492 110.754839 
L 190.045957 110.754839 
L 191.575423 110.754839 
L 193.104888 110.754839 
L 194.634354 110.754839 
L 196.163819 110.754839 
L 197.693285 110.754839 
L 199.22275 110.754839 
L 200.752216 110.754839 
L 202.281681 110.754839 
L 203.811147 110.754839 
L 205.340612 110.754839 
L 206.870078 110.754839 
L 208.399543 110.754839 
L 209.929009 110.754839 
L 211.458474 110.754839 
L 212.98794 110.754839 
L 214.517405 110.754839 
L 216.046871 110.754839 
L 217.576336 110.754839 
L 219.105802 110.754839 
L 220.635267 110.754839 
L 222.164733 110.754839 
L 223.694198 110.754839 
L 225.223664 110.754839 
L 226.753129 110.754839 
L 228.282595 110.754839 
L 229.81206 110.754839 
L 231.341526 110.754839 
L 232.870991 110.754839 
L 234.400457 110.754839 
L 235.929922 110.754839 
L 237.459388 110.754839 
L 238.988853 110.754839 
L 240.518319 110.754839 
L 242.047784 110.754839 
L 243.57725 110.754839 
L 245.106715 110.754839 
L 246.636181 110.754839 
L 248.165646 110.754839 
L 249.695112 110.754839 
L 251.224577 110.754839 
L 252.754043 110.754839 
L 254.283508 110.754839 
L 255.812974 110.754839 
L 257.342439 110.754839 
L 258.871905 110.754839 
L 260.40137 110.754839 
L 261.930836 110.754839 
L 263.460302 110.754839 
L 264.989767 110.754839 
L 266.519233 110.754839 
L 268.048698 110.754839 
L 269.578164 110.754839 
L 271.107629 110.754839 
L 272.637095 110.754839 
L 274.16656 110.754839 
L 275.696026 110.754839 
L 277.225491 110.754839 
L 278.754957 110.754839 
L 280.284422 110.754839 
L 281.813888 110.754839 
L 283.343353 110.754839 
L 284.872819 110.754839 
L 286.402284 110.754839 
L 287.93175 110.754839 
L 289.461215 110.754839 
L 290.990681 110.754839 
L 292.520146 110.754839 
L 294.049612 110.754839 
L 295.579077 110.754839 
L 297.108543 110.754839 
L 298.638008 110.754839 
L 300.167474 110.754839 
L 301.696939 110.754839 
L 303.226405 110.754839 
L 304.75587 110.754839 
L 306.285336 110.754839 
L 307.814801 110.754839 
L 309.344267 110.754839 
L 310.873732 110.754839 
L 312.403198 110.754839 
L 313.932663 110.754839 
L 315.462129 110.754839 
L 316.991594 110.754839 
L 318.52106 110.754839 
L 320.050525 110.754839 
L 321.579991 110.754839 
L 323.109456 110.754839 
L 324.638922 110.754839 
L 326.168387 110.754839 
L 327.697853 110.754839 
L 329.227318 110.754839 
L 330.756784 110.754839 
L 332.286249 110.754839 
L 333.815715 110.754839 
L 335.34518 110.754839 
L 336.874646 110.754839 
L 338.404111 110.754839 
L 339.933577 110.754839 
L 341.463042 110.754839 
L 342.992508 110.754839 
L 344.521974 110.754839 
L 346.051439 110.754839 
L 347.580905 110.754839 
L 349.11037 110.754839 
L 350.639836 110.754839 
L 352.169301 110.754839 
L 353.698767 110.754839 
L 355.228232 110.754839 
L 356.757698 110.754839 
L 358.287163 110.754839 
L 359.816629 110.754839 
L 361.346094 110.754839 
L 362.87556 110.754839 
L 364.405025 110.754839 
L 365.934491 110.754839 
L 367.463956 110.754839 
L 368.993422 110.754839 
L 370.522887 110.754839 
L 372.052353 110.754839 
L 373.581818 110.754839 
L 373.581818 112.312681 
L 373.581818 112.312681 
L 372.052353 112.312681 
L 370.522887 112.312681 
L 368.993422 112.312681 
L 367.463956 112.312681 
L 365.934491 112.312681 
L 364.405025 112.312681 
L 362.87556 112.312681 
L 361.346094 112.312681 
L 359.816629 112.312681 
L 358.287163 112.312681 
L 356.757698 112.312681 
L 355.228232 112.312681 
L 353.698767 112.312681 
L 352.169301 112.312681 
L 350.639836 112.312681 
L 349.11037 112.312681 
L 347.580905 112.312681 
L 346.051439 112.312681 
L 344.521974 112.312681 
L 342.992508 112.312681 
L 341.463042 112.312681 
L 339.933577 112.312681 
L 338.404111 112.312681 
L 336.874646 112.312681 
L 335.34518 112.312681 
L 333.815715 112.312681 
L 332.286249 112.312681 
L 330.756784 112.312681 
L 329.227318 112.312681 
L 327.697853 112.312681 
L 326.168387 112.312681 
L 324.638922 112.312681 
L 323.109456 112.312681 
L 321.579991 112.312681 
L 320.050525 112.312681 
L 318.52106 112.312681 
L 316.991594 112.312681 
L 315.462129 112.312681 
L 313.932663 112.312681 
L 312.403198 112.312681 
L 310.873732 112.312681 
L 309.344267 112.312681 
L 307.814801 112.312681 
L 306.285336 112.312681 
L 304.75587 112.312681 
L 303.226405 112.312681 
L 301.696939 112.312681 
L 300.167474 112.312681 
L 298.638008 112.312681 
L 297.108543 112.312681 
L 295.579077 112.312681 
L 294.049612 112.312681 
L 292.520146 112.312681 
L 290.990681 112.312681 
L 289.461215 112.312681 
L 287.93175 112.312681 
L 286.402284 112.312681 
L 284.872819 112.312681 
L 283.343353 112.312681 
L 281.813888 112.312681 
L 280.284422 112.312681 
L 278.754957 112.312681 
L 277.225491 112.312681 
L 275.696026 112.312681 
L 274.16656 112.312681 
L 272.637095 112.312681 
L 271.107629 112.312681 
L 269.578164 112.312681 
L 268.048698 112.312681 
L 266.519233 112.312681 
L 264.989767 112.312681 
L 263.460302 112.312681 
L 261.930836 112.312681 
L 260.40137 112.312681 
L 258.871905 112.312681 
L 257.342439 112.312681 
L 255.812974 112.312681 
L 254.283508 112.312681 
L 252.754043 112.312681 
L 251.224577 112.312681 
L 249.695112 112.312681 
L 248.165646 112.312681 
L 246.636181 112.312681 
L 245.106715 112.312681 
L 243.57725 112.312681 
L 242.047784 112.312681 
L 240.518319 112.312681 
L 238.988853 112.312681 
L 237.459388 112.312681 
L 235.929922 112.312681 
L 234.400457 112.312681 
L 232.870991 112.312681 
L 231.341526 112.312681 
L 229.81206 112.312681 
L 228.282595 112.312681 
L 226.753129 112.312681 
L 225.223664 112.312681 
L 223.694198 112.312681 
L 222.164733 112.312681 
L 220.635267 112.312681 
L 219.105802 112.312681 
L 217.576336 112.312681 
L 216.046871 112.312681 
L 214.517405 112.312681 
L 212.98794 112.312681 
L 211.458474 112.312681 
L 209.929009 112.312681 
L 208.399543 112.312681 
L 206.870078 112.312681 
L 205.340612 112.312681 
L 203.811147 112.312681 
L 202.281681 112.312681 
L 200.752216 112.312681 
L 199.22275 112.312681 
L 197.693285 112.312681 
L 196.163819 112.312681 
L 194.634354 112.312681 
L 193.104888 112.312681 
L 191.575423 112.312681 
L 190.045957 112.312681 
L 188.516492 112.312681 
L 186.987026 112.312681 
L 185.457561 112.312681 
L 183.928095 112.312681 
L 182.39863 112.312681 
L 180.869164 112.312681 
L 179.339698 112.312681 
L 177.810233 112.312681 
L 176.280767 112.312681 
L 174.751302 112.312681 
L 173.221836 112.312681 
L 171.692371 112.312681 
L 170.162905 112.312681 
L 168.63344 112.312681 
L 167.103974 112.312681 
L 165.574509 112.312681 
L 164.045043 112.312681 
L 162.515578 112.312681 
L 160.986112 112.312681 
L 159.456647 112.312681 
L 157.927181 112.312681 
L 156.397716 112.312681 
L 154.86825 112.312681 
L 153.338785 112.312681 
L 151.809319 112.312681 
L 150.279854 112.312681 
L 148.750388 112.312681 
L 147.220923 112.312681 
L 145.691457 112.312681 
L 144.161992 112.312681 
L 142.632526 112.312681 
L 141.103061 112.312681 
L 139.573595 112.312681 
L 138.04413 112.312681 
L 136.514664 112.312681 
L 134.985199 112.312681 
L 133.455733 112.312681 
L 131.926268 112.312681 
L 130.396802 112.312681 
L 128.867337 112.312681 
L 127.337871 112.312681 
L 125.808406 112.312681 
L 124.27894 112.312681 
L 122.749475 112.312681 
L 121.220009 112.312681 
L 119.690544 112.312681 
L 118.161078 112.312681 
L 116.631613 112.312681 
L 115.102147 112.312681 
L 113.572682 112.312681 
L 112.043216 112.312681 
L 110.513751 112.312681 
L 108.984285 112.312681 
L 107.45482 112.312681 
L 105.925354 112.312681 
L 104.395889 112.312681 
L 102.866423 112.312681 
L 101.336958 112.312681 
L 99.807492 112.312681 
L 98.278026 112.312681 
L 96.748561 112.312681 
L 95.219095 112.312681 
L 93.68963 112.312681 
L 92.160164 112.312681 
L 90.630699 112.312681 
L 89.101233 112.312681 
L 87.571768 112.312681 
L 86.042302 112.312681 
L 84.512837 112.312681 
L 82.983371 112.312681 
L 81.453906 112.312681 
L 79.92444 112.312681 
L 78.394975 112.312681 
L 76.865509 112.312681 
L 75.336044 112.312681 
L 73.806578 112.312681 
L 72.277113 112.312681 
L 70.747647 112.312681 
L 69.218182 112.312681 
z
" clip-path="url(#p6537521cad)" style="fill: #ff7f0e; fill-opacity: 0.5"/>
   </g>
   <g id="matplotlib.axis_1">
    <g id="xtick_1">
     <g id="line2d_1">
      <defs>
       <path id="mcae41c027c" d="M 0 0 
L 0 3.5 
" style="stroke: #000000; stroke-width: 0.8"/>
      </defs>
      <g>
       <use xlink:href="#mcae41c027c" x="69.218182" y="252" style="stroke: #000000; stroke-width: 0.8"/>
      </g>
     </g>
     <g id="text_1">
      <!-- 0 -->
      <g transform="translate(66.036932 266.598437)scale(0.1 -0.1)">
       <defs>
        <path id="DejaVuSans-30" d="M 2034 4250 
Q 1547 4250 1301 3770 
Q 1056 3291 1056 2328 
Q 1056 1369 1301 889 
Q 1547 409 2034 409 
Q 2525 409 2770 889 
Q 3016 1369 3016 2328 
Q 3016 3291 2770 3770 
Q 2525 4250 2034 4250 
z
M 2034 4750 
Q 2819 4750 3233 4129 
Q 3647 3509 3647 2328 
Q 3647 1150 3233 529 
Q 2819 -91 2034 -91 
Q 1250 -91 836 529 
Q 422 1150 422 2328 
Q 422 3509 836 4129 
Q 1250 4750 2034 4750 
z
" transform="scale(0.015625)"/>
       </defs>
       <use xlink:href="#DejaVuSans-30"/>
      </g>
     </g>
    </g>
    <g id="xtick_2">
     <g id="line2d_2">
      <g>
       <use xlink:href="#mcae41c027c" x="107.45482" y="252" style="stroke: #000000; stroke-width: 0.8"/>
      </g>
     </g>
     <g id="text_2">
      <!-- 25 -->
      <g transform="translate(101.09232 266.598437)scale(0.1 -0.1)">
       <defs>
        <path id="DejaVuSans-32" d="M 1228 531 
L 3431 531 
L 3431 0 
L 469 0 
L 469 531 
Q 828 903 1448 1529 
Q 2069 2156 2228 2338 
Q 2531 2678 2651 2914 
Q 2772 3150 2772 3378 
Q 2772 3750 2511 3984 
Q 2250 4219 1831 4219 
Q 1534 4219 1204 4116 
Q 875 4013 500 3803 
L 500 4441 
Q 881 4594 1212 4672 
Q 1544 4750 1819 4750 
Q 2544 4750 2975 4387 
Q 3406 4025 3406 3419 
Q 3406 3131 3298 2873 
Q 3191 2616 2906 2266 
Q 2828 2175 2409 1742 
Q 1991 1309 1228 531 
z
" transform="scale(0.015625)"/>
        <path id="DejaVuSans-35" d="M 691 4666 
L 3169 4666 
L 3169 4134 
L 1269 4134 
L 1269 2991 
Q 1406 3038 1543 3061 
Q 1681 3084 1819 3084 
Q 2600 3084 3056 2656 
Q 3513 2228 3513 1497 
Q 3513 744 3044 326 
Q 2575 -91 1722 -91 
Q 1428 -91 1123 -41 
Q 819 9 494 109 
L 494 744 
Q 775 591 1075 516 
Q 1375 441 1709 441 
Q 2250 441 2565 725 
Q 2881 1009 2881 1497 
Q 2881 1984 2565 2268 
Q 2250 2553 1709 2553 
Q 1456 2553 1204 2497 
Q 953 2441 691 2322 
L 691 4666 
z
" transform="scale(0.015625)"/>
       </defs>
       <use xlink:href="#DejaVuSans-32"/>
       <use xlink:href="#DejaVuSans-35" x="63.623047"/>
      </g>
     </g>
    </g>
    <g id="xtick_3">
     <g id="line2d_3">
      <g>
       <use xlink:href="#mcae41c027c" x="145.691457" y="252" style="stroke: #000000; stroke-width: 0.8"/>
      </g>
     </g>
     <g id="text_3">
      <!-- 50 -->
      <g transform="translate(139.328957 266.598437)scale(0.1 -0.1)">
       <use xlink:href="#DejaVuSans-35"/>
       <use xlink:href="#DejaVuSans-30" x="63.623047"/>
      </g>
     </g>
    </g>
    <g id="xtick_4">
     <g id="line2d_4">
      <g>
       <use xlink:href="#mcae41c027c" x="183.928095" y="252" style="stroke: #000000; stroke-width: 0.8"/>
      </g>
     </g>
     <g id="text_4">
      <!-- 75 -->
      <g transform="translate(177.565595 266.598437)scale(0.1 -0.1)">
       <defs>
        <path id="DejaVuSans-37" d="M 525 4666 
L 3525 4666 
L 3525 4397 
L 1831 0 
L 1172 0 
L 2766 4134 
L 525 4134 
L 525 4666 
z
" transform="scale(0.015625)"/>
       </defs>
       <use xlink:href="#DejaVuSans-37"/>
       <use xlink:href="#DejaVuSans-35" x="63.623047"/>
      </g>
     </g>
    </g>
    <g id="xtick_5">
     <g id="line2d_5">
      <g>
       <use xlink:href="#mcae41c027c" x="222.164733" y="252" style="stroke: #000000; stroke-width: 0.8"/>
      </g>
     </g>
     <g id="text_5">
      <!-- 100 -->
      <g transform="translate(212.620983 266.598437)scale(0.1 -0.1)">
       <defs>
        <path id="DejaVuSans-31" d="M 794 531 
L 1825 531 
L 1825 4091 
L 703 3866 
L 703 4441 
L 1819 4666 
L 2450 4666 
L 2450 531 
L 3481 531 
L 3481 0 
L 794 0 
L 794 531 
z
" transform="scale(0.015625)"/>
       </defs>
       <use xlink:href="#DejaVuSans-31"/>
       <use xlink:href="#DejaVuSans-30" x="63.623047"/>
       <use xlink:href="#DejaVuSans-30" x="127.246094"/>
      </g>
     </g>
    </g>
    <g id="xtick_6">
     <g id="line2d_6">
      <g>
       <use xlink:href="#mcae41c027c" x="260.40137" y="252" style="stroke: #000000; stroke-width: 0.8"/>
      </g>
     </g>
     <g id="text_6">
      <!-- 125 -->
      <g transform="translate(250.85762 266.598437)scale(0.1 -0.1)">
       <use xlink:href="#DejaVuSans-31"/>
       <use xlink:href="#DejaVuSans-32" x="63.623047"/>
       <use xlink:href="#DejaVuSans-35" x="127.246094"/>
      </g>
     </g>
    </g>
    <g id="xtick_7">
     <g id="line2d_7">
      <g>
       <use xlink:href="#mcae41c027c" x="298.638008" y="252" style="stroke: #000000; stroke-width: 0.8"/>
      </g>
     </g>
     <g id="text_7">
      <!-- 150 -->
      <g transform="translate(289.094258 266.598437)scale(0.1 -0.1)">
       <use xlink:href="#DejaVuSans-31"/>
       <use xlink:href="#DejaVuSans-35" x="63.623047"/>
       <use xlink:href="#DejaVuSans-30" x="127.246094"/>
      </g>
     </g>
    </g>
    <g id="xtick_8">
     <g id="line2d_8">
      <g>
       <use xlink:href="#mcae41c027c" x="336.874646" y="252" style="stroke: #000000; stroke-width: 0.8"/>
      </g>
     </g>
     <g id="text_8">
      <!-- 175 -->
      <g transform="translate(327.330896 266.598437)scale(0.1 -0.1)">
       <use xlink:href="#DejaVuSans-31"/>
       <use xlink:href="#DejaVuSans-37" x="63.623047"/>
       <use xlink:href="#DejaVuSans-35" x="127.246094"/>
      </g>
     </g>
    </g>
    <g id="xtick_9">
     <g id="line2d_9">
      <g>
       <use xlink:href="#mcae41c027c" x="375.111284" y="252" style="stroke: #000000; stroke-width: 0.8"/>
      </g>
     </g>
     <g id="text_9">
      <!-- 200 -->
      <g transform="translate(365.567534 266.598437)scale(0.1 -0.1)">
       <use xlink:href="#DejaVuSans-32"/>
       <use xlink:href="#DejaVuSans-30" x="63.623047"/>
       <use xlink:href="#DejaVuSans-30" x="127.246094"/>
      </g>
     </g>
    </g>
    <g id="text_10">
     <!-- Generation -->
     <g transform="translate(193.507031 280.276563)scale(0.1 -0.1)">
      <defs>
       <path id="DejaVuSans-47" d="M 3809 666 
L 3809 1919 
L 2778 1919 
L 2778 2438 
L 4434 2438 
L 4434 434 
Q 4069 175 3628 42 
Q 3188 -91 2688 -91 
Q 1594 -91 976 548 
Q 359 1188 359 2328 
Q 359 3472 976 4111 
Q 1594 4750 2688 4750 
Q 3144 4750 3555 4637 
Q 3966 4525 4313 4306 
L 4313 3634 
Q 3963 3931 3569 4081 
Q 3175 4231 2741 4231 
Q 1884 4231 1454 3753 
Q 1025 3275 1025 2328 
Q 1025 1384 1454 906 
Q 1884 428 2741 428 
Q 3075 428 3337 486 
Q 3600 544 3809 666 
z
" transform="scale(0.015625)"/>
       <path id="DejaVuSans-65" d="M 3597 1894 
L 3597 1613 
L 953 1613 
Q 991 1019 1311 708 
Q 1631 397 2203 397 
Q 2534 397 2845 478 
Q 3156 559 3463 722 
L 3463 178 
Q 3153 47 2828 -22 
Q 2503 -91 2169 -91 
Q 1331 -91 842 396 
Q 353 884 353 1716 
Q 353 2575 817 3079 
Q 1281 3584 2069 3584 
Q 2775 3584 3186 3129 
Q 3597 2675 3597 1894 
z
M 3022 2063 
Q 3016 2534 2758 2815 
Q 2500 3097 2075 3097 
Q 1594 3097 1305 2825 
Q 1016 2553 972 2059 
L 3022 2063 
z
" transform="scale(0.015625)"/>
       <path id="DejaVuSans-6e" d="M 3513 2113 
L 3513 0 
L 2938 0 
L 2938 2094 
Q 2938 2591 2744 2837 
Q 2550 3084 2163 3084 
Q 1697 3084 1428 2787 
Q 1159 2491 1159 1978 
L 1159 0 
L 581 0 
L 581 3500 
L 1159 3500 
L 1159 2956 
Q 1366 3272 1645 3428 
Q 1925 3584 2291 3584 
Q 2894 3584 3203 3211 
Q 3513 2838 3513 2113 
z
" transform="scale(0.015625)"/>
       <path id="DejaVuSans-72" d="M 2631 2963 
Q 2534 3019 2420 3045 
Q 2306 3072 2169 3072 
Q 1681 3072 1420 2755 
Q 1159 2438 1159 1844 
L 1159 0 
L 581 0 
L 581 3500 
L 1159 3500 
L 1159 2956 
Q 1341 3275 1631 3429 
Q 1922 3584 2338 3584 
Q 2397 3584 2469 3576 
Q 2541 3569 2628 3553 
L 2631 2963 
z
" transform="scale(0.015625)"/>
       <path id="DejaVuSans-61" d="M 2194 1759 
Q 1497 1759 1228 1600 
Q 959 1441 959 1056 
Q 959 750 1161 570 
Q 1363 391 1709 391 
Q 2188 391 2477 730 
Q 2766 1069 2766 1631 
L 2766 1759 
L 2194 1759 
z
M 3341 1997 
L 3341 0 
L 2766 0 
L 2766 531 
Q 2569 213 2275 61 
Q 1981 -91 1556 -91 
Q 1019 -91 701 211 
Q 384 513 384 1019 
Q 384 1609 779 1909 
Q 1175 2209 1959 2209 
L 2766 2209 
L 2766 2266 
Q 2766 2663 2505 2880 
Q 2244 3097 1772 3097 
Q 1472 3097 1187 3025 
Q 903 2953 641 2809 
L 641 3341 
Q 956 3463 1253 3523 
Q 1550 3584 1831 3584 
Q 2591 3584 2966 3190 
Q 3341 2797 3341 1997 
z
" transform="scale(0.015625)"/>
       <path id="DejaVuSans-74" d="M 1172 4494 
L 1172 3500 
L 2356 3500 
L 2356 3053 
L 1172 3053 
L 1172 1153 
Q 1172 725 1289 603 
Q 1406 481 1766 481 
L 2356 481 
L 2356 0 
L 1766 0 
Q 1100 0 847 248 
Q 594 497 594 1153 
L 594 3053 
L 172 3053 
L 172 3500 
L 594 3500 
L 594 4494 
L 1172 4494 
z
" transform="scale(0.015625)"/>
       <path id="DejaVuSans-69" d="M 603 3500 
L 1178 3500 
L 1178 0 
L 603 0 
L 603 3500 
z
M 603 4863 
L 1178 4863 
L 1178 4134 
L 603 4134 
L 603 4863 
z
" transform="scale(0.015625)"/>
       <path id="DejaVuSans-6f" d="M 1959 3097 
Q 1497 3097 1228 2736 
Q 959 2375 959 1747 
Q 959 1119 1226 758 
Q 1494 397 1959 397 
Q 2419 397 2687 759 
Q 2956 1122 2956 1747 
Q 2956 2369 2687 2733 
Q 2419 3097 1959 3097 
z
M 1959 3584 
Q 2709 3584 3137 3096 
Q 3566 2609 3566 1747 
Q 3566 888 3137 398 
Q 2709 -91 1959 -91 
Q 1206 -91 779 398 
Q 353 888 353 1747 
Q 353 2609 779 3096 
Q 1206 3584 1959 3584 
z
" transform="scale(0.015625)"/>
      </defs>
      <use xlink:href="#DejaVuSans-47"/>
      <use xlink:href="#DejaVuSans-65" x="77.490234"/>
      <use xlink:href="#DejaVuSans-6e" x="139.013672"/>
      <use xlink:href="#DejaVuSans-65" x="202.392578"/>
      <use xlink:href="#DejaVuSans-72" x="263.916016"/>
      <use xlink:href="#DejaVuSans-61" x="305.029297"/>
      <use xlink:href="#DejaVuSans-74" x="366.308594"/>
      <use xlink:href="#DejaVuSans-69" x="405.517578"/>
      <use xlink:href="#DejaVuSans-6f" x="433.300781"/>
      <use xlink:href="#DejaVuSans-6e" x="494.482422"/>
     </g>
    </g>
   </g>
   <g id="matplotlib.axis_2">
    <g id="ytick_1">
     <g id="line2d_10">
      <defs>
       <path id="me96b77926c" d="M 0 0 
L -3.5 0 
" style="stroke: #000000; stroke-width: 0.8"/>
      </defs>
      <g>
       <use xlink:href="#me96b77926c" x="54" y="230.256" style="stroke: #000000; stroke-width: 0.8"/>
      </g>
     </g>
     <g id="text_11">
      <!-- 5 -->
      <g transform="translate(40.6375 234.055219)scale(0.1 -0.1)">
       <use xlink:href="#DejaVuSans-35"/>
      </g>
     </g>
    </g>
    <g id="ytick_2">
     <g id="line2d_11">
      <g>
       <use xlink:href="#me96b77926c" x="54" y="186.768" style="stroke: #000000; stroke-width: 0.8"/>
      </g>
     </g>
     <g id="text_12">
      <!-- 6 -->
      <g transform="translate(40.6375 190.567219)scale(0.1 -0.1)">
       <defs>
        <path id="DejaVuSans-36" d="M 2113 2584 
Q 1688 2584 1439 2293 
Q 1191 2003 1191 1497 
Q 1191 994 1439 701 
Q 1688 409 2113 409 
Q 2538 409 2786 701 
Q 3034 994 3034 1497 
Q 3034 2003 2786 2293 
Q 2538 2584 2113 2584 
z
M 3366 4563 
L 3366 3988 
Q 3128 4100 2886 4159 
Q 2644 4219 2406 4219 
Q 1781 4219 1451 3797 
Q 1122 3375 1075 2522 
Q 1259 2794 1537 2939 
Q 1816 3084 2150 3084 
Q 2853 3084 3261 2657 
Q 3669 2231 3669 1497 
Q 3669 778 3244 343 
Q 2819 -91 2113 -91 
Q 1303 -91 875 529 
Q 447 1150 447 2328 
Q 447 3434 972 4092 
Q 1497 4750 2381 4750 
Q 2619 4750 2861 4703 
Q 3103 4656 3366 4563 
z
" transform="scale(0.015625)"/>
       </defs>
       <use xlink:href="#DejaVuSans-36"/>
      </g>
     </g>
    </g>
    <g id="ytick_3">
     <g id="line2d_12">
      <g>
       <use xlink:href="#me96b77926c" x="54" y="143.28" style="stroke: #000000; stroke-width: 0.8"/>
      </g>
     </g>
     <g id="text_13">
      <!-- 7 -->
      <g transform="translate(40.6375 147.079219)scale(0.1 -0.1)">
       <use xlink:href="#DejaVuSans-37"/>
      </g>
     </g>
    </g>
    <g id="ytick_4">
     <g id="line2d_13">
      <g>
       <use xlink:href="#me96b77926c" x="54" y="99.792" style="stroke: #000000; stroke-width: 0.8"/>
      </g>
     </g>
     <g id="text_14">
      <!-- 8 -->
      <g transform="translate(40.6375 103.591219)scale(0.1 -0.1)">
       <defs>
        <path id="DejaVuSans-38" d="M 2034 2216 
Q 1584 2216 1326 1975 
Q 1069 1734 1069 1313 
Q 1069 891 1326 650 
Q 1584 409 2034 409 
Q 2484 409 2743 651 
Q 3003 894 3003 1313 
Q 3003 1734 2745 1975 
Q 2488 2216 2034 2216 
z
M 1403 2484 
Q 997 2584 770 2862 
Q 544 3141 544 3541 
Q 544 4100 942 4425 
Q 1341 4750 2034 4750 
Q 2731 4750 3128 4425 
Q 3525 4100 3525 3541 
Q 3525 3141 3298 2862 
Q 3072 2584 2669 2484 
Q 3125 2378 3379 2068 
Q 3634 1759 3634 1313 
Q 3634 634 3220 271 
Q 2806 -91 2034 -91 
Q 1263 -91 848 271 
Q 434 634 434 1313 
Q 434 1759 690 2068 
Q 947 2378 1403 2484 
z
M 1172 3481 
Q 1172 3119 1398 2916 
Q 1625 2713 2034 2713 
Q 2441 2713 2670 2916 
Q 2900 3119 2900 3481 
Q 2900 3844 2670 4047 
Q 2441 4250 2034 4250 
Q 1625 4250 1398 4047 
Q 1172 3844 1172 3481 
z
" transform="scale(0.015625)"/>
       </defs>
       <use xlink:href="#DejaVuSans-38"/>
      </g>
     </g>
    </g>
    <g id="ytick_5">
     <g id="line2d_14">
      <g>
       <use xlink:href="#me96b77926c" x="54" y="56.304" style="stroke: #000000; stroke-width: 0.8"/>
      </g>
     </g>
     <g id="text_15">
      <!-- 9 -->
      <g transform="translate(40.6375 60.103219)scale(0.1 -0.1)">
       <defs>
        <path id="DejaVuSans-39" d="M 703 97 
L 703 672 
Q 941 559 1184 500 
Q 1428 441 1663 441 
Q 2288 441 2617 861 
Q 2947 1281 2994 2138 
Q 2813 1869 2534 1725 
Q 2256 1581 1919 1581 
Q 1219 1581 811 2004 
Q 403 2428 403 3163 
Q 403 3881 828 4315 
Q 1253 4750 1959 4750 
Q 2769 4750 3195 4129 
Q 3622 3509 3622 2328 
Q 3622 1225 3098 567 
Q 2575 -91 1691 -91 
Q 1453 -91 1209 -44 
Q 966 3 703 97 
z
M 1959 2075 
Q 2384 2075 2632 2365 
Q 2881 2656 2881 3163 
Q 2881 3666 2632 3958 
Q 2384 4250 1959 4250 
Q 1534 4250 1286 3958 
Q 1038 3666 1038 3163 
Q 1038 2656 1286 2365 
Q 1534 2075 1959 2075 
z
" transform="scale(0.015625)"/>
       </defs>
       <use xlink:href="#DejaVuSans-39"/>
      </g>
     </g>
    </g>
    <g id="text_16">
     <!-- Best Fitness -->
     <g transform="translate(34.557812 173.258125)rotate(-90)scale(0.1 -0.1)">
      <defs>
       <path id="DejaVuSans-42" d="M 1259 2228 
L 1259 519 
L 2272 519 
Q 2781 519 3026 730 
Q 3272 941 3272 1375 
Q 3272 1813 3026 2020 
Q 2781 2228 2272 2228 
L 1259 2228 
z
M 1259 4147 
L 1259 2741 
L 2194 2741 
Q 2656 2741 2882 2914 
Q 3109 3088 3109 3444 
Q 3109 3797 2882 3972 
Q 2656 4147 2194 4147 
L 1259 4147 
z
M 628 4666 
L 2241 4666 
Q 2963 4666 3353 4366 
Q 3744 4066 3744 3513 
Q 3744 3084 3544 2831 
Q 3344 2578 2956 2516 
Q 3422 2416 3680 2098 
Q 3938 1781 3938 1306 
Q 3938 681 3513 340 
Q 3088 0 2303 0 
L 628 0 
L 628 4666 
z
" transform="scale(0.015625)"/>
       <path id="DejaVuSans-73" d="M 2834 3397 
L 2834 2853 
Q 2591 2978 2328 3040 
Q 2066 3103 1784 3103 
Q 1356 3103 1142 2972 
Q 928 2841 928 2578 
Q 928 2378 1081 2264 
Q 1234 2150 1697 2047 
L 1894 2003 
Q 2506 1872 2764 1633 
Q 3022 1394 3022 966 
Q 3022 478 2636 193 
Q 2250 -91 1575 -91 
Q 1294 -91 989 -36 
Q 684 19 347 128 
L 347 722 
Q 666 556 975 473 
Q 1284 391 1588 391 
Q 1994 391 2212 530 
Q 2431 669 2431 922 
Q 2431 1156 2273 1281 
Q 2116 1406 1581 1522 
L 1381 1569 
Q 847 1681 609 1914 
Q 372 2147 372 2553 
Q 372 3047 722 3315 
Q 1072 3584 1716 3584 
Q 2034 3584 2315 3537 
Q 2597 3491 2834 3397 
z
" transform="scale(0.015625)"/>
       <path id="DejaVuSans-20" transform="scale(0.015625)"/>
       <path id="DejaVuSans-46" d="M 628 4666 
L 3309 4666 
L 3309 4134 
L 1259 4134 
L 1259 2759 
L 3109 2759 
L 3109 2228 
L 1259 2228 
L 1259 0 
L 628 0 
L 628 4666 
z
" transform="scale(0.015625)"/>
      </defs>
      <use xlink:href="#DejaVuSans-42"/>
      <use xlink:href="#DejaVuSans-65" x="68.603516"/>
      <use xlink:href="#DejaVuSans-73" x="130.126953"/>
      <use xlink:href="#DejaVuSans-74" x="182.226562"/>
      <use xlink:href="#DejaVuSans-20" x="221.435547"/>
      <use xlink:href="#DejaVuSans-46" x="253.222656"/>
      <use xlink:href="#DejaVuSans-69" x="303.492188"/>
      <use xlink:href="#DejaVuSans-74" x="331.275391"/>
      <use xlink:href="#DejaVuSans-6e" x="370.484375"/>
      <use xlink:href="#DejaVuSans-65" x="433.863281"/>
      <use xlink:href="#DejaVuSans-73" x="495.386719"/>
      <use xlink:href="#DejaVuSans-73" x="547.486328"/>
     </g>
    </g>
   </g>
   <g id="line2d_15">
    <path d="M 69.218182 95.562792 
L 70.747647 96.269472 
L 72.277113 94.975704 
L 73.806578 94.921344 
L 75.336044 91.9098 
L 76.865509 90.018072 
L 78.394975 89.604936 
L 79.92444 86.865192 
L 81.453906 86.082408 
L 82.983371 82.266336 
L 84.512837 82.157616 
L 86.042302 80.787744 
L 87.571768 81.113904 
L 89.101233 80.581176 
L 90.630699 82.527264 
L 92.160164 81.79884 
L 93.68963 81.90756 
L 95.219095 80.461584 
L 96.748561 81.374832 
L 98.278026 80.265888 
L 99.807492 80.472456 
L 101.336958 79.831008 
L 102.866423 78.624216 
L 105.925354 77.297832 
L 107.45482 77.950152 
L 108.984285 76.928184 
L 110.513751 75.43872 
L 112.043216 76.395456 
L 113.572682 76.558536 
L 115.102147 74.808144 
L 116.631613 76.699872 
L 118.161078 75.373488 
L 119.690544 74.819016 
L 121.220009 75.667032 
L 122.749475 74.112336 
L 124.27894 76.732488 
L 125.808406 75.014712 
L 127.337871 74.036232 
L 128.867337 71.916192 
L 130.396802 71.883576 
L 131.926268 69.176448 
L 133.455733 70.1658 
L 134.985199 69.100344 
L 136.514664 67.317336 
L 138.04413 67.480416 
L 139.573595 68.524128 
L 141.103061 67.980528 
L 142.632526 68.632848 
L 144.161992 66.501936 
L 145.691457 66.784608 
L 147.220923 67.480416 
L 150.279854 68.415408 
L 151.809319 66.099672 
L 153.338785 68.37192 
L 154.86825 66.41496 
L 156.397716 67.686984 
L 157.927181 67.545648 
L 159.456647 66.512808 
L 160.986112 67.197744 
L 162.515578 67.458672 
L 164.045043 66.295368 
L 165.574509 65.947464 
L 167.103974 65.229912 
L 168.63344 66.045312 
L 170.162905 65.795256 
L 171.692371 67.01292 
L 173.221836 64.07748 
L 174.751302 66.132288 
L 176.280767 65.21904 
L 177.810233 66.295368 
L 179.339698 66.3606 
L 180.869164 66.556296 
L 182.39863 68.284944 
L 183.928095 65.914848 
L 185.457561 66.327984 
L 186.987026 67.186872 
L 188.516492 66.447576 
L 190.045957 64.40364 
L 191.575423 66.6324 
L 193.104888 66.46932 
L 194.634354 65.76264 
L 196.163819 64.686312 
L 197.693285 63.979632 
L 199.22275 64.686312 
L 200.752216 66.186648 
L 202.281681 63.827424 
L 203.811147 63.936144 
L 205.340612 66.03444 
L 206.870078 62.93592 
L 208.399543 62.66412 
L 209.929009 63.849168 
L 211.458474 64.360152 
L 212.98794 64.229688 
L 214.517405 64.51236 
L 216.046871 63.58824 
L 217.576336 63.512136 
L 219.105802 64.544976 
L 220.635267 63.707832 
L 222.164733 64.142712 
L 223.694198 63.599112 
L 225.223664 65.197296 
L 226.753129 63.403416 
L 228.282595 63.9144 
L 229.81206 63.359928 
L 231.341526 63.686088 
L 232.870991 61.750872 
L 234.400457 62.566272 
L 235.929922 64.34928 
L 237.459388 63.403416 
L 238.988853 65.697408 
L 240.518319 65.806128 
L 242.047784 64.795032 
L 243.57725 65.76264 
L 245.106715 64.534104 
L 246.636181 61.826976 
L 248.165646 65.903976 
L 249.695112 65.066832 
L 251.224577 63.283824 
L 252.754043 65.914848 
L 254.283508 66.382344 
L 255.812974 64.033992 
L 257.342439 65.686536 
L 260.40137 62.620632 
L 261.930836 65.240784 
L 263.460302 65.784384 
L 264.989767 63.762192 
L 266.519233 63.566496 
L 268.048698 65.262528 
L 269.578164 65.0016 
L 271.107629 65.316888 
L 272.637095 62.903304 
L 277.225491 63.512136 
L 278.754957 65.316888 
L 280.284422 63.523008 
L 281.813888 63.544752 
L 283.343353 62.685864 
L 284.872819 63.631728 
L 286.402284 63.544752 
L 287.93175 64.479744 
L 289.461215 61.772616 
L 290.990681 63.109872 
L 294.049612 58.597992 
L 295.579077 60.565824 
L 297.108543 60.065712 
L 298.638008 59.13072 
L 300.167474 56.978064 
L 301.696939 56.967192 
L 303.226405 57.586896 
L 304.75587 58.04352 
L 306.285336 56.390976 
L 307.814801 56.336616 
L 309.344267 55.81476 
L 310.873732 56.35836 
L 312.403198 55.564704 
L 313.932663 56.456208 
L 315.462129 56.08656 
L 316.991594 57.978288 
L 318.52106 55.65168 
L 320.050525 56.293128 
L 321.579991 55.771272 
L 323.109456 56.445336 
L 324.638922 56.619288 
L 326.168387 54.83628 
L 327.697853 56.053944 
L 329.227318 56.173536 
L 330.756784 55.336392 
L 332.286249 55.695168 
L 333.815715 53.825184 
L 335.34518 55.086336 
L 338.404111 54.934128 
L 339.933577 55.075464 
L 341.463042 55.347264 
L 342.992508 57.315096 
L 344.521974 55.412496 
L 346.051439 56.260512 
L 347.580905 53.172864 
L 349.11037 54.390528 
L 350.639836 55.2168 
L 352.169301 54.4014 
L 353.698767 54.716688 
L 355.228232 56.597544 
L 356.757698 55.619064 
L 358.287163 55.118952 
L 359.816629 55.140696 
L 361.346094 55.662552 
L 362.87556 55.586448 
L 364.405025 56.0322 
L 365.934491 55.749528 
L 367.463956 55.336392 
L 368.993422 56.597544 
L 370.522887 54.368784 
L 372.052353 55.86912 
L 373.581818 53.651232 
L 373.581818 53.651232 
" clip-path="url(#p6537521cad)" style="fill: none; stroke: #1f77b4; stroke-width: 1.5; stroke-linecap: square"/>
   </g>
   <g id="line2d_16">
    <path d="M 69.218182 111.53376 
L 373.581818 111.53376 
L 373.581818 111.53376 
" clip-path="url(#p6537521cad)" style="fill: none; stroke-dasharray: 5.55,2.4; stroke-dashoffset: 0; stroke: #ff7f0e; stroke-width: 1.5"/>
   </g>
   <g id="patch_3">
    <path d="M 54 252 
L 54 34.56 
" style="fill: none; stroke: #000000; stroke-width: 0.8; stroke-linejoin: miter; stroke-linecap: square"/>
   </g>
   <g id="patch_4">
    <path d="M 388.8 252 
L 388.8 34.56 
" style="fill: none; stroke: #000000; stroke-width: 0.8; stroke-linejoin: miter; stroke-linecap: square"/>
   </g>
   <g id="patch_5">
    <path d="M 54 252 
L 388.8 252 
" style="fill: none; stroke: #000000; stroke-width: 0.8; stroke-linejoin: miter; stroke-linecap: square"/>
   </g>
   <g id="patch_6">
    <path d="M 54 34.56 
L 388.8 34.56 
" style="fill: none; stroke: #000000; stroke-width: 0.8; stroke-linejoin: miter; stroke-linecap: square"/>
   </g>
   <g id="text_17">
    <!-- Random -->
    <g transform="translate(196.561875 28.56)scale(0.12 -0.12)">
     <defs>
      <path id="DejaVuSans-52" d="M 2841 2188 
Q 3044 2119 3236 1894 
Q 3428 1669 3622 1275 
L 4263 0 
L 3584 0 
L 2988 1197 
Q 2756 1666 2539 1819 
Q 2322 1972 1947 1972 
L 1259 1972 
L 1259 0 
L 628 0 
L 628 4666 
L 2053 4666 
Q 2853 4666 3247 4331 
Q 3641 3997 3641 3322 
Q 3641 2881 3436 2590 
Q 3231 2300 2841 2188 
z
M 1259 4147 
L 1259 2491 
L 2053 2491 
Q 2509 2491 2742 2702 
Q 2975 2913 2975 3322 
Q 2975 3731 2742 3939 
Q 2509 4147 2053 4147 
L 1259 4147 
z
" transform="scale(0.015625)"/>
      <path id="DejaVuSans-64" d="M 2906 2969 
L 2906 4863 
L 3481 4863 
L 3481 0 
L 2906 0 
L 2906 525 
Q 2725 213 2448 61 
Q 2172 -91 1784 -91 
Q 1150 -91 751 415 
Q 353 922 353 1747 
Q 353 2572 751 3078 
Q 1150 3584 1784 3584 
Q 2172 3584 2448 3432 
Q 2725 3281 2906 2969 
z
M 947 1747 
Q 947 1113 1208 752 
Q 1469 391 1925 391 
Q 2381 391 2643 752 
Q 2906 1113 2906 1747 
Q 2906 2381 2643 2742 
Q 2381 3103 1925 3103 
Q 1469 3103 1208 2742 
Q 947 2381 947 1747 
z
" transform="scale(0.015625)"/>
      <path id="DejaVuSans-6d" d="M 3328 2828 
Q 3544 3216 3844 3400 
Q 4144 3584 4550 3584 
Q 5097 3584 5394 3201 
Q 5691 2819 5691 2113 
L 5691 0 
L 5113 0 
L 5113 2094 
Q 5113 2597 4934 2840 
Q 4756 3084 4391 3084 
Q 3944 3084 3684 2787 
Q 3425 2491 3425 1978 
L 3425 0 
L 2847 0 
L 2847 2094 
Q 2847 2600 2669 2842 
Q 2491 3084 2119 3084 
Q 1678 3084 1418 2786 
Q 1159 2488 1159 1978 
L 1159 0 
L 581 0 
L 581 3500 
L 1159 3500 
L 1159 2956 
Q 1356 3278 1631 3431 
Q 1906 3584 2284 3584 
Q 2666 3584 2933 3390 
Q 3200 3197 3328 2828 
z
" transform="scale(0.015625)"/>
     </defs>
     <use xlink:href="#DejaVuSans-52"/>
     <use xlink:href="#DejaVuSans-61" x="67.232422"/>
     <use xlink:href="#DejaVuSans-6e" x="128.511719"/>
     <use xlink:href="#DejaVuSans-64" x="191.890625"/>
     <use xlink:href="#DejaVuSans-6f" x="255.367188"/>
     <use xlink:href="#DejaVuSans-6d" x="316.548828"/>
    </g>
   </g>
   <g id="legend_1">
    <g id="patch_7">
     <path d="M 221.0125 247 
L 381.8 247 
Q 383.8 247 383.8 245 
L 383.8 216.64375 
Q 383.8 214.64375 381.8 214.64375 
L 221.0125 214.64375 
Q 219.0125 214.64375 219.0125 216.64375 
L 219.0125 245 
Q 219.0125 247 221.0125 247 
z
" style="fill: #ffffff; opacity: 0.8; stroke: #cccccc; stroke-linejoin: miter"/>
    </g>
    <g id="line2d_17">
     <path d="M 223.0125 222.742188 
L 233.0125 222.742188 
L 243.0125 222.742188 
" style="fill: none; stroke: #1f77b4; stroke-width: 1.5; stroke-linecap: square"/>
    </g>
    <g id="text_18">
     <!-- training on random graph -->
     <g transform="translate(251.0125 226.242188)scale(0.1 -0.1)">
      <defs>
       <path id="DejaVuSans-67" d="M 2906 1791 
Q 2906 2416 2648 2759 
Q 2391 3103 1925 3103 
Q 1463 3103 1205 2759 
Q 947 2416 947 1791 
Q 947 1169 1205 825 
Q 1463 481 1925 481 
Q 2391 481 2648 825 
Q 2906 1169 2906 1791 
z
M 3481 434 
Q 3481 -459 3084 -895 
Q 2688 -1331 1869 -1331 
Q 1566 -1331 1297 -1286 
Q 1028 -1241 775 -1147 
L 775 -588 
Q 1028 -725 1275 -790 
Q 1522 -856 1778 -856 
Q 2344 -856 2625 -561 
Q 2906 -266 2906 331 
L 2906 616 
Q 2728 306 2450 153 
Q 2172 0 1784 0 
Q 1141 0 747 490 
Q 353 981 353 1791 
Q 353 2603 747 3093 
Q 1141 3584 1784 3584 
Q 2172 3584 2450 3431 
Q 2728 3278 2906 2969 
L 2906 3500 
L 3481 3500 
L 3481 434 
z
" transform="scale(0.015625)"/>
       <path id="DejaVuSans-70" d="M 1159 525 
L 1159 -1331 
L 581 -1331 
L 581 3500 
L 1159 3500 
L 1159 2969 
Q 1341 3281 1617 3432 
Q 1894 3584 2278 3584 
Q 2916 3584 3314 3078 
Q 3713 2572 3713 1747 
Q 3713 922 3314 415 
Q 2916 -91 2278 -91 
Q 1894 -91 1617 61 
Q 1341 213 1159 525 
z
M 3116 1747 
Q 3116 2381 2855 2742 
Q 2594 3103 2138 3103 
Q 1681 3103 1420 2742 
Q 1159 2381 1159 1747 
Q 1159 1113 1420 752 
Q 1681 391 2138 391 
Q 2594 391 2855 752 
Q 3116 1113 3116 1747 
z
" transform="scale(0.015625)"/>
       <path id="DejaVuSans-68" d="M 3513 2113 
L 3513 0 
L 2938 0 
L 2938 2094 
Q 2938 2591 2744 2837 
Q 2550 3084 2163 3084 
Q 1697 3084 1428 2787 
Q 1159 2491 1159 1978 
L 1159 0 
L 581 0 
L 581 4863 
L 1159 4863 
L 1159 2956 
Q 1366 3272 1645 3428 
Q 1925 3584 2291 3584 
Q 2894 3584 3203 3211 
Q 3513 2838 3513 2113 
z
" transform="scale(0.015625)"/>
      </defs>
      <use xlink:href="#DejaVuSans-74"/>
      <use xlink:href="#DejaVuSans-72" x="39.208984"/>
      <use xlink:href="#DejaVuSans-61" x="80.322266"/>
      <use xlink:href="#DejaVuSans-69" x="141.601562"/>
      <use xlink:href="#DejaVuSans-6e" x="169.384766"/>
      <use xlink:href="#DejaVuSans-69" x="232.763672"/>
      <use xlink:href="#DejaVuSans-6e" x="260.546875"/>
      <use xlink:href="#DejaVuSans-67" x="323.925781"/>
      <use xlink:href="#DejaVuSans-20" x="387.402344"/>
      <use xlink:href="#DejaVuSans-6f" x="419.189453"/>
      <use xlink:href="#DejaVuSans-6e" x="480.371094"/>
      <use xlink:href="#DejaVuSans-20" x="543.75"/>
      <use xlink:href="#DejaVuSans-72" x="575.537109"/>
      <use xlink:href="#DejaVuSans-61" x="616.650391"/>
      <use xlink:href="#DejaVuSans-6e" x="677.929688"/>
      <use xlink:href="#DejaVuSans-64" x="741.308594"/>
      <use xlink:href="#DejaVuSans-6f" x="804.785156"/>
      <use xlink:href="#DejaVuSans-6d" x="865.966797"/>
      <use xlink:href="#DejaVuSans-20" x="963.378906"/>
      <use xlink:href="#DejaVuSans-67" x="995.166016"/>
      <use xlink:href="#DejaVuSans-72" x="1058.642578"/>
      <use xlink:href="#DejaVuSans-61" x="1099.755859"/>
      <use xlink:href="#DejaVuSans-70" x="1161.035156"/>
      <use xlink:href="#DejaVuSans-68" x="1224.511719"/>
     </g>
    </g>
    <g id="line2d_18">
     <path d="M 223.0125 237.420312 
L 233.0125 237.420312 
L 243.0125 237.420312 
" style="fill: none; stroke-dasharray: 5.55,2.4; stroke-dashoffset: 0; stroke: #ff7f0e; stroke-width: 1.5"/>
    </g>
    <g id="text_19">
     <!-- transfer learning -->
     <g transform="translate(251.0125 240.920312)scale(0.1 -0.1)">
      <defs>
       <path id="DejaVuSans-66" d="M 2375 4863 
L 2375 4384 
L 1825 4384 
Q 1516 4384 1395 4259 
Q 1275 4134 1275 3809 
L 1275 3500 
L 2222 3500 
L 2222 3053 
L 1275 3053 
L 1275 0 
L 697 0 
L 697 3053 
L 147 3053 
L 147 3500 
L 697 3500 
L 697 3744 
Q 697 4328 969 4595 
Q 1241 4863 1831 4863 
L 2375 4863 
z
" transform="scale(0.015625)"/>
       <path id="DejaVuSans-6c" d="M 603 4863 
L 1178 4863 
L 1178 0 
L 603 0 
L 603 4863 
z
" transform="scale(0.015625)"/>
      </defs>
      <use xlink:href="#DejaVuSans-74"/>
      <use xlink:href="#DejaVuSans-72" x="39.208984"/>
      <use xlink:href="#DejaVuSans-61" x="80.322266"/>
      <use xlink:href="#DejaVuSans-6e" x="141.601562"/>
      <use xlink:href="#DejaVuSans-73" x="204.980469"/>
      <use xlink:href="#DejaVuSans-66" x="257.080078"/>
      <use xlink:href="#DejaVuSans-65" x="292.285156"/>
      <use xlink:href="#DejaVuSans-72" x="353.808594"/>
      <use xlink:href="#DejaVuSans-20" x="394.921875"/>
      <use xlink:href="#DejaVuSans-6c" x="426.708984"/>
      <use xlink:href="#DejaVuSans-65" x="454.492188"/>
      <use xlink:href="#DejaVuSans-61" x="516.015625"/>
      <use xlink:href="#DejaVuSans-72" x="577.294922"/>
      <use xlink:href="#DejaVuSans-6e" x="616.658203"/>
      <use xlink:href="#DejaVuSans-69" x="680.037109"/>
      <use xlink:href="#DejaVuSans-6e" x="707.820312"/>
      <use xlink:href="#DejaVuSans-67" x="771.199219"/>
     </g>
    </g>
   </g>
  </g>
 </g>
 <defs>
  <clipPath id="p6537521cad">
   <rect x="54" y="34.56" width="334.8" height="217.44"/>
  </clipPath>
 </defs>
</svg>
