<?xml version="1.0" encoding="utf-8" standalone="no"?>
<!DOCTYPE svg PUBLIC "-//W3C//DTD SVG 1.1//EN"
  "http://www.w3.org/Graphics/SVG/1.1/DTD/svg11.dtd">
<svg xmlns:xlink="http://www.w3.org/1999/xlink" width="432pt" height="288pt" viewBox="0 0 432 288" xmlns="http://www.w3.org/2000/svg" version="1.1">
 <metadata>
  <rdf:RDF xmlns:dc="http://purl.org/dc/elements/1.1/" xmlns:cc="http://creativecommons.org/ns#" xmlns:rdf="http://www.w3.org/1999/02/22-rdf-syntax-ns#">
   <cc:Work>
    <dc:type rdf:resource="http://purl.org/dc/dcmitype/StillImage"/>
    <dc:date>2023-05-22T22:42:18.399513</dc:date>
    <dc:format>image/svg+xml</dc:format>
    <dc:creator>
     <cc:Agent>
      <dc:title>Matplotlib v3.5.2, https://matplotlib.org/</dc:title>
     </cc:Agent>
    </dc:creator>
   </cc:Work>
  </rdf:RDF>
 </metadata>
 <defs>
  <style type="text/css">*{stroke-linejoin: round; stroke-linecap: butt}</style>
 </defs>
 <g id="figure_1">
  <g id="patch_1">
   <path d="M 0 288 
L 432 288 
L 432 0 
L 0 0 
L 0 288 
z
" style="fill: none"/>
  </g>
  <g id="axes_1">
   <g id="patch_2">
    <path d="M 54 252 
L 388.8 252 
L 388.8 34.56 
L 54 34.56 
z
" style="fill: #ffffff"/>
   </g>
   <g id="PolyCollection_1">
    <path d="M 69.218182 174.922488 
L 69.218182 166.722312 
L 79.71348 174.922497 
L 90.208777 165.897438 
L 100.704075 153.376712 
L 111.199373 150.265797 
L 121.694671 165.441094 
L 132.189969 160.868954 
L 142.685266 149.761879 
L 153.180564 158.011244 
L 163.675862 151.889371 
L 174.17116 142.825603 
L 184.666458 134.348354 
L 195.161755 150.482988 
L 205.657053 147.485261 
L 216.152351 129.236251 
L 226.647649 142.36077 
L 237.142947 125.888966 
L 247.638245 104.433679 
L 258.133542 138.65792 
L 268.62884 91.748243 
L 279.124138 116.015675 
L 289.619436 94.170779 
L 300.114734 100.173748 
L 310.610031 115.773885 
L 321.105329 92.507805 
L 331.600627 114.966509 
L 342.095925 99.548542 
L 352.591223 91.504138 
L 363.08652 114.762449 
L 373.581818 105.847107 
L 373.581818 136.741693 
L 373.581818 136.741693 
L 363.08652 148.120751 
L 352.591223 133.689462 
L 342.095925 130.960258 
L 331.600627 127.622291 
L 321.105329 121.572195 
L 310.610031 144.693315 
L 300.114734 149.179852 
L 289.619436 144.069221 
L 279.124138 146.384325 
L 268.62884 141.176557 
L 258.133542 147.90208 
L 247.638245 132.839921 
L 237.142947 167.919034 
L 226.647649 170.77523 
L 216.152351 166.987749 
L 205.657053 162.268339 
L 195.161755 182.947412 
L 184.666458 149.795646 
L 174.17116 163.062397 
L 163.675862 173.809829 
L 153.180564 176.385556 
L 142.685266 185.118121 
L 132.189969 165.796646 
L 121.694671 169.922106 
L 111.199373 170.118203 
L 100.704075 168.456888 
L 90.208777 174.780962 
L 79.71348 191.365503 
L 69.218182 174.922488 
z
" clip-path="url(#p235b01aff8)" style="fill: #1f77b4; fill-opacity: 0.5"/>
   </g>
   <g id="PolyCollection_2">
    <path d="M 69.218182 243.105812 
L 69.218182 210.641388 
L 79.71348 221.637323 
L 90.208777 220.924919 
L 100.704075 204.922573 
L 111.199373 213.913763 
L 121.694671 216.606405 
L 132.189969 215.713709 
L 142.685266 203.472104 
L 153.180564 202.554904 
L 163.675862 204.587778 
L 174.17116 196.831144 
L 184.666458 185.88867 
L 195.161755 189.696389 
L 205.657053 184.009756 
L 216.152351 186.75083 
L 226.647649 199.640437 
L 237.142947 201.24389 
L 247.638245 170.084753 
L 258.133542 171.688156 
L 268.62884 158.514503 
L 279.124138 169.358074 
L 289.619436 177.000625 
L 300.114734 168.80309 
L 310.610031 174.71868 
L 321.105329 188.004803 
L 331.600627 193.758091 
L 342.095925 186.439589 
L 352.591223 191.520555 
L 363.08652 184.084678 
L 373.581818 168.731755 
L 373.581818 225.098645 
L 373.581818 225.098645 
L 363.08652 213.611322 
L 352.591223 197.477845 
L 342.095925 204.008411 
L 331.600627 211.669109 
L 321.105329 208.241597 
L 310.610031 207.03172 
L 300.114734 210.04811 
L 289.619436 191.220175 
L 279.124138 209.009926 
L 268.62884 205.357497 
L 258.133542 189.767844 
L 247.638245 215.531247 
L 237.142947 218.67931 
L 226.647649 208.202763 
L 216.152351 190.16757 
L 205.657053 202.089444 
L 195.161755 217.663611 
L 184.666458 216.63933 
L 174.17116 222.608856 
L 163.675862 206.637822 
L 153.180564 205.288296 
L 142.685266 232.879896 
L 132.189969 228.369491 
L 121.694671 234.724795 
L 111.199373 240.799837 
L 100.704075 225.147827 
L 90.208777 232.339081 
L 79.71348 229.693877 
L 69.218182 243.105812 
z
" clip-path="url(#p235b01aff8)" style="fill: #ff7f0e; fill-opacity: 0.5"/>
   </g>
   <g id="PolyCollection_3">
    <path d="M 69.218182 197.361574 
L 69.218182 175.208026 
L 79.71348 131.761661 
L 90.208777 129.131428 
L 100.704075 135.899574 
L 111.199373 122.432784 
L 121.694671 136.319218 
L 132.189969 122.445038 
L 142.685266 144.035034 
L 153.180564 126.065433 
L 163.675862 133.99706 
L 174.17116 139.642585 
L 184.666458 124.516493 
L 195.161755 139.665299 
L 205.657053 137.475247 
L 216.152351 125.504661 
L 226.647649 141.50461 
L 237.142947 135.428784 
L 247.638245 128.388215 
L 258.133542 120.978507 
L 268.62884 108.993952 
L 279.124138 136.613261 
L 289.619436 134.880819 
L 300.114734 119.596844 
L 310.610031 97.091044 
L 321.105329 95.379582 
L 331.600627 134.278811 
L 342.095925 124.18394 
L 352.591223 104.341194 
L 363.08652 101.196588 
L 373.581818 111.773716 
L 373.581818 148.693484 
L 373.581818 148.693484 
L 363.08652 133.661012 
L 352.591223 144.046006 
L 342.095925 148.36326 
L 331.600627 150.348389 
L 321.105329 148.658818 
L 310.610031 146.947356 
L 300.114734 137.971156 
L 289.619436 142.015181 
L 279.124138 151.396339 
L 268.62884 147.607648 
L 258.133542 143.837493 
L 247.638245 134.978185 
L 237.142947 154.030416 
L 226.647649 145.05539 
L 216.152351 137.861739 
L 205.657053 146.668753 
L 195.161755 152.209901 
L 184.666458 133.051507 
L 174.17116 165.762215 
L 163.675862 153.52934 
L 153.180564 171.124967 
L 142.685266 171.033766 
L 132.189969 142.854162 
L 121.694671 165.703182 
L 111.199373 156.879216 
L 100.704075 174.820426 
L 90.208777 159.361372 
L 79.71348 175.575939 
L 69.218182 197.361574 
z
" clip-path="url(#p235b01aff8)" style="fill: #2ca02c; fill-opacity: 0.5"/>
   </g>
   <g id="PolyCollection_4">
    <path d="M 69.218182 207.649548 
L 69.218182 192.945652 
L 79.71348 203.27534 
L 90.208777 204.834964 
L 100.704075 222.390386 
L 111.199373 199.043252 
L 121.694671 206.12644 
L 132.189969 193.496343 
L 142.685266 193.329251 
L 153.180564 197.194643 
L 163.675862 190.851059 
L 174.17116 203.933695 
L 184.666458 188.616744 
L 195.161755 196.339038 
L 205.657053 204.254519 
L 216.152351 193.153264 
L 226.647649 187.694678 
L 237.142947 176.10242 
L 247.638245 184.897616 
L 258.133542 199.029816 
L 268.62884 192.511772 
L 279.124138 180.98473 
L 289.619436 187.604978 
L 300.114734 165.799206 
L 310.610031 186.648833 
L 321.105329 162.004292 
L 331.600627 162.509144 
L 342.095925 187.438172 
L 352.591223 148.039198 
L 363.08652 159.839472 
L 373.581818 156.457173 
L 373.581818 181.322027 
L 373.581818 181.322027 
L 363.08652 196.784528 
L 352.591223 204.236002 
L 342.095925 198.177828 
L 331.600627 205.711656 
L 321.105329 212.014908 
L 310.610031 195.584767 
L 300.114734 200.488794 
L 289.619436 199.460622 
L 279.124138 188.68567 
L 268.62884 203.251428 
L 258.133542 204.947784 
L 247.638245 186.705584 
L 237.142947 199.36638 
L 226.647649 190.673322 
L 216.152351 212.757136 
L 205.657053 215.668681 
L 195.161755 205.222562 
L 184.666458 214.394456 
L 174.17116 213.573505 
L 163.675862 222.307341 
L 153.180564 212.581357 
L 142.685266 210.165149 
L 132.189969 214.346857 
L 121.694671 209.93116 
L 111.199373 217.980748 
L 100.704075 229.907214 
L 90.208777 229.101036 
L 79.71348 219.54706 
L 69.218182 207.649548 
z
" clip-path="url(#p235b01aff8)" style="fill: #d62728; fill-opacity: 0.5"/>
   </g>
   <g id="matplotlib.axis_1">
    <g id="xtick_1">
     <g id="line2d_1">
      <defs>
       <path id="mf74085dd70" d="M 0 0 
L 0 3.5 
" style="stroke: #000000; stroke-width: 0.8"/>
      </defs>
      <g>
       <use xlink:href="#mf74085dd70" x="69.218182" y="252" style="stroke: #000000; stroke-width: 0.8"/>
      </g>
     </g>
     <g id="text_1">
      <!-- 0 -->
      <g transform="translate(66.036932 266.598437)scale(0.1 -0.1)">
       <defs>
        <path id="DejaVuSans-30" d="M 2034 4250 
Q 1547 4250 1301 3770 
Q 1056 3291 1056 2328 
Q 1056 1369 1301 889 
Q 1547 409 2034 409 
Q 2525 409 2770 889 
Q 3016 1369 3016 2328 
Q 3016 3291 2770 3770 
Q 2525 4250 2034 4250 
z
M 2034 4750 
Q 2819 4750 3233 4129 
Q 3647 3509 3647 2328 
Q 3647 1150 3233 529 
Q 2819 -91 2034 -91 
Q 1250 -91 836 529 
Q 422 1150 422 2328 
Q 422 3509 836 4129 
Q 1250 4750 2034 4750 
z
" transform="scale(0.015625)"/>
       </defs>
       <use xlink:href="#DejaVuSans-30"/>
      </g>
     </g>
    </g>
    <g id="xtick_2">
     <g id="line2d_2">
      <g>
       <use xlink:href="#mf74085dd70" x="121.694671" y="252" style="stroke: #000000; stroke-width: 0.8"/>
      </g>
     </g>
     <g id="text_2">
      <!-- 5 -->
      <g transform="translate(118.513421 266.598437)scale(0.1 -0.1)">
       <defs>
        <path id="DejaVuSans-35" d="M 691 4666 
L 3169 4666 
L 3169 4134 
L 1269 4134 
L 1269 2991 
Q 1406 3038 1543 3061 
Q 1681 3084 1819 3084 
Q 2600 3084 3056 2656 
Q 3513 2228 3513 1497 
Q 3513 744 3044 326 
Q 2575 -91 1722 -91 
Q 1428 -91 1123 -41 
Q 819 9 494 109 
L 494 744 
Q 775 591 1075 516 
Q 1375 441 1709 441 
Q 2250 441 2565 725 
Q 2881 1009 2881 1497 
Q 2881 1984 2565 2268 
Q 2250 2553 1709 2553 
Q 1456 2553 1204 2497 
Q 953 2441 691 2322 
L 691 4666 
z
" transform="scale(0.015625)"/>
       </defs>
       <use xlink:href="#DejaVuSans-35"/>
      </g>
     </g>
    </g>
    <g id="xtick_3">
     <g id="line2d_3">
      <g>
       <use xlink:href="#mf74085dd70" x="174.17116" y="252" style="stroke: #000000; stroke-width: 0.8"/>
      </g>
     </g>
     <g id="text_3">
      <!-- 10 -->
      <g transform="translate(167.80866 266.598437)scale(0.1 -0.1)">
       <defs>
        <path id="DejaVuSans-31" d="M 794 531 
L 1825 531 
L 1825 4091 
L 703 3866 
L 703 4441 
L 1819 4666 
L 2450 4666 
L 2450 531 
L 3481 531 
L 3481 0 
L 794 0 
L 794 531 
z
" transform="scale(0.015625)"/>
       </defs>
       <use xlink:href="#DejaVuSans-31"/>
       <use xlink:href="#DejaVuSans-30" x="63.623047"/>
      </g>
     </g>
    </g>
    <g id="xtick_4">
     <g id="line2d_4">
      <g>
       <use xlink:href="#mf74085dd70" x="226.647649" y="252" style="stroke: #000000; stroke-width: 0.8"/>
      </g>
     </g>
     <g id="text_4">
      <!-- 15 -->
      <g transform="translate(220.285149 266.598437)scale(0.1 -0.1)">
       <use xlink:href="#DejaVuSans-31"/>
       <use xlink:href="#DejaVuSans-35" x="63.623047"/>
      </g>
     </g>
    </g>
    <g id="xtick_5">
     <g id="line2d_5">
      <g>
       <use xlink:href="#mf74085dd70" x="279.124138" y="252" style="stroke: #000000; stroke-width: 0.8"/>
      </g>
     </g>
     <g id="text_5">
      <!-- 20 -->
      <g transform="translate(272.761638 266.598437)scale(0.1 -0.1)">
       <defs>
        <path id="DejaVuSans-32" d="M 1228 531 
L 3431 531 
L 3431 0 
L 469 0 
L 469 531 
Q 828 903 1448 1529 
Q 2069 2156 2228 2338 
Q 2531 2678 2651 2914 
Q 2772 3150 2772 3378 
Q 2772 3750 2511 3984 
Q 2250 4219 1831 4219 
Q 1534 4219 1204 4116 
Q 875 4013 500 3803 
L 500 4441 
Q 881 4594 1212 4672 
Q 1544 4750 1819 4750 
Q 2544 4750 2975 4387 
Q 3406 4025 3406 3419 
Q 3406 3131 3298 2873 
Q 3191 2616 2906 2266 
Q 2828 2175 2409 1742 
Q 1991 1309 1228 531 
z
" transform="scale(0.015625)"/>
       </defs>
       <use xlink:href="#DejaVuSans-32"/>
       <use xlink:href="#DejaVuSans-30" x="63.623047"/>
      </g>
     </g>
    </g>
    <g id="xtick_6">
     <g id="line2d_6">
      <g>
       <use xlink:href="#mf74085dd70" x="331.600627" y="252" style="stroke: #000000; stroke-width: 0.8"/>
      </g>
     </g>
     <g id="text_6">
      <!-- 25 -->
      <g transform="translate(325.238127 266.598437)scale(0.1 -0.1)">
       <use xlink:href="#DejaVuSans-32"/>
       <use xlink:href="#DejaVuSans-35" x="63.623047"/>
      </g>
     </g>
    </g>
    <g id="xtick_7">
     <g id="line2d_7">
      <g>
       <use xlink:href="#mf74085dd70" x="384.077116" y="252" style="stroke: #000000; stroke-width: 0.8"/>
      </g>
     </g>
     <g id="text_7">
      <!-- 30 -->
      <g transform="translate(377.714616 266.598437)scale(0.1 -0.1)">
       <defs>
        <path id="DejaVuSans-33" d="M 2597 2516 
Q 3050 2419 3304 2112 
Q 3559 1806 3559 1356 
Q 3559 666 3084 287 
Q 2609 -91 1734 -91 
Q 1441 -91 1130 -33 
Q 819 25 488 141 
L 488 750 
Q 750 597 1062 519 
Q 1375 441 1716 441 
Q 2309 441 2620 675 
Q 2931 909 2931 1356 
Q 2931 1769 2642 2001 
Q 2353 2234 1838 2234 
L 1294 2234 
L 1294 2753 
L 1863 2753 
Q 2328 2753 2575 2939 
Q 2822 3125 2822 3475 
Q 2822 3834 2567 4026 
Q 2313 4219 1838 4219 
Q 1578 4219 1281 4162 
Q 984 4106 628 3988 
L 628 4550 
Q 988 4650 1302 4700 
Q 1616 4750 1894 4750 
Q 2613 4750 3031 4423 
Q 3450 4097 3450 3541 
Q 3450 3153 3228 2886 
Q 3006 2619 2597 2516 
z
" transform="scale(0.015625)"/>
       </defs>
       <use xlink:href="#DejaVuSans-33"/>
       <use xlink:href="#DejaVuSans-30" x="63.623047"/>
      </g>
     </g>
    </g>
    <g id="text_8">
     <!-- Generation -->
     <g transform="translate(193.507031 280.276563)scale(0.1 -0.1)">
      <defs>
       <path id="DejaVuSans-47" d="M 3809 666 
L 3809 1919 
L 2778 1919 
L 2778 2438 
L 4434 2438 
L 4434 434 
Q 4069 175 3628 42 
Q 3188 -91 2688 -91 
Q 1594 -91 976 548 
Q 359 1188 359 2328 
Q 359 3472 976 4111 
Q 1594 4750 2688 4750 
Q 3144 4750 3555 4637 
Q 3966 4525 4313 4306 
L 4313 3634 
Q 3963 3931 3569 4081 
Q 3175 4231 2741 4231 
Q 1884 4231 1454 3753 
Q 1025 3275 1025 2328 
Q 1025 1384 1454 906 
Q 1884 428 2741 428 
Q 3075 428 3337 486 
Q 3600 544 3809 666 
z
" transform="scale(0.015625)"/>
       <path id="DejaVuSans-65" d="M 3597 1894 
L 3597 1613 
L 953 1613 
Q 991 1019 1311 708 
Q 1631 397 2203 397 
Q 2534 397 2845 478 
Q 3156 559 3463 722 
L 3463 178 
Q 3153 47 2828 -22 
Q 2503 -91 2169 -91 
Q 1331 -91 842 396 
Q 353 884 353 1716 
Q 353 2575 817 3079 
Q 1281 3584 2069 3584 
Q 2775 3584 3186 3129 
Q 3597 2675 3597 1894 
z
M 3022 2063 
Q 3016 2534 2758 2815 
Q 2500 3097 2075 3097 
Q 1594 3097 1305 2825 
Q 1016 2553 972 2059 
L 3022 2063 
z
" transform="scale(0.015625)"/>
       <path id="DejaVuSans-6e" d="M 3513 2113 
L 3513 0 
L 2938 0 
L 2938 2094 
Q 2938 2591 2744 2837 
Q 2550 3084 2163 3084 
Q 1697 3084 1428 2787 
Q 1159 2491 1159 1978 
L 1159 0 
L 581 0 
L 581 3500 
L 1159 3500 
L 1159 2956 
Q 1366 3272 1645 3428 
Q 1925 3584 2291 3584 
Q 2894 3584 3203 3211 
Q 3513 2838 3513 2113 
z
" transform="scale(0.015625)"/>
       <path id="DejaVuSans-72" d="M 2631 2963 
Q 2534 3019 2420 3045 
Q 2306 3072 2169 3072 
Q 1681 3072 1420 2755 
Q 1159 2438 1159 1844 
L 1159 0 
L 581 0 
L 581 3500 
L 1159 3500 
L 1159 2956 
Q 1341 3275 1631 3429 
Q 1922 3584 2338 3584 
Q 2397 3584 2469 3576 
Q 2541 3569 2628 3553 
L 2631 2963 
z
" transform="scale(0.015625)"/>
       <path id="DejaVuSans-61" d="M 2194 1759 
Q 1497 1759 1228 1600 
Q 959 1441 959 1056 
Q 959 750 1161 570 
Q 1363 391 1709 391 
Q 2188 391 2477 730 
Q 2766 1069 2766 1631 
L 2766 1759 
L 2194 1759 
z
M 3341 1997 
L 3341 0 
L 2766 0 
L 2766 531 
Q 2569 213 2275 61 
Q 1981 -91 1556 -91 
Q 1019 -91 701 211 
Q 384 513 384 1019 
Q 384 1609 779 1909 
Q 1175 2209 1959 2209 
L 2766 2209 
L 2766 2266 
Q 2766 2663 2505 2880 
Q 2244 3097 1772 3097 
Q 1472 3097 1187 3025 
Q 903 2953 641 2809 
L 641 3341 
Q 956 3463 1253 3523 
Q 1550 3584 1831 3584 
Q 2591 3584 2966 3190 
Q 3341 2797 3341 1997 
z
" transform="scale(0.015625)"/>
       <path id="DejaVuSans-74" d="M 1172 4494 
L 1172 3500 
L 2356 3500 
L 2356 3053 
L 1172 3053 
L 1172 1153 
Q 1172 725 1289 603 
Q 1406 481 1766 481 
L 2356 481 
L 2356 0 
L 1766 0 
Q 1100 0 847 248 
Q 594 497 594 1153 
L 594 3053 
L 172 3053 
L 172 3500 
L 594 3500 
L 594 4494 
L 1172 4494 
z
" transform="scale(0.015625)"/>
       <path id="DejaVuSans-69" d="M 603 3500 
L 1178 3500 
L 1178 0 
L 603 0 
L 603 3500 
z
M 603 4863 
L 1178 4863 
L 1178 4134 
L 603 4134 
L 603 4863 
z
" transform="scale(0.015625)"/>
       <path id="DejaVuSans-6f" d="M 1959 3097 
Q 1497 3097 1228 2736 
Q 959 2375 959 1747 
Q 959 1119 1226 758 
Q 1494 397 1959 397 
Q 2419 397 2687 759 
Q 2956 1122 2956 1747 
Q 2956 2369 2687 2733 
Q 2419 3097 1959 3097 
z
M 1959 3584 
Q 2709 3584 3137 3096 
Q 3566 2609 3566 1747 
Q 3566 888 3137 398 
Q 2709 -91 1959 -91 
Q 1206 -91 779 398 
Q 353 888 353 1747 
Q 353 2609 779 3096 
Q 1206 3584 1959 3584 
z
" transform="scale(0.015625)"/>
      </defs>
      <use xlink:href="#DejaVuSans-47"/>
      <use xlink:href="#DejaVuSans-65" x="77.490234"/>
      <use xlink:href="#DejaVuSans-6e" x="139.013672"/>
      <use xlink:href="#DejaVuSans-65" x="202.392578"/>
      <use xlink:href="#DejaVuSans-72" x="263.916016"/>
      <use xlink:href="#DejaVuSans-61" x="305.029297"/>
      <use xlink:href="#DejaVuSans-74" x="366.308594"/>
      <use xlink:href="#DejaVuSans-69" x="405.517578"/>
      <use xlink:href="#DejaVuSans-6f" x="433.300781"/>
      <use xlink:href="#DejaVuSans-6e" x="494.482422"/>
     </g>
    </g>
   </g>
   <g id="matplotlib.axis_2">
    <g id="ytick_1">
     <g id="line2d_8">
      <defs>
       <path id="m67c81a277e" d="M 0 0 
L -3.5 0 
" style="stroke: #000000; stroke-width: 0.8"/>
      </defs>
      <g>
       <use xlink:href="#m67c81a277e" x="54" y="252" style="stroke: #000000; stroke-width: 0.8"/>
      </g>
     </g>
     <g id="text_9">
      <!-- 7.5 -->
      <g transform="translate(31.096875 255.799219)scale(0.1 -0.1)">
       <defs>
        <path id="DejaVuSans-37" d="M 525 4666 
L 3525 4666 
L 3525 4397 
L 1831 0 
L 1172 0 
L 2766 4134 
L 525 4134 
L 525 4666 
z
" transform="scale(0.015625)"/>
        <path id="DejaVuSans-2e" d="M 684 794 
L 1344 794 
L 1344 0 
L 684 0 
L 684 794 
z
" transform="scale(0.015625)"/>
       </defs>
       <use xlink:href="#DejaVuSans-37"/>
       <use xlink:href="#DejaVuSans-2e" x="63.623047"/>
       <use xlink:href="#DejaVuSans-35" x="95.410156"/>
      </g>
     </g>
    </g>
    <g id="ytick_2">
     <g id="line2d_9">
      <g>
       <use xlink:href="#m67c81a277e" x="54" y="215.76" style="stroke: #000000; stroke-width: 0.8"/>
      </g>
     </g>
     <g id="text_10">
      <!-- 8.0 -->
      <g transform="translate(31.096875 219.559219)scale(0.1 -0.1)">
       <defs>
        <path id="DejaVuSans-38" d="M 2034 2216 
Q 1584 2216 1326 1975 
Q 1069 1734 1069 1313 
Q 1069 891 1326 650 
Q 1584 409 2034 409 
Q 2484 409 2743 651 
Q 3003 894 3003 1313 
Q 3003 1734 2745 1975 
Q 2488 2216 2034 2216 
z
M 1403 2484 
Q 997 2584 770 2862 
Q 544 3141 544 3541 
Q 544 4100 942 4425 
Q 1341 4750 2034 4750 
Q 2731 4750 3128 4425 
Q 3525 4100 3525 3541 
Q 3525 3141 3298 2862 
Q 3072 2584 2669 2484 
Q 3125 2378 3379 2068 
Q 3634 1759 3634 1313 
Q 3634 634 3220 271 
Q 2806 -91 2034 -91 
Q 1263 -91 848 271 
Q 434 634 434 1313 
Q 434 1759 690 2068 
Q 947 2378 1403 2484 
z
M 1172 3481 
Q 1172 3119 1398 2916 
Q 1625 2713 2034 2713 
Q 2441 2713 2670 2916 
Q 2900 3119 2900 3481 
Q 2900 3844 2670 4047 
Q 2441 4250 2034 4250 
Q 1625 4250 1398 4047 
Q 1172 3844 1172 3481 
z
" transform="scale(0.015625)"/>
       </defs>
       <use xlink:href="#DejaVuSans-38"/>
       <use xlink:href="#DejaVuSans-2e" x="63.623047"/>
       <use xlink:href="#DejaVuSans-30" x="95.410156"/>
      </g>
     </g>
    </g>
    <g id="ytick_3">
     <g id="line2d_10">
      <g>
       <use xlink:href="#m67c81a277e" x="54" y="179.52" style="stroke: #000000; stroke-width: 0.8"/>
      </g>
     </g>
     <g id="text_11">
      <!-- 8.5 -->
      <g transform="translate(31.096875 183.319219)scale(0.1 -0.1)">
       <use xlink:href="#DejaVuSans-38"/>
       <use xlink:href="#DejaVuSans-2e" x="63.623047"/>
       <use xlink:href="#DejaVuSans-35" x="95.410156"/>
      </g>
     </g>
    </g>
    <g id="ytick_4">
     <g id="line2d_11">
      <g>
       <use xlink:href="#m67c81a277e" x="54" y="143.28" style="stroke: #000000; stroke-width: 0.8"/>
      </g>
     </g>
     <g id="text_12">
      <!-- 9.0 -->
      <g transform="translate(31.096875 147.079219)scale(0.1 -0.1)">
       <defs>
        <path id="DejaVuSans-39" d="M 703 97 
L 703 672 
Q 941 559 1184 500 
Q 1428 441 1663 441 
Q 2288 441 2617 861 
Q 2947 1281 2994 2138 
Q 2813 1869 2534 1725 
Q 2256 1581 1919 1581 
Q 1219 1581 811 2004 
Q 403 2428 403 3163 
Q 403 3881 828 4315 
Q 1253 4750 1959 4750 
Q 2769 4750 3195 4129 
Q 3622 3509 3622 2328 
Q 3622 1225 3098 567 
Q 2575 -91 1691 -91 
Q 1453 -91 1209 -44 
Q 966 3 703 97 
z
M 1959 2075 
Q 2384 2075 2632 2365 
Q 2881 2656 2881 3163 
Q 2881 3666 2632 3958 
Q 2384 4250 1959 4250 
Q 1534 4250 1286 3958 
Q 1038 3666 1038 3163 
Q 1038 2656 1286 2365 
Q 1534 2075 1959 2075 
z
" transform="scale(0.015625)"/>
       </defs>
       <use xlink:href="#DejaVuSans-39"/>
       <use xlink:href="#DejaVuSans-2e" x="63.623047"/>
       <use xlink:href="#DejaVuSans-30" x="95.410156"/>
      </g>
     </g>
    </g>
    <g id="ytick_5">
     <g id="line2d_12">
      <g>
       <use xlink:href="#m67c81a277e" x="54" y="107.04" style="stroke: #000000; stroke-width: 0.8"/>
      </g>
     </g>
     <g id="text_13">
      <!-- 9.5 -->
      <g transform="translate(31.096875 110.839219)scale(0.1 -0.1)">
       <use xlink:href="#DejaVuSans-39"/>
       <use xlink:href="#DejaVuSans-2e" x="63.623047"/>
       <use xlink:href="#DejaVuSans-35" x="95.410156"/>
      </g>
     </g>
    </g>
    <g id="ytick_6">
     <g id="line2d_13">
      <g>
       <use xlink:href="#m67c81a277e" x="54" y="70.8" style="stroke: #000000; stroke-width: 0.8"/>
      </g>
     </g>
     <g id="text_14">
      <!-- 10.0 -->
      <g transform="translate(24.734375 74.599219)scale(0.1 -0.1)">
       <use xlink:href="#DejaVuSans-31"/>
       <use xlink:href="#DejaVuSans-30" x="63.623047"/>
       <use xlink:href="#DejaVuSans-2e" x="127.246094"/>
       <use xlink:href="#DejaVuSans-30" x="159.033203"/>
      </g>
     </g>
    </g>
    <g id="ytick_7">
     <g id="line2d_14">
      <g>
       <use xlink:href="#m67c81a277e" x="54" y="34.56" style="stroke: #000000; stroke-width: 0.8"/>
      </g>
     </g>
     <g id="text_15">
      <!-- 10.5 -->
      <g transform="translate(24.734375 38.359219)scale(0.1 -0.1)">
       <use xlink:href="#DejaVuSans-31"/>
       <use xlink:href="#DejaVuSans-30" x="63.623047"/>
       <use xlink:href="#DejaVuSans-2e" x="127.246094"/>
       <use xlink:href="#DejaVuSans-35" x="159.033203"/>
      </g>
     </g>
    </g>
    <g id="text_16">
     <!-- Average Energy -->
     <g transform="translate(18.654687 182.908125)rotate(-90)scale(0.1 -0.1)">
      <defs>
       <path id="DejaVuSans-41" d="M 2188 4044 
L 1331 1722 
L 3047 1722 
L 2188 4044 
z
M 1831 4666 
L 2547 4666 
L 4325 0 
L 3669 0 
L 3244 1197 
L 1141 1197 
L 716 0 
L 50 0 
L 1831 4666 
z
" transform="scale(0.015625)"/>
       <path id="DejaVuSans-76" d="M 191 3500 
L 800 3500 
L 1894 563 
L 2988 3500 
L 3597 3500 
L 2284 0 
L 1503 0 
L 191 3500 
z
" transform="scale(0.015625)"/>
       <path id="DejaVuSans-67" d="M 2906 1791 
Q 2906 2416 2648 2759 
Q 2391 3103 1925 3103 
Q 1463 3103 1205 2759 
Q 947 2416 947 1791 
Q 947 1169 1205 825 
Q 1463 481 1925 481 
Q 2391 481 2648 825 
Q 2906 1169 2906 1791 
z
M 3481 434 
Q 3481 -459 3084 -895 
Q 2688 -1331 1869 -1331 
Q 1566 -1331 1297 -1286 
Q 1028 -1241 775 -1147 
L 775 -588 
Q 1028 -725 1275 -790 
Q 1522 -856 1778 -856 
Q 2344 -856 2625 -561 
Q 2906 -266 2906 331 
L 2906 616 
Q 2728 306 2450 153 
Q 2172 0 1784 0 
Q 1141 0 747 490 
Q 353 981 353 1791 
Q 353 2603 747 3093 
Q 1141 3584 1784 3584 
Q 2172 3584 2450 3431 
Q 2728 3278 2906 2969 
L 2906 3500 
L 3481 3500 
L 3481 434 
z
" transform="scale(0.015625)"/>
       <path id="DejaVuSans-20" transform="scale(0.015625)"/>
       <path id="DejaVuSans-45" d="M 628 4666 
L 3578 4666 
L 3578 4134 
L 1259 4134 
L 1259 2753 
L 3481 2753 
L 3481 2222 
L 1259 2222 
L 1259 531 
L 3634 531 
L 3634 0 
L 628 0 
L 628 4666 
z
" transform="scale(0.015625)"/>
       <path id="DejaVuSans-79" d="M 2059 -325 
Q 1816 -950 1584 -1140 
Q 1353 -1331 966 -1331 
L 506 -1331 
L 506 -850 
L 844 -850 
Q 1081 -850 1212 -737 
Q 1344 -625 1503 -206 
L 1606 56 
L 191 3500 
L 800 3500 
L 1894 763 
L 2988 3500 
L 3597 3500 
L 2059 -325 
z
" transform="scale(0.015625)"/>
      </defs>
      <use xlink:href="#DejaVuSans-41"/>
      <use xlink:href="#DejaVuSans-76" x="62.533203"/>
      <use xlink:href="#DejaVuSans-65" x="121.712891"/>
      <use xlink:href="#DejaVuSans-72" x="183.236328"/>
      <use xlink:href="#DejaVuSans-61" x="224.349609"/>
      <use xlink:href="#DejaVuSans-67" x="285.628906"/>
      <use xlink:href="#DejaVuSans-65" x="349.105469"/>
      <use xlink:href="#DejaVuSans-20" x="410.628906"/>
      <use xlink:href="#DejaVuSans-45" x="442.416016"/>
      <use xlink:href="#DejaVuSans-6e" x="505.599609"/>
      <use xlink:href="#DejaVuSans-65" x="568.978516"/>
      <use xlink:href="#DejaVuSans-72" x="630.501953"/>
      <use xlink:href="#DejaVuSans-67" x="669.865234"/>
      <use xlink:href="#DejaVuSans-79" x="733.341797"/>
     </g>
    </g>
   </g>
   <g id="line2d_15">
    <path d="M 69.218182 170.8224 
L 79.71348 183.144 
L 90.208777 170.3392 
L 100.704075 160.9168 
L 111.199373 160.192 
L 121.694671 167.6816 
L 132.189969 163.3328 
L 142.685266 167.44 
L 153.180564 167.1984 
L 163.675862 162.8496 
L 174.17116 152.944 
L 184.666458 142.072 
L 195.161755 166.7152 
L 205.657053 154.8768 
L 216.152351 148.112 
L 226.647649 156.568 
L 237.142947 146.904 
L 247.638245 118.6368 
L 258.133542 143.28 
L 268.62884 116.4624 
L 279.124138 131.2 
L 289.619436 119.12 
L 300.114734 124.6768 
L 310.610031 130.2336 
L 321.105329 107.04 
L 331.600627 121.2944 
L 342.095925 115.2544 
L 352.591223 112.5968 
L 363.08652 131.4416 
L 373.581818 121.2944 
" clip-path="url(#p235b01aff8)" style="fill: none; stroke: #1f77b4; stroke-width: 1.5; stroke-linecap: square"/>
   </g>
   <g id="line2d_16">
    <path d="M 69.218182 226.8736 
L 79.71348 225.6656 
L 90.208777 226.632 
L 100.704075 215.0352 
L 111.199373 227.3568 
L 121.694671 225.6656 
L 132.189969 222.0416 
L 142.685266 218.176 
L 153.180564 203.9216 
L 163.675862 205.6128 
L 174.17116 209.72 
L 184.666458 201.264 
L 195.161755 203.68 
L 205.657053 193.0496 
L 216.152351 188.4592 
L 226.647649 203.9216 
L 237.142947 209.9616 
L 247.638245 192.808 
L 258.133542 180.728 
L 268.62884 181.936 
L 279.124138 189.184 
L 289.619436 184.1104 
L 300.114734 189.4256 
L 310.610031 190.8752 
L 321.105329 198.1232 
L 331.600627 202.7136 
L 342.095925 195.224 
L 352.591223 194.4992 
L 363.08652 198.848 
L 373.581818 196.9152 
" clip-path="url(#p235b01aff8)" style="fill: none; stroke: #ff7f0e; stroke-width: 1.5; stroke-linecap: square"/>
   </g>
   <g id="line2d_17">
    <path d="M 69.218182 186.2848 
L 79.71348 153.6688 
L 90.208777 144.2464 
L 100.704075 155.36 
L 111.199373 139.656 
L 121.694671 151.0112 
L 132.189969 132.6496 
L 142.685266 157.5344 
L 153.180564 148.5952 
L 163.675862 143.7632 
L 174.17116 152.7024 
L 184.666458 128.784 
L 195.161755 145.9376 
L 205.657053 142.072 
L 216.152351 131.6832 
L 226.647649 143.28 
L 237.142947 144.7296 
L 247.638245 131.6832 
L 258.133542 132.408 
L 268.62884 128.3008 
L 279.124138 144.0048 
L 289.619436 138.448 
L 300.114734 128.784 
L 310.610031 122.0192 
L 321.105329 122.0192 
L 331.600627 142.3136 
L 342.095925 136.2736 
L 352.591223 124.1936 
L 363.08652 117.4288 
L 373.581818 130.2336 
" clip-path="url(#p235b01aff8)" style="fill: none; stroke: #2ca02c; stroke-width: 1.5; stroke-linecap: square"/>
   </g>
   <g id="line2d_18">
    <path d="M 69.218182 200.2976 
L 79.71348 211.4112 
L 90.208777 216.968 
L 100.704075 226.1488 
L 111.199373 208.512 
L 121.694671 208.0288 
L 132.189969 203.9216 
L 142.685266 201.7472 
L 153.180564 204.888 
L 163.675862 206.5792 
L 174.17116 208.7536 
L 184.666458 201.5056 
L 195.161755 200.7808 
L 205.657053 209.9616 
L 216.152351 202.9552 
L 226.647649 189.184 
L 237.142947 187.7344 
L 247.638245 185.8016 
L 258.133542 201.9888 
L 268.62884 197.8816 
L 279.124138 184.8352 
L 289.619436 193.5328 
L 300.114734 183.144 
L 310.610031 191.1168 
L 321.105329 187.0096 
L 331.600627 184.1104 
L 342.095925 192.808 
L 352.591223 176.1376 
L 363.08652 178.312 
L 373.581818 168.8896 
" clip-path="url(#p235b01aff8)" style="fill: none; stroke: #d62728; stroke-width: 1.5; stroke-linecap: square"/>
   </g>
   <g id="patch_3">
    <path d="M 54 252 
L 54 34.56 
" style="fill: none; stroke: #000000; stroke-width: 0.8; stroke-linejoin: miter; stroke-linecap: square"/>
   </g>
   <g id="patch_4">
    <path d="M 388.8 252 
L 388.8 34.56 
" style="fill: none; stroke: #000000; stroke-width: 0.8; stroke-linejoin: miter; stroke-linecap: square"/>
   </g>
   <g id="patch_5">
    <path d="M 54 252 
L 388.8 252 
" style="fill: none; stroke: #000000; stroke-width: 0.8; stroke-linejoin: miter; stroke-linecap: square"/>
   </g>
   <g id="patch_6">
    <path d="M 54 34.56 
L 388.8 34.56 
" style="fill: none; stroke: #000000; stroke-width: 0.8; stroke-linejoin: miter; stroke-linecap: square"/>
   </g>
   <g id="text_17">
    <!-- Mean of Average Energies 3 runs -->
    <g transform="translate(122.139375 28.56)scale(0.12 -0.12)">
     <defs>
      <path id="DejaVuSans-4d" d="M 628 4666 
L 1569 4666 
L 2759 1491 
L 3956 4666 
L 4897 4666 
L 4897 0 
L 4281 0 
L 4281 4097 
L 3078 897 
L 2444 897 
L 1241 4097 
L 1241 0 
L 628 0 
L 628 4666 
z
" transform="scale(0.015625)"/>
      <path id="DejaVuSans-66" d="M 2375 4863 
L 2375 4384 
L 1825 4384 
Q 1516 4384 1395 4259 
Q 1275 4134 1275 3809 
L 1275 3500 
L 2222 3500 
L 2222 3053 
L 1275 3053 
L 1275 0 
L 697 0 
L 697 3053 
L 147 3053 
L 147 3500 
L 697 3500 
L 697 3744 
Q 697 4328 969 4595 
Q 1241 4863 1831 4863 
L 2375 4863 
z
" transform="scale(0.015625)"/>
      <path id="DejaVuSans-73" d="M 2834 3397 
L 2834 2853 
Q 2591 2978 2328 3040 
Q 2066 3103 1784 3103 
Q 1356 3103 1142 2972 
Q 928 2841 928 2578 
Q 928 2378 1081 2264 
Q 1234 2150 1697 2047 
L 1894 2003 
Q 2506 1872 2764 1633 
Q 3022 1394 3022 966 
Q 3022 478 2636 193 
Q 2250 -91 1575 -91 
Q 1294 -91 989 -36 
Q 684 19 347 128 
L 347 722 
Q 666 556 975 473 
Q 1284 391 1588 391 
Q 1994 391 2212 530 
Q 2431 669 2431 922 
Q 2431 1156 2273 1281 
Q 2116 1406 1581 1522 
L 1381 1569 
Q 847 1681 609 1914 
Q 372 2147 372 2553 
Q 372 3047 722 3315 
Q 1072 3584 1716 3584 
Q 2034 3584 2315 3537 
Q 2597 3491 2834 3397 
z
" transform="scale(0.015625)"/>
      <path id="DejaVuSans-75" d="M 544 1381 
L 544 3500 
L 1119 3500 
L 1119 1403 
Q 1119 906 1312 657 
Q 1506 409 1894 409 
Q 2359 409 2629 706 
Q 2900 1003 2900 1516 
L 2900 3500 
L 3475 3500 
L 3475 0 
L 2900 0 
L 2900 538 
Q 2691 219 2414 64 
Q 2138 -91 1772 -91 
Q 1169 -91 856 284 
Q 544 659 544 1381 
z
M 1991 3584 
L 1991 3584 
z
" transform="scale(0.015625)"/>
     </defs>
     <use xlink:href="#DejaVuSans-4d"/>
     <use xlink:href="#DejaVuSans-65" x="86.279297"/>
     <use xlink:href="#DejaVuSans-61" x="147.802734"/>
     <use xlink:href="#DejaVuSans-6e" x="209.082031"/>
     <use xlink:href="#DejaVuSans-20" x="272.460938"/>
     <use xlink:href="#DejaVuSans-6f" x="304.248047"/>
     <use xlink:href="#DejaVuSans-66" x="365.429688"/>
     <use xlink:href="#DejaVuSans-20" x="400.634766"/>
     <use xlink:href="#DejaVuSans-41" x="432.421875"/>
     <use xlink:href="#DejaVuSans-76" x="494.955078"/>
     <use xlink:href="#DejaVuSans-65" x="554.134766"/>
     <use xlink:href="#DejaVuSans-72" x="615.658203"/>
     <use xlink:href="#DejaVuSans-61" x="656.771484"/>
     <use xlink:href="#DejaVuSans-67" x="718.050781"/>
     <use xlink:href="#DejaVuSans-65" x="781.527344"/>
     <use xlink:href="#DejaVuSans-20" x="843.050781"/>
     <use xlink:href="#DejaVuSans-45" x="874.837891"/>
     <use xlink:href="#DejaVuSans-6e" x="938.021484"/>
     <use xlink:href="#DejaVuSans-65" x="1001.400391"/>
     <use xlink:href="#DejaVuSans-72" x="1062.923828"/>
     <use xlink:href="#DejaVuSans-67" x="1102.287109"/>
     <use xlink:href="#DejaVuSans-69" x="1165.763672"/>
     <use xlink:href="#DejaVuSans-65" x="1193.546875"/>
     <use xlink:href="#DejaVuSans-73" x="1255.070312"/>
     <use xlink:href="#DejaVuSans-20" x="1307.169922"/>
     <use xlink:href="#DejaVuSans-33" x="1338.957031"/>
     <use xlink:href="#DejaVuSans-20" x="1402.580078"/>
     <use xlink:href="#DejaVuSans-72" x="1434.367188"/>
     <use xlink:href="#DejaVuSans-75" x="1475.480469"/>
     <use xlink:href="#DejaVuSans-6e" x="1538.859375"/>
     <use xlink:href="#DejaVuSans-73" x="1602.238281"/>
    </g>
   </g>
   <g id="legend_1">
    <g id="patch_7">
     <path d="M 61 101.2725 
L 193.740625 101.2725 
Q 195.740625 101.2725 195.740625 99.2725 
L 195.740625 41.56 
Q 195.740625 39.56 193.740625 39.56 
L 61 39.56 
Q 59 39.56 59 41.56 
L 59 99.2725 
Q 59 101.2725 61 101.2725 
z
" style="fill: #ffffff; opacity: 0.8; stroke: #cccccc; stroke-linejoin: miter"/>
    </g>
    <g id="line2d_19">
     <path d="M 63 47.658437 
L 73 47.658437 
L 83 47.658437 
" style="fill: none; stroke: #1f77b4; stroke-width: 1.5; stroke-linecap: square"/>
    </g>
    <g id="text_18">
     <!-- original, mut=.0001 -->
     <g transform="translate(91 51.158437)scale(0.1 -0.1)">
      <defs>
       <path id="DejaVuSans-6c" d="M 603 4863 
L 1178 4863 
L 1178 0 
L 603 0 
L 603 4863 
z
" transform="scale(0.015625)"/>
       <path id="DejaVuSans-2c" d="M 750 794 
L 1409 794 
L 1409 256 
L 897 -744 
L 494 -744 
L 750 256 
L 750 794 
z
" transform="scale(0.015625)"/>
       <path id="DejaVuSans-6d" d="M 3328 2828 
Q 3544 3216 3844 3400 
Q 4144 3584 4550 3584 
Q 5097 3584 5394 3201 
Q 5691 2819 5691 2113 
L 5691 0 
L 5113 0 
L 5113 2094 
Q 5113 2597 4934 2840 
Q 4756 3084 4391 3084 
Q 3944 3084 3684 2787 
Q 3425 2491 3425 1978 
L 3425 0 
L 2847 0 
L 2847 2094 
Q 2847 2600 2669 2842 
Q 2491 3084 2119 3084 
Q 1678 3084 1418 2786 
Q 1159 2488 1159 1978 
L 1159 0 
L 581 0 
L 581 3500 
L 1159 3500 
L 1159 2956 
Q 1356 3278 1631 3431 
Q 1906 3584 2284 3584 
Q 2666 3584 2933 3390 
Q 3200 3197 3328 2828 
z
" transform="scale(0.015625)"/>
       <path id="DejaVuSans-3d" d="M 678 2906 
L 4684 2906 
L 4684 2381 
L 678 2381 
L 678 2906 
z
M 678 1631 
L 4684 1631 
L 4684 1100 
L 678 1100 
L 678 1631 
z
" transform="scale(0.015625)"/>
      </defs>
      <use xlink:href="#DejaVuSans-6f"/>
      <use xlink:href="#DejaVuSans-72" x="61.181641"/>
      <use xlink:href="#DejaVuSans-69" x="102.294922"/>
      <use xlink:href="#DejaVuSans-67" x="130.078125"/>
      <use xlink:href="#DejaVuSans-69" x="193.554688"/>
      <use xlink:href="#DejaVuSans-6e" x="221.337891"/>
      <use xlink:href="#DejaVuSans-61" x="284.716797"/>
      <use xlink:href="#DejaVuSans-6c" x="345.996094"/>
      <use xlink:href="#DejaVuSans-2c" x="373.779297"/>
      <use xlink:href="#DejaVuSans-20" x="405.566406"/>
      <use xlink:href="#DejaVuSans-6d" x="437.353516"/>
      <use xlink:href="#DejaVuSans-75" x="534.765625"/>
      <use xlink:href="#DejaVuSans-74" x="598.144531"/>
      <use xlink:href="#DejaVuSans-3d" x="637.353516"/>
      <use xlink:href="#DejaVuSans-2e" x="721.142578"/>
      <use xlink:href="#DejaVuSans-30" x="752.929688"/>
      <use xlink:href="#DejaVuSans-30" x="816.552734"/>
      <use xlink:href="#DejaVuSans-30" x="880.175781"/>
      <use xlink:href="#DejaVuSans-31" x="943.798828"/>
     </g>
    </g>
    <g id="line2d_20">
     <path d="M 63 62.336562 
L 73 62.336562 
L 83 62.336562 
" style="fill: none; stroke: #ff7f0e; stroke-width: 1.5; stroke-linecap: square"/>
    </g>
    <g id="text_19">
     <!-- RZZ, mut=.0001 -->
     <g transform="translate(91 65.836562)scale(0.1 -0.1)">
      <defs>
       <path id="DejaVuSans-52" d="M 2841 2188 
Q 3044 2119 3236 1894 
Q 3428 1669 3622 1275 
L 4263 0 
L 3584 0 
L 2988 1197 
Q 2756 1666 2539 1819 
Q 2322 1972 1947 1972 
L 1259 1972 
L 1259 0 
L 628 0 
L 628 4666 
L 2053 4666 
Q 2853 4666 3247 4331 
Q 3641 3997 3641 3322 
Q 3641 2881 3436 2590 
Q 3231 2300 2841 2188 
z
M 1259 4147 
L 1259 2491 
L 2053 2491 
Q 2509 2491 2742 2702 
Q 2975 2913 2975 3322 
Q 2975 3731 2742 3939 
Q 2509 4147 2053 4147 
L 1259 4147 
z
" transform="scale(0.015625)"/>
       <path id="DejaVuSans-5a" d="M 359 4666 
L 4025 4666 
L 4025 4184 
L 1075 531 
L 4097 531 
L 4097 0 
L 288 0 
L 288 481 
L 3238 4134 
L 359 4134 
L 359 4666 
z
" transform="scale(0.015625)"/>
      </defs>
      <use xlink:href="#DejaVuSans-52"/>
      <use xlink:href="#DejaVuSans-5a" x="69.482422"/>
      <use xlink:href="#DejaVuSans-5a" x="137.988281"/>
      <use xlink:href="#DejaVuSans-2c" x="206.494141"/>
      <use xlink:href="#DejaVuSans-20" x="238.28125"/>
      <use xlink:href="#DejaVuSans-6d" x="270.068359"/>
      <use xlink:href="#DejaVuSans-75" x="367.480469"/>
      <use xlink:href="#DejaVuSans-74" x="430.859375"/>
      <use xlink:href="#DejaVuSans-3d" x="470.068359"/>
      <use xlink:href="#DejaVuSans-2e" x="553.857422"/>
      <use xlink:href="#DejaVuSans-30" x="585.644531"/>
      <use xlink:href="#DejaVuSans-30" x="649.267578"/>
      <use xlink:href="#DejaVuSans-30" x="712.890625"/>
      <use xlink:href="#DejaVuSans-31" x="776.513672"/>
     </g>
    </g>
    <g id="line2d_21">
     <path d="M 63 77.014687 
L 73 77.014687 
L 83 77.014687 
" style="fill: none; stroke: #2ca02c; stroke-width: 1.5; stroke-linecap: square"/>
    </g>
    <g id="text_20">
     <!-- original, mut=.01 -->
     <g transform="translate(91 80.514687)scale(0.1 -0.1)">
      <use xlink:href="#DejaVuSans-6f"/>
      <use xlink:href="#DejaVuSans-72" x="61.181641"/>
      <use xlink:href="#DejaVuSans-69" x="102.294922"/>
      <use xlink:href="#DejaVuSans-67" x="130.078125"/>
      <use xlink:href="#DejaVuSans-69" x="193.554688"/>
      <use xlink:href="#DejaVuSans-6e" x="221.337891"/>
      <use xlink:href="#DejaVuSans-61" x="284.716797"/>
      <use xlink:href="#DejaVuSans-6c" x="345.996094"/>
      <use xlink:href="#DejaVuSans-2c" x="373.779297"/>
      <use xlink:href="#DejaVuSans-20" x="405.566406"/>
      <use xlink:href="#DejaVuSans-6d" x="437.353516"/>
      <use xlink:href="#DejaVuSans-75" x="534.765625"/>
      <use xlink:href="#DejaVuSans-74" x="598.144531"/>
      <use xlink:href="#DejaVuSans-3d" x="637.353516"/>
      <use xlink:href="#DejaVuSans-2e" x="721.142578"/>
      <use xlink:href="#DejaVuSans-30" x="752.929688"/>
      <use xlink:href="#DejaVuSans-31" x="816.552734"/>
     </g>
    </g>
    <g id="line2d_22">
     <path d="M 63 91.692813 
L 73 91.692813 
L 83 91.692813 
" style="fill: none; stroke: #d62728; stroke-width: 1.5; stroke-linecap: square"/>
    </g>
    <g id="text_21">
     <!-- RZZ, mut=.01 -->
     <g transform="translate(91 95.192813)scale(0.1 -0.1)">
      <use xlink:href="#DejaVuSans-52"/>
      <use xlink:href="#DejaVuSans-5a" x="69.482422"/>
      <use xlink:href="#DejaVuSans-5a" x="137.988281"/>
      <use xlink:href="#DejaVuSans-2c" x="206.494141"/>
      <use xlink:href="#DejaVuSans-20" x="238.28125"/>
      <use xlink:href="#DejaVuSans-6d" x="270.068359"/>
      <use xlink:href="#DejaVuSans-75" x="367.480469"/>
      <use xlink:href="#DejaVuSans-74" x="430.859375"/>
      <use xlink:href="#DejaVuSans-3d" x="470.068359"/>
      <use xlink:href="#DejaVuSans-2e" x="553.857422"/>
      <use xlink:href="#DejaVuSans-30" x="585.644531"/>
      <use xlink:href="#DejaVuSans-31" x="649.267578"/>
     </g>
    </g>
   </g>
  </g>
 </g>
 <defs>
  <clipPath id="p235b01aff8">
   <rect x="54" y="34.56" width="334.8" height="217.44"/>
  </clipPath>
 </defs>
</svg>
